<svg width="865" height="509" viewBox="0 0 865 509" fill="none" xmlns="http://www.w3.org/2000/svg">
<path d="M364.321 452.651C362.814 462.699 335.006 495.999 347.446 495.999C350.181 495.999 354.724 493.048 356.548 492.546C360.169 491.071 366.831 488.12 374.699 485.663C382.586 483.693 394.246 479.944 403.741 477.054C411.01 474.84 419.821 472.485 427.337 469.182C434.607 465.987 441.333 463.361 452.458 458.108C461.833 453.682 467.869 447.788 474.829 443.11C481.799 438.425 488.278 432.768 492.672 426.629C496.901 420.719 499.088 413.671 505.686 409.424C507.211 408.443 509.008 407.956 586.431 407.713C663.854 407.469 617.596 407.469 692.795 406.968C767.995 406.466 769.792 405.492 771.616 404.504C775.237 402.541 779.909 402.669 784.022 401.066C791.591 398.115 797.842 393.199 806.412 388.266C815.805 382.858 825.331 378.597 830.906 371.541C836.352 364.651 840.183 358.221 846.335 351.622C852.07 345.469 852.506 341.952 855.074 335.689C856.281 332.746 858.717 328.852 857.797 303.956C856.899 279.633 856.898 138.333 856.281 112.954C855.664 87.5757 854.453 83.6818 853.867 80.2277C852.034 69.4271 850.501 63.1319 845.99 57.6306C841.143 51.7212 838.361 44.5336 830.852 38.4418C821.758 31.0643 813.835 25.3851 806.048 22.4769C798.779 19.762 790.338 17.7844 782.452 14.8486C774.566 11.9124 764.868 8.04889 749.463 9.21226C746.141 9.46309 744.344 9.95 638.224 10.1935C532.104 10.4369 327.851 10.4369 224.799 10.6877C121.747 10.9386 119.95 11.4255 117.817 11.669C115.684 11.9124 113.186 11.6853 111.165 12.4141C102.979 15.3651 93.2753 18.1907 82.1141 21.0236C71.5048 23.7163 58.8917 22.5284 52.1649 27.678C41.8824 35.5498 38.2779 42.0981 31.0008 49.8104C24.9656 56.2067 14.9378 61.8036 12.8589 85.5985C11.062 106.167 10.5721 240.659 11.3706 262.119C12.2782 286.509 15.2393 293.209 16.5164 301.264C18.3225 312.654 19.252 326.698 22.5698 333.474C25.5829 339.626 27.479 345.291 30.7377 352.655C33.4604 358.808 37.3506 364.552 43.4525 372.087C49.8326 379.966 59.9863 386.801 68.873 390.265C76.442 393.216 84.5189 397.793 93.6945 398.373C105.484 399.118 113.521 402.065 123.326 404.282C130.895 405.994 334.466 405.65 343.543 407.72C351.112 409.447 364.424 406.499 366.822 412.405C369.227 418.329 368.317 425.993 364.321 452.651Z" fill="#164092"/>
<path d="M332.899 465.326C334.972 461.499 337.297 457.641 339.437 454.049C340.497 452.268 341.528 450.514 342.295 449.119C342.676 448.43 342.991 447.815 343.129 447.557C343.28 447.38 343.191 447.127 342.816 449.426C343.96 443.151 345.18 437.023 346.197 431.876C346.957 427.949 347.868 430.083 348.406 427.444C349.566 422.469 348.57 417.554 349.362 419.413C349.393 419.438 349.437 419.446 349.492 419.441C351.209 421.964 350.176 416.935 352.839 421.234C354.615 423.544 356.563 424.465 357.391 424.769C358.281 425.083 358.432 425 358.283 424.945C357.94 424.795 356.529 424.631 354.886 424.573C351.376 424.335 347.476 424.895 339.971 423.38C341.706 423.705 340.529 423.474 340.286 423.474C339.871 423.432 339.052 423.37 338.488 423.327C337.435 423.242 335.658 423.131 334.503 423.038C281.047 419.788 227.326 419.235 172.385 417.808C164.913 417.619 156.558 417.171 148.143 416.718C144.066 416.493 139.699 416.264 135.437 416.051C133.398 415.947 131.185 415.843 129.014 415.734C127.785 415.673 127.054 415.634 125.712 415.557C124.319 415.433 123.95 415.579 120.896 415.028C117.466 414.26 114.246 413.459 111.272 412.818C109.19 412.374 110.02 414.261 109.596 414.291C103.185 414.816 105.968 412.121 102.298 410.921C99.2949 409.981 96.2365 409.283 93.0322 408.852C81.3293 407.516 72.3622 402.031 65.3098 399.405C59.6722 397.221 54.7098 394.549 50.1086 391.625C43.5381 387.168 47.9626 394.61 42.6779 388.063C42.3294 387.605 44.9919 387.614 43.443 386.047C41.5141 384.083 38.5283 381.216 36.0112 378.113C34.2669 375.982 32.6512 373.938 31.7417 372.618C27.8897 366.854 27.1295 365.894 23.8273 359.717C23.2897 358.654 22.7765 357.542 22.2957 356.391C19.5833 349.941 17.595 342.789 14.7699 337.293C14.0565 335.864 13.5471 334.572 13.0958 333.347C12.3087 331.091 11.4956 334.634 10.1814 331.051C8.82479 327.395 7.71706 318.911 7.79365 316.16C7.84219 313.368 9.37454 314.358 9.62573 313.834C11.1332 310.814 9.19182 305.638 7.73942 302.655C7.15383 301.546 6.62178 300.687 6.53262 300.379C4.79476 294.68 3.13901 287.499 2.49478 281.18C1.77789 274.748 1.61279 268.571 1.60966 262.482C1.66167 254.231 1.9853 246.243 1.92937 238.003C1.84366 222.446 1.16743 205.75 1.32013 190.998C1.51331 173.36 2.57587 158.441 2.60901 141.294C2.6151 139.489 0.514711 141.575 0.51824 139.378C0.623712 121.173 0.717449 103.648 2.56537 84.6992C3.29769 78.7857 4.57403 72.7327 7.0547 66.7235C8.17291 64.1293 8.59982 68.1426 9.82782 65.659C11.6348 62.0769 14.3203 58.1657 17.6288 54.7904C20.8873 51.3891 24.743 48.6577 27.1943 46.2187C33.0321 40.2172 37.353 32.7174 38.2435 26.2868C40.6464 24.0612 43.3481 21.8487 46.1719 19.8496C51.6471 15.9865 56.7721 15.3018 60.8623 14.8332C65.0093 14.4448 68.5029 14.56 71.4973 14.7674C76.8546 15.1095 72.163 17.8343 78.2682 15.9654C79.5736 15.508 77.5296 14.1653 79.4133 13.5993C79.6683 13.5191 79.9199 13.4381 80.168 13.3563C89.1078 10.529 99.0001 8.28567 107.139 4.48456C107.623 4.25718 107.89 3.98654 108.027 3.70946C109.187 2.75041 108.607 2.05371 109.45 1.6272C113.048 -0.0283179 116.104 0.166942 116.525 0.349243C121.699 0.404858 124.618 2.10863 125.882 2.21604C138.989 4.00997 148.349 3.1693 160.465 3.13313C163.222 3.12848 159.931 1.0564 162.616 0.97682C176.592 0.593343 191.026 0.717474 204.748 1.60245C207.865 1.80429 205 3.5954 206.496 3.78306C212.734 4.59031 214.378 1.21966 220.399 1.93121C221.701 2.07689 220.972 3.60447 221.21 3.77143C222.467 4.65389 223.684 4.81578 224.784 4.63907C226.825 4.29129 228.441 2.62945 229.07 2.57342C241.146 1.42169 248.806 5.29837 260.445 4.72772C261.832 4.65558 258.697 2.73027 262.603 2.64555C288.702 2.07006 316.203 2.56947 342.016 4.08815C346.049 4.32169 343.171 5.7747 343.425 5.95322C347.554 8.74249 350.174 4.99735 351.488 4.85516C361.844 3.83079 371.466 6.96099 378.443 2.49717C422.129 4.00652 465.59 1.47217 508.924 5.42611C509.475 5.47187 508.49 7.31604 509.588 7.39937C522.761 8.42208 520.318 5.55954 529.004 2.04732C531.209 1.16536 537.957 5.38856 538.536 5.69799C540.692 6.83837 538.461 9.58298 539.182 9.80351C545.116 11.5349 544.214 2.467 552.275 2.45511C552.527 2.46995 551.471 4.14038 552.147 4.30559C554.256 4.8243 556.284 4.15868 558.392 4.73083C563.166 6.05482 564.778 10.4597 572.014 7.88591C572.924 7.55186 571.557 2.40949 578.749 2.64305C581.574 2.74075 594.292 2.63459 597.937 2.96209C601.517 3.28951 599.062 4.95105 599.318 5.02244C608.871 7.19936 605.245 8.11357 610.102 11.3508C614.928 14.5756 613.566 6.86661 615.507 6.00247C617.392 5.14096 624.602 6.93589 626.249 7.56119C627.948 8.18678 625.834 9.24442 627.343 9.59732C637.652 11.9014 631.855 5.76026 635.21 4.52915C636.246 4.14318 637.244 3.90829 638.21 3.7925C644.86 3.03292 650.317 7.38794 656.512 7.85627C658.479 8.00186 656.868 6.70412 658.648 6.57705C665.599 6.09083 669.671 7.86216 677.616 6.19579C678.847 5.92461 685.243 2.46066 689.363 4.96449C689.952 5.32557 688.299 6.75849 691.259 7.06376C695.618 7.52263 703.572 7.79115 708.327 7.28302C711.781 6.90753 707.707 4.58702 712.198 5.28548C714.151 5.59718 710.567 6.99686 714.198 7.46781C717.894 7.93987 727.174 7.79657 730.756 7.70189C734.226 7.60981 732.336 5.8519 732.597 5.72879C734.311 5.02417 741.101 4.04915 741.681 4.02967C744.226 3.9458 746.658 3.90621 749.048 3.71972C761.31 2.6688 773.938 6.03665 784.004 10.6807C791.304 13.7838 799.267 15.9633 807.312 19.0928C814.57 21.9863 820.747 26.2691 826.837 30.5394C828.766 31.9149 828.655 29.4688 828.961 29.6633C835.696 33.9555 828.128 34.025 830.827 38.4722C830.894 38.5841 830.967 38.6987 831.044 38.8161C832.747 35.3616 835.331 37.9254 839.403 42.3645C841.326 44.517 841.547 42.4006 841.829 42.5135C846.282 44.7873 845.286 48.7821 845.189 49.6723C844.817 52.9542 848.181 53.7723 848.348 55.6961C848.366 55.7889 848.377 55.8839 848.382 55.981C848.374 58.3765 844.289 56.3352 847.321 60.61C849.333 61.2937 850.015 55.5075 852.943 59.3154C856.737 64.5922 858.329 72.1185 859.423 79.2847C861.521 91.5324 860.444 104.266 860.377 112.855C860.338 114.21 860.313 115.875 860.302 116.996C860.184 129.388 860.438 133.364 860.002 140.566C859.195 153.581 861.808 148.757 863.065 156.886C864.318 164.905 857.789 161.062 856.395 162.222C855.003 163.399 856.449 164.61 855.687 166.026C854.925 167.44 853.958 164.388 853.686 167.713C853.415 171.093 855.945 180.149 857.413 181.314C860.524 183.791 863.759 179.688 862.656 188.497C862.59 189.004 860.871 187.369 860.707 189.308C859.459 204.752 859.446 220.713 858.363 236.146C858.212 238.258 856.298 236.382 856.188 237.609C855.042 250.45 858.227 245.863 861.837 252.845C857.081 251.296 854.198 255.214 854.243 264.962C854.27 270.749 856.336 269.857 857.829 273.527C858.28 274.714 856.896 278.855 857.879 279.552C861.094 282.049 864.61 278.105 863.312 288.14C863.25 288.572 861.488 287.224 861.402 288.712C860.987 296.059 862.791 298.724 864.029 303.726C864.445 305.521 864.789 307.553 864.932 310.247C865.104 313.613 864.901 317.924 864.275 322.736C863.956 325.112 863.535 327.626 862.884 330.217C862.316 332.662 861.018 336.017 860.016 337.716C858.956 339.77 858.073 341.905 857.11 344.046C852.739 342.199 850.094 349.004 848.985 354.093C848.943 354.531 848.941 354.957 848.974 355.372C844.937 359.543 841.448 364.982 837.451 369.583C836.074 371.158 835.646 369.135 835.356 369.247C833.373 369.981 832.505 371.197 832.062 372.454C831.465 374.086 831.39 375.798 830.857 376.435C823.698 384.362 815.195 386.841 808.075 391.155C804.369 393.317 800.89 395.941 797.313 399.229C796.937 399.559 798.204 403.203 793.408 402.816C793.11 402.755 796.454 399.002 790.423 402.147C789.024 402.836 787.257 403.546 785.232 404.167C780.799 405.586 775.948 405.099 772.831 406.745C770.358 407.953 768.795 407.809 767.093 408.152C765.437 408.406 763.889 408.677 762.43 409.035C760.233 409.573 754.82 412.783 750.283 410.542C749.706 410.238 750.306 409.159 749.461 408.589C746.644 406.773 745.187 410.552 741.969 407.431C738.673 404.312 732.003 402.044 722.906 404.347C722.627 404.414 720.608 407.408 717.662 407.392C713.233 407.362 706.592 406.803 701.957 406.858C699.651 406.886 701.14 408.718 700.74 408.755C697.953 408.963 695.44 409.08 692.81 409.131C681.21 409.361 671.495 408.217 658.17 407.754C655.149 407.646 646.556 410.255 640.752 408.346C634.359 406.237 640.811 397.144 626.252 399.399C620.347 400.295 612.844 411.811 602.299 405.898C596.856 406.3 591.831 406.394 586.426 406.354C571.505 406.24 557.118 405.029 541.86 406.713C540.914 406.814 538.071 410.044 535.818 410.024C532.646 409.987 530.825 408.511 528.466 408.445C524.467 408.316 520.711 408.485 516.87 408.769C513.288 409.131 508.841 409.175 506.212 410.243C504.906 411.131 503.707 412.163 502.582 413.315C500.323 415.841 499.779 413.961 497.37 417.526C495.427 420.553 495.597 423.546 493.09 426.928C492.603 427.568 492.019 428.21 491.309 428.838C487.914 431.82 482.052 431.76 477.602 434.704C479.535 437.371 477.963 439.479 474.502 442.624C473.642 443.399 472.705 444.267 471.72 445.256C470.76 446.226 472.772 446.519 472.365 447.036C470.747 449.155 468.138 449.687 466.619 451.82C466.247 452.337 467.059 453.483 466.792 453.973C464.574 458.302 456.459 459.432 455.172 459.362C454.421 459.402 453.758 459.478 453.156 459.587C449.745 460.173 448.455 462.116 445.456 462.695C441.95 463.359 446.265 460.312 442.369 461.497C437.485 462.983 431.929 465.094 426.554 467.399C423.18 468.848 419.739 470.078 416.575 471.083C413.365 472.095 416.117 473.181 415.672 473.367C411.563 474.981 407.108 475.55 403.717 476.974C401.694 477.823 400.045 478.955 399.064 480.72C391.551 472.927 395.306 482.896 385.091 483.949C384.28 484.025 382.039 479.93 384.736 478.427C387.431 476.925 392.238 476.937 395.961 474.692C396.693 474.251 399.737 470.173 401.15 468.543C401.438 468.213 401.661 467.983 401.777 467.902C407.166 464.181 409.835 470.511 410.275 470.768C414.969 473.617 420.12 467.042 421.541 466.107C422.763 465.367 423.946 464.69 425.081 464.048C431.006 460.786 436.583 459.046 441.452 455.922C445.322 453.447 443.834 449.202 447.08 447.835C447.227 447.772 447.374 447.711 447.521 447.651C456.135 444.079 462.151 445.867 469.103 434.59C469.116 434.565 469.13 434.54 469.143 434.515C470.266 432.286 465.813 429.723 473.938 428.215C474.406 428.197 481.084 427.03 481.403 423.188C481.439 422.721 480.356 421.799 480.566 421.366C481.039 420.407 481.54 419.681 482.049 419.026C482.971 417.854 484.179 416.554 485.429 413.64C487.074 409.777 490.593 402.144 498.153 397.719C499.041 397.074 501.88 395.856 502.885 395.69C505.723 395.056 506.573 395.325 507.794 395.484C508.942 395.685 509.84 396.012 510.774 396.352C512.525 397.042 513.975 397.82 514.737 398.119C519.104 399.846 523.607 396.708 526.236 398.932C528.968 401.169 523.822 404.698 530.738 406.075C530.937 402.374 531.465 398.57 531.834 394.846C546.973 394.802 561.898 395.936 576.979 395.713C578.884 395.682 576.92 393.701 578.979 393.617C581.479 393.513 583.891 393.566 586.386 393.674C592.262 393.928 597.427 394.489 603.739 394.071C610.516 393.602 618.044 391.468 625.038 390.9C629.509 395.116 639.806 393.587 647.533 393.864C650.218 393.966 650.065 395.099 651.985 395.446C659.255 396.735 655.751 393.032 657.789 392.423C666.195 389.834 667.068 398.293 677.022 398.008C677.599 397.996 683.947 393.437 684.922 393.15C690.551 391.278 685.858 394.714 689.384 395.023C690.519 395.122 691.624 395.235 692.718 395.348C697.732 395.879 701.807 396.393 708.074 395.248C710.287 394.838 715.521 391.976 719.873 394.103C720.442 394.382 720.146 395.877 720.601 395.959C728.848 397.319 728.987 392.626 733.654 390.97C738.294 389.316 745.614 392.405 747.032 393.3C750.979 395.62 744.17 394.398 743.914 394.636C741.54 397.501 746.805 396.916 750.832 397.045C751.554 401.628 757.117 401.176 754.976 397.151C754.767 396.712 751.65 397.235 750.832 397.045C754.191 392.424 760.509 391.751 766.671 395.423C767.602 396.011 767.899 396.689 768.204 397.265C768.522 397.845 768.788 398.273 768.463 398.686C770.154 398.001 772.81 397.092 775.978 396.245C778.256 395.614 778.543 394.651 778.832 393.617C779.052 392.594 779.365 391.5 779.922 390.845C779.949 390.81 779.974 390.776 779.998 390.743C784.47 387.473 793.063 383.591 801.19 379.195C802.375 378.555 803.5 377.921 804.547 377.272C807.455 375.472 803.715 375.558 805.66 374.287C810.721 370.969 815.727 369.688 818.587 366.445C818.817 366.167 817.02 365.324 817.877 364.55C818.628 363.849 819.212 363.22 819.667 362.66C824.321 356.926 829.265 349.651 836.429 342.388C838.514 340.267 839.299 339.376 840.33 336.9C840.845 335.673 841.569 333.358 842.603 330.575C843.139 329.215 843.134 329.146 843.206 328.816C843.263 328.527 843.324 328.158 843.391 327.645C843.526 326.63 843.638 325.186 843.698 323.706C843.825 320.706 843.805 317.452 843.893 314.905C843.999 311.631 844.184 308.137 844.363 304.453C844.889 293.827 846.118 283.093 845.56 274.88C845.086 267.662 843.287 269.136 842.027 266.101C839.583 260.018 843.807 249.462 844.463 247.968C844.484 247.942 844.951 254.188 845.861 250.851C847.788 248.898 844.472 248.038 844.463 247.968C844.885 247.021 845.227 234.547 844.868 232.028C844.672 230.69 842.958 231.448 842.888 230.749C841.265 214.037 840.758 197.311 841.483 180.345C841.517 180.048 843.441 180.486 843.495 179.788C844.304 169.971 841.923 163.684 840.483 155.63C839.044 147.611 839.469 141.102 842.733 136.331C842.273 130.277 843.651 121.444 844.45 116.529C844.687 115.136 844.521 113.893 844.175 113.249C843.336 111.253 841.446 110.926 841.385 110.598C838.95 99.1388 840.212 91.9267 839.105 82.7335C838.905 80.9012 838.668 79.028 838.344 77.1648C838.017 75.2669 837.459 72.8913 836.756 71.0776C836.033 69.2143 835.342 68.2092 834.343 67.1822C831.021 63.3055 829.011 60.1722 827.56 58.2766C824.432 54.1344 823.967 52.2477 821.178 50.5833C821.122 50.5521 821.059 50.5603 820.99 50.597C820.719 50.6763 820.475 51.1181 820.284 51.4683C820.122 51.7162 819.992 51.9143 819.944 51.9054C819.939 51.9048 819.935 51.9043 819.93 51.9037C814.308 49.9179 818.954 48.4497 818.49 47.1493C816.835 42.5374 815.475 39.5632 809.187 37.0816C807.647 36.4373 801.357 39.7212 799.766 39.5624C799.735 39.5567 799.704 39.551 799.674 39.5451C796.534 38.8031 798.379 37.2767 794.488 36.5612C794.133 36.4961 793.863 37.7614 791.386 36.9518C786.919 35.4975 781.788 33.8659 776.208 31.619C768.618 28.4082 763.806 26.7999 757.767 26.5319C756.472 26.4826 758.013 28.6022 756.189 28.5907C754.509 28.5963 752.769 28.6773 750.944 28.834C744.563 29.3403 739.812 29.2577 734.567 29.2269C729.475 29.1614 724.367 28.9667 719.628 28.6198C716.759 28.4002 718.545 26.9454 717.919 26.523C713.934 23.9688 708.548 27.7631 707.629 27.8404C685.94 29.7797 669.435 26.4296 647.289 28.109C646.529 28.1732 642.393 29.9317 638.27 30.172C636.226 30.2985 634.204 30.0024 632.773 28.8118C632.524 28.5824 628.273 25.0559 624.788 27.4801C624.562 27.6317 627.099 29.447 622.683 29.2701C618.154 29.0938 611.158 30.3218 604.962 28.332C603.08 27.7051 598.487 24.1857 592.715 27.0055C592.388 27.2024 583.439 33.5721 580.282 29.1903C579.763 28.4689 580.333 23.827 573.447 26.2156C572.125 26.6786 574.531 27.7108 571.041 28.3617C565.784 29.3647 558.662 28.1301 552.222 30.2049C551.101 30.5722 546.238 33.7278 542.348 31.3409C541.745 30.967 542.89 29.4163 540.855 29.2451C531.131 28.4235 520.895 29.47 511.024 28.407C507.523 28.0335 509.313 25.5269 505.652 24.859C501.952 24.1913 494.665 23.5522 490.815 24.7002C486.986 25.8488 491.152 29.8375 485.444 30.1619C460.558 31.5706 435.882 29.2477 411.019 28.9253C407.331 28.8771 410.387 30.3032 404.958 30.3348C384.951 30.4571 350.316 31.8268 332.963 28.8096C318.99 26.3928 336.586 24.5234 325.895 23.5452C320.759 23.0787 315.236 27.7264 313.971 27.8739C301.925 29.372 293.452 27.3265 282.549 27.9724C280.322 28.1064 282.507 29.9846 280.616 30.0779C273.985 30.4135 267.221 29.5841 260.905 29.7482C258.116 29.826 258.644 31.262 256.091 31.1555C249.785 30.9177 244.456 30.3237 238.38 28.9896C237.836 28.868 241.499 27.073 236.974 27.0159C233.367 26.972 228.973 26.6208 224.837 26.4584C220.387 26.2985 216.286 26.3233 211.882 27.0186C209.311 27.4388 209.413 30.7219 203.849 28.4716C202.713 28.0017 204.101 24.0534 197.886 27.4816C196.724 28.0512 186.226 32.6852 180.979 29.747C179.588 28.9734 176.122 25.7623 173.056 26.2849C172.653 26.3678 174.279 28.1235 171.812 28.308C163.04 28.9288 153.669 28.7971 144.616 29.4319C142.221 29.6053 145.803 31.3966 142.24 31.5976C138.593 31.8055 134.547 31.8933 130.459 31.9154C128.456 31.9262 126.425 31.9203 124.464 31.9113C122.56 31.8999 120.349 31.9038 120.124 31.8817C117.278 32.127 115.989 32.0246 115.572 32.0129C115.181 31.9516 115.862 32.0166 117.95 31.2377C117.526 31.3667 117.1 31.4944 116.685 31.6165C112.878 32.7159 114.971 30.3861 114.641 30.3279C109.473 29.2738 108.084 33.466 106.704 34.1164C99.5148 37.4298 93.32 37.9958 86.8221 39.5727C85.1503 39.9819 83.534 40.3372 81.9585 40.6907C79.1869 41.2867 81.4446 42.6479 80.913 42.8939C75.519 45.2152 79.1926 41.5571 75.8297 41.6561C71.8582 41.7126 68.2371 41.8254 65.649 42.1802C63.0449 42.4363 61.8149 43.4052 63.4646 42.4384C62.8311 42.9522 62.2429 43.4541 61.6658 43.968C60.0119 45.4768 63.1925 45.3843 61.7596 46.6936C59.5836 48.7364 57.7072 50.8052 55.2944 53.6923C52.9032 56.5442 49.814 60.3784 46.1622 64.1159C41.7678 68.4923 39.8499 69.8486 38.4991 71.251C37.1752 72.5653 36.2524 73.6597 35.236 75.3398C34.4571 76.6912 33.3893 75.2414 32.9367 75.4269C29.6459 76.9752 31.9908 82.3648 32.2079 83.3663C32.4349 84.9086 32.4853 86.1448 32.4239 87.3078C32.3218 89.6954 31.6271 92.0045 31.6557 95.8165C32.0209 123.037 30.9158 157.576 30.2058 183.756C29.508 212.401 28.2107 236.437 28.6287 261.477C28.7816 266.132 29.0673 270.789 29.5873 275.398C29.8014 277.256 31.6412 275.189 31.8542 276.746C32.3045 280.082 32.8177 283.229 33.4609 286.384C34.0736 289.543 35.0202 292.96 35.8732 298.195C36.8089 304.256 37.3693 309.749 38.0656 314.765C38.409 317.254 38.782 319.617 39.1989 321.592C39.5665 323.492 40.2325 325.329 40.0956 324.891C42.5266 329.781 44.3989 334.445 46.116 338.364C46.8403 340.023 47.6605 336.905 48.869 339.492C49.5236 340.875 50.1822 342.303 50.8471 343.756C52.0853 346.467 53.8884 349.701 55.8132 353.089C57.1025 355.332 53.6858 353.528 55.0563 355.806C55.9426 357.259 56.9503 358.754 58.0491 360.268C59.7692 362.834 62.869 365.628 66.2545 367.688C68.2357 368.865 66.501 365.317 68.9416 366.906C71.4558 368.49 74.1564 369.854 76.4881 370.733C86.6888 374.95 92.1567 377.376 95.0151 377.479C107.674 378.24 119.801 382.441 127.722 384.843C125.137 384.39 126.354 384.696 126.439 384.7C126.758 384.761 127.262 384.83 127.892 384.9C128.756 385.023 129.988 385.156 131.187 385.285C133.297 385.535 135.861 385.798 138.187 386.07C140.285 386.29 141.533 390.35 145.884 389.649C146.205 388.535 146.204 387.219 146.353 386.025C186.851 385.961 227.223 387.488 268.138 388.069C269.856 388.092 266.909 385.931 270.229 385.965C289.653 386.18 308.221 385.731 328.341 388.318C330.46 388.584 329.012 392.285 335.165 391.917C335.548 391.893 336.898 391.845 338.882 391.797C339.803 391.77 340.73 391.733 342.012 391.725C342.62 391.72 343.074 391.704 343.752 391.715C344.722 391.765 345.472 391.758 347.116 392.054C347.122 391.887 347.669 391.771 347.977 391.576C348.167 391.465 347.431 389.659 348.977 389.716C351.15 389.802 354.504 389.647 359.185 389.92C361.605 390.111 364.335 390.269 368.561 391.556C370.669 392.241 373.276 393.246 376.272 395.433C379.24 397.55 382.458 401.336 384.032 405.418C386.07 410.462 386.541 415.636 386.535 419.233C386.533 422.946 386.211 425.875 385.859 428.69C385.131 434.218 384.17 439.129 383.165 443.963C382.614 446.557 381.169 443.488 380.756 445.353C380.066 448.477 379.493 451.645 378.975 454.848C378.291 458.739 377.452 460.389 376.702 462.241C375.94 463.991 375.209 465.441 374.494 466.809C373.049 469.554 371.639 471.968 370.231 474.28C367.42 478.877 364.615 483.001 361.86 486.528C357.252 492.561 355.755 488.525 351.3 490.742C350.999 490.889 350.455 491.965 350.025 492.614C349.617 493.405 349.169 492.708 348.209 492.954C346.053 493.762 343.823 495.015 341.163 494.524C338.587 494.295 335.984 493.003 333.678 494.965C333.489 495.113 333.278 497.017 334.899 500.216C336.521 503.682 341.083 506.411 343.47 506.901C345.881 507.555 347.137 507.563 347.414 507.861C347.501 508.026 347.154 508.935 342.56 508.538C342.135 508.388 340.618 508.404 337.302 506.263C334.094 504.333 331.084 499.27 330.594 495.908C329.538 489.441 330.548 487.079 330.316 485.771C330.219 484.086 327.524 486.241 327.831 482.909C328.169 479.716 330.739 477.943 331.575 474.395C332.419 470.908 329.843 471.045 332.899 465.326ZM847.568 94.2353C849.033 89.6018 842.421 89.552 844.346 94.157C844.446 94.3904 847.495 94.4651 847.568 94.2353ZM561.794 400.906C567.957 403.777 572.004 399.494 567.749 397.271C563.396 395.051 559.969 400.035 561.794 400.906ZM496.856 411.118C500.312 408.611 501.322 405.917 500.538 404.209C499.877 402.534 496.239 402.426 493.361 407.246C493.019 407.821 496.443 411.428 496.856 411.118ZM360.1 472.983C359.988 473 357.962 476.17 357.993 476.289C358.743 479.082 362.787 472.745 360.1 472.983ZM454.371 454.355C456.925 454.491 461.334 449.774 458.23 449.957C455.845 450.127 451.359 454.205 454.371 454.355ZM656.711 11.0676C656.646 10.9698 653.996 10.889 654.045 11.4431C654.244 13.2278 657.907 12.7134 656.711 11.0676ZM354.538 490.777C354.937 490.613 355.337 490.447 355.929 490.296L355.667 490.385C370.032 485.086 380.371 489.507 364.842 494.336C361.937 495.312 370.073 489.649 366.196 490.413C362.563 491.128 360.156 493.168 357.559 495.027C357.5 495.053 357.32 495.112 357.259 495.13C355.63 496.343 353.175 499.184 347.669 498.64C346.701 498.462 349.538 497.077 350.857 495.056C352.385 493.113 354 490.957 354.563 490.754C354.554 490.762 354.546 490.77 354.538 490.777ZM855.258 91.0303C855.349 90.9325 855.084 87.1923 854.973 87.1117C852.707 85.3576 853.246 92.7497 855.258 91.0303ZM498.898 7.23447C498.699 7.04925 490.005 6.88345 489.714 7.05451C485.181 10.4745 502.762 10.8199 498.898 7.23447ZM856.915 344.144C857.205 348.792 853.879 354.021 850.113 355.144C849.748 355.241 849.375 355.312 848.988 355.36C849.204 355.139 849.419 354.922 849.638 354.701C852.479 351.878 855.235 348.061 856.915 344.144Z" fill="#31260C"/>
<path d="M366.123 447.919C364.655 457.73 337.56 490.243 349.681 490.243C352.346 490.243 356.772 487.362 358.55 486.872C362.078 485.431 368.568 482.55 376.235 480.151C383.919 478.228 395.28 474.568 404.531 471.745C411.614 469.584 420.198 467.285 427.521 464.06C434.604 460.941 441.157 458.377 451.997 453.248C461.132 448.926 467.013 443.172 473.794 438.604C480.585 434.03 486.898 428.506 491.178 422.513C495.299 416.743 497.429 409.861 503.858 405.715C505.344 404.757 507.095 404.282 582.53 404.044C657.966 403.806 612.895 403.806 686.164 403.316C759.433 402.827 761.184 401.876 762.961 400.911C766.489 398.995 771.042 399.12 775.049 397.554C782.424 394.673 788.514 389.874 796.863 385.057C806.015 379.777 815.297 375.616 820.729 368.727C826.035 362 829.768 355.722 835.762 349.279C841.35 343.272 841.775 339.838 844.277 333.723C845.453 330.849 847.826 327.047 846.93 302.74C846.054 278.992 846.054 141.032 845.453 116.253C844.851 91.4749 843.672 87.6731 843.101 84.3007C841.314 73.7554 839.821 67.609 835.425 62.2377C830.703 56.4681 827.992 49.4504 820.676 43.5026C811.816 36.2995 804.097 30.7546 796.51 27.9152C789.427 25.2644 781.202 23.3336 773.519 20.4672C765.835 17.6004 756.387 13.8282 741.377 14.9641C738.14 15.209 736.389 15.6844 632.994 15.9221C529.599 16.1598 330.59 16.1598 230.183 16.4047C129.777 16.6496 128.026 17.125 125.948 17.3627C123.87 17.6004 121.436 17.3787 119.466 18.0902C111.49 20.9714 102.036 23.7303 91.1613 26.4962C80.8244 29.1253 68.5352 27.9654 61.9811 32.9933C51.9625 40.679 48.4506 47.0724 41.3604 54.6025C35.4801 60.8475 25.7097 66.3121 23.6842 89.5445C21.9334 109.627 21.4561 240.939 22.2342 261.892C23.1184 285.705 26.0035 292.246 27.2479 300.111C29.0075 311.233 29.9132 324.945 33.1458 331.56C36.0815 337.567 37.929 343.097 41.1041 350.288C43.7568 356.295 47.5471 361.903 53.4924 369.26C59.7087 376.953 69.6017 383.626 78.2602 387.009C85.6349 389.89 93.5044 394.359 102.444 394.925C113.931 395.652 121.762 398.53 131.315 400.694C138.69 402.366 337.034 402.03 345.878 404.051C353.253 405.737 366.223 402.858 368.559 408.625C370.903 414.409 370.017 421.892 366.123 447.919Z" fill="#164092"/>
<path d="M344.375 465.615C346.394 462.036 348.675 458.306 350.853 454.63C351.935 452.799 353.007 450.954 353.901 449.265C354.766 447.759 355.577 445.451 355.37 446.31C356.389 440.174 357.436 434.167 358.284 428.987C358.918 425.01 359.248 427.098 359.678 424.383C360.506 419.183 360.425 414.06 359.921 412.366C359.898 412.266 359.898 412.188 359.917 412.126C360.482 412.732 360.429 411.148 361.268 412.519C362.729 414.136 362.782 413.37 361.621 413.23C360.543 412.992 358.903 412.87 357.151 412.817C353.537 412.643 349.706 413.032 344.089 411.88C344.791 411.999 343.646 411.831 343.313 411.815C342.824 411.771 341.99 411.714 341.392 411.675C340.325 411.603 338.541 411.51 337.417 411.444C284.922 409.18 232.726 408.979 179.138 407.984C171.867 407.854 163.742 407.588 155.563 407.302C151.6 407.16 147.358 407.01 143.235 406.856C138.803 406.63 135.762 406.778 130.098 406.067C126.853 405.335 123.757 404.537 120.825 403.843C118.781 403.363 119.793 404.461 119.39 404.426C113.186 403.949 115.574 402.841 111.764 401.837C108.636 401.059 105.427 400.49 102.112 400.167C92.0903 399.251 83.784 394.397 76.4755 391.577C71.3757 389.585 66.7931 387.058 62.6078 384.291C56.6803 380.113 61.4923 385.845 56.2825 380.493C55.9344 380.114 57.8985 380.665 56.4431 379.292C54.6477 377.586 51.9766 375.008 49.7688 372.269C48.0825 370.196 46.5358 368.213 45.6489 366.969C41.9389 361.615 41.253 360.719 38.2475 355.086C37.7717 354.145 37.3139 353.164 36.8807 352.152C34.2416 346.067 32.1071 339.186 29.2447 333.466C28.6623 332.287 28.2291 331.162 27.8484 330.071C27.1933 328.078 27.1138 331 26.075 327.821C24.9963 324.607 23.8743 316.596 23.7559 313.943C23.6116 311.273 24.4501 312.311 24.5459 311.823C25.1282 309.014 23.8428 303.884 22.8615 300.805C22.4599 299.572 22.0879 298.64 22.0104 298.319C18.5648 286.197 17.5099 273.652 17.3544 262.073C17.2646 254.217 17.4138 246.383 17.3611 238.39C17.2818 223.242 16.9542 206.978 17.0571 192.601C17.1874 175.415 17.7686 160.872 17.8777 144.17C17.8908 142.411 16.8288 144.456 16.843 142.314C17.0289 124.558 17.0968 107.131 18.5428 89.0962C19.123 83.6998 20.1624 78.2821 22.1833 72.9563C23.1069 70.6274 22.8425 73.9619 23.8394 71.6759C25.3347 68.3302 27.5652 64.6744 30.472 61.4284C33.3289 58.1575 36.8649 55.4641 39.4577 52.8109C45.17 46.7512 49.5816 39.935 51.5421 35.3419C53.7773 33.1941 56.3139 31.0486 58.9847 29.0875C63.0659 26.1266 67.3589 25.341 71.0213 24.8126C74.7267 24.3305 78.0521 24.2439 80.9508 24.18C86.2728 24.0178 81.3643 25.7571 87.6492 24.312C89.0284 23.9434 87.0684 23.4614 89.0963 22.9537C89.4604 22.8579 89.8253 22.7579 90.1843 22.6546C98.9538 20.1593 108.496 17.7433 116.672 14.4043C117.432 14.0924 117.716 13.8047 117.829 13.5585C118.162 13.1813 118.032 12.9271 118.519 12.7051C121.322 11.504 124.057 11.7281 125.303 11.7254C129.501 11.6086 132.493 12.4396 133.625 12.4681C146.302 13.2474 155.478 12.8082 167.279 12.7486C169.954 12.7382 166.766 11.7117 169.372 11.6641C182.998 11.4321 197.066 11.4675 210.434 11.8892C213.467 11.9855 210.677 12.8853 212.132 12.9769C218.225 13.3714 219.837 11.6839 225.695 12.0322C226.962 12.1034 226.25 12.8681 226.482 12.9513C227.787 13.4206 229.048 13.4796 230.176 13.3605C232.067 13.1486 233.557 12.3709 234.148 12.3432C245.929 11.7541 253.38 13.6857 264.736 13.391C266.087 13.3538 263.034 12.3936 266.84 12.3482C292.29 12.04 319.099 12.275 344.265 13.0222C348.197 13.1371 345.39 13.8649 345.638 13.9541C349.666 15.3468 352.219 13.473 353.5 13.4013C363.601 12.8845 372.976 14.4455 379.783 12.2108C422.376 12.9475 464.752 11.6655 507.002 13.6235C507.539 13.6462 506.578 14.5687 507.649 14.6099C520.492 15.1154 518.112 13.6852 526.582 11.925C528.733 11.483 535.31 13.5913 535.875 13.7457C537.976 14.3148 535.799 15.6882 536.503 15.7981C542.287 16.6608 541.412 12.1274 549.272 12.1171C549.518 12.1244 548.487 12.9602 549.146 13.0425C551.202 13.3007 553.18 12.9668 555.235 13.2517C559.89 13.911 561.458 16.1125 568.516 14.8213C569.403 14.6537 568.074 12.0834 575.085 12.1957C577.842 12.2429 590.237 12.1812 593.794 12.3421C597.284 12.5032 594.89 13.3358 595.139 13.3713C604.45 14.4525 600.918 14.9123 605.65 16.5271C610.351 18.1355 609.03 14.2821 610.922 13.8484C612.767 13.4161 619.79 14.307 621.395 14.618C623.051 14.9292 620.989 15.46 622.459 15.635C632.513 16.7768 626.863 13.712 630.136 13.093C631.12 12.904 632.068 12.7866 632.987 12.7262C639.505 12.3171 644.843 14.5042 650.901 14.7308C652.83 14.8008 651.254 14.1542 652.99 14.0881C659.762 13.835 663.73 14.7144 671.484 13.8667C672.682 13.7289 678.923 11.9847 682.944 13.2273C683.516 13.4065 681.904 14.1267 684.785 14.2727C689.045 14.4924 696.78 14.6062 701.427 14.3368C704.794 14.138 700.822 12.9911 705.211 13.3253C707.111 13.4745 703.62 14.1867 707.15 14.4096C710.751 14.6336 719.816 14.5219 723.302 14.4518C726.702 14.3845 724.856 13.517 725.115 13.4538C726.761 13.0936 733.427 12.5492 733.997 12.5286C736.456 12.4556 738.807 12.4131 741.169 12.2171C752.757 11.196 764.395 14.0694 774.298 18.3803C781.629 21.3112 789.434 23.2868 797.143 26.2219C804.02 28.9036 810.004 33.0567 815.85 37.3178C817.687 38.6776 817.052 37.0082 817.338 37.208C823.512 41.5716 817.815 40.0057 820.687 43.4891C820.799 43.6266 820.922 43.7719 821.057 43.926C821.604 41.9765 824.201 44.1633 827.875 48.4832C829.608 50.5777 829.299 48.9705 829.511 49.1189C832.848 51.7944 833.024 54.9215 833.169 55.6467C833.62 58.2129 835.918 59.6917 836.643 61.2412C836.708 61.3717 836.761 61.5037 836.802 61.6373C837.296 63.5236 834.133 60.8751 837.078 65.1212C838.448 66.0839 837.849 61.5663 840.271 65.1517C843.344 69.9832 844.77 76.9146 845.88 83.8299C847.967 95.4054 847.386 107.826 847.503 116.204C847.499 117.558 847.5 119.199 847.502 120.326C847.524 132.388 847.652 136.274 847.461 143.289C847.097 155.975 848.389 151.279 849.039 159.206C849.686 167.029 846.411 163.265 845.717 164.393C845.024 165.538 845.75 166.719 845.372 168.099C844.994 169.477 844.504 166.498 844.376 169.74C844.248 173.034 845.533 181.87 846.269 183.01C847.83 185.431 849.439 181.438 848.906 190.024C848.874 190.518 848.011 188.92 847.933 190.81C847.342 205.865 847.369 221.427 846.866 236.474C846.796 238.533 845.834 236.698 845.782 237.895C845.243 250.412 846.823 245.944 848.649 252.767C846.267 251.242 844.835 255.053 844.892 264.555C844.926 270.19 845.956 269.336 846.718 272.922C846.948 274.065 846.275 278.122 846.77 278.792C848.391 281.238 850.125 277.418 849.534 287.204C849.506 287.626 848.616 286.295 848.582 287.751C848.424 294.995 849.361 297.563 850.061 302.625C850.291 304.337 850.485 306.242 850.576 308.774C850.586 315.163 850.952 325.932 846.741 334.731C845.792 336.792 845.014 338.852 844.189 340.785C842.077 339.803 839.082 346.701 837.148 350.569C837.046 350.841 836.963 351.102 836.9 351.35C832.893 355.587 829.356 360.911 825.699 365.496C824.437 367.068 824.599 365.542 824.381 365.698C822.804 366.8 821.926 368.059 821.341 369.21C820.662 370.53 820.26 371.691 819.774 372.232C812.874 379.439 804.787 382.235 797.697 386.501C794.099 388.592 790.658 391.025 787.056 393.798C786.67 394.081 787.002 396.12 783.093 396.8C782.843 396.822 786.393 393.896 780.698 396.962C779.33 397.659 777.617 398.416 775.651 399.096C771.73 400.515 767.035 400.207 763.569 402.03C759.878 403.532 756.97 403.222 754.139 403.782C752.011 404.112 746.716 405.815 742.321 404.748C741.753 404.603 742.355 404.056 741.543 403.781C738.84 402.905 737.378 404.811 734.261 403.281C731.071 401.752 724.583 400.673 715.701 401.876C715.403 401.912 713.445 403.42 710.57 403.427C706.255 403.435 699.761 403.184 695.258 403.229C693.014 403.251 694.457 404.162 694.067 404.182C691.277 404.299 688.79 404.366 686.171 404.399C674.936 404.544 665.479 404.007 652.57 403.835C649.628 403.793 641.217 405.142 635.576 404.226C629.365 403.204 635.676 398.637 621.466 399.812C615.69 400.276 608.355 406.05 598.092 403.111C592.749 403.322 587.828 403.377 582.528 403.364C568.01 403.328 554.017 402.752 539.164 403.652C538.252 403.706 535.45 405.333 533.26 405.335C530.169 405.332 528.402 404.604 526.098 404.587C518.45 404.672 510.739 404.51 504.122 406.124C502.814 406.991 501.614 408.015 500.514 409.167C498.286 411.709 498.362 410.301 496.065 413.772C494.206 416.734 493.779 419.348 491.387 422.662C490.932 423.278 490.405 423.911 489.787 424.558C486.798 427.654 482.407 429.098 478.056 432.287C478.959 433.672 477.218 435.532 473.632 438.364C472.765 439.046 471.821 439.815 470.817 440.685C469.822 441.551 471.381 441.288 470.934 441.727C469.135 443.523 466.931 444.495 465.234 446.263C464.819 446.693 465.216 447.273 464.895 447.657C462.22 451.037 455.349 453.277 454.186 453.463C453.512 453.632 452.905 453.804 452.344 453.981C449.243 454.949 447.745 456.305 444.978 457.169C441.724 458.174 446.125 455.646 442.422 457.023C437.765 458.755 432.352 460.9 427.129 463.168C423.814 464.61 420.444 465.808 417.36 466.803C414.217 467.805 416.643 468.009 416.2 468.174C412.143 469.619 407.879 470.482 404.519 471.707C402.528 472.432 400.847 473.265 399.7 474.347C393.728 471.134 395.902 476.047 386.224 477.954C385.457 478.099 383.878 476.19 386.61 475.024C389.34 473.859 393.835 473.218 397.609 471.5C398.349 471.165 401.699 468.574 403.235 467.5C403.556 467.276 403.801 467.116 403.92 467.057C409.396 464.363 411.127 467.412 411.494 467.495C415.515 468.432 421.239 464.09 422.757 463.288C424.011 462.673 425.225 462.081 426.392 461.495C432.241 458.594 437.626 456.659 442.585 453.958C446.515 451.821 445.96 449.607 449.138 448.192C449.267 448.134 449.395 448.077 449.524 448.02C458.797 443.749 463.137 442.97 470.934 434.357C470.963 434.325 470.991 434.293 471.02 434.26C472.513 432.468 469.425 431.952 476.731 428.629C477.176 428.47 482.835 425.861 484.131 422.574C484.295 422.173 483.749 421.719 484.043 421.278C484.69 420.31 485.288 419.494 485.863 418.716C486.989 417.193 488.123 415.61 489.469 412.89C491.277 409.228 494.337 403.32 500.086 399.865C500.685 399.434 502.304 398.757 502.944 398.644C506.06 398.021 507.387 398.495 509.161 398.746C510.776 399.052 512.149 399.419 512.878 399.557C517.046 400.355 521.465 398.752 523.995 399.845C526.638 400.945 521.596 402.743 528.327 403.387C528.543 401.535 529.08 399.63 529.461 397.766C544.177 397.662 558.73 398.199 573.424 398.059C575.282 398.04 573.37 397.053 575.378 397.007C577.777 396.952 580.107 396.973 582.508 397.022C588.269 397.139 593.322 397.416 599.514 397.195C606.121 396.949 613.473 395.868 620.308 395.566C624.631 397.667 634.769 396.855 642.273 396.943C644.883 396.979 644.714 397.546 646.599 397.71C653.647 398.319 650.278 396.485 652.267 396.171C660.446 394.84 661.269 399.066 670.977 398.888C671.551 398.879 677.737 396.578 678.699 396.431C684.172 395.477 679.598 397.21 683.037 397.354C684.088 397.397 685.112 397.447 686.125 397.497C691.087 397.749 695.076 398.004 701.271 397.399C703.426 397.185 708.545 395.73 712.792 396.77C713.345 396.907 713.049 397.656 713.491 397.695C721.537 398.328 721.69 395.978 726.276 395.117C730.831 394.257 737.961 395.731 739.355 396.16C743.184 397.276 736.529 396.742 736.287 396.862C733.902 398.319 739.1 397.977 743.03 397.987C743.647 400.275 749.161 399.96 747.079 397.98C746.893 397.765 743.812 398.073 743.03 397.987C746.402 395.616 752.501 395.256 758.835 396.78C760.561 397.222 760.61 398.007 761.371 397.981C762.681 397.403 764.872 396.609 768.038 395.89C772.166 394.873 770.497 393.695 772.988 392.448C773.006 392.437 773.024 392.427 773.042 392.416C778.701 389.444 786.685 384.692 794.247 380.521C795.432 379.862 796.576 379.221 797.656 378.585C800.502 376.915 797.276 377.708 799.199 376.547C804.24 373.488 809.007 371.648 812.643 368.165C812.955 367.854 811.574 367.86 812.672 366.878C813.604 366.02 814.415 365.16 815.105 364.292C819.955 358.214 824.434 351.272 830.801 344.665C833.11 342.258 834.591 340.283 835.825 337.144C836.41 335.708 837.107 333.58 838.043 331.172C840.234 326.662 839.907 318.549 840.073 313.301C840.131 310.038 840.184 306.586 840.206 302.988C840.318 292.813 840.91 282.203 840.589 274.182C840.322 267.159 839.429 268.571 838.787 265.621C837.542 259.69 839.623 249.415 839.947 247.959C839.958 247.934 840.209 254.024 840.655 250.774C841.613 248.875 839.952 248.028 839.947 247.959C840.155 247.041 840.293 234.88 840.108 232.426C840.007 231.12 839.151 231.855 839.115 231.174C838.263 214.879 837.976 198.572 838.302 182.03C838.318 181.74 839.281 182.172 839.307 181.491C839.69 171.92 838.485 165.784 837.745 157.924C837.004 150.102 837.197 143.741 838.812 139.101C838.561 133.191 839.212 124.572 839.571 119.74C839.683 118.337 839.574 117.05 839.378 116.401C838.925 114.517 838.007 114.185 837.973 113.864C836.541 102.509 837.217 95.2669 835.723 85.5503C835.477 83.7805 835.201 81.9495 834.85 80.0634C834.097 75.9463 832.59 70.1866 829.594 67.0098C826.91 63.8107 825.101 60.9162 823.71 58.9544C820.619 54.5467 819.366 52.23 816.033 49.7333C815.581 49.4087 815.484 50.4077 815.333 50.3255C815.284 50.3007 815.236 50.2762 815.189 50.2521C810.402 47.5658 813.708 47.6808 813.025 46.6742C810.512 43.064 808.831 40.7061 802.602 37.4978C801.123 36.7181 795.819 37.1451 793.57 36.5344C793.48 36.5069 793.395 36.4803 793.314 36.4544C790.172 35.4715 791.653 34.9382 787.813 33.965C787.466 33.8799 787.367 34.5192 784.899 33.7395C780.418 32.3284 775.505 30.8394 770.392 28.8475C763.059 25.854 756.873 23.9061 750.072 23.5812C748.579 23.5121 750.432 24.6198 748.296 24.5658C746.286 24.5348 744.235 24.606 742.119 24.7754C731.413 25.447 721.727 25.2174 712.37 24.9656C709.561 24.8673 711.318 24.1326 710.707 23.9239C706.831 22.6625 701.577 24.5767 700.686 24.618C679.552 25.6514 663.475 24.0008 641.884 24.8692C641.139 24.9025 637.059 25.7981 633.017 25.9135C631.05 25.973 629.112 25.8234 627.736 25.2369C627.496 25.1225 623.349 23.3636 619.952 24.5789C619.732 24.6549 622.203 25.5602 617.899 25.4759C613.487 25.3919 606.664 26.0119 600.624 25.0218C598.789 24.7098 594.318 22.9536 588.685 24.3677C588.366 24.4663 579.64 27.6573 576.563 25.4684C576.057 25.108 576.616 22.7868 569.901 23.9853C568.612 24.2176 570.958 24.7323 567.555 25.0598C562.427 25.5645 555.486 24.9512 549.206 25.9921C548.113 26.1763 543.37 27.7567 539.579 26.5652C538.991 26.3786 540.108 25.6027 538.124 25.5181C528.644 25.1122 518.663 25.6402 509.04 25.1131C505.626 24.9279 507.373 23.6738 503.804 23.3414C500.197 23.0092 493.092 22.6927 489.338 23.2683C485.604 23.8441 489.664 25.8368 484.098 26.0013C459.835 26.7158 435.776 25.5635 411.534 25.4119C407.939 25.3892 410.918 26.1011 405.625 26.119C386.117 26.1878 352.346 26.8871 335.428 25.3872C321.802 24.1858 338.96 23.2423 328.537 22.7586C323.533 22.5279 318.139 24.8547 316.908 24.9292C305.17 25.6848 296.893 24.6671 286.272 24.9972C284.101 25.0657 286.23 26.0033 284.386 26.0513C277.915 26.2236 271.317 25.8138 265.164 25.9008C262.443 25.942 262.968 26.6595 260.464 26.6084C254.325 26.4948 249.113 26.2026 243.2 25.5415C242.67 25.4813 246.24 24.5801 241.832 24.5561C238.357 24.5381 234.167 24.3725 230.202 24.2944C225.799 24.2152 221.712 24.2275 217.357 24.587C214.848 24.8008 214.963 26.442 209.519 25.3252C208.409 25.0921 209.788 23.1154 203.701 24.8397C202.572 25.1262 192.335 27.4616 187.209 26.0041C185.866 25.6202 182.464 24.0223 179.491 24.2909C179.098 24.3334 180.676 25.2073 178.276 25.3056C169.695 25.6379 160.585 25.5989 151.717 25.9565C149.383 26.0541 152.889 26.9332 149.375 27.0505C142.55 27.3186 133.001 27.2187 127.104 27.4749C123.323 27.692 121.806 27.7835 122.868 27.5075C122.379 27.6692 121.894 27.8273 121.416 27.9805C117.9 29.0881 120.062 27.5374 119.78 27.5491C115.307 27.6676 113.483 30.1046 112.16 30.626C105.344 33.2562 99.6334 34.2644 93.5205 35.7717C92.0214 36.1416 90.5389 36.4544 89.0588 36.7517C86.6492 37.2147 88.5006 37.779 88.0306 37.9346C83.2137 39.3947 86.6337 37.3482 83.6076 37.5674C76.6541 37.8629 68.8638 38.893 67.6362 40.365C66.8512 40.9827 66.1037 41.6001 65.3825 42.2242C63.4779 43.9089 66.2783 42.8068 64.604 44.3074C59.5789 48.7402 55.4066 54.9449 48.9507 61.7494C45.4427 65.3081 43.0519 67.1685 41.2035 69.2897C39.3547 71.3523 37.9446 73.4918 36.7454 76.0109C35.8428 77.99 35.6301 76.4527 35.2974 76.8205C32.9203 79.4743 33.5758 85.0821 33.6077 86.249C33.5872 87.8574 33.5419 89.1732 33.4621 90.397C33.3017 93.2408 32.8931 95.5342 32.834 99.4261C32.5898 126.294 31.9429 159.886 31.5152 185.477C31.1239 213.493 30.3911 236.679 30.8633 261.571C31.0274 266.244 31.3063 270.95 31.809 275.695C32.0174 277.607 32.8339 275.588 33.0302 277.204C33.8132 284.359 35.3235 289.898 36.9267 298.58C37.799 304.186 38.3635 309.524 39.0803 314.615C39.7521 319.53 40.7791 325.034 41.9124 327.275C44.0471 331.6 45.7481 335.89 47.3955 339.806C48.0969 341.473 48.0165 338.708 49.1682 341.345C49.8035 342.786 50.4692 344.3 51.1626 345.846C52.739 349.405 55.044 353.217 57.2941 356.673C58.8052 358.973 55.9297 356.491 57.493 358.813C58.512 360.309 59.6213 361.829 60.7948 363.36C63.265 366.629 66.8086 369.763 70.5789 372.251C72.8085 373.687 70.0667 370.646 72.9089 372.525C75.8731 374.423 79.0269 376.067 82.0748 377.245C91.018 380.887 97.4911 384.172 103.106 384.478C114.225 385.098 124.88 388.683 133.517 390.978C132.341 390.784 133.477 390.982 133.681 390.994C134.089 391.043 134.639 391.094 135.298 391.146C136.218 391.231 137.44 391.321 138.648 391.405C140.744 391.564 143.274 391.727 145.545 391.886C147.602 392.018 148.878 394.062 153.12 393.746C153.438 393.191 153.418 392.533 153.557 391.937C193.153 392.184 232.487 393.008 272.369 393.473C274.042 393.492 271.162 392.399 274.397 392.43C293.319 392.624 311.415 392.468 330.924 393.981C332.968 394.142 331.62 395.966 337.54 395.876C337.892 395.87 339.198 395.868 341.032 395.884C341.879 395.89 342.758 395.893 343.889 395.924C344.843 395.96 345.893 395.917 347.667 396.225C348.265 396.274 349.076 396.265 349.528 396.193C349.768 396.146 348.641 395.195 350.753 395.314C353.415 395.44 356.674 395.306 360.605 395.547C362.61 395.698 364.774 395.866 367.656 396.755C370.297 397.533 375.156 399.977 377.168 405.138C380.048 412.841 378.945 418.703 378.533 423.755C377.948 428.85 377.142 433.622 376.317 438.318C375.865 440.841 375.331 437.994 374.998 439.811C374.441 442.839 373.934 445.909 373.45 449.016C372.501 453.77 371.105 455.812 369.828 458.439C368.522 460.916 367.189 463.198 365.854 465.414C363.184 469.833 360.498 473.954 357.984 477.719C353.75 484.275 353.706 480.936 350.616 484.015C350.412 484.233 349.883 485.412 349.534 486.411C349.171 487.476 349.089 487.793 348.655 487.963C347.64 488.511 346.429 488.953 345.061 488.502C343.737 488.193 342.431 487.378 341.299 488.597C341.209 488.685 341.119 489.887 342.067 491.739C343.013 493.74 345.616 495.317 347.11 495.629C348.603 496.027 349.476 496.023 349.66 496.174C349.745 496.247 349.378 496.749 346.606 496.434C346.355 496.344 345.435 496.324 343.556 495.094C341.744 493.98 340.059 491.159 339.765 489.124C339.137 485.211 339.882 483.269 339.842 482.348C339.918 481.109 338.336 482.902 338.76 480.427C339.216 478.031 340.884 476.291 341.951 473.276C343.044 470.292 341.432 470.902 344.375 465.615ZM840.731 97.8486C841.308 93.3347 837.971 92.9562 839.111 97.6691C839.168 97.8899 840.702 98.0782 840.731 97.8486ZM558.612 400.687C564.62 402.108 568.567 399.959 564.423 398.856C560.193 397.755 556.832 400.256 558.612 400.687ZM497.052 408.763C499.842 406.183 501.202 404.304 500.883 403.383C500.655 402.501 498.114 402.807 495.491 406.6C495.183 407.049 496.723 409.073 497.052 408.763ZM359.782 466.438C359.709 466.475 357.769 469.592 357.763 469.689C357.644 471.901 361.521 465.665 359.782 466.438ZM454.467 450.596C456.693 450.188 461.417 446.123 458.774 446.947C456.723 447.658 451.806 451.156 454.467 450.596ZM651.09 16.3362C651.027 16.2873 648.445 16.2506 648.492 16.5276C648.684 17.4197 652.253 17.1574 651.09 16.3362ZM357.05 486.176C357.412 486.022 357.778 485.869 358.24 485.747L358.108 485.791C371.891 480.352 381.012 481.306 365.786 486.487C362.961 487.518 371.363 482.98 367.673 484.046C364.232 485.033 361.7 486.627 359.056 488.112C359.027 488.125 358.937 488.155 358.906 488.164C356.754 489.227 354.348 491.617 349.856 491.562C349.05 491.484 351.403 490.799 353.017 489.347C354.74 487.971 356.586 486.336 357.075 486.159C357.066 486.165 357.058 486.171 357.05 486.176ZM844.486 94.9814C844.532 94.8768 844.24 91.2424 844.174 91.1613C842.951 89.3239 843.552 96.584 844.486 94.9814ZM497.226 14.532C497.032 14.4395 488.555 14.3602 488.271 14.4459C483.85 16.1578 500.992 16.3231 497.226 14.532ZM844.064 340.9C843.6 344.948 840.607 349.378 837.604 350.993C837.373 351.119 837.143 351.234 836.913 351.338C837.078 351.164 837.244 350.989 837.412 350.815C840.1 348.064 842.563 344.583 844.064 340.9Z" fill="white"/>
<path d="M714.956 276.138C719.395 272.745 724.503 272.359 728.694 273.768C731.77 274.802 733.87 276.626 734.778 277.499L735.095 277.81L735.178 277.892C735.262 277.969 735.372 278.047 735.703 278.235C736.08 278.45 736.365 278.595 737.121 279.004C737.783 279.362 738.604 279.817 739.54 280.392C741.839 281.804 743.76 283.456 745.147 284.702C746.834 286.217 747.468 286.862 748.399 287.627L748.701 287.87C749.398 288.417 750.081 288.862 751.524 289.9C752.842 290.848 754.703 292.24 756.459 294.125C756.602 294.243 756.653 294.278 757.131 294.661C757.832 295.224 759.321 296.429 760.681 298.267L760.951 298.643L761.183 298.984C765.936 306.168 762.928 313.229 761.277 316.208C760.408 317.776 759.367 319.238 758.848 319.985C758.11 321.047 758.092 321.138 758.185 320.94C756.497 324.545 753.753 327.002 752.324 328.314C750.596 329.903 748.937 331.351 746.78 333.691C742.379 338.468 738.381 340.747 734.912 342.263L734.226 342.556C731.212 343.816 727.255 344.47 723.238 343.276C718.934 341.997 716.685 338.804 715.704 336.563C714.819 334.542 714.638 332.671 714.58 331.702C714.495 330.268 714.604 328.799 714.701 327.827C711.279 327.79 708.819 327.937 707.465 327.938C704.814 327.937 700.459 327.817 696.059 327.934C694.432 327.977 691.368 328.073 688.445 327.833C686.988 327.714 685.174 327.485 683.379 326.973C681.876 326.544 678.803 325.495 676.441 322.709C673.592 319.347 673.163 315.456 673.049 313.663C672.981 312.604 672.998 311.637 673.016 310.971C673.039 310.105 673.053 309.95 673.053 309.651C673.052 309.557 672.907 306.601 673.299 304.27C673.809 301.232 675.387 297.105 679.732 294.33L680.219 294.031C680.794 293.693 681.634 293.257 682.731 292.896C683.972 292.487 685.181 292.29 686.234 292.17C688.261 291.939 691.215 291.837 695.727 291.807C699.157 291.783 704.532 291.851 710.459 291.933C710.318 291.089 710.247 290.276 710.231 289.512C710.228 289.479 710.222 289.437 710.216 289.385C710.197 289.235 710.078 288.373 710.023 287.606C709.969 286.835 709.891 285.238 710.301 283.391C710.751 281.359 711.887 278.632 714.528 276.476L714.956 276.138Z" fill="#F4F4F3"/>
<path d="M713.486 278.159C712.539 279.21 711.593 280.83 711.137 282.171C710.991 282.59 711.036 282.367 710.941 282.66C710.854 282.938 710.784 283.211 710.724 283.484C710.66 283.775 710.606 284.065 710.555 284.368C710.523 284.562 710.516 284.313 710.484 284.518C710.328 285.543 710.315 286.537 710.386 287.581C710.392 287.681 710.4 287.782 710.408 287.884C710.447 288.369 710.502 288.85 710.564 289.341C710.569 289.384 710.574 289.425 710.579 289.472C710.58 289.478 710.581 289.498 710.581 289.505C710.592 290.299 710.662 291.093 710.789 291.877C710.827 292.098 710.678 292.27 710.454 292.267C705.999 292.183 701.566 292.102 697.035 292.084C696.617 292.083 696.178 292.082 695.728 292.081C694.089 292.08 692.296 292.082 690.722 292.145C690.488 292.154 690.629 292.187 690.584 292.191C689.887 292.261 690.117 292.179 689.661 292.187C688.562 292.21 687.388 292.265 686.26 292.391C685.53 292.473 684.819 292.589 684.161 292.742C683.451 292.917 684.18 292.811 683.459 292.956C683.409 292.967 683.577 292.88 683.383 292.93C683.224 292.971 683.015 293.031 682.8 293.102C682.417 293.226 682.014 293.388 681.806 293.475C681.182 293.741 681.082 293.793 680.519 294.102C680.455 294.138 680.39 294.175 680.325 294.213C680.171 294.307 680.007 294.406 679.841 294.506C679.265 294.866 678.674 295.295 678.169 295.743C678.019 295.877 678.244 295.731 678.01 295.948C677.771 296.162 677.171 296.761 676.978 296.972C676.782 297.179 676.839 297.068 676.8 297.102C676.471 297.371 675.948 298.217 675.886 298.324C674.623 300.25 673.886 302.136 673.509 304.272C673.507 304.283 673.505 304.293 673.503 304.304C673.24 305.919 673.225 307.693 673.261 309.26C673.265 309.392 673.269 309.508 673.273 309.651C673.268 310.119 673.242 310.544 673.23 310.976C673.2 311.879 673.194 312.748 673.249 313.65C673.267 313.95 673.292 314.258 673.327 314.569C673.348 314.761 673.37 314.532 673.397 314.764C673.691 317.227 674.498 319.621 675.899 321.655C676.04 321.857 675.821 321.623 675.96 321.827C676.132 322.074 676.329 322.342 676.551 322.616C677.431 323.744 678.804 324.792 679.5 325.036C680.362 325.592 681.492 326.12 682.352 326.457C682.906 326.671 682.344 326.534 683.048 326.738C683.205 326.781 683.012 326.682 683.251 326.75C683.308 326.766 683.371 326.783 683.428 326.799C684.382 327.061 685.428 327.281 686.392 327.401C686.6 327.427 686.548 327.383 686.608 327.385C687.108 327.406 687.926 327.575 688.108 327.596C688.228 327.611 688.346 327.625 688.461 327.638C689.663 327.766 690.61 327.786 691.789 327.805C692.089 327.809 691.735 327.757 692.024 327.759C693.355 327.768 694.731 327.741 696.053 327.72C696.217 327.717 696.38 327.715 696.542 327.714C696.869 327.712 696.569 327.759 696.725 327.76C697.415 327.765 697.567 327.686 698.229 327.694C698.368 327.696 698.29 327.732 698.316 327.735C698.714 327.791 699.059 327.704 699.162 327.702C700.457 327.67 701.283 327.762 702.534 327.759C702.684 327.759 702.348 327.712 702.767 327.714C704.305 327.72 705.894 327.748 707.465 327.758C708.749 327.754 710.043 327.705 711.294 327.699C711.725 327.696 711.418 327.735 711.445 327.738C711.889 327.793 712.172 327.705 712.314 327.7C713.189 327.672 714.02 327.714 714.703 327.689C714.788 327.69 714.846 327.756 714.838 327.841C714.829 328.021 714.827 328.193 714.835 328.352C714.732 329.465 714.685 330.584 714.749 331.692C714.841 333.346 715.198 334.985 715.856 336.497C716.6 338.196 717.721 339.734 719.122 340.954C719.166 340.992 719.059 340.957 719.148 341.034C720.249 341.921 720.088 341.692 720.919 342.099C721.13 342.201 721.724 342.597 721.784 342.626C721.983 342.743 721.74 342.703 721.809 342.739C722.388 343.025 722.362 342.805 723.175 343.07C723.201 343.079 723.081 343.081 723.149 343.106C723.191 343.122 723.233 343.136 723.276 343.149C723.448 343.203 723.62 343.243 723.789 343.298C724.269 343.448 724.425 343.594 725.198 343.663C725.296 343.668 725.165 343.544 725.926 343.64C726.228 343.692 727.582 343.753 727.962 343.736C728.341 343.733 728.082 343.778 728.109 343.779C729.136 343.781 728.749 343.816 729.271 343.846C729.795 343.863 729.631 343.702 729.836 343.656C730.041 343.613 730.79 343.525 730.974 343.497C731.158 343.474 730.937 343.544 731.1 343.518C732.181 343.325 731.547 343.325 731.89 343.212C732.687 342.931 733.35 342.842 734.077 342.561C734.221 342.504 734.167 342.51 734.197 342.487C734.207 342.479 734.229 342.467 734.274 342.447C734.496 342.348 734.692 342.267 734.881 342.19C735.266 342.027 735.625 341.878 736.127 341.61C736.25 341.546 736.827 341.177 737.243 341.021C737.302 340.999 737.16 341.111 737.443 340.97C737.866 340.76 738.612 340.345 739.039 340.069C739.354 339.867 738.96 340.047 739.371 339.812C739.551 339.707 739.24 339.94 739.579 339.74C739.918 339.543 740.749 338.979 741.056 338.752C741.366 338.527 741.172 338.617 741.195 338.597C741.337 338.478 741.908 338.022 741.959 337.981C743.713 336.619 745.266 335.188 746.717 333.634C747.392 332.91 748.081 332.2 748.796 331.488C748.973 331.311 748.824 331.398 748.851 331.37C749.452 330.762 749.047 331.312 749.503 330.926C749.381 330.923 749.645 330.689 750.079 330.272C750.288 330.07 750.149 330.154 750.166 330.133C750.447 329.802 750.713 329.648 750.778 329.606C751.022 329.45 751.211 329.198 751.376 329.092C751.542 328.986 751.245 329.322 751.671 328.933C751.769 328.801 751.399 329.03 751.713 328.725C751.871 328.572 752.049 328.403 752.24 328.223C753.511 327.077 755.25 325.329 755.935 324.404C756.742 323.359 756.955 322.985 757.362 322.334C758.025 321.2 757.783 321.502 758.058 320.881C758.129 320.729 758.383 320.848 758.311 321C758.303 321.019 758.294 321.039 758.286 321.059C758.2 321.022 758.55 321.236 758.034 320.935C758.032 320.936 758.041 320.923 758.046 320.913C758.503 320.17 758.394 320.607 758.489 320.521C758.584 320.437 758.633 320.308 758.734 320.192C758.834 320.078 758.666 320.359 758.874 320.07C758.883 320.056 758.894 320.042 758.905 320.025C759.131 319.704 759.598 318.937 759.637 318.819C759.728 318.556 759.425 318.883 759.967 318.11C759.998 318.065 759.934 318.234 760.051 318.062C760.461 317.456 760.858 316.827 761.225 316.179C761.688 315.362 762.095 314.517 762.447 313.661C762.532 313.453 762.499 313.656 762.549 313.534C763.05 312.245 762.808 312.681 762.953 311.942C763.004 312.134 763.212 311.755 763.439 310.73C763.568 310.111 763.497 310.21 763.532 309.802C763.543 309.68 763.635 309.245 763.621 309.161C763.575 308.89 763.47 309.297 763.584 308.233C763.588 308.186 763.618 308.338 763.631 308.176C763.688 307.125 763.616 306.998 763.518 305.873C763.443 304.989 763.161 303.432 762.812 302.477C762.938 302.454 762.571 301.561 762.326 301.247C762.057 300.648 761.714 300.023 761.389 299.477C761.277 299.29 761.383 299.393 761.371 299.367C761.306 299.22 761.23 299.1 761.158 299.001C761.047 298.853 760.946 298.755 760.891 298.683C760.887 298.679 760.883 298.673 760.879 298.668C760.789 298.548 760.701 298.43 760.615 298.314C759.801 297.244 759.035 296.368 758.004 295.526C757.963 295.493 757.847 295.499 757.586 295.199C757.57 295.18 757.967 295.462 757.437 295.016C757.335 294.931 757.214 294.83 757.083 294.721C756.884 294.555 756.657 294.372 756.419 294.174C756.042 293.759 755.623 293.338 755.246 293.01C755.07 292.856 754.591 292.509 754.267 292.161C754.225 292.114 754.293 292.141 754.232 292.071C754.036 291.847 753.859 291.81 753.637 291.535C753.414 291.26 752.883 290.764 752.067 290.228C752.04 290.21 751.815 290.129 751.567 289.949C751.55 289.937 751.533 289.924 751.516 289.912C751.124 289.626 750.596 289.236 750.196 288.956C749.997 288.816 750.1 288.94 750.065 288.916C749.552 288.565 749.099 288.247 748.672 287.907C748.572 287.825 748.472 287.743 748.372 287.661C747.786 287.171 747.232 286.636 746.55 285.996C746.316 285.775 745.594 285.191 745.159 284.74C745.151 284.732 745.143 284.724 745.135 284.716C744.702 284.259 745.33 284.538 744.124 283.555C743.624 283.155 742.845 282.838 742.018 282.042C741.196 281.441 740.391 280.879 739.56 280.36C738.776 279.871 737.978 279.409 737.14 278.969C736.928 278.857 736.714 278.747 736.498 278.637C736.409 278.592 736.096 278.508 735.89 278.393C735.812 278.349 735.745 278.309 735.684 278.27C735.506 278.155 735.38 278.064 735.233 277.95C735.212 277.933 735.192 277.915 735.173 277.897C735.145 277.869 735.117 277.842 735.09 277.814C734.984 277.709 734.879 277.606 734.774 277.503C734.195 276.951 733.593 276.472 732.952 276.003C732.642 275.781 732.773 275.827 732.395 275.571C732.014 275.319 731.734 275.196 731.206 274.878C730.806 274.64 730.431 274.344 729.861 274.087C729.802 274.166 729.417 273.986 728.695 273.767C728.693 273.766 728.692 273.766 728.691 273.765C728.552 273.724 728.689 273.804 728.623 273.786C728.353 273.715 728.114 273.615 727.854 273.563C727.791 273.55 727.779 273.58 727.727 273.572C727.287 273.499 726.581 273.29 726.457 273.259C725.985 273.133 725.754 273.148 725.385 273.093C725.017 273.041 725.573 273.066 725.14 273.018C724.241 272.919 723.072 272.951 722.161 273.073C721.798 273.122 722.052 273.131 722 273.138C721.253 273.251 720.496 273.388 720.116 273.585C719.554 273.525 719.677 273.713 718.659 274.054C718.579 274.083 718.438 274.026 718.738 273.892C719.04 273.757 719.52 273.623 719.952 273.474C720.052 273.435 720.63 273.185 720.714 273.163C721.356 272.973 721.479 273.121 721.514 273.121C721.918 273.138 722.654 272.95 722.854 272.931C723.763 272.827 724.543 272.865 725.305 272.907C725.804 272.939 725.866 272.847 726.258 272.907C727.4 273.104 727.848 273.344 728.758 273.577C728.885 273.612 729.017 273.646 729.163 273.684C729.419 273.756 729.221 273.542 730.067 273.994C730.12 274.021 730.729 274.387 731.109 274.536C731.157 274.554 731.17 274.525 731.232 274.555C731.639 274.756 731.889 274.931 732.311 275.184C732.736 275.439 733.234 275.766 733.672 276.123C733.937 276.337 734.231 276.665 734.342 276.783C734.533 276.984 734.756 277.169 734.936 277.335C735.054 277.447 735.156 277.548 735.221 277.641C735.227 277.65 735.232 277.658 735.237 277.665C735.327 277.809 735.113 277.672 735.229 277.84C735.26 277.884 735.329 277.952 735.465 278.043C735.532 277.986 735.629 277.943 735.708 277.892C735.755 277.92 735.803 277.947 735.851 277.975C736.311 278.237 736.789 278.488 737.259 278.749C738.074 279.198 738.881 279.666 739.683 280.159C739.761 280.207 739.838 280.255 739.916 280.303C740.089 280.412 739.937 280.262 740.122 280.378C740.903 280.87 741.542 281.359 742.309 281.926C742.903 282.365 743.562 282.838 744.157 283.329C744.366 283.596 744.867 284.037 745.353 284.473C745.556 284.655 745.757 284.835 745.935 285.001C746.148 285.199 746.115 285.204 746.263 285.35C746.814 285.897 746.603 285.589 746.769 285.723C747.48 286.297 747.399 286.501 748.208 287.198C748.23 287.216 748.396 287.322 748.565 287.426C748.697 287.505 748.832 287.586 748.897 287.627C748.907 287.633 748.918 287.64 748.925 287.645C749.425 287.976 748.98 287.734 749.277 287.966C749.823 288.385 750.211 288.679 750.895 289.127C751.052 289.23 751.394 289.423 751.702 289.653C751.787 289.716 751.87 289.782 751.946 289.851C751.991 289.892 751.944 289.899 751.983 289.93C752.682 290.482 752.763 290.415 753.19 290.698C753.618 290.981 754.183 291.542 754.29 291.663C754.576 291.977 754.029 291.473 754.007 291.464C753.76 291.343 754.213 291.699 754.54 291.992C754.521 292.111 754.982 292.513 754.878 292.296C754.866 292.272 754.604 292.053 754.54 291.992C754.898 292.166 755.417 292.61 755.881 293.204C756.095 293.483 755.837 293.279 756.569 294.023L756.554 294.009C756.558 294.012 756.561 294.015 756.565 294.018C756.938 294.306 756.843 294.135 757.185 294.384C757.22 294.409 757.255 294.435 757.291 294.462C758.058 295.023 758.917 295.874 759.576 296.572C759.827 296.837 759.614 296.549 759.786 296.73C760.207 297.179 760.537 297.618 760.905 298.101C760.936 298.142 760.965 298.182 760.995 298.221C761.031 298.268 760.98 298.126 761.099 298.292C761.138 298.346 761.177 298.399 761.215 298.452C761.299 298.575 761.376 298.689 761.452 298.802C762.183 299.918 762.735 301.018 763.212 302.365C763.49 303.112 763.849 304.5 763.937 305.323C764.133 306.749 764.009 308.514 763.828 309.715C763.71 310.502 763.773 310.335 763.735 310.676C763.664 311.337 763.241 312.431 763.173 312.572C763.174 312.575 763.361 311.922 763.236 312.263C763.133 312.45 763.175 312.565 763.173 312.572C763.143 312.669 762.67 313.946 762.561 314.194C762.509 314.33 762.576 314.271 762.547 314.342C762.266 315.039 761.942 315.722 761.585 316.379C761.07 317.324 760.489 318.229 759.873 319.115C759.855 319.141 759.846 319.077 759.802 319.139C759.528 319.525 759.305 319.853 759.104 320.163C758.98 320.355 758.866 320.537 758.751 320.724C758.695 320.817 758.637 320.912 758.581 321.007C758.552 321.054 758.523 321.104 758.494 321.152C758.487 321.165 758.479 321.178 758.471 321.19C758.467 321.198 758.464 321.203 758.458 321.213C758.455 321.217 758.452 321.222 758.446 321.23C758.443 321.234 758.441 321.239 758.418 321.266C758.341 321.144 758.679 321.689 757.798 321.133C757.76 320.886 757.798 320.961 757.797 320.919C757.808 320.884 757.808 320.887 757.81 320.881C757.839 320.814 757.839 320.815 757.852 320.785L758.518 321.096C758.515 321.101 758.513 321.106 758.511 321.111C758.161 321.93 757.792 322.536 757.452 322.94C757.111 323.515 756.526 324.274 756.169 324.69C755.814 325.108 755.827 325.217 755.797 325.256C754.863 326.444 754.21 327.029 753.069 328.084C752.926 328.215 752.747 328.38 752.551 328.561C751.999 329.071 751.307 329.71 750.883 330.111C750.429 330.541 750.14 330.783 749.733 331.189C749.678 331.244 749.761 331.217 749.744 331.235C749.313 331.712 749.472 331.432 749.365 331.512C748.979 331.804 748.742 331.988 748.187 332.595C748.058 332.735 747.771 333.225 747.541 333.482C747.26 333.795 747.314 333.676 747.064 333.953C747.047 333.972 747.029 333.992 747.01 334.014C746.982 334.045 747.01 334.06 746.808 334.274C745.868 335.268 744.786 336.296 743.708 337.226C743.56 337.353 743.78 337.227 743.567 337.41C742.566 338.271 741.407 339.143 740.319 339.834C740.051 340.004 740.199 339.867 740.136 339.896C739.753 340.078 739.289 340.464 739.205 340.515C737.768 341.414 736.487 342.014 735.072 342.628C734.843 342.724 734.615 342.821 734.382 342.921C734.034 343.068 733.674 343.209 733.296 343.346C733.175 343.396 732.227 343.789 731.764 343.814C731.732 343.817 731.279 343.845 730.901 343.974C730.878 343.981 731.161 343.97 730.68 344.057C730.2 344.143 729.421 344.28 728.747 344.278C728.533 344.278 728.031 344.229 727.398 344.284C727.359 344.295 726.367 344.4 726.026 344.257C725.972 344.232 726.041 344.148 725.285 344.098C725.141 344.087 725.397 344.151 725.018 344.106C724.472 344.039 723.776 343.863 723.112 343.702C723.068 343.691 723.024 343.681 722.98 343.67C722.857 343.643 722.319 343.542 721.937 343.325C721.878 343.291 722.01 343.309 721.8 343.217C720.809 342.779 719.808 342.213 718.966 341.502C718.669 341.247 718.859 341.333 718.564 341.056C718.268 340.781 717.709 340.193 717.419 339.886C717.128 339.58 717.35 339.996 716.945 339.504C716.272 338.663 715.714 337.732 715.287 336.746C714.618 335.195 714.273 333.529 714.169 331.859C714.166 331.803 714.162 331.758 714.16 331.727C714.144 331.531 714.124 331.707 714.106 331.193C714.075 330.249 714.119 329.018 714.243 327.782L714.696 328.287C713.064 328.27 711.398 328.294 710.331 328.283C708.834 328.27 710.715 328.175 709.572 328.185C709.02 328.191 708.425 328.313 708.29 328.319C708 328.334 707.726 328.342 707.465 328.344C706.563 328.347 705.811 328.311 704.899 328.313C704.658 328.313 704.894 328.358 704.689 328.358C703.984 328.357 703.246 328.33 702.575 328.328C702.272 328.327 702.33 328.36 702.051 328.356C701.389 328.346 700.803 328.33 700.157 328.3C700.098 328.297 700.495 328.256 700.005 328.255C699.211 328.253 698.226 328.23 697.314 328.277C697.043 328.291 697.034 328.365 696.451 328.327C696.348 328.32 696.441 328.252 696.068 328.288C696.001 328.295 695.912 328.305 695.807 328.32C695.693 328.337 694.553 328.471 693.987 328.41C693.839 328.395 693.459 328.326 693.131 328.339C693.087 328.341 693.266 328.38 692.993 328.385C692.036 328.401 691.03 328.382 690.043 328.351C689.78 328.342 690.17 328.402 689.777 328.387C689.351 328.37 688.882 328.342 688.407 328.301C687.677 328.24 686.93 328.149 686.293 328.047C685.906 327.984 686.179 327.99 686.151 327.983C685.708 327.853 685.428 327.885 685.276 327.862C684.514 327.743 683.911 327.579 683.26 327.391C683.11 327.348 682.956 327.302 682.795 327.254C682.564 327.184 682.716 327.273 682.669 327.262C682.178 327.137 682.558 327.189 682.258 327.079C681.421 326.768 680.508 326.369 679.717 325.927C679.427 325.763 679.729 325.989 679.469 325.84C678.205 325.11 677.019 324.134 676.089 323.008C675.888 322.766 675.699 322.522 675.521 322.273C675.333 322.006 675.482 322.152 675.449 322.092C675.22 321.684 674.799 321.144 674.716 321.01C674.331 320.404 674.236 320.139 673.972 319.565C673.186 317.852 672.707 315.72 672.6 313.692C672.542 312.743 672.549 311.817 672.577 310.959C672.587 310.645 672.598 310.336 672.61 310.041C672.615 309.906 672.62 309.779 672.62 309.651C672.566 307.72 672.615 305.954 672.903 304.203C673.146 302.818 673.546 301.449 674.194 300.053C674.291 299.846 674.15 300.034 674.234 299.856C675.336 297.542 677.071 295.579 679.195 294.146C679.37 294.029 679.091 294.16 679.373 293.971C679.403 293.951 679.434 293.931 679.465 293.911C679.626 293.81 679.789 293.709 679.957 293.605C680.425 293.328 680.936 293.075 681.384 292.891C681.702 292.761 681.293 292.977 681.614 292.847C681.931 292.721 682.261 292.602 682.599 292.493C683.055 292.345 683.523 292.218 683.982 292.11C684.322 292.032 683.798 292.1 684.241 292.004C684.887 291.867 685.536 291.77 686.18 291.696C688.558 291.437 690.902 291.402 693.299 291.404C693.507 291.405 693.691 291.494 694.136 291.471C694.169 291.445 694.167 291.415 694.181 291.388C694.696 291.38 695.21 291.375 695.724 291.371C699.589 291.347 703.418 291.427 707.296 291.479C707.481 291.482 707.162 291.429 707.52 291.434C708.511 291.447 709.484 291.458 710.465 291.473L710.006 292.009C709.871 291.193 709.796 290.364 709.792 289.52L709.795 289.562C709.791 289.525 709.786 289.482 709.782 289.439C709.756 289.213 709.73 288.971 709.708 288.734C709.689 288.522 709.781 288.622 709.708 287.997C709.704 287.958 709.688 287.814 709.672 287.631C709.642 287.304 709.616 286.849 709.603 286.69C709.6 286.656 709.562 286.831 709.557 286.522C709.546 285.461 709.65 284.365 709.893 283.3C710.062 282.563 710.297 281.843 710.586 281.164C710.701 280.898 710.621 281.199 710.705 281.01C711.292 279.671 712.157 278.304 713.155 277.32C713.827 276.672 713.639 276.973 714.048 276.694C714.088 276.667 714.3 276.487 714.452 276.382C714.524 276.334 714.58 276.301 714.596 276.306C714.72 276.343 714.578 276.603 714.735 276.622C714.769 276.626 715.346 276.137 715.031 276.461C715.018 276.474 714.867 276.603 714.727 276.727C714.636 276.809 714.549 276.894 714.514 276.935C714.454 277.005 714.606 276.93 714.477 277.065C714.35 277.2 714.174 277.309 713.969 277.54C713.769 277.773 713.891 277.705 713.486 278.159ZM754.485 326.486C754.105 326.82 754.158 326.979 754.515 326.561C754.532 326.541 754.505 326.469 754.485 326.486ZM738.445 279.559C738.982 279.944 739.416 280.095 739.043 279.813C738.668 279.532 738.28 279.443 738.445 279.559ZM732.859 275.775C733.452 276.268 733.678 276.176 732.981 275.718C732.94 275.692 732.823 275.747 732.859 275.775ZM712.513 278.362C712.517 278.356 712.776 278.038 712.782 278.031C712.883 277.83 712.363 278.467 712.513 278.362ZM726.649 273.182C726.88 273.249 727.561 273.371 727.278 273.27C727.049 273.184 726.36 273.094 726.649 273.182ZM734.124 342.62C734.117 342.622 733.845 342.728 733.855 342.737C733.888 342.769 734.261 342.605 734.124 342.62ZM715.682 275.548C717.112 274.619 718.123 274.352 716.508 275.215C716.219 275.38 717.099 274.805 716.724 275.004C716.037 275.372 715.67 275.748 715.004 276.177C714.88 276.252 715.597 275.596 715.685 275.546C715.684 275.547 715.683 275.547 715.682 275.548ZM754.155 326.57C754.146 326.577 753.861 326.86 753.855 326.868C753.735 327.057 754.31 326.483 754.155 326.57ZM718.307 340.262C718.288 340.249 717.663 339.562 717.648 339.537C717.26 339.227 718.527 340.629 718.307 340.262ZM762.81 302.461C762.621 302.067 762.417 301.59 762.327 301.249C762.503 301.644 762.668 302.051 762.81 302.461Z" fill="white"/>
<path d="M718.588 280.914C721.334 278.811 724.334 278.632 726.782 279.455C728.94 280.181 730.374 281.573 730.841 282.042L731.067 282.261C731.589 282.748 732.076 283.076 732.738 283.452C733.34 283.794 734.993 284.64 736.398 285.504L737.072 285.935C738.618 286.962 739.985 288.13 741.138 289.166C742.592 290.472 743.532 291.394 744.592 292.264L744.973 292.57C745.864 293.269 746.779 293.879 748.021 294.772C749.315 295.702 750.853 296.87 752.23 298.389L752.361 298.52C752.513 298.658 752.757 298.845 753.375 299.341C754.044 299.878 755.117 300.764 756.026 302.07L756.299 302.481C758.974 306.731 757.337 310.938 756.028 313.3C755.339 314.544 754.5 315.728 753.92 316.562C753.241 317.54 752.911 318.053 752.75 318.397C751.634 320.781 749.78 322.505 748.265 323.897C746.82 325.226 745.199 326.65 743.232 328.705L742.368 329.626C738.644 333.668 735.382 335.514 732.485 336.775L731.911 337.021C729.996 337.822 727.665 338.192 725.4 337.646L724.948 337.525C722.842 336.899 721.716 335.336 721.2 334.157C720.728 333.079 720.609 332.021 720.569 331.347C720.488 329.984 720.663 328.483 720.757 327.634L720.795 327.333C721.035 325.653 721.709 324.194 722.478 322.981C721.362 322.992 720.282 322.991 719.289 322.964L718.422 322.932C713.04 322.681 708.837 322.937 707.465 322.938C705.318 322.937 701.521 322.845 697.606 322.901L695.927 322.936L695.825 322.938C694.124 322.983 691.359 323.061 688.776 322.844C687.487 322.735 686.05 322.539 684.71 322.152C683.587 321.828 681.867 321.19 680.52 319.771L680.256 319.477C678.477 317.377 678.135 314.843 678.039 313.345C677.954 312.005 678.053 309.945 678.053 309.651C678.053 309.028 677.93 306.883 678.229 305.098C678.589 302.961 679.635 300.325 682.424 298.544L682.746 298.346C683.114 298.129 683.624 297.866 684.297 297.645C685.083 297.385 685.917 297.239 686.802 297.138C688.531 296.94 691.238 296.837 695.761 296.807C700.631 296.773 710.145 296.932 719.401 297.052C716.936 294.334 716.232 291.355 716.227 289.224C716.226 289.175 716.218 289.034 716.169 288.641C716.133 288.352 716.047 287.738 716.008 287.181C715.968 286.621 715.935 285.699 716.159 284.688C716.402 283.594 716.992 282.209 718.322 281.123L718.588 280.914Z" fill="#3B3119"/>
<path d="M721.482 284.995C724.251 282.735 726.656 284.925 727.294 285.567C729.337 287.62 731.014 288.064 733.779 289.763C736.637 291.519 739.083 294.211 741.416 296.127C743.783 298.071 746.504 299.519 748.525 301.746C749.535 302.86 750.966 303.554 751.92 304.926C754.649 308.847 749.712 313.088 748.219 316.276C746.94 319.01 743.767 320.725 738.689 326.236C735.318 329.895 732.528 331.34 729.979 332.406C728.744 332.923 727.43 333.046 726.371 332.731C725.277 332.406 725.514 330.087 725.724 328.181C726.068 325.062 729.74 322.456 731.977 319.69C733.938 317.267 736.496 316.301 737.886 314.093C736.212 314.093 733.978 314.063 731.251 314.021C729.336 313.992 725.773 314.043 722.258 314.085C718.768 314.127 715.31 314.161 713.661 314.099C709.309 313.933 705.64 314.099 704.803 314.1C703.206 314.1 700.076 314.04 696.904 314.077L695.545 314.1L695.465 314.102C694.085 314.131 692.059 314.175 690.208 314.048C689.284 313.984 688.37 313.876 687.583 313.69C686.882 313.525 686.139 313.268 685.61 312.812L685.507 312.719C684.682 311.923 684.446 310.86 684.377 309.985C684.343 309.539 684.348 309.099 684.361 308.714C684.374 308.304 684.393 307.999 684.393 307.714C684.393 307.092 684.306 306.028 684.499 305.091C684.714 304.045 685.281 303.02 686.57 302.347L686.727 302.268C686.894 302.187 687.094 302.103 687.366 302.03C687.707 301.938 688.136 301.869 688.732 301.813C689.919 301.703 691.916 301.635 695.518 301.615C701.954 301.579 724.61 301.916 733.911 301.843C728.411 298.141 726.65 296.664 724.251 294.762C721.714 292.75 721.227 290.479 721.224 289.209C721.22 287.688 720.526 285.776 721.482 284.995Z" fill="white"/>
</svg>
