<svg width="386" height="358" viewBox="0 0 386 358" fill="none" xmlns="http://www.w3.org/2000/svg">
<path d="M116.35 187.685C121.882 188.016 125.974 187.685 125.628 188.235C124.594 189.878 123.197 190.448 122.975 190.835C122.534 191.551 122.09 192.216 121.594 192.933C120.209 194.873 119.199 196.886 118.445 198.571C116.791 202.272 115.483 206.135 115.098 208.378C114.705 210.66 113.702 213.711 113.773 215.61C113.831 217.158 113.782 219.288 114.715 220.687C115.156 221.348 116.064 221.987 117.203 222.618C118.693 223.445 121.374 224.677 123.205 223.894C124.753 223.231 128.748 221.929 132.093 220.194C133.696 219.363 135.506 219.204 137.361 218.24C140.13 216.801 142.222 215.04 143.594 214.378C145.204 213.601 147.135 211.562 148.656 210.587C150.807 209.208 152.075 208.195 154.121 207.442C156.219 206.671 157.666 205.798 159.598 206.878C161.588 207.991 163.386 211.855 170.102 210.756C173.462 210.206 175.502 210.233 178.098 209.486C180.981 208.656 185.182 205.195 187.029 203.878C188.743 202.656 191.838 200.16 195.098 198.571C197.357 197.469 198.489 194.964 200.598 194.026C202.943 192.983 209.05 195.312 210.098 195.878C212.921 197.403 205.491 198.36 204.901 200.07C204.292 201.839 203.184 203.284 202.583 205.038C201.861 207.145 200.691 209.797 201.651 211.219C201.874 211.55 203.117 213.839 206.098 213.878C214.542 213.987 217.821 213.929 218.692 213.759C220.411 213.425 223.032 212.909 225.098 212.378C227.029 211.881 232.756 207.796 234.105 209.161C234.38 209.44 234.536 209.755 234.6 210.1C234.93 211.877 234.603 214.543 235.763 215.344C236.48 215.839 237.794 218.972 241.109 219.878C244.745 220.872 246.449 222.13 250.191 222.193C256.587 222.301 261.813 221.59 263.812 221.318L263.917 221.304C266.783 220.915 268.808 220.627 271.475 219.812C273.633 219.153 275.895 219.002 278.098 218.378C280.039 217.828 282.524 217.326 289.098 216.878C293.134 216.603 292.991 215.928 296.098 215.344C299.022 214.794 303.372 213.213 304.436 211.473C304.709 211.026 304.709 210.37 304.54 209.93C304.371 209.489 304.054 209.212 303.598 209.161C302.606 209.052 301.732 209.219 301.004 209.329C298.389 209.721 295.882 210.891 294.044 211.034C291.892 211.202 290.601 211.593 287.862 211.973C286.262 212.195 280.005 214.231 272.598 214.378C267.091 214.487 261.288 215.183 256.098 214.878C250.462 214.547 245.098 215.878 244.598 212.378C244.098 208.878 254.682 199.587 249.598 198.878C248.814 198.769 243.856 200.468 243.098 200.07C241.834 199.408 241.955 194.195 241.877 193.253C241.767 191.93 241.796 190.734 241.322 190.166L241.31 190.151C240.761 189.494 240.155 188.768 239.444 188.235C238.783 187.74 234.16 188.031 227.948 188.623C223.88 189.01 221.94 191.59 218.692 190.878C216.925 190.49 214.828 190.734 213.098 190.378C211.496 190.048 207.139 189.819 206.098 187.878C205.326 186.439 207.49 183.181 206.098 182.878C204.826 182.601 200.125 181.487 198.16 182.275C196.495 182.942 196.624 186.85 195.098 187.878C192.888 189.367 188.717 190.883 187.029 192.378C185.53 193.704 183.045 194.222 179.908 194.98C175.114 196.14 170.014 198.115 169.548 196.075C169.384 195.358 168.461 193.82 168.598 192.878C168.878 190.947 169.369 188.886 170.102 187.378C171.044 185.439 173.446 181.788 176.423 179.56C178.411 178.073 179.628 179.139 181.098 178.378C182.699 177.548 184.882 176.97 187.029 176.253C190.997 174.928 194.364 174.33 195.742 173.524C197.731 172.362 199.408 171.087 201.098 170.378C203.474 169.381 205.137 168.278 206.616 167.785C208.442 167.175 212.854 162.972 216.112 161.625C217.713 160.963 219.599 159.871 221.467 159.085C223.569 158.2 225.402 157.214 226.767 156.268C228.756 154.888 230.72 153.968 231.954 152.402C233.393 150.576 234.964 148.761 235.872 147.103C236.811 145.389 237.663 143.89 237.912 142.246L237.93 142.13C238.263 139.942 238.832 136.204 237.189 135.677C234.791 134.909 230.87 135.336 228.961 135.517C227.192 135.684 225.059 134.607 216.02 137.9C212.394 139.221 210.729 139.952 210.027 140.266C208.426 140.984 206.873 142.073 205.39 142.916C203.338 144.084 200.159 146.266 196.551 148.386C193.739 150.039 192.283 151.81 189.594 153.898C183.202 158.861 181.639 161.956 179.094 163.831C177.213 165.217 175.78 166.393 174.094 168.378C172.218 170.587 170.527 172.462 168.458 175.878C167.187 177.974 164.781 180.364 163.007 183.378C161.904 185.252 160.887 189.001 159.972 190.835C158.804 193.175 156.987 199.644 155.594 201.378C154.485 202.759 150.567 204.555 147.594 205.878C145.595 206.767 143.798 207.257 142.594 208.378C141.047 209.817 138.121 210.069 136.061 210.878C135.505 211.096 130.108 212.428 129.594 210.878C128.968 208.989 129.453 206.791 130.094 205.124C130.924 202.968 133.194 198.466 134.62 196.135C136.712 192.716 139.579 189.236 140.924 186.846C142.195 184.585 143.94 182.355 145.844 180.551C149.045 177.517 151.966 175.38 154.063 173.713C155.669 172.436 157.357 170.397 158.867 168.63C160.518 166.699 161.051 165.21 163.007 163.831C165.056 162.387 166.291 160.97 170.598 156.268C172.363 154.34 175.086 152.232 177.291 151.256C179.79 150.15 183.071 147.991 185.254 147.106C187.022 146.389 189.536 144.551 192.094 141.878C194.747 139.105 201.549 133.457 199.663 133.878C198.388 134.163 193.42 135.652 192.094 136.378C189.391 137.857 187.06 138.604 183.094 140.378C178.406 142.474 175.967 144.333 173.094 145.995C171.004 147.204 167.745 149.436 166.094 150.878C162.52 154 155.559 157.922 154.063 159.085C151.574 161.019 151.928 162.388 149.094 163.831C145.954 165.429 144.676 167.202 143.594 168.878C142.488 170.592 140.71 172.488 139.094 172.771C138.157 172.934 138.858 173.875 131.3 173.938C124.727 173.993 112.922 173.993 106.851 173.936C100.78 173.88 100.452 173.771 100.119 173.604C99.7863 173.436 99.4584 173.218 99.2944 172.771C99.1305 172.323 99.1305 171.668 99.1868 171.114C99.2431 170.561 99.3321 169.984 100.364 169.905C103.234 169.687 105.982 170.099 109.895 170.24C112.922 170.349 117.991 170.664 121.816 170.011C131.49 168.362 133.925 168.621 135.458 167.585C135.79 167.362 136.09 167.037 136.061 166.701C136.005 166.04 138.472 156.055 134.62 154.393C134.233 154.226 133.905 154.007 127.66 153.898C121.415 153.788 109.61 153.788 103.483 153.676C97.3552 153.563 96.7961 153.386 96.6994 152.897C96.4808 151.795 96.3757 150.582 96.9262 150.253C97.4777 149.923 98.2638 149.728 99.0808 149.481C100.912 148.926 108.207 148.271 115.407 148.212C122.137 148.158 127.197 148.078 128.841 147.769C132.054 147.164 136.061 149.922 137.21 148.146C137.538 147.639 137.504 146.652 137.594 145.995C137.869 144.003 138.738 137.395 137.21 135.878C136.713 135.384 136.66 136.763 135.5 136.62C133.239 136.34 126.131 135.239 121.094 134.878C117.242 134.601 116.104 135.685 110.056 135.54C105.478 135.431 101.865 134.947 99.2944 134.878C95.2138 134.769 90.2993 134.819 88.5942 134.878C82.2066 135.1 83.9234 134.526 81.1818 136.017C80.5757 136.347 81.7608 144.509 81.5968 152.897C81.4329 161.286 81.485 169.064 81.5977 177.378C81.7103 185.691 80.3525 186.614 82.2185 186.692C87.4617 186.91 91.5048 187.444 98.0077 187.518C102.84 187.573 111.591 187.4 116.35 187.685Z" fill="#D4D4D4" stroke="#D4D4D4" stroke-width="10" stroke-linecap="round"/>
<path d="M82.5977 136.032L82.5977 186.032" stroke="#848484" stroke-width="4" stroke-linecap="round"/>
<path d="M82.5977 186.032H129.598" stroke="#848484" stroke-width="4" stroke-linecap="round"/>
<path d="M82.5977 136.032H136.598" stroke="#848484" stroke-width="4" stroke-linecap="round"/>
<path d="M136.598 136.032L136.598 148.032" stroke="#848484" stroke-width="4" stroke-linecap="round"/>
<path d="M97.5977 148.032L136.598 148.032" stroke="#848484" stroke-width="4" stroke-linecap="round"/>
<path d="M97.5977 148.032L97.5977 156.032" stroke="#848484" stroke-width="4" stroke-linecap="round"/>
<path d="M97.5977 168.032L97.5977 176.032" stroke="#848484" stroke-width="4" stroke-linecap="round"/>
<path d="M97.7617 155.97H135.469" stroke="#848484" stroke-width="4" stroke-linecap="round"/>
<path d="M135.469 156.198V167.853" stroke="#848484" stroke-width="4" stroke-linecap="round"/>
<path d="M97.5977 168.032L135.598 168.032" stroke="#848484" stroke-width="4" stroke-linecap="round"/>
<path d="M97.5977 176.032H138.598" stroke="#848484" stroke-width="4" stroke-linecap="round"/>
<path d="M191.598 137.532C193.691 136.4 197.084 132.518 199.098 134.532C200.598 136.032 195.598 138.032 194.598 138.532C193.476 139.093 192.988 139.748 191.598 140.532C188.984 142.362 188.213 142.178 186.166 143.396C184.25 144.535 182.156 146.267 179.367 148.103C176.575 149.941 173.875 152.103 171.261 154.646C167.865 157.95 165.249 159.894 163.701 162.032C161.871 164.56 159.76 165.877 158.098 167.532C156.26 169.362 154.661 171.656 152.598 173.032C150.504 174.428 147.948 177.654 146.362 180.032C144.967 182.126 143.966 182.933 142.098 185.032C139.997 187.395 137.391 189.439 135.718 192.108C134.406 194.202 133.506 196.87 132.234 198.904C130.924 200.998 127.327 206.591 128.109 210.799C128.286 211.756 128.611 212.515 130.226 212.532C137.875 212.613 143.113 209.213 146.362 207.779C148.72 206.738 156.732 201.444 156.098 203.594C155.659 205.084 150.717 209.032 148.598 210.532C146.74 211.848 144.4 213.57 142.098 214.532C140.005 215.408 138.058 217.121 135.718 218.032C133.013 219.086 129.196 221.347 127.098 222.032C121.969 223.708 119.812 224.009 117.598 222.532C116.555 221.837 113.774 218.363 114.598 214.032C115.209 210.817 116.267 206.609 117.098 204.532C118.098 202.032 118.976 198.746 121.095 196.183C123.615 193.135 125.555 190.09 127.098 188.032C128.598 186.032 129.57 184.462 131.732 182.151C135.64 177.974 136.953 175.771 139.129 174.319C141.223 172.924 143.047 171.259 145.403 169.264C147.675 167.34 148.79 164.327 150.717 162.904C152.725 161.422 155.045 159.498 157.428 158.112C159.521 156.894 161.708 155.989 163.701 154.453C165.973 152.701 166.621 150.82 169.098 149.532C173.275 147.36 174.851 145.543 177.598 144.532C180.212 143.57 181.373 142.63 183.598 141.032C185.778 139.466 189.63 138.596 191.598 137.532Z" fill="#848484" stroke="#848484" stroke-width="2" stroke-linecap="round"/>
<path d="M231.76 133.944C232.539 133.831 233.309 133.885 234.254 133.954L234.838 134C236.159 134.112 237.191 134.29 238.016 135.046L238.089 135.119C238.251 135.295 238.344 135.493 238.396 135.612C238.467 135.777 238.527 135.962 238.576 136.148C238.676 136.522 238.757 136.979 238.81 137.463C238.9 138.296 238.918 139.312 238.756 140.218L238.675 140.6C238.585 140.961 238.551 141.224 238.453 141.684C238.378 142.038 238.276 142.437 238.097 142.842L238.016 143.015C237.762 143.524 237.271 144.157 236.844 144.709C236.495 145.16 236.153 145.599 235.87 146.009L235.608 146.409C235.223 147.034 234.771 147.873 234.271 148.603L234.054 148.907C233.428 149.751 232.773 150.709 231.857 151.452L231.669 151.599C231.132 152.001 230.509 152.486 229.791 152.993L229.039 153.506C228.507 153.857 227.967 154.143 227.538 154.38C227.197 154.569 226.932 154.725 226.725 154.874L226.536 155.023C226.004 155.486 225.405 155.865 224.954 156.176C224.533 156.466 224.193 156.727 223.919 157.032L223.806 157.166C223.518 157.526 223.138 158.021 222.725 158.462C222.364 158.847 221.922 159.256 221.4 159.543L221.17 159.658C220.543 159.947 219.809 160.316 219.133 160.825L218.847 161.052C218.12 161.662 217.176 162.311 216.113 162.895L215.651 163.14C214.811 163.573 214.126 163.945 213.536 164.284L212.976 164.614C212.51 164.892 211.934 165.204 211.371 165.503L209.846 166.319C209.473 166.526 209.144 166.758 208.698 167.05C208.378 167.26 208.021 167.483 207.611 167.692L207.184 167.895C206.481 168.203 205.41 168.654 204.509 169.183L204.135 169.414C203.637 169.74 203.186 169.968 202.785 170.162C202.476 170.313 202.22 170.433 201.973 170.564L201.727 170.699C201.139 171.041 200.582 171.326 199.835 171.671L199.017 172.04C198.301 172.357 197.644 172.61 197.053 172.841C196.604 173.017 196.196 173.179 195.808 173.352L195.426 173.529C194.706 173.878 194.014 174.145 193.385 174.4L192.777 174.653C192.06 174.963 191.28 175.355 190.505 175.561L190.173 175.637C189.718 175.724 189.201 175.758 188.847 175.795C188.545 175.827 188.309 175.864 188.118 175.918L187.942 175.979C187.468 176.174 187.017 176.331 186.637 176.467C186.342 176.573 186.088 176.668 185.861 176.768L185.643 176.87C185.201 177.091 184.762 177.239 184.364 177.366C184.055 177.466 183.774 177.552 183.49 177.655L183.203 177.763C182.622 177.997 182.058 178.219 181.419 178.446L180.751 178.675C180.438 178.779 180.037 178.842 179.644 178.886C179.232 178.932 178.755 178.965 178.255 178.992C177.491 179.034 176.608 179.064 175.791 179.096C175.67 179.403 175.473 179.703 175.276 179.963C175.055 180.256 174.78 180.57 174.477 180.891C174.023 181.502 173.614 182.032 173.221 182.518L172.822 183.004C172.583 183.291 172.388 183.623 172.171 184.031C172.017 184.319 171.841 184.67 171.639 185.026L171.429 185.381C170.685 186.578 170.159 187.562 169.862 188.324L169.749 188.637C169.303 189.982 168.622 191.092 169.082 192.571L169.151 192.831C169.212 193.095 169.247 193.362 169.275 193.59C169.314 193.923 169.342 194.202 169.395 194.485C169.497 195.036 169.658 195.373 169.955 195.595L170.124 195.708C170.369 195.864 170.828 196.131 171.38 196.36C172.139 196.675 172.896 196.843 173.462 196.735L174.24 196.598C175.016 196.472 175.847 196.355 177.308 196.033L178.941 195.671C179.425 195.566 179.859 195.478 180.273 195.409L180.351 195.391C180.447 195.363 180.599 195.304 180.82 195.195C181.101 195.056 181.422 194.873 181.789 194.66C182.49 194.254 183.367 193.727 184.193 193.404L184.824 193.167C185.466 192.936 186.131 192.722 186.721 192.534C187.54 192.274 188.167 192.078 188.5 191.939L189.014 191.707C189.193 191.622 189.387 191.527 189.61 191.419C190.047 191.209 190.561 190.967 191.217 190.704L191.801 190.459C193.2 189.844 194.819 188.951 195.741 188.123L195.862 188.01C196.435 187.441 196.585 186.846 196.988 185.874L197.092 185.593C197.126 185.492 197.16 185.381 197.195 185.261C197.262 185.038 197.34 184.756 197.425 184.5C197.584 184.019 197.854 183.32 198.455 182.875L198.73 182.67C199.039 182.444 199.459 182.168 200.025 181.974C200.786 181.714 201.743 181.618 203.066 181.768L204.077 181.888C204.423 181.936 204.771 181.998 205.095 182.083C205.754 182.257 206.472 182.571 206.973 183.239L207.085 183.394C207.342 183.767 207.669 184.372 207.537 185.063L207.498 185.224C207.328 185.806 206.903 186.317 206.721 186.569C206.514 186.854 206.413 187.038 206.377 187.215L206.366 187.29C206.33 187.644 206.32 187.96 206.335 188.196C206.364 188.201 206.396 188.206 206.43 188.212C206.656 188.252 206.95 188.311 207.259 188.426L207.628 188.577C207.991 188.74 208.333 188.931 208.641 189.109C209.075 189.358 209.433 189.576 209.801 189.753L210.042 189.855C210.287 189.944 210.548 190.002 210.89 190.071C211.335 190.16 211.9 190.267 212.553 190.519L212.873 190.636C213.629 190.896 214.447 191.063 215.566 191.161L216.218 191.206C216.901 191.242 217.666 191.249 218.388 191.224C219.377 191.19 220.189 191.098 220.608 190.979L220.908 190.889C221.605 190.67 222.264 190.394 223.02 190.113L223.855 189.808C224.706 189.504 225.62 189.201 226.688 188.891L227.941 188.511C229.105 188.157 230.103 187.895 231.856 187.87L234.844 187.84C235.746 187.836 236.548 187.839 237.224 187.851C237.897 187.863 238.465 187.885 238.892 187.921C239.103 187.939 239.302 187.963 239.472 187.995C239.556 188.012 239.654 188.034 239.75 188.067C239.81 188.087 239.915 188.125 240.03 188.197L240.148 188.28L240.252 188.37C240.486 188.587 240.654 188.838 240.77 189.026L240.938 189.269C241.003 189.357 241.083 189.465 241.196 189.626C241.39 189.902 241.61 190.249 241.79 190.687C242.137 191.532 242.287 192.599 242.026 194.042L241.969 194.336C241.702 195.599 241.363 196.401 240.917 197.219L240.719 197.573C239.922 198.964 239.16 200.034 238.067 200.508L237.845 200.595C237.167 200.829 235.745 201.574 233.469 201.204L233.002 201.115C232.685 201.045 232.385 200.925 232.131 200.716C231.933 200.553 231.807 200.372 231.724 200.212L231.652 200.061C231.562 199.844 231.369 199.34 231.3 198.749C231.233 198.174 231.264 197.336 231.842 196.642L232.018 196.448C232.198 196.264 232.39 196.109 232.561 195.979C232.676 195.891 232.795 195.805 232.9 195.729C233.01 195.65 233.107 195.579 233.2 195.509C233.291 195.44 233.365 195.376 233.427 195.322C232.321 195.36 231.719 195.626 230.61 195.955L229.972 196.134C229.459 196.269 229.03 196.395 228.595 196.527L227.176 196.955C226.419 197.178 225.582 197.472 224.899 197.739L224.275 197.991C223.817 198.185 223.264 198.349 222.804 198.492C222.432 198.609 222.104 198.717 221.827 198.831L221.567 198.949C221.137 199.163 220.619 199.467 220.021 199.807C219.589 200.052 219.121 200.313 218.66 200.538L218.204 200.751C217.721 200.962 217.328 201.141 217.038 201.377C216.818 201.557 216.7 201.733 216.666 201.963L216.657 202.066C216.625 202.824 216.574 203.47 216.595 204.003C216.603 204.216 216.625 204.363 216.646 204.455C217.29 204.817 217.88 205.135 218.747 205.339L218.929 205.368C219.195 205.401 219.722 205.437 220.574 205.424C221.682 205.408 223.286 205.31 225.476 205.04L226.374 204.935C227.228 204.84 227.955 204.772 228.576 204.712C229.417 204.632 230.036 204.567 230.549 204.472L230.945 204.404C231.342 204.34 231.74 204.288 232.108 204.24C232.611 204.175 233.047 204.119 233.41 204.05L233.675 203.995C233.938 203.936 234.202 203.864 234.484 203.784C234.852 203.681 235.263 203.56 235.7 203.46L235.951 203.399C236.19 203.336 236.401 203.268 236.649 203.19C236.981 203.084 237.358 202.967 237.882 202.852L237.971 202.827C238.192 202.755 238.519 202.578 238.982 202.289C239.436 202.005 240.035 201.605 240.566 201.357L240.875 201.219C241.592 200.917 242.273 200.741 242.798 200.574C243.419 200.376 243.944 200.162 244.484 199.742L244.625 199.639C245.345 199.133 246.328 198.808 247.164 198.647C247.624 198.558 248.089 198.509 248.504 198.518C248.815 198.524 249.259 198.563 249.64 198.767L249.798 198.865L249.878 198.927C250.052 199.076 250.146 199.248 250.194 199.357C250.256 199.496 250.29 199.636 250.307 199.76C250.332 199.944 250.327 200.149 250.283 200.355L250.227 200.562C249.972 201.301 249.488 202.045 248.974 202.702C248.581 203.205 248.143 203.691 247.715 204.128L247.292 204.548C246.959 204.87 246.588 205.391 246.258 205.959C246.012 206.383 245.816 206.788 245.692 207.087L245.592 207.349C245.405 207.91 245.206 208.69 244.851 209.52L244.688 209.878C244.502 210.265 244.4 210.494 244.349 210.792C244.298 211.09 244.29 211.525 244.431 212.272L244.497 212.634C244.519 212.741 244.539 212.823 244.561 212.889C244.603 213.018 244.631 213.029 244.618 213.019L244.916 213.264C245.012 213.346 245.103 213.428 245.188 213.503C245.365 213.661 245.516 213.795 245.667 213.916C245.975 214.162 246.18 214.264 246.348 214.292L246.939 214.395C247.564 214.511 248.303 214.685 248.994 215.001L249.108 215.028C249.22 215.05 249.38 215.075 249.589 215.101C250.007 215.153 250.584 215.203 251.3 215.24C252.73 215.315 254.681 215.338 256.959 215.231L258.166 215.17C259.135 215.118 259.458 215.086 259.722 215.053L259.996 215.026C260.645 214.978 261.339 215.035 261.893 215.074C262.611 215.125 263.076 215.142 263.363 215.073L263.586 215.027C264.127 214.929 264.803 214.907 265.355 214.889C266.074 214.866 266.609 214.85 266.896 214.791L267.689 214.622C268.516 214.452 269.536 214.294 271.59 214.279L273.063 214.263C276.335 214.219 278.447 214.118 278.95 214.043L279.182 213.994C279.276 213.97 279.395 213.937 279.551 213.891C279.85 213.804 280.251 213.684 280.799 213.542C281.899 213.258 283.58 212.891 286.361 212.477L287.007 212.37C287.631 212.257 288.202 212.125 288.781 211.99C289.548 211.812 290.339 211.626 291.238 211.493L291.946 211.381C292.61 211.268 293.152 211.151 293.695 211.02L294.001 210.941C294.309 210.856 294.632 210.755 295.025 210.629C295.544 210.463 296.172 210.259 296.999 210.018L297.229 209.943C298.44 209.507 300.637 208.26 303.706 208.963L303.852 209C304.201 209.102 304.605 209.306 304.836 209.72C304.979 209.976 305.032 210.281 304.962 210.585C304.911 210.805 304.806 210.987 304.679 211.129L304.545 211.258C303.899 211.797 303.302 212.285 302.584 212.718L302.269 212.901C301.741 213.192 301.226 213.379 300.73 213.543C300.346 213.67 299.987 213.779 299.597 213.916L299.193 214.064C298.108 214.48 297.334 214.866 296.62 215.202L295.917 215.523C295.249 215.81 294.486 215.992 293.861 216.128C293.343 216.242 292.959 216.319 292.689 216.393L292.454 216.467C291.749 216.737 291.079 217.044 289.566 217.338L288.862 217.463C287.882 217.623 287.161 217.756 286.568 217.88L286.015 218.003C285.47 218.13 284.663 218.202 283.994 218.267C283.433 218.322 282.969 218.372 282.651 218.43L282.384 218.49C281.601 218.724 280.597 218.842 279.635 218.937L278.696 219.028C277.973 219.1 276.998 219.289 275.985 219.496C275.25 219.647 274.488 219.81 273.841 219.925L273.237 220.023C272.647 220.106 272.022 220.314 271.026 220.567C270.205 220.775 269.241 220.978 268.111 221.047L267.617 221.069C263.884 221.16 262.559 221.28 261.712 221.376L260.953 221.462C259.715 221.587 258.092 222.186 254.476 222.054L253.725 222.018C251.55 221.886 249.164 221.738 247.944 221.579L247.497 221.511C247.052 221.428 246.48 221.288 245.929 221.157C245.502 221.056 245.075 220.958 244.678 220.879L244.29 220.808C243.72 220.712 243.118 220.589 242.571 220.483C242.151 220.401 241.763 220.328 241.418 220.277L241.087 220.232C240.285 220.138 239.304 219.939 238.445 219.449L238.275 219.347C237.539 218.883 236.545 218.11 236.02 217.043L235.921 216.825C235.776 216.477 235.629 216.211 235.428 215.781C235.268 215.438 235.102 215.045 234.989 214.599L234.944 214.405C234.893 214.158 234.898 213.879 234.908 213.669C234.919 213.436 234.944 213.166 234.97 212.895C235.024 212.334 235.089 211.725 235.107 211.131C235.125 210.525 235.089 210.031 234.988 209.694C234.94 209.532 234.89 209.452 234.862 209.418L234.831 209.395C234.859 209.402 234.794 209.381 234.56 209.417C234.394 209.443 234.18 209.492 233.908 209.571L233.616 209.66C233.167 209.804 232.62 209.889 232.273 209.961C231.973 210.024 231.708 210.095 231.461 210.2L231.22 210.319C230.774 210.567 230.278 210.774 229.819 210.957C229.58 211.053 229.352 211.141 229.133 211.229L228.499 211.494C227.744 211.833 226.713 212.384 225.46 212.56L225.206 212.589C224.646 212.643 224.153 212.762 223.595 212.906C223.184 213.011 222.729 213.133 222.22 213.232L221.692 213.321C220.722 213.46 219.745 213.618 218.99 213.769L218.317 213.916C217.707 214.066 217.197 214.225 216.663 214.373C216.222 214.496 215.76 214.614 215.302 214.663L215.106 214.68C213.637 214.774 211.667 214.802 209.976 214.765C209.13 214.746 208.34 214.712 207.708 214.659C207.393 214.633 207.104 214.601 206.862 214.563C206.704 214.538 206.51 214.502 206.328 214.443L206.152 214.374C205.828 214.227 205.463 214.106 204.975 213.926C204.632 213.799 204.249 213.65 203.866 213.459L203.484 213.254C203.316 213.156 203.174 213.091 202.901 212.946C202.667 212.82 202.382 212.657 202.113 212.441C201.534 211.974 201.046 211.269 201.055 210.218L201.08 208.858C201.169 205.937 201.481 204.718 202.195 203.815L202.653 203.213C202.793 203.023 202.923 202.84 203.051 202.661C203.302 202.31 203.554 201.958 203.838 201.616L204.321 201.057C204.481 200.878 204.636 200.707 204.775 200.55C205.064 200.222 205.315 199.921 205.529 199.606L205.977 198.962C206.455 198.3 207.038 197.611 207.8 197.18L208.184 196.974C208.563 196.781 208.928 196.625 209.257 196.489C209.714 196.299 210.066 196.158 210.381 195.995L210.592 195.893C210.802 195.796 211.008 195.718 211.188 195.652C211.281 195.617 211.366 195.585 211.444 195.556L211.319 195.551C208.248 195.471 206.82 195.401 205.814 195.211L205.404 195.122C205.001 195.022 204.578 194.89 204.168 194.76C203.959 194.694 203.751 194.627 203.544 194.563L202.919 194.378C202.29 194.203 201.728 194.009 201.183 193.927C200.924 193.888 200.74 193.889 200.621 193.909C200.566 193.919 200.537 193.93 200.525 193.936C200.523 193.937 200.521 193.939 200.52 193.94H200.518C199.915 194.598 199.164 195.361 197.87 196.26L197.281 196.654C196.92 196.886 196.597 197.163 196.196 197.51C195.904 197.763 195.575 198.049 195.192 198.34L194.791 198.631C194.214 199.031 193.567 199.424 193.033 199.762C192.609 200.031 192.26 200.262 192.001 200.465L191.772 200.659C190.949 201.424 190.009 202.273 188.623 203.011L188.34 203.157C187.586 203.534 187.053 203.861 186.6 204.155C186.272 204.367 185.943 204.593 185.6 204.803L185.251 205.007C184.672 205.33 184.162 205.537 183.728 205.718C183.399 205.855 183.11 205.979 182.819 206.136L182.526 206.306C181.873 206.71 181.29 207.056 180.72 207.394C180.434 207.563 180.151 207.732 179.862 207.906L178.968 208.452C178.104 208.991 177.391 209.428 176.453 209.803L176.036 209.959C175.5 210.15 175.045 210.344 174.537 210.546C174.043 210.743 173.522 210.936 172.939 211.081C171.893 211.341 170.716 211.428 169.116 211.214L168.404 211.103C166.818 210.825 165.555 210.465 164.567 210.127L164.159 209.984C163.63 209.793 163.226 209.706 162.663 209.534C162.213 209.397 161.723 209.22 161.249 208.911L161.048 208.771C160.109 208.073 159.074 206.708 158.515 205.42L158.409 205.164C158.225 204.69 157.818 203.887 157.596 203.046C157.35 202.115 157.264 201.007 157.531 199.526L157.624 199.06C157.721 198.613 157.828 198.219 157.928 197.87C158.066 197.388 158.173 197.041 158.244 196.705L158.547 195.365C158.639 194.947 158.714 194.555 158.747 194.182L158.787 193.781C158.89 192.868 159.061 192.121 159.419 191.338L159.519 191.097C159.728 190.528 159.794 189.901 159.921 189.03L159.958 188.803C160.162 187.684 160.63 186.765 161.024 185.979L161.03 185.964L161.326 185.389C161.63 184.813 161.952 184.238 162.252 183.708L162.638 183.002C162.77 182.755 162.91 182.493 163.053 182.239C163.333 181.74 163.659 181.203 164.028 180.78L164.492 180.245C164.933 179.733 165.307 179.276 165.623 178.831L166.549 177.559C166.88 177.103 167.228 176.615 167.569 176.097L168.061 175.362C168.564 174.617 169.087 173.867 169.445 173.329L169.679 173.007C169.924 172.692 170.196 172.401 170.409 172.155C170.716 171.799 171.019 171.415 171.301 170.891L171.406 170.707C171.956 169.799 172.845 169.064 173.484 168.498L173.827 168.211C174.173 167.935 174.526 167.69 174.835 167.47C175.267 167.164 175.629 166.897 175.936 166.597L176.501 166.052C177.831 164.789 179.207 163.598 179.846 162.994L179.999 162.858C180.369 162.542 180.825 162.255 181.203 162.009C181.676 161.702 182.107 161.413 182.466 161.081L182.825 160.771C183.189 160.473 183.56 160.214 183.865 159.99C184.297 159.673 184.643 159.394 184.924 159.057L185.379 158.495C185.534 158.299 185.695 158.094 185.86 157.884C186.185 157.471 186.529 157.038 186.873 156.645L187.317 156.124C187.773 155.585 188.266 155.004 188.831 154.536L189.117 154.31C189.407 154.088 189.701 153.883 189.919 153.718C190.238 153.477 190.537 153.225 190.847 152.872L191.025 152.683C191.451 152.263 191.924 152.002 192.336 151.8C192.854 151.547 193.192 151.42 193.567 151.185L193.733 151.075C194.12 150.803 194.527 150.42 194.986 149.983C195.455 149.537 196.042 148.969 196.619 148.655L196.847 148.525C197.97 147.854 198.855 146.892 199.842 146.043L200.032 145.886C201.014 145.113 202.401 144.495 203.153 144.132L203.433 143.985C203.716 143.823 204.015 143.62 204.349 143.396C204.749 143.127 205.253 142.787 205.738 142.6L205.896 142.529C206.033 142.455 206.134 142.365 206.386 142.184C206.745 141.926 207.181 141.684 207.917 141.549L208.029 141.524C208.288 141.455 208.537 141.316 208.881 141.101C209.226 140.884 209.754 140.527 210.381 140.368L210.587 140.307C210.798 140.236 211.032 140.133 211.336 139.996C211.721 139.823 212.195 139.608 212.752 139.432L213.495 139.193C214.19 138.964 214.761 138.756 215.388 138.485L216.042 138.195C216.658 137.915 217.183 137.661 217.802 137.384L218.151 137.234C218.956 136.9 219.685 136.686 220.436 136.43L220.66 136.358C221.215 136.191 221.979 136.026 222.705 135.87C223.576 135.683 224.44 135.5 225.084 135.312L225.261 135.264C225.682 135.161 226.154 135.11 226.576 135.054C227.093 134.986 227.664 134.901 228.33 134.722L229.194 134.5C230.041 134.293 230.825 134.126 231.425 134.002L231.76 133.944ZM229.878 141.517L229.734 141.535C229.249 141.611 228.585 141.622 227.61 141.855L227.173 141.969C226.616 142.126 226.136 142.307 225.77 142.435C225.481 142.535 225.25 142.607 225.034 142.65L224.822 142.683C224.311 142.742 223.663 142.948 222.938 143.172C222.361 143.35 221.663 143.566 220.797 143.801L219.874 144.042C219.424 144.155 219.061 144.207 218.665 144.277C218.334 144.335 217.967 144.406 217.591 144.551L217.43 144.618C216.956 144.829 216.497 144.998 215.996 145.177C215.749 145.265 215.489 145.356 215.218 145.455L214.365 145.78C213.907 145.963 213.47 146.144 213.079 146.308L212.066 146.736C211.508 146.97 210.719 147.41 209.964 147.849L207.809 149.124C206.643 149.805 205.153 150.663 204.083 151.389L203.652 151.692C203.032 152.145 202.569 152.545 202.18 152.872C201.885 153.12 201.635 153.323 201.373 153.503L201.105 153.676C200.582 153.991 200.13 154.357 199.762 154.665C199.464 154.915 199.246 155.103 199.061 155.242L198.884 155.366C198.459 155.641 198.091 155.971 197.739 156.281C197.468 156.52 197.18 156.772 196.832 157.043L196.463 157.322C195.694 157.879 195.243 158.342 194.915 158.711C194.639 159.022 194.542 159.144 194.46 159.219L194.378 159.283C193.703 159.728 192.942 160.295 192.369 160.758L191.868 161.179C191.624 161.395 191.32 161.605 190.933 161.88C190.659 162.074 190.351 162.296 190.053 162.548L189.76 162.811C189.307 163.241 188.94 163.553 188.604 163.837C188.354 164.048 188.107 164.254 187.858 164.481L187.607 164.715C187.003 165.298 186.265 165.963 185.533 166.485L185.221 166.699C184.773 166.993 184.117 167.405 183.373 168.052L183.05 168.344C182.513 168.846 181.161 169.838 180.16 171.671L179.965 172.049C179.892 172.2 179.806 172.431 179.822 172.71C179.841 173.03 179.988 173.317 180.223 173.517C180.427 173.691 180.647 173.757 180.784 173.786C180.929 173.817 181.065 173.823 181.169 173.822C181.549 173.817 181.964 173.707 182.051 173.685L182.063 173.682L182.116 173.668L182.168 173.649C182.538 173.51 182.855 173.392 183.137 173.317L183.195 173.301L183.251 173.279C183.504 173.177 183.788 173.081 184.141 172.96C184.486 172.842 184.883 172.707 185.322 172.536L185.712 172.394C186.11 172.257 186.533 172.133 186.962 172.013C187.515 171.858 188.108 171.7 188.601 171.535L188.889 171.433C189.181 171.323 189.482 171.196 189.744 171.091C190.119 170.942 190.481 170.81 190.852 170.721L191.939 170.471C192.884 170.261 193.455 170.146 194.105 169.887L194.707 169.637C194.9 169.555 195.086 169.474 195.257 169.401C195.61 169.248 195.899 169.128 196.139 169.045L196.427 168.939C197.111 168.672 197.878 168.268 198.492 167.884L198.724 167.732C198.949 167.577 199.156 167.419 199.324 167.295C199.565 167.118 199.77 166.978 199.992 166.867L200.619 166.557C201.226 166.256 201.785 165.965 202.411 165.52L203.654 164.641C204.004 164.402 204.325 164.197 204.73 163.965L206.01 163.228C207.08 162.607 207.584 162.299 208.098 161.985L208.455 161.781C208.799 161.597 209.117 161.462 209.517 161.268C210.038 161.015 210.589 160.704 211.192 160.148L211.775 159.631C212.317 159.168 212.768 158.837 213.347 158.409L213.684 158.169C214.052 157.914 214.506 157.617 214.981 157.304C215.585 156.904 216.234 156.469 216.664 156.117L218.102 154.896C218.707 154.382 219.421 153.789 220.194 153.195L221.697 152.062C222.147 151.72 222.546 151.401 222.894 151.071L223.055 150.923C223.453 150.576 224.017 150.195 225.007 149.667L225.72 149.282C226.391 148.913 226.946 148.575 227.461 148.168L227.777 147.906C228.532 147.254 229.382 146.349 229.974 145.708L230.576 145.081C230.774 144.874 230.993 144.634 231.172 144.378C231.35 144.123 231.533 143.79 231.593 143.388C231.649 143.01 231.587 142.637 231.416 142.291L231.336 142.144L231.229 141.99C230.961 141.666 230.596 141.566 230.4 141.532C230.212 141.501 230.031 141.502 229.878 141.517Z" fill="#848484"/>
</svg>
