<svg width="18" height="18" viewBox="0 0 18 18" fill="none" xmlns="http://www.w3.org/2000/svg">
<path d="M7.98047 2.87939C8.22379 2.90354 8.45254 3.01162 8.62695 3.18604C8.82613 3.38527 8.93839 3.6553 8.93848 3.93701C8.93848 4.1837 8.85229 4.4217 8.69727 4.61084L8.62695 4.68896L5.37793 7.93701H15.1875C15.4693 7.93701 15.7402 8.04928 15.9395 8.24854L16.0098 8.32666C16.1646 8.51563 16.2499 8.7531 16.25 8.99951C16.25 9.24613 16.1647 9.48425 16.0098 9.67334L15.9395 9.75146C15.7402 9.95068 15.4693 10.062 15.1875 10.062H5.37793L8.62695 13.311L8.69727 13.3882C8.76339 13.4688 8.81738 13.5591 8.85742 13.6558C8.91075 13.7846 8.93844 13.9226 8.93848 14.062C8.93848 14.2016 8.91083 14.3403 8.85742 14.4692C8.81735 14.5659 8.76344 14.6562 8.69727 14.7368L8.62695 14.814C8.55304 14.8879 8.46877 14.9504 8.37695 14.9995L8.28223 15.0444C8.15329 15.0978 8.01457 15.1255 7.875 15.1255C7.77059 15.1254 7.66694 15.1097 7.56738 15.0796L7.46875 15.0444C7.37207 15.0044 7.28179 14.9504 7.20117 14.8843L7.12402 14.814L2.06152 9.75146C1.98757 9.67758 1.92516 9.59328 1.87598 9.50146L1.83105 9.40674C1.77759 9.27775 1.75 9.13914 1.75 8.99951L1.75488 8.89502C1.76515 8.79142 1.79107 8.68979 1.83105 8.59326L1.87598 8.49854C1.92514 8.40669 1.98758 8.32245 2.06152 8.24854L7.12402 3.18604L7.20215 3.11475C7.3911 2.96008 7.62868 2.87461 7.875 2.87451L7.98047 2.87939Z" fill="white" stroke="white"/>
</svg>
