<svg width="232" height="437" viewBox="0 0 232 437" fill="none" xmlns="http://www.w3.org/2000/svg">
<g clip-path="url(#clip0_105_271)">
<path d="M53.8188 103.048C53.8188 104.349 53.9535 105.65 54.223 106.951C53.9086 108.028 53.7738 109.15 53.684 110.272C50.6298 155.052 54.8069 199.697 66.0357 243.041C68.4163 252.285 71.6502 262.964 80.0943 271.579C80.5434 272.027 80.9477 272.386 81.3968 272.79C84.2714 275.168 87.8197 276.559 91.4579 276.783C95.4104 278.174 99.8121 278.174 103.765 276.559C113.332 272.745 120.922 266.419 126.492 261.842C162.559 232.138 195.931 201.851 225.755 171.698C230.112 167.301 231.819 160.885 230.202 154.962C229.797 153.526 229.213 152.18 228.54 150.969C231.684 131.45 231.324 112.111 231.01 93.3556C230.875 85.638 230.741 77.1128 229.079 68.3632C226.968 57.3252 222.701 47.2743 218.883 38.435C214.975 29.3264 210.978 19.9486 205.318 12.3656C205.318 12.3656 205.318 12.3656 205.318 12.3207C205.094 11.6477 204.779 11.0195 204.465 10.3465C203.342 8.14786 201.86 6.30819 200.063 4.82749C197.548 2.71861 194.449 1.32764 191.08 0.923814C178.953 -0.601762 169.251 5.32105 164.041 8.55168C130.759 29.0123 101.205 54.6779 72.6832 79.446L71.3807 80.5677C68.7307 82.9458 65.9459 85.3688 60.7357 89.2276C56.4239 92.4582 53.8188 97.6183 53.8188 103.048Z" fill="white"/>
<path d="M65.1866 109.152C62.0755 155.334 66.4019 202.002 77.9712 246.824C80.0615 254.934 82.5892 263.286 88.4711 269.259C87.3045 237.014 77.1934 205.741 74.5198 173.593C72.5268 149.895 74.5685 125.469 65.1866 109.152Z" fill="#028BD3"/>
<path d="M94.6446 244.542C95.4709 228.856 103.103 214.239 105.242 198.7C95.4223 212.588 90.9988 230.313 94.6446 244.542Z" fill="#028BD3"/>
<path d="M100.381 190.687C103.54 179.713 107.04 168.835 110.832 158.054C107.769 160.094 105.874 163.493 104.464 166.941C101.11 175.293 100.235 184.423 100.381 190.687Z" fill="#028BD3"/>
<path d="M90.6104 133.238C89.0062 140.716 88.034 148.389 87.7423 156.013C87.6451 158.344 87.7423 161.015 89.5409 162.617C92.2631 151.254 95.0339 139.794 90.6104 133.238Z" fill="#028BD3"/>
<path d="M76.7075 115.708C76.9506 121.438 77.1936 127.168 77.4367 132.898C77.5339 134.744 77.6311 136.637 78.4575 138.24C81.4228 130.519 82.2978 122.069 76.7075 115.708Z" fill="#028BD3"/>
<path d="M83.756 172.428C83.0269 181.46 82.2491 190.59 83.513 199.574C83.9019 202.487 84.5338 205.449 86.0893 207.975C87.6935 194.377 88.1796 180.635 83.756 172.428Z" fill="#028BD3"/>
<path d="M105.145 133.336C100.478 144.117 97.4155 155.626 96.0544 167.28C96.0058 167.815 96.2974 168.64 96.7835 168.349C96.9294 168.252 96.978 168.106 97.0752 167.912C101.353 156.063 105.388 144.068 105.145 133.336Z" fill="#028BD3"/>
<path d="M122.936 149.119C119.873 157.326 117.589 165.775 116.082 174.419C116.374 174.856 117.103 174.856 117.54 174.516C117.978 174.176 118.221 173.691 118.415 173.205C121.964 164.707 124.686 155.869 122.936 149.119Z" fill="#028BD3"/>
<path d="M88.6168 210.889C86.4293 216.911 85.4085 223.369 85.6029 229.828C85.6029 230.119 85.6515 230.459 85.8946 230.702C86.4779 231.236 87.2557 230.265 87.4501 229.537C89.3946 222.204 90.6584 214.726 88.6168 210.889Z" fill="#028BD3"/>
<path d="M192.547 9.60156C200.859 42.3319 209.22 75.3536 210.873 109.104C211.602 124.158 211.068 139.6 216.172 153.78C220.206 132.705 219.866 111.046 219.477 89.5821C219.331 81.6666 219.186 73.7026 217.727 65.9327C215.831 56.0748 211.845 46.7024 207.908 37.4758C203.29 26.7437 198.72 16.0117 192.547 9.60156Z" fill="#164193"/>
<path d="M146.464 143.631C150.985 128.092 155.943 112.649 161.387 97.4009C159.783 110.27 157.109 123.041 153.415 135.473C152.394 138.775 151.228 142.272 146.464 143.631Z" fill="#164193"/>
<path d="M172.179 80.5508C169.748 90.5544 167.269 100.607 166.199 110.853C167.949 109.299 168.776 106.968 169.456 104.734C172.081 96.1875 173.929 87.3979 172.179 80.5508Z" fill="#164193"/>
<path d="M188.366 29.6572C185.741 32.4252 184.186 36.0188 182.728 39.5152C178.887 48.5962 175.047 57.7743 173.103 67.438C172.714 69.4775 172.471 71.8085 173.783 73.411C182.436 58.1142 189.144 41.7004 188.366 29.6572Z" fill="#164193"/>
<path d="M192.547 55.5894C190.991 62.3879 189.533 69.1865 188.075 75.9851C187.637 78.1218 187.151 80.3556 187.394 82.5409C188.075 82.3952 188.415 81.6182 188.658 80.9384C192.061 71.2261 195.463 61.271 192.547 55.5894Z" fill="#164193"/>
<path d="M181.998 93.5166C179.567 101.238 177.137 109.056 176.456 117.166C176.262 119.303 176.262 121.537 177.185 123.479C177.671 123.333 178.012 122.848 178.255 122.362C183.553 112.504 184.039 100.849 181.998 93.5166Z" fill="#164193"/>
<path d="M158.519 155.384C159.054 144.312 161.727 133.337 166.297 123.285C167.901 131.443 164.498 139.698 163.575 147.954C163.186 151.402 163.137 155.141 158.519 155.384Z" fill="#164193"/>
<path d="M186.373 128.481C184.088 135.328 183.019 142.515 183.213 149.702C183.213 150.236 183.262 150.77 183.651 151.11C184.137 151.499 184.915 151.305 185.352 150.819C185.741 150.333 185.887 149.653 185.984 149.022C187.053 142.661 187.831 136.202 188.56 129.792C188.803 127.655 187.685 124.596 186.373 128.481Z" fill="#164193"/>
<path d="M204.311 108.472C202.075 117.796 200.179 127.265 198.575 136.735C198.332 138.046 198.137 139.454 198.769 140.668C199.984 139.163 200.713 137.318 201.345 135.472C204.116 127.508 205.963 119.204 204.311 108.472Z" fill="#164193"/>
<path d="M202.171 71.6157C199.692 82.7363 197.505 93.9054 195.657 105.172C195.414 106.58 195.366 108.425 196.678 109.105C201.15 97.0133 203.63 84.2417 202.171 71.6157Z" fill="#164193"/>
<path d="M201.005 159.753C203.338 151.012 206.012 142.32 209.123 133.821C210.338 142.562 208.734 151.74 204.554 159.51C204.408 159.753 204.262 159.996 204.019 160.044C203.727 160.142 203.436 159.802 201.005 159.753Z" fill="#164193"/>
<path d="M131.443 146.254C127.797 145.234 124.248 143.729 120.991 141.884C117.491 139.893 114.283 137.465 111.124 135.036C95.8597 123.43 80.6446 111.776 65.3808 100.169C72.5752 94.8277 76.0752 91.574 79.3807 88.7089C110.151 62.0002 141.068 35.1458 175.776 13.8273C180.977 10.6223 186.762 7.4658 192.789 8.19422C185.303 21.7914 177.769 35.4371 171.692 49.7627C157.984 81.9103 151.422 117.554 131.443 146.254ZM166.054 25.8705C159.88 31.7465 154.581 38.5936 150.45 46.0721C158.47 40.6818 162.894 33.5432 166.054 25.8705ZM94.0612 89.583C95.082 87.8834 96.1514 86.1837 96.5889 84.2413C90.8528 89.3888 86.3807 95.9446 83.6098 103.18C87.3043 100.461 90.707 95.0219 94.0612 89.583ZM104.755 96.0417C112.873 77.7341 123.811 64.6225 134.602 51.7052C119.971 62.3887 110.686 78.9481 104.755 96.0417ZM132.561 71.761C133.727 68.7017 134.602 65.5452 134.262 65.9337C131.005 70.0128 128.575 74.7718 127.214 79.8222C129.839 77.8312 131.394 74.8204 132.561 71.761ZM114.721 105.948C117.589 101.189 119.728 95.8474 120.068 90.3115C118.561 92.0597 117.394 94.0021 116.276 95.9931C113.019 101.529 109.811 107.065 106.554 112.65C108.207 114.932 111.804 110.707 114.721 105.948ZM139.172 85.5039C145.443 78.5596 149.963 70.1099 153.658 61.3689C146.95 68.0704 142.477 76.6657 139.172 85.5039ZM125.221 133.822C132.998 126.295 138.977 113.572 141.554 100.169C134.408 110.513 128.915 121.876 125.221 133.822Z" fill="#164193"/>
<path d="M113.213 257.363C107.137 262.365 100.866 267.415 93.5747 270.329C95.0817 256.586 99.4566 243.329 103.832 230.169C113.408 201.42 122.984 172.623 132.561 143.875C152.928 150.139 176.845 158.88 201.831 159.657C207.664 159.852 213.643 159.609 219.282 161.114C185.692 195.059 150.109 227.012 113.213 257.363ZM168.727 163.882C167.852 167.67 167.171 171.506 166.685 175.343C166.588 176.071 166.685 176.994 167.414 177.14C170.526 172.381 172.275 166.699 168.727 163.882ZM155.456 160.532C152.977 166.068 151.665 172.089 151.616 178.159C155.359 171.798 157.838 164.756 155.456 160.532ZM131.199 187.823C131.686 182.384 134.067 177.382 136.012 172.283C138.394 166.019 140.192 159.512 138.88 155.287C136.061 163.931 133.581 172.72 131.394 181.559C130.859 183.598 130.373 185.832 131.199 187.823ZM113.408 225.847C117.929 218.854 119.436 210.404 119.436 201.906C116.665 209.287 114.137 216.668 111.707 224.195C111.561 224.681 111.366 225.215 111.512 225.749C111.609 226.284 112.144 226.721 112.679 226.575C113.019 226.429 113.213 226.138 113.408 225.847ZM131.977 220.359C132.463 220.262 132.658 219.728 132.804 219.242C134.797 212.735 136.79 206.179 138.831 199.672C139.269 198.215 139.706 196.758 139.852 195.301C139.463 195.156 138.977 195.399 138.491 194.185C135.283 201.226 132.609 208.559 130.567 216.037C130.179 217.494 129.936 219.485 131.297 220.213C131.442 220.359 131.734 220.408 131.977 220.359ZM108.595 253.332C114.186 246.388 118.658 238.57 121.818 230.266C113.797 235.996 110.783 246.339 108.595 253.332ZM148.31 219.048C150.644 212.055 152.928 205.062 155.262 198.069C156.963 192.922 158.664 187.58 157.644 184.035C154.921 192.728 152.199 201.42 149.428 210.064C148.505 213.026 147.581 216.134 148.31 219.048ZM166.296 197.195C165.81 198.555 165.373 200.158 166.248 201.275C167.123 201.275 167.657 200.4 167.998 199.575C170.088 194.573 171.546 189.28 169.894 187.046C168.678 190.445 167.463 193.845 166.296 197.195ZM180.977 189.96C184.039 186.852 186.178 182.918 188.22 179.033C189.484 176.654 190.748 174.226 190.991 171.555C191.234 168.836 190.31 165.97 187.734 168.059C185.109 175.197 182.824 182.53 180.977 189.96Z" fill="#028BD3"/>
<path d="M76.0972 290.11C72.5938 312.186 65.3624 333.634 54.8073 353.332C61.9039 350.281 66.8895 343.685 70.3031 336.73C78.6574 319.724 79.4209 300.071 76.0972 290.11Z" fill="white"/>
<path d="M97.1625 286.072C101.025 301.462 102.058 317.57 100.262 333.365C99.7676 337.627 99.0939 341.89 98.7794 346.197C101.789 338.973 104.843 331.704 106.55 324.077C108.257 316.449 108.571 308.327 106.235 300.879C103.81 293.296 98.6447 286.52 97.1625 286.072Z" fill="white"/>
<path d="M110.143 269.605C119.8 278.893 127.391 290.29 132.286 302.719C132.735 296.571 132.96 290.11 130.13 284.636C128.873 282.258 127.121 280.194 125.369 278.13C119.935 271.803 113.736 265.073 110.143 269.605Z" fill="white"/>
<path d="M118.407 391.875C107.852 382.497 102.103 367.914 103.406 353.87C104.259 344.806 107.807 336.236 109.829 327.397C114.006 309 111.311 289.168 102.418 272.566C114.994 276.514 122.046 291.815 121.911 307.205C121.821 314.968 120.024 322.596 118.497 330.224C116.701 338.928 115.174 347.857 116.162 356.697C117.15 365.536 120.923 374.42 127.974 379.85C124.785 383.798 121.596 387.836 118.407 391.875ZM114.545 329.192C115.533 327.128 116.97 322.91 117.734 318.557C118.497 314.205 118.542 309.628 117.24 305.411C116.072 313.308 115.174 321.25 114.545 329.192ZM117.644 383.933C116.476 377.202 111.311 370.203 109.245 362.036C108.257 358.133 107.987 354.05 107.763 350.011C106.505 362.036 110.143 374.465 117.644 383.933Z" fill="white"/>
<path d="M37.0208 323.673C34.3708 325.647 29.8792 325.557 28.3072 322.641C26.9148 319.993 28.4869 316.808 29.9691 314.205C36.3021 302.808 40.5691 290.245 48.1149 279.611C55.6607 268.976 67.7879 260.182 77.2201 262.605C68.7311 266.105 61.4099 272.342 56.5141 280.104C53.2802 285.219 51.1691 290.963 49.0581 296.616C46.7225 302.853 44.4318 309.09 42.0962 315.327C40.9734 318.423 39.7157 321.698 37.0208 323.673ZM39.0869 313.487C40.4793 309 41.8717 304.468 43.264 299.981C39.4462 306.577 36.4369 313.577 34.236 320.891C37.2903 319.32 38.2335 316.359 39.0869 313.487Z" fill="white"/>
<path d="M10.1614 400.266C5.22066 400.266 0.684206 396.093 0.235052 391.202C-0.214102 385.863 3.55879 381.151 7.10711 377.113C15.5961 367.511 24.0402 357.953 32.5292 348.351C40.6589 339.153 48.9683 329.596 52.5615 317.885C54.5827 311.334 54.9869 304.424 56.6937 297.783C60.4666 283.335 70.7073 270.682 84.0921 263.996C79.1065 272.476 71.3811 284.771 67.3836 298.187C64.1946 308.866 63.2963 320.263 58.7598 330.448C52.5615 344.403 40.3445 354.588 30.508 366.254C21.9741 376.395 15.0571 387.927 10.1614 400.266ZM56.1547 326.186C53.7742 329.192 51.4835 332.288 49.2378 335.384C46.6776 338.974 44.2522 342.608 42.4555 345.839C48.6539 340.634 53.37 333.769 56.1547 326.186ZM6.16388 395.33C5.98422 392.907 6.47829 391.382 7.01727 389.946C9.39779 383.709 12.8563 377.831 17.1681 372.716C13.9342 375.767 10.5207 378.773 8.18507 382.587C5.84946 386.356 4.63676 391.112 6.16388 395.33Z" fill="white"/>
<path d="M69.7641 430.777C65.0929 433.066 60.3768 435.354 55.3462 436.655C56.2445 420.637 57.1429 404.663 58.0861 388.645C58.4903 381.824 58.8946 374.869 60.8259 368.318C66.081 350.64 82.1158 337.224 85.5294 319.096C87.1464 310.616 85.8438 301.911 85.754 293.296C85.6642 284.681 87.0565 275.393 92.9854 269.111C87.2362 287.014 97.7913 309.629 92.3566 329.865C88.943 342.563 79.6455 352.838 74.7048 365.043C66.7997 384.516 70.7972 406.458 72.0099 427.457C72.0548 427.995 72.0548 428.534 71.8751 429.027C71.4709 429.88 70.5726 430.373 69.7641 430.777ZM67.4734 382.183C67.8776 371.998 70.8421 361.947 76.0523 353.152C72.7734 354.992 70.8421 358.537 69.4497 361.992C67.0243 367.915 65.542 374.331 67.4734 382.183ZM59.5683 430.104C62.398 422.611 62.937 413.592 62.1285 404.708C60.6463 413.099 59.7929 421.579 59.5683 430.104Z" fill="white"/>
</g>
<defs>
<clipPath id="clip0_105_271">
<rect width="231" height="436" fill="white" transform="matrix(-1 -8.74228e-08 -8.74228e-08 1 231.19 0.655273)"/>
</clipPath>
</defs>
</svg>
