<svg width="1080" height="290" viewBox="0 0 1080 290" fill="none" xmlns="http://www.w3.org/2000/svg">
<g clip-path="url(#clip0_105_203)">
<path d="M434.29 32.4308L431.04 27.8148L384.747 67.796L389.499 74.3612C403.729 95.7558 420.155 115.707 438.412 133.778C439.652 135.014 441.759 136.23 442.927 134.938C443.377 134.425 443.465 133.689 443.516 133.016C444.392 124.052 445.247 115.076 446.123 106.112C446.339 103.792 446.922 100.981 449.121 100.214C450.117 99.8758 451.197 100.05 452.218 100.204C464.233 102.026 476.7 100.752 488.065 96.495C471.711 73.8881 453.715 52.4692 434.29 32.4308Z" fill="white"/>
<path d="M447.379 91.1858L445.656 91.7366C443.008 92.6243 440.351 93.942 439.081 96.3843C438.127 98.2077 438.117 100.366 438.118 102.432C438.169 109.402 438.215 116.355 438.261 123.308C424.54 110.862 412.127 96.9797 401.268 81.9856C398.379 77.9853 395.063 73.6542 392.086 72.1182L422.311 46.098L433.225 33.6428C443.022 54.9784 459.952 72.3539 476.518 89.1679C466.814 87.7242 456.791 88.4145 447.379 91.1858Z" fill="#164193"/>
<path d="M415.691 158.749C401.284 135.496 386.88 112.259 372.489 89.0014L369.004 82.3106L358.382 91.2673L315.067 106.133L318.603 117.335C327.055 144.821 341.166 170.559 359.804 192.447C362.574 179.181 366.102 166.086 370.347 153.209C377.581 153.213 384.797 154.414 391.611 156.775C398.656 159.198 405.593 162.88 413.029 162.509C414.467 162.426 416.293 161.794 416.315 160.346C416.317 159.757 416 159.236 415.691 158.749Z" fill="white"/>
<path d="M396.549 148.344L394.782 147.731C384.87 144.383 374.204 143.268 363.82 144.608C363.032 156.024 361.098 167.356 358.027 178.369C344.668 162.085 333.848 143.714 326.106 124.126C324.789 120.809 323.441 117.304 321.718 115.129L321.245 114.561L353.962 104.69L356.624 102.659L370.041 91.1004C371.773 100.025 376.614 108.383 381.492 116.215C389.102 128.463 397.069 140.509 405.361 152.307C402.53 150.785 399.573 149.458 396.549 148.344Z" fill="#6CC1B9"/>
<path d="M250.738 128.537L221.994 136.613L223.949 143.91C228.887 165.995 236.694 187.418 247.15 207.491C251.122 215.137 255.565 222.676 261.781 228.653C264.842 219.068 269.62 210.039 275.856 202.133C277.401 200.186 279.217 198.186 281.659 197.727C283.814 197.328 285.984 198.243 287.99 199.148C297.377 203.332 306.764 207.515 316.138 211.719C309.708 181.803 303.273 151.871 296.843 121.955L294.86 113.294L250.738 128.537Z" fill="white"/>
<path d="M291.561 139.474C294.592 158.632 298.976 177.588 304.673 196.121C303.314 193.047 299.326 192.387 295.961 192.131C290.165 191.707 284.385 191.278 278.593 190.87C277.268 190.78 275.872 190.691 274.706 191.324C273.804 191.815 273.18 192.677 272.564 193.501C267.537 200.406 262.487 207.353 258.877 215.09C245.883 193.257 235.568 169.852 228.218 145.545C227.939 144.639 227.657 143.717 227.338 142.859L271.658 129.487L273.751 128.855L291.073 123.625C290.09 128.734 290.739 134.279 291.561 139.474Z" fill="#69B32D"/>
<path d="M53.4018 159.501L53.294 165.747C47.1385 195.098 41.9204 225.089 46.3603 254.291C51.9709 242.918 59.8516 232.505 69.4347 223.791C78.7851 236.482 89.551 248.205 101.519 258.697C103.593 229.14 107.692 199.627 113.767 170.44L115.17 162.048L53.4018 159.501Z" fill="white"/>
<path d="M105.069 188.109C100.466 205.304 97.8029 222.888 97.1556 240.484C95.0986 239.789 93.9756 237.791 92.9226 235.989C88.0589 227.744 80.9045 220.789 72.3627 215.97C71.7981 215.658 71.1581 215.331 70.5132 215.45C69.764 215.58 69.2283 216.24 68.7624 216.828C62.8461 224.666 56.9419 232.483 51.0256 240.321C52.4853 218.909 55.795 197.553 60.9008 176.518C61.6265 173.509 62.4098 170.448 62.3918 167.389L86.1141 171.686L99.1896 171.086L101.884 170.97L111.139 170.539C108.521 176.193 106.664 182.159 105.069 188.109Z" fill="#008AD1"/>
<path d="M129.552 161.668L130.079 169.686C130.234 172.192 130.41 174.71 130.619 177.219C132.713 204.181 137.207 231.124 148.044 255.815C148.509 256.884 149.285 258.119 150.427 257.991C151.173 257.916 151.696 257.277 152.162 256.689C158.466 248.569 164.787 240.444 171.107 232.32C173.15 229.706 175.445 226.9 178.693 226.19C181.554 225.566 184.462 226.71 187.169 227.838C196.816 231.862 206.446 235.891 216.089 239.898C208.812 210.744 203.089 181.209 198.911 151.456L197.416 143.751L129.552 161.668Z" fill="white"/>
<path d="M203.767 223.497C195.153 221.334 186.21 220.47 177.361 220.953C174.85 221.091 172.188 221.395 170.262 222.98C169.171 223.896 168.411 225.115 167.684 226.325C162.753 234.451 157.839 242.573 152.904 250.683C146.589 227.114 142.102 203.055 139.503 178.793C139.182 175.869 137.295 169.355 137.295 169.355L139.935 169.236L195.464 152.486C193.909 176.4 196.72 200.588 203.767 223.497Z" fill="#E7490F"/>
<path d="M148.523 166.649L143.776 168.082C144.653 179.996 145.829 192.098 150.985 202.83C149.556 191.847 148.11 180.798 148.621 169.741C148.666 168.713 148.719 167.648 148.523 166.649Z" fill="white"/>
<path d="M93.8439 208.379C94.7725 206.26 95.3861 204.029 95.9997 201.798C98.2975 193.487 100.612 185.171 102.91 176.859C103.465 174.875 104.01 172.788 101.889 170.987L99.194 171.103C95.6826 183.196 93.8743 195.794 93.8439 208.379Z" fill="white"/>
<path d="M369.049 127.886C365.285 119.293 361.496 110.67 356.629 102.675L353.95 104.711C357.744 113.154 362.856 120.995 369.049 127.886Z" fill="white"/>
<path d="M277.86 146.584C277.951 146.791 278.064 147.011 278.282 147.095C278.815 147.29 279.082 146.489 279.055 145.925C278.683 139.416 277.205 132.971 273.76 128.888L271.667 129.521C273.318 135.349 275.38 141.049 277.86 146.584Z" fill="white"/>
<path d="M442.321 29.6909C441.234 28.6281 440.039 27.5588 438.774 27.292L436.755 29.5967C443.568 35.0753 448.733 42.3848 455.214 48.2905C452.097 41.3765 447.691 35.0393 442.321 29.6909Z" fill="white"/>
<path d="M192.924 207.431C191.372 199.777 189.802 192.056 186.912 184.796C187.24 193.865 188.782 202.876 191.511 211.533C193.805 211.916 193.37 209.627 192.924 207.431Z" fill="white"/>
<path d="M168.1 194.503C167.414 186.689 166.069 178.943 162.108 172.54C163.086 179.315 164.094 186.135 166.468 192.536C166.767 193.382 167.233 194.326 168.1 194.503Z" fill="white"/>
<path d="M158.333 232.981C159.64 230.743 160.112 227.054 159.758 223.407C159.417 219.74 158.187 216.079 155.74 213.332C155.38 219.966 156.27 226.676 158.333 232.981Z" fill="white"/>
<path d="M63.9351 194.624C67.9042 187.895 69.5594 179.845 66.1627 176.675C65.4283 182.644 64.6817 188.634 63.9351 194.624Z" fill="white"/>
<path d="M61.0048 207.024C59.7554 212.4 58.8829 217.854 58.3996 223.363C60.4695 222.844 61.1673 219.664 62.1602 216.655C62.8671 214.506 63.7457 212.4 64.2009 210.176C64.6394 207.956 64.5988 205.544 63.5301 203.55C62.0063 203.781 61.3555 205.54 61.0048 207.024Z" fill="white"/>
<path d="M84.2683 203.89C83.067 209.645 82.695 215.57 83.1442 221.436C84.9144 217.737 85.8405 214.478 86.3187 211.143C86.7969 207.809 86.8215 204.31 85.542 201.197C84.7679 201.832 84.481 202.889 84.2683 203.89Z" fill="white"/>
<path d="M252.241 190.057C252.862 191.245 253.559 192.519 254.779 193.083C245.438 177.433 241.397 159.293 235.854 145.654C237.468 161.451 244.92 175.968 252.241 190.057Z" fill="white"/>
<path d="M295.371 182.883C295.506 181.725 295.287 180.572 295.034 179.429C293.206 171.011 290.301 162.829 286.373 155.152C287.624 164.473 289.748 173.666 292.724 182.577C293.765 185.665 295.232 184.025 295.371 182.883Z" fill="white"/>
<path d="M253.229 166.153C253.759 167.4 254.534 168.832 255.886 169.022C253.489 158.281 250.168 147.751 244.424 140.739C247.056 149.298 249.701 157.906 253.229 166.153Z" fill="white"/>
<path d="M272.8 172.043C274.203 177.083 276.047 181.969 277.874 186.859C279.715 180.897 277.074 173.303 272.708 166.848C271.908 168.452 272.324 170.336 272.8 172.043Z" fill="white"/>
<path d="M336.916 137.013C341.037 147.47 346.77 157.3 353.793 166.089C356.538 167.028 355.973 165.915 355.408 164.872C350.121 155.048 343.912 145.702 336.916 137.013Z" fill="white"/>
<path d="M348.118 114.861C347.242 113.652 346.274 112.433 343.77 114.921C346.254 119.938 349.48 124.597 353.318 128.681C353.764 129.149 354.553 129.633 354.97 129.129C355.244 128.824 355.115 128.342 354.98 127.969C353.336 123.296 351.012 118.877 348.118 114.861Z" fill="white"/>
<path d="M418.076 95.0469C422.74 101.885 427.533 108.867 434.218 113.738C434.234 110.474 432.004 107.669 429.764 105.294C425.816 101.132 421.462 97.3816 418.076 95.0469Z" fill="white"/>
<path d="M429.797 46.4434C428.206 45.1595 426.056 44.3818 425.441 49.0712C432.602 56.6476 440.322 63.718 448.503 70.1837C443.123 64.1968 438.161 57.8481 433.662 51.1618C432.532 49.4695 431.388 47.7273 429.797 46.4434Z" fill="white"/>
<path d="M465.153 85.7817C461.696 80.5263 457.212 75.9561 453.141 76.3877C455.669 79.3087 458.469 81.9789 461.502 84.3906C462.56 85.2118 463.843 86.0793 465.153 85.7817Z" fill="white"/>
<path d="M410.505 67.3247C408.731 65.0923 406.78 62.7292 403.744 65.8941C408.984 73.9495 415.814 80.9555 423.728 86.4239C420.173 79.5381 415.324 73.4087 410.505 67.3247Z" fill="white"/>
<path d="M8.99976 163.062C18.9474 165.349 28.9965 167.216 39.1005 168.624C33.6297 163.499 21.1355 161.68 8.99976 163.062Z" fill="white"/>
<path d="M107.954 237.77C110.027 233.74 111.516 225.931 111.622 218.082C111.652 215.205 111.486 212.257 110.24 209.669C108.497 218.919 107.729 228.353 107.954 237.77Z" fill="white"/>
<path d="M278.906 202.544C277.942 203.337 277.221 204.367 276.516 205.393C274.324 208.582 272.128 211.753 270.083 215.027C271.457 216.565 273.881 213.974 275.881 211.068C278.277 207.576 280.133 203.534 283.559 201.03C281.892 200.924 280.186 201.471 278.906 202.544Z" fill="white"/>
<path d="M334.668 164.925C339.4 174.008 345.605 182.339 350.299 185.428C345.181 177.696 340.042 169.952 334.924 162.221C333.935 162.521 334.19 164.003 334.668 164.925Z" fill="white"/>
<path d="M358.738 86.4161C366.554 80.8125 373.274 73.8457 379.953 66.9255C367.335 76.6128 350.269 87.6522 332.282 96.979C341.865 96.246 350.923 92.0197 358.738 86.4161Z" fill="white"/>
<path d="M436.773 77.5311C435.19 76.0133 433.608 74.4955 431.801 73.2695C435.901 79.7955 440.546 85.9618 445.656 91.7361L447.384 91.202C446.006 86.4584 441.359 81.9493 436.773 77.5311Z" fill="white"/>
<path d="M381.068 125.806C385.385 133.271 389.961 140.578 394.782 147.731L396.549 148.344C394.082 141.131 388.044 133.022 381.068 125.806Z" fill="white"/>
<path d="M353.962 104.691L356.624 102.659L370.062 91.1129L372.494 89.0183L389.499 74.3611L392.091 72.1345L422.311 46.0977L433.225 33.6424L436.755 29.5968L438.774 27.2922L461.946 0.810527L358.386 91.2842L250.738 128.537L128.765 162.787L-1.26848 155.854L53.294 165.747L62.3962 167.406L86.1186 171.702L99.1941 171.103L101.905 170.982L111.16 170.551L113.75 170.445L130.096 169.681L137.065 169.364L139.951 169.232L143.776 168.082L148.523 166.65L195.464 152.487L198.911 151.456L223.949 143.91L227.359 142.871L271.667 129.52L273.76 128.888L291.082 123.659L296.834 121.922L318.03 115.53L321.245 114.562L353.962 104.691Z" fill="white"/>
</g>
<g clip-path="url(#clip1_105_203)">
<path d="M651.652 32.4308L654.902 27.8148L701.195 67.796L696.443 74.3612C682.213 95.7558 665.787 115.707 647.53 133.778C646.291 135.014 644.183 136.23 643.015 134.938C642.565 134.425 642.477 133.689 642.426 133.016C641.55 124.052 640.695 115.076 639.819 106.112C639.603 103.792 639.02 100.981 636.821 100.214C635.825 99.8758 634.745 100.05 633.724 100.204C621.709 102.026 609.242 100.752 597.877 96.495C614.231 73.8881 632.227 52.4692 651.652 32.4308Z" fill="white"/>
<path d="M638.563 91.1858L640.286 91.7366C642.934 92.6243 645.591 93.942 646.861 96.3843C647.815 98.2077 647.825 100.366 647.823 102.432C647.773 109.402 647.727 116.355 647.681 123.308C661.402 110.862 673.815 96.9797 684.674 81.9856C687.562 77.9853 690.879 73.6542 693.855 72.1182L663.631 46.098L652.716 33.6428C642.92 54.9784 625.99 72.3539 609.424 89.1679C619.128 87.7242 629.151 88.4145 638.563 91.1858Z" fill="#164193"/>
<path d="M670.251 158.749C684.658 135.496 699.061 112.259 713.452 89.0014L716.938 82.3106L727.56 91.2673L770.874 106.133L767.338 117.335C758.887 144.821 744.776 170.559 726.138 192.447C723.368 179.181 719.84 166.086 715.595 153.209C708.361 153.213 701.145 154.414 694.331 156.775C687.286 159.198 680.349 162.88 672.913 162.509C671.475 162.426 669.649 161.794 669.627 160.346C669.624 159.757 669.942 159.236 670.251 158.749Z" fill="white"/>
<path d="M689.393 148.344L691.16 147.731C701.071 144.383 711.738 143.268 722.121 144.608C722.91 156.024 724.844 167.356 727.915 178.369C741.274 162.085 752.094 143.714 759.836 124.126C761.152 120.809 762.501 117.304 764.224 115.129L764.697 114.561L731.98 104.69L729.318 102.659L715.901 91.1004C714.169 100.025 709.328 108.383 704.45 116.215C696.84 128.463 688.873 140.509 680.581 152.307C683.412 150.785 686.369 149.458 689.393 148.344Z" fill="#6CC1B9"/>
<path d="M835.203 128.537L863.948 136.613L861.993 143.91C857.055 165.995 849.248 187.418 838.792 207.491C834.819 215.137 830.376 222.676 824.161 228.653C821.1 219.068 816.322 210.039 810.086 202.133C808.541 200.186 806.725 198.186 804.283 197.727C802.127 197.328 799.958 198.243 797.952 199.148C788.565 203.332 779.178 207.515 769.804 211.719C776.234 181.803 782.669 151.871 789.099 121.955L791.081 113.294L835.203 128.537Z" fill="white"/>
<path d="M794.381 139.474C791.35 158.632 786.965 177.588 781.269 196.121C782.627 193.047 786.616 192.387 789.981 192.131C795.777 191.707 801.557 191.278 807.349 190.87C808.674 190.78 810.069 190.691 811.236 191.324C812.138 191.815 812.762 192.677 813.378 193.501C818.404 200.406 823.455 207.353 827.065 215.09C840.058 193.257 850.374 169.852 857.724 145.545C858.002 144.639 858.285 143.717 858.604 142.859L814.284 129.487L812.191 128.855L794.869 123.625C795.851 128.734 795.203 134.279 794.381 139.474Z" fill="#69B32D"/>
<path d="M1032.54 159.501L1032.65 165.747C1038.8 195.098 1044.02 225.089 1039.58 254.291C1033.97 242.918 1026.09 232.505 1016.51 223.791C1007.16 236.482 996.391 248.205 984.423 258.697C982.349 229.14 978.25 199.627 972.175 170.44L970.772 162.048L1032.54 159.501Z" fill="white"/>
<path d="M980.873 188.109C985.475 205.304 988.139 222.888 988.786 240.484C990.843 239.789 991.966 237.791 993.019 235.989C997.883 227.744 1005.04 220.789 1013.58 215.97C1014.14 215.658 1014.78 215.331 1015.43 215.45C1016.18 215.58 1016.71 216.24 1017.18 216.828C1023.1 224.666 1029 232.483 1034.92 240.321C1033.46 218.909 1030.15 197.553 1025.04 176.518C1024.32 173.509 1023.53 170.448 1023.55 167.389L999.828 171.686L986.752 171.086L984.058 170.97L974.803 170.539C977.421 176.193 979.278 182.159 980.873 188.109Z" fill="#008AD1"/>
<path d="M956.39 161.668L955.863 169.686C955.708 172.192 955.532 174.71 955.323 177.219C953.229 204.181 948.735 231.124 937.897 255.815C937.433 256.884 936.657 258.119 935.515 257.991C934.769 257.916 934.246 257.277 933.78 256.689C927.476 248.569 921.155 240.444 914.835 232.32C912.792 229.706 910.497 226.9 907.249 226.19C904.388 225.566 901.48 226.71 898.773 227.838C889.126 231.862 879.496 235.891 869.853 239.898C877.13 210.744 882.853 181.209 887.031 151.456L888.525 143.751L956.39 161.668Z" fill="white"/>
<path d="M882.175 223.497C890.789 221.334 899.732 220.47 908.581 220.953C911.091 221.091 913.754 221.395 915.68 222.98C916.771 223.896 917.531 225.115 918.258 226.325C923.188 234.451 928.102 242.573 933.037 250.683C939.353 227.114 943.84 203.055 946.439 178.793C946.76 175.869 948.647 169.355 948.647 169.355L946.007 169.236L890.478 152.486C892.033 176.4 889.222 200.588 882.175 223.497Z" fill="#E7490F"/>
<path d="M937.419 166.649L942.166 168.082C941.289 179.996 940.113 192.098 934.957 202.83C936.385 191.847 937.832 180.798 937.321 169.741C937.276 168.713 937.222 167.648 937.419 166.649Z" fill="white"/>
<path d="M992.098 208.378C991.169 206.259 990.556 204.028 989.942 201.797C987.644 193.486 985.33 185.17 983.032 176.858C982.477 174.874 981.932 172.787 984.053 170.986L986.748 171.102C990.259 183.195 992.067 195.793 992.098 208.378Z" fill="white"/>
<path d="M716.893 127.886C720.657 119.293 724.445 110.67 729.313 102.675L731.992 104.711C728.198 113.154 723.086 120.995 716.893 127.886Z" fill="white"/>
<path d="M808.082 146.584C807.99 146.791 807.878 147.011 807.66 147.095C807.126 147.29 806.86 146.489 806.886 145.925C807.259 139.416 808.736 132.971 812.182 128.888L814.275 129.521C812.624 135.349 810.562 141.049 808.082 146.584Z" fill="white"/>
<path d="M643.621 29.6909C644.707 28.6281 645.902 27.5588 647.167 27.292L649.187 29.5967C642.374 35.0753 637.209 42.3848 630.728 48.2905C633.845 41.3765 638.251 35.0393 643.621 29.6909Z" fill="white"/>
<path d="M893.018 207.43C894.57 199.776 896.14 192.055 899.03 184.795C898.702 193.864 897.16 202.875 894.431 211.532C892.137 211.915 892.572 209.626 893.018 207.43Z" fill="white"/>
<path d="M917.841 194.503C918.528 186.689 919.873 178.943 923.833 172.54C922.855 179.315 921.847 186.135 919.473 192.536C919.175 193.382 918.708 194.326 917.841 194.503Z" fill="white"/>
<path d="M927.608 232.98C926.302 230.742 925.83 227.053 926.183 223.406C926.525 219.739 927.755 216.078 930.201 213.331C930.561 219.965 929.672 226.675 927.608 232.98Z" fill="white"/>
<path d="M1022.01 194.624C1018.04 187.895 1016.38 179.845 1019.78 176.675C1020.51 182.644 1021.26 188.634 1022.01 194.624Z" fill="white"/>
<path d="M1024.94 207.024C1026.19 212.4 1027.06 217.854 1027.54 223.363C1025.47 222.844 1024.77 219.664 1023.78 216.655C1023.07 214.506 1022.2 212.4 1021.74 210.176C1021.3 207.956 1021.34 205.544 1022.41 203.55C1023.94 203.781 1024.59 205.54 1024.94 207.024Z" fill="white"/>
<path d="M1001.67 203.89C1002.87 209.645 1003.25 215.57 1002.8 221.436C1001.03 217.737 1000.1 214.478 999.623 211.143C999.145 207.809 999.12 204.31 1000.4 201.197C1001.17 201.832 1001.46 202.889 1001.67 203.89Z" fill="white"/>
<path d="M833.701 190.057C833.08 191.245 832.382 192.519 831.162 193.083C840.504 177.433 844.545 159.293 850.088 145.654C848.474 161.451 841.021 175.968 833.701 190.057Z" fill="white"/>
<path d="M790.57 182.883C790.435 181.725 790.655 180.572 790.908 179.429C792.736 171.011 795.641 162.829 799.569 155.152C798.318 164.473 796.193 173.666 793.218 182.577C792.176 185.665 790.71 184.025 790.57 182.883Z" fill="white"/>
<path d="M832.713 166.153C832.183 167.4 831.408 168.832 830.056 169.022C832.453 158.281 835.774 147.751 841.518 140.739C838.886 149.298 836.241 157.906 832.713 166.153Z" fill="white"/>
<path d="M813.142 172.042C811.738 177.082 809.895 181.968 808.068 186.858C806.227 180.896 808.868 173.302 813.234 166.847C814.033 168.451 813.617 170.335 813.142 172.042Z" fill="white"/>
<path d="M749.026 137.013C744.905 147.47 739.172 157.3 732.149 166.089C729.404 167.028 729.969 165.915 730.533 164.872C735.82 155.048 742.03 145.702 749.026 137.013Z" fill="white"/>
<path d="M737.824 114.861C738.7 113.652 739.668 112.433 742.172 114.921C739.688 119.938 736.462 124.597 732.624 128.681C732.178 129.149 731.389 129.633 730.972 129.129C730.698 128.824 730.827 128.342 730.962 127.969C732.606 123.296 734.93 118.877 737.824 114.861Z" fill="white"/>
<path d="M667.866 95.0469C663.201 101.885 658.409 108.867 651.724 113.738C651.708 110.474 653.938 107.669 656.178 105.294C660.125 101.132 664.479 97.3816 667.866 95.0469Z" fill="white"/>
<path d="M656.145 46.4434C657.736 45.1595 659.886 44.3818 660.5 49.0712C653.34 56.6476 645.62 63.718 637.439 70.1837C642.819 64.1968 647.781 57.8481 652.28 51.1618C653.41 49.4695 654.554 47.7273 656.145 46.4434Z" fill="white"/>
<path d="M620.789 85.7817C624.246 80.5263 628.73 75.9561 632.801 76.3877C630.273 79.3087 627.473 81.9789 624.439 84.3906C623.382 85.2118 622.099 86.0793 620.789 85.7817Z" fill="white"/>
<path d="M675.437 67.3247C677.211 65.0923 679.162 62.7292 682.198 65.8941C676.957 73.9495 670.128 80.9555 662.214 86.4239C665.769 79.5381 670.618 73.4087 675.437 67.3247Z" fill="white"/>
<path d="M1076.94 163.062C1066.99 165.349 1056.95 167.216 1046.84 168.624C1052.31 163.499 1064.81 161.68 1076.94 163.062Z" fill="white"/>
<path d="M977.988 237.769C975.914 233.739 974.426 225.93 974.32 218.081C974.289 215.204 974.456 212.256 975.702 209.668C977.445 218.918 978.213 228.352 977.988 237.769Z" fill="white"/>
<path d="M807.036 202.544C807.999 203.337 808.721 204.367 809.426 205.393C811.618 208.582 813.814 211.753 815.859 215.027C814.484 216.565 812.061 213.974 810.061 211.068C807.665 207.576 805.809 203.534 802.382 201.03C804.05 200.924 805.756 201.471 807.036 202.544Z" fill="white"/>
<path d="M751.273 164.924C746.542 174.007 740.337 182.338 735.643 185.427C740.761 177.695 745.9 169.951 751.018 162.22C752.007 162.52 751.752 164.002 751.273 164.924Z" fill="white"/>
<path d="M727.203 86.4151C719.388 80.8115 712.668 73.8447 705.989 66.9245C718.607 76.6118 735.673 87.6512 753.66 96.978C744.076 96.245 735.019 92.0188 727.203 86.4151Z" fill="white"/>
<path d="M649.169 77.5311C650.752 76.0133 652.334 74.4955 654.141 73.2695C650.041 79.7955 645.396 85.9618 640.286 91.7361L638.558 91.202C639.936 86.4584 644.583 81.9493 649.169 77.5311Z" fill="white"/>
<path d="M704.873 125.806C700.557 133.271 695.98 140.578 691.16 147.731L689.392 148.344C691.86 141.131 697.898 133.022 704.873 125.806Z" fill="white"/>
<path d="M731.98 104.691L729.318 102.659L715.88 91.1129L713.448 89.0183L696.443 74.3611L693.851 72.1345L663.631 46.0977L652.717 33.6424L649.187 29.5968L647.168 27.2922L623.996 0.810527L727.556 91.2842L835.203 128.537L957.177 162.787L1087.21 155.854L1032.65 165.747L1023.55 167.406L999.823 171.702L986.748 171.103L984.037 170.982L974.782 170.551L972.192 170.445L955.846 169.681L948.877 169.364L945.991 169.232L942.166 168.082L937.419 166.65L890.478 152.487L887.031 151.456L861.993 143.91L858.583 142.871L814.275 129.52L812.182 128.888L794.86 123.659L789.108 121.922L767.911 115.53L764.697 114.562L731.98 104.691Z" fill="white"/>
</g>
<defs>
<clipPath id="clip0_105_203">
<rect width="488.023" height="168.255" fill="white" transform="translate(-9 127) rotate(-15)"/>
</clipPath>
<clipPath id="clip1_105_203">
<rect width="488.023" height="168.255" fill="white" transform="matrix(-0.965926 -0.258819 -0.258819 0.965926 1094.94 127)"/>
</clipPath>
</defs>
</svg>
