<svg width="18" height="18" viewBox="0 0 18 18" fill="none" xmlns="http://www.w3.org/2000/svg">
<path d="M14.1675 2.87939C14.4108 2.90357 14.6396 3.01165 14.814 3.18604C15.0131 3.38526 15.1254 3.65533 15.1255 3.93701C15.1255 4.18368 15.0393 4.42171 14.8843 4.61084L14.814 4.68896L10.5024 8.99951L14.814 13.311L14.8843 13.3882C14.9504 13.4688 15.0044 13.5591 15.0444 13.6558L15.0796 13.7544C15.1097 13.854 15.1255 13.9576 15.1255 14.062C15.1255 14.1666 15.1098 14.2708 15.0796 14.3706L15.0444 14.4692C15.0044 14.5659 14.9504 14.6562 14.8843 14.7368L14.814 14.814C14.7399 14.8881 14.6551 14.9503 14.563 14.9995L14.4692 15.0444C14.3403 15.0978 14.2016 15.1255 14.062 15.1255C13.9576 15.1255 13.854 15.1097 13.7544 15.0796L13.6558 15.0444C13.5591 15.0044 13.4688 14.9504 13.3882 14.8843L13.311 14.814L8.99951 10.5024L4.68896 14.814C4.48965 15.0133 4.21889 15.1255 3.93701 15.1255C3.65533 15.1254 3.38526 15.0131 3.18604 14.814C2.98672 14.6146 2.87451 14.3439 2.87451 14.062L2.87939 13.9575C2.9035 13.7141 3.01157 13.4855 3.18604 13.311L7.49658 8.99951L3.18604 4.68896C2.98672 4.48965 2.87451 4.21889 2.87451 3.93701C2.87459 3.65525 2.98679 3.38528 3.18604 3.18604C3.38528 2.98679 3.65525 2.87459 3.93701 2.87451L4.04248 2.87939C4.28575 2.90357 4.51458 3.01165 4.68896 3.18604L8.99951 7.49658L13.311 3.18604L13.3892 3.11475C13.5781 2.96009 13.8157 2.87458 14.062 2.87451L14.1675 2.87939Z" fill="white" stroke="white"/>
</svg>
