<svg width="971" height="415" viewBox="0 0 971 415" fill="none" xmlns="http://www.w3.org/2000/svg">
<g clip-path="url(#clip0_107_216)">
<path d="M161.79 389.37C161.43 384.26 161.04 379.04 159.22 374.3C158.42 372.22 157.34 370.26 156.07 368.47C148.11 357.25 131.84 354.12 121.7 362.88C119.79 357.02 117.48 351.31 114.8 345.81C114.34 344.86 113.82 343.87 112.96 343.33C112.34 342.94 111.6 342.83 110.88 342.73C103.16 341.63 95.45 340.53 87.73 339.42C85.52 339.1 83.27 338.79 81.07 339.16C75.46 340.1 71.37 345.16 67.8 349.89C65.43 353.03 62.92 356.63 64.22 360.68C58.57 358.24 52.7 356.4 46.71 355.17C45.29 354.88 43.78 354.63 42.42 355.19C41.16 355.71 40.23 356.85 39.36 357.96C37.34 360.51 35.32 363.06 33.29 365.61C32.26 366.91 31.2 368.25 30.63 369.85C29.37 373.35 30.66 377.26 33.63 381.36C23.85 381.78 14.11 383.52 4.73003 386.54C4.11003 386.74 3.47003 386.96 2.96003 387.4C2.47003 387.83 2.14003 388.44 1.86003 389.05C-0.139971 393.36 -0.549971 398.49 0.750029 403.1C2.05003 407.71 4.66003 414.43 10.96 414.07C54.76 411.61 98.69 411.63 143.15 413.24C148.34 409.57 153.27 405.47 157.86 400.98C159.14 399.73 160.42 398.41 161.14 396.73C162.12 394.48 161.96 391.86 161.79 389.37ZM36.19 371.14C37.45 368.65 39.03 366.35 40.86 364.31C41.66 363.42 42.54 362.55 43.62 362.11C44.99 361.56 46.51 361.74 47.95 362.02C52.67 362.93 57.24 364.72 61.4 367.28C62.53 367.98 63.67 368.77 64.4 369.94C64.97 370.84 65.25 371.91 65.53 372.95C66.63 377.06 67.73 381.17 68.82 385.28C67.34 385.34 66.92 384.52 66.66 383.83C65.63 381.07 64.59 378.31 63.56 375.55C62.69 373.22 61.72 370.76 59.81 369.3C58.78 368.51 57.54 368.08 56.33 367.68C53.75 366.83 51.14 366.06 48.51 365.38C47.35 365.08 46.13 364.79 44.97 365.07C43.33 365.45 42.08 366.87 41.03 368.28C40.3 369.26 39.6 370.3 39.31 371.51C39.01 372.72 39.19 374.13 40.02 375C41.07 376.1 42.94 376.15 43.68 377.51C44.35 378.73 43.73 380.26 43.11 381.51C40.57 380.27 38.3 378.41 36.52 376.1C36.04 375.47 35.57 374.78 35.46 373.98C35.33 372.98 35.75 372.01 36.19 371.14ZM48.51 405.42C46.92 400.41 44.61 395.23 40.3 392.66C38.01 391.3 35.37 390.81 32.79 390.34C28.68 389.6 24.36 388.87 20.41 390.3C17.74 391.26 15.46 393.14 13.23 394.98C12.75 395.37 12.25 395.8 12.06 396.42C11.92 396.89 11.98 397.4 12.05 397.89C12.38 400 12.97 402.06 13.78 404C13.94 404.38 14.12 404.77 14.43 405.01C14.81 405.31 15.32 405.33 15.79 405.34C19.97 405.4 24.16 405.25 28.33 404.89C29.34 404.8 30.37 404.7 31.29 404.25C33.75 403.06 34.72 399.93 35.43 397.14C32.73 397.18 29.05 396.63 25.37 396.07C24.9 396 24.38 395.9 24.09 395.49C23.65 394.86 24.1 393.89 24.77 393.58C25.44 393.27 26.21 393.42 26.93 393.57C30.23 394.27 33.53 394.97 36.84 395.67C37.34 395.78 37.88 395.9 38.22 396.3C38.67 396.82 38.65 397.61 38.61 398.32C38.44 401.07 38.03 404.26 35.8 405.63C35.01 406.12 34.09 406.29 33.19 406.45C25.72 407.75 18.16 408.53 10.6 408.78C9.85003 408.8 9.04003 408.81 8.43003 408.34C7.56003 407.68 7.42003 406.37 7.37003 405.23C7.27003 403.08 7.17003 400.93 7.07003 398.77C7.01003 397.51 6.97003 396.18 7.53003 395.06C8.12003 393.89 9.26003 393.19 10.34 392.54C13.56 390.63 16.82 388.7 20.36 387.62C28.33 385.2 36.82 387.31 44.88 389.42C46.06 389.73 47.33 390.1 48.07 391.13C48.56 391.8 48.74 392.67 48.91 393.5C49.74 397.51 50.56 401.52 51.39 405.53C50.51 405.87 49.47 405.76 48.51 405.42ZM63.62 404.33C62.52 404.4 61.37 404.46 60.37 403.97C58.86 403.23 58.08 401.45 57.44 399.81C55.13 393.85 53.04 387.8 51.18 381.66C50.61 379.77 50.05 377.82 50.24 375.85C50.29 375.36 50.4 374.84 50.73 374.5C51.02 374.21 51.42 374.1 51.81 374.01C53.86 373.55 55.98 373.41 58.07 373.6C58.11 374.43 58.09 375.42 57.45 375.89C56.9 376.3 56.16 376.12 55.5 376.25C54.23 376.51 53.41 377.96 53.35 379.35C53.29 380.74 53.8 382.07 54.31 383.36C56.33 388.49 58.35 393.62 60.37 398.75C60.64 399.44 60.93 400.15 61.48 400.61C62.23 401.24 63.26 401.23 64.21 401.2C66.93 401.11 69.66 401.02 72.38 400.93C75.41 400.83 78.85 400.91 80.81 403.24C75.07 403.6 69.35 403.96 63.62 404.33ZM115.16 392.95C113.69 395.21 112.23 397.46 110.76 399.72C109.91 401.03 109.03 402.37 107.79 403.27C106.46 404.24 104.82 404.6 103.23 404.84C98.81 405.49 94.28 405.32 89.91 406.26C88.77 404.46 89.68 402.7 90.96 401.94C92.24 401.19 93.77 401.15 95.23 401.05C98.48 400.83 101.7 400.19 104.81 399.14C106.46 398.58 108.14 397.87 109.33 396.53C110.42 395.31 111 393.68 111.51 392.08C112.55 388.85 113.43 385.49 113.37 382.08C113.31 379.01 112.49 376.02 111.68 373.08C110.97 370.5 110.26 367.92 109.55 365.35C109.25 364.25 108.93 363.11 108.26 362.21C107.61 361.32 106.67 360.72 105.76 360.15C100.77 357.02 95.78 353.88 90.8 350.75C90.31 350.44 89.79 350.12 89.23 350.04C88.54 349.94 87.85 350.2 87.2 350.47C84.06 351.79 80.93 353.69 79.24 356.82C77.66 359.73 77.56 363.26 77.5 366.62C77.45 369.17 77.4 371.71 77.35 374.26C77.31 376.53 77.28 378.89 78.17 380.94C78.93 382.69 80.28 384.05 81.65 385.3C83.64 387.12 85.72 388.82 87.89 390.38C88.55 390.85 89.26 391.33 90.05 391.35C90.58 391.37 91.1 391.18 91.6 390.99C94.48 389.91 97.55 388.68 99.27 385.98C100.05 384.76 100.48 383.32 100.78 381.88C101.54 378.24 101.5 374.42 100.67 370.8C98.82 368.82 95.41 366.71 91.79 365.19C91.39 365.02 90.95 364.86 90.53 364.95C90.13 365.04 89.81 365.34 89.53 365.66C86.93 368.57 86.05 373.65 82.41 374.68C81.86 369.4 85.83 364.96 89.48 361.36C89.85 361 90.25 360.62 90.74 360.57C91.28 360.51 91.78 360.84 92.24 361.16C95.32 363.35 98.41 365.54 101.49 367.73C102.64 368.55 103.84 369.42 104.46 370.75C105.14 372.2 104.98 373.92 104.77 375.53C104.28 379.26 103.57 382.96 102.63 386.6C102.36 387.67 102.05 388.76 101.41 389.63C100.73 390.55 99.74 391.15 98.75 391.66C96.6 392.79 94.35 393.7 92.03 394.37C91.27 394.59 90.48 394.79 89.69 394.7C88.68 394.59 87.78 394.03 86.9 393.49C83.52 391.38 80.09 389.23 77.4 386.18C74.72 383.13 72.84 378.99 73.26 374.82C72.88 370.44 73.04 366.61 73.21 362.78C73.31 360.46 73.44 358.04 74.48 356C75.21 354.57 76.35 353.43 77.52 352.38C80.08 350.08 82.92 348.09 86.05 346.81C87.27 346.31 88.56 345.92 89.85 346.1C90.87 346.24 91.82 346.74 92.75 347.23C98.1 350.06 103.45 352.88 108.81 355.71C109.35 356 109.91 356.29 110.33 356.76C110.91 357.41 111.16 358.3 111.39 359.16C113.42 366.6 115.45 374.04 117.48 381.47C117.84 382.78 118.2 384.11 118.18 385.47C118.17 388.23 116.63 390.68 115.16 392.95ZM154.84 394.27C154.81 395.39 154.76 396.55 154.31 397.57C153.61 399.13 152.09 400.04 150.63 400.79C143.54 404.41 135.73 406.4 127.88 406.59C127.2 406.61 126.47 406.6 125.89 406.21C125.32 405.82 125 405.14 124.74 404.47C123.32 400.86 122.76 396.87 123.13 392.97C123.22 391.97 123.39 390.95 123.84 390.08C124.75 388.33 126.6 387.47 128.28 386.61C131.5 384.96 134.53 382.89 137.29 380.47C139.93 382.87 142.06 385.9 143.48 389.28C140.7 389.21 138.03 387.27 136.2 384.5C133.9 386.58 130.44 386.81 128.34 389.12C125.76 391.95 126.3 396.53 127.02 400.41C127.09 400.8 127.19 401.23 127.48 401.48C127.73 401.68 128.07 401.71 128.39 401.71C135.57 401.87 142.55 399.36 149.36 396.89C149.66 396.78 149.97 396.66 150.15 396.39C150.3 396.16 150.33 395.87 150.36 395.59C150.6 392.94 150.85 390.3 151.09 387.65C151.18 386.69 151.26 385.69 150.97 384.78C150.63 383.73 149.83 382.95 149.06 382.2C146.25 379.5 143.44 376.79 140.63 374.09C139.84 373.33 138.98 372.53 137.93 372.36C136.74 372.17 135.6 372.82 134.55 373.44C131.1 375.5 127.65 377.57 124.2 379.63C123.54 378.03 122.88 376.44 122.31 374.93C126.11 372.34 130.05 369.99 134.11 367.89C134.78 367.54 135.5 367.19 136.24 367.25C136.88 367.3 137.47 367.64 138.03 367.98C143.03 371.04 147.75 374.59 152.13 378.59C153.02 379.41 153.93 380.27 154.42 381.42C154.91 382.56 154.93 383.87 154.94 385.12C154.96 388.17 154.93 391.22 154.84 394.27Z" fill="white"/>
</g>
<g clip-path="url(#clip1_107_216)">
<path d="M365.79 50.3705C365.43 45.2605 365.04 40.0405 363.22 35.3005C362.42 33.2205 361.34 31.2605 360.07 29.4705C352.11 18.2505 335.84 15.1205 325.7 23.8805C323.79 18.0205 321.48 12.3105 318.8 6.81046C318.34 5.86047 317.82 4.87046 316.96 4.33046C316.34 3.94046 315.6 3.83046 314.88 3.73046C307.16 2.63047 299.45 1.53046 291.73 0.420465C289.52 0.100465 287.27 -0.209535 285.07 0.160465C279.46 1.10046 275.37 6.16046 271.8 10.8905C269.43 14.0305 266.92 17.6305 268.22 21.6805C262.57 19.2405 256.7 17.4005 250.71 16.1705C249.29 15.8805 247.78 15.6305 246.42 16.1905C245.16 16.7105 244.23 17.8505 243.36 18.9605C241.34 21.5105 239.32 24.0605 237.29 26.6105C236.26 27.9105 235.2 29.2505 234.63 30.8505C233.37 34.3505 234.66 38.2605 237.63 42.3605C227.85 42.7805 218.11 44.5205 208.73 47.5405C208.11 47.7405 207.47 47.9605 206.96 48.4005C206.47 48.8305 206.14 49.4405 205.86 50.0505C203.86 54.3605 203.45 59.4905 204.75 64.1005C206.05 68.7105 208.66 75.4305 214.96 75.0705C258.76 72.6105 302.69 72.6305 347.15 74.2405C352.34 70.5705 357.27 66.4705 361.86 61.9805C363.14 60.7305 364.42 59.4105 365.14 57.7305C366.12 55.4805 365.96 52.8605 365.79 50.3705ZM240.19 32.1405C241.45 29.6505 243.03 27.3505 244.86 25.3105C245.66 24.4205 246.54 23.5505 247.62 23.1105C248.99 22.5605 250.51 22.7405 251.95 23.0205C256.67 23.9305 261.24 25.7205 265.4 28.2805C266.53 28.9805 267.67 29.7705 268.4 30.9405C268.97 31.8405 269.25 32.9105 269.53 33.9505C270.63 38.0605 271.73 42.1705 272.82 46.2805C271.34 46.3405 270.92 45.5205 270.66 44.8305C269.63 42.0705 268.59 39.3105 267.56 36.5505C266.69 34.2205 265.72 31.7605 263.81 30.3005C262.78 29.5105 261.54 29.0805 260.33 28.6805C257.75 27.8305 255.14 27.0605 252.51 26.3805C251.35 26.0805 250.13 25.7905 248.97 26.0705C247.33 26.4505 246.08 27.8705 245.03 29.2805C244.3 30.2605 243.6 31.3005 243.31 32.5105C243.01 33.7205 243.19 35.1305 244.02 36.0005C245.07 37.1005 246.94 37.1505 247.68 38.5105C248.35 39.7305 247.73 41.2605 247.11 42.5105C244.57 41.2705 242.3 39.4105 240.52 37.1005C240.04 36.4705 239.57 35.7805 239.46 34.9805C239.33 33.9805 239.75 33.0105 240.19 32.1405ZM252.51 66.4205C250.92 61.4105 248.61 56.2305 244.3 53.6605C242.01 52.3005 239.37 51.8105 236.79 51.3405C232.68 50.6005 228.36 49.8705 224.41 51.3005C221.74 52.2605 219.46 54.1405 217.23 55.9805C216.75 56.3705 216.25 56.8005 216.06 57.4205C215.92 57.8905 215.98 58.4005 216.05 58.8905C216.38 61.0005 216.97 63.0605 217.78 65.0005C217.94 65.3805 218.12 65.7705 218.43 66.0105C218.81 66.3105 219.32 66.3305 219.79 66.3405C223.97 66.4005 228.16 66.2505 232.33 65.8905C233.34 65.8005 234.37 65.7005 235.29 65.2505C237.75 64.0605 238.72 60.9305 239.43 58.1405C236.73 58.1805 233.05 57.6305 229.37 57.0705C228.9 57.0005 228.38 56.9005 228.09 56.4905C227.65 55.8605 228.1 54.8905 228.77 54.5805C229.44 54.2705 230.21 54.4205 230.93 54.5705C234.23 55.2705 237.53 55.9705 240.84 56.6705C241.34 56.7805 241.88 56.9005 242.22 57.3005C242.67 57.8205 242.65 58.6105 242.61 59.3205C242.44 62.0705 242.03 65.2605 239.8 66.6305C239.01 67.1205 238.09 67.2905 237.19 67.4505C229.72 68.7505 222.16 69.5305 214.6 69.7805C213.85 69.8005 213.04 69.8105 212.43 69.3405C211.56 68.6805 211.42 67.3705 211.37 66.2305C211.27 64.0805 211.17 61.9305 211.07 59.7705C211.01 58.5105 210.97 57.1805 211.53 56.0605C212.12 54.8905 213.26 54.1905 214.34 53.5405C217.56 51.6305 220.82 49.7005 224.36 48.6205C232.33 46.2005 240.82 48.3105 248.88 50.4205C250.06 50.7305 251.33 51.1005 252.07 52.1305C252.56 52.8005 252.74 53.6705 252.91 54.5005C253.74 58.5105 254.56 62.5205 255.39 66.5305C254.51 66.8705 253.47 66.7605 252.51 66.4205ZM267.62 65.3305C266.52 65.4005 265.37 65.4605 264.37 64.9705C262.86 64.2305 262.08 62.4505 261.44 60.8105C259.13 54.8505 257.04 48.8005 255.18 42.6605C254.61 40.7705 254.05 38.8205 254.24 36.8505C254.29 36.3605 254.4 35.8405 254.73 35.5005C255.02 35.2105 255.42 35.1005 255.81 35.0105C257.86 34.5505 259.98 34.4105 262.07 34.6005C262.11 35.4305 262.09 36.4205 261.45 36.8905C260.9 37.3005 260.16 37.1205 259.5 37.2505C258.23 37.5105 257.41 38.9605 257.35 40.3505C257.29 41.7405 257.8 43.0705 258.31 44.3605C260.33 49.4905 262.35 54.6205 264.37 59.7505C264.64 60.4405 264.93 61.1505 265.48 61.6105C266.23 62.2405 267.26 62.2305 268.21 62.2005C270.93 62.1105 273.66 62.0205 276.38 61.9305C279.41 61.8305 282.85 61.9105 284.81 64.2405C279.07 64.6005 273.35 64.9605 267.62 65.3305ZM319.16 53.9505C317.69 56.2105 316.23 58.4605 314.76 60.7205C313.91 62.0305 313.03 63.3705 311.79 64.2705C310.46 65.2405 308.82 65.6005 307.23 65.8405C302.81 66.4905 298.28 66.3205 293.91 67.2605C292.77 65.4605 293.68 63.7005 294.96 62.9405C296.24 62.1905 297.77 62.1505 299.23 62.0505C302.48 61.8305 305.7 61.1905 308.81 60.1405C310.46 59.5805 312.14 58.8705 313.33 57.5305C314.42 56.3105 315 54.6805 315.51 53.0805C316.55 49.8505 317.43 46.4905 317.37 43.0805C317.31 40.0105 316.49 37.0205 315.68 34.0805C314.97 31.5005 314.26 28.9205 313.55 26.3505C313.25 25.2505 312.93 24.1105 312.26 23.2105C311.61 22.3205 310.67 21.7205 309.76 21.1505C304.77 18.0205 299.78 14.8805 294.8 11.7505C294.31 11.4405 293.79 11.1205 293.23 11.0405C292.54 10.9405 291.85 11.2005 291.2 11.4705C288.06 12.7905 284.93 14.6905 283.24 17.8205C281.66 20.7305 281.56 24.2605 281.5 27.6205C281.45 30.1705 281.4 32.7105 281.35 35.2605C281.31 37.5305 281.28 39.8905 282.17 41.9405C282.93 43.6905 284.28 45.0505 285.65 46.3005C287.64 48.1205 289.72 49.8205 291.89 51.3805C292.55 51.8505 293.26 52.3305 294.05 52.3505C294.58 52.3705 295.1 52.1805 295.6 51.9905C298.48 50.9105 301.55 49.6805 303.27 46.9805C304.05 45.7605 304.48 44.3205 304.78 42.8805C305.54 39.2405 305.5 35.4205 304.67 31.8005C302.82 29.8205 299.41 27.7105 295.79 26.1905C295.39 26.0205 294.95 25.8605 294.53 25.9505C294.13 26.0405 293.81 26.3405 293.53 26.6605C290.93 29.5705 290.05 34.6505 286.41 35.6805C285.86 30.4005 289.83 25.9605 293.48 22.3605C293.85 22.0005 294.25 21.6205 294.74 21.5705C295.28 21.5105 295.78 21.8405 296.24 22.1605C299.32 24.3505 302.41 26.5405 305.49 28.7305C306.64 29.5505 307.84 30.4205 308.46 31.7505C309.14 33.2005 308.98 34.9205 308.77 36.5305C308.28 40.2605 307.57 43.9605 306.63 47.6005C306.36 48.6705 306.05 49.7605 305.41 50.6305C304.73 51.5505 303.74 52.1505 302.75 52.6605C300.6 53.7905 298.35 54.7005 296.03 55.3705C295.27 55.5905 294.48 55.7905 293.69 55.7005C292.68 55.5905 291.78 55.0305 290.9 54.4905C287.52 52.3805 284.09 50.2305 281.4 47.1805C278.72 44.1305 276.84 39.9905 277.26 35.8205C276.88 31.4405 277.04 27.6105 277.21 23.7805C277.31 21.4605 277.44 19.0405 278.48 17.0005C279.21 15.5705 280.35 14.4305 281.52 13.3805C284.08 11.0805 286.92 9.09046 290.05 7.81046C291.27 7.31046 292.56 6.92046 293.85 7.10046C294.87 7.24046 295.82 7.74046 296.75 8.23046C302.1 11.0605 307.45 13.8805 312.81 16.7105C313.35 17.0005 313.91 17.2905 314.33 17.7605C314.91 18.4105 315.16 19.3005 315.39 20.1605C317.42 27.6005 319.45 35.0405 321.48 42.4705C321.84 43.7805 322.2 45.1105 322.18 46.4705C322.17 49.2305 320.63 51.6805 319.16 53.9505ZM358.84 55.2705C358.81 56.3905 358.76 57.5505 358.31 58.5705C357.61 60.1305 356.09 61.0405 354.63 61.7905C347.54 65.4105 339.73 67.4005 331.88 67.5905C331.2 67.6105 330.47 67.6005 329.89 67.2105C329.32 66.8205 329 66.1405 328.74 65.4705C327.32 61.8605 326.76 57.8705 327.13 53.9705C327.22 52.9705 327.39 51.9505 327.84 51.0805C328.75 49.3305 330.6 48.4705 332.28 47.6105C335.5 45.9605 338.53 43.8905 341.29 41.4705C343.93 43.8705 346.06 46.9005 347.48 50.2805C344.7 50.2105 342.03 48.2705 340.2 45.5005C337.9 47.5805 334.44 47.8105 332.34 50.1205C329.76 52.9505 330.3 57.5305 331.02 61.4105C331.09 61.8005 331.19 62.2305 331.48 62.4805C331.73 62.6805 332.07 62.7105 332.39 62.7105C339.57 62.8705 346.55 60.3605 353.36 57.8905C353.66 57.7805 353.97 57.6605 354.15 57.3905C354.3 57.1605 354.33 56.8705 354.36 56.5905C354.6 53.9405 354.85 51.3005 355.09 48.6505C355.18 47.6905 355.26 46.6905 354.97 45.7805C354.63 44.7305 353.83 43.9505 353.06 43.2005C350.25 40.5005 347.44 37.7905 344.63 35.0905C343.84 34.3305 342.98 33.5305 341.93 33.3605C340.74 33.1705 339.6 33.8205 338.55 34.4405C335.1 36.5005 331.65 38.5705 328.2 40.6305C327.54 39.0305 326.88 37.4405 326.31 35.9305C330.11 33.3405 334.05 30.9905 338.11 28.8905C338.78 28.5405 339.5 28.1905 340.24 28.2505C340.88 28.3005 341.47 28.6405 342.03 28.9805C347.03 32.0405 351.75 35.5905 356.13 39.5905C357.02 40.4105 357.93 41.2705 358.42 42.4205C358.91 43.5605 358.93 44.8705 358.94 46.1205C358.96 49.1705 358.93 52.2205 358.84 55.2705Z" fill="white"/>
</g>
<g clip-path="url(#clip2_107_216)">
<path d="M970.79 241.37C970.43 236.26 970.04 231.04 968.22 226.3C967.42 224.22 966.34 222.26 965.07 220.47C957.11 209.25 940.84 206.12 930.7 214.88C928.79 209.02 926.48 203.31 923.8 197.81C923.34 196.86 922.82 195.87 921.96 195.33C921.34 194.94 920.6 194.83 919.88 194.73C912.16 193.63 904.45 192.53 896.73 191.42C894.52 191.1 892.27 190.79 890.07 191.16C884.46 192.1 880.37 197.16 876.8 201.89C874.43 205.03 871.92 208.63 873.22 212.68C867.57 210.24 861.7 208.4 855.71 207.17C854.29 206.88 852.78 206.63 851.42 207.19C850.16 207.71 849.23 208.85 848.36 209.96C846.34 212.51 844.32 215.06 842.29 217.61C841.26 218.91 840.2 220.25 839.63 221.85C838.37 225.35 839.66 229.26 842.63 233.36C832.85 233.78 823.11 235.52 813.73 238.54C813.11 238.74 812.47 238.96 811.96 239.4C811.47 239.83 811.14 240.44 810.86 241.05C808.86 245.36 808.45 250.49 809.75 255.1C811.05 259.71 813.66 266.43 819.96 266.07C863.76 263.61 907.69 263.63 952.15 265.24C957.34 261.57 962.27 257.47 966.86 252.98C968.14 251.73 969.42 250.41 970.14 248.73C971.12 246.48 970.96 243.86 970.79 241.37ZM845.19 223.14C846.45 220.65 848.03 218.35 849.86 216.31C850.66 215.42 851.54 214.55 852.62 214.11C853.99 213.56 855.51 213.74 856.95 214.02C861.67 214.93 866.24 216.72 870.4 219.28C871.53 219.98 872.67 220.77 873.4 221.94C873.97 222.84 874.25 223.91 874.53 224.95C875.63 229.06 876.73 233.17 877.82 237.28C876.34 237.34 875.92 236.52 875.66 235.83C874.63 233.07 873.59 230.31 872.56 227.55C871.69 225.22 870.72 222.76 868.81 221.3C867.78 220.51 866.54 220.08 865.33 219.68C862.75 218.83 860.14 218.06 857.51 217.38C856.35 217.08 855.13 216.79 853.97 217.07C852.33 217.45 851.08 218.87 850.03 220.28C849.3 221.26 848.6 222.3 848.31 223.51C848.01 224.72 848.19 226.13 849.02 227C850.07 228.1 851.94 228.15 852.68 229.51C853.35 230.73 852.73 232.26 852.11 233.51C849.57 232.27 847.3 230.41 845.52 228.1C845.04 227.47 844.57 226.78 844.46 225.98C844.33 224.98 844.75 224.01 845.19 223.14ZM857.51 257.42C855.92 252.41 853.61 247.23 849.3 244.66C847.01 243.3 844.37 242.81 841.79 242.34C837.68 241.6 833.36 240.87 829.41 242.3C826.74 243.26 824.46 245.14 822.23 246.98C821.75 247.37 821.25 247.8 821.06 248.42C820.92 248.89 820.98 249.4 821.05 249.89C821.38 252 821.97 254.06 822.78 256C822.94 256.38 823.12 256.77 823.43 257.01C823.81 257.31 824.32 257.33 824.79 257.34C828.97 257.4 833.16 257.25 837.33 256.89C838.34 256.8 839.37 256.7 840.29 256.25C842.75 255.06 843.72 251.93 844.43 249.14C841.73 249.18 838.05 248.63 834.37 248.07C833.9 248 833.38 247.9 833.09 247.49C832.65 246.86 833.1 245.89 833.77 245.58C834.44 245.27 835.21 245.42 835.93 245.57C839.23 246.27 842.53 246.97 845.84 247.67C846.34 247.78 846.88 247.9 847.22 248.3C847.67 248.82 847.65 249.61 847.61 250.32C847.44 253.07 847.03 256.26 844.8 257.63C844.01 258.12 843.09 258.29 842.19 258.45C834.72 259.75 827.16 260.53 819.6 260.78C818.85 260.8 818.04 260.81 817.43 260.34C816.56 259.68 816.42 258.37 816.37 257.23C816.27 255.08 816.17 252.93 816.07 250.77C816.01 249.51 815.97 248.18 816.53 247.06C817.12 245.89 818.26 245.19 819.34 244.54C822.56 242.63 825.82 240.7 829.36 239.62C837.33 237.2 845.82 239.31 853.88 241.42C855.06 241.73 856.33 242.1 857.07 243.13C857.56 243.8 857.74 244.67 857.91 245.5C858.74 249.51 859.56 253.52 860.39 257.53C859.51 257.87 858.47 257.76 857.51 257.42ZM872.62 256.33C871.52 256.4 870.37 256.46 869.37 255.97C867.86 255.23 867.08 253.45 866.44 251.81C864.13 245.85 862.04 239.8 860.18 233.66C859.61 231.77 859.05 229.82 859.24 227.85C859.29 227.36 859.4 226.84 859.73 226.5C860.02 226.21 860.42 226.1 860.81 226.01C862.86 225.55 864.98 225.41 867.07 225.6C867.11 226.43 867.09 227.42 866.45 227.89C865.9 228.3 865.16 228.12 864.5 228.25C863.23 228.51 862.41 229.96 862.35 231.35C862.29 232.74 862.8 234.07 863.31 235.36C865.33 240.49 867.35 245.62 869.37 250.75C869.64 251.44 869.93 252.15 870.48 252.61C871.23 253.24 872.26 253.23 873.21 253.2C875.93 253.11 878.66 253.02 881.38 252.93C884.41 252.83 887.85 252.91 889.81 255.24C884.07 255.6 878.35 255.96 872.62 256.33ZM924.16 244.95C922.69 247.21 921.23 249.46 919.76 251.72C918.91 253.03 918.03 254.37 916.79 255.27C915.46 256.24 913.82 256.6 912.23 256.84C907.81 257.49 903.28 257.32 898.91 258.26C897.77 256.46 898.68 254.7 899.96 253.94C901.24 253.19 902.77 253.15 904.23 253.05C907.48 252.83 910.7 252.19 913.81 251.14C915.46 250.58 917.14 249.87 918.33 248.53C919.42 247.31 920 245.68 920.51 244.08C921.55 240.85 922.43 237.49 922.37 234.08C922.31 231.01 921.49 228.02 920.68 225.08C919.97 222.5 919.26 219.92 918.55 217.35C918.25 216.25 917.93 215.11 917.26 214.21C916.61 213.32 915.67 212.72 914.76 212.15C909.77 209.02 904.78 205.88 899.8 202.75C899.31 202.44 898.79 202.12 898.23 202.04C897.54 201.94 896.85 202.2 896.2 202.47C893.06 203.79 889.93 205.69 888.24 208.82C886.66 211.73 886.56 215.26 886.5 218.62C886.45 221.17 886.4 223.71 886.35 226.26C886.31 228.53 886.28 230.89 887.17 232.94C887.93 234.69 889.28 236.05 890.65 237.3C892.64 239.12 894.72 240.82 896.89 242.38C897.55 242.85 898.26 243.33 899.05 243.35C899.58 243.37 900.1 243.18 900.6 242.99C903.48 241.91 906.55 240.68 908.27 237.98C909.05 236.76 909.48 235.32 909.78 233.88C910.54 230.24 910.5 226.42 909.67 222.8C907.82 220.82 904.41 218.71 900.79 217.19C900.39 217.02 899.95 216.86 899.53 216.95C899.13 217.04 898.81 217.34 898.53 217.66C895.93 220.57 895.05 225.65 891.41 226.68C890.86 221.4 894.83 216.96 898.48 213.36C898.85 213 899.25 212.62 899.74 212.57C900.28 212.51 900.78 212.84 901.24 213.16C904.32 215.35 907.41 217.54 910.49 219.73C911.64 220.55 912.84 221.42 913.46 222.75C914.14 224.2 913.98 225.92 913.77 227.53C913.28 231.26 912.57 234.96 911.63 238.6C911.36 239.67 911.05 240.76 910.41 241.63C909.73 242.55 908.74 243.15 907.75 243.66C905.6 244.79 903.35 245.7 901.03 246.37C900.27 246.59 899.48 246.79 898.69 246.7C897.68 246.59 896.78 246.03 895.9 245.49C892.52 243.38 889.09 241.23 886.4 238.18C883.72 235.13 881.84 230.99 882.26 226.82C881.88 222.44 882.04 218.61 882.21 214.78C882.31 212.46 882.44 210.04 883.48 208C884.21 206.57 885.35 205.43 886.52 204.38C889.08 202.08 891.92 200.09 895.05 198.81C896.27 198.31 897.56 197.92 898.85 198.1C899.87 198.24 900.82 198.74 901.75 199.23C907.1 202.06 912.45 204.88 917.81 207.71C918.35 208 918.91 208.29 919.33 208.76C919.91 209.41 920.16 210.3 920.39 211.16C922.42 218.6 924.45 226.04 926.48 233.47C926.84 234.78 927.2 236.11 927.18 237.47C927.17 240.23 925.63 242.68 924.16 244.95ZM963.84 246.27C963.81 247.39 963.76 248.55 963.31 249.57C962.61 251.13 961.09 252.04 959.63 252.79C952.54 256.41 944.73 258.4 936.88 258.59C936.2 258.61 935.47 258.6 934.89 258.21C934.32 257.82 934 257.14 933.74 256.47C932.32 252.86 931.76 248.87 932.13 244.97C932.22 243.97 932.39 242.95 932.84 242.08C933.75 240.33 935.6 239.47 937.28 238.61C940.5 236.96 943.53 234.89 946.29 232.47C948.93 234.87 951.06 237.9 952.48 241.28C949.7 241.21 947.03 239.27 945.2 236.5C942.9 238.58 939.44 238.81 937.34 241.12C934.76 243.95 935.3 248.53 936.02 252.41C936.09 252.8 936.19 253.23 936.48 253.48C936.73 253.68 937.07 253.71 937.39 253.71C944.57 253.87 951.55 251.36 958.36 248.89C958.66 248.78 958.97 248.66 959.15 248.39C959.3 248.16 959.33 247.87 959.36 247.59C959.6 244.94 959.85 242.3 960.09 239.65C960.18 238.69 960.26 237.69 959.97 236.78C959.63 235.73 958.83 234.95 958.06 234.2C955.25 231.5 952.44 228.79 949.63 226.09C948.84 225.33 947.98 224.53 946.93 224.36C945.74 224.17 944.6 224.82 943.55 225.44C940.1 227.5 936.65 229.57 933.2 231.63C932.54 230.03 931.88 228.44 931.31 226.93C935.11 224.34 939.05 221.99 943.11 219.89C943.78 219.54 944.5 219.19 945.24 219.25C945.88 219.3 946.47 219.64 947.03 219.98C952.03 223.04 956.75 226.59 961.13 230.59C962.02 231.41 962.93 232.27 963.42 233.42C963.91 234.56 963.93 235.87 963.94 237.12C963.96 240.17 963.93 243.22 963.84 246.27Z" fill="white"/>
</g>
<defs>
<clipPath id="clip0_107_216">
<rect width="161.92" height="75.09" fill="white" transform="translate(0 339)"/>
</clipPath>
<clipPath id="clip1_107_216">
<rect width="161.92" height="75.09" fill="white" transform="translate(204)"/>
</clipPath>
<clipPath id="clip2_107_216">
<rect width="161.92" height="75.09" fill="white" transform="translate(809 191)"/>
</clipPath>
</defs>
</svg>
