<svg width="250" height="255" viewBox="0 0 250 255" fill="none" xmlns="http://www.w3.org/2000/svg">
<g clip-path="url(#clip0_103_2731)">
<path d="M161.53 65.0703C161.06 64.7303 160.48 64.5803 159.91 64.4303C153.81 62.8903 147.61 61.3303 141.3 61.4303C147.95 64.1003 154.77 66.3703 161.7 68.2103C162.69 66.8903 162.36 65.6803 161.53 65.0703Z" fill="white"/>
<path d="M184.09 90.3198C179.6 85.1598 175.11 79.9898 170.62 74.8298C169.85 73.9498 169.07 73.0498 168.05 72.4598C167.04 71.8698 165.73 71.6298 164.66 72.1398C164.75 73.6798 165.83 74.9598 166.89 76.0798C172.06 81.5998 177.93 86.4898 184.09 90.3198Z" fill="white"/>
<path d="M168.94 89.1896C169.12 89.0096 170.05 89.0696 170.25 88.5996C170.45 88.1296 170.15 87.6096 169.86 87.1996C166.48 82.5396 161.42 79.3596 157.59 75.0596C156.18 73.4796 154.93 71.7296 153.23 70.4596C151.53 69.1896 149.23 68.4496 147.23 69.2296C153.8 76.5496 161.08 83.2396 168.94 89.1896Z" fill="white"/>
<path d="M178.55 146.02C181.75 138.07 185.01 129.86 184.91 121.34C183.5 122.12 182.74 123.68 182.08 125.14C180.24 129.19 178.41 133.25 176.57 137.3C175.66 139.32 174.73 141.4 174.69 143.6C174.67 144.71 174.94 145.92 175.8 146.61C176.66 147.3 178.12 147.07 178.55 146.02Z" fill="white"/>
<path d="M148.51 119.39C149.75 116.89 150.83 114.31 151.73 111.67C152.17 110.38 152.56 108.93 151.98 107.7C151.88 107.49 151.74 107.29 151.53 107.21C151.17 107.08 150.81 107.36 150.54 107.63C147.2 110.9 145.57 115.78 146.29 120.34C147.18 120.19 148 119.63 148.51 119.39Z" fill="white"/>
<path d="M179.71 104.98C178.02 103.04 175.77 101.66 173.93 99.8496C170.82 96.7796 168.79 92.3596 164.72 90.6996C164.46 90.5896 164.17 90.4996 163.9 90.5696C162.99 90.7996 163.34 92.1596 163.89 92.8996C169.22 100.14 174.95 107.09 181.06 113.69C183.32 112.22 182.3 107.96 179.71 104.98Z" fill="white"/>
<path d="M146.8 150.13C148.02 150.76 149.32 149.43 150.07 148.28C151.75 145.7 153.42 143.13 153.52 143.01C157.9 135.18 162.15 127.27 166.27 119.3C167.62 116.69 168.97 114.03 169.47 111.15C169.57 110.56 169.58 109.83 169.06 109.53C168.35 109.11 167.55 109.93 167.12 110.65C160.38 121.88 153.63 133.13 147.88 144.88C147.07 146.53 146.26 148.39 146.8 150.13Z" fill="white"/>
<path d="M174.67 122.86C168.94 129.99 163.65 137.46 158.83 145.22C157.18 147.87 155.54 151.03 158.61 153.8C164.61 145.12 169.77 135.87 174.01 126.24C174.49 125.16 174.96 123.99 174.67 122.86Z" fill="white"/>
<path d="M143.75 175.77C150.85 170.44 157.52 164.54 163.67 158.14C163.32 157.64 162.52 157.89 161.98 158.2C157.68 160.65 153.46 163.25 149.35 166.01C147.46 167.28 145.57 168.6 144.08 170.32C143.7 170.77 143.33 171.26 143.21 171.83C143 172.83 143.51 174.11 142.7 174.75C142.84 174.96 143.19 174.95 143.75 175.77Z" fill="white"/>
<path d="M159.5 112.73C159.96 111.73 159.9 110.6 159.83 109.51C159.51 104.31 159.2 99.1201 158.88 93.9201C158.73 91.5301 158.59 89.1201 157.97 86.8101C157.79 86.1601 157.56 85.4701 157.02 85.0601C156.48 84.6401 155.57 84.6401 155.21 85.2201C155.01 85.5401 155.03 85.9401 155.05 86.3201C155.59 95.3901 156.12 104.46 156.66 113.52C157.9 114.51 159.04 113.72 159.5 112.73Z" fill="white"/>
<path d="M152.86 120.82C150.38 122.46 148.73 125.04 147.16 127.55C143.69 133.1 140.21 138.65 136.74 144.2C136.19 145.08 135.63 145.97 135.22 146.92C134.79 147.9 134.52 148.94 134.25 149.97C133.6 152.46 132.95 154.95 133.61 157.46C140.84 145.68 147.27 133.43 152.86 120.82Z" fill="white"/>
<path d="M167.41 169.45C176.19 160.08 184.36 150.16 191.87 139.77C186.7 143.51 181.78 147.6 177.16 151.98C171.99 156.87 166.94 162.69 167.41 169.45Z" fill="white"/>
<path d="M178.1 167.03C177.77 167.98 177.77 169.31 179.24 169.42C183.43 165.35 187.01 160.67 189.82 155.58C188.52 156.54 187.22 157.49 185.91 158.45C182.73 160.77 179.38 163.33 178.1 167.03Z" fill="white"/>
<path d="M134.49 190.66C145.25 186.98 155.85 182.85 166.27 178.28C167.81 177.61 169.41 176.87 170.4 175.52C158.68 178.23 146.75 181.02 136.33 187.06C135.29 187.67 134.11 188.69 134.49 190.66Z" fill="white"/>
<path d="M129.6 175.55C127.64 175.1 125.6 175.05 123.58 175C112.98 174.77 102.37 174.85 91.76 175.23C92.1 176.41 93.51 176.86 94.72 177.12C107.55 179.88 120.79 180.83 133.92 179.93C134.3 177.24 132.02 176.1 129.6 175.55Z" fill="white"/>
<path d="M208.25 128.52C206.51 121.12 204.77 113.72 203.03 106.32C201.51 99.86 199.96 93.31 196.69 87.54C193.47 81.85 188.72 77.17 183.96 72.68C174.89 64.12 165.51 55.9 156.7 48.5C147.26 48.56 137.81 48.77 128.22 50.01C135.75 60.93 138.77 74.24 141.64 87.2C142.12 89.36 142.6 91.54 142.58 93.76C142.55 96.28 141.88 98.76 141.09 101.17C136.59 114.97 128.51 127.34 120.53 139.52C119.33 141.36 118.07 143.24 116.26 144.49C114.48 145.72 112.31 146.22 110.2 146.69C104.65 147.94 99.09 149.2 93.46 150.01C90.38 150.46 87.25 150.78 84.32 151.82C82.02 152.64 79.9 153.89 77.67 154.87C71.3 157.67 64.2 158.25 57.26 158.31C57.74 158.99 58.03 159.79 59.47 161.85C64.66 169.25 69.85 176.65 75.04 184.05C76.4 185.99 77.78 187.95 79.61 189.48C81.88 191.38 84.71 192.48 87.51 193.48C93.86 195.74 100.37 197.57 106.86 199.4C113.5 201.27 120.13 203.14 126.77 205.02C128.28 205.45 129.82 205.87 131.39 205.81C132.85 205.75 134.26 205.26 135.65 204.78C148.87 200.2 162.08 195.61 175.3 191.03C179.26 189.66 183.38 188.19 186.29 185.18C189.02 182.37 190.36 178.56 191.75 174.92C195.28 165.66 199.62 156.7 204.69 148.16C206.65 144.86 208.78 141.48 209.28 137.69C209.68 134.64 208.96 131.54 208.25 128.52ZM203.22 134.3C202.85 137.39 203.33 138.69 201.94 141.49C197.78 149.89 193.62 158.29 189.47 166.7C187.21 171.27 184.84 175.98 180.89 179.24C178.75 181.01 176.23 182.28 173.73 183.49C162.25 189.05 156.05 189.8 143.94 193.83C142.15 194.43 134.69 199.07 132.81 199.2C130.5 199.36 128.2 198.82 125.96 198.28C112.17 194.96 98.46 191.35 84.49 187.63C82.69 186.88 82.2 185.35 80.83 183.98C78.37 181.53 76.89 177.71 74.71 175.01C71.48 171.01 70.22 168.29 64.7 162.39C69.01 163.68 73.76 163.57 78.03 162.07C81.27 160.93 84.19 159.04 87.34 157.66C99.41 152.36 113.71 154.88 125.92 149.92C132.82 135.86 140.31 121.43 147.18 106.72C148.33 104.25 149.5 101.64 149.35 98.93C149.28 97.74 150.17 96.33 149.85 95.18C146.37 82.59 141.69 70.27 138.21 57.68C137.95 56.73 137.63 55.7 136.82 55.12C142.93 55.89 148.68 56.33 154.43 56.77C155.86 56.88 157.31 57 158.65 57.51C160.25 58.13 161.56 59.28 162.84 60.4C171.21 67.76 179.59 75.13 187.96 82.49C192.67 94.76 194.87 107.96 199.74 120.52C201.34 124.65 203.75 129.89 203.22 134.3Z" fill="#FCEE21"/>
<path d="M189.06 105.4C188.42 102.65 187.81 99.8297 186.33 97.4297C184.18 104.86 186.3 112.72 188.41 120.11C188.76 121.35 189.13 122.62 189.91 123.65C190.26 124.11 190.67 124.51 191 124.98C191.58 125.82 191.83 126.83 192.13 127.8C193.09 130.88 194.71 133.75 196.84 136.17C197.12 136.49 198.45 136.36 198.04 135.26C194.41 125.51 191.41 115.53 189.06 105.4Z" fill="white"/>
<path d="M128.79 187.68C127.82 187.12 126.82 186.56 125.72 186.33C124.61 186.1 123.45 186.22 122.31 186.24C118.48 186.29 114.55 185.12 110.88 186.25C110.54 187.58 110.01 188.86 111.38 190.08C116.92 189.93 122.47 189.7 128.01 189.39C128.69 189.35 129.6 189.04 129.48 188.38C129.42 188.06 129.09 187.85 128.79 187.68Z" fill="white"/>
<path d="M120.48 169.58C131.3 167.1 141.68 162.63 150.92 156.47C144.15 155.79 137.96 160.02 131.52 162.27C129.27 163.06 126.93 163.61 124.78 164.64C122.63 165.66 120.62 167.25 120.48 169.58Z" fill="white"/>
<path d="M106.9 164.5C99.2 163.23 91.03 162.19 83.76 165.13C83.44 165.26 83.11 165.4 82.89 165.66C82.43 166.19 82.38 167.18 82.3 168.24C87.23 167.57 92.25 168.04 97.18 167.39C100.54 166.94 103.84 165.96 106.9 164.5Z" fill="white"/>
<path d="M113.51 163C118.29 162.62 122.7 160.37 126.97 158.17C127.55 157.87 128.15 157.56 128.59 157.07C129.12 156.48 129.5 155.59 130.29 155.48C126.04 156.74 121.71 157.75 117.33 158.49C116.01 158.71 114.64 158.93 113.53 159.68C112.85 160.14 112.29 160.79 111.55 161.14C111.7 161.92 112.03 163.12 113.51 163Z" fill="white"/>
<path d="M102 183.96C99.88 182.62 97.4 181.92 95.23 180.67C94 179.96 92.88 179.07 91.68 178.3C89.4 176.84 86.85 175.8 84.18 175.25C83.52 175.11 82.79 175.02 82.18 175.32C81.57 175.63 81.21 176.5 81.89 178.47C84.05 180.12 86.7 180.99 89.3 181.84C93.72 183.28 98.15 184.71 102.71 185.61C103.18 185.1 102.58 184.33 102 183.96Z" fill="white"/>
<path d="M249.74 115.381C238.99 119.961 227.09 123.651 215.75 120.831C216.11 119.741 217.35 119.281 218.45 118.951C223.81 117.381 229.21 115.931 234.61 114.481C240.84 112.821 247.72 111.211 249.74 115.381Z" fill="#FCEE21"/>
<path d="M208.96 90.3605C214.37 87.8805 219.51 84.8305 224.26 81.2605C225.38 80.4205 226.54 79.4805 227.05 78.1705C226.29 76.9905 224.51 77.2605 223.2 77.7505C217.96 79.6805 213.25 82.7605 208.58 85.8205C207.58 86.4805 206.51 87.2205 206.14 88.3605C205.77 89.5005 206.73 91.3805 208.96 90.3605Z" fill="#FCEE21"/>
<path d="M192.84 66.1899C204.76 56.4699 215.36 45.1499 224.28 32.6299C212.82 38.2099 202.61 46.3099 194.57 56.1999C192.35 58.9199 190.19 62.1299 192.84 66.1899Z" fill="#FCEE21"/>
<path d="M95.4999 44.4806C90.3099 30.0006 83.1799 16.2306 74.3499 3.64062C75.7799 16.3006 80.0099 28.6406 86.6499 39.5106C88.4799 42.5106 90.7899 45.6206 95.4999 44.4806Z" fill="#FCEE21"/>
<path d="M217.69 150.86C227.29 154.64 237.46 156.99 247.75 157.78C248.22 157.82 248.78 157.8 249.03 157.41C249.2 157.14 249.16 156.78 249.05 156.48C248.49 154.92 246.68 154.26 245.09 153.79C240.95 152.58 236.82 151.37 232.68 150.16C228.99 149.08 225.27 147.99 221.43 147.79C220.46 147.74 219.43 147.75 218.57 148.19C217.7 148.64 217.03 149.63 217.69 150.86Z" fill="#FCEE21"/>
<path d="M204.99 179C212.03 182.09 219.44 185.24 227.1 184.61C228.09 183.9 227.67 182.25 226.72 181.49C225.77 180.74 224.51 180.52 223.42 179.98C222.3 179.42 221.37 178.51 220.22 178.01C219.07 177.52 217.8 177.48 216.56 177.29C212.88 176.72 209.15 174.72 205.62 175.93C204.91 176.17 204.19 176.59 203.89 177.28C203.59 177.98 203.99 178.56 204.99 179Z" fill="#FCEE21"/>
<path d="M189.99 195.31C192.97 197.44 194.27 201.15 195.88 204.44C199.36 211.56 204.89 217.5 208.62 224.49C209.18 225.54 209.71 226.72 209.48 227.89C209.25 229.06 207.89 230.05 206.85 229.46C206.18 229.08 205.93 228.27 205.65 227.55C205.13 226.2 204.32 224.99 203.52 223.79C198.07 215.65 192.41 207.64 186.55 199.78C185.64 198.56 184.7 197.27 184.54 195.76C184.51 195.47 184.51 195.15 184.66 194.9C185.35 193.73 187.22 195.35 189.99 195.31Z" fill="#FCEE21"/>
<path d="M165.56 205.7C168.07 215.12 169.04 224.95 168.43 234.67C165.08 232.49 164.57 227.92 163.7 224.01C163.17 221.62 162.39 219.29 161.57 216.98C160.65 214.38 159.65 211.66 160.05 208.93C160.45 206.2 162.81 203.53 165.56 205.7Z" fill="#FCEE21"/>
<path d="M139.92 213.67C138.58 221.34 137.22 229.08 134.35 236.32C134.13 236.87 133.7 237.53 133.13 237.37C132.9 237.31 132.73 237.12 132.58 236.94C131.55 235.76 130.46 234.48 130.31 232.92C130.21 231.86 130.56 230.82 130.87 229.8C131.97 226.21 132.66 222.49 132.92 218.74C133.06 216.79 133.1 214.73 134.1 213.05C135.1 211.37 137.46 210.3 139.92 213.67Z" fill="#FCEE21"/>
<path d="M114.19 212.76C110.03 227.55 103.83 241.76 95.8099 254.87C95.0499 253.35 95.5899 251.54 96.1399 249.93C99.6199 239.76 103.1 229.591 106.58 219.421C107.28 217.371 108 215.28 109.29 213.54C110.58 211.8 112.55 210.43 114.19 212.76Z" fill="#FCEE21"/>
<path d="M90.8499 205.491C85.0799 213.531 81.1999 223.231 73.3899 229.301C74.9199 225.151 76.4499 221.001 77.9799 216.851C78.8999 214.371 79.8099 211.881 80.9899 209.511C81.9699 207.551 83.1799 205.611 85.0199 204.421C86.8499 203.231 89.4499 202.981 90.8499 205.491Z" fill="#FCEE21"/>
<path d="M64.6598 187.64C56.0098 194.14 46.6298 199.67 36.7598 204.11C35.3498 204.75 33.8198 205.37 32.2998 205.12C34.1498 200.83 38.1598 197.94 41.9898 195.27C45.4098 192.89 48.8198 190.5 52.2398 188.12C54.0698 186.85 55.9498 185.55 58.1098 185.01C60.2698 184.49 62.7998 184.89 64.6598 187.64Z" fill="#FCEE21"/>
<path d="M46.22 161.86C39.24 164.63 31.64 165.35 24.17 166.05C21.57 166.29 18.6 166.41 16.74 164.58C23.05 161.17 30.02 158.97 37.14 158.15C39.01 157.94 40.93 157.82 42.74 158.33C44.55 158.85 46.24 160.1 46.22 161.86Z" fill="#FCEE21"/>
<path d="M35.7499 130.05C24.6499 131.61 13.2399 130.89 2.42989 127.96C1.30989 127.66 -0.0401084 127.02 -0.000108366 125.86C0.0198916 125.4 0.279892 124.98 0.599892 124.64C2.10989 123.03 4.62989 123.07 6.82989 123.23C13.7099 123.72 20.5999 124.2 27.4799 124.69C29.6999 124.85 31.9199 125 34.1499 125.16C36.0299 125.29 38.4199 125.87 35.7499 130.05Z" fill="#FCEE21"/>
<path d="M173.99 43.7001C177.1 39.5901 180.2 35.4801 183.31 31.3601C184.97 29.1601 186.72 26.3401 185.56 23.8301C180.01 27.5601 176.55 33.5901 172.2 38.6601C171.45 39.5401 170.64 40.4301 170.29 41.5301C169.93 42.6301 170.16 44.0201 173.99 43.7001Z" fill="#FCEE21"/>
<path d="M151.03 32.8702C151.46 29.9202 152.81 27.1202 152.87 24.1402C152.9 22.1802 152.37 20.2702 152.08 18.3302C151.17 12.2602 152.68 5.90023 150.99 -0.00976562C149.06 5.29023 147.12 10.6502 146.6 16.2702C146.41 18.3702 146.42 20.4902 146.43 22.6002C146.45 26.3602 146.55 30.3802 148.69 33.4802C149.05 34.0002 150.79 34.5302 151.03 32.8702Z" fill="#FCEE21"/>
<path d="M120.99 33.9901C118.61 28.5201 116.68 22.8701 115.2 17.0901C114.97 16.2001 114.7 15.2201 113.92 14.7201C112.88 14.0501 111.38 14.6701 110.8 15.7501C110.22 16.8301 110.37 18.1801 110.83 19.3301C111.29 20.4701 112.01 21.4901 112.58 22.5801C113.82 24.9801 114.27 27.7101 115.01 30.3101C115.75 32.9101 116.92 35.5601 119.12 37.1301C119.73 36.9801 120.23 36.4401 120.99 33.9901Z" fill="#FCEE21"/>
<path d="M67.6898 58.0403C60.3698 50.9203 54.1198 41.9703 49.5598 32.0703C52.8798 33.6203 56.0498 35.9803 58.8098 38.9703C60.1898 40.4703 61.4598 42.1103 62.7298 43.7603C64.6698 46.2703 66.6198 48.8003 68.2398 51.6203C69.2698 53.4303 70.1998 55.4003 67.6898 58.0403Z" fill="#FCEE21"/>
<path d="M39.3 101.83C30.39 101.48 21.6 98.5798 14.22 93.5698C14.04 93.4498 13.85 93.3098 13.75 93.1098C13.39 92.3698 14.51 91.8198 15.33 91.7998C17.29 91.7598 19.24 92.1298 21.16 92.5398C27.47 93.8798 33.69 95.6398 39.76 97.7998C40.56 98.0798 41.43 98.4398 41.82 99.1898C42.22 99.9398 41.77 101.92 39.3 101.83Z" fill="#FCEE21"/>
<path d="M50.2899 75.8404C39.9899 71.4304 30.5999 64.9104 22.8699 56.8004C22.0699 55.9604 21.2399 54.7104 21.8799 53.7504C22.1399 53.3604 22.5799 53.1404 23.0199 53.0204C25.1399 52.4304 27.2799 53.7704 29.0799 55.0404C34.7199 59.0204 40.3499 63.0004 45.9899 66.9904C47.8099 68.2804 49.6299 69.5604 51.4499 70.8504C52.9999 71.9204 54.7399 73.6504 50.2899 75.8404Z" fill="#FCEE21"/>
</g>
<defs>
<clipPath id="clip0_103_2731">
<rect width="249.74" height="254.87" fill="white"/>
</clipPath>
</defs>
</svg>
