<svg width="284" height="109" viewBox="0 0 284 109" fill="none" xmlns="http://www.w3.org/2000/svg">
<path d="M147.52 0.871171C150.247 0.863634 150.497 1.41027 152.684 1.46664C155.728 1.54418 158.84 1.4826 161.932 1.39087C163.476 1.34503 165.015 1.29192 166.555 1.24553C166.649 1.24261 166.743 1.23945 166.836 1.23658C166.565 1.23157 168.067 1.24649 168.58 1.25139C169.258 1.25809 169.851 1.26445 170.414 1.27102C172.604 1.29668 173.824 1.31608 174.816 1.33198C176.734 1.36337 177.618 1.38169 178.373 1.39672C179.812 1.42604 180.431 1.44094 180.961 1.45562C182.678 1.50362 183.02 1.62267 183.448 1.7914C182.606 3.04688 183.493 4.34178 183.594 2.12788C183.662 2.22298 183.716 2.25787 183.764 2.25944C183.788 2.26015 183.81 2.25222 183.832 2.23947C183.825 2.22204 183.923 2.20986 184.699 2.40478C187.068 3.01763 187.956 3.42661 188.42 3.65116C188.499 3.71473 188.67 3.74479 189.405 4.19599C189.942 4.55134 190.322 4.92641 190.679 5.33699C191.389 6.16721 191.899 7.04307 192.792 8.49615C194.617 11.3265 195.676 13.0229 196.294 13.9335C197.083 15.2578 197.126 17.0055 196.486 18.3198C196.573 18.976 196.621 19.3393 196.758 20.776C196.982 23.1634 197.047 23.6681 197.133 24.447C197.29 25.8214 197.388 26.5572 197.477 27.1853C197.501 27.3524 197.524 27.5072 197.546 27.6509C198.166 27.7837 198.798 27.9412 199.39 28.1052C200.671 28.4573 201.75 28.8462 202.384 29.0178C202.535 29.0581 202.809 29.1251 203.164 29.2224C203.455 29.2996 204.241 29.5401 204.042 29.5089C203.902 29.533 204.438 29.6859 205.668 29.7889C206.311 29.8441 207.103 29.8964 208.543 29.9525C208.915 29.9668 209.323 29.9814 209.865 29.998C210.384 30.0142 211.257 30.0358 211.239 30.0421C211.524 30.0606 211.835 30.0853 212.114 30.113C213.232 30.2219 214.188 30.4037 214.615 30.4819C215.466 30.6341 216.696 30.9159 218.009 31.2085C218.664 31.3533 219.333 31.4945 219.952 31.6108C220.627 31.7374 220.403 31.6704 220.622 31.6886C220.982 31.6958 221.426 31.4 222.123 31.4031C222.478 31.4065 222.893 31.484 223.542 31.7482C224.273 32.031 224.769 32.3965 227.367 33.4413C229.773 33.9358 230.802 34.0633 231.961 34.2785C232.52 34.3795 233.046 34.4817 233.607 34.5995C233.401 34.6035 237.564 35.2728 238.705 35.4133C239.688 35.5483 239.648 35.7876 240.035 35.8218C240.794 35.8861 241.512 35.7492 242.033 35.7894C242.945 35.8702 242.91 36.4443 243.067 35.6558C243.272 35.567 243.753 35.5384 244.724 35.6299C245.023 35.858 245.387 36.102 245.865 36.3752C246.743 36.4165 247.552 36.4349 249.914 36.8687C248.054 36.9847 253.214 38.4266 253.587 38.4788C254.76 38.7378 255.818 38.7861 254.996 38.1365C256.473 38.7878 257.676 39.4254 258.795 39.9359C259.079 40.0659 259.335 40.1826 259.628 40.3058C261.514 40.9202 262.02 41.0566 262.71 41.2643C263.964 41.6342 264.679 41.8339 265.289 42.0106C265.002 42.6242 266.366 42.9098 266.935 42.761C267.567 42.6261 267.633 42.1469 267.743 41.8002C268.256 41.8325 268.715 41.871 269.143 41.9124C270.986 42.2668 272.342 42.4958 273.68 42.8234C274.007 42.905 274.366 43.0052 274.692 43.1168C275.019 43.2276 276.003 43.5953 276.49 43.8046C277.59 44.2684 278.319 44.6613 278.883 45.0248C279.556 45.4332 281.489 46.9922 281.65 47.5657C281.982 48.2048 281.943 48.5063 281.951 49.1093C282.388 49.8278 282.539 49.9575 282.73 50.3846C283.302 50.8148 283.457 51.1972 283.468 52.0977C283.471 52.3463 283.464 52.6409 283.456 53.1763C283.452 53.4431 283.448 53.7762 283.446 54.2099C283.444 54.6238 283.451 55.2765 283.432 55.2197C283.377 55.5153 283.3 55.8115 283.22 56.1344C282.895 57.4092 282.518 59.0337 283.13 62.7375C282.603 64.0234 282.474 65.5205 282.477 68.5637C282.34 73.8327 281.958 74.7347 281.946 75.7417C281.936 75.943 282.13 75.9928 282.139 76.2355C281.878 78.0523 281.034 81.1539 281.683 81.1742C281.222 82.454 280.647 83.6693 279.974 84.9757C279.57 86.3375 279.669 86.6333 279.637 87.8173C279.839 87.8384 280.04 87.8592 280.242 87.88C279.718 89.2351 279.388 89.7324 279.24 90.722C279.077 91.6784 279.016 92.975 278.869 94.0161C278.808 94.445 278.532 94.4342 278.356 95.984C278.252 96.9837 277.936 98.1619 277.522 99.0743C277.066 100.012 276.891 100.574 275.983 101.471C275.618 102.275 275.008 102.972 274.445 103.556C271.454 104.931 270.403 104.52 269.377 104.891C269.277 104.921 268.483 105.321 267.341 105.638C266.239 105.961 264.668 106.184 264.488 106.211C263.1 106.423 262.453 106.745 260.889 106.861C260.161 106.902 259.263 106.792 258.423 106.588C257.637 106.393 256.828 106.195 255.315 105.939C254.79 105.845 254.31 105.704 253.833 105.541C253.567 105.421 253.3 105.299 252.921 105.207C252.584 105.124 252.046 105.031 251.08 104.83C250.624 104.738 249.861 104.558 249.242 104.412C248.97 104.376 248.701 104.364 248.369 104.354C247.069 104.332 245.451 104.447 245.178 104.654C244.678 104.44 243.333 104.079 243.224 103.982C242.862 103.84 242.357 103.711 241.507 103.534C240.661 103.358 239.398 103.12 237.552 102.726C236.402 102.479 235.9 102.299 235.474 102.138C235.238 102.044 235.124 101.894 234.892 101.711C234.776 101.62 234.632 101.521 234.428 101.421C234.248 101.327 233.927 101.209 232.933 101.002C229.838 100.35 226.589 100.424 225.565 100.285C224.399 100.132 224.188 99.7744 223.808 99.7128C223.424 99.6477 223.299 99.9264 222.381 99.7655C221.113 99.5327 219.792 99.0655 218.148 98.5536C217.395 98.3108 216.16 97.9861 215.079 97.7026C214.047 97.4306 213.315 97.2409 212.707 97.1113C210.907 96.7317 210.475 96.8725 209.393 97C208.068 97.083 207.062 97.0295 204.471 96.9411C202.453 96.6967 201.514 96.5073 200.54 96.4676C197.6 96.3378 196.981 96.5221 194.762 95.9038C193.508 95.6053 192.285 95.3817 191.104 95.1623C189.928 94.9675 188.808 94.6333 187.265 94.4976C185.888 94.3785 184.836 94.4079 183.749 94.2751C183.021 94.1797 183.057 94.15 182.94 94.1264C182.847 94.1018 182.738 94.076 182.608 94.0502C182.328 93.998 182.057 93.9455 181.085 93.877C180.569 93.8417 179.909 93.8047 178.364 93.7396C177.043 93.6839 173.017 93.5225 173.199 93.5202C169.075 93.2828 158.092 92.1516 161.008 93.9938C159.509 94.3003 148.215 93.5361 145.937 93.4899C143.898 93.4565 142.264 93.7608 140.628 93.7375C135.746 93.6569 131.718 93.39 126.052 93.6628C124.534 93.7339 122.886 94.1208 121.967 94.116C120.866 94.1093 119.668 93.7339 118.22 93.712C114.778 93.661 108.198 93.8136 104.703 93.7909C104.06 93.7856 103.831 93.458 102.918 93.3673C102.461 93.3232 102.01 93.2865 101.552 93.2585C101.329 93.2444 101.094 93.2325 100.867 93.223C100.754 93.2182 100.642 93.2142 100.532 93.2106C100.067 93.2133 98.9808 93.2315 98.3861 93.243C93.5702 93.3457 93.5227 93.4174 92.7366 93.515C91.63 93.7054 91.6562 94.0003 91.7995 94.5083C90.9861 94.3266 91.1925 94.2852 90.6757 94.4825C89.6477 94.7894 88.8512 95.1758 88.0882 95.5869C87.7055 95.7928 87.3246 96.0068 86.9362 96.2144C86.4122 96.4804 86.7601 96.3622 84.9955 97.1398C78.9977 99.6351 77.8368 98.8984 77.2383 99.1212C76.2178 99.2658 75.0676 99.5682 71.1869 100.05C69.4287 100.288 64.9911 100.572 64.7983 100.658C63.8556 100.792 62.6361 101.159 61.0123 101.546C60.6207 101.638 60.1892 101.734 59.8031 101.813C58.2366 102.117 57.4222 102.293 56.7679 102.434C55.4805 102.714 54.7663 102.886 54.1443 103.038C52.9446 103.335 52.3317 103.516 51.8661 103.671C50.7935 104.054 50.6135 104.179 49.4956 104.52C48.4732 104.866 46.8408 105.285 41.4429 106.156C39.9338 106.448 39.8065 106.431 37.7895 106.675C35.0801 107.101 33.3216 107.38 31.8359 107.468C30.6679 107.53 29.5898 107.796 27.9704 108.548C25.5299 108.67 21.439 109.249 17.283 108.264C15.6126 107.791 14.8378 107.261 14.3708 106.924C13.9087 106.572 13.8153 106.362 13.039 105.786C12.5846 105.826 12.0722 105.838 11.484 105.793C10.8445 105.447 9.76779 105.122 8.82768 103.914C8.74532 103.466 8.75272 103.054 8.81149 102.689C8.1209 101.106 8.24683 99.5573 7.98218 98.1403C7.70192 96.6874 7.2976 96.0848 6.97757 95.6235C6.70111 95.2405 6.07778 94.5221 5.37577 92.9051C4.5679 90.7871 4.60361 90.4072 4.39045 89.5786C4.11798 88.3357 3.64609 86.1117 3.06176 83.4731C2.865 82.5614 2.57756 81.3789 2.23692 79.7191C1.86498 78.0255 1.64931 75.945 1.67797 74.4178C1.69694 72.8556 1.79248 71.7887 1.79575 70.8688C1.79818 70.6465 1.79838 70.4387 1.79334 70.2065C1.77638 69.784 1.70851 68.6078 1.66867 67.9266C1.58053 66.4282 1.50432 65.2977 1.4455 64.4426C1.21443 61.1896 1.20129 60.6741 1.20063 59.9142C1.20592 58.5334 0.85822 58.8163 1.51885 57.2599C1.36157 56.7112 1.17501 56.0885 0.984691 55.3708C0.709342 54.9492 0.43156 54.4853 0.162612 53.9609C-0.0159463 52.6086 -0.0585508 51.3797 0.0906328 50.1353C0.249141 48.8692 0.557154 47.3825 1.50542 45.7993C2.78017 43.5953 5.34036 42.349 7.23483 41.4248C8.74188 40.6066 11.526 39.127 12.9729 38.5856C13.5086 38.3455 15.0086 37.6766 16.11 37.3623C17.2574 37.0113 18.3521 36.7472 19.4183 36.5367C20.7751 36.302 20.4378 36.2871 22.2282 35.9764C22.5915 35.9157 23.3352 35.8472 23.55 35.8362C23.6978 35.8248 23.8503 35.8133 24.0095 35.8018C24.3274 35.7787 24.6741 35.7551 25.043 35.7322C26.5228 35.6409 28.3565 35.5591 30.5682 35.5469C31.5427 35.5393 33.7227 35.6159 34.3087 35.6778C35.1903 35.7263 36.0729 35.6733 36.8979 35.527C38.1017 35.3123 38.8831 35.0346 39.7901 34.8061C40.4835 34.595 40.9823 34.4099 42.3445 34.3811C43.4814 34.3529 45.2894 34.3993 47.672 34.3099C49.0384 34.2877 50.7051 34.2153 52.6782 34.1263C54.6006 34.0393 57.1077 33.9473 59.4043 33.9417C61.5596 33.9355 63.0888 33.9577 64.2407 33.9272C65.5872 33.8936 66.115 33.637 66.8568 33.6004C67.2512 33.5715 69.5608 33.4997 70.4475 33.3741C71.4835 33.2501 72.1109 33.0988 72.7374 32.9371C74.0319 32.5989 74.7457 32.3012 76.9631 31.691C83.3162 31.2996 82.5779 32.3428 84.1235 32.8375C84.7279 32.9868 85.4 33.5206 86.6032 33.5301C87.6106 32.5748 87.7641 31.5604 88.0827 31.0601C88.124 31.0078 88.1677 30.9825 88.2132 30.9764C88.2036 30.9737 88.1937 30.9706 88.184 30.9657C87.8307 30.7476 87.3789 28.1897 86.9521 28.0215C86.5343 27.8197 83.868 27.7632 83.6493 25.9789C83.5804 25.3603 83.5791 24.6701 83.6675 23.9838C83.7011 23.7034 83.6679 24.0997 83.7791 23.193C83.8822 22.3501 83.9693 21.5991 84.0388 21.0023C84.1778 19.8003 84.2566 19.1854 84.335 18.7062C84.6471 16.9171 84.8598 16.8296 85.1502 15.7306C85.2921 15.2325 85.4544 14.6048 85.7594 13.8564C85.9946 13.2008 86.8031 11.8582 86.8856 11.6904C87.5989 10.4469 88.3798 8.60592 89.6952 6.74489C90.3185 5.87433 91.0494 5.10362 91.8043 4.43742C92.1975 4.09379 92.4902 3.8353 92.9966 3.4576C93.8546 2.87963 94.6311 2.53668 95.3678 2.27769C96.609 2.17276 97.4093 2.352 97.8871 2.47813C98.4466 2.60055 98.0892 2.806 98.2063 2.96821C98.2506 2.80146 98.5498 3.23299 98.7952 3.19862C98.9973 3.1698 99.0922 2.89224 99.6335 2.86662C100.028 2.85095 100.138 2.91233 102.27 2.95444C102.888 2.96469 103.461 2.97418 105.577 2.9751C106.134 2.97526 106.845 2.97428 107.972 2.97235C108.62 2.971 109.322 2.96964 110.344 2.96752C110.869 2.96643 111.433 2.96556 112.069 2.96442C112.962 2.96254 112.339 2.96505 112.474 2.96546C112.583 2.97163 112.695 2.97738 112.81 2.98233C113.267 3.00216 113.77 3.01086 114.271 2.99852C117.626 2.91913 118.244 2.20654 120.285 2.11307C122.408 2.0165 125.734 2.40084 128.487 2.14992C128.83 2.07152 129.176 1.99305 129.522 1.9147C129.274 1.73753 129.026 1.56044 128.78 1.38329C130.168 1.30072 130.764 1.66388 132.045 1.67086C133.549 1.67933 134.322 1.33578 135.341 1.33818C136.175 1.34046 137.307 1.61754 138.393 1.60164C139.977 1.57993 139.632 1.18102 140.486 1.10777C140.822 1.07859 147.151 0.872507 147.52 0.871171ZM153.88 6.82238C152.741 6.83016 151.995 7.25074 149.694 7.34758C142.017 7.66506 131.874 7.20444 124.849 7.42232C121.37 7.52914 116.644 8.07434 113.337 8.20273C113.17 8.20913 112.991 8.21429 112.803 8.21857C112.708 8.22071 112.612 8.22274 112.513 8.22442C112.501 8.22463 112.489 8.22457 112.476 8.22477C112.47 8.22487 112.464 8.22501 112.458 8.22511C112.339 8.22554 111.928 8.22695 111.672 8.22787C110.547 8.23183 109.681 8.23541 108.942 8.23889C107.551 8.24553 106.797 8.25056 106.117 8.25507C103.736 8.27166 103.088 8.2806 102.38 8.28814C101.72 8.29558 101.303 8.30074 100.965 8.30501C99.684 8.3217 99.4224 8.32249 99.1679 8.32499C98.7388 8.32988 98.8226 8.33729 98.8128 8.45517C98.8206 8.59781 98.8761 9.05335 98.8775 9.1109C98.8774 9.13603 98.8588 9.08194 98.8342 9.02033C98.8105 8.95721 98.8156 8.8909 98.268 8.92665C96.5921 8.99591 96.608 9.04893 95.7012 9.58858C95.0119 10.0349 94.5348 10.4118 93.5435 12.0693C93.1975 12.6435 92.8062 13.3907 92.2896 14.2648C91.7927 15.1169 90.955 16.2588 90.7284 16.8423C90.1747 18.4369 90.3689 17.2346 89.9928 20.3986C89.9438 20.8505 89.8818 21.4349 89.7968 22.1846C89.7544 22.5582 89.7069 22.9678 89.6535 23.4103C89.5999 23.8575 89.5412 24.3186 89.5388 24.2782C89.4903 24.4736 89.4472 24.6247 89.4025 24.8675C89.3132 25.3312 89.2399 25.9915 89.1586 26.8753C89.019 28.5175 88.7224 30.8896 88.2759 30.9792C88.6382 31.0634 89.1004 32.1788 89.4421 31.6397C89.4833 32.0877 89.5168 32.4577 89.5123 32.913C89.5062 33.1481 89.5062 33.3828 89.4149 33.8174C89.36 34.0432 89.3078 34.3159 89.0367 34.803C88.8676 35.3911 87.114 36.4666 86.8208 36.3983C86.6545 36.4547 86.2221 36.5802 85.8083 36.6876C84.9632 36.907 83.9488 37.1295 82.7008 37.272C80.0157 37.491 77.6279 37.661 76.2096 37.6581C74.9233 37.9238 74.087 38.2246 71.8419 38.5573C70.7286 38.7147 69.2019 38.8122 67.5404 38.8404C66.8096 38.8554 66.0852 38.8655 65.2333 38.878C63.5341 38.9041 61.5817 38.9267 59.0902 39.0243C56.2577 39.1354 54.2522 39.3332 52.2532 39.5265C51.5152 39.3588 50.8073 39.189 50.1266 39.013C50.1265 39.0125 50.1266 39.012 50.1266 39.0116C47.7623 38.9694 44.9579 39.6748 43.4745 39.8326C41.369 40.0565 40.5207 40.0638 38.344 40.5187C37.298 40.7384 35.8858 41.077 34.2288 41.1937C32.3631 41.2904 30.3876 41.401 28.996 41.4999C25.969 41.7654 24.8279 41.5755 21.9579 42.1573C19.5683 42.5343 17.0744 43.067 14.429 44.221C13.04 44.7284 12.2735 45.128 10.1912 46.2505C8.32795 47.1738 7.34494 47.6524 6.94278 48.0513C6.54134 48.3944 6.07745 49.14 5.89168 50.2021C5.70294 51.2114 5.72184 52.2721 5.93163 53.7856C6.12635 55.1881 6.39769 56.4572 6.51952 57.7517C6.61128 58.9787 6.56968 58.8676 6.61871 59.5467C6.69143 60.7703 6.86157 61.9352 7.23036 67.1803C7.439 70.2581 7.48294 70.9226 7.46765 72.5935C7.45087 74.1732 7.43513 75.918 7.93362 78.1029C8.18764 79.2534 8.42826 80.2132 8.62552 81.0216C8.82305 81.8273 8.97643 82.4973 9.20548 83.5423C9.60802 85.3935 9.8162 86.5651 9.85915 87.196C9.89985 87.8372 9.5811 88.084 9.69901 88.6931C9.97776 89.8693 10.5603 91.6849 11.1761 92.5772C11.7221 93.5411 12.4333 94.4857 12.9412 97.383C13.0763 99.0932 13.319 100.017 13.3965 100.376C14.7427 101.048 16.0477 101.439 16.7134 101.737C17.6163 102.179 17.9183 102.817 20.9801 102.916C23.6485 102.962 25.8736 102.849 27.2392 102.672C28.6426 102.497 29.6593 102.302 30.7142 102.132C31.7245 101.988 32.62 101.746 34.4716 101.272C35.2682 101.062 36.9926 100.692 37.5743 100.59C37.8451 100.531 38.111 100.46 38.5696 100.326C39.0374 100.193 39.6797 99.9755 41.1292 99.6508C41.8471 99.4913 42.7911 99.3121 43.8134 99.1511C44.3156 99.0695 44.5706 99.0097 44.9695 98.9156C46.4032 98.565 48.4264 97.9318 49.8431 97.7846C49.8412 97.7682 50.4547 97.6351 51.6478 97.3613C52.5246 97.1645 53.4196 96.9502 55.9627 96.42C56.3074 96.3488 56.6694 96.2747 57.1726 96.1741C57.5426 96.0987 58.8419 95.8492 58.7472 95.8662C59.0498 95.8058 59.3274 95.7459 59.6189 95.6796C60.1957 95.5485 60.7604 95.4039 61.3267 95.2605C62.4586 94.9698 63.6147 94.7163 64.7346 94.6013C65.1066 94.5553 66.5072 94.4634 67.5039 94.3709C68.5356 94.2788 69.4171 94.1857 70.1551 94.0978C75.5921 93.3881 75.7584 93.0842 78.4761 92.8018C79.1716 92.6763 80.2782 92.5048 82.9536 91.3205C83.8176 90.9324 83.6532 90.9982 83.8966 90.8825C84.0823 90.7919 84.2783 90.6944 84.4882 90.5897C84.9075 90.3811 85.3816 90.1419 85.9409 89.8854C86.499 89.6296 87.1428 89.36 87.8582 89.1147C88.5482 88.8717 89.5204 88.6222 89.3883 88.6528C89.5366 88.6081 89.7542 88.5464 90.0668 88.4779C90.3948 88.4079 90.775 88.3311 91.599 88.2358C92.0268 88.1878 92.5417 88.1353 93.5442 88.0694C94.5951 88.0057 95.9713 87.9117 100.425 87.8208C102.818 87.7634 105.132 87.7271 107.414 87.6968C116.597 87.5838 124.794 87.5454 133.61 87.59C138.253 87.6181 142.38 87.7229 146.679 87.7595C151.201 87.7992 155.629 87.8039 160.013 87.838C163.4 87.8647 167.217 87.8241 170.97 87.8614C171.913 87.8713 172.85 87.8866 173.774 87.9131C173.679 87.9074 175.365 87.97 176.23 87.9995C177.192 88.0328 177.954 88.0583 178.559 88.0787C179.769 88.1195 180.418 88.1427 180.931 88.1648C182.798 88.2467 183.125 88.3243 183.664 88.4421C184.122 88.5419 184.051 88.7437 184.758 88.8856C185.528 89.0685 186.137 88.8703 189.647 89.1787C189.695 89.3478 189.738 89.5168 189.779 89.6857C191.073 89.8432 192.315 89.8977 193.731 90.0407C195.073 90.1468 197.262 90.6149 197.143 90.5174C197.372 90.5343 197.836 90.559 198.826 90.5811C199.906 90.6209 200.964 90.5593 204.572 90.8522C210.705 91.5892 209.863 91.7015 211.165 91.8609C212.1 92.039 211.654 92.2612 212.719 92.4626C213.2 92.5558 213.87 92.6674 214.91 92.8552C215.848 93.0234 217.9 93.4123 218.994 93.6222C221.403 94.1006 222.882 94.3682 223.681 94.4814C224.361 94.6181 227.28 95.0691 230.83 95.4957C231.568 95.5846 232.413 95.6952 233.513 95.8776C233.993 95.954 235.08 96.1631 235.203 96.1845C235.497 96.2402 235.777 96.2993 236.049 96.3601C237.252 96.6324 237.537 96.7386 238.997 96.9945C243.005 97.7342 243.689 97.7342 244.76 97.8985C246.196 98.1738 248.356 98.0849 250.914 98.7527C254.453 99.7363 254.166 99.6444 256.245 100.016C257.185 100.153 259.348 100.721 260.008 101.063C260.834 101.421 261.311 101.539 261.477 101.529C263.319 101.424 263.741 100.975 264.558 100.809C266.81 100.309 266.502 100.22 270.703 98.6183C271.837 98.1954 272.276 98.0388 272.443 97.9509C272.593 97.8418 272.323 98.2314 272.67 97.6867C273.155 96.7983 273.395 96.6713 273.469 95.009C273.673 86.0525 276.646 79.4839 277.556 73.864C277.673 73.3345 277.808 72.7426 277.943 71.7391C278.01 71.2315 278.077 70.6141 278.125 69.7894C278.176 68.9972 278.187 67.7568 278.189 67.4351C278.206 65.4872 278.22 63.5825 278.224 61.6981C278.229 59.817 278.228 57.9488 278.194 56.1657C278.189 55.9444 278.184 55.7317 278.178 55.5079C278.171 55.2815 278.113 53.2343 278.109 52.8977C278.097 52.3321 278.089 52.0401 278.082 51.8814C277.288 50.4004 277.144 50.4069 274.069 49.0518C273.684 48.8945 272.747 48.5542 272.755 48.5631C272.629 48.5224 272.42 48.4628 272.186 48.4064C271.716 48.2923 271.121 48.1778 270.435 48.0741C269.123 47.8557 266.884 47.7319 266.718 47.689C266.137 47.6154 265.316 47.5073 263.622 47.1569C262.437 46.9815 256.625 45.307 256.235 45.0599C254.906 44.5546 253.705 44.0334 252.559 43.6224C251.979 43.4131 251.443 43.2357 250.859 43.0634C248.563 42.4442 248.216 42.356 247.496 42.1632C246.869 41.9958 246.405 41.8717 246.017 41.7668C243.678 41.1311 244.482 40.9122 243.393 40.6537C242.407 40.423 242.215 40.6627 242.026 40.6416C241.673 40.6068 241.874 40.6587 241.041 40.6237C240.586 40.6023 240.074 40.607 238.194 40.4367C237.705 40.3904 237.107 40.329 236.277 40.2266C235.857 40.1746 235.385 40.1129 234.829 40.0344C234.367 39.9713 233.21 39.7921 233.325 39.812C232.877 39.7495 232.409 39.6847 231.912 39.6129C230.921 39.4697 229.805 39.2976 228.584 39.0615C227.973 38.9436 227.346 38.8118 226.698 38.6634C226.537 38.6277 225.498 38.3819 224.874 38.2305C224.229 38.0742 223.75 37.9555 223.337 37.852C220.293 37.0827 219.933 36.9479 219.461 36.7668C219.253 36.6924 219.536 36.6565 218.994 36.4548C218.525 36.2673 218.122 36.0976 217.758 36.017C217.392 35.9365 216.498 35.953 215.514 35.758C214.427 35.5436 213.586 35.4087 212.841 35.3324C212.469 35.2938 212.12 35.2684 211.781 35.2525C211.608 35.2443 211.458 35.2397 211.291 35.2359C211.151 35.2325 210.915 35.2304 209.919 35.2129C207.101 35.1651 206.369 35.143 205.438 35.1047C204.59 35.0677 204.032 35.0257 203.551 34.9652C202.548 34.8516 201.851 34.5113 200.131 34.2861C199.299 34.1646 198.319 34.0478 197.07 33.9045C196.468 33.8296 195.626 33.762 195.057 33.6496C194.365 33.5258 193.52 32.6518 193.363 32.3468C192.603 30.9891 192.577 30.3229 192.206 27.8686C192.122 27.2361 192.034 26.5248 191.912 25.3886C191.851 24.8179 191.785 24.1706 191.68 23.0632C191.634 22.5821 191.517 21.2733 191.472 20.7591C191.439 20.3903 191.409 20.0575 191.381 19.76C191.163 17.4153 191.038 17.268 190.975 17.0631C190.936 16.9717 190.957 17.0179 190.916 16.9494C190.754 16.6963 190.444 16.1778 190.21 15.7688C189.717 14.9105 189.21 13.9667 188.553 12.9275C187.622 11.4727 186.917 10.2821 186.556 9.8827C186.448 9.75438 186.364 9.67472 186.315 9.63336C186.272 9.62196 186.103 9.55432 185.857 9.45461C185.163 9.17666 184.592 8.84717 183.113 8.39524C182.034 8.09253 182.427 8.21883 182.324 8.19136C182.292 8.18677 182.266 8.18329 182.241 8.18034C182.14 8.16971 182.093 8.15748 181.653 8.10595C181.419 8.0802 181.107 8.04541 180.349 7.99368C179.961 7.96773 179.472 7.93754 178.587 7.89793C177.597 7.85769 176.825 7.81157 172.842 7.72814C171.783 7.707 170.414 7.68266 168.404 7.65651C167.923 7.65026 167.357 7.64344 166.803 7.63722C166.751 7.63647 166.73 7.63608 166.693 7.6355C166.624 7.6344 166.555 7.63317 166.486 7.63206C166.209 7.62761 165.928 7.6232 165.644 7.61863C165.076 7.6095 164.542 7.60057 163.974 7.59107C162.891 7.57256 161.786 7.55298 160.703 7.53184C156.948 7.45869 154.4 6.81859 153.88 6.82238ZM189.825 94.3475C190.462 94.3744 191.113 94.3973 191.784 94.4267C191.437 94.238 191.095 94.051 190.761 93.8646C190.438 93.8118 190.12 93.7593 189.808 93.7058C189.813 93.9196 189.819 94.1336 189.825 94.3475ZM278.07 51.6593C278.058 51.6358 278.06 51.6466 278.071 51.6789C278.071 51.6722 278.07 51.666 278.07 51.6593ZM197.669 28.3921C197.749 28.8297 197.817 29.1044 197.885 29.2968C197.994 29.613 198.119 29.6472 198.128 29.3612C198.202 29.2676 197.989 28.8347 197.669 28.3921ZM196.815 27.4956C196.647 27.4277 195.892 27.3675 196.434 27.4394C196.564 27.4602 196.697 27.4833 196.832 27.508C196.826 27.5039 196.821 27.4995 196.815 27.4956ZM194.257 11.5971C193.805 11.5378 194.424 12.7153 194.91 13.3484C195.409 13.9992 195.876 14.2547 195.707 13.607C195.664 13.3841 194.532 11.6937 194.257 11.5971Z" fill="#31260C"/>
<path d="M87.7065 25.6475C87.521 27.2818 87.8058 28.887 87.8058 32.396C87.8058 32.9707 87.969 34.5197 87.7065 34.5577C86.2465 34.895 84.6735 35.3763 82.5075 35.5998C79.7539 35.9706 77.8425 36.3542 76.3659 36.68L76.2341 36.709C74.1241 37.1748 72.9135 37.442 69.3674 37.4977C67.0193 37.5345 62.8906 37.5345 59.3451 37.7244C55.7995 37.9143 52.9241 38.283 50.0432 38.4673C47.1623 38.6516 44.3591 38.6067 42.656 38.6896C40.3616 38.8013 38.8811 39.3631 36.3557 39.4347C32.4505 39.5452 28.8052 39.7953 26.5791 39.9184C25.2454 39.9921 24.446 40.2519 23.6424 40.3652C22.0416 40.5908 19.576 41.1078 17.9107 41.8185C16.5992 42.3781 14.9188 42.8766 13.3988 43.7588C10.643 45.3585 8.64752 45.6972 7.37224 47.854C6.55454 49.237 6.38056 51.006 6.44618 52.3257C6.55901 54.5944 7.2016 56.6543 7.33984 58.3958C7.52863 60.774 7.87933 62.5747 8.30834 69.2761C8.49377 72.1726 7.99313 73.8904 8.79315 77.4977C9.16402 79.1699 9.47861 80.3073 9.79851 81.6275C10.3615 83.951 11.0564 86.9451 11.4361 88.665C11.7735 90.1932 12.4378 91.2227 12.8894 92.0877C13.3374 92.9457 13.7947 94.1065 14.0054 95.7037C14.231 97.4139 14.0074 99.2419 15.051 99.8324C16.1703 100.466 17.2303 100.857 18.1419 101.247C19.45 101.806 20.7519 102.699 23.8959 102.698C29.4992 102.695 30.8196 102.281 34.1942 101.765C35.9111 101.502 37.8007 100.87 40.4498 100.424C42.0104 100.162 42.8691 99.677 46.6708 99.1208C48.7172 98.8214 50.4588 98.1331 52.4002 97.93C53.1051 97.8563 56.4887 97.0429 61.2005 96.1773C63.8334 95.6936 65.1376 95.1435 67.4226 94.9877C73.4492 94.5766 75.4918 94.135 78.2079 93.684C79.9907 93.388 81.3671 93.7181 86.1413 91.5962C87.8102 90.8545 89.1003 90.0843 91.396 89.5118C92.3009 89.2861 93.6279 88.9912 101.622 88.8438C109.615 88.6963 123.845 88.6963 131.225 88.7343C138.606 88.7723 139.122 88.846 146.216 88.9209C153.311 88.9957 166.585 88.9329 173.369 89.1822C180.451 89.4425 181.525 89.4199 182.915 89.6659C184.178 89.8894 186.251 89.6805 188.502 90.1128C190.433 90.4836 192.96 90.8194 195.202 91.3795C196.392 91.6767 199.735 91.4752 203.888 91.9001C206.072 92.1235 207.409 92.5155 208.717 92.644C210.241 92.7937 212.466 93.3016 215.682 93.9856C218.146 94.5096 220.191 95.1052 221.861 95.325C223.574 95.5507 227.643 95.6339 232.626 96.6298C233.923 96.8889 234.8 97.2041 236.016 97.4497C239.138 98.0797 240.785 98.3263 242.117 98.6025C243.905 98.9734 246.194 99.0128 247.851 99.4962C249.642 100.019 251.114 100.359 252.018 100.538C253.141 100.761 254.659 100.893 255.966 101.246C256.935 101.507 257.963 101.894 259.21 101.841C261.935 101.726 264.047 101.386 265.574 100.758C266.841 100.238 267.819 99.7981 269.707 99.0828L269.781 99.0549C270.832 98.657 271.806 98.2885 272.348 97.4061C272.945 96.4354 273.55 95.2665 273.649 93.7879C273.838 90.993 273.92 88.7256 274.358 86.9783C274.656 85.7875 274.562 84.8255 275.066 83.5522C275.626 82.1369 276.132 80.6339 276.405 79.3085C276.667 78.0395 276.956 76.5251 277.337 74.8759C277.708 73.2718 278.294 71.5025 278.341 67.4485C278.378 64.2995 278.444 58.3998 278.34 55.3384C278.228 52.0542 278.307 51.5498 278.079 51.1594C277.556 50.2647 277.037 49.1004 275.581 48.293C274.575 47.7356 273.31 47.0972 271.148 46.3571C269.732 45.8723 267.053 45.5142 264.819 45.3909C264.151 45.354 260.822 44.9356 256.429 43.5991C253.869 42.8205 252.171 41.9463 249.338 41.2119C244.312 39.9094 240.83 39.1619 240.394 39.0604C239.272 38.799 237.579 38.9454 232.002 38.0908C229.814 37.7557 227.917 37.494 225.29 36.8956C221.535 36.0399 219.176 35.4147 218.229 35.2233C214.544 34.4782 212.639 33.8654 209.688 33.8102L209.473 33.8062C205.641 33.7346 202.91 33.6836 202.15 33.474C200.398 32.9903 197.575 32.7748 194.816 32.4697C194.149 32.396 193.67 28.2954 193.158 22.637C192.897 19.7483 192.77 18.6214 192.225 17.7766C191.48 16.6205 190.79 15.2482 189.803 13.7529C188.647 12.0002 187.742 10.2479 186.527 9.81079C185.595 9.47567 184.421 8.8146 182.347 8.3195L182.324 8.31411C181.534 8.12514 180.318 7.83441 166.49 7.68836C152.53 7.5409 126.505 7.5409 113.34 7.57889C100.175 7.61687 99.881 7.69714 99.5809 7.72746C98.4639 7.84028 97.107 7.7712 95.6332 8.66021C94.5184 9.33269 93.6134 10.0662 92.8048 11.196C91.6855 12.7599 91.0049 14.3708 90.1238 15.6263C89.1564 17.0047 88.6803 18.0359 88.4136 19.2009C88.1153 20.5034 88.1861 21.4205 87.7065 25.6475Z" fill="#F0BE39"/>
<path d="M147.729 4.98732C150.375 4.98459 150.615 5.34959 152.737 5.38958C155.689 5.44474 158.707 5.40795 161.703 5.35307C163.2 5.32566 164.688 5.29382 166.183 5.26732C179.71 5.38553 178.733 5.4781 180.175 5.50633C181.834 5.5703 182.096 5.66487 182.473 5.79011C181.796 6.60803 182.644 7.51669 182.613 6.02224C182.675 6.08885 182.727 6.11565 182.772 6.11936C182.795 6.12135 182.814 6.11698 182.834 6.10971C182.95 6.127 182.453 5.9845 183.323 6.18789C185.672 6.76504 186.501 7.18098 187.072 7.42979C187.151 7.48182 188.333 8.00052 188.905 8.66274C189.553 9.33506 190.047 10.0846 190.905 11.4379C192.691 14.1236 193.734 15.8638 194.319 16.7075C194.977 17.7654 195.078 19.3185 194.694 20.6106C194.794 21.2457 195.199 25.6399 195.314 26.5015C195.462 27.7718 195.557 28.4538 195.644 29.0463C195.71 29.4865 195.768 29.8375 195.822 30.1212C197.536 30.3739 200.43 31.1023 201.318 31.3603C201.457 31.3947 201.709 31.4529 202.031 31.5387C202.387 31.6312 202.714 31.7417 202.671 31.7423C202.763 31.7945 203.306 31.9057 204.621 31.9916C205.307 32.0365 206.113 32.078 207.712 32.1266C210.062 32.1881 210.309 32.2075 210.878 32.2599C211.934 32.3582 212.84 32.5253 213.249 32.5988C214.059 32.7419 215.248 33.0073 216.534 33.2859C217.177 33.4242 217.828 33.5585 218.44 33.673C218.757 33.7269 218.783 33.7201 218.944 33.7353C219.289 33.7626 219.699 33.5912 220.382 33.6433C220.733 33.6716 221.145 33.7544 221.815 33.9846C222.524 34.2223 223.286 34.5687 225.71 35.4077C227.814 35.8343 228.999 36.0005 230.095 36.1898C230.64 36.2822 231.153 36.3728 231.697 36.4753C231.444 36.4649 235.733 37.1121 236.748 37.2179C237.694 37.3332 237.658 37.4908 238.03 37.5223C238.759 37.5817 239.448 37.5031 239.92 37.5437C240.734 37.621 240.725 38.0165 240.822 37.4875C241.02 37.4412 241.47 37.4483 242.393 37.5674C242.691 37.7403 243.05 37.9278 243.519 38.1422C244.343 38.2214 245.134 38.2878 247.301 38.7105C246.663 38.7502 246.843 38.9106 248.268 39.3307C248.462 39.3874 248.673 39.4477 249.02 39.5422C249.314 39.6233 249.84 39.7643 249.794 39.7564C249.909 39.7945 250.034 39.8326 250.166 39.8708C250.433 39.9473 250.719 40.021 250.995 40.0863C252.103 40.3491 253.082 40.4739 252.262 39.9538C253.68 40.5224 254.884 41.1012 256.017 41.5652C256.303 41.6829 256.574 41.7913 256.86 41.9C257.975 42.2647 259.237 42.6142 259.825 42.7761C261.136 43.134 261.86 43.3119 262.485 43.4694C262.244 43.8701 263.618 44.1407 264.204 44.0655C264.86 44.0043 264.921 43.6829 264.921 43.4477C265.247 43.4656 265.822 43.5066 266.213 43.542C268.004 43.8191 269.311 44.0267 270.558 44.3101C271.353 44.4178 274.604 45.6859 275.485 46.2649C276.148 46.6569 275.856 46.5056 276.797 47.1159C277.527 47.6456 277.795 48.0171 277.996 48.2982C278.362 48.8546 278.379 49.1121 278.482 49.6496C278.912 50.3347 279.092 50.5684 279.236 50.8671C279.649 51.2016 279.768 51.5221 279.783 52.3039C279.792 52.6969 279.768 53.4749 279.786 55.3119C279.752 55.5921 279.704 55.8806 279.652 56.189C279.444 57.4188 279.199 58.9915 279.6 62.5807C279.423 63.1538 279.311 63.9358 279.242 64.8541C279.208 65.3115 279.184 65.8046 279.17 66.3206C279.151 66.9037 279.17 67.0577 279.13 68.5399C278.919 73.1898 278.522 73.9296 278.469 74.8417C278.434 75.0941 278.647 74.758 278.508 75.557C278.185 77.4299 277.488 80.1795 277.874 80.3059C277.45 81.4952 276.912 82.6917 276.267 83.9885C275.986 84.8688 276.067 85.6989 275.938 86.835C276.071 86.8548 276.205 86.8743 276.339 86.8935C275.84 88.0719 275.714 88.2967 275.555 89.4958C275.414 90.5721 275.349 92.008 275.219 93.1695C275.149 93.605 275.054 93.8383 274.717 95.1436C274.227 96.6666 273.594 98.5944 271.792 99.4892C271.301 99.997 270.764 100.408 270.245 100.826C267.146 102.146 266.875 101.742 265.846 102.098C265.747 102.132 264.923 102.461 263.724 102.712C262.565 102.97 260.839 103.131 260.636 103.149C259.073 103.31 258.346 103.456 257.291 103.349C256.17 103.234 255.237 102.9 252.296 102.463C251.103 102.239 251.104 102.054 250.119 101.819C247.87 101.117 243.05 100.791 242.325 101.03C241.526 100.787 241.457 100.684 240.992 100.553C240.551 100.424 239.95 100.296 238.89 100.091C238.359 99.9876 237.7 99.8619 236.869 99.6972C236.477 99.6195 235.901 99.5038 235.566 99.4341C235.356 99.3897 235.135 99.3386 234.938 99.2898C234.136 99.0895 233.521 98.8989 233.148 98.7767C232.653 98.6315 232.953 98.3414 229.796 97.7738C227.387 97.3489 224.403 97.3396 223.514 97.2345C222.48 97.1141 222.298 96.8684 221.959 96.816C221.73 96.776 221.2 96.8953 220.41 96.7382C219.166 96.4909 217.801 96.053 216.038 95.5803C213.847 95.0301 211.852 94.5253 210.912 94.3408C207.888 93.8331 208.612 94.2753 202.068 93.8507C200.587 93.7149 199.705 93.5786 198.873 93.5521C197.615 93.515 196.762 93.4957 196.049 93.4413C195.304 93.3916 194.98 93.2909 193.531 92.9677C190.914 92.4722 189.403 92.0161 186.08 91.7117C184.758 91.6314 183.8 91.6574 182.81 91.5078C182.191 91.3949 182.295 91.3966 181.938 91.3411C181.612 91.2938 181.307 91.2481 180.169 91.1848C179.561 91.1516 178.767 91.1164 176.878 91.0449C175.969 91.0103 174.54 90.957 173.285 90.9072C173.018 90.8938 172.728 90.8808 172.462 90.8689C168.423 90.6742 157.768 89.9099 160.601 91.1414C159.146 91.3424 148.168 90.8259 145.988 90.7849C144.009 90.7563 142.43 90.9525 140.846 90.9292C136.11 90.8496 132.185 90.6632 126.692 90.8414C125.219 90.8878 123.62 91.1453 122.728 91.142C121.66 91.1374 120.499 90.8872 119.094 90.8731C115.754 90.8397 109.376 90.9489 105.98 90.9444C105.363 90.9426 105.143 90.7248 104.25 90.6675C103.292 90.6133 102.837 90.5696 101.355 90.5728C98.0499 90.6263 96.8868 90.679 95.9605 90.7229C95.0907 90.7668 94.6307 90.8069 94.272 90.849C92.9851 91.0127 92.9908 91.2209 93.122 91.5539C92.2197 91.4694 92.1782 91.5008 91.9418 91.5987C90.1475 92.062 88.6159 93.0113 86.9697 93.7543C80.8564 96.4052 79.6453 95.7002 78.8546 95.9271C77.9768 96.0406 76.7828 96.3271 73.4427 96.7523C72.5697 96.8594 71.4815 96.9763 70.1503 97.0915C69.4868 97.149 68.7622 97.2064 68.0033 97.261C67.0649 97.3263 67.2961 97.3138 66.9522 97.3505C65.942 97.4635 64.8507 97.758 63.3832 98.113C63.0224 98.1991 62.6531 98.2835 62.2756 98.3637C62.084 98.4044 61.8951 98.443 61.7129 98.4791C61.7382 98.4756 61.1072 98.5928 60.8043 98.6513C60.4861 98.7124 60.2207 98.7644 59.9723 98.8135C58.168 99.1728 57.4306 99.3406 56.6984 99.504C55.333 99.8133 54.6668 99.9873 54.1578 100.13C52.8987 100.487 53.2097 100.528 51.9719 100.789C51.4426 100.917 50.8301 101.085 49.8297 101.333C49.3278 101.455 48.7229 101.599 47.9566 101.731C47.4011 101.834 45.3887 102.078 44.3101 102.296C42.4368 102.66 41.901 102.79 40.9098 102.883C38.1073 103.28 36.3203 103.675 34.8515 103.836C33.5472 103.959 32.655 104.153 31.2798 104.712C30.2532 104.817 28.9303 104.938 27.3498 104.985C25.7652 105.007 24.1184 105.14 21.899 104.86C18.1097 104.157 18.0158 103.364 17.1525 102.781C16.7978 102.789 16.4021 102.784 15.9516 102.748C15.3973 102.513 14.7515 102.229 13.9896 101.806C13.8642 101.586 13.6077 101.242 13.483 100.915C12.3126 99.6349 12.3755 98.327 12.2028 96.7795C12.0697 95.2282 11.6099 94.1099 11.2892 93.5549C10.9772 92.992 10.6115 92.6235 9.98526 91.4121C9.6918 90.8374 9.36 90.0192 9.15629 89.1449C9.06512 88.8015 8.97591 88.443 8.89524 88.0845C8.61844 86.8603 8.23095 85.0891 7.54795 82.156C7.35227 81.2883 7.07787 80.2237 6.73724 78.69C6.37438 77.1634 6.10169 75.1838 6.11112 73.722C6.10724 72.2208 6.20127 71.1374 6.19515 70.2085C6.19513 69.9744 6.19246 69.7644 6.18516 69.5376C6.18999 69.501 6.10117 68.0667 6.06153 67.4488C5.96667 65.9711 5.88317 64.8601 5.81769 64.022C5.56053 60.8438 5.52727 60.3855 5.50498 59.6589C5.46893 58.3823 5.25182 58.5083 5.59039 56.9753C5.44586 56.4142 5.27518 55.7879 5.10789 55.0739C4.89901 54.6444 4.69093 54.1768 4.49623 53.6529C4.33744 52.2365 4.34101 51.3997 4.51655 50.1724C4.60853 49.5765 4.75127 48.9464 4.99492 48.2755C5.21978 47.6241 5.68656 46.7865 5.95166 46.4381C7.2304 44.5607 9.47413 43.7024 11.3956 42.7324C12.9805 41.8036 15.4713 40.7258 16.8074 40.2024C18.5788 39.3713 21.0722 38.7531 22.9994 38.4236C23.8978 38.3029 24.0871 38.1206 25.9523 37.9056C27.3705 37.7953 27.3944 37.8015 28.259 37.7472C29.7514 37.6584 31.5781 37.571 33.8056 37.5361C36.4992 37.5097 38.3169 37.6541 39.9345 37.3384C41.0841 37.1433 41.9088 36.9465 42.6201 36.7998C43.1441 36.6608 43.7314 36.5306 45.0664 36.5063C46.1341 36.4848 48.2774 36.4925 50.274 36.3972C51.6331 36.3515 53.2725 36.2534 55.1944 36.1451C57.0539 36.0387 59.5466 35.9319 61.6984 35.9143C63.7463 35.8943 65.2219 35.905 66.3285 35.8809C67.6236 35.8544 68.1336 35.6821 68.8495 35.655C69.136 35.6412 69.8194 35.6265 70.5767 35.5909C71.3016 35.5567 71.9279 35.5084 72.4467 35.4504C73.4839 35.3335 74.1331 35.1887 74.7559 35.0413C76.0415 34.7326 76.7171 34.4837 78.8505 33.9678C84.8401 33.4452 84.2895 34.17 85.6988 34.4141C86.2308 34.5005 87.0296 34.6966 87.9033 34.795C88.8119 33.9621 88.7466 32.9855 88.9803 32.4869C89.0108 32.427 89.0441 32.4007 89.0791 32.3994C89.0687 32.3973 89.0581 32.3927 89.0474 32.3853C88.8154 32.1744 88.4949 29.7155 88.205 29.5522C87.9247 29.3588 86.1393 29.2536 85.9747 27.573C85.924 26.9916 85.9247 26.3606 86.003 25.738C85.9919 25.8866 86.2727 23.5563 86.3701 22.6353C86.4839 21.5984 86.5469 21.0724 86.6108 20.6547C86.8579 19.1431 87.0677 18.797 87.3819 17.8155C87.5419 17.3439 87.7484 16.7515 88.1024 16.046C88.459 15.323 88.9745 14.5582 89.149 14.2299C89.9205 12.8948 90.8796 10.8492 92.1174 9.39906C92.7348 8.6704 93.4308 8.0597 94.1342 7.52933C94.5905 7.09963 96.4724 6.11211 97.5172 5.91995C98.4408 5.90105 99.1138 6.00924 99.4166 6.08733C99.4404 6.20058 99.4679 6.31354 99.5072 6.42518C99.5653 6.31095 99.825 6.59547 100.103 6.56914C100.325 6.54751 100.434 6.36041 101.073 6.33874C101.623 6.32503 101.349 6.36486 104.787 6.37869C105.305 6.38007 105.907 6.38087 107.13 6.37903C107.792 6.3779 108.537 6.3765 109.943 6.37318C110.716 6.37127 111.586 6.36941 112.791 6.36698C113.571 6.36527 113.303 6.36654 113.363 6.36698C113.376 6.36757 113.389 6.36812 113.402 6.3687C113.609 6.37799 113.825 6.38637 114.051 6.39281C114.507 6.40568 114.974 6.41102 115.472 6.40245C118.735 6.34756 119.337 5.87275 121.31 5.80974C123.368 5.74466 126.597 6.00009 129.267 5.83282C129.601 5.78055 129.937 5.72834 130.274 5.67612C130.032 5.55799 129.792 5.43983 129.552 5.32173C130.901 5.26669 131.479 5.50874 132.719 5.51356C134.18 5.51942 134.928 5.29062 135.917 5.29246C136.724 5.29419 137.824 5.47932 138.877 5.46913C140.413 5.45528 140.079 5.18904 140.907 5.14058C141.233 5.12112 147.37 4.98768 147.729 4.98732ZM153.904 8.96133C152.8 8.96516 152.077 9.24441 149.843 9.30677C142.394 9.51095 132.559 9.20165 125.736 9.34809C122.373 9.41973 117.758 9.7848 114.565 9.87261C114.237 9.88139 113.859 9.88718 113.456 9.89087C104.017 9.92345 103.842 9.94662 102.712 9.95527C100.98 9.97537 100.751 9.97977 100.424 9.98489C99.8988 9.99462 99.9514 10.0027 99.9235 10.0824C99.9122 10.1787 99.9391 10.4834 99.9356 10.5221C99.9122 10.558 99.9685 10.3695 99.7823 10.3782C98.0854 10.4829 97.5371 10.4553 96.5233 11.1121C95.6518 11.6678 95.1487 11.9649 94.0932 13.6431C93.4335 14.7739 92.2541 16.6023 91.1968 18.4127C90.4418 20.2508 90.6854 19.3603 90.3582 22.0264C90.2812 22.7584 90.1456 24.1152 89.9225 25.8995C89.878 26.1237 89.8447 26.2867 89.811 26.535C89.7442 27.0109 89.7025 27.6464 89.6611 28.4856C89.5947 30.0849 89.3959 32.4484 89.0819 32.3994C89.3276 32.3993 89.6676 33.6083 89.8964 33.0713C89.93 33.4968 89.9552 33.8351 89.9446 34.2305C89.9352 34.4346 89.9343 34.6307 89.8392 34.9989C89.7659 35.2056 89.7981 35.3488 89.3691 35.9057C88.9076 36.5414 87.8831 36.6876 88.0652 36.6579C87.8385 36.7228 87.4078 36.8393 87.0062 36.9399C86.1846 37.1455 85.2301 37.3548 84.0654 37.4975C81.5549 37.7225 79.1181 37.9711 77.7618 38.0503C76.4913 38.3039 75.6731 38.58 73.6039 38.8803C72.5751 39.0232 71.1505 39.1168 69.5559 39.1448C68.6829 39.1612 68.1115 39.1673 67.266 39.1785C65.6273 39.2011 63.7386 39.2206 61.3358 39.307C58.6564 39.4014 56.5418 39.59 54.6114 39.7698C53.8975 39.6768 53.2134 39.5823 52.5574 39.4819L52.557 39.4809C50.2187 39.5196 47.7057 40.0202 46.164 40.1346C44.059 40.3035 43.2034 40.2701 41.0338 40.6491C40.016 40.8324 38.7313 41.1349 37.2361 41.2604C36.557 41.3229 35.4153 41.3475 34.5312 41.3961C33.6304 41.4409 32.8342 41.4867 32.1056 41.5308C30.6466 41.6192 29.4443 41.7016 28.412 41.7698C27.8965 41.8039 27.4283 41.8343 27.0016 41.8603C26.7616 41.863 25.5268 41.986 25.0368 42.1052C22.8983 42.4841 19.9686 42.9467 17.5827 44.0332C16.2449 44.536 15.3568 44.8128 13.4995 45.8788C11.6851 46.8067 10.3592 47.3532 9.77345 47.8594C9.18723 48.3274 8.68053 49.0168 8.4148 50.1796C8.17129 51.303 8.16178 52.2111 8.37072 53.7872C8.56556 55.1998 8.85119 56.4354 8.98719 57.6248C9.06731 58.3439 9.05066 58.4523 9.06881 58.6987C9.08253 58.9317 9.09944 59.1784 9.12151 59.4557C9.20614 60.6384 9.38365 61.6997 9.76037 66.8344C9.97739 69.9159 9.99097 70.2354 9.97114 71.9108C9.94312 73.4294 9.94827 75.2442 10.4994 77.4691C11.452 81.3185 12.348 85.0653 12.4629 86.1738C12.5312 86.7698 12.3304 86.9812 12.4474 87.5472C12.593 88.0896 12.7782 88.9937 13.1079 89.6894C13.4165 90.3692 13.7319 90.8565 14.0044 91.3315C14.4792 92.168 15.2998 93.6669 15.5328 96.4651C15.6214 97.6475 15.7129 98.2899 15.8228 98.5012C15.9765 98.7116 15.603 98.3801 16.5853 98.8793C18.0661 99.5312 19.0382 99.8377 19.823 100.187C20.2549 100.407 20.7191 100.648 21.5316 100.858C22.2622 101.082 23.9634 101.151 25.1353 101.136C27.6569 101.137 29.5207 100.976 30.7546 100.8C33.3881 100.395 34.1382 100.352 38.053 99.3714C40.7069 98.7918 40.5391 98.8976 41.7254 98.5556C42.4917 98.2393 47.2769 97.4918 48.1177 97.2227C48.8842 97.0316 49.6666 96.8086 50.4841 96.6238C51.2345 96.4387 52.4779 96.2928 52.3018 96.3035C52.513 96.2588 53.1725 96.1142 54.5115 95.8228C55.5762 95.5979 56.1332 95.4486 59.8493 94.7286C61.5053 94.4165 61.1486 94.4844 61.55 94.4025C61.8394 94.3422 62.1253 94.2788 62.4072 94.2134C62.9718 94.0826 63.5212 93.9435 64.0644 93.8153C65.1502 93.5551 66.2092 93.3706 67.2263 93.2949C69.3287 93.1493 71.4062 92.9533 72.6668 92.7962C77.5805 92.1358 77.5548 91.9561 80.5387 91.6115C81.2639 91.5027 83.1952 90.9752 85.4991 89.9205C86.2065 89.6017 87.0151 89.1749 88.1279 88.6996C89.0693 88.2553 91.4141 87.6232 91.0694 87.7173C91.2218 87.6757 91.4202 87.6237 91.7234 87.5634C92.0385 87.5027 92.4013 87.4348 93.2687 87.3461C93.7233 87.3013 94.2721 87.2509 95.4295 87.1863C96.0219 87.1539 96.7775 87.1168 98.049 87.0744C99.005 87.0384 101.594 86.9851 101.867 86.9793C104.193 86.9303 106.416 86.9 108.629 86.8749C117.519 86.7827 125.467 86.756 134.012 86.803C138.5 86.8316 142.526 86.9317 146.68 86.9666C151.083 87.005 155.373 87.0079 159.624 87.0365C162.91 87.0587 166.604 87.0375 170.241 87.0812C171.145 87.0925 172.059 87.1086 172.947 87.1332C173.304 87.1443 172.807 87.1252 174.267 87.1773C175.348 87.2154 176.268 87.2462 177 87.2707C178.469 87.3195 179.251 87.346 179.843 87.3692C181.969 87.4532 182.166 87.5128 182.7 87.6068C183.571 87.7989 182.693 88.036 187.864 88.1354C187.911 88.2474 187.961 88.3602 188.009 88.473C188.788 88.5695 189.058 88.6235 189.358 88.6545C189.661 88.69 189.966 88.7224 190.272 88.754C190.886 88.8172 191.507 88.8767 192.17 88.9527C192.834 89.0292 193.539 89.12 194.351 89.262C194.753 89.3324 195.207 89.4218 195.665 89.5268C195.738 89.5343 195.759 89.5304 195.872 89.5427C196.39 89.6157 197.021 89.5395 202 89.7893C202.562 89.8207 204.037 89.9494 204.409 89.9962C204.967 90.0596 205.439 90.128 205.857 90.1953C206.688 90.3303 207.269 90.4488 207.711 90.5297C208.598 90.6973 208.915 90.7129 209.336 90.778C210.152 90.9096 209.777 91.0507 210.7 91.2092C211.543 91.3564 212.957 91.5816 216.416 92.2548C218.984 92.758 220.543 93.1027 221.514 93.2646C222.525 93.4353 222.657 93.4745 223.857 93.6272C224.936 93.763 226.545 93.943 227.914 94.087C229.104 94.2129 230.763 94.3978 233.103 94.8467C234.195 95.0493 235.147 95.3238 235.94 95.4811C236.158 95.5257 237.353 95.7483 238.123 95.8834C238.917 96.0227 239.509 96.1185 239.997 96.1947C240.966 96.3455 241.557 96.4269 242.067 96.504C242.819 96.6798 245.408 96.8324 247.431 97.1873C248.397 97.3566 250.283 97.9459 251.007 98.0965C251.911 98.3069 252.104 98.3653 252.956 98.5201C253.839 98.6813 255.16 98.8861 256.525 99.3219C257.437 99.6525 258.071 99.8861 258.336 99.9149C259.177 100.041 260.324 99.6309 261.237 99.5182C262.508 99.3423 263.495 99.1224 264.208 98.8962C264.787 98.7214 265.664 98.33 267.242 97.7228C268.012 97.4211 269.197 97.0022 269.712 96.8046C270.304 96.5753 270.484 96.4223 270.549 96.36C270.869 95.9212 271.469 94.8723 271.583 94.0402C271.777 91.9392 271.868 89.4616 272.106 87.9918C272.214 87.1953 272.418 86.5409 272.516 85.8893C272.619 85.2166 272.733 83.8586 273.232 82.6915C273.956 80.8466 274.34 79.4301 274.611 77.9444C274.769 77.1513 274.95 76.2316 275.196 75.111C275.342 74.4516 275.389 74.2545 275.438 74.0468C275.489 73.8326 275.543 73.6119 275.602 73.3663C275.807 72.4243 276.265 70.9303 276.291 67.1523C276.31 65.2623 276.325 63.4092 276.331 61.5782C276.337 59.7498 276.337 57.9343 276.301 56.1911C276.296 55.9757 276.291 55.7651 276.284 55.5457C276.281 55.4425 276.288 55.6476 276.274 55.2382C276.261 54.8338 276.251 54.4722 276.243 54.1788C276.228 53.5854 276.221 53.2343 276.215 52.9696C276.2 52.3076 276.189 52.0783 276.181 51.9739C276.177 51.966 276.172 51.9579 276.168 51.9495C275.423 49.0287 268.099 47.4693 264.188 47.3659C263.636 47.2979 262.837 47.1975 261.174 46.8634C260.265 46.6704 259.503 46.5401 257.053 45.8609C256.739 45.7729 256.16 45.6031 255.831 45.5017C255.751 45.4766 255.672 45.4514 255.591 45.4256C255.429 45.3734 255.261 45.3186 255.1 45.264C254.776 45.1549 254.457 45.0416 254.141 44.9262C252.875 44.4623 251.69 43.972 250.533 43.5806C249.828 43.351 249.914 43.3449 248.447 42.9562C246.514 42.4553 246.115 42.357 245.453 42.1879C244.864 42.038 244.422 41.9259 244.048 41.8304C241.799 41.2556 242.54 41.1549 241.487 40.9132C240.533 40.6971 240.366 40.8493 240.186 40.8241C239.887 40.7892 239.942 40.7976 239.12 40.7538C238.67 40.7272 238.177 40.7248 236.426 40.5685C235.556 40.4878 234.041 40.3314 231.684 39.9755C231.247 39.9142 230.795 39.8511 230.317 39.7826C229.363 39.6457 228.301 39.4853 227.141 39.2687C226.562 39.1606 225.965 39.04 225.351 38.9051C225.198 38.8714 225.045 38.8373 224.894 38.8028C224.598 38.7355 224.054 38.6104 223.739 38.5369C223.06 38.3786 222.569 38.2614 222.147 38.1598C219.05 37.4074 218.699 37.2883 218.191 37.1259C218.02 37.0689 218.001 37.0009 217.845 36.9107C217.388 36.7593 216.991 36.6215 216.637 36.5459C216.279 36.4702 215.426 36.4288 214.445 36.2318C212.216 35.7908 211.245 35.6688 209.413 35.6471C205.98 35.5885 205.484 35.5723 204.486 35.5362C203.622 35.5023 203.069 35.4649 202.617 35.4156C201.781 35.3494 201.065 35.023 199.42 34.8074C198.624 34.6926 197.697 34.5846 196.534 34.4575C195.355 34.279 193.891 34.4209 193.251 33.4622C192.512 32.3562 192.495 31.7674 192.133 29.5185C191.97 28.3427 191.781 26.9707 191.324 21.889C191.099 19.4959 190.968 19.2765 190.87 18.9854C190.819 19.0082 185.996 10.2233 185.343 11.2908C184.686 11.0336 184.091 10.6908 182.432 10.2242C181.898 10.0824 181.905 10.0933 181.893 10.0899C181.877 10.0872 181.862 10.0849 181.847 10.0824C181.815 10.0769 181.788 10.0723 181.758 10.0675C181.637 10.0495 181.547 10.0273 181.071 9.97352C184.128 9.90839 160.826 9.41535 160.526 9.44453C156.882 9.38876 154.411 8.95953 153.904 8.96133ZM188.72 91.69C189.321 91.7398 189.939 91.7842 190.578 91.8333C190.239 91.6908 189.905 91.5497 189.579 91.4086C189.271 91.3582 188.971 91.308 188.673 91.2557C188.688 91.4004 188.704 91.5452 188.72 91.69ZM195.953 30.7332C195.985 30.8605 196.015 30.9643 196.045 31.0521C196.149 31.3634 196.262 31.4171 196.24 31.2016C196.263 31.1161 196.134 30.9318 195.953 30.7332ZM192.455 14.3515C192.112 14.2443 192.737 15.3714 193.198 16.0153C193.672 16.6749 194.082 16.9862 193.842 16.3649C193.761 16.1399 192.672 14.4661 192.455 14.3515Z" fill="white"/>
<path d="M232.439 78.3289C231.307 78.1492 230.349 77.8965 229.565 77.5709C228.781 77.2453 228.097 76.7808 227.512 76.1773C226.297 74.9631 225.905 72.9976 226.336 70.2808C226.719 67.866 227.695 66.2492 229.264 65.4306C230.731 64.6731 232.506 64.4597 234.588 64.7904C235.479 64.9317 236.234 65.098 236.853 65.2892C237.475 65.4653 238.089 65.7407 238.695 66.1154C239.316 66.4925 239.786 66.9462 240.104 67.4764C240.437 68.0089 240.666 68.7107 240.791 69.5815C240.918 70.4373 240.892 71.4311 240.712 72.5631C240.348 74.8573 239.425 76.4824 237.942 77.4385C236.462 78.3795 234.628 78.6763 232.439 78.3289ZM232.348 73.7884C232.367 74.3485 232.421 74.6897 232.51 74.8122C232.614 74.937 232.757 75.0138 232.938 75.0425C233.134 75.0737 233.293 75.0448 233.416 74.9559C233.553 74.8695 233.71 74.5617 233.887 74.0328C234.079 73.5062 234.24 72.8354 234.369 72.0203C234.501 71.1902 234.579 70.5527 234.603 70.1078C234.645 69.6502 234.655 69.2959 234.633 69.0448C234.626 68.7962 234.588 68.5967 234.519 68.4465C234.414 68.2287 234.264 68.1043 234.067 68.0731C233.886 68.0444 233.726 68.0808 233.586 68.1823C233.448 68.2688 233.282 68.5829 233.088 69.1246C232.896 69.6512 232.72 70.4201 232.559 71.4313C232.399 72.4425 232.328 73.2282 232.348 73.7884Z" fill="white"/>
<path d="M210.661 63.5753C210.678 63.4234 210.92 63.2507 211.388 63.0572C211.857 62.8484 212.484 62.6803 213.267 62.5529C214.05 62.4255 214.806 62.4027 215.535 62.4845C217.008 62.6498 217.727 63.0919 217.693 63.8108L217.449 71.1188L217.746 71.152L219.019 64.3286C219.092 63.9524 219.653 63.6771 220.703 63.5027C221.753 63.3283 222.665 63.2846 223.44 63.3715C224.214 63.4584 224.784 63.5915 225.148 63.7708C225.527 63.9518 225.762 64.1242 225.851 64.288C225.942 64.4366 225.982 64.564 225.97 64.6703C225.958 64.7767 225.543 65.5221 224.727 66.9068C223.925 68.2931 222.294 71.2548 219.832 75.7919C219.639 76.1393 218.381 76.1827 216.057 75.922C215.328 75.8402 214.854 75.7485 214.635 75.647C214.417 75.5303 214.281 75.369 214.228 75.1631C213.476 72.403 212.692 69.8006 211.874 67.3561C211.058 64.8963 210.654 63.6361 210.661 63.5753Z" fill="white"/>
<path d="M201.425 74.7484C200.282 74.6584 199.307 74.4819 198.5 74.2191C197.693 73.9562 196.974 73.547 196.343 72.9914C195.036 71.8767 194.491 69.9482 194.707 67.2059C194.899 64.7684 195.744 63.0798 197.244 62.1402C198.646 61.2696 200.399 60.9171 202.501 61.0827C203.4 61.1535 204.166 61.2598 204.798 61.4016C205.432 61.5282 206.066 61.7544 206.699 62.0802C207.348 62.4073 207.852 62.8225 208.211 63.326C208.585 63.8307 208.869 64.5122 209.062 65.3705C209.256 66.2136 209.308 67.2065 209.218 68.3491C209.035 70.6648 208.243 72.3576 206.84 73.4275C205.439 74.4821 203.634 74.9224 201.425 74.7484ZM200.976 70.2292C201.039 70.786 201.12 71.122 201.218 71.237C201.332 71.3533 201.48 71.4186 201.663 71.433C201.861 71.4486 202.017 71.4073 202.132 71.309C202.263 71.212 202.395 70.8928 202.53 70.3516C202.68 69.8115 202.787 69.1302 202.852 68.3075C202.918 67.4696 202.945 66.8279 202.934 66.3825C202.94 65.923 202.922 65.569 202.88 65.3205C202.854 65.0731 202.8 64.8773 202.719 64.733C202.598 64.5241 202.438 64.4119 202.24 64.3963C202.057 64.3819 201.9 64.4308 201.769 64.5431C201.638 64.6401 201.498 64.9663 201.347 65.5216C201.197 66.0616 201.082 66.842 201.001 67.8628C200.921 68.8835 200.912 69.6723 200.976 70.2292Z" fill="white"/>
<path d="M184.732 72.7966C184.722 72.995 184.248 73.131 183.31 73.2045C182.373 73.2781 181.439 73.2905 180.508 73.242C179.577 73.1934 178.985 73.109 178.731 72.9886C178.477 72.8682 178.356 72.6936 178.368 72.4647L179.136 57.7451C179.174 57.0125 181.391 56.7609 185.786 56.9902C188.442 57.1287 190.187 57.4034 191.023 57.8143C192.038 58.2957 192.71 58.9123 193.038 59.6639C193.477 60.6356 193.658 61.8616 193.581 63.342C193.475 65.3717 193.047 66.8261 192.297 67.7052C191.758 68.3504 191.232 68.7591 190.718 68.9312C190.204 69.1033 189.777 69.2264 189.436 69.3005C189.112 69.3601 188.704 69.4 188.214 69.4203C187.539 69.4464 186.622 69.4291 185.462 69.3686L184.913 69.3171L184.732 72.7966ZM185.135 65.5182L185.684 65.5468C185.974 65.562 186.205 65.5357 186.377 65.4682C186.549 65.3854 186.706 65.164 186.848 64.8041C187.005 64.4298 187.101 63.9068 187.136 63.2353C187.172 62.5486 187.123 62.0257 186.988 61.6667C186.87 61.2933 186.736 61.0721 186.587 61.0031C186.453 60.9196 186.287 60.8727 186.089 60.8623L185.379 60.8253L185.135 65.5182Z" fill="white"/>
<path d="M164.44 72.9228C163.294 72.8962 162.311 72.7741 161.49 72.5563C160.67 72.3386 159.93 71.9698 159.269 71.4501C157.902 70.4095 157.251 68.5142 157.314 65.7641C157.371 63.3197 158.122 61.5868 159.567 60.5656C160.919 59.6186 162.649 59.1696 164.758 59.2184C165.659 59.2393 166.43 59.3031 167.069 59.4096C167.709 59.5009 168.354 59.6916 169.005 59.9819C169.671 60.2725 170.197 60.6592 170.583 61.142C170.984 61.6252 171.305 62.2899 171.546 63.1362C171.786 63.9673 171.893 64.9557 171.867 66.1016C171.813 68.4238 171.115 70.1579 169.774 71.3039C168.433 72.4345 166.655 72.9742 164.44 72.9228ZM163.741 68.4354C163.836 68.9879 163.935 69.3188 164.039 69.4283C164.159 69.538 164.311 69.5951 164.494 69.5993C164.693 69.6039 164.847 69.554 164.956 69.4495C165.081 69.3454 165.195 69.0194 165.3 68.4715C165.419 67.924 165.489 67.2377 165.508 66.4127C165.527 65.5724 165.519 64.9302 165.484 64.4861C165.464 64.0271 165.426 63.6746 165.371 63.4287C165.331 63.1832 165.266 62.9906 165.178 62.851C165.045 62.6492 164.879 62.546 164.681 62.5414C164.497 62.5372 164.343 62.5947 164.218 62.7141C164.093 62.8182 163.971 63.1517 163.851 63.7145C163.731 64.262 163.659 65.0476 163.636 66.0712C163.612 67.0949 163.647 67.8829 163.741 68.4354Z" fill="white"/>
<path d="M146.473 72.6888C145.907 72.6858 145.38 72.599 144.892 72.4284C144.404 72.2578 144 72.0493 143.68 71.8032C143.376 71.5571 143.11 71.2271 142.883 70.8133C142.656 70.3995 142.482 70.0089 142.362 69.6415C142.242 69.2588 142.153 68.7923 142.094 68.2418C142.007 67.4314 141.966 66.5066 141.971 65.4674C141.982 63.3432 142.38 61.733 143.165 60.6368C143.951 59.5252 145.023 58.973 146.383 58.9801C147.774 58.9873 148.781 59.3211 149.404 59.9815C149.541 60.135 149.647 60.3189 149.722 60.5333L149.905 60.5342L149.639 58.9511L149.653 56.0858C149.655 55.7496 150.085 55.4232 150.942 55.1067C151.8 54.7903 152.725 54.6346 153.718 54.6398C154.758 54.6452 155.421 54.8473 155.71 55.2461C155.816 55.3995 155.868 55.5526 155.868 55.7054L155.783 71.9806C155.782 72.1487 155.354 72.2841 154.497 72.3866C153.656 72.4739 152.838 72.5155 152.044 72.5114C151.264 72.5073 150.76 72.4818 150.531 72.4348C150.318 72.3725 150.18 72.3107 150.12 72.2492C150.074 72.1879 150.044 72.0884 150.029 71.9508L149.853 70.6432L149.67 70.6423C149.529 71.1764 149.252 71.6258 148.837 71.9904C148.315 72.4615 147.527 72.6942 146.473 72.6888ZM149.057 69.3554C149.302 69.3566 149.486 69.2048 149.61 68.8998L149.642 62.7794C149.642 62.6265 149.559 62.5115 149.391 62.4342C149.239 62.3417 149.102 62.2952 148.979 62.2945C148.46 62.2918 148.194 63.4825 148.181 65.8664C148.175 67.1348 148.239 68.0368 148.374 68.5724C148.524 69.0928 148.752 69.3538 149.057 69.3554Z" fill="white"/>
<path d="M128.307 67.4185C128.322 68.4117 128.803 68.9015 129.75 68.8877C130.3 68.8797 131.016 68.6858 131.896 68.3062C132.777 67.9113 133.24 67.7135 133.286 67.7128C133.577 67.7086 133.965 68.1385 134.451 69.0026C134.938 69.8667 135.184 70.505 135.19 70.9176C135.199 71.5135 134.594 71.9732 133.376 72.2966C132.158 72.62 130.961 72.7903 129.784 72.8074C128.623 72.8244 127.643 72.7469 126.846 72.5751C126.064 72.4031 125.419 72.1832 124.911 71.9155C124.418 71.6323 123.977 71.2872 123.589 70.8802C123.216 70.473 122.936 70.0873 122.747 69.7233C122.558 69.3439 122.407 68.9258 122.293 68.469C122.13 67.7989 122.044 67.1047 122.033 66.3865C121.993 63.6055 122.691 61.6772 124.127 60.6017C124.837 60.0564 125.634 59.6704 126.517 59.4435C127.401 59.2167 128.446 59.0945 129.653 59.0769C133.519 59.0206 135.471 60.3372 135.511 63.0265C135.552 65.884 133.403 67.3443 129.064 67.4075L128.307 67.4185ZM128.213 64.0728L128.235 65.5855C128.678 65.5791 129.034 65.3981 129.304 65.0427C129.589 64.687 129.728 64.257 129.721 63.7528C129.708 62.8359 129.464 62.381 128.99 62.3879C128.456 62.3956 128.196 62.9573 128.213 64.0728Z" fill="white"/>
<path d="M111.438 73.2206C109.727 73.2741 108.514 72.8686 107.799 72.0041C107.1 71.1392 106.715 69.607 106.647 67.4074L106.452 61.1754C106.442 60.8699 106.884 60.5656 107.776 60.2625C108.669 59.9441 109.611 59.7694 110.604 59.7383C111.933 59.6968 112.608 60.0197 112.629 60.7071L112.811 66.5267C112.848 67.6876 112.92 68.5339 113.028 69.0657C113.136 69.5821 113.373 69.8346 113.74 69.8232C114.229 69.8079 114.467 69.5941 114.454 69.1816L114.196 60.9333C114.186 60.6126 114.65 60.2999 115.589 59.9954C116.527 59.6908 117.554 59.5211 118.669 59.4863C119.784 59.4514 120.351 59.7319 120.369 60.3276L120.738 72.1273C120.745 72.3411 120.268 72.5089 119.309 72.6306C118.35 72.7523 117.404 72.8277 116.472 72.8569C115.54 72.886 115.063 72.7786 115.04 72.5347L114.765 71.0526L114.581 71.0583C114.461 71.6125 114.2 72.0717 113.799 72.4359C113.591 72.6258 113.275 72.8039 112.852 72.97C112.444 73.1204 111.973 73.2039 111.438 73.2206Z" fill="white"/>
<path d="M98.3118 73.2091C98.1204 73.3566 97.8214 73.4942 97.4148 73.622C97.0242 73.7644 96.5007 73.8522 95.8444 73.8857C95.1882 73.9191 94.5638 73.8285 93.9714 73.6138C93.3782 73.3839 92.9117 73.0864 92.5717 72.7211C92.2318 72.3559 91.9474 71.8807 91.7187 71.2956C91.382 70.3946 91.1784 69.2497 91.1076 67.8608C90.9731 65.2205 91.4795 63.2972 92.6269 62.0911C93.7888 60.869 95.7281 60.1887 98.4448 60.0503C99.9558 59.9733 101.042 59.9716 101.704 60.045C102.366 60.1184 102.897 60.1907 103.299 60.2621C104.148 60.4177 104.584 60.7169 104.607 61.1595L105.363 75.9944C105.371 76.1623 104.95 76.3138 104.1 76.4489C103.266 76.5985 102.239 76.7045 101.018 76.7667C99.7969 76.8289 99.1771 76.6768 99.1584 76.3105L99.0266 73.7236L99.2209 72.1299L99.0377 72.1392C99.044 72.2613 98.9762 72.4331 98.8345 72.6546C98.6927 72.876 98.5185 73.0609 98.3118 73.2091ZM97.8356 63.4095C97.3472 63.4344 97.1624 64.6144 97.2814 66.9495C97.4004 69.2847 97.7193 70.439 98.2382 70.4126C98.3603 70.4064 98.4957 70.3612 98.6445 70.2771C98.7932 70.193 98.8641 70.0823 98.8571 69.945L98.527 63.4661C98.4171 63.4105 98.1866 63.3916 97.8356 63.4095Z" fill="white"/>
<path d="M83.8872 67.2082L84.3818 73.8835C84.3942 74.0511 83.97 74.2205 83.1092 74.3915C82.2626 74.5462 81.3744 74.658 80.4447 74.7269C79.5303 74.7946 78.9331 74.8006 78.6531 74.7447C78.372 74.6736 78.2241 74.539 78.2095 74.3408L77.3744 63.0706C77.3529 62.781 77.7489 62.4376 78.5622 62.0402C79.3909 61.6416 80.3005 61.4057 81.2911 61.3323C82.297 61.2577 82.8812 61.4903 83.0437 62.0299L83.3503 63.0645L83.5103 63.0527C83.6808 62.4577 84.1552 61.9322 84.9335 61.4761C85.7108 61.0048 86.5033 60.7392 87.311 60.6793C88.1188 60.6195 88.6922 60.7072 89.0315 60.9426C89.386 61.1769 89.5785 61.4997 89.609 61.9112C89.6383 62.3075 89.6457 62.8203 89.631 63.4496C89.6163 64.079 89.5142 64.7685 89.3246 65.5181C89.1502 66.2666 88.8725 66.6549 88.4914 66.6832C88.339 66.6945 87.8505 66.6157 87.0258 66.447C86.2011 66.2782 85.5221 66.2136 84.9887 66.2531C84.4705 66.2915 84.1485 66.392 84.0226 66.5546C83.912 66.716 83.8668 66.9339 83.8872 67.2082Z" fill="white"/>
<path d="M67.4604 76.1859C66.0771 76.3284 64.9565 76.1136 64.0987 75.5414C63.7512 75.3006 63.4285 74.9268 63.1305 74.4198C62.8476 73.9112 62.6694 73.2997 62.5958 72.5852C62.5222 71.8707 62.6252 71.2302 62.9048 70.6637C63.1996 70.0956 63.5753 69.6421 64.032 69.3032C64.4887 68.9642 65.0345 68.6699 65.6694 68.4201C66.6309 68.0599 67.7045 67.8187 68.8902 67.6965L69.6427 67.619C69.5785 66.9957 69.3202 66.5768 68.8679 66.3622C68.6746 66.2746 68.3878 66.2503 68.0078 66.2895C67.643 66.3271 67.2047 66.4721 66.693 66.7246C66.1965 66.9754 65.7844 67.2253 65.4567 67.4741C65.1274 67.7078 64.902 67.8309 64.7804 67.8434C64.5067 67.8716 64.0975 67.5527 63.5526 66.8868C63.0062 66.2057 62.7024 65.5687 62.6413 64.9758C62.621 64.7782 62.8756 64.4908 63.4052 64.1136C63.9347 63.7364 64.6955 63.3661 65.6873 63.0028C66.6929 62.6226 67.6821 62.3825 68.655 62.2822C69.6279 62.182 70.4726 62.1794 71.1891 62.2746C71.9192 62.353 72.5165 62.4835 72.9808 62.6661C73.4603 62.8471 73.8717 63.112 74.2149 63.4607C74.5733 63.8079 74.8442 64.1256 75.0275 64.414C75.226 64.7008 75.3884 65.0835 75.5145 65.5621C75.6789 66.1136 75.8033 66.7998 75.8879 67.6207L76.5951 74.4843C76.6123 74.6515 76.216 74.8306 75.4061 75.0216C74.6098 75.1958 73.8088 75.3244 73.0031 75.4074C72.2126 75.4889 71.6934 75.5193 71.4455 75.4988C71.2128 75.4767 71.0705 75.4376 71.0186 75.3815C70.9667 75.3253 70.9178 75.2228 70.8717 75.074L70.5553 73.793L70.3729 73.8118C70.1339 75.2191 69.163 76.0105 67.4604 76.1859ZM70.126 72.0859L69.8511 69.418C69.4558 69.4587 69.1538 69.6588 68.9451 70.0183C68.7363 70.3778 68.6538 70.7704 68.6977 71.196C68.8011 72.1993 69.0808 72.6775 69.5368 72.6305C69.7345 72.6102 69.8818 72.5489 69.9788 72.4467C70.0894 72.3278 70.1385 72.2075 70.126 72.0859Z" fill="white"/>
<path d="M53.3913 77.1488C53.4202 77.3453 52.9824 77.5719 52.0779 77.8285C51.1734 78.0851 50.26 78.2812 49.3377 78.4168C48.4154 78.5525 47.818 78.5863 47.5454 78.5182C47.2728 78.4502 47.1198 78.3028 47.0865 78.076L44.9418 63.4933C44.8351 62.7675 46.9589 62.0845 51.3133 61.4441C53.9441 61.0572 55.7095 60.9829 56.6096 61.2212C57.7 61.4934 58.48 61.9656 58.9496 62.638C59.5713 63.5043 59.9899 64.6707 60.2056 66.1373C60.5014 68.1482 60.3682 69.6583 59.8061 70.6678C59.405 71.4064 58.9694 71.9107 58.4994 72.1806C58.0294 72.4506 57.6347 72.6554 57.3154 72.795C57.009 72.9173 56.6173 73.0367 56.1401 73.1532C55.4837 73.3115 54.581 73.4752 53.4319 73.6442L52.8843 73.7015L53.3913 77.1488ZM52.3533 69.9334L52.8976 69.8534C53.1849 69.8112 53.4061 69.74 53.5613 69.6399C53.7143 69.5248 53.8246 69.2768 53.8922 68.8962C53.9726 68.4982 53.964 67.9666 53.8661 67.3013C53.7661 66.6209 53.6149 66.118 53.4125 65.7925C53.2231 65.4496 53.0483 65.2591 52.8882 65.2208C52.741 65.1652 52.5692 65.1519 52.3726 65.1808L51.6696 65.2842L52.3533 69.9334Z" fill="white"/>
<rect x="120" y="0.871094" width="44" height="44" rx="22" fill="white"/>
<path d="M151.124 16.377C151.41 16.4054 151.679 16.5321 151.884 16.7373L151.967 16.8291C152.149 17.0515 152.25 17.3311 152.25 17.6211C152.25 17.9113 152.15 18.1916 151.967 18.4141L151.884 18.5059L139.884 30.5059C139.797 30.5931 139.698 30.6667 139.589 30.7246L139.479 30.7764C139.327 30.8393 139.164 30.8721 139 30.8721C138.877 30.872 138.754 30.8539 138.637 30.8184L138.521 30.7764C138.407 30.7292 138.301 30.6658 138.207 30.5879L138.116 30.5059L132.866 25.2559C132.631 25.0214 132.5 24.7027 132.5 24.3711L132.505 24.248C132.534 23.9617 132.661 23.6925 132.866 23.4873L132.958 23.4043C133.18 23.2221 133.459 23.1212 133.75 23.1211C134.081 23.1211 134.4 23.2528 134.634 23.4873L139 27.8535L150.116 16.7373L150.208 16.6543C150.43 16.4721 150.709 16.3712 151 16.3711L151.124 16.377Z" fill="#F0BE39" stroke="#F0BE39"/>
</svg>
