<svg width="804" height="306" viewBox="0 0 804 306" fill="none" xmlns="http://www.w3.org/2000/svg">
<path d="M419.906 0.000201766C427.568 -0.0203096 428.224 1.52953 434.334 1.68965C447.323 2.02842 460.62 1.43498 473.154 1.0295C477.006 0.90754 480.752 0.803756 484.408 0.751178C491.4 0.652287 498.795 0.884294 505.897 1.40645C494.558 4.90272 519.187 9.08924 510.221 2.44942C513.851 3.09307 516.875 2.96195 521.37 3.79903C525.504 4.48618 530.205 5.86152 533.635 7.60567C534.111 7.83916 534.487 8.03163 534.715 8.16133C539.988 10.5062 541.528 13.3905 543.137 15.6399C544.647 17.9722 545.807 20.2411 547.328 22.6887C547.722 23.322 548.115 23.9299 548.509 24.509C551.507 28.9492 554.203 33.44 556.137 36.302C559.486 42.0253 559.144 45.3698 559.225 47.7658C559.137 50.1818 558.584 51.8866 557.488 52.9533C557.612 53.8043 557.724 54.6429 557.828 55.4758C558.64 61.9231 559.032 67.9078 559.848 72.6682C560.068 73.9528 560.323 75.1496 560.62 76.2219C564.593 77.2993 569.404 78.856 572.232 79.5324C573.147 79.7609 575.262 80.1165 578.614 81.1574C578.123 81.139 580.267 81.4848 581.745 81.6096C583.384 81.77 585.223 81.9059 587.111 82.0314C590.895 82.2809 594.912 82.4929 598.498 82.6818C604.172 82.9398 608.764 83.9693 610.38 84.2902C614.435 85.1095 620.262 86.5972 624.504 87.3107C625.901 87.5681 626.922 87.7744 627.804 87.9162C632.976 88.7675 637.301 85.7407 645.02 92.4221C645.057 92.4295 645.096 92.4371 645.133 92.4445C653.492 94.0513 657.31 94.5656 664.115 96.0022C665.417 96.2758 666.795 96.5652 668.333 96.8762C670.055 97.2212 670.147 97.9381 671.171 98.0754C673.254 98.3511 676.857 98.2671 680.573 98.5119C683.76 98.7454 686.311 99.1742 688.773 99.8107C690.079 100.166 690.854 100.115 690.748 98.9797C694.942 99.5585 699.129 100.179 703.311 100.835C704.64 101.616 705.97 102.401 707.289 103.189C709.582 103.287 711.882 103.397 714.184 103.518C713.206 104.229 713.815 104.917 715.079 105.467C718.426 106.807 725.805 108.067 722.591 105.5C727.678 107.733 731.921 110.057 736.197 111.818C738.875 112.924 741.591 113.956 744.336 114.906C742.447 117.921 757.213 118.914 758.733 116.819C759.128 116.568 759.273 116.307 759.075 116.044C760.072 116.107 761.064 116.182 762.052 116.27C767.636 117.473 772.366 117.716 779.242 119.903C782.308 121.001 785.584 122.328 789.026 124.293C790.719 125.262 792.039 126.123 793.052 126.826C799.361 131.638 798.215 132.642 798.888 135.782C799.736 137.031 800.418 138.255 801 139.176C802.528 142.3 802.058 143.317 802.271 144.503C804.092 149.062 804.145 151.424 803.729 153.881C802.977 158.308 800.613 162.282 802.828 175.612C801.391 178.83 800.97 184.353 800.993 190.402C801.07 197 800.911 204.633 799.904 210.476C799.71 211.755 800.245 211.933 800.055 213.536C800.044 213.629 800.032 213.724 800.02 213.821C799.512 217.381 797.622 224.948 798.194 227.142C798.283 227.546 798.447 227.775 798.712 227.771C797.32 231.754 795.615 235.259 793.812 238.669C793.65 239.323 793.483 239.974 793.311 240.623C792.953 242.283 793.003 243.752 792.959 246.277C793.531 246.334 794.103 246.392 794.674 246.449C794.179 247.543 793.711 249.008 793.119 250.597C791.157 254.744 791.285 261.99 790.649 265.717C790.497 266.63 789.708 266.781 789.303 269.616C789.3 269.638 789.297 269.661 789.294 269.683C789.022 273.292 786.981 279.308 784.619 282.763C783.963 283.833 783.157 284.749 782.371 285.44C781.132 287.836 779.366 289.706 777.951 291.275C776.909 291.791 776.058 292.129 775.331 292.392C770.518 294.126 767.78 293.418 764.306 294.745C764.168 294.798 763.595 295.048 762.736 295.419C758.236 297.634 748.365 298.9 747.76 298.927C745.241 299.309 744.023 299.761 742.333 300.239C739.924 300.92 735.131 300.62 730.506 299.202C729.113 298.852 727.153 298.475 724.371 297.986C722.81 297.704 721.323 297.29 719.682 296.767C718.267 296.293 716.95 295.816 715.53 295.455C713.65 294.98 710.363 294.323 706.894 293.617C703.024 293.085 695.96 293.556 695.027 294.252C693.91 293.784 692.41 293.342 690.503 292.755C685.997 291.214 678.192 289.885 672.986 288.683C670.457 288.119 668.577 287.508 667.531 287.099C666.351 286.641 666.237 285.579 663.501 284.612C663.161 284.5 662.787 284.389 662.373 284.282C659.03 283.354 650.093 282.962 645.696 282.431C641.023 281.811 639.379 280.752 637.186 280.497C635.833 280.34 634.571 280.554 632.772 280.543C631.8 280.536 630.779 280.463 629.693 280.251C623.684 279.014 618.987 277.116 614.457 275.766C611.794 274.963 609.263 274.225 606.836 273.685C602.559 272.74 598.262 272.25 594.874 272.483C588.681 272.414 584.754 272.253 580.604 272.458C580.52 272.46 580.437 272.463 580.354 272.465C578.442 272.118 576.56 271.471 574.494 271.338C571.595 271.149 568.633 271.034 565.536 270.934C563.978 270.882 562.4 270.835 560.701 270.753C558.902 270.622 557.501 270.709 554.294 269.978C548.589 268.45 542.242 267.506 535.346 266.097C533.256 265.649 530.991 265.411 528.487 265.278C525.904 265.093 523.462 265.262 519.294 264.572C516.005 263.891 510.977 263.8 506.424 263.528C501.813 263.289 497.222 263.047 492.72 262.795C492.18 262.764 491.625 262.735 491.057 262.705C478.777 262.013 447.585 258.828 455.88 264.046C451.617 264.898 420.967 262.829 414.138 262.629C414.017 262.626 413.903 262.623 413.798 262.621C407.753 262.524 402.963 263.384 398.214 263.315C388.239 263.155 380.455 262.739 370.687 262.771C366.488 262.783 361.895 262.876 356.635 263.11C352.163 263.312 347.349 264.41 344.697 264.397C341.498 264.378 338.053 263.314 333.91 263.253C324.033 263.11 305.64 263.547 296.187 263.483C294.467 263.467 293.838 262.539 291.375 262.28C289.262 262.057 287.048 261.901 284.99 261.826C277.614 261.558 271.536 262.382 273.087 264.651C267.312 264.063 260.918 264.235 257.469 265.332C252.954 266.618 249.716 268.822 244.03 271.613C243.664 271.788 243.304 271.956 242.949 272.119C239.76 273.567 236.124 275.115 231.703 276.419C227.549 277.813 220.881 278.333 218.585 278.652C208.827 280.515 196.791 281.946 186.323 282.651C183.755 282.839 181.502 283.3 178.63 284.037C175.782 284.772 172.519 285.622 169.446 286.249C163.362 287.522 157.941 288.853 153.555 290.084C151.571 290.64 149.909 291.145 148.404 291.611C146.726 292.09 146.1 292.463 143.273 292.986C140.163 293.72 138.283 295.228 127.2 296.963C125.524 297.144 123.685 297.342 121.664 297.604C118.014 298.014 115.734 298.685 109.218 299.721C108.759 299.769 108.296 299.822 107.822 299.88C102.494 300.482 97.3161 301.451 90.6653 302.236C85.1949 302.714 79.4582 303.926 74.1585 305.874C68.6544 306.041 63.862 305.985 59.3607 305.852C55.5661 305.752 51.6171 305.237 47.8548 303.943C44.1009 302.697 40.7615 300.5 39.2679 299.292C38.4091 298.678 37.4286 298.002 36.429 297.255C35.0165 297.309 33.5243 297.306 31.97 297.214C30.9522 296.716 29.9208 296.174 28.8968 295.585C26.5553 294.26 24.7438 292.069 23.8109 290.279C23.6327 288.697 23.8351 287.432 24.1448 286.37C23.0077 281.408 23.2533 278.468 22.6702 276.025C22.0644 273.06 20.9441 270.443 19.4359 268.211C17.614 265.578 14.6627 260.53 13.6019 255.972C13.0735 254.057 12.5961 252.212 12.22 250.501C11.3592 246.594 10.2027 241.195 8.86749 235.087C8.06148 231.399 7.00232 227.035 6.12237 222.488C5.21153 217.982 4.70434 212.872 4.79718 208.173C4.8825 203.441 5.21086 199.786 5.07843 196.399C4.74662 186.645 4.28242 178.128 3.9544 172.668C3.69518 168.246 3.2195 165.833 3.15851 163.872C3.13491 162.616 3.33243 161.467 4.15362 159.026C3.65285 157.237 3.09989 155.341 2.58722 153.346C1.82154 152.17 1.06785 150.939 0.346982 149.635C0.187899 148.311 0.0699746 146.923 0.0159277 145.481C-0.11941 139.834 0.552266 133.763 4.18487 127.523C6.38593 123.704 10.2571 120.351 13.4603 118.579C16.6906 116.73 19.2561 115.675 21.4251 114.518C22.5821 113.913 23.7038 113.286 24.8255 112.595C29.5203 109.694 34.8727 107.857 38.6829 106.074C45.142 103.217 50.9661 101.843 57.3792 100.705C58.9182 100.407 63.1856 99.3065 66.6419 99.1506C74.6997 98.572 82.6885 98.1136 89.4798 98.1984C91.284 98.2186 93.2563 98.3625 95.2728 98.5383C98.1666 98.8743 101.183 98.8851 104.146 98.3479C107.814 97.6872 110.356 96.7552 113.373 96.0783C115.829 95.5082 118.423 95.0606 122.426 94.9768C125.982 94.9003 130.183 94.9311 134.637 94.8225C142.734 94.6173 152.683 93.9414 161.786 93.8625C168.738 93.7851 174.998 93.8899 179.735 93.76C183.991 93.6509 185.961 92.9215 188.867 92.8098C189.642 92.7794 190.402 92.7502 191.147 92.7199C198.39 92.4548 203.182 91.8646 209.698 89.9338C213.34 88.9295 217.112 87.9266 221.041 86.8918C224.18 86.804 226.515 86.9387 228.315 87.1809C228.365 87.1745 228.514 87.1554 228.565 87.1506C233.529 88.1284 233.999 89.7716 237.208 90.9563C238.717 91.4992 241.783 92.1197 244.687 92.8537C246.704 91.8585 246.041 91.4789 246.492 91.0305C246.728 90.598 246.929 90.2041 247.12 89.8205C247.501 89.0571 247.838 88.3558 248.156 87.7414C248.785 86.5107 249.34 85.6476 249.758 85.4465C249.839 85.3894 249.924 85.3545 250.01 85.3342C248.999 85.0583 247.847 81.1598 246.673 80.6076C245.483 80.0402 238.021 80.6787 237.361 75.2385C237.129 72.8099 236.781 69.2415 237.426 64.3693C238.605 57.4745 239.325 50.3061 240.735 44.5471C241.095 43.1814 241.465 42.0789 241.699 41.3469C242.67 38.2061 244.062 34.5287 245.977 31.3762C246.132 31.1042 246.292 30.8195 246.46 30.5266C248.746 26.4115 250.833 21.844 253.503 17.8557C256.001 13.9864 259.55 10.504 263.324 7.59102C264.874 6.42109 266.71 5.31738 268.759 4.43282C272.698 3.8124 276.255 4.38822 278.229 4.75411C280.817 4.92657 282.324 5.37094 284.233 5.7209C290.006 5.1638 298.779 6.40488 302.218 6.31368C305.096 6.23921 306.742 5.45716 309.743 5.4084C312.044 5.36833 315.108 5.73564 318.83 5.92891C320.485 6.01959 322.42 6.07136 324.309 6.02657C334.34 5.80065 336.052 3.78092 342.046 3.51583C348.26 3.242 357.913 4.33218 365.829 3.6213C366.821 3.39907 367.824 3.17638 368.817 2.9543C368.108 2.45194 367.387 1.94976 366.675 1.44747C370.67 1.2136 372.394 2.24371 376.046 2.26387C380.373 2.28833 382.56 1.31348 385.466 1.32051C387.841 1.3272 391.067 2.11328 394.15 2.06856C398.645 2.00751 397.664 0.876639 400.083 0.669147C401.057 0.586154 418.884 0.00338576 419.906 0.000201766ZM437.647 16.8762C434.479 16.8981 432.432 18.0905 425.984 18.3645C404.564 19.2626 375.703 17.9533 355.321 18.5705C345.253 18.8728 331.424 20.4179 321.516 20.7834C320.717 20.8125 319.823 20.8333 318.874 20.8479C310.014 20.9743 294.593 20.6376 291.486 21.2815C289.367 21.7079 288.392 23.0173 285.893 23.217C284.205 23.361 280.966 22.9244 280.112 22.8029C279.294 22.836 278.633 22.8459 278.087 22.8781C274.164 23.0938 274.41 23.1952 273.293 23.5979C270.73 25.0324 269.519 25.8014 267.865 27.8107C267.157 28.7195 266.418 29.7879 265.586 31.1438C264.288 33.1618 262.939 36.2055 259.876 40.8234C258.074 43.4411 256.906 45.5375 256.327 48.0051C255.857 49.7585 255.624 53.116 255.24 56.4621C254.87 59.808 254.428 63.1011 253.936 66.1828C253.282 69.671 253.434 75.5737 252.831 79.2463C252.319 82.861 251.483 85.1123 250.39 85.3391C251.394 85.5712 252.607 87.2794 253.573 86.3098C253.675 87.2102 253.783 88.203 253.84 89.3537C253.866 89.9463 253.889 90.5477 253.838 91.4494C253.804 91.9171 253.779 92.4104 253.58 93.3518C253.456 93.8649 253.352 94.4202 252.826 95.5588C252.555 96.1098 252.137 96.9172 251.239 97.9016C250.376 98.8596 248.738 100.124 246.548 100.636L246.577 100.631C241.205 102.245 235.514 103.502 230.311 103.547L230.586 103.513C226.669 103.665 222.758 103.675 217.896 103.934C216.303 104.261 214.723 104.608 213.124 104.978C206.569 106.725 198.229 107.64 191.389 107.662C181.602 107.823 172.017 107.877 162.591 108.42C158.284 108.67 153.975 109.046 149.59 109.471C147.491 108.994 145.371 108.525 143.241 108.048C143.24 108.047 143.241 108.045 143.241 108.044C140.144 108.057 137.668 108.295 135.548 108.614C131.622 109.198 128.965 110.09 125.874 110.42C122.142 110.826 118.007 111.083 114.147 111.479C109.612 111.869 103.533 114.046 95.7366 114.414C86.9629 114.891 77.6089 115.592 67.6165 116.233C65.3291 116.351 63.9476 116.794 59.8255 117.508C54.911 118.244 49.2965 119.51 45.3323 121.166C40.1947 123.307 36.2222 124.535 33.0882 126.381C29.5514 128.472 25.8057 130.123 23.1067 131.523C20.3347 132.992 19.3063 133.832 18.2181 135.559C16.9569 137.533 16.2219 141.257 16.3284 144.695C16.4121 149.992 17.9916 155.441 18.5921 162.686C19.4148 173.001 20.3732 183.755 20.8109 192.56C20.8582 193.389 20.9173 194.316 20.9886 195.412C21.2355 198.681 21.1418 203.026 21.14 206.995C21.1425 210.976 21.5592 214.859 22.4905 218.973C23.4156 223.176 24.4969 227.28 25.386 231.211C26.6311 236.745 27.4926 241.25 27.6556 243.445C27.7949 245.362 26.9021 246.104 27.2952 248.089C27.6963 249.651 28.0954 251.218 28.4876 252.789C29.234 255.728 30.5331 257.979 32.5814 261.564C34.7385 265.506 36.1088 269.911 36.7796 274.222C37.1822 276.82 37.2922 279.15 37.5472 280.925C37.6032 281.337 37.6736 281.719 37.7444 282.027C39.9928 283.154 42.4491 284.047 45.473 285.246C46.8619 285.819 47.9461 286.335 48.9007 286.73C52.1739 288.52 55.2668 289.22 59.3538 289.347C69.3639 289.709 77.8957 288.871 88.2503 286.938C93.3664 286.063 99.8088 283.942 106.281 282.811C108.532 282.407 111.619 281.334 114.867 280.561C118.1 279.768 121.269 279.166 124.433 278.643C129.123 277.926 134.395 275.684 141.31 274.809C142.44 274.601 145.494 273.892 147.693 273.39C150.061 272.849 152.443 272.312 154.83 271.793C158.629 270.968 162.429 270.176 166.254 269.424C171.68 268.462 177.764 266.14 185.123 265.628C195.616 264.85 205.217 263.656 215.661 261.598C221.024 260.824 223.279 260.815 226.669 259.76C229.909 258.799 233.336 257.368 236.759 255.771C241.085 253.692 247.142 250.453 253.256 248.97C259.627 247.4 264.477 247.426 269.612 247.081C274.711 246.825 279.674 246.674 284.699 246.548C313.533 245.916 342.16 245.815 370.777 245.855C385.37 245.851 399.896 246.221 414.315 246.357C427.146 246.482 440.125 246.492 453.052 246.592C465.254 246.698 479.481 246.437 493.326 246.825C501.189 247.084 508.564 247.278 515.776 247.827C517.954 248.004 520.214 248.38 522.154 248.927C523.03 249.35 525.273 249.691 527.75 249.874C530.312 250.085 533.451 250.075 538.02 250.446C538.065 250.91 538.107 251.374 538.146 251.837C538.155 251.838 538.163 251.84 538.172 251.841C545.196 252.75 550.626 252.624 558.353 254.238C558.264 254.183 560.05 254.329 561.602 254.357C565.657 254.486 574.143 254.477 582.409 255.369C588.16 255.927 593.836 257.389 596.38 257.642C598.268 257.853 599.711 258.121 600.83 258.338C604.923 259.182 603.229 259.716 606.881 260.472C609.476 261.018 613.271 261.658 617.409 262.324C623.436 263.294 630.037 264.77 634.039 265.399C634.298 265.44 634.558 265.481 634.815 265.519C641.492 266.211 654.85 268.225 660.579 269.226C662.531 269.512 664.499 269.828 666.479 270.179C670.327 270.862 673.702 271.899 676.398 272.313C682.223 273.339 687.773 274.041 694.271 275.156C698.572 275.953 704.189 275.637 711.716 277.612C715.499 278.683 719.384 279.691 723.014 280.472C724.094 280.704 725.517 280.934 727.018 281.191C729.295 281.585 732.061 282.167 734.973 283.174C739.659 285.004 740.768 285.447 741.527 285.414C741.581 285.411 741.635 285.406 741.687 285.401C745.046 285.122 746.007 284.026 748.19 283.648C751.127 283.12 754.446 282.441 756.813 281.461C760.468 279.929 764.881 278.097 769.147 276.584C771.982 275.663 772.83 274.987 772.657 275.327C774.474 272.493 775.156 270.589 775.316 268.701C775.345 268.303 775.373 267.915 775.399 267.529C775.903 261.186 775.862 254.798 777.637 246.842C778.17 245.201 778.086 240.473 780.01 235.529C781.473 231.684 782.766 227.741 783.467 224.203C784.313 219.875 785.159 215.301 786.173 210.72C787.115 206.66 787.798 203.815 788.199 200.475C788.606 197.2 788.777 193.775 788.807 190.264C788.894 178.142 789.053 165.893 788.773 154.374C788.705 152.221 788.655 150.086 788.615 147.964C788.594 146.922 788.577 145.851 788.548 144.952C788.559 144.881 788.561 144.807 788.56 144.733C787.055 141.932 786.575 141.381 785.21 140.523C781.764 138.511 778.103 136.886 773.781 135.354C770.047 134.11 763.433 133.251 757.816 132.902C747.548 131.797 739.64 129.595 731.423 127.012C722.971 124.206 716.871 121.16 711.29 119.625C709.711 119.159 708.195 118.712 706.752 118.284C701.743 116.811 703.374 116.04 699.113 114.97C694.387 113.796 691.641 113.951 689.423 113.495C688.264 113.256 687.145 113.037 685.667 112.729C684.465 112.512 679.446 112.379 675.33 112.007C671.013 111.647 666.442 111.107 661.829 110.446C655.308 109.543 648.085 108.444 641.731 106.906C634.79 105.272 628.597 103.586 624.364 102.281C623.25 101.939 622.27 101.498 621.616 101.15C620.349 100.595 619.3 100.057 618.314 99.842C617.457 99.6547 615.361 99.8128 612.732 99.2824C607.141 98.1347 602.73 97.4397 598.214 97.425C594.433 97.3829 590.756 97.3282 587.068 97.2238C585.219 97.1702 583.38 97.1062 581.467 97.0012C579.356 96.8191 578.239 97.0035 574.353 96.1115C569.277 94.701 561.913 94.0987 554.354 93.1428C550.341 92.4567 549.386 90.6154 548.637 89.8147C548.014 88.9794 547.727 88.3893 547.477 87.8654C547.036 86.9045 546.822 86.2088 546.629 85.5686C546.258 84.2931 546.042 83.2431 545.841 82.2023C544.312 73.3721 543.763 65.2947 542.962 56.7785C542.743 54.3363 542.53 51.8914 542.248 49.6604C541.995 47.4194 541.489 45.6114 541.326 45.5461C538.555 41.0654 536.616 37.1571 534.28 33.5998C532.787 31.2929 531.474 29.0609 530.253 27.2707C529.502 26.0285 528.462 25.0629 528.229 24.8029C523.264 22.7595 520.896 21.6479 517.185 20.7815C515.088 20.2435 510.805 20.0887 507.183 19.924C503.408 19.7719 499.587 19.6732 495.791 19.5871C488.141 19.4175 480.562 19.3055 472.955 19.1809C467.419 19.091 461.897 18.9968 456.452 18.8869C446.184 18.6808 439.11 16.8659 437.647 16.8762ZM37.8636 282.478C37.8988 282.588 37.9326 282.672 37.9612 282.721C38.034 282.857 38.0138 282.718 37.8636 282.478ZM538.629 265.119C540.632 265.228 542.588 265.31 544.523 265.403C543.522 264.863 542.511 264.325 541.492 263.785C540.514 263.625 539.53 263.463 538.536 263.293C538.566 263.902 538.599 264.511 538.629 265.119ZM560.781 76.7785C560.991 77.4684 561.223 78.0988 561.481 78.6584C562.112 80.0627 563.337 81.5813 563.701 80.0647C563.599 79.8505 563.455 79.5091 562.898 78.7854C562.502 78.431 562.053 77.5922 560.781 76.7785ZM550.373 29.6154C548.414 29.4897 553.657 37.3445 554.763 37.1594C554.917 37.2403 555 37.2023 554.991 37.0168C555.054 36.8415 555.013 36.5023 554.826 35.924C554.535 35.0054 551.085 29.7343 550.373 29.6154Z" fill="#A6A6A6"/>
<path d="M248.695 70.249C248.17 74.8831 248.977 79.4347 248.977 89.3848C248.977 91.0143 249.44 95.4066 248.695 95.5143C244.555 96.4709 240.095 97.8358 233.953 98.4693C226.145 99.5209 220.726 100.609 216.538 101.532L216.165 101.615C210.182 102.935 206.749 103.693 196.694 103.851C190.036 103.955 178.329 103.955 168.275 104.494C158.221 105.032 150.068 106.078 141.899 106.6C133.73 107.123 125.781 106.996 120.952 107.231C114.446 107.547 110.248 109.141 103.087 109.343C92.0136 109.657 81.6774 110.366 75.3651 110.715C71.5831 110.924 69.3164 111.661 67.0377 111.982C62.4987 112.622 55.5074 114.088 50.7852 116.103C47.0665 117.69 42.3015 119.103 37.9916 121.605C30.1773 126.141 24.5189 127.101 20.9028 133.217C18.5842 137.138 18.0908 142.154 18.2769 145.897C18.5968 152.33 20.4189 158.171 20.8109 163.109C21.3462 169.852 22.3407 174.958 23.5572 193.96C24.083 202.174 22.6634 207.045 24.9319 217.273C25.9835 222.015 26.8755 225.24 27.7826 228.984C29.3791 235.572 31.3496 244.062 32.4262 248.939C33.3828 253.272 35.2664 256.191 36.5472 258.644C37.8173 261.077 39.114 264.369 39.7115 268.898C40.3514 273.747 39.7173 278.93 42.6763 280.605C45.8502 282.401 48.856 283.509 51.4408 284.615C55.15 286.202 58.8415 288.733 67.7567 288.73C83.645 288.723 87.3892 287.548 96.9581 286.085C101.827 285.34 107.185 283.547 114.696 282.284C119.121 281.539 121.556 280.164 132.336 278.587C138.139 277.738 143.077 275.786 148.582 275.21C150.581 275.001 160.175 272.695 173.536 270.241C181.002 268.869 184.7 267.309 191.179 266.867C208.268 265.702 214.06 264.45 221.762 263.171C226.817 262.331 230.72 263.267 244.257 257.251C248.99 255.147 252.648 252.963 259.157 251.34C261.723 250.7 265.486 249.864 288.153 249.446C310.82 249.028 351.167 249.028 372.095 249.135C393.023 249.243 394.486 249.452 414.603 249.664C434.72 249.877 472.361 249.699 491.596 250.406C511.678 251.144 514.724 251.079 518.666 251.777C522.245 252.411 528.123 251.818 534.507 253.044C539.983 254.096 547.147 255.048 553.505 256.636C556.879 257.479 566.359 256.907 578.136 258.112C584.329 258.746 588.12 259.857 591.829 260.222C596.15 260.646 602.459 262.086 611.579 264.026C618.563 265.512 624.364 267.2 629.098 267.824C633.957 268.464 645.492 268.7 659.624 271.523C663.301 272.258 665.787 273.152 669.237 273.848C678.087 275.635 682.759 276.334 686.535 277.117C691.606 278.169 698.096 278.281 702.794 279.651C707.875 281.134 712.046 282.099 714.612 282.607C717.795 283.237 722.098 283.611 725.806 284.612C728.552 285.353 731.468 286.449 735.004 286.3C742.73 285.974 748.719 285.01 753.05 283.231C756.642 281.755 759.416 280.508 764.77 278.479L764.979 278.4C767.959 277.272 770.72 276.227 772.258 273.725C773.949 270.972 775.665 267.658 775.948 263.465C776.483 255.54 776.715 249.111 777.956 244.156C778.802 240.78 778.536 238.052 779.964 234.441C781.551 230.428 782.988 226.166 783.762 222.408C784.503 218.81 785.323 214.515 786.404 209.839C787.455 205.291 789.117 200.274 789.251 188.778C789.356 179.849 789.543 163.12 789.248 154.439C788.931 145.127 789.154 143.697 788.507 142.59C787.025 140.052 785.553 136.751 781.424 134.462C778.574 132.881 774.986 131.071 768.856 128.972C764.839 127.598 757.243 126.582 750.909 126.233C749.014 126.128 739.573 124.941 727.117 121.152C719.86 118.944 715.045 116.465 707.01 114.383C692.759 110.69 682.886 108.57 681.651 108.282C678.467 107.541 673.669 107.956 657.853 105.533C651.651 104.583 646.271 103.841 638.823 102.144C628.173 99.7173 621.485 97.9446 618.801 97.4018C608.351 95.2891 602.95 93.5513 594.582 93.3949L593.971 93.3835C583.107 93.1806 575.362 93.036 573.207 92.4415C568.238 91.0699 560.235 90.459 552.409 89.5939C550.518 89.3848 549.161 77.7574 547.709 61.7126C546.968 53.5214 546.608 50.3262 545.064 47.9307C542.952 44.6523 540.994 40.7612 538.197 36.5213C534.919 31.5515 532.352 26.5826 528.907 25.3431C526.265 24.3929 522.935 22.5183 517.054 21.1145L516.99 21.0992C514.749 20.5634 511.3 19.739 472.091 19.3248C432.507 18.9067 358.71 18.9067 321.38 19.0144C284.051 19.1221 283.217 19.3497 282.366 19.4357C279.199 19.7556 275.351 19.5597 271.172 22.0806C268.011 23.9874 265.445 26.0674 263.152 29.2708C259.978 33.7054 258.048 38.2733 255.55 41.8332C252.807 45.7419 251.457 48.666 250.7 51.9693C249.855 55.6626 250.055 58.263 248.695 70.249Z" fill="#E9E9E9"/>
<path d="M420.457 11.6729C427.888 11.6659 428.522 12.6999 434.45 12.8135C447.075 13.0553 459.997 12.6781 472.164 12.4444C475.867 12.3752 479.462 12.3196 482.969 12.2998C489.745 12.2636 496.896 12.4573 503.724 12.8731C492.872 15.0921 516.629 18.1515 507.879 13.6153C511.542 14.1232 514.543 14.0288 518.564 14.7891C522.232 15.4491 526.147 16.599 529.562 18.2198C530.226 18.5255 530.785 18.7916 531.195 18.9815C535.005 20.5829 536.543 22.8294 537.999 24.752C539.409 26.734 540.56 28.7709 542.023 31.0616C542.473 31.7663 542.922 32.4495 543.375 33.1055C546.197 37.198 548.666 41.4221 550.638 44.3389C553.416 48.9269 553.22 51.9977 553.374 54.2061C553.396 56.4537 553.073 58.0646 552.375 59.0596C552.473 59.8001 552.562 60.5331 552.648 61.2657C553.393 67.5858 553.848 73.4439 554.613 78.1455C554.915 79.995 555.273 81.6843 555.708 83.0704C559.879 83.8422 566.147 85.4694 569.45 86.209C570.23 86.3866 571.977 86.6843 574.584 87.4541C575.512 87.7595 579.837 88.0719 583.366 88.2569C587.099 88.4571 591.081 88.6213 594.668 88.7715C600.261 88.9739 604.84 89.9731 606.435 90.2813C610.131 91.013 615.571 92.3342 619.679 93.0596C621.137 93.334 622.262 93.576 623.209 93.7461C628.121 94.6456 632.04 92.9076 639.81 97.8125C639.864 97.8471 639.919 97.8819 639.974 97.917C648.174 99.5263 651.982 100.006 658.51 101.246C659.831 101.495 661.235 101.757 662.812 102.038C664.49 102.335 664.619 102.821 665.622 102.95C667.661 103.211 671.171 103.273 674.809 103.522C677.936 103.754 680.413 104.077 682.508 104.601C683.816 104.929 684.521 104.933 684.348 104.155C688.377 104.797 692.406 105.478 696.424 106.191C697.745 106.81 699.065 107.432 700.378 108.057C702.566 108.274 704.749 108.499 706.941 108.736C706.036 109.175 706.758 109.711 708.097 110.188C711.379 111.274 718.013 112.681 714.863 110.669C719.806 112.638 724.145 114.8 728.558 116.418C731.157 117.38 733.784 118.272 736.436 119.092C734.731 121.478 753.015 122.658 751.155 120.722C751.18 120.724 751.2 120.725 751.213 120.726C752.11 120.777 753.003 120.839 753.894 120.911C759.352 121.859 764.143 122.141 770.522 124.105C773.294 125.067 776.224 126.208 779.315 127.818C781.211 128.81 782.633 129.673 783.699 130.359C788.682 133.906 788.032 134.688 788.993 137.297C789.923 138.583 790.656 139.902 791.313 140.95C792.404 142.996 792.174 144.072 792.314 145.021C793.609 149.548 793.623 151.865 793.357 154.3C792.877 158.488 791.386 162.401 792.819 175.157C791.893 178.16 791.581 183.214 791.55 188.806C791.586 195.337 791.108 202.992 789.881 208.652C789.708 209.581 789.884 209.857 789.865 210.64C789.858 210.88 789.835 211.167 789.779 211.532C789.339 214.299 787.995 220.071 787.675 223.214C787.52 224.588 787.506 225.45 787.878 225.432C786.59 229.079 785.031 232.425 783.367 235.689C783.358 235.718 783.349 235.747 783.34 235.776C782.665 237.969 782.824 240.177 782.464 243.609C782.843 243.662 783.223 243.714 783.603 243.766C783.406 244.283 783.198 244.838 782.971 245.412C780.827 249.897 780.948 258.283 780.354 262.391C780.288 262.874 780.1 263.144 779.889 263.731C779.696 264.338 779.489 265.217 779.111 266.71C778.54 269.172 777.021 272.783 775.234 275.554C773.884 277.771 771.812 279.12 770.326 279.826C769.022 281.135 767.694 282.204 766.568 283.229C766.509 283.282 766.451 283.335 766.393 283.388C760.72 285.861 757.954 285.762 754.525 286.821C754.148 286.943 753.762 287.069 753.369 287.2C752.971 287.369 749.175 288.627 745.462 289.195C741.742 289.823 738.092 290.059 737.719 290.104C736.692 290.213 735.891 290.325 735.18 290.446C732.3 290.872 729.667 291.002 724.451 289.631C722.581 289.193 719.918 288.815 715.652 288.106C714.967 287.986 714.292 287.84 713.61 287.664C711.317 287.057 709.403 286.312 707.246 285.752C705.898 285.4 703.79 284.918 701.42 284.361C696.708 283.425 688.13 283.647 687.03 283.986C686.511 283.802 685.913 283.61 685.234 283.392C681.335 282.025 673.776 280.727 668.095 279.506C664.71 278.785 662.26 277.989 660.979 277.582C660.173 277.314 659.859 276.875 658.66 276.347C657.976 276.06 657.038 275.744 655.615 275.433C652.299 274.647 643.525 274.115 639.19 273.682C634.585 273.171 632.944 272.436 630.782 272.193C630.065 272.113 629.343 272.096 628.539 272.067C627.079 272.016 625.549 271.963 623.739 271.578C618.895 270.519 614.708 269.137 610.72 268.064C607.51 267.194 604.482 266.367 601.621 265.761C598.014 265.004 594.469 264.498 591.409 264.5C585.804 264.257 581.733 263.806 577.546 263.877C576.972 263.876 576.409 263.876 575.843 263.874C573.934 263.604 572.052 263.145 570.002 263.034C567.343 262.889 564.63 262.802 561.827 262.72C558.877 262.563 556.586 262.802 552.181 261.939C546.402 260.46 540.124 259.579 533.5 258.287C528.885 257.276 524.564 257.764 517.76 256.897C509.993 255.799 500.015 255.831 491.416 255.302C490.617 255.262 489.732 255.222 488.934 255.188C476.921 254.619 446.688 252.473 454.738 255.96C450.654 256.51 421.673 255.161 414.548 254.964C414.317 254.958 414.111 254.954 413.931 254.951C408.085 254.868 403.446 255.421 398.844 255.353C389.158 255.195 381.565 254.89 372.065 254.898C368.001 254.901 363.561 254.958 358.47 255.11C354.132 255.242 349.463 255.974 346.887 255.965C343.782 255.952 340.439 255.243 336.42 255.204C326.837 255.11 308.985 255.425 299.807 255.412C298.12 255.407 297.524 254.789 295.139 254.625C292.825 254.468 290.459 254.368 288.243 254.338C281.377 254.241 275.891 254.858 277.307 256.309C271.273 255.977 264.928 256.101 260.641 257.29C255.946 258.531 252.257 260.747 246.916 263.233C246.879 263.25 246.842 263.268 246.805 263.284C243.667 264.686 240.078 266.192 235.855 267.443C231.834 268.788 225.851 269.257 222.836 269.641C213.179 271.43 201.786 272.739 191.625 273.4C186.412 273.683 180.712 275.714 174.744 276.817C169.343 277.889 164.523 278.984 160.561 279.981C155.655 281.181 153.603 282.024 149.383 282.865C146.197 283.38 143.64 284.782 133.473 286.358C132.245 286.496 130.915 286.652 129.496 286.839C125.373 287.323 122.576 288.077 116.207 289.222C116.096 289.238 115.984 289.253 115.871 289.269C109.96 289.933 104.396 291.156 97.8721 292.065C93.1485 292.625 88.5313 293.666 84.0948 295.016C78.0174 295.4 72.7049 295.388 67.7598 295.276C64.2899 295.199 60.7667 294.75 57.4346 293.646C54.0998 292.582 51.1427 290.705 49.3604 289.479C49.0561 289.283 48.7421 289.084 48.4229 288.88C47.2171 288.821 45.9465 288.744 44.6251 288.611C42.9971 287.912 41.3065 287.116 39.6466 286.192C39.6255 286.152 39.6041 286.111 39.5831 286.07C38.6136 285.11 37.8823 283.941 37.5059 282.854C35.1673 279.515 35.272 277.041 34.9464 274.989C34.7257 272.928 34.5953 271.127 34.2989 269.611C33.7305 266.585 32.6558 263.832 31.1641 261.455C29.3817 258.735 26.8669 254.363 25.9776 250.362C25.6364 249.022 25.3184 247.724 25.0421 246.502C24.1336 242.494 22.8767 236.879 21.4112 230.527C20.5871 226.965 19.5431 222.892 18.6719 218.662C17.7865 214.52 17.2922 209.916 17.3516 205.607C17.4032 201.276 17.6969 197.698 17.5245 194.347C17.1091 184.955 16.5445 176.725 16.1251 171.468C15.8228 167.587 15.4757 165.319 15.3565 163.542C15.2419 161.981 15.243 160.79 15.6827 158.182C15.2263 156.401 14.7353 154.547 14.3009 152.616C13.7324 151.457 13.1828 150.254 12.6729 148.995C12.5758 148.085 12.5015 147.147 12.4591 146.186C12.2968 141.17 12.9181 135.7 16.0928 130.373C18.2149 126.752 21.9278 123.849 24.9903 122.277C28.0915 120.633 30.6976 119.569 32.9796 118.351C33.7667 117.938 34.5544 117.503 35.3419 117.039C39.642 114.483 44.6333 112.848 48.6456 111.09C54.5275 108.596 60.1864 107.319 66.2383 106.311C68.1745 105.966 71.8628 105.034 75.043 104.896C83.3029 104.338 91.4162 103.868 98.2803 103.864C99.741 103.862 101.318 103.918 102.936 103.999C106.157 104.215 109.571 104.036 112.774 103.478C116.01 102.923 118.263 102.351 120.693 101.918C123.214 101.461 125.802 101.09 130.166 101.003C133.462 100.935 137.358 100.919 141.525 100.767C149.52 100.468 159.166 99.6834 168.008 99.5079C174.848 99.3555 181.065 99.4053 185.745 99.2979C189.864 99.2102 191.78 98.7203 194.595 98.6358C195.281 98.6149 195.953 98.5938 196.611 98.5723C203.703 98.3817 208.959 97.7711 215.322 96.0196C218.854 95.1234 222.49 94.2522 226.294 93.3809C229.305 93.1859 231.541 93.1915 233.256 93.292C233.288 93.288 233.384 93.2766 233.417 93.2735C238.346 93.7425 238.671 94.7952 241.682 95.4161C243.13 95.7017 246.066 95.9241 248.834 96.2491C250.355 95.5222 249.88 95.1109 250.202 94.7168C250.37 94.3221 250.503 93.9579 250.629 93.6036C250.879 92.8976 251.091 92.2473 251.29 91.6758C251.683 90.5325 252.031 89.7165 252.305 89.4883C252.363 89.4239 252.425 89.3852 252.488 89.3662C251.814 89.1575 251.025 85.3336 250.228 84.7871C249.426 84.2344 244.47 84.8042 243.945 79.4776C243.77 77.2162 243.445 73.933 243.982 69.7139C245.003 63.346 245.496 56.5359 246.811 51.0782C247.269 49.3328 247.798 47.9645 248.113 47.1416C249.049 44.6599 250.341 41.8812 251.956 39.3116C252.287 38.7645 252.625 38.1763 252.978 37.5635C255.143 33.7002 257.036 29.864 259.367 26.5616C261.786 23.0276 265.034 20.1214 268.53 17.7002C270.371 16.4239 272.627 15.3097 275.076 14.5723C277.76 14.3249 280.178 14.6112 281.893 14.753C284.679 14.864 286.654 15.2434 288.928 15.5293C294.511 15.1427 302.932 15.9569 306.357 15.8916C309.081 15.8387 310.79 15.3145 313.628 15.2793C315.649 15.2533 318.213 15.4454 321.37 15.5762C323.281 15.6595 325.479 15.7185 327.761 15.6807C337.43 15.5246 339.186 14.1768 344.964 13.9981C350.999 13.8135 360.334 14.5392 368.023 14.0655C368.986 13.9173 369.963 13.7691 370.916 13.6211C370.231 13.2861 369.538 12.9512 368.844 12.6162C372.708 12.4604 374.386 13.1473 377.93 13.1612C382.12 13.1781 384.252 12.5287 387.064 12.5342C389.369 12.5393 392.494 13.0648 395.485 13.0362C399.844 12.9973 398.892 12.2427 401.237 12.1055C402.177 12.0501 419.467 11.6735 420.457 11.6729ZM437.685 22.9414C434.608 22.9522 432.628 23.7447 426.371 23.9209C405.594 24.498 377.603 23.6177 357.827 24.0323C348.076 24.2348 334.658 25.2692 325.053 25.5196C323.983 25.5468 322.728 25.5648 321.399 25.5752C312.676 25.6375 298.813 25.4678 295.883 25.8868C293.835 26.1752 292.849 27.0503 290.425 27.1895C288.333 27.317 284.735 26.855 283.124 26.9395C283.02 26.9483 282.918 26.9564 282.817 26.9649C277.387 27.2468 276.725 27.4742 274.938 28.3233C272.34 29.782 270.671 30.912 268.791 33.3067C268.247 34.0187 267.688 34.8135 267.097 35.7305C265.654 37.8556 264.189 41.1227 261.077 45.7119C259.234 48.3133 257.854 50.7017 257.214 53.461C256.688 55.5029 256.498 58.6928 256.144 61.835C255.808 64.9825 255.412 68.0684 254.981 70.9619C254.393 74.8414 254.702 80.2144 254.308 83.6758C253.996 87.0871 253.429 89.1972 252.7 89.3711C253.378 89.5785 254.226 91.3937 254.862 90.4209C254.943 91.2789 255.028 92.191 255.067 93.2051C255.085 93.726 255.099 94.2467 255.052 94.9795C255.022 95.357 254.996 95.7506 254.839 96.4541C254.741 96.838 254.66 97.2453 254.265 98.0557C253.882 98.6572 253.06 100.795 249.558 101.477L250.052 101.384C244.593 102.901 239.417 104.047 234.545 104.201L234.723 104.181C230.879 104.438 227.049 104.616 222.291 105.061C220.704 105.374 219.127 105.708 217.538 106.063C211.098 107.707 203.448 108.503 196.768 108.531C187.235 108.675 177.826 108.718 168.528 109.228C164.449 109.454 160.369 109.79 156.25 110.17C154.232 109.903 152.199 109.644 150.159 109.379L150.158 109.376C146.859 109.473 144.294 109.727 142.117 110.02C138.682 110.475 136.24 111.044 133.426 111.276C129.586 111.6 125.335 111.773 121.19 112.104C116.359 112.423 110.434 114.403 103.238 114.672C94.6033 115.056 85.3952 115.687 75.6729 116.277C73.2485 116.387 71.4275 116.901 67.8155 117.502C62.7903 118.239 57.2809 119.42 52.9503 121.176C48.1758 123.119 44.093 124.346 40.711 126.29C37.3909 128.203 33.8857 129.709 31.0958 131.124C28.255 132.575 26.6415 133.817 25.3878 135.868C23.8715 138.305 23.2014 142.105 23.3301 145.646C23.469 150.93 25.0755 156.213 25.6485 162.725C26.5319 172.672 27.5054 182.715 27.962 191.122C28.0083 191.874 28.0609 192.693 28.1251 193.668C28.3544 196.659 28.2562 200.633 28.2344 204.472C28.2154 208.32 28.6194 212.216 29.5548 216.248C30.4509 220.233 31.5117 224.14 32.3995 227.865C33.7782 233.68 34.7838 238.458 35.0665 240.696C35.2958 242.534 34.739 243.187 35.1436 245.106C35.4001 246.128 35.6548 247.15 35.9053 248.171C36.6277 251.155 38.0221 253.584 39.9259 256.88C41.8968 260.44 43.1454 264.424 43.7413 268.366C44.098 270.719 44.1803 272.897 44.4151 274.688C44.4959 275.795 44.8276 276.576 44.9639 276.886C47.4512 278.204 50.139 279.176 53.2442 280.4C55.2992 281.249 56.8117 281.996 58.3194 282.502C61.1599 283.706 64.3071 284.217 67.755 284.286C77.5241 284.59 86.3427 283.736 96.3233 281.936C101.646 281.054 107.778 279.098 113.987 278.07C118.897 276.975 125.765 274.989 131.694 274.203C136.586 273.488 141.775 271.393 148.105 270.647C152.292 269.855 158.019 268.496 163.024 267.485C166.238 266.822 169.453 266.184 172.68 265.576C178.186 264.629 184.066 262.486 190.851 262.053C201.112 261.34 210.773 260.193 220.947 258.268C225.714 257.601 228.504 257.539 231.961 256.495C235.322 255.539 238.769 254.149 242.195 252.61C246.635 250.553 252.198 247.682 257.911 246.345C263.635 244.972 268.424 244.964 273.379 244.657C278.324 244.425 283.159 244.289 288.056 244.178C316.186 243.625 344.178 243.564 372.124 243.621C386.371 243.628 400.541 243.983 414.662 244.112C427.04 244.23 439.528 244.237 451.965 244.32C464.049 244.412 478.203 244.238 491.809 244.64C499.097 244.885 506.074 245.087 512.609 245.493C515.113 245.658 517.446 245.982 519.595 246.526C522.224 247.312 526.341 247.135 533.781 247.591C533.853 247.903 533.923 248.217 533.991 248.529C534.445 248.585 534.895 248.645 535.339 248.712C542.05 249.652 547.242 249.726 554.817 251.385C555.072 251.433 556.201 251.541 557.269 251.587C561.419 251.791 570.375 251.73 578.698 252.617C584.372 253.159 589.685 254.516 592.365 254.769C593.311 254.87 594.118 254.989 594.793 255.098C598.774 255.795 597.188 256.102 600.738 256.785C603.614 257.355 607.996 258.127 612.662 258.932C617.946 259.839 623.474 261.109 627.377 261.848C628.164 261.997 628.995 262.149 629.829 262.274C636.635 263.022 647.808 264.389 652.902 265.198C655.457 265.545 658.039 265.944 660.646 266.409C664.225 267.039 667.473 268.04 670.315 268.511C676.009 269.539 681.556 270.292 687.726 271.375C692.316 272.241 697.831 272.034 704.507 273.78C708.273 274.843 712.115 275.831 715.8 276.605C716.322 276.714 716.897 276.819 717.496 276.922C720.29 277.404 723.937 278.027 727.287 279.124C730.515 280.265 732.096 280.822 732.83 280.885C733.667 280.982 734.271 280.908 734.772 280.784C736.394 280.485 737.379 280.078 738.979 279.885C742.707 279.419 747.161 278.808 750.667 277.432C754.363 275.942 758.564 274.238 762.622 272.813C765.703 271.798 767.169 270.92 767.254 270.65C768.968 268.028 769.843 265.915 770.121 263.965C770.164 263.671 770.196 263.376 770.217 263.078C770.74 256.713 770.676 250.299 772.404 242.766C773.002 240.76 772.919 236.56 774.636 232.334C776.094 228.622 777.394 224.816 778.131 221.248C778.966 217.125 779.791 212.829 780.776 208.538C782.662 201.448 783.385 195.651 783.431 188.71C783.527 177.223 783.692 165.655 783.408 154.638C783.341 152.608 783.29 150.598 783.249 148.593C783.228 147.605 783.21 146.595 783.18 145.708C783.201 145.423 783.157 145.108 783.121 144.888C783.044 144.75 782.967 144.618 782.895 144.489C781.432 141.824 780.523 140.621 778.614 139.529C775.111 137.55 771.309 135.92 766.984 134.439C762.669 133.074 756.302 132.331 750.592 131.977C741.19 131.003 733.328 128.948 725.471 126.564C717.512 124.034 711.321 121.096 705.648 119.634C704.05 119.19 702.516 118.766 701.059 118.363C696.162 117.019 697.654 116.598 693.504 115.589C688.9 114.481 686.277 114.417 684.122 113.971C683.001 113.738 681.88 113.515 680.499 113.228C678.641 112.884 674.114 112.801 670.081 112.416C665.921 112.057 661.501 111.529 657.032 110.89C650.62 110.001 643.71 108.963 637.596 107.53C630.996 106.024 625.117 104.505 621.01 103.346C619.736 102.988 618.641 102.554 617.825 102.226C616.762 101.839 615.852 101.486 615.011 101.309C614.179 101.133 612.205 101.126 609.632 100.604C603.98 99.4337 599.24 98.6416 594.484 98.6172C590.795 98.5674 587.21 98.5116 583.625 98.4131C581.83 98.3626 580.045 98.303 578.21 98.2071C576.247 98.0563 574.927 98.1586 571.821 97.4649C566.332 96.0212 559.243 95.5237 551.853 94.6319C547.583 93.5844 547.821 91.911 547.225 91.3194C546.82 90.5621 546.647 90.0674 546.462 89.5401C546.13 88.5563 545.928 87.7169 545.745 86.8975C544.078 78.3792 543.563 70.4895 542.746 62.1621C542.324 57.7829 541.902 51.9864 540.853 50.6455C538.245 46.5571 536.311 42.7746 533.974 39.3077C532.544 37.1605 531.266 35.0407 530.012 33.2491C528.834 31.4635 527.276 30.0551 527.172 30.1651C522.52 28.3071 519.682 27.0124 515.852 26.1514C510.027 25.0871 501.662 25.159 494.389 24.9248C486.892 24.7601 479.478 24.6546 472.036 24.5479C466.632 24.4712 461.242 24.3967 455.933 24.3125C445.967 24.1556 439.1 22.9365 437.685 22.9414ZM535.352 257.56C537.279 257.739 539.176 257.884 541.056 258.036C540.054 257.625 539.047 257.216 538.034 256.802C537.084 256.646 536.127 256.487 535.165 256.318C535.226 256.732 535.289 257.146 535.352 257.56ZM556.065 84.0967C556.365 84.8561 556.709 85.4987 557.037 85.8047C557.196 85.9497 557.361 86.0179 557.414 85.8301C557.376 85.6383 557.69 85.1726 555.951 83.6885C555.936 83.6784 555.92 83.6686 555.904 83.6582C555.958 83.8085 556.01 83.9554 556.065 84.0967ZM545.286 37.4903C544.332 37.227 546 40.1978 547.508 42.4004C549.032 44.6142 550.494 45.9486 549.523 43.7246C549.118 42.7969 545.828 37.6565 545.286 37.4903Z" fill="white"/>
<path d="M410.521 67.3844C409.215 67.3844 408.071 65.8444 407.091 62.7644C406.158 59.6844 405.691 56.721 405.691 53.8744C405.691 53.221 406.415 52.4977 407.861 51.7044C409.308 50.8644 411.501 50.1177 414.441 49.4644C417.381 48.811 420.578 48.4844 424.031 48.4844C437.425 48.4844 444.121 53.1744 444.121 62.5544C444.121 65.1677 443.561 67.6177 442.441 69.9044C441.321 72.191 440.085 74.0344 438.731 75.4344C437.378 76.7877 435.791 78.0477 433.971 79.2144C431.871 80.521 429.865 81.5477 427.951 82.2944H441.951C442.231 82.2944 442.535 82.4344 442.861 82.7144C443.188 82.9477 443.538 83.6944 443.911 84.9544C444.285 86.1677 444.471 87.7077 444.471 89.5744C444.471 91.3944 444.355 92.9344 444.121 94.1944C443.888 95.4077 443.608 96.2944 443.281 96.8544C442.581 98.1144 441.951 98.791 441.391 98.8844L441.041 98.9544H410.381C407.441 98.9544 405.971 94.3577 405.971 85.1644C405.971 84.1377 409.005 81.3144 415.071 76.6944C417.358 75.0144 419.458 73.171 421.371 71.1644C423.285 69.1577 424.241 67.5244 424.241 66.2644C424.241 64.8644 423.191 64.1644 421.091 64.1644C418.991 64.1644 416.775 64.701 414.441 65.7744C412.155 66.8477 410.848 67.3844 410.521 67.3844Z" fill="white"/>
<path d="M387.94 98.6044C385.327 99.2577 382.084 99.5844 378.21 99.5844C374.337 99.5844 371.07 99.2577 368.41 98.6044C365.797 97.9044 363.417 96.6444 361.27 94.8244C357.024 91.231 354.9 84.2077 354.9 73.7544C354.9 63.6744 357.117 56.8377 361.55 53.2444C363.744 51.471 366.147 50.2344 368.76 49.5344C371.374 48.8344 374.5 48.4844 378.14 48.4844C381.827 48.4844 384.977 48.8344 387.59 49.5344C390.25 50.2344 392.677 51.471 394.87 53.2444C399.304 56.8377 401.52 63.6744 401.52 73.7544C401.52 84.2077 399.397 91.231 395.15 94.8244C393.004 96.6444 390.6 97.9044 387.94 98.6044ZM376.74 87.6844C377.114 88.291 377.604 88.5944 378.21 88.5944C378.864 88.5944 379.377 88.291 379.75 87.6844C380.124 87.031 380.427 85.631 380.66 83.4844C380.894 81.3377 381.01 78.281 381.01 74.3144C381.01 70.3477 380.894 67.2677 380.66 65.0744C380.427 62.8344 380.124 61.3644 379.75 60.6644C379.377 59.9177 378.864 59.5444 378.21 59.5444C377.604 59.5444 377.114 59.8944 376.74 60.5944C375.807 62.181 375.34 66.7544 375.34 74.3144C375.34 81.8277 375.807 86.2844 376.74 87.6844Z" fill="white"/>
<path d="M694.549 226.34C691.373 225.65 688.701 224.781 686.535 223.733C684.368 222.686 682.504 221.261 680.945 219.458C677.699 215.826 676.905 210.199 678.562 202.577C680.034 195.802 683.057 191.381 687.63 189.315C691.903 187.406 696.962 187.087 702.805 188.357C705.304 188.9 707.414 189.492 709.138 190.133C710.87 190.731 712.564 191.609 714.219 192.767C715.917 193.934 717.173 195.294 717.989 196.846C718.847 198.407 719.382 200.43 719.596 202.916C719.819 205.359 719.585 208.168 718.895 211.344C717.496 217.781 714.621 222.233 710.27 224.702C705.929 227.129 700.689 227.675 694.549 226.34ZM695.018 213.471C694.983 215.06 695.082 216.035 695.314 216.395C695.588 216.765 695.979 217.006 696.487 217.116C697.038 217.236 697.493 217.18 697.854 216.948C698.257 216.725 698.752 215.879 699.337 214.41C699.965 212.95 700.527 211.077 701.024 208.79C701.531 206.461 701.854 204.669 701.994 203.413C702.185 202.124 702.27 201.123 702.248 200.408C702.268 199.703 702.192 199.133 702.021 198.696C701.76 198.063 701.354 197.687 700.803 197.567C700.295 197.456 699.835 197.534 699.423 197.799C699.019 198.022 698.499 198.884 697.862 200.386C697.235 201.846 696.612 203.995 695.996 206.832C695.379 209.669 695.053 211.882 695.018 213.471Z" fill="white"/>
<path d="M644.571 217.394C640.671 216.811 637.765 215.435 635.855 213.266C635.027 212.354 634.383 211.096 633.921 209.494C633.502 207.898 633.443 206.093 633.744 204.078C634.045 202.064 634.779 200.377 635.946 199.018C637.156 197.665 638.507 196.684 640.001 196.075C641.494 195.465 643.2 195.041 645.12 194.802C648.014 194.49 651.133 194.583 654.476 195.083L656.597 195.4C656.86 193.642 656.424 192.307 655.29 191.393C654.864 191.022 654.115 190.757 653.043 190.597C652.015 190.443 650.709 190.533 649.125 190.866C647.585 191.205 646.277 191.601 645.202 192.054C644.133 192.464 643.427 192.643 643.084 192.592C642.313 192.477 641.413 191.313 640.385 189.1C639.364 186.845 638.978 184.881 639.228 183.21C639.311 182.652 640.213 182.042 641.933 181.379C643.653 180.716 646.004 180.235 648.984 179.935C652.013 179.599 654.9 179.636 657.643 180.046C660.385 180.455 662.707 181.043 664.608 181.809C666.559 182.539 668.107 183.318 669.254 184.146C670.444 184.981 671.387 185.998 672.084 187.198C672.824 188.404 673.345 189.467 673.645 190.388C673.988 191.316 674.186 192.485 674.238 193.895C674.259 195.519 674.096 197.488 673.75 199.802L670.86 219.153C670.789 219.624 669.574 219.837 667.215 219.791C664.905 219.709 662.615 219.498 660.343 219.159C658.115 218.826 656.667 218.544 656.001 218.313C655.377 218.088 655.014 217.881 654.911 217.69C654.808 217.499 654.745 217.183 654.724 216.742L654.757 213.001L654.242 212.924C652.595 216.621 649.371 218.111 644.571 217.394ZM654.779 208.009L655.903 200.488C654.789 200.321 653.818 200.658 652.992 201.499C652.165 202.339 651.662 203.36 651.483 204.56C651.06 207.388 651.492 208.898 652.778 209.091C653.335 209.174 653.783 209.109 654.121 208.897C654.509 208.648 654.728 208.352 654.779 208.009ZM674.353 175.97C674.257 176.613 672.992 177.453 670.559 178.492C668.168 179.537 666.137 179.934 664.466 179.685C662.837 179.441 660.92 178.783 658.715 177.708C656.558 176.598 655.137 175.991 654.452 175.888C653.809 175.792 652.487 175.989 650.486 176.479C648.491 176.926 647.108 177.092 646.337 176.976C645.565 176.861 644.863 175.99 644.23 174.361C643.646 172.697 643.415 171.458 643.537 170.643C643.646 169.915 644.957 169.059 647.469 168.076C650.031 167.057 652.084 166.662 653.627 166.893C655.17 167.123 657.001 167.769 659.121 168.831C661.283 169.899 662.858 170.506 663.843 170.654C664.143 170.698 665.248 170.491 667.157 170.031C669.108 169.578 670.491 169.412 671.306 169.534C672.163 169.662 672.901 170.583 673.522 172.297C674.185 174.017 674.462 175.241 674.353 175.97Z" fill="white"/>
<path d="M608.379 212.927C605.147 212.581 602.398 212.005 600.131 211.196C597.864 210.387 595.858 209.171 594.114 207.547C590.497 204.284 589.102 198.775 589.931 191.019C590.667 184.125 593.197 179.405 597.522 176.86C601.565 174.503 606.56 173.641 612.506 174.276C615.048 174.548 617.21 174.909 618.993 175.361C620.779 175.77 622.558 176.461 624.328 177.434C626.141 178.412 627.536 179.629 628.514 181.085C629.534 182.545 630.284 184.499 630.764 186.947C631.248 189.352 631.317 192.17 630.972 195.402C630.273 201.951 627.893 206.687 623.833 209.609C619.778 212.488 614.627 213.594 608.379 212.927ZM607.462 200.082C607.598 201.665 607.801 202.624 608.071 202.958C608.383 203.296 608.798 203.493 609.315 203.548C609.875 203.608 610.322 203.503 610.656 203.234C611.033 202.969 611.433 202.075 611.857 200.551C612.325 199.032 612.683 197.109 612.931 194.782C613.184 192.413 613.313 190.596 613.317 189.333C613.369 188.031 613.345 187.026 613.247 186.318C613.191 185.615 613.055 185.056 612.837 184.64C612.509 184.039 612.065 183.708 611.505 183.648C610.988 183.593 610.539 183.719 610.157 184.027C609.781 184.292 609.356 185.205 608.884 186.767C608.417 188.286 608.029 190.489 607.721 193.376C607.413 196.263 607.326 198.498 607.462 200.082Z" fill="white"/>
<path d="M581.215 214.4C580.278 215.804 578.966 216.721 577.28 217.152C575.633 217.63 573.773 217.786 571.7 217.621C569.67 217.459 568.183 217.298 567.239 217.135C566.293 217.017 565.291 216.763 564.235 216.375C563.219 216.033 562.428 215.601 561.861 215.077C560.571 213.801 560.024 211.932 560.22 209.47C560.502 205.927 561.55 204.229 563.365 204.373C563.926 204.418 564.365 204.366 564.681 204.217C565.533 203.893 566.05 202.587 566.232 200.298L568.918 166.539C568.994 165.589 570.299 164.758 572.833 164.047C575.414 163.296 578.108 163.032 580.916 163.256C585.193 163.596 587.25 164.781 587.089 166.811L584.238 202.643C584 205.624 583.682 207.989 583.282 209.74C582.882 211.49 582.193 213.044 581.215 214.4Z" fill="white"/>
<path d="M522.926 206.368C519.68 206.205 516.903 205.783 514.594 205.103C512.285 204.423 510.214 203.321 508.382 201.798C504.587 198.743 502.885 193.321 503.277 185.531C503.624 178.606 505.886 173.752 510.061 170.968C513.965 168.387 518.904 167.247 524.876 167.547C527.429 167.675 529.608 167.915 531.413 168.266C533.22 168.573 535.034 169.164 536.856 170.036C538.721 170.911 540.183 172.047 541.241 173.445C542.342 174.846 543.2 176.754 543.817 179.172C544.435 181.546 544.663 184.356 544.5 187.602C544.169 194.18 542.059 199.042 538.17 202.187C534.283 205.29 529.201 206.683 522.926 206.368ZM521.29 193.595C521.514 195.168 521.771 196.114 522.058 196.432C522.389 196.752 522.815 196.925 523.334 196.952C523.896 196.98 524.337 196.85 524.655 196.562C525.016 196.277 525.366 195.361 525.704 193.816C526.085 192.274 526.335 190.334 526.452 187.997C526.572 185.616 526.598 183.795 526.531 182.534C526.51 181.231 526.43 180.229 526.292 179.528C526.197 178.829 526.029 178.278 525.789 177.876C525.428 177.293 524.966 176.988 524.403 176.96C523.884 176.934 523.442 177.085 523.079 177.414C522.717 177.7 522.345 178.636 521.961 180.222C521.58 181.764 521.317 183.986 521.171 186.885C521.025 189.785 521.065 192.021 521.29 193.595Z" fill="white"/>
<path d="M472.137 204.435C468.196 204.322 465.147 203.303 462.991 201.377C462.06 200.57 461.27 199.399 460.62 197.863C460.014 196.329 459.74 194.543 459.798 192.508C459.856 190.472 460.383 188.709 461.379 187.221C462.419 185.733 463.643 184.597 465.053 183.814C466.462 183.031 468.106 182.406 469.983 181.939C472.82 181.283 475.928 181.003 479.306 181.1L481.45 181.161C481.501 179.385 480.909 178.111 479.674 177.339C479.206 177.022 478.43 176.848 477.348 176.817C476.308 176.787 475.022 177.032 473.49 177.552C472.001 178.073 470.75 178.623 469.736 179.201C468.724 179.735 468.045 179.998 467.698 179.988C466.918 179.966 465.886 178.917 464.602 176.843C463.318 174.726 462.701 172.822 462.749 171.133C462.765 170.57 463.587 169.856 465.216 168.993C466.845 168.129 469.12 167.37 472.044 166.717C475.011 166.021 477.881 165.713 480.654 165.792C483.426 165.871 485.801 166.177 487.78 166.711C489.804 167.202 491.434 167.79 492.672 168.476C493.953 169.163 495.011 170.06 495.846 171.168C496.725 172.276 497.369 173.27 497.777 174.149C498.229 175.029 498.565 176.166 498.785 177.559C498.999 179.169 499.073 181.144 499.006 183.483L498.448 203.04C498.434 203.516 497.254 203.873 494.906 204.109C492.603 204.304 490.303 204.368 488.008 204.302C485.755 204.238 484.284 204.131 483.595 203.981C482.949 203.833 482.563 203.67 482.438 203.493C482.313 203.316 482.214 203.01 482.139 202.574L481.725 198.856L481.206 198.841C480.011 202.709 476.989 204.573 472.137 204.435ZM481.152 193.898L481.369 186.296C480.243 186.263 479.319 186.714 478.599 187.647C477.879 188.58 477.501 189.653 477.467 190.866C477.385 193.725 477.994 195.173 479.293 195.21C479.857 195.226 480.293 195.109 480.604 194.857C480.959 194.564 481.142 194.244 481.152 193.898ZM496.758 159.749C496.739 160.399 495.584 161.384 493.292 162.706C491.043 164.029 489.074 164.667 487.385 164.618C485.739 164.571 483.757 164.146 481.439 163.343C479.165 162.498 477.682 162.066 476.989 162.046C476.339 162.027 475.05 162.381 473.122 163.106C471.195 163.788 469.842 164.118 469.062 164.095C468.283 164.073 467.481 163.292 466.658 161.751C465.88 160.168 465.502 158.965 465.526 158.142C465.547 157.406 466.746 156.399 469.123 155.123C471.545 153.805 473.536 153.169 475.095 153.213C476.655 153.258 478.55 153.68 480.781 154.481C483.056 155.283 484.692 155.698 485.688 155.726C485.991 155.735 487.063 155.397 488.903 154.713C490.787 154.03 492.14 153.7 492.963 153.723C493.829 153.748 494.673 154.574 495.493 156.201C496.357 157.83 496.779 159.013 496.758 159.749Z" fill="white"/>
<path d="M451.047 200.638C449.736 201.577 447.908 202.359 445.561 202.983C443.258 203.565 440.265 203.836 436.582 203.796C432.942 203.756 429.479 203.415 426.192 202.773C422.906 202.13 420.551 201.433 419.129 200.681C417.708 199.929 417 199.206 417.008 198.513C417.034 196.086 417.408 193.577 418.13 190.984C418.852 188.349 419.69 187.036 420.643 187.047C420.816 187.048 422.608 187.653 426.018 188.86C429.429 190.067 432.001 190.68 433.734 190.699C435.467 190.718 436.596 190.557 437.119 190.216C437.644 189.832 437.909 189.293 437.917 188.599C437.924 187.906 437.454 187.294 436.507 186.764C435.56 186.19 434.373 185.701 432.948 185.295C431.522 184.846 429.969 184.223 428.288 183.424C426.65 182.627 425.121 181.743 423.701 180.774C422.282 179.806 421.105 178.449 420.17 176.706C419.236 174.919 418.782 172.899 418.806 170.646C418.911 161.026 424.704 156.279 436.187 156.404C440.477 156.45 444.178 156.772 447.292 157.37C450.406 157.923 452.588 158.554 453.837 159.261C455.13 159.925 455.773 160.582 455.766 161.232C455.741 163.485 455.173 165.906 454.061 168.494C452.993 171.082 451.961 172.371 450.964 172.36C450.791 172.359 450.23 172.157 449.281 171.757C446.435 170.469 444.058 169.815 442.152 169.794C440.288 169.774 439.008 169.934 438.311 170.273C437.657 170.612 437.327 171.15 437.319 171.887C437.311 172.58 437.781 173.17 438.729 173.657C439.678 174.101 440.843 174.525 442.226 174.931C443.652 175.293 445.184 175.873 446.822 176.671C448.504 177.426 450.054 178.331 451.473 179.386C452.892 180.399 454.068 181.841 455.001 183.715C455.934 185.589 456.387 187.76 456.36 190.23C456.332 192.83 455.635 195.184 454.268 197.293C453.431 198.584 452.357 199.699 451.047 200.638Z" fill="white"/>
<path d="M378.54 203.786C375.29 203.819 372.493 203.565 370.147 203.025C367.801 202.485 365.668 201.51 363.747 200.099C359.775 197.279 357.75 191.969 357.672 184.17C357.602 177.237 359.567 172.255 363.567 169.225C367.309 166.414 372.169 164.978 378.149 164.918C380.706 164.892 382.895 165 384.718 165.242C386.54 165.44 388.386 165.92 390.257 166.681C392.172 167.442 393.699 168.488 394.839 169.82C396.023 171.152 396.995 173.005 397.755 175.381C398.516 177.714 398.912 180.505 398.945 183.755C399.011 190.341 397.198 195.321 393.505 198.695C389.811 202.026 384.823 203.723 378.54 203.786ZM376.138 191.134C376.457 192.691 376.769 193.62 377.076 193.92C377.425 194.22 377.86 194.367 378.38 194.362C378.944 194.356 379.375 194.2 379.676 193.894C380.019 193.587 380.313 192.652 380.557 191.09C380.845 189.527 380.977 187.575 380.954 185.236C380.93 182.852 380.846 181.033 380.704 179.778C380.604 178.479 380.464 177.483 380.284 176.792C380.147 176.1 379.946 175.56 379.682 175.173C379.287 174.613 378.807 174.337 378.244 174.342C377.724 174.348 377.292 174.525 376.949 174.875C376.606 175.182 376.29 176.139 376.003 177.745C375.715 179.308 375.586 181.541 375.615 184.444C375.645 187.347 375.819 189.577 376.138 191.134Z" fill="white"/>
<path d="M352.925 169.885L353.632 201.922C353.642 202.399 352.394 202.816 349.888 203.175C347.425 203.489 344.871 203.676 342.229 203.734C339.629 203.791 337.937 203.72 337.153 203.521C336.411 203.277 336.033 202.874 336.021 202.311L335.34 171.443C335.319 170.49 336.512 169.532 338.918 168.569C341.366 167.561 344.042 167.025 346.944 166.961C350.887 166.874 352.88 167.849 352.925 169.885ZM343.71 152.989C346.57 152.926 348.81 153.31 350.432 154.141C352.097 154.928 352.953 156.426 353.002 158.636C353.088 162.535 350.098 164.551 344.033 164.685C337.968 164.819 334.892 162.936 334.807 159.037C334.721 155.138 337.688 153.122 343.71 152.989Z" fill="white"/>
<path d="M329.967 203.458C329.212 204.22 327.448 204.647 324.676 204.739C321.904 204.83 319.603 204.733 317.773 204.447C315.941 204.117 314.184 203.438 312.503 202.41C309.271 200.392 307.544 196.027 307.322 189.314L306.987 179.179L303.739 179.287C303.263 179.302 302.835 178.818 302.455 177.833C302.076 176.849 301.857 175.49 301.8 173.758C301.743 172.025 301.953 170.501 302.429 169.184C302.948 167.823 303.641 167.128 304.507 167.1L306.586 167.031L306.326 159.17C306.281 157.828 307.545 156.702 310.116 155.793C312.731 154.883 315.294 154.386 317.806 154.303C321.747 154.173 323.75 155.082 323.815 157.031L324.126 166.451L328.933 166.292C330.059 166.255 330.676 167.86 330.784 171.109C330.854 173.231 330.652 174.994 330.178 176.397C329.746 177.755 329.14 178.447 328.36 178.473L324.528 178.599L324.921 190.488C324.959 191.657 325.485 192.485 326.498 192.972C327.51 193.416 328.384 193.625 329.121 193.601C329.9 193.575 330.389 193.928 330.586 194.658C330.784 195.389 330.907 196.49 330.956 197.963C331.052 200.864 330.722 202.696 329.967 203.458Z" fill="white"/>
<path d="M298.344 170.391L299.849 203.506C299.871 203.983 298.633 204.429 296.136 204.846C293.681 205.218 291.133 205.464 288.492 205.584C285.895 205.702 284.202 205.671 283.413 205.49C282.665 205.264 282.278 204.869 282.253 204.306L280.8 172.359C280.757 171.407 281.948 170.42 284.374 169.399C286.8 168.378 289.442 167.802 292.299 167.672C296.238 167.493 298.253 168.399 298.344 170.391ZM295.345 154.52C296.34 154.475 297.373 155.252 298.444 156.852C299.558 158.45 300.169 160.461 300.28 162.885C300.309 163.534 298.453 164.204 294.71 164.895C291.009 165.54 287.925 165.919 285.457 166.031C284.635 166.069 283.854 165.584 283.114 164.576C282.417 163.567 282.038 162.391 281.977 161.049C281.914 159.664 283.456 158.271 286.602 156.87C289.79 155.424 292.704 154.64 295.345 154.52Z" fill="white"/>
<path d="M273.052 203.666C271.814 204.698 270.047 205.611 267.751 206.404C265.497 207.151 262.531 207.639 258.855 207.866C255.222 208.091 251.743 208.002 248.418 207.6C245.094 207.198 242.695 206.674 241.222 206.027C239.75 205.38 238.992 204.71 238.949 204.018C238.799 201.596 238.99 199.066 239.521 196.429C240.05 193.747 240.79 192.377 241.742 192.319C241.915 192.308 243.746 192.781 247.235 193.737C250.724 194.693 253.333 195.118 255.063 195.011C256.793 194.904 257.907 194.661 258.405 194.283C258.9 193.862 259.126 193.305 259.083 192.613C259.04 191.921 258.527 191.345 257.543 190.885C256.557 190.381 255.338 189.979 253.887 189.678C252.433 189.334 250.838 188.825 249.103 188.151C247.412 187.474 245.823 186.704 244.337 185.841C242.85 184.978 241.578 183.711 240.519 182.039C239.458 180.325 238.858 178.343 238.719 176.094C238.125 166.493 243.558 161.337 255.02 160.628C259.301 160.363 263.017 160.415 266.165 160.785C269.312 161.111 271.533 161.581 272.83 162.196C274.168 162.764 274.857 163.373 274.897 164.022C275.036 166.271 274.646 168.726 273.725 171.388C272.847 174.047 271.911 175.408 270.917 175.469C270.744 175.48 270.169 175.32 269.194 174.99C266.262 173.912 263.844 173.432 261.941 173.55C260.081 173.665 258.816 173.917 258.145 174.306C257.518 174.692 257.227 175.253 257.273 175.988C257.315 176.68 257.827 177.235 258.808 177.651C259.787 178.025 260.98 178.364 262.388 178.667C263.837 178.925 265.407 179.392 267.098 180.069C268.831 180.7 270.443 181.49 271.934 182.44C273.423 183.346 274.701 184.7 275.767 186.501C276.834 188.302 277.444 190.435 277.596 192.9C277.757 195.495 277.232 197.894 276.023 200.096C275.281 201.444 274.291 202.634 273.052 203.666Z" fill="white"/>
<path d="M194.715 213.184C190.792 213.579 187.616 212.962 185.187 211.334C184.204 210.649 183.291 209.587 182.449 208.147C181.65 206.703 181.149 204.968 180.945 202.942C180.741 200.915 181.038 199.1 181.834 197.495C182.674 195.886 183.742 194.603 185.04 193.645C186.337 192.687 187.886 191.856 189.688 191.152C192.417 190.136 195.463 189.46 198.826 189.121L200.96 188.906C200.782 187.139 200.053 185.949 198.772 185.338C198.224 185.088 197.411 185.017 196.333 185.126C195.298 185.23 194.055 185.638 192.602 186.351C191.193 187.059 190.022 187.764 189.092 188.468C188.156 189.128 187.516 189.476 187.171 189.51C186.395 189.589 185.237 188.682 183.696 186.79C182.151 184.855 181.294 183.046 181.125 181.365C181.069 180.804 181.793 179.991 183.297 178.925C184.801 177.859 186.96 176.814 189.775 175.791C192.629 174.719 195.436 174.045 198.195 173.767C200.954 173.489 203.35 173.488 205.381 173.762C207.45 173.99 209.143 174.364 210.458 174.884C211.817 175.401 212.982 176.155 213.953 177.146C214.966 178.133 215.732 179.035 216.25 179.854C216.811 180.669 217.269 181.755 217.624 183.113C218.086 184.678 218.434 186.625 218.669 188.953L220.628 208.42C220.676 208.894 219.551 209.399 217.253 209.935C214.994 210.424 212.722 210.783 210.437 211.013C208.195 211.239 206.722 211.322 206.02 211.262C205.36 211.198 204.957 211.086 204.81 210.926C204.663 210.767 204.525 210.476 204.395 210.054L203.507 206.419L202.99 206.471C202.302 210.46 199.544 212.698 194.715 213.184ZM202.301 201.576L201.539 194.009C200.418 194.122 199.56 194.687 198.966 195.705C198.372 196.723 198.135 197.836 198.257 199.043C198.543 201.889 199.333 203.246 200.627 203.116C201.187 203.06 201.605 202.887 201.881 202.598C202.196 202.261 202.336 201.921 202.301 201.576Z" fill="white"/>
<path d="M171.715 167.046L177.659 212.812C177.72 213.284 176.546 213.83 174.135 214.449C171.719 215.025 169.201 215.483 166.58 215.824C164.001 216.159 162.311 216.269 161.51 216.155C160.746 215.992 160.328 215.631 160.255 215.072L154.462 170.467C154.339 169.521 155.422 168.441 157.711 167.226C160.043 166.006 162.606 165.214 165.399 164.851C169.353 164.338 171.458 165.069 171.715 167.046Z" fill="white"/>
<path d="M150.54 184.091L155.419 215.762C155.492 216.233 154.309 216.81 151.871 217.492C149.469 218.125 146.962 218.643 144.35 219.046C141.78 219.442 140.093 219.592 139.29 219.496C138.522 219.352 138.095 219.001 138.009 218.444L133.308 187.929C133.163 186.987 134.22 185.881 136.48 184.612C138.776 183.294 141.359 182.414 144.228 181.972C148.126 181.371 150.23 182.078 150.54 184.091ZM139.2 168.541C142.026 168.106 144.298 168.194 146.015 168.806C147.767 169.369 148.812 170.743 149.149 172.927C149.742 176.782 147.041 179.171 141.046 180.095C135.05 181.018 131.755 179.553 131.161 175.698C130.567 171.844 133.247 169.458 139.2 168.541Z" fill="white"/>
<path d="M81.4079 189.707C81.2972 189.198 81.7183 188.486 82.6715 187.568C83.6154 186.609 85.0223 185.637 86.8922 184.652C88.8045 183.659 90.9461 182.904 93.3171 182.387C95.6881 181.87 97.4978 181.83 98.7463 182.268C99.9948 182.705 100.749 183.317 101.009 184.103L108.272 206.735L109.161 206.541L106.214 183.567C106.083 182.354 107.319 181.108 109.924 179.831C112.528 178.554 115.016 177.656 117.387 177.139C119.758 176.623 121.561 176.451 122.796 176.625C124.023 176.757 124.83 177.003 125.219 177.361C125.65 177.711 125.907 178.076 125.99 178.457C126.064 178.796 125.963 179.86 125.688 181.65C125.446 183.388 125.189 185.262 124.918 187.273C123.966 193.689 122.494 205.143 120.5 221.632C120.321 223.046 116.823 224.496 110.006 225.982C107.889 226.444 106.46 226.6 105.718 226.452C104.976 226.303 104.399 225.896 103.988 225.232C99.9211 218.579 95.1548 211.058 89.6893 202.67C84.2237 194.282 81.4633 189.961 81.4079 189.707Z" fill="white"/>
</svg>
