<svg width="284" height="108" viewBox="0 0 284 108" fill="none" xmlns="http://www.w3.org/2000/svg">
<path d="M147.52 7.72024e-05C150.247 -0.00745936 150.497 0.539179 152.684 0.595542C155.728 0.673089 158.84 0.611503 161.932 0.519774C163.476 0.473936 165.015 0.420829 166.555 0.374438C166.649 0.371521 166.743 0.368357 166.836 0.365484C166.565 0.36048 168.067 0.375393 168.58 0.380293C169.258 0.386994 169.851 0.393359 170.414 0.399924C172.604 0.425585 173.824 0.444982 174.816 0.460882C176.734 0.492277 177.618 0.510598 178.373 0.525629C179.812 0.554945 180.431 0.569851 180.961 0.584521C182.678 0.632527 183.02 0.751578 183.448 0.92031C182.606 2.17579 183.493 3.47068 183.594 1.25679C183.662 1.35188 183.716 1.38678 183.764 1.38835C183.788 1.38906 183.81 1.38113 183.832 1.36837C183.825 1.35094 183.923 1.33876 184.699 1.53368C187.068 2.14654 187.956 2.55551 188.42 2.78006C188.499 2.84364 188.67 2.87369 189.405 3.3249C189.942 3.68024 190.322 4.05532 190.679 4.46589C191.389 5.29612 191.899 6.17197 192.792 7.62506C194.617 10.4554 195.676 12.1518 196.294 13.0624C197.083 14.3867 197.126 16.1344 196.486 17.4487C196.573 18.1049 196.621 18.4682 196.758 19.9049C196.982 22.2923 197.047 22.797 197.133 23.5759C197.29 24.9503 197.388 25.6861 197.477 26.3142C197.501 26.4813 197.524 26.6361 197.546 26.7798C198.166 26.9126 198.798 27.0701 199.39 27.2341C200.671 27.5862 201.75 27.9751 202.384 28.1467C202.535 28.187 202.809 28.254 203.164 28.3513C203.455 28.4285 204.241 28.669 204.042 28.6378C203.902 28.6619 204.438 28.8148 205.668 28.9178C206.311 28.973 207.103 29.0253 208.543 29.0814C208.915 29.0957 209.323 29.1103 209.865 29.1269C210.384 29.1431 211.257 29.1647 211.239 29.171C211.524 29.1895 211.835 29.2142 212.114 29.2419C213.232 29.3508 214.188 29.5326 214.615 29.6108C215.466 29.763 216.696 30.0448 218.009 30.3375C218.664 30.4823 219.333 30.6234 219.952 30.7397C220.627 30.8663 220.403 30.7993 220.622 30.8175C220.982 30.8247 221.426 30.5289 222.123 30.532C222.478 30.5354 222.893 30.6129 223.542 30.8771C224.273 31.1599 224.769 31.5254 227.367 32.5702C229.773 33.0647 230.802 33.1922 231.961 33.4074C232.52 33.5084 233.046 33.6106 233.607 33.7284C233.401 33.7325 237.564 34.4017 238.705 34.5422C239.688 34.6772 239.648 34.9165 240.035 34.9507C240.794 35.015 241.512 34.8781 242.033 34.9183C242.945 34.9991 242.91 35.5732 243.067 34.7847C243.272 34.6959 243.753 34.6673 244.724 34.7588C245.023 34.9869 245.387 35.2309 245.865 35.5041C246.743 35.5454 247.552 35.5638 249.914 35.9976C248.054 36.1136 253.214 37.5555 253.587 37.6077C254.76 37.8667 255.818 37.915 254.996 37.2654C256.473 37.9167 257.676 38.5543 258.795 39.0648C259.079 39.1948 259.335 39.3115 259.628 39.4347C261.514 40.0491 262.02 40.1855 262.71 40.3932C263.964 40.7631 264.679 40.9628 265.289 41.1395C265.002 41.7531 266.366 42.0387 266.935 41.8899C267.567 41.755 267.633 41.2758 267.743 40.9291C268.256 40.9614 268.715 40.9999 269.143 41.0414C270.986 41.3957 272.342 41.6247 273.68 41.9523C274.007 42.0339 274.366 42.1341 274.692 42.2457C275.019 42.3565 276.003 42.7243 276.49 42.9335C277.59 43.3973 278.319 43.7902 278.883 44.1537C279.556 44.5621 281.489 46.1211 281.65 46.6947C281.982 47.3337 281.943 47.6352 281.951 48.2382C282.388 48.9567 282.539 49.0864 282.73 49.5136C283.302 49.9437 283.457 50.3261 283.468 51.2266C283.471 51.4752 283.464 51.7698 283.456 52.3052C283.452 52.5721 283.448 52.9051 283.446 53.3388C283.444 53.7527 283.451 54.4054 283.432 54.3486C283.377 54.6442 283.3 54.9404 283.22 55.2633C282.895 56.5381 282.518 58.1626 283.13 61.8664C282.603 63.1524 282.474 64.6494 282.477 67.6926C282.34 72.9616 281.958 73.8636 281.946 74.8706C281.936 75.0719 282.13 75.1217 282.139 75.3644C281.878 77.1812 281.034 80.2828 281.683 80.3031C281.222 81.5829 280.647 82.7983 279.974 84.1046C279.57 85.4665 279.669 85.7622 279.637 86.9462C279.839 86.9673 280.04 86.9881 280.242 87.0089C279.718 88.364 279.388 88.8613 279.24 89.8509C279.077 90.8073 279.016 92.1039 278.869 93.1451C278.808 93.5739 278.532 93.5631 278.356 95.1129C278.252 96.1126 277.936 97.2909 277.522 98.2032C277.066 99.1407 276.891 99.7026 275.983 100.6C275.618 101.404 275.008 102.101 274.445 102.685C271.454 104.06 270.403 103.649 269.377 104.019C269.277 104.049 268.483 104.45 267.341 104.767C266.239 105.09 264.668 105.313 264.488 105.34C263.1 105.551 262.453 105.874 260.889 105.99C260.161 106.031 259.263 105.921 258.423 105.717C257.637 105.522 256.828 105.324 255.315 105.068C254.79 104.974 254.31 104.833 253.833 104.67C253.567 104.55 253.3 104.428 252.921 104.336C252.584 104.253 252.046 104.16 251.08 103.959C250.624 103.867 249.861 103.687 249.242 103.541C248.97 103.505 248.701 103.493 248.369 103.483C247.069 103.461 245.451 103.576 245.178 103.783C244.678 103.569 243.333 103.208 243.224 103.111C242.862 102.968 242.357 102.84 241.507 102.663C240.661 102.487 239.398 102.249 237.552 101.855C236.402 101.608 235.9 101.428 235.474 101.267C235.238 101.173 235.124 101.023 234.892 100.84C234.776 100.749 234.632 100.65 234.428 100.55C234.248 100.456 233.927 100.338 232.933 100.131C229.838 99.4789 226.589 99.5528 225.565 99.4141C224.399 99.2613 224.188 98.9033 223.808 98.8417C223.424 98.7766 223.299 99.0553 222.381 98.8944C221.113 98.6616 219.792 98.1944 218.148 97.6825C217.395 97.4397 216.16 97.115 215.079 96.8315C214.047 96.5595 213.315 96.3698 212.707 96.2402C210.907 95.8606 210.475 96.0014 209.393 96.1289C208.068 96.2119 207.062 96.1584 204.471 96.07C202.453 95.8256 201.514 95.6362 200.54 95.5965C197.6 95.4667 196.981 95.651 194.762 95.0327C193.508 94.7342 192.285 94.5106 191.104 94.2912C189.928 94.0964 188.808 93.7623 187.265 93.6265C185.888 93.5074 184.836 93.5368 183.749 93.404C183.021 93.3086 183.057 93.2789 182.94 93.2553C182.847 93.2307 182.738 93.2049 182.608 93.1791C182.328 93.1269 182.057 93.0744 181.085 93.0059C180.569 92.9706 179.909 92.9337 178.364 92.8685C177.043 92.8128 173.017 92.6514 173.199 92.6491C169.075 92.4117 158.092 91.2805 161.008 93.1227C159.509 93.4292 148.215 92.665 145.937 92.6188C143.898 92.5854 142.264 92.8897 140.628 92.8664C135.746 92.7858 131.718 92.5189 126.052 92.7917C124.534 92.8628 122.886 93.2497 121.967 93.2449C120.866 93.2382 119.668 92.8628 118.22 92.8409C114.778 92.7899 108.198 92.9425 104.703 92.9198C104.06 92.9145 103.831 92.5869 102.918 92.4962C102.461 92.4522 102.01 92.4154 101.552 92.3874C101.329 92.3733 101.094 92.3614 100.867 92.3519C100.754 92.3471 100.642 92.3432 100.532 92.3395C100.067 92.3422 98.9808 92.3604 98.3861 92.3719C93.5702 92.4746 93.5227 92.5463 92.7366 92.644C91.63 92.8344 91.6562 93.1292 91.7995 93.6372C90.9861 93.4555 91.1925 93.4141 90.6757 93.6114C89.6477 93.9183 88.8512 94.3048 88.0882 94.7159C87.7055 94.9217 87.3246 95.1357 86.9362 95.3433C86.4122 95.6093 86.7601 95.4911 84.9955 96.2687C78.9977 98.764 77.8368 98.0273 77.2383 98.2501C76.2178 98.3947 75.0676 98.6971 71.1869 99.1786C69.4287 99.4165 64.9911 99.7007 64.7983 99.7864C63.8556 99.9213 62.6361 100.288 61.0123 100.675C60.6207 100.767 60.1892 100.863 59.8031 100.942C58.2366 101.246 57.4222 101.422 56.7679 101.563C55.4805 101.843 54.7663 102.015 54.1443 102.167C52.9446 102.464 52.3317 102.645 51.8661 102.8C50.7935 103.183 50.6135 103.308 49.4956 103.649C48.4732 103.995 46.8408 104.414 41.4429 105.284C39.9338 105.577 39.8065 105.56 37.7895 105.804C35.0801 106.23 33.3216 106.509 31.8359 106.597C30.6679 106.659 29.5898 106.925 27.9704 107.677C25.5299 107.799 21.439 108.378 17.283 107.392C15.6126 106.92 14.8378 106.39 14.3708 106.052C13.9087 105.701 13.8153 105.491 13.039 104.915C12.5846 104.954 12.0722 104.967 11.484 104.921C10.8445 104.576 9.76779 104.251 8.82768 103.043C8.74532 102.595 8.75272 102.183 8.81149 101.818C8.1209 100.234 8.24683 98.6862 7.98218 97.2692C7.70192 95.8164 7.2976 95.2137 6.97757 94.7524C6.70111 94.3694 6.07778 93.651 5.37577 92.034C4.5679 89.916 4.60361 89.5361 4.39045 88.7075C4.11798 87.4646 3.64609 85.2407 3.06176 82.602C2.865 81.6903 2.57756 80.5078 2.23692 78.848C1.86498 77.1544 1.64931 75.0739 1.67797 73.5467C1.69694 71.9845 1.79248 70.9176 1.79575 69.9977C1.79818 69.7755 1.79838 69.5676 1.79334 69.3354C1.77638 68.9129 1.70851 67.7367 1.66867 67.0555C1.58053 65.5571 1.50432 64.4266 1.4455 63.5716C1.21443 60.3185 1.20129 59.8031 1.20063 59.0431C1.20592 57.6624 0.85822 57.9452 1.51885 56.3888C1.36157 55.8401 1.17501 55.2174 0.984691 54.4998C0.709342 54.0781 0.43156 53.6142 0.162612 53.0898C-0.0159463 51.7375 -0.0585508 50.5086 0.0906328 49.2642C0.249141 47.9981 0.557154 46.5114 1.50542 44.9282C2.78017 42.7242 5.34036 41.4779 7.23483 40.5537C8.74188 39.7355 11.526 38.2559 12.9729 37.7145C13.5086 37.4744 15.0086 36.8055 16.11 36.4912C17.2574 36.1402 18.3521 35.8761 19.4183 35.6656C20.7751 35.4309 20.4378 35.416 22.2282 35.1053C22.5915 35.0446 23.3352 34.9761 23.55 34.9651C23.6978 34.9538 23.8503 34.9422 24.0095 34.9307C24.3274 34.9076 24.6741 34.884 25.043 34.8611C26.5228 34.7698 28.3565 34.688 30.5682 34.6758C31.5427 34.6682 33.7227 34.7448 34.3087 34.8067C35.1903 34.8552 36.0729 34.8022 36.8979 34.6559C38.1017 34.4412 38.8831 34.1635 39.7901 33.935C40.4835 33.7239 40.9823 33.5388 42.3445 33.51C43.4814 33.4818 45.2894 33.5282 47.672 33.4388C49.0384 33.4166 50.7051 33.3442 52.6782 33.2552C54.6006 33.1682 57.1077 33.0762 59.4043 33.0706C61.5596 33.0644 63.0888 33.0866 64.2407 33.0561C65.5872 33.0225 66.115 32.7659 66.8568 32.7293C67.2512 32.7004 69.5608 32.6286 70.4475 32.503C71.4835 32.3791 72.1109 32.2277 72.7374 32.066C74.0319 31.7278 74.7457 31.4301 76.9631 30.82C83.3162 30.4285 82.5779 31.4717 84.1235 31.9665C84.7279 32.1157 85.4 32.6495 86.6032 32.659C87.6106 31.7037 87.7641 30.6894 88.0827 30.189C88.124 30.1367 88.1677 30.1114 88.2132 30.1053C88.2036 30.1027 88.1937 30.0995 88.184 30.0946C87.8307 29.8765 87.3789 27.3186 86.9521 27.1504C86.5343 26.9486 83.868 26.8921 83.6493 25.1078C83.5804 24.4892 83.5791 23.799 83.6675 23.1127C83.7011 22.8323 83.6679 23.2286 83.7791 22.3219C83.8822 21.479 83.9693 20.728 84.0388 20.1312C84.1778 18.9293 84.2566 18.3143 84.335 17.8351C84.6471 16.046 84.8598 15.9585 85.1502 14.8595C85.2921 14.3615 85.4544 13.7337 85.7594 12.9853C85.9946 12.3298 86.8031 10.9871 86.8856 10.8194C87.5989 9.57583 88.3798 7.73483 89.6952 5.87379C90.3185 5.00324 91.0494 4.23253 91.8043 3.56632C92.1975 3.2227 92.4902 2.96421 92.9966 2.58651C93.8546 2.00853 94.6311 1.66559 95.3678 1.4066C96.609 1.30166 97.4093 1.4809 97.8871 1.60704C98.4466 1.72945 98.0892 1.9349 98.2063 2.09712C98.2506 1.93037 98.5498 2.3619 98.7952 2.32752C98.9973 2.2987 99.0922 2.02115 99.6335 1.99552C100.028 1.97986 100.138 2.04124 102.27 2.08334C102.888 2.09359 103.461 2.10309 105.577 2.10401C106.134 2.10417 106.845 2.10318 107.972 2.10125C108.62 2.09991 109.322 2.09854 110.344 2.09643C110.869 2.09533 111.433 2.09447 112.069 2.09333C112.962 2.09145 112.339 2.09396 112.474 2.09436C112.583 2.10054 112.695 2.10629 112.81 2.11124C113.267 2.13106 113.77 2.13977 114.271 2.12743C117.626 2.04803 118.244 1.33545 120.285 1.24198C122.408 1.14541 125.734 1.52975 128.487 1.27883C128.83 1.20043 129.176 1.12196 129.522 1.0436C129.274 0.866435 129.026 0.689342 128.78 0.512198C130.168 0.42963 130.764 0.792785 132.045 0.79977C133.549 0.808238 134.322 0.464682 135.341 0.467081C136.175 0.469365 137.307 0.746443 138.393 0.730546C139.977 0.708841 139.632 0.309929 140.486 0.236679C140.822 0.207501 147.151 0.00141363 147.52 7.72024e-05ZM153.88 5.95128C152.741 5.95906 151.995 6.37965 149.694 6.47649C142.017 6.79397 131.874 6.33335 124.849 6.55122C121.37 6.65804 116.644 7.20324 113.337 7.33163C113.17 7.33803 112.991 7.34319 112.803 7.34747C112.708 7.34962 112.612 7.35165 112.513 7.35333C112.501 7.35354 112.489 7.35347 112.476 7.35367C112.47 7.35377 112.464 7.35392 112.458 7.35402C112.339 7.35445 111.928 7.35586 111.672 7.35677C110.547 7.36073 109.681 7.36432 108.942 7.36779C107.551 7.37443 106.797 7.37947 106.117 7.38398C103.736 7.40057 103.088 7.40951 102.38 7.41704C101.72 7.42449 101.303 7.42964 100.965 7.43392C99.684 7.4506 99.4224 7.45139 99.1679 7.45389C98.7388 7.45879 98.8226 7.46619 98.8128 7.58408C98.8206 7.72672 98.8761 8.18225 98.8775 8.23981C98.8774 8.26494 98.8588 8.21085 98.8342 8.14923C98.8105 8.08611 98.8156 8.0198 98.268 8.05556C96.5921 8.12481 96.608 8.17784 95.7012 8.71749C95.0119 9.16381 94.5348 9.54071 93.5435 11.1982C93.1975 11.7724 92.8062 12.5196 92.2896 13.3937C91.7927 14.2458 90.955 15.3877 90.7284 15.9712C90.1747 17.5658 90.3689 16.3636 89.9928 19.5275C89.9438 19.9794 89.8818 20.5638 89.7968 21.3135C89.7544 21.6871 89.7069 22.0967 89.6535 22.5392C89.5999 22.9864 89.5412 23.4475 89.5388 23.4071C89.4903 23.6025 89.4472 23.7536 89.4025 23.9964C89.3132 24.4601 89.2399 25.1204 89.1586 26.0042C89.019 27.6464 88.7224 30.0185 88.2759 30.1081C88.6382 30.1923 89.1004 31.3077 89.4421 30.7686C89.4833 31.2166 89.5168 31.5866 89.5123 32.0419C89.5062 32.277 89.5062 32.5117 89.4149 32.9463C89.36 33.1721 89.3078 33.4448 89.0367 33.9319C88.8676 34.52 87.114 35.5955 86.8208 35.5272C86.6545 35.5836 86.2221 35.7091 85.8083 35.8165C84.9632 36.0359 83.9488 36.2584 82.7008 36.4009C80.0157 36.6199 77.6279 36.7899 76.2096 36.787C74.9233 37.0527 74.087 37.3535 71.8419 37.6862C70.7286 37.8436 69.2019 37.9411 67.5404 37.9693C66.8096 37.9843 66.0852 37.9944 65.2333 38.0069C63.5341 38.033 61.5817 38.0556 59.0902 38.1532C56.2577 38.2643 54.2522 38.4621 52.2532 38.6554C51.5152 38.4877 50.8073 38.3179 50.1266 38.1419C50.1265 38.1414 50.1266 38.1409 50.1266 38.1405C47.7623 38.0984 44.9579 38.8037 43.4745 38.9615C41.369 39.1854 40.5207 39.1927 38.344 39.6476C37.298 39.8673 35.8858 40.2059 34.2288 40.3226C32.3631 40.4193 30.3876 40.5299 28.996 40.6288C25.969 40.8943 24.8279 40.7044 21.9579 41.2862C19.5683 41.6632 17.0744 42.1959 14.429 43.3499C13.04 43.8573 12.2735 44.2569 10.1912 45.3794C8.32795 46.3027 7.34494 46.7814 6.94278 47.1803C6.54134 47.5233 6.07745 48.2689 5.89168 49.331C5.70294 50.3403 5.72184 51.401 5.93163 52.9145C6.12635 54.317 6.39769 55.5861 6.51952 56.8806C6.61128 58.1076 6.56968 57.9965 6.61871 58.6756C6.69143 59.8992 6.86157 61.0641 7.23036 66.3092C7.439 69.387 7.48294 70.0515 7.46765 71.7224C7.45087 73.3021 7.43513 75.0469 7.93362 77.2318C8.18764 78.3823 8.42826 79.3421 8.62552 80.1506C8.82305 80.9562 8.97643 81.6262 9.20548 82.6712C9.60802 84.5224 9.8162 85.694 9.85915 86.3249C9.89985 86.9661 9.5811 87.2129 9.69901 87.822C9.97776 88.9983 10.5603 90.8138 11.1761 91.7062C11.7221 92.67 12.4333 93.6146 12.9412 96.5119C13.0763 98.2221 13.319 99.1464 13.3965 99.5054C14.7427 100.177 16.0477 100.568 16.7134 100.866C17.6163 101.308 17.9183 101.946 20.9801 102.045C23.6485 102.091 25.8736 101.978 27.2392 101.801C28.6426 101.625 29.6593 101.43 30.7142 101.261C31.7245 101.117 32.62 100.875 34.4716 100.401C35.2682 100.191 36.9926 99.8207 37.5743 99.7193C37.8451 99.6595 38.111 99.589 38.5696 99.4548C39.0374 99.3224 39.6797 99.1044 41.1292 98.7798C41.8471 98.6202 42.7911 98.441 43.8134 98.28C44.3156 98.1984 44.5706 98.1386 44.9695 98.0445C46.4032 97.6939 48.4264 97.0607 49.8431 96.9135C49.8412 96.8971 50.4547 96.764 51.6478 96.4902C52.5246 96.2934 53.4196 96.0791 55.9627 95.549C56.3074 95.4777 56.6694 95.4036 57.1726 95.303C57.5426 95.2277 58.8419 94.9781 58.7472 94.9952C59.0498 94.9347 59.3274 94.8748 59.6189 94.8085C60.1957 94.6774 60.7604 94.5328 61.3267 94.3894C62.4586 94.0987 63.6147 93.8452 64.7346 93.7302C65.1066 93.6842 66.5072 93.5923 67.5039 93.4998C68.5356 93.4077 69.4171 93.3146 70.1551 93.2267C75.5921 92.517 75.7584 92.2131 78.4761 91.9307C79.1716 91.8052 80.2782 91.6337 82.9536 90.4494C83.8176 90.0613 83.6532 90.1271 83.8966 90.0114C84.0823 89.9208 84.2783 89.8233 84.4882 89.7186C84.9075 89.51 85.3816 89.2708 85.9409 89.0143C86.499 88.7585 87.1428 88.4889 87.8582 88.2436C88.5482 88.0006 89.5204 87.7511 89.3883 87.7817C89.5366 87.7371 89.7542 87.6753 90.0668 87.6068C90.3948 87.5368 90.775 87.46 91.599 87.3647C92.0268 87.3167 92.5417 87.2642 93.5442 87.1983C94.5951 87.1347 95.9713 87.0406 100.425 86.9497C102.818 86.8923 105.132 86.856 107.414 86.8257C116.597 86.7127 124.794 86.6743 133.61 86.7189C138.253 86.747 142.38 86.8518 146.679 86.8884C151.201 86.9281 155.629 86.9329 160.013 86.9669C163.4 86.9936 167.217 86.953 170.97 86.9903C171.913 87.0002 172.85 87.0155 173.774 87.042C173.679 87.0363 175.365 87.0989 176.23 87.1284C177.192 87.1617 177.954 87.1872 178.559 87.2076C179.769 87.2484 180.418 87.2716 180.931 87.2937C182.798 87.3756 183.125 87.4532 183.664 87.571C184.122 87.6708 184.051 87.8726 184.758 88.0145C185.528 88.1974 186.137 87.9992 189.647 88.3076C189.695 88.4767 189.738 88.6457 189.779 88.8146C191.073 88.9721 192.315 89.0266 193.731 89.1697C195.073 89.2757 197.262 89.7438 197.143 89.6463C197.372 89.6632 197.836 89.6879 198.826 89.71C199.906 89.7498 200.964 89.6882 204.572 89.9811C210.705 90.7181 209.863 90.8304 211.165 90.9898C212.1 91.1679 211.654 91.3901 212.719 91.5915C213.2 91.6847 213.87 91.7963 214.91 91.9841C215.848 92.1523 217.9 92.5412 218.994 92.7511C221.403 93.2295 222.882 93.4971 223.681 93.6103C224.361 93.747 227.28 94.198 230.83 94.6246C231.568 94.7135 232.413 94.8241 233.513 95.0065C233.993 95.0829 235.08 95.292 235.203 95.3134C235.497 95.3691 235.777 95.4282 236.049 95.489C237.252 95.7613 237.537 95.8676 238.997 96.1234C243.005 96.8631 243.689 96.8631 244.76 97.0275C246.196 97.3027 248.356 97.2138 250.914 97.8816C254.453 98.8652 254.166 98.7734 256.245 99.1445C257.185 99.2821 259.348 99.8502 260.008 100.191C260.834 100.55 261.311 100.668 261.477 100.658C263.319 100.553 263.741 100.104 264.558 99.9383C266.81 99.4381 266.502 99.3487 270.703 97.7472C271.837 97.3243 272.276 97.1678 272.443 97.0798C272.593 96.9707 272.323 97.3603 272.67 96.8157C273.155 95.9273 273.395 95.8002 273.469 94.1379C273.673 85.1814 276.646 78.6129 277.556 72.9929C277.673 72.4634 277.808 71.8715 277.943 70.868C278.01 70.3604 278.077 69.743 278.125 68.9183C278.176 68.1261 278.187 66.8857 278.189 66.564C278.206 64.6161 278.22 62.7114 278.224 60.827C278.229 58.9459 278.228 57.0777 278.194 55.2946C278.189 55.0733 278.184 54.8606 278.178 54.6368C278.171 54.4105 278.113 52.3632 278.109 52.0266C278.097 51.461 278.089 51.169 278.082 51.0103C277.288 49.5293 277.144 49.5358 274.069 48.1807C273.684 48.0234 272.747 47.6831 272.755 47.692C272.629 47.6513 272.42 47.5917 272.186 47.5353C271.716 47.4212 271.121 47.3067 270.435 47.203C269.123 46.9846 266.884 46.8608 266.718 46.8179C266.137 46.7443 265.316 46.6362 263.622 46.2859C262.437 46.1104 256.625 44.4359 256.235 44.1888C254.906 43.6835 253.705 43.1623 252.559 42.7513C251.979 42.542 251.443 42.3646 250.859 42.1923C248.563 41.5731 248.216 41.4849 247.496 41.2921C246.869 41.1247 246.405 41.0007 246.017 40.8957C243.678 40.2601 244.482 40.0411 243.393 39.7826C242.407 39.5519 242.215 39.7916 242.026 39.7705C241.673 39.7357 241.874 39.7876 241.041 39.7526C240.586 39.7312 240.074 39.7359 238.194 39.5656C237.705 39.5193 237.107 39.4579 236.277 39.3555C235.857 39.3035 235.385 39.2418 234.829 39.1633C234.367 39.1003 233.21 38.921 233.325 38.9409C232.877 38.8784 232.409 38.8136 231.912 38.7418C230.921 38.5986 229.805 38.4265 228.584 38.1904C227.973 38.0725 227.346 37.9407 226.698 37.7923C226.537 37.7566 225.498 37.5108 224.874 37.3594C224.229 37.2031 223.75 37.0844 223.337 36.9809C220.293 36.2117 219.933 36.0768 219.461 35.8957C219.253 35.8213 219.536 35.7854 218.994 35.5837C218.525 35.3962 218.122 35.2265 217.758 35.1459C217.392 35.0654 216.498 35.0819 215.514 34.887C214.427 34.6725 213.586 34.5376 212.841 34.4613C212.469 34.4228 212.12 34.3973 211.781 34.3814C211.608 34.3732 211.458 34.3686 211.291 34.3648C211.151 34.3614 210.915 34.3593 209.919 34.3418C207.101 34.294 206.369 34.2719 205.438 34.2336C204.59 34.1966 204.032 34.1546 203.551 34.0941C202.548 33.9805 201.851 33.6402 200.131 33.415C199.299 33.2935 198.319 33.1767 197.07 33.0334C196.468 32.9585 195.626 32.8909 195.057 32.7785C194.365 32.6547 193.52 31.7807 193.363 31.4757C192.603 30.1181 192.577 29.4518 192.206 26.9975C192.122 26.365 192.034 25.6537 191.912 24.5175C191.851 23.9468 191.785 23.2995 191.68 22.1921C191.634 21.711 191.517 20.4022 191.472 19.8881C191.439 19.5192 191.409 19.1864 191.381 18.889C191.163 16.5442 191.038 16.3969 190.975 16.192C190.936 16.1006 190.957 16.1468 190.916 16.0783C190.754 15.8252 190.444 15.3067 190.21 14.8977C189.717 14.0394 189.21 13.0956 188.553 12.0564C187.622 10.6016 186.917 9.41097 186.556 9.01161C186.448 8.88328 186.364 8.80363 186.315 8.76226C186.272 8.75087 186.103 8.68323 185.857 8.58352C185.163 8.30557 184.592 7.97608 183.113 7.52415C182.034 7.22143 182.427 7.34774 182.324 7.32027C182.292 7.31567 182.266 7.3122 182.241 7.30925C182.14 7.29861 182.093 7.28638 181.653 7.23486C181.419 7.20911 181.107 7.17431 180.349 7.12258C179.961 7.09663 179.472 7.06645 178.587 7.02684C177.597 6.9866 176.825 6.94048 172.842 6.85705C171.783 6.8359 170.414 6.81157 168.404 6.78542C167.923 6.77917 167.357 6.77235 166.803 6.76613C166.751 6.76538 166.73 6.76499 166.693 6.76441C166.624 6.7633 166.555 6.76207 166.486 6.76096C166.209 6.75652 165.928 6.75211 165.644 6.74753C165.076 6.73841 164.542 6.72947 163.974 6.71998C162.891 6.70147 161.786 6.68189 160.703 6.66074C156.948 6.58759 154.4 5.9475 153.88 5.95128ZM189.825 93.4764C190.462 93.5033 191.113 93.5262 191.784 93.5556C191.437 93.3669 191.095 93.1799 190.761 92.9935C190.438 92.9407 190.12 92.8883 189.808 92.8347C189.813 93.0485 189.819 93.2625 189.825 93.4764ZM278.07 50.7882C278.058 50.7647 278.06 50.7755 278.071 50.8078C278.071 50.8011 278.07 50.7949 278.07 50.7882ZM197.669 27.521C197.749 27.9586 197.817 28.2333 197.885 28.4257C197.994 28.742 198.119 28.7761 198.128 28.4901C198.202 28.3965 197.989 27.9636 197.669 27.521ZM196.815 26.6245C196.647 26.5566 195.892 26.4964 196.434 26.5684C196.564 26.5892 196.697 26.6122 196.832 26.6369C196.826 26.6328 196.821 26.6284 196.815 26.6245ZM194.257 10.726C193.805 10.6667 194.424 11.8442 194.91 12.4773C195.409 13.1281 195.876 13.3836 195.707 12.7359C195.664 12.513 194.532 10.8226 194.257 10.726Z" fill="#31260C"/>
<path d="M87.7065 24.7764C87.521 26.4107 87.8058 28.0159 87.8058 31.5249C87.8058 32.0996 87.969 33.6486 87.7065 33.6866C86.2465 34.0239 84.6735 34.5052 82.5075 34.7287C79.7539 35.0995 77.8425 35.4831 76.3659 35.8089L76.2341 35.8379C74.1241 36.3037 72.9135 36.5709 69.3674 36.6266C67.0193 36.6634 62.8906 36.6634 59.3451 36.8533C55.7995 37.0432 52.9241 37.4119 50.0432 37.5962C47.1623 37.7805 44.3591 37.7356 42.656 37.8185C40.3616 37.9302 38.8811 38.4921 36.3557 38.5636C32.4505 38.6742 28.8052 38.9242 26.5791 39.0473C25.2454 39.121 24.446 39.3808 23.6424 39.4941C22.0416 39.7197 19.576 40.2367 17.9107 40.9474C16.5992 41.507 14.9188 42.0055 13.3988 42.8877C10.643 44.4874 8.64752 44.8261 7.37224 46.9829C6.55454 48.3659 6.38056 50.1349 6.44618 51.4546C6.55901 53.7233 7.2016 55.7832 7.33984 57.5247C7.52863 59.9029 7.87933 61.7036 8.30834 68.405C8.49377 71.3015 7.99313 73.0193 8.79315 76.6266C9.16402 78.2988 9.47861 79.4362 9.79851 80.7564C10.3615 83.0799 11.0564 86.074 11.4361 87.794C11.7735 89.3221 12.4378 90.3516 12.8894 91.2167C13.3374 92.0746 13.7947 93.2354 14.0054 94.8326C14.231 96.5428 14.0074 98.3708 15.051 98.9613C16.1703 99.5947 17.2303 99.9855 18.1419 100.376C19.45 100.935 20.7519 101.828 23.8959 101.827C29.4992 101.824 30.8196 101.41 34.1942 100.894C35.9111 100.631 37.8007 99.999 40.4498 99.5534C42.0104 99.2909 42.8691 98.8059 46.6708 98.2497C48.7172 97.9504 50.4588 97.262 52.4002 97.0589C53.1051 96.9852 56.4887 96.1718 61.2005 95.3063C63.8334 94.8226 65.1376 94.2724 67.4226 94.1166C73.4492 93.7055 75.4918 93.2639 78.2079 92.8129C79.9907 92.5169 81.3671 92.847 86.1413 90.7251C87.8102 89.9834 89.1003 89.2132 91.396 88.6407C92.3009 88.415 93.6279 88.1201 101.622 87.9727C109.615 87.8252 123.845 87.8252 131.225 87.8632C138.606 87.9012 139.122 87.9749 146.216 88.0498C153.311 88.1246 166.585 88.0618 173.369 88.3111C180.451 88.5714 181.525 88.5488 182.915 88.7948C184.178 89.0183 186.251 88.8094 188.502 89.2417C190.433 89.6125 192.96 89.9483 195.202 90.5084C196.392 90.8056 199.735 90.6041 203.888 91.029C206.072 91.2524 207.409 91.6444 208.717 91.7729C210.241 91.9226 212.466 92.4305 215.682 93.1146C218.146 93.6385 220.191 94.2341 221.861 94.4539C223.574 94.6796 227.643 94.7628 232.626 95.7587C233.923 96.0178 234.8 96.333 236.016 96.5786C239.138 97.2086 240.785 97.4553 242.117 97.7314C243.905 98.1023 246.194 98.1417 247.851 98.6251C249.642 99.1479 251.114 99.4881 252.018 99.6673C253.141 99.8896 254.659 100.022 255.966 100.374C256.935 100.636 257.963 101.022 259.21 100.97C261.935 100.855 264.047 100.515 265.574 99.8874C266.841 99.3668 267.819 98.927 269.707 98.2118L269.781 98.1838C270.832 97.7859 271.806 97.4174 272.348 96.535C272.945 95.5643 273.55 94.3954 273.649 92.9168C273.838 90.1219 273.92 87.8546 274.358 86.1072C274.656 84.9164 274.562 83.9544 275.066 82.6811C275.626 81.2658 276.132 79.7628 276.405 78.4374C276.667 77.1684 276.956 75.654 277.337 74.0048C277.708 72.4007 278.294 70.6314 278.341 66.5774C278.378 63.4284 278.444 57.5287 278.34 54.4673C278.228 51.1831 278.307 50.6787 278.079 50.2883C277.556 49.3936 277.037 48.2293 275.581 47.4219C274.575 46.8645 273.31 46.2261 271.148 45.4861C269.732 45.0012 267.053 44.6431 264.819 44.5198C264.151 44.4829 260.822 44.0645 256.429 42.728C253.869 41.9494 252.171 41.0753 249.338 40.3408C244.312 39.0383 240.83 38.2908 240.394 38.1893C239.272 37.928 237.579 38.0743 232.002 37.2197C229.814 36.8846 227.917 36.6229 225.29 36.0245C221.535 35.1688 219.176 34.5436 218.229 34.3522C214.544 33.6071 212.639 32.9943 209.688 32.9391L209.473 32.9351C205.641 32.8635 202.91 32.8125 202.15 32.6029C200.398 32.1192 197.575 31.9037 194.816 31.5986C194.149 31.5249 193.67 27.4243 193.158 21.7659C192.897 18.8772 192.77 17.7503 192.225 16.9055C191.48 15.7494 190.79 14.3771 189.803 12.8818C188.647 11.1292 187.742 9.37681 186.527 8.9397C185.595 8.60458 184.421 7.9435 182.347 7.44841L182.324 7.44301C181.534 7.25405 180.318 6.96332 166.49 6.81726C152.53 6.66981 126.505 6.66981 113.34 6.70779C100.175 6.74577 99.881 6.82605 99.5809 6.85636C98.4639 6.96919 97.107 6.90011 95.6332 7.78912C94.5184 8.46159 93.6134 9.19512 92.8048 10.3249C91.6855 11.8888 91.0049 13.4997 90.1238 14.7552C89.1564 16.1336 88.6803 17.1648 88.4136 18.3298C88.1153 19.6323 88.1861 20.5494 87.7065 24.7764Z" fill="#F0BE39"/>
<path d="M147.729 4.11623C150.375 4.1135 150.615 4.4785 152.737 4.51848C155.689 4.57364 158.707 4.53685 161.703 4.48198C163.2 4.45457 164.688 4.42272 166.183 4.39622C179.71 4.51443 178.733 4.60701 180.175 4.63523C181.834 4.69921 182.096 4.79378 182.473 4.91902C181.796 5.73694 182.644 6.6456 182.613 5.15114C182.675 5.21775 182.727 5.24456 182.772 5.24826C182.795 5.25025 182.814 5.24588 182.834 5.23862C182.95 5.25591 182.453 5.1134 183.323 5.3168C185.672 5.89395 186.501 6.30988 187.072 6.5587C187.151 6.61073 188.333 7.12943 188.905 7.79165C189.553 8.46397 190.047 9.2135 190.905 10.5668C192.691 13.2525 193.734 14.9927 194.319 15.8365C194.977 16.8943 195.078 18.4474 194.694 19.7395C194.794 20.3746 195.199 24.7688 195.314 25.6305C195.462 26.9007 195.557 27.5827 195.644 28.1752C195.71 28.6154 195.768 28.9664 195.822 29.2501C197.536 29.5028 200.43 30.2312 201.318 30.4892C201.457 30.5236 201.709 30.5818 202.031 30.6676C202.387 30.7601 202.714 30.8706 202.671 30.8712C202.763 30.9235 203.306 31.0346 204.621 31.1205C205.307 31.1654 206.113 31.2069 207.712 31.2555C210.062 31.317 210.309 31.3364 210.878 31.3888C211.934 31.4872 212.84 31.6542 213.249 31.7277C214.059 31.8708 215.248 32.1362 216.534 32.4148C217.177 32.5531 217.828 32.6874 218.44 32.8019C218.757 32.8558 218.783 32.849 218.944 32.8642C219.289 32.8915 219.699 32.7201 220.382 32.7722C220.733 32.8005 221.145 32.8833 221.815 33.1135C222.524 33.3512 223.286 33.6976 225.71 34.5366C227.814 34.9632 228.999 35.1294 230.095 35.3187C230.64 35.4111 231.153 35.5017 231.697 35.6042C231.444 35.5938 235.733 36.2411 236.748 36.3468C237.694 36.4621 237.658 36.6197 238.03 36.6512C238.759 36.7106 239.448 36.632 239.92 36.6726C240.734 36.7499 240.725 37.1454 240.822 36.6164C241.02 36.5701 241.47 36.5772 242.393 36.6963C242.691 36.8692 243.05 37.0567 243.519 37.2711C244.343 37.3503 245.134 37.4168 247.301 37.8394C246.663 37.8791 246.843 38.0395 248.268 38.4596C248.462 38.5163 248.673 38.5766 249.02 38.6711C249.314 38.7523 249.84 38.8932 249.794 38.8853C249.909 38.9235 250.034 38.9616 250.166 38.9997C250.433 39.0762 250.719 39.1499 250.995 39.2153C252.103 39.478 253.082 39.6028 252.262 39.0827C253.68 39.6513 254.884 40.2301 256.017 40.6941C256.303 40.8118 256.574 40.9202 256.86 41.0289C257.975 41.3936 259.237 41.7431 259.825 41.905C261.136 42.2629 261.86 42.4408 262.485 42.5983C262.244 42.999 263.618 43.2696 264.204 43.1944C264.86 43.1332 264.921 42.8118 264.921 42.5766C265.247 42.5945 265.822 42.6355 266.213 42.6709C268.004 42.948 269.311 43.1556 270.558 43.439C271.353 43.5467 274.604 44.8148 275.485 45.3938C276.148 45.7858 275.856 45.6345 276.797 46.2448C277.527 46.7746 277.795 47.146 277.996 47.4271C278.362 47.9835 278.379 48.241 278.482 48.7785C278.912 49.4636 279.092 49.6973 279.236 49.996C279.649 50.3305 279.768 50.651 279.783 51.4328C279.792 51.8258 279.768 52.6038 279.786 54.4408C279.752 54.721 279.704 55.0095 279.652 55.318C279.444 56.5477 279.199 58.1204 279.6 61.7096C279.423 62.2827 279.311 63.0647 279.242 63.983C279.208 64.4404 279.184 64.9335 279.17 65.4495C279.151 66.0326 279.17 66.1866 279.13 67.6688C278.919 72.3187 278.522 73.0586 278.469 73.9706C278.434 74.223 278.647 73.8869 278.508 74.6859C278.185 76.5588 277.488 79.3084 277.874 79.4348C277.45 80.6241 276.912 81.8206 276.267 83.1175C275.986 83.9977 276.067 84.8278 275.938 85.9639C276.071 85.9837 276.205 86.0032 276.339 86.0225C275.84 87.2008 275.714 87.4256 275.555 88.6247C275.414 89.701 275.349 91.137 275.219 92.2984C275.149 92.7339 275.054 92.9672 274.717 94.2725C274.227 95.7955 273.594 97.7233 271.792 98.6181C271.301 99.1259 270.764 99.5365 270.245 99.9551C267.146 101.275 266.875 100.871 265.846 101.227C265.747 101.261 264.923 101.59 263.724 101.841C262.565 102.099 260.839 102.26 260.636 102.278C259.073 102.439 258.346 102.584 257.291 102.477C256.17 102.363 255.237 102.029 252.296 101.592C251.103 101.368 251.104 101.183 250.119 100.948C247.87 100.246 243.05 99.9203 242.325 100.159C241.526 99.9163 241.457 99.8127 240.992 99.6823C240.551 99.5531 239.95 99.4252 238.89 99.2198C238.359 99.1165 237.7 98.9908 236.869 98.8261C236.477 98.7484 235.901 98.6327 235.566 98.563C235.356 98.5186 235.135 98.4675 234.938 98.4187C234.136 98.2184 233.521 98.0278 233.148 97.9056C232.653 97.7604 232.953 97.4703 229.796 96.9027C227.387 96.4778 224.403 96.4685 223.514 96.3634C222.48 96.243 222.298 95.9973 221.959 95.9449C221.73 95.9049 221.2 96.0242 220.41 95.8671C219.166 95.6198 217.801 95.1819 216.038 94.7092C213.847 94.159 211.852 93.6542 210.912 93.4697C207.888 92.962 208.612 93.4042 202.068 92.9796C200.587 92.8438 199.705 92.7075 198.873 92.6811C197.615 92.6439 196.762 92.6246 196.049 92.5702C195.304 92.5205 194.98 92.4198 193.531 92.0966C190.914 91.6012 189.403 91.145 186.08 90.8406C184.758 90.7604 183.8 90.7863 182.81 90.6367C182.191 90.5238 182.295 90.5255 181.938 90.47C181.612 90.4227 181.307 90.377 180.169 90.3137C179.561 90.2805 178.767 90.2453 176.878 90.1738C175.969 90.1392 174.54 90.0859 173.285 90.0361C173.018 90.0227 172.728 90.0097 172.462 89.9978C168.423 89.8032 157.768 89.0388 160.601 90.2703C159.146 90.4713 148.168 89.9548 145.988 89.9138C144.009 89.8852 142.43 90.0814 140.846 90.0581C136.11 89.9785 132.185 89.7921 126.692 89.9703C125.219 90.0167 123.62 90.2742 122.728 90.271C121.66 90.2663 120.499 90.0161 119.094 90.002C115.754 89.9686 109.376 90.0778 105.98 90.0733C105.363 90.0715 105.143 89.8537 104.25 89.7964C103.292 89.7422 102.837 89.6985 101.355 89.7017C98.0499 89.7552 96.8868 89.8079 95.9605 89.8518C95.0907 89.8957 94.6307 89.9359 94.272 89.9779C92.9851 90.1416 92.9908 90.3498 93.122 90.6829C92.2197 90.5984 92.1782 90.6297 91.9418 90.7276C90.1475 91.1909 88.6159 92.1402 86.9697 92.8832C80.8564 95.5341 79.6453 94.8291 78.8546 95.056C77.9768 95.1695 76.7828 95.456 73.4427 95.8812C72.5697 95.9883 71.4815 96.1052 70.1503 96.2204C69.4868 96.278 68.7622 96.3353 68.0033 96.3899C67.0649 96.4553 67.2961 96.4427 66.9522 96.4794C65.942 96.5924 64.8507 96.8869 63.3832 97.2419C63.0224 97.328 62.6531 97.4124 62.2756 97.4926C62.084 97.5333 61.8951 97.5719 61.7129 97.608C61.7382 97.6046 61.1072 97.7217 60.8043 97.7802C60.4861 97.8413 60.2207 97.8933 59.9723 97.9424C58.168 98.3017 57.4306 98.4695 56.6984 98.6329C55.333 98.9422 54.6668 99.1162 54.1578 99.2591C52.8987 99.6158 53.2097 99.6565 51.9719 99.9179C51.4426 100.046 50.8301 100.214 49.8297 100.462C49.3278 100.584 48.7229 100.728 47.9566 100.86C47.4011 100.963 45.3887 101.207 44.3101 101.425C42.4368 101.789 41.901 101.919 40.9098 102.012C38.1073 102.409 36.3203 102.804 34.8515 102.964C33.5472 103.087 32.655 103.282 31.2798 103.841C30.2532 103.946 28.9303 104.067 27.3498 104.114C25.7652 104.136 24.1184 104.269 21.899 103.989C18.1097 103.286 18.0158 102.493 17.1525 101.91C16.7978 101.918 16.4021 101.913 15.9516 101.876C15.3973 101.642 14.7515 101.358 13.9896 100.935C13.8642 100.715 13.6077 100.371 13.483 100.044C12.3126 98.7638 12.3755 97.4559 12.2028 95.9084C12.0697 94.3571 11.6099 93.2388 11.2892 92.6838C10.9772 92.1209 10.6115 91.7524 9.98526 90.541C9.6918 89.9663 9.36 89.1481 9.15629 88.2738C9.06512 87.9305 8.97591 87.5719 8.89524 87.2134C8.61844 85.9892 8.23095 84.218 7.54795 81.2849C7.35227 80.4172 7.07787 79.3526 6.73724 77.8189C6.37438 76.2923 6.10169 74.3127 6.11112 72.8509C6.10724 71.3497 6.20127 70.2663 6.19515 69.3374C6.19513 69.1033 6.19246 68.8933 6.18516 68.6665C6.18999 68.6299 6.10117 67.1956 6.06153 66.5777C5.96667 65.1 5.88317 63.989 5.81769 63.151C5.56053 59.9727 5.52727 59.5144 5.50498 58.7878C5.46893 57.5112 5.25182 57.6372 5.59039 56.1042C5.44586 55.5432 5.27518 54.9168 5.10789 54.2028C4.89901 53.7733 4.69093 53.3057 4.49623 52.7818C4.33744 51.3654 4.34101 50.5286 4.51655 49.3013C4.60853 48.7054 4.75127 48.0753 4.99492 47.4044C5.21978 46.753 5.68656 45.9154 5.95166 45.567C7.2304 43.6896 9.47413 42.8313 11.3956 41.8613C12.9805 40.9325 15.4713 39.8547 16.8074 39.3313C18.5788 38.5002 21.0722 37.882 22.9994 37.5525C23.8978 37.4318 24.0871 37.2495 25.9523 37.0345C27.3705 36.9242 27.3944 36.9304 28.259 36.8761C29.7514 36.7873 31.5781 36.7 33.8056 36.665C36.4992 36.6386 38.3169 36.783 39.9345 36.4673C41.0841 36.2722 41.9088 36.0754 42.6201 35.9287C43.1441 35.7897 43.7314 35.6595 45.0664 35.6352C46.1341 35.6137 48.2774 35.6214 50.274 35.5261C51.6331 35.4804 53.2725 35.3823 55.1944 35.274C57.0539 35.1676 59.5466 35.0608 61.6984 35.0432C63.7463 35.0232 65.2219 35.0339 66.3285 35.0098C67.6236 34.9833 68.1336 34.811 68.8495 34.7839C69.136 34.7701 69.8194 34.7554 70.5767 34.7198C71.3016 34.6856 71.9279 34.6374 72.4467 34.5793C73.4839 34.4625 74.1331 34.3176 74.7559 34.1702C76.0415 33.8615 76.7171 33.6127 78.8505 33.0967C84.8401 32.5741 84.2895 33.2989 85.6988 33.543C86.2308 33.6294 87.0296 33.8255 87.9033 33.9239C88.8119 33.091 88.7466 32.1144 88.9803 31.6158C89.0108 31.5559 89.0441 31.5296 89.0791 31.5283C89.0687 31.5262 89.0581 31.5216 89.0474 31.5142C88.8154 31.3033 88.4949 28.8444 88.205 28.6811C87.9247 28.4877 86.1393 28.3825 85.9747 26.7019C85.924 26.1205 85.9247 25.4895 86.003 24.8669C85.9919 25.0155 86.2727 22.6852 86.3701 21.7642C86.4839 20.7273 86.5469 20.2013 86.6108 19.7836C86.8579 18.272 87.0677 17.9259 87.3819 16.9444C87.5419 16.4728 87.7484 15.8804 88.1024 15.1749C88.459 14.4519 88.9745 13.6871 89.149 13.3588C89.9205 12.0237 90.8796 9.97809 92.1174 8.52797C92.7348 7.7993 93.4308 7.18861 94.1342 6.65823C94.5905 6.22854 96.4724 5.24101 97.5172 5.04886C98.4408 5.02995 99.1138 5.13815 99.4166 5.21623C99.4404 5.32949 99.4679 5.44245 99.5072 5.55409C99.5653 5.43985 99.825 5.72438 100.103 5.69805C100.325 5.67641 100.434 5.48931 101.073 5.46765C101.623 5.45394 101.349 5.49376 104.787 5.5076C105.305 5.50898 105.907 5.50978 107.13 5.50794C107.792 5.50681 108.537 5.50541 109.943 5.50209C110.716 5.50017 111.586 5.49832 112.791 5.49589C113.571 5.49417 113.303 5.49545 113.363 5.49589C113.376 5.49647 113.389 5.49703 113.402 5.49761C113.609 5.50689 113.825 5.51528 114.051 5.52172C114.507 5.53458 114.974 5.53993 115.472 5.53136C118.735 5.47647 119.337 5.00165 121.31 4.93865C123.368 4.87357 126.597 5.129 129.267 4.96172C129.601 4.90945 129.937 4.85725 130.274 4.80502C130.032 4.6869 129.792 4.56874 129.552 4.45064C130.901 4.3956 131.479 4.63765 132.719 4.64247C134.18 4.64832 134.928 4.41953 135.917 4.42136C136.724 4.42309 137.824 4.60823 138.877 4.59804C140.413 4.58419 140.079 4.31795 140.907 4.26948C141.233 4.25002 147.37 4.11659 147.729 4.11623ZM153.904 8.09024C152.8 8.09407 152.077 8.37332 149.843 8.43567C142.394 8.63986 132.559 8.33056 125.736 8.477C122.373 8.54864 117.758 8.9137 114.565 9.00152C114.237 9.01029 113.859 9.01609 113.456 9.01977C104.017 9.05236 103.842 9.07553 102.712 9.08417C100.98 9.10428 100.751 9.10868 100.424 9.11379C99.8988 9.12352 99.9514 9.13158 99.9235 9.21126C99.9122 9.30763 99.9391 9.61227 99.9356 9.65105C99.9122 9.68693 99.9685 9.49845 99.7823 9.5071C98.0854 9.6118 97.5371 9.58423 96.5233 10.241C95.6518 10.7967 95.1487 11.0938 94.0932 12.772C93.4335 13.9028 92.2541 15.7312 91.1968 17.5416C90.4418 19.3797 90.6854 18.4892 90.3582 21.1553C90.2812 21.8873 90.1456 23.2441 89.9225 25.0284C89.878 25.2526 89.8447 25.4156 89.811 25.6639C89.7442 26.1398 89.7025 26.7753 89.6611 27.6145C89.5947 29.2138 89.3959 31.5773 89.0819 31.5283C89.3276 31.5282 89.6676 32.7372 89.8964 32.2002C89.93 32.6257 89.9552 32.964 89.9446 33.3594C89.9352 33.5635 89.9343 33.7597 89.8392 34.1278C89.7659 34.3345 89.7981 34.4777 89.3691 35.0346C88.9076 35.6703 87.8831 35.8165 88.0652 35.7868C87.8385 35.8517 87.4078 35.9682 87.0062 36.0688C86.1846 36.2744 85.2301 36.4837 84.0654 36.6264C81.5549 36.8514 79.1181 37.1 77.7618 37.1792C76.4913 37.4328 75.6731 37.7089 73.6039 38.0092C72.5751 38.1521 71.1505 38.2457 69.5559 38.2737C68.6829 38.2901 68.1115 38.2962 67.266 38.3074C65.6273 38.3301 63.7386 38.3495 61.3358 38.4359C58.6564 38.5303 56.5418 38.7189 54.6114 38.8988C53.8975 38.8057 53.2134 38.7112 52.5574 38.6108L52.557 38.6098C50.2187 38.6485 47.7057 39.1491 46.164 39.2635C44.059 39.4324 43.2034 39.399 41.0338 39.778C40.016 39.9613 38.7313 40.2638 37.2361 40.3893C36.557 40.4518 35.4153 40.4764 34.5312 40.525C33.6304 40.5699 32.8342 40.6156 32.1056 40.6597C30.6466 40.7481 29.4443 40.8306 28.412 40.8987C27.8965 40.9328 27.4283 40.9632 27.0016 40.9893C26.7616 40.9919 25.5268 41.1149 25.0368 41.2341C22.8983 41.613 19.9686 42.0756 17.5827 43.1621C16.2449 43.6649 15.3568 43.9417 13.4995 45.0077C11.6851 45.9356 10.3592 46.4821 9.77345 46.9883C9.18723 47.4563 8.68053 48.1457 8.4148 49.3085C8.17129 50.4319 8.16178 51.34 8.37072 52.9161C8.56556 54.3287 8.85119 55.5643 8.98719 56.7537C9.06731 57.4728 9.05066 57.5812 9.06881 57.8276C9.08253 58.0606 9.09944 58.3073 9.12151 58.5846C9.20614 59.7673 9.38365 60.8286 9.76037 65.9633C9.97739 69.0448 9.99097 69.3643 9.97114 71.0397C9.94312 72.5583 9.94827 74.3731 10.4994 76.598C11.452 80.4474 12.348 84.1942 12.4629 85.3027C12.5312 85.8987 12.3304 86.1102 12.4474 86.6761C12.593 87.2185 12.7782 88.1226 13.1079 88.8183C13.4165 89.4981 13.7319 89.9854 14.0044 90.4604C14.4792 91.2969 15.2998 92.7958 15.5328 95.594C15.6214 96.7764 15.7129 97.4188 15.8228 97.6301C15.9765 97.8405 15.603 97.509 16.5853 98.0082C18.0661 98.6601 19.0382 98.9666 19.823 99.3155C20.2549 99.5357 20.7191 99.7765 21.5316 99.9864C22.2622 100.211 23.9634 100.279 25.1353 100.265C27.6569 100.266 29.5207 100.105 30.7546 99.9289C33.3881 99.5237 34.1382 99.4805 38.053 98.5004C40.7069 97.9207 40.5391 98.0266 41.7254 97.6845C42.4917 97.3682 47.2769 96.6207 48.1177 96.3516C48.8842 96.1605 49.6666 95.9375 50.4841 95.7527C51.2345 95.5676 52.4779 95.4217 52.3018 95.4324C52.513 95.3877 53.1725 95.2431 54.5115 94.9517C55.5762 94.7268 56.1332 94.5775 59.8493 93.8575C61.5053 93.5454 61.1486 93.6133 61.55 93.5314C61.8394 93.4711 62.1253 93.4077 62.4072 93.3423C62.9718 93.2115 63.5212 93.0724 64.0644 92.9442C65.1502 92.684 66.2092 92.4995 67.2263 92.4238C69.3287 92.2782 71.4062 92.0822 72.6668 91.9251C77.5805 91.2648 77.5548 91.085 80.5387 90.7404C81.2639 90.6316 83.1952 90.1041 85.4991 89.0494C86.2065 88.7306 87.0151 88.3038 88.1279 87.8285C89.0693 87.3843 91.4141 86.7521 91.0694 86.8463C91.2218 86.8046 91.4202 86.7527 91.7234 86.6923C92.0385 86.6316 92.4013 86.5637 93.2687 86.475C93.7233 86.4302 94.2721 86.3798 95.4295 86.3152C96.0219 86.2829 96.7775 86.2457 98.049 86.2033C99.005 86.1674 101.594 86.114 101.867 86.1082C104.193 86.0592 106.416 86.0289 108.629 86.0039C117.519 85.9116 125.467 85.8849 134.012 85.9319C138.5 85.9605 142.526 86.0606 146.68 86.0955C151.083 86.1339 155.373 86.1368 159.624 86.1654C162.91 86.1877 166.604 86.1664 170.241 86.2102C171.145 86.2214 172.059 86.2375 172.947 86.2622C173.304 86.2732 172.807 86.2541 174.267 86.3062C175.348 86.3443 176.268 86.3751 177 86.3996C178.469 86.4484 179.251 86.4749 179.843 86.4981C181.969 86.5821 182.166 86.6417 182.7 86.7357C183.571 86.9278 182.693 87.1649 187.864 87.2644C187.911 87.3764 187.961 87.4891 188.009 87.6019C188.788 87.6984 189.058 87.7524 189.358 87.7834C189.661 87.8189 189.966 87.8513 190.272 87.8829C190.886 87.9461 191.507 88.0056 192.17 88.0816C192.834 88.1581 193.539 88.2489 194.351 88.3909C194.753 88.4613 195.207 88.5507 195.665 88.6557C195.738 88.6632 195.759 88.6593 195.872 88.6716C196.39 88.7446 197.021 88.6684 202 88.9182C202.562 88.9496 204.037 89.0783 204.409 89.1251C204.967 89.1885 205.439 89.257 205.857 89.3242C206.688 89.4592 207.269 89.5777 207.711 89.6586C208.598 89.8262 208.915 89.8418 209.336 89.9069C210.152 90.0385 209.777 90.1796 210.7 90.3381C211.543 90.4853 212.957 90.7105 216.416 91.3837C218.984 91.8869 220.543 92.2316 221.514 92.3935C222.525 92.5642 222.657 92.6035 223.857 92.7561C224.936 92.8919 226.545 93.0719 227.914 93.2159C229.104 93.3418 230.763 93.5267 233.103 93.9756C234.195 94.1782 235.147 94.4527 235.94 94.61C236.158 94.6546 237.353 94.8772 238.123 95.0123C238.917 95.1516 239.509 95.2474 239.997 95.3236C240.966 95.4744 241.557 95.5558 242.067 95.6329C242.819 95.8087 245.408 95.9613 247.431 96.3162C248.397 96.4855 250.283 97.0748 251.007 97.2254C251.911 97.4358 252.104 97.4943 252.956 97.649C253.839 97.8102 255.16 98.015 256.525 98.4508C257.437 98.7814 258.071 99.015 258.336 99.0438C259.177 99.1696 260.324 98.7598 261.237 98.6471C262.508 98.4712 263.495 98.2513 264.208 98.0251C264.787 97.8503 265.664 97.4589 267.242 96.8517C268.012 96.55 269.197 96.1311 269.712 95.9335C270.304 95.7042 270.484 95.5512 270.549 95.4889C270.869 95.0501 271.469 94.0012 271.583 93.1691C271.777 91.0681 271.868 88.5905 272.106 87.1207C272.214 86.3242 272.418 85.6698 272.516 85.0182C272.619 84.3455 272.733 82.9875 273.232 81.8204C273.956 79.9755 274.34 78.559 274.611 77.0733C274.769 76.2802 274.95 75.3605 275.196 74.2399C275.342 73.5805 275.389 73.3834 275.438 73.1757C275.489 72.9615 275.543 72.7408 275.602 72.4952C275.807 71.5533 276.265 70.0592 276.291 66.2812C276.31 64.3912 276.325 62.5381 276.331 60.7071C276.337 58.8787 276.337 57.0632 276.301 55.32C276.296 55.1046 276.291 54.894 276.284 54.6746C276.281 54.5715 276.288 54.7765 276.274 54.3671C276.261 53.9627 276.251 53.6011 276.243 53.3077C276.228 52.7143 276.221 52.3632 276.215 52.0985C276.2 51.4365 276.189 51.2073 276.181 51.1029C276.177 51.0949 276.172 51.0868 276.168 51.0784C275.423 48.1576 268.099 46.5982 264.188 46.4948C263.636 46.4268 262.837 46.3264 261.174 45.9923C260.265 45.7993 259.503 45.669 257.053 44.9898C256.739 44.9018 256.16 44.732 255.831 44.6306C255.751 44.6055 255.672 44.5803 255.591 44.5545C255.429 44.5023 255.261 44.4475 255.1 44.3929C254.776 44.2838 254.457 44.1705 254.141 44.0551C252.875 43.5912 251.69 43.1009 250.533 42.7095C249.828 42.4799 249.914 42.4738 248.447 42.0851C246.514 41.5842 246.115 41.4859 245.453 41.3168C244.864 41.1669 244.422 41.0548 244.048 40.9593C241.799 40.3845 242.54 40.2839 241.487 40.0422C240.533 39.826 240.366 39.9783 240.186 39.953C239.887 39.9181 239.942 39.9265 239.12 39.8827C238.67 39.8561 238.177 39.8537 236.426 39.6974C235.556 39.6167 234.041 39.4603 231.684 39.1044C231.247 39.0431 230.795 38.98 230.317 38.9115C229.363 38.7746 228.301 38.6142 227.141 38.3977C226.562 38.2895 225.965 38.1689 225.351 38.034C225.198 38.0004 225.045 37.9662 224.894 37.9317C224.598 37.8644 224.054 37.7393 223.739 37.6658C223.06 37.5075 222.569 37.3903 222.147 37.2887C219.05 36.5363 218.699 36.4172 218.191 36.2548C218.02 36.1978 218.001 36.1298 217.845 36.0396C217.388 35.8882 216.991 35.7504 216.637 35.6748C216.279 35.5991 215.426 35.5577 214.445 35.3607C212.216 34.9197 211.245 34.7977 209.413 34.776C205.98 34.7174 205.484 34.7012 204.486 34.6651C203.622 34.6312 203.069 34.5938 202.617 34.5445C201.781 34.4783 201.065 34.1519 199.42 33.9363C198.624 33.8215 197.697 33.7135 196.534 33.5864C195.355 33.4079 193.891 33.5499 193.251 32.5911C192.512 31.4851 192.495 30.8963 192.133 28.6474C191.97 27.4716 191.781 26.0997 191.324 21.0179C191.099 18.6248 190.968 18.4054 190.87 18.1143C190.819 18.1371 185.996 9.35217 185.343 10.4198C184.686 10.1625 184.091 9.81967 182.432 9.35315C181.898 9.21127 181.905 9.22216 181.893 9.21883C181.877 9.21614 181.862 9.2138 181.847 9.21126C181.815 9.20577 181.788 9.20117 181.758 9.19645C181.637 9.17838 181.547 9.15621 181.071 9.10243C184.128 9.0373 160.826 8.54426 160.526 8.57343C156.882 8.51766 154.411 8.08843 153.904 8.09024ZM188.72 90.8189C189.321 90.8687 189.939 90.9131 190.578 90.9622C190.239 90.8197 189.905 90.6786 189.579 90.5375C189.271 90.4871 188.971 90.4369 188.673 90.3846C188.688 90.5293 188.704 90.6741 188.72 90.8189ZM195.953 29.8621C195.985 29.9894 196.015 30.0932 196.045 30.181C196.149 30.4923 196.262 30.546 196.24 30.3305C196.263 30.245 196.134 30.0607 195.953 29.8621ZM192.455 13.4804C192.112 13.3732 192.737 14.5003 193.198 15.1442C193.672 15.8038 194.082 16.1151 193.842 15.4938C193.761 15.2688 192.672 13.595 192.455 13.4804Z" fill="white"/>
<path d="M142.243 26.5723L149.427 17.0434C149.575 17.0104 149.74 16.9858 149.921 16.9693C150.118 16.9364 150.291 16.9199 150.439 16.9199C150.669 16.9199 150.883 16.9528 151.081 17.0187C151.295 17.0845 151.468 17.2079 151.599 17.389C151.731 17.5535 151.797 17.8004 151.797 18.1296V26.7698H154.265C154.315 26.8521 154.364 26.9673 154.413 27.1154C154.463 27.2471 154.488 27.4034 154.488 27.5845C154.488 27.8478 154.422 28.0535 154.29 28.2016C154.158 28.3498 153.969 28.4238 153.722 28.4238H151.797V32.1268C151.714 32.1433 151.591 32.1679 151.426 32.2009C151.278 32.2502 151.114 32.2749 150.933 32.2749C150.587 32.2749 150.324 32.2009 150.143 32.0527C149.962 31.9046 149.871 31.6907 149.871 31.4109V28.4238H142.737C142.572 28.3415 142.424 28.1934 142.292 27.9795C142.177 27.7655 142.12 27.5269 142.12 27.2636C142.12 27.1154 142.128 26.992 142.144 26.8933C142.177 26.7781 142.21 26.6711 142.243 26.5723ZM149.896 26.7698L149.945 18.9936H149.896L144.415 26.7698H149.896Z" fill="white"/>
<path d="M137.975 24.5734C137.975 23.1087 137.794 21.9319 137.432 21.0432C137.086 20.1381 136.625 19.4797 136.049 19.0683C135.473 18.6569 134.831 18.4511 134.124 18.4511C133.432 18.4511 132.791 18.6651 132.198 19.093C131.622 19.5044 131.161 20.1627 130.816 21.0679C130.47 21.9731 130.297 23.1416 130.297 24.5734C130.297 26.5483 130.635 28.0706 131.309 29.1404C131.984 30.1937 132.922 30.7203 134.124 30.7203C135.342 30.7203 136.288 30.1937 136.963 29.1404C137.637 28.0706 137.975 26.5483 137.975 24.5734ZM134.124 32.399C132.972 32.399 131.951 32.1192 131.063 31.5597C130.19 30.9836 129.507 30.1196 129.014 28.9676C128.52 27.7991 128.273 26.3344 128.273 24.5734C128.273 22.6808 128.553 21.1667 129.112 20.0311C129.672 18.8955 130.396 18.0726 131.285 17.5624C132.173 17.0358 133.12 16.7725 134.124 16.7725C135.144 16.7725 136.099 17.0358 136.987 17.5624C137.892 18.0891 138.617 18.9284 139.16 20.0804C139.719 21.216 139.999 22.7137 139.999 24.5734C139.999 26.3179 139.752 27.7744 139.258 28.9429C138.765 30.0949 138.073 30.959 137.185 31.535C136.313 32.111 135.292 32.399 134.124 32.399Z" fill="white"/>
<path d="M232.439 77.4578C231.307 77.2781 230.349 77.0254 229.565 76.6998C228.781 76.3742 228.097 75.9097 227.512 75.3062C226.297 74.092 225.905 72.1265 226.336 69.4098C226.719 66.9949 227.695 65.3781 229.264 64.5595C230.731 63.802 232.506 63.5886 234.588 63.9193C235.479 64.0606 236.234 64.2269 236.853 64.4181C237.475 64.5942 238.089 64.8696 238.695 65.2443C239.316 65.6214 239.786 66.0751 240.104 66.6053C240.437 67.1378 240.666 67.8396 240.791 68.7104C240.918 69.5662 240.892 70.56 240.712 71.692C240.348 73.9862 239.425 75.6113 237.942 76.5674C236.462 77.5084 234.628 77.8052 232.439 77.4578ZM232.348 72.9173C232.367 73.4774 232.421 73.8187 232.51 73.9411C232.614 74.0659 232.757 74.1427 232.938 74.1714C233.134 74.2026 233.293 74.1737 233.416 74.0848C233.553 73.9984 233.71 73.6906 233.887 73.1617C234.079 72.6351 234.24 71.9643 234.369 71.1492C234.501 70.3191 234.579 69.6816 234.603 69.2367C234.645 68.7792 234.655 68.4248 234.633 68.1737C234.626 67.9251 234.588 67.7256 234.519 67.5754C234.414 67.3576 234.264 67.2332 234.067 67.202C233.886 67.1733 233.726 67.2097 233.586 67.3113C233.448 67.3977 233.282 67.7118 233.088 68.2535C232.896 68.7801 232.72 69.549 232.559 70.5602C232.399 71.5715 232.328 72.3571 232.348 72.9173Z" fill="white"/>
<path d="M210.661 62.7042C210.678 62.5524 210.92 62.3796 211.388 62.1861C211.857 61.9773 212.484 61.8092 213.267 61.6818C214.05 61.5544 214.806 61.5316 215.535 61.6134C217.008 61.7787 217.727 62.2208 217.693 62.9397L217.449 70.2477L217.746 70.2809L219.019 63.4575C219.092 63.0813 219.653 62.806 220.703 62.6316C221.753 62.4572 222.665 62.4135 223.44 62.5004C224.214 62.5873 224.784 62.7204 225.148 62.8997C225.527 63.0807 225.762 63.2531 225.851 63.4169C225.942 63.5655 225.982 63.6929 225.97 63.7993C225.958 63.9056 225.543 64.651 224.727 66.0357C223.925 67.4221 222.294 70.3838 219.832 74.9208C219.639 75.2682 218.381 75.3116 216.057 75.0509C215.328 74.9691 214.854 74.8774 214.635 74.7759C214.417 74.6592 214.281 74.4979 214.228 74.292C213.476 71.5319 212.692 68.9296 211.874 66.485C211.058 64.0252 210.654 62.765 210.661 62.7042Z" fill="white"/>
<path d="M201.425 73.8773C200.282 73.7873 199.307 73.6108 198.5 73.348C197.693 73.0851 196.974 72.6759 196.343 72.1204C195.036 71.0056 194.491 69.0771 194.707 66.3349C194.899 63.8973 195.744 62.2087 197.244 61.2691C198.646 60.3985 200.399 60.046 202.501 60.2116C203.4 60.2824 204.166 60.3887 204.798 60.5305C205.432 60.6571 206.066 60.8833 206.699 61.2091C207.348 61.5362 207.852 61.9514 208.211 62.4549C208.585 62.9596 208.869 63.6411 209.062 64.4994C209.256 65.3425 209.308 66.3354 209.218 67.478C209.035 69.7937 208.243 71.4865 206.84 72.5564C205.439 73.611 203.634 74.0513 201.425 73.8773ZM200.976 69.3581C201.039 69.9149 201.12 70.2509 201.218 70.3659C201.332 70.4822 201.48 70.5475 201.663 70.5619C201.861 70.5775 202.017 70.5362 202.132 70.4379C202.263 70.3409 202.395 70.0217 202.53 69.4805C202.68 68.9404 202.787 68.2591 202.852 67.4364C202.918 66.5985 202.945 65.9568 202.934 65.5114C202.94 65.0519 202.922 64.6979 202.88 64.4494C202.854 64.202 202.8 64.0062 202.719 63.8619C202.598 63.653 202.438 63.5408 202.24 63.5252C202.057 63.5108 201.9 63.5597 201.769 63.672C201.638 63.769 201.498 64.0952 201.347 64.6505C201.197 65.1905 201.082 65.9709 201.001 66.9917C200.921 68.0124 200.912 68.8012 200.976 69.3581Z" fill="white"/>
<path d="M184.732 71.9256C184.722 72.1239 184.248 72.2599 183.31 72.3334C182.373 72.407 181.439 72.4195 180.508 72.3709C179.577 72.3223 178.985 72.2379 178.731 72.1175C178.477 71.9971 178.356 71.8225 178.368 71.5936L179.136 56.874C179.174 56.1414 181.391 55.8898 185.786 56.1191C188.442 56.2576 190.187 56.5323 191.023 56.9432C192.038 57.4246 192.71 58.0412 193.038 58.7928C193.477 59.7645 193.658 60.9905 193.581 62.4709C193.475 64.5006 193.047 65.955 192.297 66.8341C191.758 67.4793 191.232 67.888 190.718 68.0601C190.204 68.2323 189.777 68.3553 189.436 68.4294C189.112 68.489 188.704 68.5289 188.214 68.5492C187.539 68.5753 186.622 68.558 185.462 68.4975L184.913 68.446L184.732 71.9256ZM185.135 64.6471L185.684 64.6757C185.974 64.6909 186.205 64.6647 186.377 64.5971C186.549 64.5143 186.706 64.2929 186.848 63.933C187.005 63.5587 187.101 63.0357 187.136 62.3642C187.172 61.6775 187.123 61.1546 186.988 60.7956C186.87 60.4222 186.736 60.201 186.587 60.132C186.453 60.0485 186.287 60.0016 186.089 59.9912L185.379 59.9542L185.135 64.6471Z" fill="white"/>
<path d="M164.44 72.0517C163.294 72.0251 162.311 71.903 161.49 71.6853C160.67 71.4675 159.93 71.0988 159.269 70.579C157.902 69.5384 157.251 67.6431 157.314 64.8931C157.371 62.4486 158.122 60.7157 159.567 59.6945C160.919 58.7475 162.649 58.2985 164.758 58.3473C165.659 58.3683 166.43 58.432 167.069 58.5385C167.709 58.6298 168.354 58.8205 169.005 59.1108C169.671 59.4014 170.197 59.7881 170.583 60.2709C170.984 60.7541 171.305 61.4188 171.546 62.2652C171.786 63.0962 171.893 64.0846 171.867 65.2305C171.813 67.5527 171.115 69.2868 169.774 70.4328C168.433 71.5634 166.655 72.1031 164.44 72.0517ZM163.741 67.5643C163.836 68.1168 163.935 68.4477 164.039 68.5572C164.159 68.667 164.311 68.724 164.494 68.7282C164.693 68.7328 164.847 68.6829 164.956 68.5784C165.081 68.4743 165.195 68.1483 165.3 67.6004C165.419 67.0529 165.489 66.3666 165.508 65.5416C165.527 64.7013 165.519 64.0591 165.484 63.615C165.464 63.156 165.426 62.8035 165.371 62.5576C165.331 62.3121 165.266 62.1196 165.178 61.9799C165.045 61.7781 164.879 61.6749 164.681 61.6703C164.497 61.6661 164.343 61.7236 164.218 61.843C164.093 61.9471 163.971 62.2806 163.851 62.8434C163.731 63.3909 163.659 64.1765 163.636 65.2001C163.612 66.2238 163.647 67.0118 163.741 67.5643Z" fill="white"/>
<path d="M146.473 71.8177C145.907 71.8147 145.38 71.7279 144.892 71.5573C144.404 71.3867 144 71.1783 143.68 70.9321C143.376 70.686 143.11 70.356 142.883 69.9422C142.656 69.5284 142.482 69.1378 142.362 68.7704C142.242 68.3877 142.153 67.9212 142.094 67.3707C142.007 66.5603 141.966 65.6355 141.971 64.5963C141.982 62.4721 142.38 60.8619 143.165 59.7657C143.951 58.6541 145.023 58.1019 146.383 58.109C147.774 58.1162 148.781 58.45 149.404 59.1104C149.541 59.2639 149.647 59.4478 149.722 59.6622L149.905 59.6631L149.639 58.08L149.653 55.2147C149.655 54.8785 150.085 54.5521 150.942 54.2357C151.8 53.9192 152.725 53.7635 153.718 53.7687C154.758 53.7741 155.421 53.9762 155.71 54.375C155.816 54.5284 155.868 54.6815 155.868 54.8343L155.783 71.1095C155.782 71.2776 155.354 71.413 154.497 71.5155C153.656 71.6028 152.838 71.6444 152.044 71.6403C151.264 71.6362 150.76 71.6107 150.531 71.5637C150.318 71.5014 150.18 71.4396 150.12 71.3781C150.074 71.3168 150.044 71.2173 150.029 71.0797L149.853 69.7721L149.67 69.7712C149.529 70.3053 149.252 70.7547 148.837 71.1193C148.315 71.5904 147.527 71.8231 146.473 71.8177ZM149.057 68.4843C149.302 68.4855 149.486 68.3337 149.61 68.0287L149.642 61.9083C149.642 61.7554 149.559 61.6404 149.391 61.5631C149.239 61.4706 149.102 61.4241 148.979 61.4234C148.46 61.4207 148.194 62.6114 148.181 64.9953C148.175 66.2637 148.239 67.1657 148.374 67.7013C148.524 68.2217 148.752 68.4827 149.057 68.4843Z" fill="white"/>
<path d="M128.307 66.5474C128.322 67.5407 128.803 68.0304 129.75 68.0166C130.3 68.0086 131.016 67.8147 131.896 67.4351C132.777 67.0402 133.24 66.8424 133.286 66.8417C133.577 66.8375 133.965 67.2674 134.451 68.1315C134.938 68.9956 135.184 69.6339 135.19 70.0465C135.199 70.6424 134.594 71.1021 133.376 71.4255C132.158 71.7489 130.961 71.9192 129.784 71.9364C128.623 71.9533 127.643 71.8758 126.846 71.704C126.064 71.532 125.419 71.3121 124.911 71.0444C124.418 70.7612 123.977 70.4161 123.589 70.0091C123.216 69.6019 122.936 69.2162 122.747 68.8522C122.558 68.4728 122.407 68.0547 122.293 67.5979C122.13 66.9278 122.044 66.2336 122.033 65.5154C121.993 62.7344 122.691 60.8061 124.127 59.7306C124.837 59.1853 125.634 58.7993 126.517 58.5725C127.401 58.3456 128.446 58.2234 129.653 58.2058C133.519 58.1495 135.471 59.4661 135.511 62.1554C135.552 65.0129 133.403 66.4732 129.064 66.5364L128.307 66.5474ZM128.213 63.2017L128.235 64.7144C128.678 64.708 129.034 64.527 129.304 64.1716C129.589 63.8159 129.728 63.3859 129.721 62.8817C129.708 61.9648 129.464 61.5099 128.99 61.5168C128.456 61.5246 128.196 62.0862 128.213 63.2017Z" fill="white"/>
<path d="M111.438 72.3495C109.727 72.403 108.514 71.9975 107.799 71.133C107.1 70.2681 106.715 68.7359 106.647 66.5363L106.452 60.3043C106.442 59.9988 106.884 59.6945 107.776 59.3914C108.669 59.073 109.611 58.8983 110.604 58.8672C111.933 58.8257 112.608 59.1486 112.629 59.836L112.811 65.6556C112.848 66.8165 112.92 67.6628 113.028 68.1946C113.136 68.711 113.373 68.9635 113.74 68.9521C114.229 68.9368 114.467 68.723 114.454 68.3106L114.196 60.0622C114.186 59.7415 114.65 59.4288 115.589 59.1243C116.527 58.8197 117.554 58.65 118.669 58.6152C119.784 58.5803 120.351 58.8608 120.369 59.4565L120.738 71.2562C120.745 71.47 120.268 71.6378 119.309 71.7595C118.35 71.8812 117.404 71.9567 116.472 71.9858C115.54 72.0149 115.063 71.9075 115.04 71.6636L114.765 70.1815L114.581 70.1872C114.461 70.7414 114.2 71.2006 113.799 71.5648C113.591 71.7548 113.275 71.9328 112.852 72.0989C112.444 72.2493 111.973 72.3328 111.438 72.3495Z" fill="white"/>
<path d="M98.3118 72.338C98.1204 72.4855 97.8214 72.6231 97.4148 72.751C97.0242 72.8933 96.5007 72.9811 95.8444 73.0146C95.1882 73.048 94.5638 72.9574 93.9714 72.7427C93.3782 72.5128 92.9117 72.2153 92.5717 71.85C92.2318 71.4848 91.9474 71.0096 91.7187 70.4245C91.382 69.5235 91.1784 68.3786 91.1076 66.9898C90.9731 64.3494 91.4795 62.4261 92.6269 61.22C93.7888 59.9979 95.7281 59.3176 98.4448 59.1792C99.9558 59.1022 101.042 59.1005 101.704 59.1739C102.366 59.2473 102.897 59.3196 103.299 59.391C104.148 59.5466 104.584 59.8458 104.607 60.2884L105.363 75.1234C105.371 75.2912 104.95 75.4427 104.1 75.5779C103.266 75.7275 102.239 75.8334 101.018 75.8956C99.7969 75.9578 99.1771 75.8057 99.1584 75.4394L99.0266 72.8525L99.2209 71.2588L99.0377 71.2681C99.044 71.3902 98.9762 71.562 98.8345 71.7835C98.6927 72.0049 98.5185 72.1898 98.3118 72.338ZM97.8356 62.5384C97.3472 62.5633 97.1624 63.7433 97.2814 66.0785C97.4004 68.4136 97.7193 69.5679 98.2382 69.5415C98.3603 69.5353 98.4957 69.4901 98.6445 69.406C98.7932 69.322 98.8641 69.2112 98.8571 69.0739L98.527 62.595C98.4171 62.5394 98.1866 62.5205 97.8356 62.5384Z" fill="white"/>
<path d="M83.8872 66.3371L84.3818 73.0124C84.3942 73.18 83.97 73.3494 83.1092 73.5204C82.2626 73.6751 81.3744 73.7869 80.4447 73.8558C79.5303 73.9235 78.9331 73.9295 78.6531 73.8736C78.372 73.8025 78.2241 73.6679 78.2095 73.4697L77.3744 62.1995C77.3529 61.91 77.7489 61.5665 78.5622 61.1691C79.3909 60.7705 80.3005 60.5346 81.2911 60.4612C82.297 60.3866 82.8812 60.6192 83.0437 61.1588L83.3503 62.1935L83.5103 62.1816C83.6808 61.5867 84.1552 61.0611 84.9335 60.605C85.7108 60.1337 86.5033 59.8681 87.311 59.8082C88.1188 59.7484 88.6922 59.8361 89.0315 60.0715C89.386 60.3058 89.5785 60.6286 89.609 61.0401C89.6383 61.4364 89.6457 61.9492 89.631 62.5785C89.6163 63.2079 89.5142 63.8974 89.3246 64.647C89.1502 65.3955 88.8725 65.7838 88.4914 65.8121C88.339 65.8234 87.8505 65.7446 87.0258 65.5759C86.2011 65.4071 85.5221 65.3425 84.9887 65.382C84.4705 65.4204 84.1485 65.5209 84.0226 65.6835C83.912 65.8449 83.8668 66.0628 83.8872 66.3371Z" fill="white"/>
<path d="M67.4604 75.3148C66.0771 75.4573 64.9565 75.2425 64.0987 74.6703C63.7512 74.4295 63.4285 74.0557 63.1305 73.5487C62.8476 73.0401 62.6694 72.4286 62.5958 71.7141C62.5222 70.9996 62.6252 70.3591 62.9048 69.7926C63.1996 69.2245 63.5753 68.771 64.032 68.4321C64.4887 68.0931 65.0345 67.7988 65.6694 67.549C66.6309 67.1888 67.7045 66.9476 68.8902 66.8254L69.6427 66.7479C69.5785 66.1246 69.3202 65.7057 68.8679 65.4911C68.6746 65.4035 68.3878 65.3793 68.0078 65.4184C67.643 65.456 67.2047 65.601 66.693 65.8535C66.1965 66.1043 65.7844 66.3542 65.4567 66.603C65.1274 66.8367 64.902 66.9598 64.7804 66.9723C64.5067 67.0005 64.0975 66.6816 63.5526 66.0157C63.0062 65.3346 62.7024 64.6976 62.6413 64.1047C62.621 63.9071 62.8756 63.6197 63.4052 63.2425C63.9347 62.8653 64.6955 62.4951 65.6873 62.1317C66.6929 61.7515 67.6821 61.5114 68.655 61.4111C69.6279 61.3109 70.4726 61.3083 71.1891 61.4035C71.9192 61.4819 72.5165 61.6124 72.9808 61.795C73.4603 61.976 73.8717 62.2409 74.2149 62.5896C74.5733 62.9368 74.8442 63.2545 75.0275 63.5429C75.226 63.8297 75.3884 64.2124 75.5145 64.6911C75.6789 65.2426 75.8033 65.9287 75.8879 66.7496L76.5951 73.6132C76.6123 73.7804 76.216 73.9595 75.4061 74.1505C74.6098 74.3247 73.8088 74.4533 73.0031 74.5363C72.2126 74.6178 71.6934 74.6482 71.4455 74.6277C71.2128 74.6056 71.0705 74.5665 71.0186 74.5104C70.9667 74.4543 70.9178 74.3518 70.8717 74.2029L70.5553 72.9219L70.3729 72.9407C70.1339 74.348 69.163 75.1394 67.4604 75.3148ZM70.126 71.2148L69.8511 68.5469C69.4558 68.5876 69.1538 68.7877 68.9451 69.1472C68.7363 69.5067 68.6538 69.8993 68.6977 70.3249C68.8011 71.3282 69.0808 71.8064 69.5368 71.7594C69.7345 71.7391 69.8818 71.6778 69.9788 71.5756C70.0894 71.4567 70.1385 71.3364 70.126 71.2148Z" fill="white"/>
<path d="M53.3913 76.2777C53.4202 76.4742 52.9824 76.7008 52.0779 76.9574C51.1734 77.214 50.26 77.4101 49.3377 77.5457C48.4154 77.6814 47.818 77.7152 47.5454 77.6472C47.2728 77.5791 47.1198 77.4317 47.0865 77.2049L44.9418 62.6222C44.8351 61.8964 46.9589 61.2134 51.3133 60.573C53.9441 60.1861 55.7095 60.1118 56.6096 60.3502C57.7 60.6223 58.48 61.0946 58.9496 61.7669C59.5713 62.6332 59.9899 63.7996 60.2056 65.2662C60.5014 67.2771 60.3682 68.7872 59.8061 69.7967C59.405 70.5353 58.9694 71.0396 58.4994 71.3096C58.0294 71.5795 57.6347 71.7843 57.3154 71.9239C57.009 72.0462 56.6173 72.1656 56.1401 72.2821C55.4837 72.4404 54.581 72.6041 53.4319 72.7731L52.8843 72.8304L53.3913 76.2777ZM52.3533 69.0624L52.8976 68.9823C53.1849 68.9401 53.4061 68.8689 53.5613 68.7688C53.7143 68.6537 53.8246 68.4058 53.8922 68.0251C53.9726 67.6271 53.964 67.0955 53.8661 66.4302C53.7661 65.7498 53.6149 65.2469 53.4125 64.9214C53.2231 64.5785 53.0483 64.388 52.8882 64.3497C52.741 64.2941 52.5692 64.2808 52.3726 64.3097L51.6696 64.4131L52.3533 69.0624Z" fill="white"/>
</svg>
