<svg width="284" height="109" viewBox="0 0 284 109" fill="none" xmlns="http://www.w3.org/2000/svg">
<path d="M147.52 0.957108C150.247 0.949572 150.497 1.49621 152.684 1.55257C155.728 1.63012 158.84 1.56853 161.932 1.47681C163.476 1.43097 165.015 1.37786 166.555 1.33147C166.649 1.32855 166.743 1.32539 166.836 1.32252C166.565 1.31751 168.067 1.33242 168.58 1.33732C169.258 1.34402 169.851 1.35039 170.414 1.35696C172.604 1.38262 173.824 1.40201 174.816 1.41791C176.734 1.44931 177.618 1.46763 178.373 1.48266C179.812 1.51198 180.431 1.52688 180.961 1.54155C182.678 1.58956 183.02 1.70861 183.448 1.87734C182.606 3.13282 183.493 4.42771 183.594 2.21382C183.662 2.30891 183.716 2.34381 183.764 2.34538C183.788 2.34609 183.81 2.33816 183.832 2.3254C183.825 2.30797 183.923 2.2958 184.699 2.49071C187.068 3.10357 187.956 3.51254 188.42 3.73709C188.499 3.80067 188.67 3.83072 189.405 4.28193C189.942 4.63727 190.322 5.01235 190.679 5.42292C191.389 6.25315 191.899 7.129 192.792 8.58209C194.617 11.4124 195.676 13.1089 196.294 14.0195C197.083 15.3438 197.126 17.0915 196.486 18.4057C196.573 19.062 196.621 19.4252 196.758 20.862C196.982 23.2494 197.047 23.754 197.133 24.5329C197.29 25.9073 197.388 26.6431 197.477 27.2712C197.501 27.4383 197.524 27.5931 197.546 27.7368C198.166 27.8696 198.798 28.0272 199.39 28.1911C200.671 28.5432 201.75 28.9321 202.384 29.1038C202.535 29.1441 202.809 29.211 203.164 29.3083C203.455 29.3856 204.241 29.626 204.042 29.5949C203.902 29.6189 204.438 29.7718 205.668 29.8749C206.311 29.9301 207.103 29.9823 208.543 30.0385C208.915 30.0528 209.323 30.0674 209.865 30.0839C210.384 30.1001 211.257 30.1217 211.239 30.128C211.524 30.1465 211.835 30.1713 212.114 30.1989C213.232 30.3078 214.188 30.4896 214.615 30.5678C215.466 30.72 216.696 31.0018 218.009 31.2945C218.664 31.4393 219.333 31.5804 219.952 31.6967C220.627 31.8234 220.403 31.7564 220.622 31.7746C220.982 31.7817 221.426 31.486 222.123 31.4891C222.478 31.4924 222.893 31.5699 223.542 31.8342C224.273 32.1169 224.769 32.4825 227.367 33.5272C229.773 34.0217 230.802 34.1492 231.961 34.3644C232.52 34.4654 233.046 34.5676 233.607 34.6854C233.401 34.6895 237.564 35.3587 238.705 35.4992C239.688 35.6342 239.648 35.8735 240.035 35.9077C240.794 35.972 241.512 35.8351 242.033 35.8753C242.945 35.9561 242.91 36.5302 243.067 35.7417C243.272 35.6529 243.753 35.6244 244.724 35.7159C245.023 35.944 245.387 36.188 245.865 36.4611C246.743 36.5025 247.552 36.5209 249.914 36.9547C248.054 37.0707 253.214 38.5125 253.587 38.5647C254.76 38.8237 255.818 38.872 254.996 38.2224C256.473 38.8737 257.676 39.5114 258.795 40.0219C259.079 40.1519 259.335 40.2685 259.628 40.3918C261.514 41.0061 262.02 41.1425 262.71 41.3502C263.964 41.7201 264.679 41.9198 265.289 42.0965C265.002 42.7101 266.366 42.9958 266.935 42.847C267.567 42.7121 267.633 42.2329 267.743 41.8861C268.256 41.9184 268.715 41.957 269.143 41.9984C270.986 42.3527 272.342 42.5817 273.68 42.9093C274.007 42.9909 274.366 43.0912 274.692 43.2027C275.019 43.3135 276.003 43.6813 276.49 43.8905C277.59 44.3543 278.319 44.7472 278.883 45.1107C279.556 45.5192 281.489 47.0781 281.65 47.6517C281.982 48.2908 281.943 48.5923 281.951 49.1953C282.388 49.9137 282.539 50.0434 282.73 50.4706C283.302 50.9008 283.457 51.2831 283.468 52.1836C283.471 52.4322 283.464 52.7268 283.456 53.2623C283.452 53.5291 283.448 53.8622 283.446 54.2958C283.444 54.7097 283.451 55.3624 283.432 55.3056C283.377 55.6012 283.3 55.8974 283.22 56.2203C282.895 57.4952 282.518 59.1196 283.13 62.8235C282.603 64.1094 282.474 65.6065 282.477 68.6497C282.34 73.9186 281.958 74.8206 281.946 75.8276C281.936 76.0289 282.13 76.0787 282.139 76.3215C281.878 78.1383 281.034 81.2398 281.683 81.2602C281.222 82.5399 280.647 83.7553 279.974 85.0616C279.57 86.4235 279.669 86.7192 279.637 87.9033C279.839 87.9243 280.04 87.9451 280.242 87.9659C279.718 89.321 279.388 89.8184 279.24 90.8079C279.077 91.7643 279.016 93.0609 278.869 94.1021C278.808 94.5309 278.532 94.5201 278.356 96.07C278.252 97.0696 277.936 98.2479 277.522 99.1603C277.066 100.098 276.891 100.66 275.983 101.557C275.618 102.361 275.008 103.058 274.445 103.642C271.454 105.017 270.403 104.606 269.377 104.976C269.277 105.006 268.483 105.407 267.341 105.724C266.239 106.047 264.668 106.27 264.488 106.297C263.1 106.509 262.453 106.831 260.889 106.947C260.161 106.988 259.263 106.878 258.423 106.674C257.637 106.479 256.828 106.281 255.315 106.025C254.79 105.931 254.31 105.79 253.833 105.627C253.567 105.507 253.3 105.385 252.921 105.293C252.584 105.21 252.046 105.117 251.08 104.916C250.624 104.824 249.861 104.644 249.242 104.498C248.97 104.462 248.701 104.45 248.369 104.44C247.069 104.418 245.451 104.533 245.178 104.74C244.678 104.526 243.333 104.165 243.224 104.068C242.862 103.926 242.357 103.797 241.507 103.62C240.661 103.444 239.398 103.206 237.552 102.812C236.402 102.565 235.9 102.385 235.474 102.224C235.238 102.13 235.124 101.98 234.892 101.797C234.776 101.706 234.632 101.607 234.428 101.507C234.248 101.413 233.927 101.295 232.933 101.088C229.838 100.436 226.589 100.51 225.565 100.371C224.399 100.218 224.188 99.8603 223.808 99.7988C223.424 99.7337 223.299 100.012 222.381 99.8515C221.113 99.6186 219.792 99.1514 218.148 98.6395C217.395 98.3968 216.16 98.0721 215.079 97.7885C214.047 97.5166 213.315 97.3268 212.707 97.1972C210.907 96.8176 210.475 96.9584 209.393 97.086C208.068 97.169 207.062 97.1155 204.471 97.0271C202.453 96.7826 201.514 96.5933 200.54 96.5535C197.6 96.4237 196.981 96.608 194.762 95.9897C193.508 95.6912 192.285 95.4677 191.104 95.2482C189.928 95.0535 188.808 94.7193 187.265 94.5835C185.888 94.4644 184.836 94.4939 183.749 94.3611C183.021 94.2657 183.057 94.236 182.94 94.2123C182.847 94.1877 182.738 94.162 182.608 94.1362C182.328 94.0839 182.057 94.0314 181.085 93.9629C180.569 93.9276 179.909 93.8907 178.364 93.8255C177.043 93.7699 173.017 93.6085 173.199 93.6061C169.075 93.3688 158.092 92.2375 161.008 94.0797C159.509 94.3863 148.215 93.622 145.937 93.5758C143.898 93.5424 142.264 93.8468 140.628 93.8235C135.746 93.7429 131.718 93.4759 126.052 93.7487C124.534 93.8199 122.886 94.2067 121.967 94.202C120.866 94.1953 119.668 93.8198 118.22 93.798C114.778 93.7469 108.198 93.8995 104.703 93.8768C104.06 93.8715 103.831 93.5439 102.918 93.4532C102.461 93.4092 102.01 93.3724 101.552 93.3444C101.329 93.3303 101.094 93.3185 100.867 93.3089C100.754 93.3042 100.642 93.3002 100.532 93.2965C100.067 93.2993 98.9808 93.3174 98.3861 93.3289C93.5702 93.4316 93.5227 93.5033 92.7366 93.601C91.63 93.7914 91.6562 94.0862 91.7995 94.5942C90.9861 94.4125 91.1925 94.3712 90.6757 94.5684C89.6477 94.8753 88.8512 95.2618 88.0882 95.6729C87.7055 95.8787 87.3246 96.0927 86.9362 96.3004C86.4122 96.5664 86.7601 96.4481 84.9955 97.2258C78.9977 99.7211 77.8368 98.9843 77.2383 99.2071C76.2178 99.3517 75.0676 99.6542 71.1869 100.136C69.4287 100.374 64.9911 100.658 64.7983 100.743C63.8556 100.878 62.6361 101.245 61.0123 101.632C60.6207 101.724 60.1892 101.82 59.8031 101.899C58.2366 102.203 57.4222 102.379 56.7679 102.52C55.4805 102.8 54.7663 102.972 54.1443 103.124C52.9446 103.421 52.3317 103.602 51.8661 103.757C50.7935 104.14 50.6135 104.265 49.4956 104.606C48.4732 104.952 46.8408 105.371 41.4429 106.241C39.9338 106.534 39.8065 106.517 37.7895 106.761C35.0801 107.187 33.3216 107.466 31.8359 107.554C30.6679 107.616 29.5898 107.882 27.9704 108.634C25.5299 108.756 21.439 109.335 17.283 108.35C15.6126 107.877 14.8378 107.347 14.3708 107.009C13.9087 106.658 13.8153 106.448 13.039 105.872C12.5846 105.912 12.0722 105.924 11.484 105.878C10.8445 105.533 9.76779 105.208 8.82768 104C8.74532 103.552 8.75272 103.14 8.81149 102.775C8.1209 101.191 8.24683 99.6432 7.98218 98.2262C7.70192 96.7734 7.2976 96.1707 6.97757 95.7094C6.70111 95.3264 6.07778 94.608 5.37577 92.9911C4.5679 90.8731 4.60361 90.4931 4.39045 89.6645C4.11798 88.4216 3.64609 86.1977 3.06176 83.559C2.865 82.6474 2.57756 81.4649 2.23692 79.8051C1.86498 78.1114 1.64931 76.0309 1.67797 74.5037C1.69694 72.9415 1.79248 71.8746 1.79575 70.9547C1.79818 70.7325 1.79838 70.5246 1.79334 70.2924C1.77638 69.8699 1.70851 68.6937 1.66867 68.0125C1.58053 66.5142 1.50432 65.3836 1.4455 64.5286C1.21443 61.2755 1.20129 60.7601 1.20063 60.0001C1.20592 58.6194 0.85822 58.9023 1.51885 57.3458C1.36157 56.7971 1.17501 56.1744 0.984691 55.4568C0.709342 55.0351 0.43156 54.5712 0.162612 54.0468C-0.0159463 52.6945 -0.0585508 51.4656 0.0906328 50.2212C0.249141 48.9551 0.557154 47.4684 1.50542 45.8853C2.78017 43.6812 5.34036 42.4349 7.23483 41.5107C8.74188 40.6925 11.526 39.2129 12.9729 38.6715C13.5086 38.4314 15.0086 37.7625 16.11 37.4482C17.2574 37.0972 18.3521 36.8331 19.4183 36.6227C20.7751 36.388 20.4378 36.3731 22.2282 36.0623C22.5915 36.0017 23.3352 35.9331 23.55 35.9222C23.6978 35.9108 23.8503 35.8993 24.0095 35.8877C24.3274 35.8647 24.6741 35.841 25.043 35.8182C26.5228 35.7269 28.3565 35.6451 30.5682 35.6329C31.5427 35.6252 33.7227 35.7018 34.3087 35.7637C35.1903 35.8122 36.0729 35.7593 36.8979 35.6129C38.1017 35.3982 38.8831 35.1206 39.7901 34.8921C40.4835 34.6809 40.9823 34.4958 42.3445 34.4671C43.4814 34.4389 45.2894 34.4852 47.672 34.3958C49.0384 34.3736 50.7051 34.3013 52.6782 34.2122C54.6006 34.1253 57.1077 34.0332 59.4043 34.0276C61.5596 34.0214 63.0888 34.0437 64.2407 34.0132C65.5872 33.9795 66.115 33.7229 66.8568 33.6863C67.2512 33.6574 69.5608 33.5856 70.4475 33.4601C71.4835 33.3361 72.1109 33.1847 72.7374 33.023C74.0319 32.6848 74.7457 32.3872 76.9631 31.777C83.3162 31.3855 82.5779 32.4288 84.1235 32.9235C84.7279 33.0728 85.4 33.6065 86.6032 33.6161C87.6106 32.6608 87.7641 31.6464 88.0827 31.146C88.124 31.0937 88.1677 31.0684 88.2132 31.0624C88.2036 31.0597 88.1937 31.0565 88.184 31.0517C87.8307 30.8335 87.3789 28.2756 86.9521 28.1074C86.5343 27.9056 83.868 27.8491 83.6493 26.0648C83.5804 25.4462 83.5791 24.756 83.6675 24.0697C83.7011 23.7893 83.6679 24.1857 83.7791 23.2789C83.8822 22.4361 83.9693 21.685 84.0388 21.0882C84.1778 19.8863 84.2566 19.2714 84.335 18.7921C84.6471 17.003 84.8598 16.9155 85.1502 15.8165C85.2921 15.3185 85.4544 14.6907 85.7594 13.9423C85.9946 13.2868 86.8031 11.9441 86.8856 11.7764C87.5989 10.5329 88.3798 8.69186 89.6952 6.83082C90.3185 5.96027 91.0494 5.18956 91.8043 4.52335C92.1975 4.17973 92.4902 3.92124 92.9966 3.54354C93.8546 2.96556 94.6311 2.62262 95.3678 2.36363C96.609 2.2587 97.4093 2.43793 97.8871 2.56407C98.4466 2.68649 98.0892 2.89193 98.2063 3.05415C98.2506 2.8874 98.5498 3.31893 98.7952 3.28455C98.9973 3.25573 99.0922 2.97818 99.6335 2.95255C100.028 2.93689 100.138 2.99827 102.27 3.04037C102.888 3.05062 103.461 3.06012 105.577 3.06104C106.134 3.0612 106.845 3.06021 107.972 3.05828C108.62 3.05694 109.322 3.05558 110.344 3.05346C110.869 3.05236 111.433 3.0515 112.069 3.05036C112.962 3.04848 112.339 3.05099 112.474 3.0514C112.583 3.05757 112.695 3.06332 112.81 3.06827C113.267 3.08809 113.77 3.0968 114.271 3.08446C117.626 3.00506 118.244 2.29248 120.285 2.19901C122.408 2.10244 125.734 2.48678 128.487 2.23586C128.83 2.15746 129.176 2.07899 129.522 2.00064C129.274 1.82347 129.026 1.64637 128.78 1.46923C130.168 1.38666 130.764 1.74982 132.045 1.7568C133.549 1.76527 134.322 1.42171 135.341 1.42411C136.175 1.4264 137.307 1.70347 138.393 1.68758C139.977 1.66587 139.632 1.26696 140.486 1.19371C140.822 1.16453 147.151 0.958445 147.52 0.957108ZM153.88 6.90831C152.741 6.9161 151.995 7.33668 149.694 7.43352C142.017 7.751 131.874 7.29038 124.849 7.50826C121.37 7.61507 116.644 8.16028 113.337 8.28866C113.17 8.29507 112.991 8.30022 112.803 8.30451C112.708 8.30665 112.612 8.30868 112.513 8.31036C112.501 8.31057 112.489 8.3105 112.476 8.3107C112.47 8.31081 112.464 8.31095 112.458 8.31105C112.339 8.31148 111.928 8.31289 111.672 8.3138C110.547 8.31776 109.681 8.32135 108.942 8.32482C107.551 8.33146 106.797 8.3365 106.117 8.34101C103.736 8.3576 103.088 8.36654 102.38 8.37407C101.72 8.38152 101.303 8.38667 100.965 8.39095C99.684 8.40763 99.4224 8.40843 99.1679 8.41092C98.7388 8.41582 98.8226 8.42322 98.8128 8.54111C98.8206 8.68375 98.8761 9.13929 98.8775 9.19684C98.8774 9.22197 98.8588 9.16788 98.8342 9.10627C98.8105 9.04315 98.8156 8.97684 98.268 9.01259C96.5921 9.08185 96.608 9.13487 95.7012 9.67452C95.0119 10.1208 94.5348 10.4977 93.5435 12.1552C93.1975 12.7294 92.8062 13.4766 92.2896 14.3508C91.7927 15.2029 90.955 16.3447 90.7284 16.9282C90.1747 18.5228 90.3689 17.3206 89.9928 20.4845C89.9438 20.9364 89.8818 21.5209 89.7968 22.2706C89.7544 22.6441 89.7069 23.0538 89.6535 23.4963C89.5999 23.9435 89.5412 24.4046 89.5388 24.3642C89.4903 24.5596 89.4472 24.7107 89.4025 24.9534C89.3132 25.4171 89.2399 26.0774 89.1586 26.9613C89.019 28.6035 88.7224 30.9756 88.2759 31.0651C88.6382 31.1494 89.1004 32.2648 89.4421 31.7257C89.4833 32.1736 89.5168 32.5436 89.5123 32.9989C89.5062 33.2341 89.5062 33.4687 89.4149 33.9033C89.36 34.1292 89.3078 34.4018 89.0367 34.889C88.8676 35.477 87.114 36.5525 86.8208 36.4842C86.6545 36.5406 86.2221 36.6661 85.8083 36.7735C84.9632 36.993 83.9488 37.2154 82.7008 37.358C80.0157 37.577 77.6279 37.7469 76.2096 37.744C74.9233 38.0097 74.087 38.3105 71.8419 38.6433C70.7286 38.8006 69.2019 38.8981 67.5404 38.9263C66.8096 38.9413 66.0852 38.9514 65.2333 38.9639C63.5341 38.9901 61.5817 39.0127 59.0902 39.1103C56.2577 39.2213 54.2522 39.4192 52.2532 39.6124C51.5152 39.4447 50.8073 39.275 50.1266 39.0989C50.1265 39.0984 50.1266 39.098 50.1266 39.0975C47.7623 39.0554 44.9579 39.7608 43.4745 39.9186C41.369 40.1425 40.5207 40.1497 38.344 40.6046C37.298 40.8243 35.8858 41.1629 34.2288 41.2796C32.3631 41.3764 30.3876 41.4869 28.996 41.5858C25.969 41.8513 24.8279 41.6614 21.9579 42.2433C19.5683 42.6203 17.0744 43.1529 14.429 44.3069C13.04 44.8143 12.2735 45.2139 10.1912 46.3364C8.32795 47.2597 7.34494 47.7384 6.94278 48.1373C6.54134 48.4804 6.07745 49.226 5.89168 50.2881C5.70294 51.2974 5.72184 52.358 5.93163 53.8715C6.12635 55.274 6.39769 56.5431 6.51952 57.8376C6.61128 59.0646 6.56968 58.9535 6.61871 59.6326C6.69143 60.8562 6.86157 62.0212 7.23036 67.2662C7.439 70.344 7.48294 71.0086 7.46765 72.6795C7.45087 74.2591 7.43513 76.004 7.93362 78.1888C8.18764 79.3394 8.42826 80.2992 8.62552 81.1076C8.82305 81.9132 8.97643 82.5832 9.20548 83.6282C9.60802 85.4794 9.8162 86.651 9.85915 87.282C9.89985 87.9231 9.5811 88.1699 9.69901 88.7791C9.97776 89.9553 10.5603 91.7708 11.1761 92.6632C11.7221 93.6271 12.4333 94.5716 12.9412 97.4689C13.0763 99.1792 13.319 100.103 13.3965 100.462C14.7427 101.134 16.0477 101.525 16.7134 101.823C17.6163 102.265 17.9183 102.903 20.9801 103.002C23.6485 103.048 25.8736 102.935 27.2392 102.758C28.6426 102.583 29.6593 102.388 30.7142 102.218C31.7245 102.074 32.62 101.832 34.4716 101.358C35.2682 101.148 36.9926 100.778 37.5743 100.676C37.8451 100.616 38.111 100.546 38.5696 100.412C39.0374 100.279 39.6797 100.061 41.1292 99.7368C41.8471 99.5773 42.7911 99.398 43.8134 99.2371C44.3156 99.1554 44.5706 99.0956 44.9695 99.0015C46.4032 98.651 48.4264 98.0177 49.8431 97.8705C49.8412 97.8541 50.4547 97.721 51.6478 97.4472C52.5246 97.2505 53.4196 97.0361 55.9627 96.506C56.3074 96.4348 56.6694 96.3606 57.1726 96.2601C57.5426 96.1847 58.8419 95.9351 58.7472 95.9522C59.0498 95.8917 59.3274 95.8318 59.6189 95.7655C60.1957 95.6345 60.7604 95.4898 61.3267 95.3464C62.4586 95.0558 63.6147 94.8023 64.7346 94.6872C65.1066 94.6412 66.5072 94.5493 67.5039 94.4568C68.5356 94.3647 69.4171 94.2716 70.1551 94.1837C75.5921 93.4741 75.7584 93.1701 78.4761 92.8877C79.1716 92.7622 80.2782 92.5907 82.9536 91.4065C83.8176 91.0183 83.6532 91.0841 83.8966 90.9684C84.0823 90.8779 84.2783 90.7803 84.4882 90.6757C84.9075 90.467 85.3816 90.2278 85.9409 89.9714C86.499 89.7156 87.1428 89.4459 87.8582 89.2006C88.5482 88.9576 89.5204 88.7081 89.3883 88.7388C89.5366 88.6941 89.7542 88.6324 90.0668 88.5638C90.3948 88.4938 90.775 88.417 91.599 88.3217C92.0268 88.2737 92.5417 88.2212 93.5442 88.1553C94.5951 88.0917 95.9713 87.9977 100.425 87.9067C102.818 87.8493 105.132 87.8131 107.414 87.7827C116.597 87.6697 124.794 87.6314 133.61 87.6759C138.253 87.7041 142.38 87.8088 146.679 87.8454C151.201 87.8851 155.629 87.8899 160.013 87.9239C163.4 87.9506 167.217 87.91 170.97 87.9473C171.913 87.9573 172.85 87.9725 173.774 87.999C173.679 87.9934 175.365 88.0559 176.23 88.0854C177.192 88.1188 177.954 88.1442 178.559 88.1646C179.769 88.2054 180.418 88.2286 180.931 88.2507C182.798 88.3326 183.125 88.4102 183.664 88.528C184.122 88.6278 184.051 88.8296 184.758 88.9716C185.528 89.1544 186.137 88.9563 189.647 89.2647C189.695 89.4338 189.738 89.6027 189.779 89.7716C191.073 89.9292 192.315 89.9836 193.731 90.1267C195.073 90.2328 197.262 90.7008 197.143 90.6033C197.372 90.6202 197.836 90.6449 198.826 90.6671C199.906 90.7069 200.964 90.6453 204.572 90.9381C210.705 91.6751 209.863 91.7874 211.165 91.9468C212.1 92.125 211.654 92.3472 212.719 92.5485C213.2 92.6417 213.87 92.7534 214.91 92.9411C215.848 93.1093 217.9 93.4982 218.994 93.7081C221.403 94.1866 222.882 94.4542 223.681 94.5674C224.361 94.704 227.28 95.155 230.83 95.5816C231.568 95.6705 232.413 95.7812 233.513 95.9636C233.993 96.0399 235.08 96.249 235.203 96.2704C235.497 96.3262 235.777 96.3852 236.049 96.4461C237.252 96.7183 237.537 96.8246 238.997 97.0804C243.005 97.8201 243.689 97.8202 244.76 97.9845C246.196 98.2597 248.356 98.1708 250.914 98.8386C254.453 99.8223 254.166 99.7304 256.245 100.102C257.185 100.239 259.348 100.807 260.008 101.148C260.834 101.507 261.311 101.625 261.477 101.615C263.319 101.51 263.741 101.061 264.558 100.895C266.81 100.395 266.502 100.306 270.703 98.7043C271.837 98.2813 272.276 98.1248 272.443 98.0368C272.593 97.9278 272.323 98.3174 272.67 97.7727C273.155 96.8843 273.395 96.7573 273.469 95.095C273.673 86.1384 276.646 79.5699 277.556 73.95C277.673 73.4205 277.808 72.8286 277.943 71.825C278.01 71.3174 278.077 70.7001 278.125 69.8754C278.176 69.0832 278.187 67.8427 278.189 67.5211C278.206 65.5731 278.22 63.6684 278.224 61.7841C278.229 59.9029 278.228 58.0347 278.194 56.2517C278.189 56.0304 278.184 55.8176 278.178 55.5939C278.171 55.3675 278.113 53.3202 278.109 52.9837C278.097 52.418 278.089 52.1261 278.082 51.9673C277.288 50.4863 277.144 50.4929 274.069 49.1378C273.684 48.9804 272.747 48.6401 272.755 48.6491C272.629 48.6083 272.42 48.5487 272.186 48.4924C271.716 48.3782 271.121 48.2638 270.435 48.16C269.123 47.9416 266.884 47.8178 266.718 47.775C266.137 47.7013 265.316 47.5932 263.622 47.2429C262.437 47.0675 256.625 45.3929 256.235 45.1458C254.906 44.6405 253.705 44.1194 252.559 43.7083C251.979 43.499 251.443 43.3216 250.859 43.1494C248.563 42.5302 248.216 42.4419 247.496 42.2491C246.869 42.0818 246.405 41.9577 246.017 41.8527C243.678 41.2171 244.482 40.9982 243.393 40.7396C242.407 40.509 242.215 40.7487 242.026 40.7276C241.673 40.6927 241.874 40.7446 241.041 40.7096C240.586 40.6883 240.074 40.693 238.194 40.5226C237.705 40.4763 237.107 40.415 236.277 40.3126C235.857 40.2606 235.385 40.1989 234.829 40.1204C234.367 40.0573 233.21 39.8781 233.325 39.8979C232.877 39.8354 232.409 39.7706 231.912 39.6988C230.921 39.5556 229.805 39.3835 228.584 39.1475C227.973 39.0295 227.346 38.8977 226.698 38.7493C226.537 38.7136 225.498 38.4678 224.874 38.3164C224.229 38.1601 223.75 38.0414 223.337 37.9379C220.293 37.1687 219.933 37.0339 219.461 36.8527C219.253 36.7784 219.536 36.7424 218.994 36.5407C218.525 36.3533 218.122 36.1835 217.758 36.103C217.392 36.0225 216.498 36.039 215.514 35.844C214.427 35.6296 213.586 35.4946 212.841 35.4183C212.469 35.3798 212.12 35.3543 211.781 35.3384C211.608 35.3303 211.458 35.3257 211.291 35.3219C211.151 35.3185 210.915 35.3164 209.919 35.2988C207.101 35.251 206.369 35.2289 205.438 35.1907C204.59 35.1537 204.032 35.1116 203.551 35.0512C202.548 34.9375 201.851 34.5973 200.131 34.372C199.299 34.2505 198.319 34.1338 197.07 33.9904C196.468 33.9155 195.626 33.848 195.057 33.7356C194.365 33.6117 193.52 32.7377 193.363 32.4327C192.603 31.0751 192.577 30.4088 192.206 27.9545C192.122 27.3221 192.034 26.6108 191.912 25.4745C191.851 24.9038 191.785 24.2565 191.68 23.1491C191.634 22.6681 191.517 21.3592 191.472 20.8451C191.439 20.4762 191.409 20.1434 191.381 19.846C191.163 17.5012 191.038 17.3539 190.975 17.149C190.936 17.0576 190.957 17.1038 190.916 17.0354C190.754 16.7823 190.444 16.2637 190.21 15.8548C189.717 14.9964 189.21 14.0526 188.553 13.0135C187.622 11.5587 186.917 10.368 186.556 9.96864C186.448 9.84031 186.364 9.76066 186.315 9.71929C186.272 9.7079 186.103 9.64026 185.857 9.54055C185.163 9.2626 184.592 8.93311 183.113 8.48118C182.034 8.17846 182.427 8.30477 182.324 8.2773C182.292 8.27271 182.266 8.26923 182.241 8.26628C182.14 8.25565 182.093 8.24341 181.653 8.19189C181.419 8.16614 181.107 8.13134 180.349 8.07961C179.961 8.05366 179.472 8.02348 178.587 7.98387C177.597 7.94363 176.825 7.89751 172.842 7.81408C171.783 7.79293 170.414 7.7686 168.404 7.74245C167.923 7.7362 167.357 7.72938 166.803 7.72316C166.751 7.72241 166.73 7.72202 166.693 7.72144C166.624 7.72034 166.555 7.71911 166.486 7.71799C166.209 7.71355 165.928 7.70914 165.644 7.70456C165.076 7.69544 164.542 7.6865 163.974 7.67701C162.891 7.6585 161.786 7.63892 160.703 7.61777C156.948 7.54463 154.4 6.90453 153.88 6.90831ZM189.825 94.4334C190.462 94.4604 191.113 94.4832 191.784 94.5126C191.437 94.3239 191.095 94.1369 190.761 93.9505C190.438 93.8977 190.12 93.8453 189.808 93.7918C189.813 94.0056 189.819 94.2195 189.825 94.4334ZM278.07 51.7452C278.058 51.7218 278.06 51.7325 278.071 51.7648C278.071 51.7581 278.07 51.7519 278.07 51.7452ZM197.669 28.478C197.749 28.9157 197.817 29.1903 197.885 29.3827C197.994 29.699 198.119 29.7331 198.128 29.4471C198.202 29.3535 197.989 28.9206 197.669 28.478ZM196.815 27.5815C196.647 27.5136 195.892 27.4534 196.434 27.5254C196.564 27.5462 196.697 27.5692 196.832 27.5939C196.826 27.5898 196.821 27.5855 196.815 27.5815ZM194.257 11.6831C193.805 11.6237 194.424 12.8012 194.91 13.4343C195.409 14.0851 195.876 14.3406 195.707 13.693C195.664 13.47 194.532 11.7797 194.257 11.6831Z" fill="#31260C"/>
<path d="M87.7065 25.7334C87.521 27.3677 87.8058 28.9729 87.8058 32.4819C87.8058 33.0566 87.969 34.6056 87.7065 34.6436C86.2465 34.981 84.6735 35.4623 82.5075 35.6857C79.7539 36.0566 77.8425 36.4402 76.3659 36.7659L76.2341 36.795C74.1241 37.2607 72.9135 37.5279 69.3674 37.5836C67.0193 37.6205 62.8906 37.6205 59.3451 37.8104C55.7995 38.0003 52.9241 38.3689 50.0432 38.5532C47.1623 38.7375 44.3591 38.6926 42.656 38.7755C40.3616 38.8872 38.8811 39.4491 36.3557 39.5206C32.4505 39.6312 28.8052 39.8812 26.5791 40.0043C25.2454 40.078 24.446 40.3378 23.6424 40.4511C22.0416 40.6768 19.576 41.1937 17.9107 41.9044C16.5992 42.4641 14.9188 42.9625 13.3988 43.8448C10.643 45.4444 8.64752 45.7831 7.37224 47.94C6.55454 49.3229 6.38056 51.0919 6.44618 52.4116C6.55901 54.6804 7.2016 56.7403 7.33984 58.4817C7.52863 60.86 7.87933 62.6607 8.30834 69.362C8.49377 72.2586 7.99313 73.9763 8.79315 77.5836C9.16402 79.2559 9.47861 80.3932 9.79851 81.7134C10.3615 84.0369 11.0564 87.031 11.4361 88.751C11.7735 90.2791 12.4378 91.3086 12.8894 92.1737C13.3374 93.0316 13.7947 94.1924 14.0054 95.7896C14.231 97.4999 14.0074 99.3278 15.051 99.9183C16.1703 100.552 17.2303 100.943 18.1419 101.333C19.45 101.892 20.7519 102.785 23.8959 102.784C29.4992 102.781 30.8196 102.367 34.1942 101.851C35.9111 101.588 37.8007 100.956 40.4498 100.51C42.0104 100.248 42.8691 99.7629 46.6708 99.2068C48.7172 98.9074 50.4588 98.219 52.4002 98.016C53.1051 97.9422 56.4887 97.1289 61.2005 96.2633C63.8334 95.7796 65.1376 95.2295 67.4226 95.0736C73.4492 94.6625 75.4918 94.221 78.2079 93.77C79.9907 93.474 81.3671 93.8041 86.1413 91.6822C87.8102 90.9404 89.1003 90.1702 91.396 89.5977C92.3009 89.3721 93.6279 89.0772 101.622 88.9297C109.615 88.7823 123.845 88.7823 131.225 88.8202C138.606 88.8582 139.122 88.9319 146.216 89.0068C153.311 89.0816 166.585 89.0189 173.369 89.2682C180.451 89.5285 181.525 89.5058 182.915 89.7519C184.178 89.9753 186.251 89.7664 188.502 90.1987C190.433 90.5696 192.96 90.9054 195.202 91.4655C196.392 91.7626 199.735 91.5611 203.888 91.986C206.072 92.2094 207.409 92.6015 208.717 92.73C210.241 92.8797 212.466 93.3875 215.682 94.0716C218.146 94.5955 220.191 95.1911 221.861 95.411C223.574 95.6366 227.643 95.7198 232.626 96.7157C233.923 96.9749 234.8 97.29 236.016 97.5356C239.138 98.1656 240.785 98.4123 242.117 98.6884C243.905 99.0593 246.194 99.0987 247.851 99.5821C249.642 100.105 251.114 100.445 252.018 100.624C253.141 100.847 254.659 100.979 255.966 101.331C256.935 101.593 257.963 101.98 259.21 101.927C261.935 101.812 264.047 101.472 265.574 100.844C266.841 100.324 267.819 99.8841 269.707 99.1688L269.781 99.1408C270.832 98.743 271.806 98.3744 272.348 97.4921C272.945 96.5213 273.55 95.3524 273.649 93.8739C273.838 91.079 273.92 88.8116 274.358 87.0642C274.656 85.8734 274.562 84.9115 275.066 83.6381C275.626 82.2228 276.132 80.7198 276.405 79.3944C276.667 78.1254 276.956 76.611 277.337 74.9619C277.708 73.3577 278.294 71.5884 278.341 67.5345C278.378 64.3854 278.444 58.4858 278.34 55.4243C278.228 52.1401 278.307 51.6358 278.079 51.2454C277.556 50.3506 277.037 49.1863 275.581 48.379C274.575 47.8216 273.31 47.1831 271.148 46.4431C269.732 45.9583 267.053 45.6001 264.819 45.4768C264.151 45.44 260.822 45.0215 256.429 43.685C253.869 42.9064 252.171 42.0323 249.338 41.2979C244.312 39.9954 240.83 39.2478 240.394 39.1464C239.272 38.885 237.579 39.0314 232.002 38.1768C229.814 37.8416 227.917 37.58 225.29 36.9815C221.535 36.1258 219.176 35.5007 218.229 35.3092C214.544 34.5642 212.639 33.9513 209.688 33.8961L209.473 33.8921C205.641 33.8206 202.91 33.7696 202.15 33.5599C200.398 33.0762 197.575 32.8608 194.816 32.5557C194.149 32.4819 193.67 28.3814 193.158 22.7229C192.897 19.8342 192.77 18.7074 192.225 17.8626C191.48 16.7064 190.79 15.3341 189.803 13.8389C188.647 12.0862 187.742 10.3338 186.527 9.89673C185.595 9.56161 184.421 8.90054 182.347 8.40544L182.324 8.40004C181.534 8.21108 180.318 7.92035 166.49 7.7743C152.53 7.62684 126.505 7.62684 113.34 7.66482C100.175 7.7028 99.881 7.78308 99.5809 7.81339C98.4639 7.92622 97.107 7.85714 95.6332 8.74615C94.5184 9.41862 93.6134 10.1521 92.8048 11.2819C91.6855 12.8458 91.0049 14.4568 90.1238 15.7122C89.1564 17.0907 88.6803 18.1219 88.4136 19.2868C88.1153 20.5893 88.1861 21.5064 87.7065 25.7334Z" fill="#13546A"/>
<path d="M147.729 5.07326C150.375 5.07053 150.615 5.43553 152.737 5.47551C155.689 5.53067 158.707 5.49388 161.703 5.43901C163.2 5.4116 164.688 5.37975 166.183 5.35325C179.71 5.47146 178.733 5.56404 180.175 5.59227C181.834 5.65624 182.096 5.75081 182.473 5.87605C181.796 6.69397 182.644 7.60263 182.613 6.10817C182.675 6.17478 182.727 6.20159 182.772 6.2053C182.795 6.20728 182.814 6.20292 182.834 6.19565C182.95 6.21294 182.453 6.07043 183.323 6.27383C185.672 6.85098 186.501 7.26692 187.072 7.51573C187.151 7.56776 188.333 8.08646 188.905 8.74868C189.553 9.421 190.047 10.1705 190.905 11.5238C192.691 14.2096 193.734 15.9498 194.319 16.7935C194.977 17.8513 195.078 19.4044 194.694 20.6966C194.794 21.3316 195.199 25.7258 195.314 26.5875C195.462 27.8578 195.557 28.5398 195.644 29.1322C195.71 29.5724 195.768 29.9235 195.822 30.2071C197.536 30.4599 200.43 31.1882 201.318 31.4463C201.457 31.4806 201.709 31.5388 202.031 31.6247C202.387 31.7171 202.714 31.8276 202.671 31.8282C202.763 31.8805 203.306 31.9916 204.621 32.0775C205.307 32.1224 206.113 32.1639 207.712 32.2125C210.062 32.274 210.309 32.2934 210.878 32.3458C211.934 32.4442 212.84 32.6112 213.249 32.6847C214.059 32.8279 215.248 33.0932 216.534 33.3718C217.177 33.5102 217.828 33.6444 218.44 33.7589C218.757 33.8128 218.783 33.8061 218.944 33.8212C219.289 33.8485 219.699 33.6771 220.382 33.7293C220.733 33.7575 221.145 33.8403 221.815 34.0706C222.524 34.3083 223.286 34.6547 225.71 35.4936C227.814 35.9202 228.999 36.0864 230.095 36.2758C230.64 36.3681 231.153 36.4587 231.697 36.5613C231.444 36.5508 235.733 37.1981 236.748 37.3038C237.694 37.4191 237.658 37.5768 238.03 37.6082C238.759 37.6676 239.448 37.5891 239.92 37.6296C240.734 37.7069 240.725 38.1025 240.822 37.5735C241.02 37.5272 241.47 37.5342 242.393 37.6534C242.691 37.8262 243.05 38.0138 243.519 38.2282C244.343 38.3073 245.134 38.3738 247.301 38.7964C246.663 38.8362 246.843 38.9966 248.268 39.4167C248.462 39.4734 248.673 39.5336 249.02 39.6281C249.314 39.7093 249.84 39.8503 249.794 39.8424C249.909 39.8805 250.034 39.9186 250.166 39.9567C250.433 40.0332 250.719 40.107 250.995 40.1723C252.103 40.435 253.082 40.5599 252.262 40.0397C253.68 40.6083 254.884 41.1871 256.017 41.6511C256.303 41.7688 256.574 41.8772 256.86 41.9859C257.975 42.3506 259.237 42.7001 259.825 42.862C261.136 43.2199 261.86 43.3978 262.485 43.5553C262.244 43.9561 263.618 44.2266 264.204 44.1515C264.86 44.0903 264.921 43.7688 264.921 43.5336C265.247 43.5515 265.822 43.5925 266.213 43.628C268.004 43.905 269.311 44.1126 270.558 44.396C271.353 44.5037 274.604 45.7719 275.485 46.3508C276.148 46.7429 275.856 46.5915 276.797 47.2018C277.527 47.7316 277.795 48.1031 277.996 48.3841C278.362 48.9406 278.379 49.198 278.482 49.7355C278.912 50.4207 279.092 50.6543 279.236 50.953C279.649 51.2876 279.768 51.6081 279.783 52.3898C279.792 52.7828 279.768 53.5609 279.786 55.3978C279.752 55.678 279.704 55.9665 279.652 56.275C279.444 57.5047 279.199 59.0774 279.6 62.6667C279.423 63.2398 279.311 64.0218 279.242 64.94C279.208 65.3974 279.184 65.8905 279.17 66.4065C279.151 66.9896 279.17 67.1437 279.13 68.6258C278.919 73.2757 278.522 74.0156 278.469 74.9276C278.434 75.1801 278.647 74.8439 278.508 75.6429C278.185 77.5159 277.488 80.2654 277.874 80.3918C277.45 81.5811 276.912 82.7777 276.267 84.0745C275.986 84.9547 276.067 85.7849 275.938 86.9209C276.071 86.9407 276.205 86.9603 276.339 86.9795C275.84 88.1578 275.714 88.3826 275.555 89.5818C275.414 90.658 275.349 92.094 275.219 93.2555C275.149 93.6909 275.054 93.9242 274.717 95.2296C274.227 96.7526 273.594 98.6804 271.792 99.5752C271.301 100.083 270.764 100.494 270.245 100.912C267.146 102.232 266.875 101.828 265.846 102.184C265.747 102.218 264.923 102.547 263.724 102.798C262.565 103.056 260.839 103.217 260.636 103.235C259.073 103.396 258.346 103.541 257.291 103.434C256.17 103.32 255.237 102.986 252.296 102.549C251.103 102.325 251.104 102.14 250.119 101.905C247.87 101.203 243.05 100.877 242.325 101.116C241.526 100.873 241.457 100.77 240.992 100.639C240.551 100.51 239.95 100.382 238.89 100.177C238.359 100.074 237.7 99.9478 236.869 99.7832C236.477 99.7055 235.901 99.5897 235.566 99.5201C235.356 99.4757 235.135 99.4246 234.938 99.3758C234.136 99.1755 233.521 98.9848 233.148 98.8626C232.653 98.7174 232.953 98.4273 229.796 97.8597C227.387 97.4348 224.403 97.4255 223.514 97.3204C222.48 97.2 222.298 96.9543 221.959 96.9019C221.73 96.8619 221.2 96.9812 220.41 96.8241C219.166 96.5768 217.801 96.1389 216.038 95.6662C213.847 95.1161 211.852 94.6112 210.912 94.4268C207.888 93.9191 208.612 94.3613 202.068 93.9367C200.587 93.8008 199.705 93.6646 198.873 93.6381C197.615 93.6009 196.762 93.5816 196.049 93.5272C195.304 93.4776 194.98 93.3768 193.531 93.0536C190.914 92.5582 189.403 92.102 186.08 91.7976C184.758 91.7174 183.8 91.7434 182.81 91.5937C182.191 91.4808 182.295 91.4825 181.938 91.427C181.612 91.3797 181.307 91.334 180.169 91.2707C179.561 91.2376 178.767 91.2024 176.878 91.1309C175.969 91.0962 174.54 91.0429 173.285 90.9931C173.018 90.9798 172.728 90.9667 172.462 90.9549C168.423 90.7602 157.768 89.9958 160.601 91.2273C159.146 91.4284 148.168 90.9119 145.988 90.8708C144.009 90.8423 142.43 91.0384 140.846 91.0151C136.11 90.9355 132.185 90.7491 126.692 90.9273C125.219 90.9738 123.62 91.2313 122.728 91.228C121.66 91.2234 120.499 90.9731 119.094 90.959C115.754 90.9256 109.376 91.0348 105.98 91.0303C105.363 91.0285 105.143 90.8107 104.25 90.7534C103.292 90.6992 102.837 90.6556 101.355 90.6587C98.0499 90.7123 96.8868 90.7649 95.9605 90.8089C95.0907 90.8528 94.6307 90.8929 94.272 90.9349C92.9851 91.0987 92.9908 91.3069 93.122 91.6399C92.2197 91.5554 92.1782 91.5867 91.9418 91.6847C90.1475 92.1479 88.6159 93.0973 86.9697 93.8402C80.8564 96.4911 79.6453 95.7861 78.8546 96.0131C77.9768 96.1266 76.7828 96.413 73.4427 96.8382C72.5697 96.9453 71.4815 97.0622 70.1503 97.1775C69.4868 97.235 68.7622 97.2923 68.0033 97.3469C67.0649 97.4123 67.2961 97.3998 66.9522 97.4364C65.942 97.5494 64.8507 97.8439 63.3832 98.199C63.0224 98.285 62.6531 98.3695 62.2756 98.4497C62.084 98.4904 61.8951 98.529 61.7129 98.565C61.7382 98.5616 61.1072 98.6787 60.8043 98.7372C60.4861 98.7983 60.2207 98.8504 59.9723 98.8995C58.168 99.2587 57.4306 99.4265 56.6984 99.59C55.333 99.8992 54.6668 100.073 54.1578 100.216C52.8987 100.573 53.2097 100.614 51.9719 100.875C51.4426 101.003 50.8301 101.171 49.8297 101.419C49.3278 101.541 48.7229 101.685 47.9566 101.817C47.4011 101.92 45.3887 102.164 44.3101 102.382C42.4368 102.746 41.901 102.876 40.9098 102.969C38.1073 103.366 36.3203 103.761 34.8515 103.921C33.5472 104.044 32.655 104.239 31.2798 104.798C30.2532 104.903 28.9303 105.024 27.3498 105.071C25.7652 105.093 24.1184 105.226 21.899 104.946C18.1097 104.243 18.0158 103.45 17.1525 102.867C16.7978 102.875 16.4021 102.87 15.9516 102.834C15.3973 102.599 14.7515 102.315 13.9896 101.892C13.8642 101.672 13.6077 101.328 13.483 101.001C12.3126 99.7208 12.3755 98.4129 12.2028 96.8654C12.0697 95.3141 11.6099 94.1958 11.2892 93.6408C10.9772 93.078 10.6115 92.7095 9.98526 91.498C9.6918 90.9233 9.36 90.1051 9.15629 89.2308C9.06512 88.8875 8.97591 88.529 8.89524 88.1704C8.61844 86.9463 8.23095 85.175 7.54795 82.2419C7.35227 81.3742 7.07787 80.3097 6.73724 78.7759C6.37438 77.2494 6.10169 75.2697 6.11112 73.808C6.10724 72.3067 6.20127 71.2234 6.19515 70.2944C6.19513 70.0604 6.19246 69.8503 6.18516 69.6235C6.18999 69.587 6.10117 68.1526 6.06153 67.5347C5.96667 66.057 5.88317 64.946 5.81769 64.108C5.56053 60.9297 5.52727 60.4714 5.50498 59.7448C5.46893 58.4683 5.25182 58.5942 5.59039 57.0612C5.44586 56.5002 5.27518 55.8738 5.10789 55.1598C4.89901 54.7304 4.69093 54.2627 4.49623 53.7388C4.33744 52.3224 4.34101 51.4856 4.51655 50.2583C4.60853 49.6624 4.75127 49.0324 4.99492 48.3614C5.21978 47.71 5.68656 46.8724 5.95166 46.524C7.2304 44.6466 9.47413 43.7884 11.3956 42.8183C12.9805 41.8895 15.4713 40.8117 16.8074 40.2883C18.5788 39.4573 21.0722 38.839 22.9994 38.5095C23.8978 38.3889 24.0871 38.2065 25.9523 37.9916C27.3705 37.8813 27.3944 37.8874 28.259 37.8331C29.7514 37.7443 31.5781 37.657 33.8056 37.622C36.4992 37.5956 38.3169 37.74 39.9345 37.4243C41.0841 37.2292 41.9088 37.0325 42.6201 36.8857C43.1441 36.7467 43.7314 36.6166 45.0664 36.5923C46.1341 36.5707 48.2774 36.5785 50.274 36.4831C51.6331 36.4374 53.2725 36.3393 55.1944 36.231C57.0539 36.1246 59.5466 36.0178 61.6984 36.0002C63.7463 35.9803 65.2219 35.9909 66.3285 35.9668C67.6236 35.9403 68.1336 35.768 68.8495 35.7409C69.136 35.7271 69.8194 35.7125 70.5767 35.6769C71.3016 35.6426 71.9279 35.5944 72.4467 35.5363C73.4839 35.4195 74.1331 35.2746 74.7559 35.1272C76.0415 34.8186 76.7171 34.5697 78.8505 34.0537C84.8401 33.5311 84.2895 34.2559 85.6988 34.5C86.2308 34.5864 87.0296 34.7825 87.9033 34.8809C88.8119 34.048 88.7466 33.0714 88.9803 32.5728C89.0108 32.5129 89.0441 32.4866 89.0791 32.4853C89.0687 32.4832 89.0581 32.4787 89.0474 32.4712C88.8154 32.2603 88.4949 29.8014 88.205 29.6382C87.9247 29.4448 86.1393 29.3396 85.9747 27.6589C85.924 27.0775 85.9247 26.4466 86.003 25.824C85.9919 25.9725 86.2727 23.6423 86.3701 22.7213C86.4839 21.6843 86.5469 21.1583 86.6108 20.7406C86.8579 19.229 87.0677 18.883 87.3819 17.9014C87.5419 17.4298 87.7484 16.8374 88.1024 16.1319C88.459 15.409 88.9745 14.6441 89.149 14.3159C89.9205 12.9807 90.8796 10.9351 92.1174 9.485C92.7348 8.75634 93.4308 8.14564 94.1342 7.61526C94.5905 7.18557 96.4724 6.19804 97.5172 6.00589C98.4408 5.98699 99.1138 6.09518 99.4166 6.17327C99.4404 6.28652 99.4679 6.39948 99.5072 6.51112C99.5653 6.39688 99.825 6.68141 100.103 6.65508C100.325 6.63344 100.434 6.44634 101.073 6.42468C101.623 6.41097 101.349 6.4508 104.787 6.46463C105.305 6.46601 105.907 6.46681 107.13 6.46497C107.792 6.46384 108.537 6.46244 109.943 6.45912C110.716 6.45721 111.586 6.45535 112.791 6.45292C113.571 6.4512 113.303 6.45248 113.363 6.45292C113.376 6.4535 113.389 6.45406 113.402 6.45464C113.609 6.46393 113.825 6.47231 114.051 6.47875C114.507 6.49161 114.974 6.49696 115.472 6.48839C118.735 6.4335 119.337 5.95868 121.31 5.89568C123.368 5.8306 126.597 6.08603 129.267 5.91876C129.601 5.86649 129.937 5.81428 130.274 5.76205C130.032 5.64393 129.792 5.52577 129.552 5.40767C130.901 5.35263 131.479 5.59468 132.719 5.5995C134.18 5.60535 134.928 5.37656 135.917 5.37839C136.724 5.38012 137.824 5.56526 138.877 5.55507C140.413 5.54122 140.079 5.27498 140.907 5.22651C141.233 5.20706 147.37 5.07362 147.729 5.07326ZM153.904 9.04727C152.8 9.0511 152.077 9.33035 149.843 9.3927C142.394 9.59689 132.559 9.28759 125.736 9.43403C122.373 9.50567 117.758 9.87074 114.565 9.95855C114.237 9.96732 113.859 9.97312 113.456 9.9768C104.017 10.0094 103.842 10.0326 102.712 10.0412C100.98 10.0613 100.751 10.0657 100.424 10.0708C99.8988 10.0806 99.9514 10.0886 99.9235 10.1683C99.9122 10.2647 99.9391 10.5693 99.9356 10.6081C99.9122 10.644 99.9685 10.4555 99.7823 10.4641C98.0854 10.5688 97.5371 10.5413 96.5233 11.198C95.6518 11.7537 95.1487 12.0509 94.0932 13.729C93.4335 14.8599 92.2541 16.6883 91.1968 18.4986C90.4418 20.3367 90.6854 19.4463 90.3582 22.1124C90.2812 22.8443 90.1456 24.2011 89.9225 25.9855C89.878 26.2096 89.8447 26.3726 89.811 26.6209C89.7442 27.0968 89.7025 27.7323 89.6611 28.5716C89.5947 30.1708 89.3959 32.5343 89.0819 32.4853C89.3276 32.4853 89.6676 33.6942 89.8964 33.1572C89.93 33.5828 89.9552 33.921 89.9446 34.3165C89.9352 34.5205 89.9343 34.7167 89.8392 35.0848C89.7659 35.2915 89.7981 35.4348 89.3691 35.9916C88.9076 36.6274 87.8831 36.7735 88.0652 36.7438C87.8385 36.8087 87.4078 36.9252 87.0062 37.0259C86.1846 37.2314 85.2301 37.4407 84.0654 37.5834C81.5549 37.8084 79.1181 38.057 77.7618 38.1362C76.4913 38.3899 75.6731 38.6659 73.6039 38.9662C72.5751 39.1091 71.1505 39.2027 69.5559 39.2307C68.6829 39.2471 68.1115 39.2532 67.266 39.2645C65.6273 39.2871 63.7386 39.3065 61.3358 39.3929C58.6564 39.4873 56.5418 39.676 54.6114 39.8558C53.8975 39.7627 53.2134 39.6682 52.5574 39.5679L52.557 39.5668C50.2187 39.6055 47.7057 40.1061 46.164 40.2205C44.059 40.3894 43.2034 40.356 41.0338 40.735C40.016 40.9183 38.7313 41.2209 37.2361 41.3463C36.557 41.4088 35.4153 41.4335 34.5312 41.482C33.6304 41.5269 32.8342 41.5727 32.1056 41.6167C30.6466 41.7052 29.4443 41.7876 28.412 41.8557C27.8965 41.8898 27.4283 41.9202 27.0016 41.9463C26.7616 41.9489 25.5268 42.072 25.0368 42.1912C22.8983 42.5701 19.9686 43.0327 17.5827 44.1191C16.2449 44.6219 15.3568 44.8987 13.4995 45.9647C11.6851 46.8927 10.3592 47.4391 9.77345 47.9454C9.18723 48.4133 8.68053 49.1028 8.4148 50.2656C8.17129 51.3889 8.16178 52.297 8.37072 53.8731C8.56556 55.2858 8.85119 56.5213 8.98719 57.7108C9.06731 58.4299 9.05066 58.5382 9.06881 58.7846C9.08253 59.0177 9.09944 59.2644 9.12151 59.5416C9.20614 60.7243 9.38365 61.7857 9.76037 66.9203C9.97739 70.0018 9.99097 70.3213 9.97114 71.9968C9.94312 73.5153 9.94827 75.3302 10.4994 77.555C11.452 81.4044 12.348 85.1512 12.4629 86.2597C12.5312 86.8557 12.3304 87.0672 12.4474 87.6332C12.593 88.1756 12.7782 89.0796 13.1079 89.7753C13.4165 90.4552 13.7319 90.9425 14.0044 91.4174C14.4792 92.2539 15.2998 93.7528 15.5328 96.551C15.6214 97.7335 15.7129 98.3758 15.8228 98.5871C15.9765 98.7975 15.603 98.466 16.5853 98.9652C18.0661 99.6172 19.0382 99.9237 19.823 100.273C20.2549 100.493 20.7191 100.734 21.5316 100.943C22.2622 101.168 23.9634 101.236 25.1353 101.222C27.6569 101.223 29.5207 101.062 30.7546 100.886C33.3881 100.481 34.1382 100.438 38.053 99.4574C40.7069 98.8777 40.5391 98.9836 41.7254 98.6415C42.4917 98.3252 47.2769 97.5777 48.1177 97.3087C48.8842 97.1175 49.6666 96.8945 50.4841 96.7098C51.2345 96.5246 52.4779 96.3787 52.3018 96.3895C52.513 96.3447 53.1725 96.2002 54.5115 95.9087C55.5762 95.6838 56.1332 95.5346 59.8493 94.8146C61.5053 94.5025 61.1486 94.5703 61.55 94.4884C61.8394 94.4281 62.1253 94.3647 62.4072 94.2993C62.9718 94.1686 63.5212 94.0294 64.0644 93.9012C65.1502 93.641 66.2092 93.4565 67.2263 93.3808C69.3287 93.2352 71.4062 93.0392 72.6668 92.8821C77.5805 92.2218 77.5548 92.042 80.5387 91.6974C81.2639 91.5886 83.1952 91.0612 85.4991 90.0064C86.2065 89.6876 87.0151 89.2608 88.1279 88.7855C89.0693 88.3413 91.4141 87.7091 91.0694 87.8033C91.2218 87.7616 91.4202 87.7097 91.7234 87.6493C92.0385 87.5887 92.4013 87.5207 93.2687 87.432C93.7233 87.3873 94.2721 87.3368 95.4295 87.2722C96.0219 87.2399 96.7775 87.2027 98.049 87.1603C99.005 87.1244 101.594 87.0711 101.867 87.0652C104.193 87.0162 106.416 86.9859 108.629 86.9609C117.519 86.8686 125.467 86.8419 134.012 86.8889C138.5 86.9175 142.526 87.0177 146.68 87.0525C151.083 87.0909 155.373 87.0938 159.624 87.1224C162.91 87.1447 166.604 87.1235 170.241 87.1672C171.145 87.1784 172.059 87.1945 172.947 87.2192C173.304 87.2302 172.807 87.2112 174.267 87.2633C175.348 87.3013 176.268 87.3322 177 87.3566C178.469 87.4055 179.251 87.432 179.843 87.4551C181.969 87.5391 182.166 87.5987 182.7 87.6927C183.571 87.8849 182.693 88.1219 187.864 88.2214C187.911 88.3334 187.961 88.4461 188.009 88.5589C188.788 88.6554 189.058 88.7095 189.358 88.7404C189.661 88.7759 189.966 88.8083 190.272 88.8399C190.886 88.9032 191.507 88.9627 192.17 89.0386C192.834 89.1151 193.539 89.2059 194.351 89.3479C194.753 89.4184 195.207 89.5077 195.665 89.6128C195.738 89.6202 195.759 89.6163 195.872 89.6286C196.39 89.7017 197.021 89.6254 202 89.8752C202.562 89.9066 204.037 90.0353 204.409 90.0822C204.967 90.1455 205.439 90.214 205.857 90.2812C206.688 90.4163 207.269 90.5347 207.711 90.6156C208.598 90.7832 208.915 90.7988 209.336 90.864C210.152 90.9955 209.777 91.1366 210.7 91.2951C211.543 91.4423 212.957 91.6676 216.416 92.3407C218.984 92.844 220.543 93.1887 221.514 93.3505C222.525 93.5213 222.657 93.5605 223.857 93.7132C224.936 93.8489 226.545 94.0289 227.914 94.1729C229.104 94.2988 230.763 94.4837 233.103 94.9327C234.195 95.1352 235.147 95.4097 235.94 95.5671C236.158 95.6116 237.353 95.8342 238.123 95.9693C238.917 96.1087 239.509 96.2044 239.997 96.2806C240.966 96.4314 241.557 96.5128 242.067 96.5899C242.819 96.7657 245.408 96.9183 247.431 97.2732C248.397 97.4425 250.283 98.0318 251.007 98.1824C251.911 98.3928 252.104 98.4513 252.956 98.606C253.839 98.7673 255.16 98.972 256.525 99.4078C257.437 99.7384 258.071 99.9721 258.336 100.001C259.177 100.127 260.324 99.7169 261.237 99.6041C262.508 99.4282 263.495 99.2083 264.208 98.9821C264.787 98.8073 265.664 98.4159 267.242 97.8087C268.012 97.5071 269.197 97.0881 269.712 96.8906C270.304 96.6613 270.484 96.5083 270.549 96.446C270.869 96.0072 271.469 94.9583 271.583 94.1261C271.777 92.0251 271.868 89.5475 272.106 88.0778C272.214 87.2812 272.418 86.6269 272.516 85.9752C272.619 85.3025 272.733 83.9445 273.232 82.7775C273.956 80.9326 274.34 79.516 274.611 78.0303C274.769 77.2372 274.95 76.3176 275.196 75.1969C275.342 74.5376 275.389 74.3405 275.438 74.1327C275.489 73.9186 275.543 73.6978 275.602 73.4522C275.807 72.5103 276.265 71.0162 276.291 67.2382C276.31 65.3483 276.325 63.4951 276.331 61.6641C276.337 59.8357 276.337 58.0202 276.301 56.2771C276.296 56.0617 276.291 55.851 276.284 55.6316C276.281 55.5285 276.288 55.7335 276.274 55.3241C276.261 54.9198 276.251 54.5581 276.243 54.2647C276.228 53.6713 276.221 53.3202 276.215 53.0555C276.2 52.3935 276.189 52.1643 276.181 52.0599C276.177 52.052 276.172 52.0439 276.168 52.0354C275.423 49.1147 268.099 47.5552 264.188 47.4518C263.636 47.3839 262.837 47.2834 261.174 46.9494C260.265 46.7564 259.503 46.626 257.053 45.9468C256.739 45.8588 256.16 45.689 255.831 45.5876C255.751 45.5626 255.672 45.5373 255.591 45.5115C255.429 45.4593 255.261 45.4045 255.1 45.35C254.776 45.2408 254.457 45.1276 254.141 45.0121C252.875 44.5482 251.69 44.0579 250.533 43.6666C249.828 43.4369 249.914 43.4308 248.447 43.0422C246.514 42.5412 246.115 42.4429 245.453 42.2738C244.864 42.1239 244.422 42.0119 244.048 41.9163C241.799 41.3416 242.54 41.2409 241.487 40.9992C240.533 40.783 240.366 40.9353 240.186 40.91C239.887 40.8751 239.942 40.8835 239.12 40.8397C238.67 40.8131 238.177 40.8107 236.426 40.6544C235.556 40.5737 234.041 40.4173 231.684 40.0614C231.247 40.0001 230.795 39.937 230.317 39.8685C229.363 39.7316 228.301 39.5712 227.141 39.3547C226.562 39.2466 225.965 39.1259 225.351 38.991C225.198 38.9574 225.045 38.9232 224.894 38.8887C224.598 38.8215 224.054 38.6963 223.739 38.6228C223.06 38.4645 222.569 38.3473 222.147 38.2457C219.05 37.4933 218.699 37.3742 218.191 37.2118C218.02 37.1548 218.001 37.0868 217.845 36.9966C217.388 36.8452 216.991 36.7075 216.637 36.6319C216.279 36.5562 215.426 36.5148 214.445 36.3178C212.216 35.8767 211.245 35.7547 209.413 35.733C205.98 35.6744 205.484 35.6583 204.486 35.6221C203.622 35.5883 203.069 35.5509 202.617 35.5016C201.781 35.4353 201.065 35.1089 199.42 34.8933C198.624 34.7785 197.697 34.6705 196.534 34.5434C195.355 34.3649 193.891 34.5069 193.251 33.5481C192.512 32.4421 192.495 31.8533 192.133 29.6044C191.97 28.4287 191.781 27.0567 191.324 21.975C191.099 19.5818 190.968 19.3624 190.87 19.0713C190.819 19.0942 185.996 10.3092 185.343 11.3768C184.686 11.1195 184.091 10.7767 182.432 10.3102C181.898 10.1683 181.905 10.1792 181.893 10.1759C181.877 10.1732 181.862 10.1708 181.847 10.1683C181.815 10.1628 181.788 10.1582 181.758 10.1535C181.637 10.1354 181.547 10.1132 181.071 10.0595C184.128 9.99433 160.826 9.50129 160.526 9.53046C156.882 9.47469 154.411 9.04546 153.904 9.04727ZM188.72 91.7759C189.321 91.8258 189.939 91.8702 190.578 91.9192C190.239 91.7767 189.905 91.6357 189.579 91.4946C189.271 91.4441 188.971 91.3939 188.673 91.3416C188.688 91.4863 188.704 91.6311 188.72 91.7759ZM195.953 30.8191C195.985 30.9464 196.015 31.0502 196.045 31.138C196.149 31.4493 196.262 31.5031 196.24 31.2875C196.263 31.202 196.134 31.0178 195.953 30.8191ZM192.455 14.4375C192.112 14.3302 192.737 15.4573 193.198 16.1012C193.672 16.7609 194.082 17.0721 193.842 16.4508C193.761 16.2259 192.672 14.552 192.455 14.4375Z" fill="white"/>
<path d="M244.543 80.6905C243.422 80.4498 242.48 80.1456 241.714 79.7781C240.949 79.4105 240.291 78.9096 239.74 78.2753C238.592 76.9971 238.307 75.0133 238.884 72.3239C239.398 69.9333 240.46 68.3718 242.071 67.6393C243.576 66.9623 245.36 66.8452 247.422 67.2881C248.303 67.4775 249.048 67.6844 249.657 67.9088C250.268 68.1183 250.866 68.4266 251.451 68.8335C252.051 69.2437 252.495 69.7221 252.784 70.2687C253.088 70.8185 253.278 71.5316 253.356 72.408C253.437 73.2693 253.357 74.2603 253.116 75.3809C252.628 77.652 251.618 79.2248 250.086 80.0992C248.557 80.9588 246.71 81.1558 244.543 80.6905ZM244.697 76.1516C244.686 76.712 244.722 77.0557 244.804 77.1828C244.901 77.313 245.039 77.3974 245.219 77.4359C245.413 77.4776 245.574 77.4574 245.701 77.3753C245.843 77.2964 246.016 76.9976 246.221 76.479C246.442 75.9636 246.638 75.3025 246.812 74.4956C246.988 73.6739 247.1 73.0415 247.149 72.5986C247.215 72.1439 247.244 71.7907 247.236 71.5388C247.242 71.2901 247.215 71.0889 247.154 70.9351C247.062 70.712 246.918 70.5796 246.724 70.5379C246.545 70.4993 246.382 70.527 246.237 70.6209C246.095 70.6998 245.912 71.0044 245.689 71.5348C245.469 72.0502 245.251 72.8084 245.036 73.8095C244.821 74.8106 244.708 75.5913 244.697 76.1516Z" fill="white"/>
<path d="M226.912 77.5667C225.536 77.363 224.511 76.879 223.836 76.1148C223.544 75.7935 223.316 75.3503 223.152 74.7854C223.004 74.2227 222.982 73.5861 223.087 72.8756C223.193 72.1651 223.451 71.5699 223.862 71.0901C224.288 70.6124 224.764 70.2658 225.29 70.0502C225.816 69.8346 226.418 69.6842 227.095 69.5991C228.116 69.4876 229.215 69.5191 230.395 69.6937L231.143 69.8045C231.235 69.1847 231.08 68.7138 230.68 68.3919C230.529 68.2615 230.265 68.1683 229.887 68.1123C229.524 68.0586 229.064 68.0908 228.506 68.209C227.963 68.3294 227.502 68.4697 227.123 68.6299C226.746 68.7749 226.497 68.8385 226.376 68.8206C226.104 68.7803 225.786 68.3702 225.423 67.5903C225.061 66.7953 224.924 66.103 225.012 65.5134C225.041 65.3169 225.359 65.1013 225.965 64.8667C226.571 64.632 227.4 64.4612 228.451 64.3542C229.519 64.2343 230.537 64.2459 231.504 64.3892C232.472 64.5324 233.291 64.7387 233.962 65.0079C234.65 65.2643 235.196 65.5383 235.601 65.83C236.021 66.1239 236.354 66.4822 236.601 66.9049C236.862 67.3298 237.046 67.7047 237.153 68.0294C237.274 68.3564 237.344 68.7684 237.364 69.2656C237.371 69.8384 237.315 70.5329 237.194 71.3493L236.184 78.1747C236.159 78.341 235.731 78.4167 234.899 78.4016C234.084 78.3737 233.276 78.3004 232.475 78.1818C231.689 78.0654 231.178 77.9666 230.943 77.8854C230.723 77.8065 230.595 77.7335 230.558 77.6663C230.522 77.5991 230.5 77.4877 230.492 77.332L230.502 76.0126L230.32 75.9858C229.741 77.2904 228.605 77.8173 226.912 77.5667ZM230.508 74.2523L230.9 71.5993C230.507 71.5411 230.165 71.6603 229.874 71.9571C229.583 72.2539 229.406 72.6139 229.343 73.0372C229.196 74.0349 229.349 74.5674 229.802 74.6345C229.999 74.6636 230.157 74.6407 230.276 74.5656C230.412 74.4777 230.49 74.3733 230.508 74.2523ZM237.396 62.9441C237.362 63.1709 236.917 63.468 236.059 63.8353C235.216 64.2049 234.5 64.3461 233.911 64.2588C233.336 64.1737 232.66 63.9423 231.881 63.5644C231.121 63.1737 230.619 62.9604 230.377 62.9246C230.15 62.891 229.684 62.961 228.979 63.1347C228.276 63.2932 227.788 63.3523 227.516 63.312C227.244 63.2717 226.996 62.9646 226.772 62.3908C226.565 61.804 226.483 61.367 226.526 61.0798C226.564 60.8228 227.025 60.5204 227.911 60.1726C228.814 59.812 229.538 59.672 230.082 59.7525C230.626 59.8331 231.273 60.0601 232.021 60.4335C232.784 60.8091 233.339 61.0227 233.687 61.0741C233.793 61.0898 234.182 61.0161 234.855 60.8532C235.543 60.6924 236.031 60.6333 236.318 60.6758C236.62 60.7206 236.881 61.045 237.101 61.6491C237.336 62.2555 237.434 62.6872 237.396 62.9441Z" fill="white"/>
<path d="M214.146 76.0067C213.006 75.8863 212.036 75.684 211.236 75.3997C210.436 75.1155 209.729 74.6872 209.113 74.1151C207.836 72.966 207.342 71.0236 207.631 68.2881C207.888 65.8564 208.778 64.191 210.302 63.2916C211.727 62.4587 213.488 62.153 215.586 62.3745C216.482 62.4692 217.245 62.5959 217.874 62.7545C218.504 62.8979 219.131 63.1409 219.756 63.4835C220.396 63.8277 220.888 64.2562 221.234 64.7691C221.594 65.2836 221.859 65.9724 222.03 66.8355C222.201 67.6835 222.227 68.6774 222.106 69.8172C221.862 72.1272 221.025 73.7983 219.594 74.8305C218.165 75.8474 216.349 76.2395 214.146 76.0067ZM213.817 71.4771C213.866 72.0355 213.938 72.3735 214.033 72.4911C214.143 72.6103 214.29 72.6796 214.472 72.6988C214.669 72.7197 214.827 72.6826 214.945 72.5874C215.078 72.4939 215.218 72.1784 215.367 71.6409C215.532 71.105 215.657 70.4267 215.744 69.6061C215.832 68.7702 215.877 68.1295 215.878 67.684C215.895 67.2248 215.887 66.8705 215.852 66.6209C215.832 66.3729 215.783 66.1757 215.707 66.0293C215.591 65.8173 215.434 65.7008 215.236 65.68C215.054 65.6607 214.896 65.7054 214.761 65.8142C214.628 65.9077 214.479 66.23 214.313 66.7811C214.149 67.317 214.013 68.094 213.906 69.1123C213.798 70.1305 213.769 70.9188 213.817 71.4771Z" fill="white"/>
<path d="M204.565 76.5364C204.235 77.0314 203.773 77.3551 203.178 77.5073C202.597 77.676 201.941 77.7314 201.21 77.6736C200.494 77.6169 199.97 77.5601 199.637 77.5031C199.303 77.4614 198.95 77.3721 198.578 77.2353C198.219 77.115 197.94 76.9626 197.74 76.7782C197.285 76.3283 197.092 75.6691 197.16 74.8008C197.259 73.5515 197.629 72.9522 198.269 73.0028C198.467 73.0185 198.621 73.0001 198.733 72.9476C199.033 72.8334 199.215 72.3726 199.279 71.5651L200.221 59.6594C200.248 59.3242 200.708 59.031 201.601 58.7798C202.511 58.5146 203.462 58.4211 204.452 58.4995C205.96 58.6188 206.686 59.0365 206.629 59.7525L205.629 72.3895C205.546 73.4407 205.434 74.275 205.293 74.8923C205.153 75.5097 204.91 76.0577 204.565 76.5364Z" fill="white"/>
<path d="M184.008 73.7171C182.863 73.6605 181.883 73.5125 181.069 73.2733C180.254 73.0341 179.524 72.6461 178.877 72.1091C177.538 71.033 176.937 69.1213 177.073 66.3738C177.193 63.9317 177.99 62.2192 179.461 61.2362C180.837 60.3251 182.579 59.9216 184.685 60.0258C185.586 60.0704 186.354 60.1543 186.991 60.2776C187.628 60.3856 188.268 60.5933 188.911 60.9005C189.569 61.2085 190.084 61.6088 190.458 62.1016C190.847 62.5952 191.15 63.2681 191.368 64.1205C191.587 64.9575 191.668 65.9484 191.611 67.0932C191.496 69.4132 190.753 71.1284 189.383 72.2388C188.012 73.3338 186.221 73.8266 184.008 73.7171ZM183.427 69.2129C183.507 69.7677 183.597 70.1011 183.699 70.2133C183.816 70.3261 183.966 70.3871 184.149 70.3962C184.347 70.406 184.503 70.3601 184.615 70.2586C184.742 70.1578 184.865 69.8349 184.984 69.2899C185.118 68.7457 185.206 68.0615 185.246 67.2373C185.288 66.3978 185.297 65.7556 185.273 65.3107C185.265 64.8513 185.236 64.498 185.188 64.2507C185.154 64.0043 185.095 63.8101 185.01 63.6682C184.882 63.4629 184.719 63.3554 184.521 63.3456C184.338 63.3365 184.182 63.39 184.054 63.5061C183.926 63.6069 183.795 63.937 183.661 64.4965C183.527 65.0407 183.434 65.8241 183.384 66.8468C183.333 67.8694 183.348 68.6581 183.427 69.2129Z" fill="white"/>
<path d="M166.096 73.0457C164.706 73.0067 163.631 72.6478 162.87 71.9691C162.542 71.6847 162.263 71.2717 162.033 70.7302C161.819 70.1891 161.722 69.5596 161.742 68.8416C161.762 68.1236 161.948 67.502 162.299 66.9768C162.666 66.452 163.097 66.0513 163.594 65.7748C164.091 65.4982 164.671 65.2775 165.333 65.1127C166.333 64.8808 167.429 64.7816 168.62 64.8151L169.376 64.8363C169.394 64.21 169.185 63.7607 168.749 63.4886C168.584 63.377 168.311 63.3158 167.929 63.3051C167.562 63.2948 167.109 63.3814 166.569 63.565C166.044 63.749 165.602 63.943 165.245 64.1471C164.888 64.3358 164.649 64.4284 164.526 64.425C164.251 64.4173 163.887 64.0478 163.434 63.3165C162.981 62.57 162.763 61.8988 162.779 61.3031C162.785 61.1045 163.075 60.8527 163.649 60.5478C164.223 60.2428 165.026 59.9749 166.057 59.7439C167.103 59.4981 168.115 59.3889 169.093 59.4163C170.071 59.4438 170.908 59.5513 171.606 59.7391C172.32 59.912 172.895 60.1192 173.332 60.3608C173.784 60.6028 174.157 60.9191 174.452 61.3095C174.762 61.7004 174.989 62.0508 175.133 62.3606C175.293 62.6708 175.411 63.0717 175.489 63.5631C175.565 64.1308 175.591 64.8272 175.568 65.6521L175.375 72.5493C175.37 72.7173 174.954 72.8432 174.126 72.927C173.314 72.9959 172.503 73.0191 171.693 72.9963C170.899 72.974 170.38 72.9366 170.137 72.8839C169.909 72.8316 169.773 72.7743 169.729 72.7119C169.685 72.6495 169.65 72.5415 169.623 72.3879L169.477 71.0766L169.293 71.0715C168.873 72.4356 167.807 73.0937 166.096 73.0457ZM169.273 69.3281L169.349 66.6471C168.951 66.636 168.626 66.795 168.372 67.1242C168.118 67.4535 167.985 67.8319 167.973 68.2597C167.945 69.2679 168.16 69.7784 168.618 69.7913C168.817 69.7969 168.971 69.7553 169.08 69.6667C169.206 69.5632 169.27 69.4503 169.273 69.3281ZM174.771 57.2824C174.765 57.5116 174.357 57.8594 173.549 58.326C172.757 58.7929 172.062 59.0181 171.467 59.0013C170.886 58.9851 170.187 58.8355 169.369 58.5527C168.567 58.255 168.044 58.1027 167.8 58.0958C167.571 58.0894 167.116 58.2142 166.436 58.4704C165.757 58.7112 165.28 58.8278 165.005 58.82C164.73 58.8123 164.447 58.5368 164.156 57.9936C163.882 57.4355 163.748 57.0114 163.756 56.7211C163.764 56.4614 164.187 56.1064 165.025 55.656C165.879 55.1907 166.581 54.9658 167.13 54.9812C167.68 54.9966 168.349 55.1453 169.136 55.4273C169.938 55.7097 170.515 55.8559 170.867 55.8657C170.973 55.8687 171.351 55.7494 172 55.5077C172.664 55.2664 173.142 55.1499 173.432 55.158C173.737 55.1666 174.035 55.4578 174.325 56.0316C174.63 56.6058 174.778 57.0227 174.771 57.2824Z" fill="white"/>
<path d="M158.657 71.7104C158.196 72.0418 157.551 72.3179 156.723 72.5385C155.911 72.744 154.856 72.84 153.557 72.8265C152.273 72.8131 151.052 72.6935 149.892 72.4674C148.733 72.2414 147.903 71.9959 147.401 71.7309C146.9 71.4658 146.65 71.2111 146.653 70.9666C146.662 70.1108 146.793 69.2258 147.047 68.3114C147.301 67.3818 147.597 66.9188 147.933 66.9223C147.994 66.9229 148.626 67.1358 149.829 67.561C151.032 67.9861 151.939 68.2019 152.55 68.2082C153.161 68.2146 153.559 68.1576 153.744 68.0372C153.929 67.9016 154.023 67.7116 154.025 67.4671C154.028 67.2226 153.862 67.0069 153.527 66.82C153.193 66.6178 152.775 66.4454 152.272 66.3026C151.769 66.1445 151.221 65.9249 150.628 65.6436C150.05 65.3625 149.511 65.0512 149.01 64.7098C148.51 64.3684 148.094 63.8903 147.764 63.2755C147.435 62.6455 147.274 61.9332 147.282 61.1386C147.318 57.7461 149.36 56.0709 153.41 56.1131C154.922 56.1288 156.228 56.2417 157.326 56.4518C158.425 56.6467 159.194 56.8686 159.635 57.1177C160.091 57.3517 160.317 57.5833 160.315 57.8126C160.307 58.6072 160.107 59.4609 159.715 60.3738C159.339 61.2869 158.975 61.7416 158.624 61.738C158.563 61.7373 158.365 61.6665 158.03 61.5255C157.026 61.0718 156.188 60.8415 155.515 60.8345C154.858 60.8277 154.407 60.8841 154.161 61.0038C153.931 61.1237 153.814 61.3135 153.811 61.5733C153.809 61.8178 153.975 62.0258 154.309 62.1974C154.644 62.3537 155.055 62.5032 155.542 62.6458C156.045 62.7733 156.586 62.9776 157.164 63.2587C157.757 63.5247 158.304 63.8437 158.804 64.2157C159.305 64.5724 159.72 65.081 160.049 65.7416C160.379 66.4022 160.539 67.168 160.53 68.0391C160.52 68.9559 160.275 69.7863 159.793 70.5302C159.498 70.9856 159.119 71.379 158.657 71.7104Z" fill="white"/>
<path d="M130.853 72.8526C129.462 72.8671 128.366 72.5499 127.565 71.9011C127.241 71.6294 126.954 71.2274 126.704 70.6951C126.469 70.1626 126.348 69.5373 126.341 68.8191C126.333 68.1009 126.495 67.4726 126.825 66.9342C127.171 66.3957 127.587 65.9788 128.073 65.6833C128.559 65.3879 129.13 65.145 129.785 64.9548C130.775 64.6847 131.867 64.5434 133.059 64.531L133.815 64.5231C133.809 63.8966 133.59 63.4557 133.159 63.2003C132.975 63.0953 132.692 63.0447 132.31 63.0487C131.943 63.0525 131.493 63.1566 130.96 63.3608C130.443 63.5649 130.009 63.7757 129.66 63.9933C129.311 64.1956 129.075 64.2974 128.953 64.2987C128.678 64.3016 128.3 63.9463 127.818 63.2331C127.337 62.5045 127.093 61.8422 127.087 61.2462C127.085 61.0476 127.365 60.7849 127.927 60.4581C128.489 60.1313 129.281 59.8327 130.302 59.5622C131.338 59.2763 132.345 59.1283 133.323 59.1181C134.301 59.1079 135.143 59.1832 135.847 59.344C136.567 59.4893 137.15 59.6743 137.595 59.8989C138.056 60.1233 138.441 60.425 138.751 60.8038C139.076 61.1825 139.316 61.5239 139.472 61.8279C139.644 62.1318 139.77 62.5278 139.851 63.016C139.964 63.5803 140.025 64.2751 140.034 65.1002L140.105 71.9997C140.107 72.1678 139.696 72.3097 138.872 72.4252C138.063 72.5254 137.254 72.5796 136.444 72.5881C135.649 72.5963 135.129 72.5788 134.884 72.5355C134.655 72.4921 134.516 72.44 134.47 72.3794C134.423 72.3187 134.384 72.2122 134.352 72.0597L134.155 70.755L133.972 70.7569C133.604 72.1362 132.564 72.8348 130.853 72.8526ZM133.885 69.0156L133.857 66.3337C133.46 66.3379 133.14 66.5093 132.899 66.848C132.658 67.1868 132.54 67.5701 132.545 67.998C132.555 69.0065 132.79 69.5084 133.248 69.5036C133.447 69.5016 133.599 69.4541 133.705 69.3613C133.826 69.2531 133.886 69.1378 133.885 69.0156Z" fill="white"/>
<path d="M124.525 55.8957L124.882 72.1672C124.886 72.3353 124.454 72.4823 123.585 72.6084C122.716 72.7191 121.816 72.7847 120.884 72.8052C119.967 72.8253 119.37 72.8001 119.094 72.7298C118.832 72.6438 118.699 72.5015 118.695 72.3029L118.347 56.4439C118.339 56.1078 118.76 55.7699 119.609 55.4303C120.472 55.0903 121.401 54.9095 122.394 54.8877C123.8 54.8569 124.51 55.1928 124.525 55.8957Z" fill="white"/>
<path d="M116.634 61.0531L116.98 72.3489C116.985 72.517 116.547 72.668 115.664 72.8021C114.796 72.9204 113.896 72.9939 112.964 73.0224C112.048 73.0505 111.451 73.0306 111.174 72.9626C110.911 72.8789 110.777 72.7378 110.771 72.5392L110.437 61.6558C110.427 61.3198 110.845 60.9783 111.69 60.6313C112.551 60.2685 113.493 60.0715 114.516 60.0401C115.906 59.9975 116.612 60.3352 116.634 61.0531ZM113.333 55.1227C114.341 55.0918 115.133 55.2204 115.707 55.5086C116.297 55.781 116.603 56.3067 116.627 57.0858C116.669 58.4605 115.621 59.1807 113.483 59.2462C111.344 59.3117 110.254 58.6571 110.212 57.2824C110.17 55.9076 111.21 55.1877 113.333 55.1227Z" fill="white"/>
<path d="M92.7981 59.2577C92.7895 59.0745 92.9779 58.8514 93.3633 58.5885C93.748 58.3103 94.2943 58.0551 95.0025 57.8228C95.7258 57.5899 96.515 57.4533 97.3698 57.413C98.2247 57.3727 98.8563 57.4654 99.2647 57.6909C99.6731 57.9165 99.8994 58.1736 99.9436 58.4622L101.138 66.7592L101.458 66.7441L101.785 58.582C101.811 58.1524 102.314 57.7921 103.295 57.5011C104.275 57.2101 105.193 57.0445 106.048 57.0043C106.903 56.964 107.54 57.0105 107.959 57.1437C108.378 57.2617 108.644 57.3945 108.758 57.5421C108.888 57.689 108.956 57.8311 108.962 57.9685C108.968 58.0907 108.87 58.4548 108.669 59.0609C108.483 59.651 108.283 60.2877 108.071 60.9709C107.362 63.1461 106.177 67.042 104.513 72.6586C104.368 73.1397 103.066 73.4382 100.609 73.5539C99.8452 73.5899 99.339 73.5602 99.0897 73.4648C98.8404 73.3695 98.6639 73.1942 98.5601 72.939C97.5372 70.3864 96.3222 67.4909 94.9152 64.2526C93.5081 61.0142 92.8024 59.3493 92.7981 59.2577Z" fill="white"/>
<path d="M80.3327 75.0593C79.1903 75.1518 78.1998 75.1325 77.3612 75.0011C76.5226 74.8697 75.7478 74.5799 75.0369 74.1316C73.5693 73.2386 72.7244 71.4212 72.5021 68.6794C72.3046 66.2422 72.8716 64.4408 74.203 63.2749C75.4492 62.1927 77.1233 61.5664 79.2253 61.396C80.124 61.3232 80.897 61.3065 81.5441 61.3461C82.19 61.3704 82.8516 61.4931 83.5288 61.7142C84.2212 61.934 84.7846 62.264 85.2189 62.7041C85.6685 63.143 86.0566 63.7708 86.3835 64.5876C86.7091 65.3891 86.9182 66.3611 87.0108 67.5035C87.1984 69.8188 86.6848 71.616 85.4699 72.895C84.2537 74.1588 82.5413 74.8803 80.3327 75.0593ZM79.1719 70.6687C79.323 71.2084 79.4561 71.5272 79.5714 71.6252C79.7019 71.722 79.8585 71.7629 80.0413 71.7481C80.2393 71.7321 80.3873 71.6664 80.4853 71.5511C80.5985 71.4346 80.6786 71.0985 80.7256 70.5427C80.7878 69.9857 80.7855 69.296 80.7188 68.4734C80.651 67.6357 80.5763 66.9978 80.4948 66.5597C80.4273 66.1052 80.3532 65.7586 80.2725 65.5198C80.207 65.2798 80.1231 65.095 80.0206 64.9653C79.8674 64.7784 79.6918 64.693 79.4938 64.709C79.311 64.7238 79.1637 64.7971 79.0517 64.9288C78.9385 65.0453 78.8514 65.3897 78.7904 65.9619C78.7283 66.5189 78.7385 67.3077 78.8212 68.3283C78.9039 69.3488 79.0208 70.1289 79.1719 70.6687Z" fill="white"/>
<path d="M70.3349 63.798L71.5182 75.037C71.5358 75.2042 71.1094 75.3874 70.2392 75.5866C69.3825 75.769 68.4906 75.909 67.5635 76.0066C66.6516 76.1026 66.0549 76.127 65.7733 76.0798C65.5053 76.0158 65.361 75.885 65.3402 75.6875L64.2001 64.8588C64.1649 64.5245 64.5561 64.1529 65.3735 63.7441C66.2046 63.3186 67.1293 63.0522 68.1476 62.945C69.5306 62.7994 70.2597 63.0837 70.3349 63.798ZM66.6033 58.1288C67.6064 58.0232 68.4051 58.0928 68.9994 58.3375C69.6073 58.5655 69.9521 59.067 70.0337 59.8421C70.1777 61.21 69.1859 62.0059 67.0581 62.2299C64.9304 62.4539 63.7945 61.882 63.6505 60.5142C63.5065 59.1463 64.4908 58.3512 66.6033 58.1288Z" fill="white"/>
<path d="M63.2455 76.2866C63.0067 76.5801 62.4024 76.7907 61.4328 76.9184C60.4631 77.0462 59.6521 77.0914 58.9998 77.054C58.3455 77.0015 57.7055 76.8237 57.0798 76.5208C55.876 75.9241 55.1194 74.4515 54.81 72.1031L54.3429 68.5577L53.2066 68.7074C53.0399 68.7294 52.873 68.5741 52.7059 68.2416C52.5388 67.9091 52.4153 67.4398 52.3355 66.8338C52.2556 66.2277 52.2767 65.6855 52.3986 65.207C52.5337 64.7113 52.7528 64.4435 53.0558 64.4036L53.783 64.3078L53.4208 61.5579C53.3589 61.0882 53.7635 60.6495 54.6347 60.2419C55.521 59.8323 56.4035 59.5696 57.2823 59.4538C58.661 59.2722 59.3953 59.5222 59.4851 60.2041L59.9193 63.4994L61.6011 63.2779C61.995 63.226 62.2668 63.7682 62.4165 64.9045C62.5143 65.6469 62.5042 66.2725 62.3863 66.7813C62.2815 67.273 62.0928 67.5368 61.82 67.5727L60.4792 67.7493L61.0271 71.9083C61.081 72.3174 61.2941 72.5899 61.6665 72.7258C62.037 72.8466 62.351 72.89 62.6086 72.8561C62.8813 72.8201 63.0649 72.927 63.1594 73.1766C63.254 73.4261 63.3352 73.8085 63.403 74.3236C63.5368 75.3388 63.4843 75.9931 63.2455 76.2866Z" fill="white"/>
<path d="M50.7813 65.8209L52.6692 77.3583C52.6964 77.5242 52.2812 77.7315 51.4238 77.9802C50.5789 78.2113 49.6965 78.4022 48.7766 78.5527C47.8717 78.7008 47.2773 78.7593 46.9935 78.7284C46.7223 78.6798 46.5707 78.5575 46.5386 78.3615L44.7173 67.2313C44.663 66.8995 45.0398 66.5049 45.8476 66.0475C46.6554 65.5902 47.557 65.28 48.5524 65.1171C49.9248 64.8926 50.6678 65.1272 50.7813 65.8209ZM49.0789 60.3854C49.4258 60.3286 49.8195 60.5584 50.2602 61.0747C50.7159 61.5886 51.0129 62.2678 51.1511 63.1124C51.1881 63.3386 50.5654 63.6496 49.2829 64.0453C48.013 64.4234 46.9483 64.6828 46.0886 64.8235C45.8021 64.8704 45.5085 64.7326 45.208 64.4101C44.9225 64.0852 44.7416 63.6889 44.6651 63.2214C44.5861 62.7388 45.0688 62.1875 46.1133 61.5675C47.1704 60.93 48.1589 60.5359 49.0789 60.3854Z" fill="white"/>
<path d="M43.2757 78.6257C42.9026 79.0547 42.3389 79.472 41.5845 79.8775C40.8417 80.2648 39.8368 80.6016 38.5697 80.888C37.3176 81.1711 36.1016 81.3363 34.9215 81.3837C33.7415 81.4311 32.8769 81.3837 32.3277 81.2415C31.7785 81.0993 31.477 80.909 31.4231 80.6705C31.2344 79.8357 31.1582 78.9442 31.1945 77.996C31.2275 77.0328 31.4079 76.5141 31.7358 76.44C31.7955 76.4265 32.4595 76.4879 33.7281 76.6242C34.9967 76.7604 35.9291 76.7612 36.5253 76.6264C37.1215 76.4916 37.4956 76.3444 37.6475 76.1847C37.7961 76.0101 37.8434 75.8036 37.7895 75.5651C37.7356 75.3266 37.5244 75.1549 37.156 75.0502C36.7843 74.9306 36.3373 74.8593 35.8151 74.8363C35.2895 74.7984 34.7057 74.7111 34.0637 74.5742C33.4367 74.4339 32.8401 74.2554 32.2741 74.0387C31.708 73.8219 31.1937 73.4525 30.731 72.9304C30.2649 72.3934 29.9442 71.7373 29.769 70.9622C29.0209 67.6531 30.622 65.552 34.572 64.6591C36.0477 64.3255 37.3441 64.1343 38.4611 64.0855C39.5748 64.0217 40.3747 64.0602 40.8609 64.201C41.3586 64.3235 41.6328 64.4966 41.6833 64.7202C41.8585 65.4953 41.8609 66.3721 41.6904 67.3507C41.5349 68.326 41.2857 68.8523 40.9428 68.9298C40.8832 68.9433 40.6743 68.92 40.316 68.86C39.2345 68.6501 38.3658 68.6193 37.7099 68.7676C37.069 68.9125 36.6427 69.0715 36.4312 69.2447C36.2346 69.4145 36.1649 69.6261 36.2222 69.8795C36.2761 70.1179 36.4855 70.2821 36.8505 70.3719C37.2122 70.4469 37.6466 70.4975 38.154 70.5238C38.6728 70.5319 39.2458 70.606 39.8729 70.7463C40.5115 70.8683 41.1172 71.0526 41.6899 71.2991C42.2593 71.5307 42.7805 71.93 43.2533 72.4968C43.7261 73.0636 44.0585 73.7719 44.2506 74.6215C44.4528 75.5159 44.4054 76.3805 44.1084 77.2153C43.9263 77.7265 43.6487 78.1966 43.2757 78.6257Z" fill="white"/>
<rect x="120" y="0.957031" width="44" height="44" rx="22" fill="white"/>
<path d="M151.124 16.4629C151.41 16.4913 151.679 16.6181 151.884 16.8232L151.967 16.915C152.149 17.1374 152.25 17.417 152.25 17.707C152.25 17.9972 152.15 18.2775 151.967 18.5L151.884 18.5918L139.884 30.5918C139.797 30.679 139.698 30.7526 139.589 30.8105L139.479 30.8623C139.327 30.9252 139.164 30.958 139 30.958C138.877 30.958 138.754 30.9399 138.637 30.9043L138.521 30.8623C138.407 30.8151 138.301 30.7517 138.207 30.6738L138.116 30.5918L132.866 25.3418C132.631 25.1073 132.5 24.7887 132.5 24.457L132.505 24.334C132.534 24.0477 132.661 23.7785 132.866 23.5732L132.958 23.4902C133.18 23.308 133.459 23.2071 133.75 23.207C134.081 23.207 134.4 23.3387 134.634 23.5732L139 27.9395L150.116 16.8232L150.208 16.7402C150.43 16.558 150.709 16.4571 151 16.457L151.124 16.4629Z" fill="#13546A" stroke="#13546A"/>
</svg>
