<svg width="804" height="306" viewBox="0 0 804 306" fill="none" xmlns="http://www.w3.org/2000/svg">
<path d="M419.906 0.000201766C427.568 -0.0203096 428.224 1.52953 434.334 1.68965C447.323 2.02842 460.62 1.43498 473.154 1.0295C477.006 0.90754 480.752 0.803756 484.408 0.751178C491.4 0.652287 498.795 0.884294 505.897 1.40645C494.558 4.90272 519.187 9.08924 510.221 2.44942C513.851 3.09307 516.875 2.96195 521.37 3.79903C525.504 4.48618 530.205 5.86152 533.635 7.60567C534.111 7.83916 534.487 8.03163 534.715 8.16133C539.988 10.5062 541.528 13.3905 543.137 15.6399C544.647 17.9722 545.807 20.2411 547.328 22.6887C547.722 23.322 548.115 23.9299 548.509 24.509C551.507 28.9492 554.203 33.44 556.137 36.302C559.486 42.0253 559.144 45.3698 559.225 47.7658C559.137 50.1818 558.584 51.8866 557.488 52.9533C557.612 53.8043 557.724 54.6429 557.828 55.4758C558.64 61.9231 559.032 67.9078 559.848 72.6682C560.068 73.9528 560.323 75.1496 560.62 76.2219C564.593 77.2993 569.404 78.856 572.232 79.5324C573.147 79.7609 575.262 80.1165 578.614 81.1574C578.123 81.139 580.267 81.4848 581.745 81.6096C583.384 81.77 585.223 81.9059 587.111 82.0314C590.895 82.2809 594.912 82.4929 598.498 82.6818C604.172 82.9398 608.764 83.9693 610.38 84.2902C614.435 85.1095 620.262 86.5972 624.504 87.3107C625.901 87.5681 626.922 87.7744 627.804 87.9162C632.976 88.7675 637.301 85.7407 645.02 92.4221C645.057 92.4295 645.096 92.4371 645.133 92.4445C653.492 94.0513 657.31 94.5656 664.115 96.0022C665.417 96.2758 666.795 96.5652 668.333 96.8762C670.055 97.2212 670.147 97.9381 671.171 98.0754C673.254 98.3511 676.857 98.2671 680.573 98.5119C683.76 98.7454 686.311 99.1742 688.773 99.8107C690.079 100.166 690.854 100.115 690.748 98.9797C694.942 99.5585 699.129 100.179 703.311 100.835C704.64 101.616 705.97 102.401 707.289 103.189C709.582 103.287 711.882 103.397 714.184 103.518C713.206 104.229 713.815 104.917 715.079 105.467C718.426 106.807 725.805 108.067 722.591 105.5C727.678 107.733 731.921 110.057 736.197 111.818C738.875 112.924 741.591 113.956 744.336 114.906C742.447 117.921 757.213 118.914 758.733 116.819C759.128 116.568 759.273 116.307 759.075 116.044C760.072 116.107 761.064 116.182 762.052 116.27C767.636 117.473 772.366 117.716 779.242 119.903C782.308 121.001 785.584 122.328 789.026 124.293C790.719 125.262 792.039 126.123 793.052 126.826C799.361 131.638 798.215 132.642 798.888 135.782C799.736 137.031 800.418 138.255 801 139.176C802.528 142.3 802.058 143.317 802.271 144.503C804.092 149.062 804.145 151.424 803.729 153.881C802.977 158.308 800.613 162.282 802.828 175.612C801.391 178.83 800.97 184.353 800.993 190.402C801.07 197 800.911 204.633 799.904 210.476C799.71 211.755 800.245 211.933 800.055 213.536C800.044 213.629 800.032 213.724 800.02 213.821C799.512 217.381 797.622 224.948 798.194 227.142C798.283 227.546 798.447 227.775 798.712 227.771C797.32 231.754 795.615 235.259 793.812 238.669C793.65 239.323 793.483 239.974 793.311 240.623C792.953 242.283 793.003 243.752 792.959 246.277C793.531 246.334 794.103 246.392 794.674 246.449C794.179 247.543 793.711 249.008 793.119 250.597C791.157 254.744 791.285 261.99 790.649 265.717C790.497 266.63 789.708 266.781 789.303 269.616C789.3 269.638 789.297 269.661 789.294 269.683C789.022 273.292 786.981 279.308 784.619 282.763C783.963 283.833 783.157 284.749 782.371 285.44C781.132 287.836 779.366 289.706 777.951 291.275C776.909 291.791 776.058 292.129 775.331 292.392C770.518 294.126 767.78 293.418 764.306 294.745C764.168 294.798 763.595 295.048 762.736 295.419C758.236 297.634 748.365 298.9 747.76 298.927C745.241 299.309 744.023 299.761 742.333 300.239C739.924 300.92 735.131 300.62 730.506 299.202C729.113 298.852 727.153 298.475 724.371 297.986C722.81 297.704 721.323 297.29 719.682 296.767C718.267 296.293 716.95 295.816 715.53 295.455C713.65 294.98 710.363 294.323 706.894 293.617C703.024 293.085 695.96 293.556 695.027 294.252C693.91 293.784 692.41 293.342 690.503 292.755C685.997 291.214 678.192 289.885 672.986 288.683C670.457 288.119 668.577 287.508 667.531 287.099C666.351 286.641 666.237 285.579 663.501 284.612C663.161 284.5 662.787 284.389 662.373 284.282C659.03 283.354 650.093 282.962 645.696 282.431C641.023 281.811 639.379 280.752 637.186 280.497C635.833 280.34 634.571 280.554 632.772 280.543C631.8 280.536 630.779 280.463 629.693 280.251C623.684 279.014 618.987 277.116 614.457 275.766C611.794 274.963 609.263 274.225 606.836 273.685C602.559 272.74 598.262 272.25 594.874 272.483C588.681 272.414 584.754 272.253 580.604 272.458C580.52 272.46 580.437 272.463 580.354 272.465C578.442 272.118 576.56 271.471 574.494 271.338C571.595 271.149 568.633 271.034 565.536 270.934C563.978 270.882 562.4 270.835 560.701 270.753C558.902 270.622 557.501 270.709 554.294 269.978C548.589 268.45 542.242 267.506 535.346 266.097C533.256 265.649 530.991 265.411 528.487 265.278C525.904 265.093 523.462 265.262 519.294 264.572C516.005 263.891 510.977 263.8 506.424 263.528C501.813 263.289 497.222 263.047 492.72 262.795C492.18 262.764 491.625 262.735 491.057 262.705C478.777 262.013 447.585 258.828 455.88 264.046C451.617 264.898 420.967 262.829 414.138 262.629C414.017 262.626 413.903 262.623 413.798 262.621C407.753 262.524 402.963 263.384 398.214 263.315C388.239 263.155 380.455 262.739 370.687 262.771C366.488 262.783 361.895 262.876 356.635 263.11C352.163 263.312 347.349 264.41 344.697 264.397C341.498 264.378 338.053 263.314 333.91 263.253C324.033 263.11 305.64 263.547 296.187 263.483C294.467 263.467 293.838 262.539 291.375 262.28C289.262 262.057 287.048 261.901 284.99 261.826C277.614 261.558 271.536 262.382 273.087 264.651C267.312 264.063 260.918 264.235 257.469 265.332C252.954 266.618 249.716 268.822 244.03 271.613C243.664 271.788 243.304 271.956 242.949 272.119C239.76 273.567 236.124 275.115 231.703 276.419C227.549 277.813 220.881 278.333 218.585 278.652C208.827 280.515 196.791 281.946 186.323 282.651C183.755 282.839 181.502 283.3 178.63 284.037C175.782 284.772 172.519 285.622 169.446 286.249C163.362 287.522 157.941 288.853 153.555 290.084C151.571 290.64 149.909 291.145 148.404 291.611C146.726 292.09 146.1 292.463 143.273 292.986C140.163 293.72 138.283 295.228 127.2 296.963C125.524 297.144 123.685 297.342 121.664 297.604C118.014 298.014 115.734 298.685 109.218 299.721C108.759 299.769 108.296 299.822 107.822 299.88C102.494 300.482 97.3161 301.451 90.6653 302.236C85.1949 302.714 79.4582 303.926 74.1585 305.874C68.6544 306.041 63.862 305.985 59.3607 305.852C55.5661 305.752 51.6171 305.237 47.8548 303.943C44.1009 302.697 40.7615 300.5 39.2679 299.292C38.4091 298.678 37.4286 298.002 36.429 297.255C35.0165 297.309 33.5243 297.306 31.97 297.214C30.9522 296.716 29.9208 296.174 28.8968 295.585C26.5553 294.26 24.7438 292.069 23.8109 290.279C23.6327 288.697 23.8351 287.432 24.1448 286.37C23.0077 281.408 23.2533 278.468 22.6702 276.025C22.0644 273.06 20.9441 270.443 19.4359 268.211C17.614 265.578 14.6627 260.53 13.6019 255.972C13.0735 254.057 12.5961 252.212 12.22 250.501C11.3592 246.594 10.2027 241.195 8.86749 235.087C8.06148 231.399 7.00232 227.035 6.12237 222.488C5.21153 217.982 4.70434 212.872 4.79718 208.173C4.8825 203.441 5.21086 199.786 5.07843 196.399C4.74662 186.645 4.28242 178.128 3.9544 172.668C3.69518 168.246 3.2195 165.833 3.15851 163.872C3.13491 162.616 3.33243 161.467 4.15362 159.026C3.65285 157.237 3.09989 155.341 2.58722 153.346C1.82154 152.17 1.06785 150.939 0.346982 149.635C0.187899 148.311 0.0699746 146.923 0.0159277 145.481C-0.11941 139.834 0.552266 133.763 4.18487 127.523C6.38593 123.704 10.2571 120.351 13.4603 118.579C16.6906 116.73 19.2561 115.675 21.4251 114.518C22.5821 113.913 23.7038 113.286 24.8255 112.595C29.5203 109.694 34.8727 107.857 38.6829 106.074C45.142 103.217 50.9661 101.843 57.3792 100.705C58.9182 100.407 63.1856 99.3065 66.6419 99.1506C74.6997 98.572 82.6885 98.1136 89.4798 98.1984C91.284 98.2186 93.2563 98.3625 95.2728 98.5383C98.1666 98.8743 101.183 98.8851 104.146 98.3479C107.814 97.6872 110.356 96.7552 113.373 96.0783C115.829 95.5082 118.423 95.0606 122.426 94.9768C125.982 94.9003 130.183 94.9311 134.637 94.8225C142.734 94.6173 152.683 93.9414 161.786 93.8625C168.738 93.7851 174.998 93.8899 179.735 93.76C183.991 93.6509 185.961 92.9215 188.867 92.8098C189.642 92.7794 190.402 92.7502 191.147 92.7199C198.39 92.4548 203.182 91.8646 209.698 89.9338C213.34 88.9295 217.112 87.9266 221.041 86.8918C224.18 86.804 226.515 86.9387 228.315 87.1809C228.365 87.1745 228.514 87.1554 228.565 87.1506C233.529 88.1284 233.999 89.7716 237.208 90.9563C238.717 91.4992 241.783 92.1197 244.687 92.8537C246.704 91.8585 246.041 91.4789 246.492 91.0305C246.728 90.598 246.929 90.2041 247.12 89.8205C247.501 89.0571 247.838 88.3558 248.156 87.7414C248.785 86.5107 249.34 85.6476 249.758 85.4465C249.839 85.3894 249.924 85.3545 250.01 85.3342C248.999 85.0583 247.847 81.1598 246.673 80.6076C245.483 80.0402 238.021 80.6787 237.361 75.2385C237.129 72.8099 236.781 69.2415 237.426 64.3693C238.605 57.4745 239.325 50.3061 240.735 44.5471C241.095 43.1814 241.465 42.0789 241.699 41.3469C242.67 38.2061 244.062 34.5287 245.977 31.3762C246.132 31.1042 246.292 30.8195 246.46 30.5266C248.746 26.4115 250.833 21.844 253.503 17.8557C256.001 13.9864 259.55 10.504 263.324 7.59102C264.874 6.42109 266.71 5.31738 268.759 4.43282C272.698 3.8124 276.255 4.38822 278.229 4.75411C280.817 4.92657 282.324 5.37094 284.233 5.7209C290.006 5.1638 298.779 6.40488 302.218 6.31368C305.096 6.23921 306.742 5.45716 309.743 5.4084C312.044 5.36833 315.108 5.73564 318.83 5.92891C320.485 6.01959 322.42 6.07136 324.309 6.02657C334.34 5.80065 336.052 3.78092 342.046 3.51583C348.26 3.242 357.913 4.33218 365.829 3.6213C366.821 3.39907 367.824 3.17638 368.817 2.9543C368.108 2.45194 367.387 1.94976 366.675 1.44747C370.67 1.2136 372.394 2.24371 376.046 2.26387C380.373 2.28833 382.56 1.31348 385.466 1.32051C387.841 1.3272 391.067 2.11328 394.15 2.06856C398.645 2.00751 397.664 0.876639 400.083 0.669147C401.057 0.586154 418.884 0.00338576 419.906 0.000201766ZM437.647 16.8762C434.479 16.8981 432.432 18.0905 425.984 18.3645C404.564 19.2626 375.703 17.9533 355.321 18.5705C345.253 18.8728 331.424 20.4179 321.516 20.7834C320.717 20.8125 319.823 20.8333 318.874 20.8479C310.014 20.9743 294.593 20.6376 291.486 21.2815C289.367 21.7079 288.392 23.0173 285.893 23.217C284.205 23.361 280.966 22.9244 280.112 22.8029C279.294 22.836 278.633 22.8459 278.087 22.8781C274.164 23.0938 274.41 23.1952 273.293 23.5979C270.73 25.0324 269.519 25.8014 267.865 27.8107C267.157 28.7195 266.418 29.7879 265.586 31.1438C264.288 33.1618 262.939 36.2055 259.876 40.8234C258.074 43.4411 256.906 45.5375 256.327 48.0051C255.857 49.7585 255.624 53.116 255.24 56.4621C254.87 59.808 254.428 63.1011 253.936 66.1828C253.282 69.671 253.434 75.5737 252.831 79.2463C252.319 82.861 251.483 85.1123 250.39 85.3391C251.394 85.5712 252.607 87.2794 253.573 86.3098C253.675 87.2102 253.783 88.203 253.84 89.3537C253.866 89.9463 253.889 90.5477 253.838 91.4494C253.804 91.9171 253.779 92.4104 253.58 93.3518C253.456 93.8649 253.352 94.4202 252.826 95.5588C252.555 96.1098 252.137 96.9172 251.239 97.9016C250.376 98.8596 248.738 100.124 246.548 100.636L246.577 100.631C241.205 102.245 235.514 103.502 230.311 103.547L230.586 103.513C226.669 103.665 222.758 103.675 217.896 103.934C216.303 104.261 214.723 104.608 213.124 104.978C206.569 106.725 198.229 107.64 191.389 107.662C181.602 107.823 172.017 107.877 162.591 108.42C158.284 108.67 153.975 109.046 149.59 109.471C147.491 108.994 145.371 108.525 143.241 108.048C143.24 108.047 143.241 108.045 143.241 108.044C140.144 108.057 137.668 108.295 135.548 108.614C131.622 109.198 128.965 110.09 125.874 110.42C122.142 110.826 118.007 111.083 114.147 111.479C109.612 111.869 103.533 114.046 95.7366 114.414C86.9629 114.891 77.6089 115.592 67.6165 116.233C65.3291 116.351 63.9476 116.794 59.8255 117.508C54.911 118.244 49.2965 119.51 45.3323 121.166C40.1947 123.307 36.2222 124.535 33.0882 126.381C29.5514 128.472 25.8057 130.123 23.1067 131.523C20.3347 132.992 19.3063 133.832 18.2181 135.559C16.9569 137.533 16.2219 141.257 16.3284 144.695C16.4121 149.992 17.9916 155.441 18.5921 162.686C19.4148 173.001 20.3732 183.755 20.8109 192.56C20.8582 193.389 20.9173 194.316 20.9886 195.412C21.2355 198.681 21.1418 203.026 21.14 206.995C21.1425 210.976 21.5592 214.859 22.4905 218.973C23.4156 223.176 24.4969 227.28 25.386 231.211C26.6311 236.745 27.4926 241.25 27.6556 243.445C27.7949 245.362 26.9021 246.104 27.2952 248.089C27.6963 249.651 28.0954 251.218 28.4876 252.789C29.234 255.728 30.5331 257.979 32.5814 261.564C34.7385 265.506 36.1088 269.911 36.7796 274.222C37.1822 276.82 37.2922 279.15 37.5472 280.925C37.6032 281.337 37.6736 281.719 37.7444 282.027C39.9928 283.154 42.4491 284.047 45.473 285.246C46.8619 285.819 47.9461 286.335 48.9007 286.73C52.1739 288.52 55.2668 289.22 59.3538 289.347C69.3639 289.709 77.8957 288.871 88.2503 286.938C93.3664 286.063 99.8088 283.942 106.281 282.811C108.532 282.407 111.619 281.334 114.867 280.561C118.1 279.768 121.269 279.166 124.433 278.643C129.123 277.926 134.395 275.684 141.31 274.809C142.44 274.601 145.494 273.892 147.693 273.39C150.061 272.849 152.443 272.312 154.83 271.793C158.629 270.968 162.429 270.176 166.254 269.424C171.68 268.462 177.764 266.14 185.123 265.628C195.616 264.85 205.217 263.656 215.661 261.598C221.024 260.824 223.279 260.815 226.669 259.76C229.909 258.799 233.336 257.368 236.759 255.771C241.085 253.692 247.142 250.453 253.256 248.97C259.627 247.4 264.477 247.426 269.612 247.081C274.711 246.825 279.674 246.674 284.699 246.548C313.533 245.916 342.16 245.815 370.777 245.855C385.37 245.851 399.896 246.221 414.315 246.357C427.146 246.482 440.125 246.492 453.052 246.592C465.254 246.698 479.481 246.437 493.326 246.825C501.189 247.084 508.564 247.278 515.776 247.827C517.954 248.004 520.214 248.38 522.154 248.927C523.03 249.35 525.273 249.691 527.75 249.874C530.312 250.085 533.451 250.075 538.02 250.446C538.065 250.91 538.107 251.374 538.146 251.837C538.155 251.838 538.163 251.84 538.172 251.841C545.196 252.75 550.626 252.624 558.353 254.238C558.264 254.183 560.05 254.329 561.602 254.357C565.657 254.486 574.143 254.477 582.409 255.369C588.16 255.927 593.836 257.389 596.38 257.642C598.268 257.853 599.711 258.121 600.83 258.338C604.923 259.182 603.229 259.716 606.881 260.472C609.476 261.018 613.271 261.658 617.409 262.324C623.436 263.294 630.037 264.77 634.039 265.399C634.298 265.44 634.558 265.481 634.815 265.519C641.492 266.211 654.85 268.225 660.579 269.226C662.531 269.512 664.499 269.828 666.479 270.179C670.327 270.862 673.702 271.899 676.398 272.313C682.223 273.339 687.773 274.041 694.271 275.156C698.572 275.953 704.189 275.637 711.716 277.612C715.499 278.683 719.384 279.691 723.014 280.472C724.094 280.704 725.517 280.934 727.018 281.191C729.295 281.585 732.061 282.167 734.973 283.174C739.659 285.004 740.768 285.447 741.527 285.414C741.581 285.411 741.635 285.406 741.687 285.401C745.046 285.122 746.007 284.026 748.19 283.648C751.127 283.12 754.446 282.441 756.813 281.461C760.468 279.929 764.881 278.097 769.147 276.584C771.982 275.663 772.83 274.987 772.657 275.327C774.474 272.493 775.156 270.589 775.316 268.701C775.345 268.303 775.373 267.915 775.399 267.529C775.903 261.186 775.862 254.798 777.637 246.842C778.17 245.201 778.086 240.473 780.01 235.529C781.473 231.684 782.766 227.741 783.467 224.203C784.313 219.875 785.159 215.301 786.173 210.72C787.115 206.66 787.798 203.815 788.199 200.475C788.606 197.2 788.777 193.775 788.807 190.264C788.894 178.142 789.053 165.893 788.773 154.374C788.705 152.221 788.655 150.086 788.615 147.964C788.594 146.922 788.577 145.851 788.548 144.952C788.559 144.881 788.561 144.807 788.56 144.733C787.055 141.932 786.575 141.381 785.21 140.523C781.764 138.511 778.103 136.886 773.781 135.354C770.047 134.11 763.433 133.251 757.816 132.902C747.548 131.797 739.64 129.595 731.423 127.012C722.971 124.206 716.871 121.16 711.29 119.625C709.711 119.159 708.195 118.712 706.752 118.284C701.743 116.811 703.374 116.04 699.113 114.97C694.387 113.796 691.641 113.951 689.423 113.495C688.264 113.256 687.145 113.037 685.667 112.729C684.465 112.512 679.446 112.379 675.33 112.007C671.013 111.647 666.442 111.107 661.829 110.446C655.308 109.543 648.085 108.444 641.731 106.906C634.79 105.272 628.597 103.586 624.364 102.281C623.25 101.939 622.27 101.498 621.616 101.15C620.349 100.595 619.3 100.057 618.314 99.842C617.457 99.6547 615.361 99.8128 612.732 99.2824C607.141 98.1347 602.73 97.4397 598.214 97.425C594.433 97.3829 590.756 97.3282 587.068 97.2238C585.219 97.1702 583.38 97.1062 581.467 97.0012C579.356 96.8191 578.239 97.0035 574.353 96.1115C569.277 94.701 561.913 94.0987 554.354 93.1428C550.341 92.4567 549.386 90.6154 548.637 89.8147C548.014 88.9794 547.727 88.3893 547.477 87.8654C547.036 86.9045 546.822 86.2088 546.629 85.5686C546.258 84.2931 546.042 83.2431 545.841 82.2023C544.312 73.3721 543.763 65.2947 542.962 56.7785C542.743 54.3363 542.53 51.8914 542.248 49.6604C541.995 47.4194 541.489 45.6114 541.326 45.5461C538.555 41.0654 536.616 37.1571 534.28 33.5998C532.787 31.2929 531.474 29.0609 530.253 27.2707C529.502 26.0285 528.462 25.0629 528.229 24.8029C523.264 22.7595 520.896 21.6479 517.185 20.7815C515.088 20.2435 510.805 20.0887 507.183 19.924C503.408 19.7719 499.587 19.6732 495.791 19.5871C488.141 19.4175 480.562 19.3055 472.955 19.1809C467.419 19.091 461.897 18.9968 456.452 18.8869C446.184 18.6808 439.11 16.8659 437.647 16.8762ZM37.8636 282.478C37.8988 282.588 37.9326 282.672 37.9612 282.721C38.034 282.857 38.0138 282.718 37.8636 282.478ZM538.629 265.119C540.632 265.228 542.588 265.31 544.523 265.403C543.522 264.863 542.511 264.325 541.492 263.785C540.514 263.625 539.53 263.463 538.536 263.293C538.566 263.902 538.599 264.511 538.629 265.119ZM560.781 76.7785C560.991 77.4684 561.223 78.0988 561.481 78.6584C562.112 80.0627 563.337 81.5813 563.701 80.0647C563.599 79.8505 563.455 79.5091 562.898 78.7854C562.502 78.431 562.053 77.5922 560.781 76.7785ZM550.373 29.6154C548.414 29.4897 553.657 37.3445 554.763 37.1594C554.917 37.2403 555 37.2023 554.991 37.0168C555.054 36.8415 555.013 36.5023 554.826 35.924C554.535 35.0054 551.085 29.7343 550.373 29.6154Z" fill="#A6A6A6"/>
<path d="M248.695 70.249C248.17 74.8831 248.977 79.4347 248.977 89.3848C248.977 91.0143 249.44 95.4066 248.695 95.5143C244.555 96.4709 240.095 97.8358 233.953 98.4693C226.145 99.5209 220.726 100.609 216.538 101.532L216.165 101.615C210.182 102.935 206.749 103.693 196.694 103.851C190.036 103.955 178.329 103.955 168.275 104.494C158.221 105.032 150.068 106.078 141.899 106.6C133.73 107.123 125.781 106.996 120.952 107.231C114.446 107.547 110.248 109.141 103.087 109.343C92.0136 109.657 81.6774 110.366 75.3651 110.715C71.5831 110.924 69.3164 111.661 67.0377 111.982C62.4987 112.622 55.5074 114.088 50.7852 116.103C47.0665 117.69 42.3015 119.103 37.9916 121.605C30.1773 126.141 24.5189 127.101 20.9028 133.217C18.5842 137.138 18.0908 142.154 18.2769 145.897C18.5968 152.33 20.4189 158.171 20.8109 163.109C21.3462 169.852 22.3407 174.958 23.5572 193.96C24.083 202.174 22.6634 207.045 24.9319 217.273C25.9835 222.015 26.8755 225.24 27.7826 228.984C29.3791 235.572 31.3496 244.062 32.4262 248.939C33.3828 253.272 35.2664 256.191 36.5472 258.644C37.8173 261.077 39.114 264.369 39.7115 268.898C40.3514 273.747 39.7173 278.93 42.6763 280.605C45.8502 282.401 48.856 283.509 51.4408 284.615C55.15 286.202 58.8415 288.733 67.7567 288.73C83.645 288.723 87.3892 287.548 96.9581 286.085C101.827 285.34 107.185 283.547 114.696 282.284C119.121 281.539 121.556 280.164 132.336 278.587C138.139 277.738 143.077 275.786 148.582 275.21C150.581 275.001 160.175 272.695 173.536 270.241C181.002 268.869 184.7 267.309 191.179 266.867C208.268 265.702 214.06 264.45 221.762 263.171C226.817 262.331 230.72 263.267 244.257 257.251C248.99 255.147 252.648 252.963 259.157 251.34C261.723 250.7 265.486 249.864 288.153 249.446C310.82 249.028 351.167 249.028 372.095 249.135C393.023 249.243 394.486 249.452 414.603 249.664C434.72 249.877 472.361 249.699 491.596 250.406C511.678 251.144 514.724 251.079 518.666 251.777C522.245 252.411 528.123 251.818 534.507 253.044C539.983 254.096 547.147 255.048 553.505 256.636C556.879 257.479 566.359 256.907 578.136 258.112C584.329 258.746 588.12 259.857 591.829 260.222C596.15 260.646 602.459 262.086 611.579 264.026C618.563 265.512 624.364 267.2 629.098 267.824C633.957 268.464 645.492 268.7 659.624 271.523C663.301 272.258 665.787 273.152 669.237 273.848C678.087 275.635 682.759 276.334 686.535 277.117C691.606 278.169 698.096 278.281 702.794 279.651C707.875 281.134 712.046 282.099 714.612 282.607C717.795 283.237 722.098 283.611 725.806 284.612C728.552 285.353 731.468 286.449 735.004 286.3C742.73 285.974 748.719 285.01 753.05 283.231C756.642 281.755 759.416 280.508 764.77 278.479L764.979 278.4C767.959 277.272 770.72 276.227 772.258 273.725C773.949 270.972 775.665 267.658 775.948 263.465C776.483 255.54 776.715 249.111 777.956 244.156C778.802 240.78 778.536 238.052 779.964 234.441C781.551 230.428 782.988 226.166 783.762 222.408C784.503 218.81 785.323 214.515 786.404 209.839C787.455 205.291 789.117 200.274 789.251 188.778C789.356 179.849 789.543 163.12 789.248 154.439C788.931 145.127 789.154 143.697 788.507 142.59C787.025 140.052 785.553 136.751 781.424 134.462C778.574 132.881 774.986 131.071 768.856 128.972C764.839 127.598 757.243 126.582 750.909 126.233C749.014 126.128 739.573 124.941 727.117 121.152C719.86 118.944 715.045 116.465 707.01 114.383C692.759 110.69 682.886 108.57 681.651 108.282C678.467 107.541 673.669 107.956 657.853 105.533C651.651 104.583 646.271 103.841 638.823 102.144C628.173 99.7173 621.485 97.9446 618.801 97.4018C608.351 95.2891 602.95 93.5513 594.582 93.3949L593.971 93.3835C583.107 93.1806 575.362 93.036 573.207 92.4415C568.238 91.0699 560.235 90.459 552.409 89.5939C550.518 89.3848 549.161 77.7574 547.709 61.7126C546.968 53.5214 546.608 50.3262 545.064 47.9307C542.952 44.6523 540.994 40.7612 538.197 36.5213C534.919 31.5515 532.352 26.5826 528.907 25.3431C526.265 24.3929 522.935 22.5183 517.054 21.1145L516.99 21.0992C514.749 20.5634 511.3 19.739 472.091 19.3248C432.507 18.9067 358.71 18.9067 321.38 19.0144C284.051 19.1221 283.217 19.3497 282.366 19.4357C279.199 19.7556 275.351 19.5597 271.172 22.0806C268.011 23.9874 265.445 26.0674 263.152 29.2708C259.978 33.7054 258.048 38.2733 255.55 41.8332C252.807 45.7419 251.457 48.666 250.7 51.9693C249.855 55.6626 250.055 58.263 248.695 70.249Z" fill="#E9E9E9"/>
<path d="M420.457 11.6729C427.888 11.6659 428.522 12.6999 434.45 12.8135C447.075 13.0553 459.997 12.6781 472.164 12.4444C475.867 12.3752 479.462 12.3196 482.969 12.2998C489.745 12.2636 496.896 12.4573 503.724 12.8731C492.872 15.0921 516.629 18.1515 507.879 13.6153C511.542 14.1232 514.543 14.0288 518.564 14.7891C522.232 15.4491 526.147 16.599 529.562 18.2198C530.226 18.5255 530.785 18.7916 531.195 18.9815C535.005 20.5829 536.543 22.8294 537.999 24.752C539.409 26.734 540.56 28.7709 542.023 31.0616C542.473 31.7663 542.922 32.4495 543.375 33.1055C546.197 37.198 548.666 41.4221 550.638 44.3389C553.416 48.9269 553.22 51.9977 553.374 54.2061C553.396 56.4537 553.073 58.0646 552.375 59.0596C552.473 59.8001 552.562 60.5331 552.648 61.2657C553.393 67.5858 553.848 73.4439 554.613 78.1455C554.915 79.995 555.273 81.6843 555.708 83.0704C559.879 83.8422 566.147 85.4694 569.45 86.209C570.23 86.3866 571.977 86.6843 574.584 87.4541C575.512 87.7595 579.837 88.0719 583.366 88.2569C587.099 88.4571 591.081 88.6213 594.668 88.7715C600.261 88.9739 604.84 89.9731 606.435 90.2813C610.131 91.013 615.571 92.3342 619.679 93.0596C621.137 93.334 622.262 93.576 623.209 93.7461C628.121 94.6456 632.04 92.9076 639.81 97.8125C639.864 97.8471 639.919 97.8819 639.974 97.917C648.174 99.5263 651.982 100.006 658.51 101.246C659.831 101.495 661.235 101.757 662.812 102.038C664.49 102.335 664.619 102.821 665.622 102.95C667.661 103.211 671.171 103.273 674.809 103.522C677.936 103.754 680.413 104.077 682.508 104.601C683.816 104.929 684.521 104.933 684.348 104.155C688.377 104.797 692.406 105.478 696.424 106.191C697.745 106.81 699.065 107.432 700.378 108.057C702.566 108.274 704.749 108.499 706.941 108.736C706.036 109.175 706.758 109.711 708.097 110.188C711.379 111.274 718.013 112.681 714.863 110.669C719.806 112.638 724.145 114.8 728.558 116.418C731.157 117.38 733.784 118.272 736.436 119.092C734.731 121.478 753.015 122.658 751.155 120.722C751.18 120.724 751.2 120.725 751.213 120.726C752.11 120.777 753.003 120.839 753.894 120.911C759.352 121.859 764.143 122.141 770.522 124.105C773.294 125.067 776.224 126.208 779.315 127.818C781.211 128.81 782.633 129.673 783.699 130.359C788.682 133.906 788.032 134.688 788.993 137.297C789.923 138.583 790.656 139.902 791.313 140.95C792.404 142.996 792.174 144.072 792.314 145.021C793.609 149.548 793.623 151.865 793.357 154.3C792.877 158.488 791.386 162.401 792.819 175.157C791.893 178.16 791.581 183.214 791.55 188.806C791.586 195.337 791.108 202.992 789.881 208.652C789.708 209.581 789.884 209.857 789.865 210.64C789.858 210.88 789.835 211.167 789.779 211.532C789.339 214.299 787.995 220.071 787.675 223.214C787.52 224.588 787.506 225.45 787.878 225.432C786.59 229.079 785.031 232.425 783.367 235.689C783.358 235.718 783.349 235.747 783.34 235.776C782.665 237.969 782.824 240.177 782.464 243.609C782.843 243.662 783.223 243.714 783.603 243.766C783.406 244.283 783.198 244.838 782.971 245.412C780.827 249.897 780.948 258.283 780.354 262.391C780.288 262.874 780.1 263.144 779.889 263.731C779.696 264.338 779.489 265.217 779.111 266.71C778.54 269.172 777.021 272.783 775.234 275.554C773.884 277.771 771.812 279.12 770.326 279.826C769.022 281.135 767.694 282.204 766.568 283.229C766.509 283.282 766.451 283.335 766.393 283.388C760.72 285.861 757.954 285.762 754.525 286.821C754.148 286.943 753.762 287.069 753.369 287.2C752.971 287.369 749.175 288.627 745.462 289.195C741.742 289.823 738.092 290.059 737.719 290.104C736.692 290.213 735.891 290.325 735.18 290.446C732.3 290.872 729.667 291.002 724.451 289.631C722.581 289.193 719.918 288.815 715.652 288.106C714.967 287.986 714.292 287.84 713.61 287.664C711.317 287.057 709.403 286.312 707.246 285.752C705.898 285.4 703.79 284.918 701.42 284.361C696.708 283.425 688.13 283.647 687.03 283.986C686.511 283.802 685.913 283.61 685.234 283.392C681.335 282.025 673.776 280.727 668.095 279.506C664.71 278.785 662.26 277.989 660.979 277.582C660.173 277.314 659.859 276.875 658.66 276.347C657.976 276.06 657.038 275.744 655.615 275.433C652.299 274.647 643.525 274.115 639.19 273.682C634.585 273.171 632.944 272.436 630.782 272.193C630.065 272.113 629.343 272.096 628.539 272.067C627.079 272.016 625.549 271.963 623.739 271.578C618.895 270.519 614.708 269.137 610.72 268.064C607.51 267.194 604.482 266.367 601.621 265.761C598.014 265.004 594.469 264.498 591.409 264.5C585.804 264.257 581.733 263.806 577.546 263.877C576.972 263.876 576.409 263.876 575.843 263.874C573.934 263.604 572.052 263.145 570.002 263.034C567.343 262.889 564.63 262.802 561.827 262.72C558.877 262.563 556.586 262.802 552.181 261.939C546.402 260.46 540.124 259.579 533.5 258.287C528.885 257.276 524.564 257.764 517.76 256.897C509.993 255.799 500.015 255.831 491.416 255.302C490.617 255.262 489.732 255.222 488.934 255.188C476.921 254.619 446.688 252.473 454.738 255.96C450.654 256.51 421.673 255.161 414.548 254.964C414.317 254.958 414.111 254.954 413.931 254.951C408.085 254.868 403.446 255.421 398.844 255.353C389.158 255.195 381.565 254.89 372.065 254.898C368.001 254.901 363.561 254.958 358.47 255.11C354.132 255.242 349.463 255.974 346.887 255.965C343.782 255.952 340.439 255.243 336.42 255.204C326.837 255.11 308.985 255.425 299.807 255.412C298.12 255.407 297.524 254.789 295.139 254.625C292.825 254.468 290.459 254.368 288.243 254.338C281.377 254.241 275.891 254.858 277.307 256.309C271.273 255.977 264.928 256.101 260.641 257.29C255.946 258.531 252.257 260.747 246.916 263.233C246.879 263.25 246.842 263.268 246.805 263.284C243.667 264.686 240.078 266.192 235.855 267.443C231.834 268.788 225.851 269.257 222.836 269.641C213.179 271.43 201.786 272.739 191.625 273.4C186.412 273.683 180.712 275.714 174.744 276.817C169.343 277.889 164.523 278.984 160.561 279.981C155.655 281.181 153.603 282.024 149.383 282.865C146.197 283.38 143.64 284.782 133.473 286.358C132.245 286.496 130.915 286.652 129.496 286.839C125.373 287.323 122.576 288.077 116.207 289.222C116.096 289.238 115.984 289.253 115.871 289.269C109.96 289.933 104.396 291.156 97.8721 292.065C93.1485 292.625 88.5313 293.666 84.0948 295.016C78.0174 295.4 72.7049 295.388 67.7598 295.276C64.2899 295.199 60.7667 294.75 57.4346 293.646C54.0998 292.582 51.1427 290.705 49.3604 289.479C49.0561 289.283 48.7421 289.084 48.4229 288.88C47.2171 288.821 45.9465 288.744 44.6251 288.611C42.9971 287.912 41.3065 287.116 39.6466 286.192C39.6255 286.152 39.6041 286.111 39.5831 286.07C38.6136 285.11 37.8823 283.941 37.5059 282.854C35.1673 279.515 35.272 277.041 34.9464 274.989C34.7257 272.928 34.5953 271.127 34.2989 269.611C33.7305 266.585 32.6558 263.832 31.1641 261.455C29.3817 258.735 26.8669 254.363 25.9776 250.362C25.6364 249.022 25.3184 247.724 25.0421 246.502C24.1336 242.494 22.8767 236.879 21.4112 230.527C20.5871 226.965 19.5431 222.892 18.6719 218.662C17.7865 214.52 17.2922 209.916 17.3516 205.607C17.4032 201.276 17.6969 197.698 17.5245 194.347C17.1091 184.955 16.5445 176.725 16.1251 171.468C15.8228 167.587 15.4757 165.319 15.3565 163.542C15.2419 161.981 15.243 160.79 15.6827 158.182C15.2263 156.401 14.7353 154.547 14.3009 152.616C13.7324 151.457 13.1828 150.254 12.6729 148.995C12.5758 148.085 12.5015 147.147 12.4591 146.186C12.2968 141.17 12.9181 135.7 16.0928 130.373C18.2149 126.752 21.9278 123.849 24.9903 122.277C28.0915 120.633 30.6976 119.569 32.9796 118.351C33.7667 117.938 34.5544 117.503 35.3419 117.039C39.642 114.483 44.6333 112.848 48.6456 111.09C54.5275 108.596 60.1864 107.319 66.2383 106.311C68.1745 105.966 71.8628 105.034 75.043 104.896C83.3029 104.338 91.4162 103.868 98.2803 103.864C99.741 103.862 101.318 103.918 102.936 103.999C106.157 104.215 109.571 104.036 112.774 103.478C116.01 102.923 118.263 102.351 120.693 101.918C123.214 101.461 125.802 101.09 130.166 101.003C133.462 100.935 137.358 100.919 141.525 100.767C149.52 100.468 159.166 99.6834 168.008 99.5079C174.848 99.3555 181.065 99.4053 185.745 99.2979C189.864 99.2102 191.78 98.7203 194.595 98.6358C195.281 98.6149 195.953 98.5938 196.611 98.5723C203.703 98.3817 208.959 97.7711 215.322 96.0196C218.854 95.1234 222.49 94.2522 226.294 93.3809C229.305 93.1859 231.541 93.1915 233.256 93.292C233.288 93.288 233.384 93.2766 233.417 93.2735C238.346 93.7425 238.671 94.7952 241.682 95.4161C243.13 95.7017 246.066 95.9241 248.834 96.2491C250.355 95.5222 249.88 95.1109 250.202 94.7168C250.37 94.3221 250.503 93.9579 250.629 93.6036C250.879 92.8976 251.091 92.2473 251.29 91.6758C251.683 90.5325 252.031 89.7165 252.305 89.4883C252.363 89.4239 252.425 89.3852 252.488 89.3662C251.814 89.1575 251.025 85.3336 250.228 84.7871C249.426 84.2344 244.47 84.8042 243.945 79.4776C243.77 77.2162 243.445 73.933 243.982 69.7139C245.003 63.346 245.496 56.5359 246.811 51.0782C247.269 49.3328 247.798 47.9645 248.113 47.1416C249.049 44.6599 250.341 41.8812 251.956 39.3116C252.287 38.7645 252.625 38.1763 252.978 37.5635C255.143 33.7002 257.036 29.864 259.367 26.5616C261.786 23.0276 265.034 20.1214 268.53 17.7002C270.371 16.4239 272.627 15.3097 275.076 14.5723C277.76 14.3249 280.178 14.6112 281.893 14.753C284.679 14.864 286.654 15.2434 288.928 15.5293C294.511 15.1427 302.932 15.9569 306.357 15.8916C309.081 15.8387 310.79 15.3145 313.628 15.2793C315.649 15.2533 318.213 15.4454 321.37 15.5762C323.281 15.6595 325.479 15.7185 327.761 15.6807C337.43 15.5246 339.186 14.1768 344.964 13.9981C350.999 13.8135 360.334 14.5392 368.023 14.0655C368.986 13.9173 369.963 13.7691 370.916 13.6211C370.231 13.2861 369.538 12.9512 368.844 12.6162C372.708 12.4604 374.386 13.1473 377.93 13.1612C382.12 13.1781 384.252 12.5287 387.064 12.5342C389.369 12.5393 392.494 13.0648 395.485 13.0362C399.844 12.9973 398.892 12.2427 401.237 12.1055C402.177 12.0501 419.467 11.6735 420.457 11.6729ZM437.685 22.9414C434.608 22.9522 432.628 23.7447 426.371 23.9209C405.594 24.498 377.603 23.6177 357.827 24.0323C348.076 24.2348 334.658 25.2692 325.053 25.5196C323.983 25.5468 322.728 25.5648 321.399 25.5752C312.676 25.6375 298.813 25.4678 295.883 25.8868C293.835 26.1752 292.849 27.0503 290.425 27.1895C288.333 27.317 284.735 26.855 283.124 26.9395C283.02 26.9483 282.918 26.9564 282.817 26.9649C277.387 27.2468 276.725 27.4742 274.938 28.3233C272.34 29.782 270.671 30.912 268.791 33.3067C268.247 34.0187 267.688 34.8135 267.097 35.7305C265.654 37.8556 264.189 41.1227 261.077 45.7119C259.234 48.3133 257.854 50.7017 257.214 53.461C256.688 55.5029 256.498 58.6928 256.144 61.835C255.808 64.9825 255.412 68.0684 254.981 70.9619C254.393 74.8414 254.702 80.2144 254.308 83.6758C253.996 87.0871 253.429 89.1972 252.7 89.3711C253.378 89.5785 254.226 91.3937 254.862 90.4209C254.943 91.2789 255.028 92.191 255.067 93.2051C255.085 93.726 255.099 94.2467 255.052 94.9795C255.022 95.357 254.996 95.7506 254.839 96.4541C254.741 96.838 254.66 97.2453 254.265 98.0557C253.882 98.6572 253.06 100.795 249.558 101.477L250.052 101.384C244.593 102.901 239.417 104.047 234.545 104.201L234.723 104.181C230.879 104.438 227.049 104.616 222.291 105.061C220.704 105.374 219.127 105.708 217.538 106.063C211.098 107.707 203.448 108.503 196.768 108.531C187.235 108.675 177.826 108.718 168.528 109.228C164.449 109.454 160.369 109.79 156.25 110.17C154.232 109.903 152.199 109.644 150.159 109.379L150.158 109.376C146.859 109.473 144.294 109.727 142.117 110.02C138.682 110.475 136.24 111.044 133.426 111.276C129.586 111.6 125.335 111.773 121.19 112.104C116.359 112.423 110.434 114.403 103.238 114.672C94.6033 115.056 85.3952 115.687 75.6729 116.277C73.2485 116.387 71.4275 116.901 67.8155 117.502C62.7903 118.239 57.2809 119.42 52.9503 121.176C48.1758 123.119 44.093 124.346 40.711 126.29C37.3909 128.203 33.8857 129.709 31.0958 131.124C28.255 132.575 26.6415 133.817 25.3878 135.868C23.8715 138.305 23.2014 142.105 23.3301 145.646C23.469 150.93 25.0755 156.213 25.6485 162.725C26.5319 172.672 27.5054 182.715 27.962 191.122C28.0083 191.874 28.0609 192.693 28.1251 193.668C28.3544 196.659 28.2562 200.633 28.2344 204.472C28.2154 208.32 28.6194 212.216 29.5548 216.248C30.4509 220.233 31.5117 224.14 32.3995 227.865C33.7782 233.68 34.7838 238.458 35.0665 240.696C35.2958 242.534 34.739 243.187 35.1436 245.106C35.4001 246.128 35.6548 247.15 35.9053 248.171C36.6277 251.155 38.0221 253.584 39.9259 256.88C41.8968 260.44 43.1454 264.424 43.7413 268.366C44.098 270.719 44.1803 272.897 44.4151 274.688C44.4959 275.795 44.8276 276.576 44.9639 276.886C47.4512 278.204 50.139 279.176 53.2442 280.4C55.2992 281.249 56.8117 281.996 58.3194 282.502C61.1599 283.706 64.3071 284.217 67.755 284.286C77.5241 284.59 86.3427 283.736 96.3233 281.936C101.646 281.054 107.778 279.098 113.987 278.07C118.897 276.975 125.765 274.989 131.694 274.203C136.586 273.488 141.775 271.393 148.105 270.647C152.292 269.855 158.019 268.496 163.024 267.485C166.238 266.822 169.453 266.184 172.68 265.576C178.186 264.629 184.066 262.486 190.851 262.053C201.112 261.34 210.773 260.193 220.947 258.268C225.714 257.601 228.504 257.539 231.961 256.495C235.322 255.539 238.769 254.149 242.195 252.61C246.635 250.553 252.198 247.682 257.911 246.345C263.635 244.972 268.424 244.964 273.379 244.657C278.324 244.425 283.159 244.289 288.056 244.178C316.186 243.625 344.178 243.564 372.124 243.621C386.371 243.628 400.541 243.983 414.662 244.112C427.04 244.23 439.528 244.237 451.965 244.32C464.049 244.412 478.203 244.238 491.809 244.64C499.097 244.885 506.074 245.087 512.609 245.493C515.113 245.658 517.446 245.982 519.595 246.526C522.224 247.312 526.341 247.135 533.781 247.591C533.853 247.903 533.923 248.217 533.991 248.529C534.445 248.585 534.895 248.645 535.339 248.712C542.05 249.652 547.242 249.726 554.817 251.385C555.072 251.433 556.201 251.541 557.269 251.587C561.419 251.791 570.375 251.73 578.698 252.617C584.372 253.159 589.685 254.516 592.365 254.769C593.311 254.87 594.118 254.989 594.793 255.098C598.774 255.795 597.188 256.102 600.738 256.785C603.614 257.355 607.996 258.127 612.662 258.932C617.946 259.839 623.474 261.109 627.377 261.848C628.164 261.997 628.995 262.149 629.829 262.274C636.635 263.022 647.808 264.389 652.902 265.198C655.457 265.545 658.039 265.944 660.646 266.409C664.225 267.039 667.473 268.04 670.315 268.511C676.009 269.539 681.556 270.292 687.726 271.375C692.316 272.241 697.831 272.034 704.507 273.78C708.273 274.843 712.115 275.831 715.8 276.605C716.322 276.714 716.897 276.819 717.496 276.922C720.29 277.404 723.937 278.027 727.287 279.124C730.515 280.265 732.096 280.822 732.83 280.885C733.667 280.982 734.271 280.908 734.772 280.784C736.394 280.485 737.379 280.078 738.979 279.885C742.707 279.419 747.161 278.808 750.667 277.432C754.363 275.942 758.564 274.238 762.622 272.813C765.703 271.798 767.169 270.92 767.254 270.65C768.968 268.028 769.843 265.915 770.121 263.965C770.164 263.671 770.196 263.376 770.217 263.078C770.74 256.713 770.676 250.299 772.404 242.766C773.002 240.76 772.919 236.56 774.636 232.334C776.094 228.622 777.394 224.816 778.131 221.248C778.966 217.125 779.791 212.829 780.776 208.538C782.662 201.448 783.385 195.651 783.431 188.71C783.527 177.223 783.692 165.655 783.408 154.638C783.341 152.608 783.29 150.598 783.249 148.593C783.228 147.605 783.21 146.595 783.18 145.708C783.201 145.423 783.157 145.108 783.121 144.888C783.044 144.75 782.967 144.618 782.895 144.489C781.432 141.824 780.523 140.621 778.614 139.529C775.111 137.55 771.309 135.92 766.984 134.439C762.669 133.074 756.302 132.331 750.592 131.977C741.19 131.003 733.328 128.948 725.471 126.564C717.512 124.034 711.321 121.096 705.648 119.634C704.05 119.19 702.516 118.766 701.059 118.363C696.162 117.019 697.654 116.598 693.504 115.589C688.9 114.481 686.277 114.417 684.122 113.971C683.001 113.738 681.88 113.515 680.499 113.228C678.641 112.884 674.114 112.801 670.081 112.416C665.921 112.057 661.501 111.529 657.032 110.89C650.62 110.001 643.71 108.963 637.596 107.53C630.996 106.024 625.117 104.505 621.01 103.346C619.736 102.988 618.641 102.554 617.825 102.226C616.762 101.839 615.852 101.486 615.011 101.309C614.179 101.133 612.205 101.126 609.632 100.604C603.98 99.4337 599.24 98.6416 594.484 98.6172C590.795 98.5674 587.21 98.5116 583.625 98.4131C581.83 98.3626 580.045 98.303 578.21 98.2071C576.247 98.0563 574.927 98.1586 571.821 97.4649C566.332 96.0212 559.243 95.5237 551.853 94.6319C547.583 93.5844 547.821 91.911 547.225 91.3194C546.82 90.5621 546.647 90.0674 546.462 89.5401C546.13 88.5563 545.928 87.7169 545.745 86.8975C544.078 78.3792 543.563 70.4895 542.746 62.1621C542.324 57.7829 541.902 51.9864 540.853 50.6455C538.245 46.5571 536.311 42.7746 533.974 39.3077C532.544 37.1605 531.266 35.0407 530.012 33.2491C528.834 31.4635 527.276 30.0551 527.172 30.1651C522.52 28.3071 519.682 27.0124 515.852 26.1514C510.027 25.0871 501.662 25.159 494.389 24.9248C486.892 24.7601 479.478 24.6546 472.036 24.5479C466.632 24.4712 461.242 24.3967 455.933 24.3125C445.967 24.1556 439.1 22.9365 437.685 22.9414ZM535.352 257.56C537.279 257.739 539.176 257.884 541.056 258.036C540.054 257.625 539.047 257.216 538.034 256.802C537.084 256.646 536.127 256.487 535.165 256.318C535.226 256.732 535.289 257.146 535.352 257.56ZM556.065 84.0967C556.365 84.8561 556.709 85.4987 557.037 85.8047C557.196 85.9497 557.361 86.0179 557.414 85.8301C557.376 85.6383 557.69 85.1726 555.951 83.6885C555.936 83.6784 555.92 83.6686 555.904 83.6582C555.958 83.8085 556.01 83.9554 556.065 84.0967ZM545.286 37.4903C544.332 37.227 546 40.1978 547.508 42.4004C549.032 44.6142 550.494 45.9486 549.523 43.7246C549.118 42.7969 545.828 37.6565 545.286 37.4903Z" fill="white"/>
<path d="M438.641 97.2743C438.641 97.7876 437.218 98.2076 434.371 98.5343C431.525 98.8143 428.678 98.9543 425.831 98.9543C422.985 98.9543 421.141 98.8376 420.301 98.6043C419.508 98.3243 419.111 97.8809 419.111 97.2743V67.0343H411.971C411.178 67.0343 410.781 65.3309 410.781 61.9243C410.781 58.5176 411.178 55.4376 411.971 52.6843C412.205 51.7976 414.678 50.9809 419.391 50.2343C424.105 49.4876 427.721 49.1143 430.241 49.1143C432.761 49.1143 434.441 49.2076 435.281 49.3943C436.121 49.5809 436.751 49.8143 437.171 50.0943C437.591 50.3276 437.918 50.6076 438.151 50.9343C438.478 51.4476 438.641 51.9376 438.641 52.4043V97.2743Z" fill="white"/>
<path d="M394.08 98.6044C391.467 99.2577 388.223 99.5844 384.35 99.5844C380.477 99.5844 377.21 99.2577 374.55 98.6044C371.937 97.9044 369.557 96.6444 367.41 94.8244C363.163 91.231 361.04 84.2077 361.04 73.7544C361.04 63.6744 363.257 56.8377 367.69 53.2444C369.883 51.471 372.287 50.2344 374.9 49.5344C377.513 48.8344 380.64 48.4844 384.28 48.4844C387.967 48.4844 391.117 48.8344 393.73 49.5344C396.39 50.2344 398.817 51.471 401.01 53.2444C405.443 56.8377 407.66 63.6744 407.66 73.7544C407.66 84.2077 405.537 91.231 401.29 94.8244C399.143 96.6444 396.74 97.9044 394.08 98.6044ZM382.88 87.6844C383.253 88.291 383.743 88.5944 384.35 88.5944C385.003 88.5944 385.517 88.291 385.89 87.6844C386.263 87.031 386.567 85.631 386.8 83.4844C387.033 81.3377 387.15 78.281 387.15 74.3144C387.15 70.3477 387.033 67.2677 386.8 65.0744C386.567 62.8344 386.263 61.3644 385.89 60.6644C385.517 59.9177 385.003 59.5444 384.35 59.5444C383.743 59.5444 383.253 59.8944 382.88 60.5944C381.947 62.181 381.48 66.7544 381.48 74.3144C381.48 81.8277 381.947 86.2844 382.88 87.6844Z" fill="white"/>
<path d="M584.743 210.619C581.505 210.334 578.746 209.807 576.464 209.041C574.183 208.274 572.155 207.094 570.382 205.502C566.705 202.307 565.209 196.824 565.895 189.054C566.504 182.148 568.948 177.383 573.225 174.758C577.224 172.327 582.202 171.374 588.159 171.9C590.706 172.124 592.874 172.446 594.664 172.865C596.458 173.241 598.249 173.899 600.036 174.84C601.867 175.785 603.285 176.976 604.289 178.413C605.336 179.854 606.122 181.794 606.647 184.232C607.175 186.628 607.296 189.445 607.01 192.682C606.431 199.243 604.139 204.022 600.134 207.018C596.132 209.971 591.002 211.172 584.743 210.619ZM583.59 197.793C583.755 199.374 583.976 200.329 584.251 200.658C584.57 200.99 584.988 201.179 585.506 201.225C586.067 201.275 586.512 201.162 586.841 200.886C587.213 200.614 587.597 199.713 587.993 198.182C588.433 196.655 588.755 194.726 588.961 192.395C589.17 190.02 589.265 188.202 589.246 186.939C589.274 185.636 589.232 184.632 589.121 183.926C589.052 183.224 588.905 182.667 588.681 182.256C588.342 181.66 587.892 181.338 587.33 181.288C586.812 181.243 586.366 181.377 585.99 181.692C585.618 181.964 585.21 182.885 584.767 184.455C584.328 185.983 583.981 188.192 583.726 191.084C583.47 193.976 583.425 196.213 583.59 197.793ZM596.955 160.213C597.948 160.3 598.868 161.208 599.716 162.936C600.608 164.668 600.947 166.742 600.733 169.159C600.676 169.807 598.747 170.224 594.946 170.411C591.192 170.558 588.085 170.523 585.624 170.306C584.804 170.233 584.094 169.649 583.495 168.552C582.939 167.459 582.72 166.243 582.838 164.905C582.96 163.524 584.673 162.348 587.978 161.378C591.33 160.369 594.322 159.98 596.955 160.213Z" fill="white"/>
<path d="M544.018 202.657L544.245 198.894L543.726 198.862C543.54 199.068 543.22 199.331 542.767 199.651C542.316 199.927 541.209 200.295 539.444 200.752C537.724 201.213 535.782 201.377 533.619 201.247C531.499 201.119 529.724 200.686 528.293 199.948C526.861 199.21 525.763 198.341 524.999 197.34C524.237 196.295 523.668 194.937 523.292 193.264C522.711 190.668 522.552 187.185 522.816 182.817C523.119 177.799 524.412 174.013 526.693 171.46C527.58 170.428 528.846 169.593 530.491 168.954C532.182 168.275 533.957 167.992 535.817 168.104C537.677 168.216 539.2 168.525 540.385 169.031C541.572 169.494 542.452 170.024 543.023 170.623C544.161 171.908 544.789 173.009 544.908 173.928L544.937 174.516L545.456 174.547L546.193 172.052C546.735 170.262 550.207 169.56 556.609 169.947C559.464 170.119 561.168 170.656 561.721 171.558C562.036 172.098 562.222 172.608 562.28 173.089C562.34 173.527 562.343 174.2 562.288 175.109L560.645 202.294C560.337 207.398 558.436 211.19 554.943 213.671C551.451 216.151 546.482 217.197 540.037 216.807C533.203 216.394 528.593 215.443 526.209 213.953C525.164 213.282 524.661 212.622 524.701 211.973C524.763 210.935 525.28 209.208 526.251 206.792C527.265 204.379 528.14 203.195 528.875 203.239C529.048 203.25 529.645 203.438 530.664 203.803C533.899 204.867 536.533 205.46 538.566 205.583C540.643 205.709 542.042 205.533 542.766 205.055C543.533 204.581 543.95 203.781 544.018 202.657ZM541.917 194.325C542.392 194.353 542.792 194.204 543.116 193.876C543.44 193.549 543.615 193.168 543.641 192.736L544.448 179.37C544.33 178.451 543.882 177.968 543.103 177.921C541.46 177.822 540.474 180.476 540.148 185.883C539.996 188.391 540.069 190.414 540.367 191.952C540.708 193.492 541.225 194.283 541.917 194.325Z" fill="white"/>
<path d="M518.357 183.843L517.613 203.849C517.595 204.325 516.347 204.669 513.867 204.881C511.389 205.049 508.83 205.084 506.188 204.986C503.59 204.889 501.905 204.718 501.134 204.473C500.407 204.185 500.054 203.76 500.075 203.197L500.843 182.542C500.915 180.593 500.876 179.312 500.725 178.7C500.618 178.089 500.508 177.542 500.396 177.061C500.123 176.227 499.597 175.796 498.818 175.767C497.605 175.722 496.977 176.284 496.934 177.453L495.983 203.045C495.965 203.522 494.717 203.866 492.237 204.077C489.803 204.247 487.264 204.282 484.623 204.184C482.025 204.088 480.34 203.917 479.568 203.671C478.799 203.383 478.424 202.957 478.445 202.394L479.635 170.371C479.669 169.461 480.937 168.598 483.439 167.78C485.984 166.964 488.643 166.608 491.414 166.711C494.186 166.814 495.715 167.673 496.002 169.288L496.48 172.168L496.935 172.184C498.284 169.719 500.514 168.046 503.626 167.164C504.896 166.821 506.289 166.678 507.805 166.734C512.178 166.897 515.074 168.327 516.491 171.025C517.954 173.681 518.575 177.954 518.357 183.843Z" fill="white"/>
<path d="M453.906 204.06C450.656 204.003 447.867 203.672 445.537 203.067C443.207 202.462 441.102 201.428 439.221 199.965C435.329 197.035 433.452 191.671 433.59 183.872C433.713 176.94 435.816 172.015 439.898 169.097C443.716 166.391 448.615 165.09 454.594 165.196C457.151 165.242 459.336 165.41 461.151 165.703C462.967 165.952 464.8 166.482 466.649 167.295C468.542 168.109 470.039 169.197 471.142 170.56C472.288 171.924 473.208 173.804 473.902 176.2C474.597 178.553 474.916 181.354 474.859 184.603C474.742 191.189 472.791 196.117 469.006 199.387C465.221 202.614 460.188 204.172 453.906 204.06ZM451.856 191.347C452.131 192.912 452.418 193.849 452.716 194.158C453.057 194.467 453.488 194.626 454.008 194.636C454.571 194.646 455.007 194.502 455.315 194.204C455.667 193.907 455.987 192.98 456.275 191.425C456.606 189.871 456.792 187.924 456.833 185.584C456.876 183.201 456.843 181.38 456.735 180.122C456.672 178.82 456.559 177.822 456.398 177.125C456.281 176.43 456.095 175.885 455.842 175.49C455.462 174.92 454.991 174.63 454.427 174.62C453.907 174.611 453.471 174.776 453.118 175.117C452.766 175.414 452.424 176.361 452.093 177.959C451.762 179.513 451.571 181.742 451.519 184.645C451.468 187.548 451.58 189.782 451.856 191.347Z" fill="white"/>
<path d="M406.551 201.907C405.512 201.427 404.388 200.709 403.177 199.752C402.01 198.796 401.038 197.667 400.261 196.364C398.45 193.239 397.551 189.164 397.565 184.137C397.573 181.017 398.079 178.245 399.082 175.821C400.086 173.354 401.304 171.45 402.738 170.111C404.172 168.772 405.821 167.671 407.687 166.81C410.681 165.431 413.673 164.746 416.663 164.754C421.689 164.768 425.176 165.167 427.124 165.953C429.115 166.738 430.109 168.062 430.103 169.926C430.098 171.789 429.746 173.781 429.047 175.903C428.391 177.981 427.522 179.019 426.439 179.016C426.092 179.015 425.031 178.644 423.257 177.902C421.525 177.161 420.01 176.788 418.71 176.785C417.453 176.781 416.477 177.299 415.78 178.337C415.128 179.332 414.797 181.302 414.789 184.249C414.781 187.152 415.079 189.146 415.683 190.231C416.287 191.273 417.217 191.796 418.474 191.799C419.774 191.803 421.378 191.374 423.287 190.512C425.196 189.651 426.259 189.22 426.476 189.221C427.299 189.223 428.077 190.2 428.808 192.152C429.583 194.104 429.968 195.839 429.964 197.355C429.957 199.695 428.74 201.339 426.31 202.285C423.881 203.189 420.587 203.635 416.427 203.623C412.31 203.612 409.018 203.04 406.551 201.907Z" fill="white"/>
<path d="M373.695 203.828C370.445 203.867 367.647 203.618 365.301 203.082C362.954 202.546 360.819 201.574 358.896 200.167C354.919 197.353 352.885 192.047 352.793 184.248C352.712 177.315 354.669 172.33 358.663 169.293C362.4 166.475 367.259 165.031 373.238 164.961C375.795 164.931 377.985 165.035 379.807 165.274C381.63 165.469 383.477 165.946 385.35 166.704C387.265 167.462 388.794 168.505 389.937 169.835C391.122 171.165 392.098 173.017 392.862 175.391C393.626 177.723 394.027 180.513 394.066 183.763C394.143 190.349 392.338 195.332 388.651 198.712C384.963 202.049 379.978 203.755 373.695 203.828ZM371.271 191.181C371.593 192.737 371.907 193.665 372.214 193.965C372.564 194.264 372.999 194.411 373.519 194.405C374.082 194.398 374.514 194.241 374.814 193.935C375.157 193.627 375.449 192.692 375.691 191.129C375.976 189.566 376.105 187.614 376.077 185.274C376.049 182.891 375.963 181.072 375.818 179.817C375.716 178.518 375.574 177.523 375.393 176.832C375.255 176.14 375.053 175.601 374.789 175.214C374.392 174.655 373.912 174.379 373.349 174.385C372.829 174.392 372.398 174.57 372.055 174.921C371.712 175.228 371.398 176.185 371.114 177.792C370.829 179.355 370.703 181.589 370.738 184.492C370.772 187.395 370.95 189.625 371.271 191.181Z" fill="white"/>
<path d="M322.753 204.903C321.151 204.948 319.649 204.752 318.25 204.315C316.85 203.878 315.686 203.326 314.757 202.658C313.871 201.99 313.086 201.08 312.403 199.929C311.72 198.778 311.191 197.687 310.815 196.658C310.438 195.585 310.14 194.271 309.923 192.716C309.598 190.428 309.394 187.811 309.31 184.866C309.139 178.845 310.114 174.244 312.235 171.062C314.355 167.837 317.342 166.17 321.197 166.061C325.139 165.949 328.024 166.8 329.853 168.612C330.255 169.034 330.573 169.545 330.807 170.145L331.326 170.131L330.42 165.67L330.189 157.548C330.162 156.595 331.349 155.629 333.749 154.651C336.149 153.672 338.756 153.143 341.572 153.064C344.517 152.98 346.417 153.49 347.272 154.593C347.588 155.017 347.752 155.446 347.764 155.879L349.072 202.011C349.085 202.487 347.884 202.911 345.467 203.283C343.092 203.611 340.778 203.806 338.525 203.87C336.316 203.933 334.885 203.908 334.232 203.797C333.62 203.641 333.226 203.479 333.047 203.31C332.912 203.141 332.818 202.862 332.764 202.473L332.139 198.784L331.619 198.799C331.272 200.326 330.529 201.626 329.389 202.699C327.954 204.083 325.742 204.818 322.753 204.903ZM329.761 195.21C330.455 195.19 330.962 194.743 331.284 193.866L330.792 176.518C330.78 176.085 330.532 175.767 330.05 175.564C329.609 175.316 329.216 175.198 328.869 175.207C327.396 175.249 326.756 178.649 326.947 185.406C327.049 189.001 327.317 191.551 327.75 193.056C328.225 194.517 328.895 195.235 329.761 195.21Z" fill="white"/>
<path d="M286.101 206.379C282.855 206.535 280.049 206.388 277.685 205.938C275.321 205.488 273.152 204.594 271.179 203.258C267.102 200.59 264.877 195.361 264.502 187.57C264.169 180.645 265.944 175.592 269.825 172.412C273.458 169.461 278.261 167.841 284.234 167.554C286.787 167.431 288.979 167.456 290.81 167.628C292.638 167.757 294.502 168.167 296.4 168.856C298.342 169.544 299.908 170.531 301.098 171.819C302.331 173.105 303.373 174.92 304.223 177.265C305.071 179.567 305.574 182.341 305.73 185.587C306.046 192.166 304.423 197.212 300.861 200.724C297.297 204.192 292.377 206.078 286.101 206.379ZM283.22 193.828C283.598 195.372 283.945 196.288 284.263 196.576C284.624 196.863 285.064 196.993 285.583 196.968C286.146 196.941 286.571 196.769 286.86 196.451C287.192 196.132 287.45 195.187 287.635 193.616C287.863 192.043 287.92 190.088 287.808 187.751C287.693 185.37 287.541 183.555 287.351 182.307C287.202 181.012 287.024 180.023 286.818 179.339C286.655 178.652 286.434 178.121 286.155 177.744C285.739 177.2 285.249 176.941 284.686 176.968C284.167 176.993 283.742 177.187 283.413 177.55C283.081 177.87 282.802 178.838 282.576 180.454C282.348 182.026 282.304 184.263 282.444 187.163C282.583 190.063 282.842 192.285 283.22 193.828Z" fill="white"/>
<path d="M240.331 208.568L226.134 209.598C223.973 209.755 222.514 209.709 221.757 209.459C221.001 209.21 220.599 208.761 220.552 208.113L217.528 166.428C217.378 164.353 223.548 162.863 236.038 161.957C243.213 161.436 248.211 161.769 251.035 162.955C253.904 164.18 255.808 165.867 256.746 168.015C257.272 169.28 257.598 170.777 257.723 172.506C257.968 175.877 257.568 178.448 256.523 180.218C255.521 181.985 254.359 183.025 253.034 183.338C255.097 183.623 256.855 184.495 258.308 185.954C259.76 187.412 260.621 190 260.891 193.717C261.204 198.039 260.118 201.333 257.632 203.599C255.473 205.58 252.056 206.979 247.379 207.797C245.404 208.114 243.054 208.371 240.331 208.568ZM238.346 180.298C240.55 180.138 241.546 178.589 241.333 175.65C241.226 174.18 240.845 173.122 240.19 172.474C239.575 171.78 238.9 171.46 238.165 171.513L236.091 171.664L236.725 180.416L238.346 180.298ZM238.075 199.022L239.696 198.904C241.9 198.744 242.895 197.195 242.682 194.256C242.576 192.786 242.195 191.728 241.539 191.08C240.924 190.386 240.249 190.066 239.515 190.119L237.44 190.27L238.075 199.022Z" fill="white"/>
</svg>
