<svg width="804" height="307" viewBox="0 0 804 307" fill="none" xmlns="http://www.w3.org/2000/svg">
<path d="M419.906 0.0461002C427.568 0.0255888 428.224 1.57543 434.334 1.73555C447.323 2.07432 460.62 1.48087 473.154 1.0754C477.006 0.953438 480.752 0.849654 484.408 0.797077C491.4 0.698185 498.795 0.930193 505.897 1.45235C494.558 4.94862 519.187 9.13514 510.221 2.49532C513.851 3.13897 516.875 3.00785 521.37 3.84493C525.504 4.53208 530.205 5.90742 533.635 7.65157C534.111 7.88506 534.487 8.07753 534.715 8.20723C539.988 10.5521 541.528 13.4364 543.137 15.6857C544.647 18.0181 545.807 20.287 547.328 22.7346C547.722 23.3679 548.115 23.9758 548.509 24.5549C551.507 28.9951 554.203 33.4859 556.137 36.3479C559.486 42.0712 559.144 45.4157 559.225 47.8117C559.137 50.2276 558.584 51.9325 557.488 52.9992C557.612 53.8502 557.724 54.6888 557.828 55.5217C558.64 61.969 559.032 67.9537 559.848 72.7141C560.068 73.9987 560.323 75.1955 560.62 76.2678C564.593 77.3452 569.404 78.9019 572.232 79.5783C573.147 79.8068 575.262 80.1624 578.614 81.2033C578.123 81.1849 580.267 81.5307 581.745 81.6555C583.384 81.8159 585.223 81.9518 587.111 82.0773C590.895 82.3268 594.912 82.5388 598.498 82.7277C604.172 82.9857 608.764 84.0152 610.38 84.3361C614.435 85.1554 620.262 86.6431 624.504 87.3566C625.901 87.614 626.922 87.8203 627.804 87.9621C632.976 88.8134 637.301 85.7866 645.02 92.468C645.057 92.4754 645.096 92.483 645.133 92.4904C653.492 94.0972 657.31 94.6115 664.115 96.048C665.417 96.3217 666.795 96.6111 668.333 96.9221C670.055 97.2671 670.147 97.984 671.171 98.1213C673.254 98.397 676.857 98.313 680.573 98.5578C683.76 98.7913 686.311 99.2201 688.773 99.8566C690.079 100.212 690.854 100.161 690.748 99.0256C694.942 99.6044 699.129 100.225 703.311 100.881C704.64 101.662 705.97 102.447 707.289 103.235C709.582 103.333 711.882 103.443 714.184 103.564C713.206 104.275 713.815 104.963 715.079 105.513C718.426 106.853 725.805 108.113 722.591 105.546C727.678 107.779 731.921 110.103 736.197 111.863C738.875 112.97 741.591 114.002 744.336 114.952C742.447 117.967 757.213 118.96 758.733 116.864C759.128 116.614 759.273 116.353 759.075 116.09C760.072 116.153 761.064 116.228 762.052 116.316C767.636 117.519 772.366 117.762 779.242 119.948C782.308 121.047 785.584 122.374 789.026 124.339C790.719 125.308 792.039 126.169 793.052 126.872C799.361 131.683 798.215 132.688 798.888 135.828C799.736 137.077 800.418 138.301 801 139.222C802.528 142.346 802.058 143.363 802.271 144.549C804.092 149.108 804.145 151.47 803.729 153.927C802.977 158.354 800.613 162.328 802.828 175.657C801.391 178.876 800.97 184.399 800.993 190.447C801.07 197.046 800.911 204.679 799.904 210.522C799.71 211.801 800.245 211.979 800.055 213.582C800.044 213.675 800.032 213.77 800.02 213.866C799.512 217.427 797.622 224.993 798.194 227.188C798.283 227.592 798.447 227.82 798.712 227.817C797.32 231.8 795.615 235.305 793.812 238.715C793.65 239.368 793.483 240.02 793.311 240.669C792.953 242.328 793.003 243.798 792.959 246.322C793.531 246.38 794.103 246.438 794.674 246.495C794.179 247.589 793.711 249.054 793.119 250.643C791.157 254.789 791.285 262.036 790.649 265.763C790.497 266.676 789.708 266.827 789.303 269.662C789.3 269.684 789.297 269.707 789.294 269.729C789.022 273.338 786.981 279.354 784.619 282.809C783.963 283.879 783.157 284.795 782.371 285.486C781.132 287.882 779.366 289.752 777.951 291.321C776.909 291.837 776.058 292.175 775.331 292.438C770.518 294.172 767.78 293.464 764.306 294.791C764.168 294.844 763.595 295.094 762.736 295.465C758.236 297.68 748.365 298.946 747.76 298.973C745.241 299.355 744.023 299.807 742.333 300.285C739.924 300.966 735.131 300.666 730.506 299.248C729.113 298.898 727.153 298.521 724.371 298.031C722.81 297.75 721.323 297.336 719.682 296.813C718.267 296.339 716.95 295.862 715.53 295.501C713.65 295.026 710.363 294.369 706.894 293.663C703.024 293.131 695.96 293.602 695.027 294.298C693.91 293.83 692.41 293.387 690.503 292.801C685.997 291.26 678.192 289.931 672.986 288.729C670.457 288.165 668.577 287.554 667.531 287.145C666.351 286.687 666.237 285.625 663.501 284.657C663.161 284.546 662.787 284.435 662.373 284.328C659.03 283.4 650.093 283.008 645.696 282.477C641.023 281.857 639.379 280.798 637.186 280.543C635.833 280.386 634.571 280.6 632.772 280.589C631.8 280.581 630.779 280.509 629.693 280.297C623.684 279.06 618.987 277.162 614.457 275.812C611.794 275.009 609.263 274.271 606.836 273.731C602.559 272.786 598.262 272.296 594.874 272.529C588.681 272.46 584.754 272.299 580.604 272.504C580.52 272.506 580.437 272.509 580.354 272.511C578.442 272.164 576.56 271.517 574.494 271.384C571.595 271.194 568.633 271.079 565.536 270.98C563.978 270.928 562.4 270.881 560.701 270.799C558.902 270.668 557.501 270.755 554.294 270.024C548.589 268.496 542.242 267.552 535.346 266.143C533.256 265.695 530.991 265.457 528.487 265.323C525.904 265.139 523.462 265.308 519.294 264.618C516.005 263.937 510.977 263.846 506.424 263.573C501.813 263.335 497.222 263.093 492.72 262.841C492.18 262.81 491.625 262.781 491.057 262.751C478.777 262.059 447.585 258.874 455.88 264.092C451.617 264.944 420.967 262.875 414.138 262.675C414.017 262.672 413.903 262.669 413.798 262.667C407.753 262.57 402.963 263.429 398.214 263.361C388.239 263.201 380.455 262.785 370.687 262.817C366.488 262.829 361.895 262.922 356.635 263.155C352.163 263.357 347.349 264.456 344.697 264.443C341.498 264.424 338.053 263.36 333.91 263.299C324.033 263.155 305.64 263.593 296.187 263.529C294.467 263.513 293.838 262.585 291.375 262.326C289.262 262.103 287.048 261.946 284.99 261.872C277.614 261.604 271.536 262.428 273.087 264.697C267.312 264.109 260.918 264.281 257.469 265.378C252.954 266.664 249.716 268.868 244.03 271.659C243.664 271.833 243.304 272.002 242.949 272.165C239.76 273.613 236.124 275.161 231.703 276.465C227.549 277.859 220.881 278.379 218.585 278.697C208.827 280.561 196.791 281.992 186.323 282.697C183.755 282.885 181.502 283.346 178.63 284.083C175.782 284.818 172.519 285.668 169.446 286.295C163.362 287.568 157.941 288.899 153.555 290.13C151.571 290.686 149.909 291.191 148.404 291.656C146.726 292.136 146.1 292.509 143.273 293.031C140.163 293.766 138.283 295.274 127.2 297.009C125.524 297.19 123.685 297.388 121.664 297.65C118.014 298.06 115.734 298.731 109.218 299.767C108.759 299.815 108.296 299.867 107.822 299.926C102.494 300.528 97.3161 301.497 90.6653 302.281C85.1949 302.76 79.4582 303.972 74.1585 305.92C68.6544 306.087 63.862 306.031 59.3607 305.898C55.5661 305.798 51.6171 305.283 47.8548 303.988C44.1009 302.743 40.7615 300.545 39.2679 299.338C38.4091 298.724 37.4286 298.048 36.429 297.301C35.0165 297.355 33.5243 297.352 31.97 297.26C30.9522 296.762 29.9208 296.22 28.8968 295.631C26.5553 294.306 24.7438 292.114 23.8109 290.324C23.6327 288.743 23.8351 287.478 24.1448 286.416C23.0077 281.454 23.2533 278.514 22.6702 276.071C22.0644 273.106 20.9441 270.489 19.4359 268.257C17.614 265.624 14.6627 260.576 13.6019 256.018C13.0735 254.103 12.5961 252.258 12.22 250.547C11.3592 246.64 10.2027 241.241 8.86749 235.133C8.06148 231.445 7.00232 227.081 6.12237 222.534C5.21153 218.028 4.70434 212.918 4.79718 208.219C4.8825 203.487 5.21086 199.832 5.07843 196.445C4.74662 186.691 4.28242 178.174 3.9544 172.714C3.69518 168.292 3.2195 165.879 3.15851 163.918C3.13491 162.662 3.33243 161.513 4.15362 159.071C3.65285 157.283 3.09989 155.387 2.58722 153.392C1.82154 152.216 1.06785 150.985 0.346982 149.681C0.187899 148.357 0.0699746 146.969 0.0159277 145.527C-0.11941 139.88 0.552266 133.809 4.18487 127.569C6.38593 123.75 10.2571 120.397 13.4603 118.625C16.6906 116.776 19.2561 115.721 21.4251 114.564C22.5821 113.959 23.7038 113.332 24.8255 112.641C29.5203 109.74 34.8727 107.903 38.6829 106.12C45.142 103.263 50.9661 101.889 57.3792 100.751C58.9182 100.453 63.1856 99.3524 66.6419 99.1965C74.6997 98.6179 82.6885 98.1595 89.4798 98.2443C91.284 98.2645 93.2563 98.4084 95.2728 98.5842C98.1666 98.9202 101.183 98.931 104.146 98.3938C107.814 97.7331 110.356 96.8011 113.373 96.1242C115.829 95.5541 118.423 95.1065 122.426 95.0227C125.982 94.9462 130.183 94.977 134.637 94.8684C142.734 94.6632 152.683 93.9873 161.786 93.9084C168.738 93.831 174.998 93.9358 179.735 93.8059C183.991 93.6968 185.961 92.9674 188.867 92.8557C189.642 92.8253 190.402 92.7961 191.147 92.7658C198.39 92.5006 203.182 91.9105 209.698 89.9797C213.34 88.9754 217.112 87.9725 221.041 86.9377C224.18 86.8499 226.515 86.9846 228.315 87.2268C228.365 87.2204 228.514 87.2013 228.565 87.1965C233.529 88.1743 233.999 89.8175 237.208 91.0022C238.717 91.5451 241.783 92.1656 244.687 92.8996C246.704 91.9044 246.041 91.5248 246.492 91.0764C246.728 90.6439 246.929 90.25 247.12 89.8664C247.501 89.103 247.838 88.4017 248.156 87.7873C248.785 86.5566 249.34 85.6935 249.758 85.4924C249.839 85.4353 249.924 85.4004 250.01 85.3801C248.999 85.1042 247.847 81.2057 246.673 80.6535C245.483 80.0861 238.021 80.7246 237.361 75.2844C237.129 72.8558 236.781 69.2874 237.426 64.4152C238.605 57.5204 239.325 50.352 240.735 44.593C241.095 43.2273 241.465 42.1248 241.699 41.3928C242.67 38.252 244.062 34.5746 245.977 31.4221C246.132 31.1501 246.292 30.8654 246.46 30.5725C248.746 26.4574 250.833 21.8899 253.503 17.9016C256.001 14.0323 259.55 10.5499 263.324 7.63692C264.874 6.46698 266.71 5.36328 268.759 4.47872C272.698 3.85829 276.255 4.43412 278.229 4.80001C280.817 4.97247 282.324 5.41684 284.233 5.7668C290.006 5.20969 298.779 6.45077 302.218 6.35958C305.096 6.28511 306.742 5.50306 309.743 5.4543C312.044 5.41423 315.108 5.78153 318.83 5.97481C320.485 6.06549 322.42 6.11726 324.309 6.07247C334.34 5.84655 336.052 3.82682 342.046 3.56173C348.26 3.2879 357.913 4.37808 365.829 3.66719C366.821 3.44497 367.824 3.22228 368.817 3.0002C368.108 2.49783 367.387 1.99566 366.675 1.49337C370.67 1.2595 372.394 2.2896 376.046 2.30977C380.373 2.33423 382.56 1.35937 385.466 1.36641C387.841 1.3731 391.067 2.15918 394.15 2.11446C398.645 2.05341 397.664 0.922537 400.083 0.715046C401.057 0.632052 418.884 0.0492842 419.906 0.0461002ZM437.647 16.9221C434.479 16.944 432.432 18.1364 425.984 18.4104C404.564 19.3085 375.703 17.9992 355.321 18.6164C345.253 18.9186 331.424 20.4638 321.516 20.8293C320.717 20.8584 319.823 20.8792 318.874 20.8938C310.014 21.0202 294.593 20.6835 291.486 21.3274C289.367 21.7538 288.392 23.0632 285.893 23.2629C284.205 23.4069 280.966 22.9703 280.112 22.8488C279.294 22.8819 278.633 22.8918 278.087 22.924C274.164 23.1397 274.41 23.2411 273.293 23.6438C270.73 25.0783 269.519 25.8473 267.865 27.8566C267.157 28.7654 266.418 29.8338 265.586 31.1897C264.288 33.2077 262.939 36.2514 259.876 40.8693C258.074 43.487 256.906 45.5834 256.327 48.051C255.857 49.8044 255.624 53.1619 255.24 56.508C254.87 59.8539 254.428 63.147 253.936 66.2287C253.282 69.7169 253.434 75.6196 252.831 79.2922C252.319 82.9069 251.483 85.1582 250.39 85.385C251.394 85.6171 252.607 87.3253 253.573 86.3557C253.675 87.2561 253.783 88.2489 253.84 89.3996C253.866 89.9922 253.889 90.5936 253.838 91.4953C253.804 91.963 253.779 92.4563 253.58 93.3977C253.456 93.9108 253.352 94.4661 252.826 95.6047C252.555 96.1557 252.137 96.9631 251.239 97.9475C250.376 98.9055 248.738 100.17 246.548 100.682L246.577 100.677C241.205 102.291 235.514 103.547 230.311 103.593L230.586 103.559C226.669 103.711 222.758 103.721 217.896 103.98C216.303 104.307 214.723 104.654 213.124 105.024C206.569 106.771 198.229 107.686 191.389 107.708C181.602 107.868 172.017 107.923 162.591 108.466C158.284 108.716 153.975 109.092 149.59 109.517C147.491 109.039 145.371 108.571 143.241 108.094C143.24 108.093 143.241 108.091 143.241 108.09C140.144 108.103 137.668 108.341 135.548 108.66C131.622 109.244 128.965 110.135 125.874 110.466C122.142 110.872 118.007 111.129 114.147 111.525C109.612 111.915 103.533 114.092 95.7366 114.46C86.9629 114.937 77.6089 115.638 67.6165 116.279C65.3291 116.396 63.9476 116.84 59.8255 117.554C54.911 118.29 49.2965 119.556 45.3323 121.212C40.1947 123.353 36.2222 124.581 33.0882 126.427C29.5514 128.517 25.8057 130.169 23.1067 131.569C20.3347 133.038 19.3063 133.878 18.2181 135.605C16.9569 137.579 16.2219 141.303 16.3284 144.74C16.4121 150.038 17.9916 155.487 18.5921 162.732C19.4148 173.047 20.3732 183.801 20.8109 192.606C20.8582 193.435 20.9173 194.362 20.9886 195.458C21.2355 198.727 21.1418 203.072 21.14 207.041C21.1425 211.022 21.5592 214.905 22.4905 219.019C23.4156 223.222 24.4969 227.326 25.386 231.257C26.6311 236.791 27.4926 241.296 27.6556 243.49C27.7949 245.408 26.9021 246.15 27.2952 248.135C27.6963 249.697 28.0954 251.264 28.4876 252.835C29.234 255.774 30.5331 258.025 32.5814 261.61C34.7385 265.552 36.1088 269.957 36.7796 274.268C37.1822 276.865 37.2922 279.196 37.5472 280.971C37.6032 281.383 37.6736 281.765 37.7444 282.072C39.9928 283.2 42.4491 284.093 45.473 285.292C46.8619 285.865 47.9461 286.381 48.9007 286.776C52.1739 288.566 55.2668 289.265 59.3538 289.393C69.3639 289.755 77.8957 288.917 88.2503 286.984C93.3664 286.109 99.8088 283.988 106.281 282.857C108.532 282.453 111.619 281.38 114.867 280.607C118.1 279.814 121.269 279.212 124.433 278.689C129.123 277.972 134.395 275.73 141.31 274.855C142.44 274.647 145.494 273.937 147.693 273.436C150.061 272.895 152.443 272.358 154.83 271.839C158.629 271.013 162.429 270.222 166.254 269.47C171.68 268.508 177.764 266.186 185.123 265.674C195.616 264.896 205.217 263.702 215.661 261.644C221.024 260.87 223.279 260.861 226.669 259.806C229.909 258.845 233.336 257.414 236.759 255.817C241.085 253.737 247.142 250.499 253.256 249.016C259.627 247.446 264.477 247.472 269.612 247.127C274.711 246.871 279.674 246.72 284.699 246.594C313.533 245.962 342.16 245.86 370.777 245.901C385.37 245.897 399.896 246.267 414.315 246.403C427.146 246.528 440.125 246.538 453.052 246.638C465.254 246.744 479.481 246.483 493.326 246.871C501.189 247.13 508.564 247.324 515.776 247.873C517.954 248.05 520.214 248.426 522.154 248.973C523.03 249.396 525.273 249.737 527.75 249.92C530.312 250.131 533.451 250.121 538.02 250.492C538.065 250.956 538.107 251.42 538.146 251.883C538.155 251.884 538.163 251.886 538.172 251.887C545.196 252.796 550.626 252.67 558.353 254.284C558.264 254.229 560.05 254.375 561.602 254.403C565.657 254.532 574.143 254.523 582.409 255.415C588.16 255.973 593.836 257.434 596.38 257.688C598.268 257.899 599.711 258.167 600.83 258.384C604.923 259.228 603.229 259.762 606.881 260.518C609.476 261.064 613.271 261.704 617.409 262.37C623.436 263.34 630.037 264.816 634.039 265.445C634.298 265.486 634.558 265.527 634.815 265.565C641.492 266.257 654.85 268.27 660.579 269.272C662.531 269.558 664.499 269.873 666.479 270.225C670.327 270.908 673.702 271.945 676.398 272.359C682.223 273.385 687.773 274.087 694.271 275.202C698.572 275.998 704.189 275.683 711.716 277.657C715.499 278.729 719.384 279.737 723.014 280.518C724.094 280.749 725.517 280.98 727.018 281.237C729.295 281.631 732.061 282.213 734.973 283.22C739.659 285.05 740.768 285.493 741.527 285.46C741.581 285.457 741.635 285.452 741.687 285.447C745.046 285.168 746.007 284.072 748.19 283.694C751.127 283.166 754.446 282.487 756.813 281.507C760.468 279.975 764.881 278.143 769.147 276.63C771.982 275.709 772.83 275.033 772.657 275.373C774.474 272.539 775.156 270.634 775.316 268.747C775.345 268.348 775.373 267.961 775.399 267.574C775.903 261.232 775.862 254.844 777.637 246.888C778.17 245.246 778.086 240.519 780.01 235.575C781.473 231.73 782.766 227.787 783.467 224.249C784.313 219.921 785.159 215.347 786.173 210.766C787.115 206.706 787.798 203.861 788.199 200.521C788.606 197.246 788.777 193.821 788.807 190.31C788.894 178.188 789.053 165.939 788.773 154.42C788.705 152.267 788.655 150.131 788.615 148.01C788.594 146.968 788.577 145.897 788.548 144.998C788.559 144.927 788.561 144.853 788.56 144.779C787.055 141.978 786.575 141.427 785.21 140.569C781.764 138.557 778.103 136.932 773.781 135.4C770.047 134.156 763.433 133.297 757.816 132.947C747.548 131.843 739.64 129.641 731.423 127.058C722.971 124.252 716.871 121.206 711.29 119.671C709.711 119.205 708.195 118.758 706.752 118.33C701.743 116.856 703.374 116.086 699.113 115.016C694.387 113.841 691.641 113.997 689.423 113.541C688.264 113.302 687.145 113.083 685.667 112.775C684.465 112.558 679.446 112.425 675.33 112.053C671.013 111.693 666.442 111.152 661.829 110.491C655.308 109.589 648.085 108.49 641.731 106.952C634.79 105.318 628.597 103.632 624.364 102.327C623.25 101.985 622.27 101.544 621.616 101.196C620.349 100.64 619.3 100.103 618.314 99.8879C617.457 99.7006 615.361 99.8587 612.732 99.3283C607.141 98.1806 602.73 97.4856 598.214 97.4709C594.433 97.4288 590.756 97.3741 587.068 97.2697C585.219 97.2161 583.38 97.1521 581.467 97.0471C579.356 96.865 578.239 97.0494 574.353 96.1574C569.277 94.7469 561.913 94.1446 554.354 93.1887C550.341 92.5026 549.386 90.6613 548.637 89.8605C548.014 89.0253 547.727 88.4352 547.477 87.9113C547.036 86.9504 546.822 86.2547 546.629 85.6145C546.258 84.339 546.042 83.289 545.841 82.2482C544.312 73.418 543.763 65.3406 542.962 56.8244C542.743 54.3822 542.53 51.9373 542.248 49.7063C541.995 47.4653 541.489 45.6572 541.326 45.592C538.555 41.1113 536.616 37.203 534.28 33.6457C532.787 31.3388 531.474 29.1068 530.253 27.3166C529.502 26.0744 528.462 25.1088 528.229 24.8488C523.264 22.8054 520.896 21.6938 517.185 20.8274C515.088 20.2894 510.805 20.1346 507.183 19.9699C503.408 19.8178 499.587 19.7191 495.791 19.633C488.141 19.4634 480.562 19.3514 472.955 19.2268C467.419 19.1369 461.897 19.0427 456.452 18.9328C446.184 18.7267 439.11 16.9118 437.647 16.9221ZM37.8636 282.524C37.8988 282.634 37.9326 282.718 37.9612 282.767C38.034 282.903 38.0138 282.764 37.8636 282.524ZM538.629 265.165C540.632 265.274 542.588 265.356 544.523 265.448C543.522 264.909 542.511 264.371 541.492 263.831C540.514 263.671 539.53 263.509 538.536 263.339C538.566 263.948 538.599 264.557 538.629 265.165ZM560.781 76.8244C560.991 77.5143 561.223 78.1447 561.481 78.7043C562.112 80.1086 563.337 81.6272 563.701 80.1105C563.599 79.8964 563.455 79.555 562.898 78.8313C562.502 78.4769 562.053 77.6381 560.781 76.8244ZM550.373 29.6613C548.414 29.5356 553.657 37.3904 554.763 37.2053C554.917 37.2862 555 37.2482 554.991 37.0627C555.054 36.8874 555.013 36.5482 554.826 35.9699C554.535 35.0513 551.085 29.7802 550.373 29.6613Z" fill="#31260C"/>
<path d="M248.696 70.2949C248.17 74.929 248.977 79.4806 248.977 89.4307C248.977 91.0602 249.44 95.4525 248.696 95.5602C244.556 96.5168 240.096 97.8817 233.954 98.5152C226.146 99.5668 220.726 100.655 216.539 101.578L216.165 101.661C210.182 102.981 206.749 103.739 196.694 103.897C190.036 104.001 178.329 104.001 168.275 104.54C158.222 105.078 150.068 106.124 141.899 106.646C133.73 107.169 125.782 107.041 120.953 107.277C114.446 107.593 110.249 109.186 103.088 109.389C92.0141 109.703 81.6779 110.412 75.3656 110.761C71.5836 110.97 69.3169 111.707 67.0382 112.028C62.4991 112.668 55.5079 114.134 50.7857 116.149C47.067 117.736 42.302 119.149 37.992 121.651C30.1778 126.187 24.5194 127.147 20.9033 133.263C18.5846 137.184 18.0913 142.2 18.2774 145.942C18.5973 152.376 20.4194 158.217 20.8114 163.155C21.3467 169.898 22.3412 175.004 23.5577 194.006C24.0835 202.22 22.6639 207.091 24.9324 217.319C25.984 222.061 26.876 225.286 27.7831 229.03C29.3796 235.618 31.3501 244.108 32.4267 248.985C33.3833 253.318 35.2669 256.237 36.5477 258.69C37.8178 261.123 39.1145 264.415 39.712 268.943C40.3518 273.793 39.7178 278.976 42.6768 280.651C45.8507 282.447 48.8565 283.555 51.4413 284.661C55.1505 286.248 58.842 288.779 67.7572 288.775C83.6455 288.769 87.3897 287.594 96.9586 286.131C101.827 285.386 107.185 283.593 114.697 282.33C119.122 281.585 121.557 280.21 132.337 278.633C138.14 277.784 143.078 275.832 148.583 275.256C150.582 275.047 160.176 272.741 173.537 270.287C181.002 268.915 184.7 267.355 191.18 266.913C208.268 265.747 214.06 264.495 221.762 263.217C226.817 262.377 230.72 263.313 244.258 257.297C248.99 255.193 252.648 253.009 259.158 251.386C261.723 250.746 265.487 249.91 288.153 249.492C310.82 249.074 351.168 249.074 372.096 249.181C393.024 249.289 394.487 249.498 414.604 249.71C434.721 249.923 472.361 249.745 491.597 250.452C511.679 251.19 514.724 251.125 518.666 251.823C522.246 252.457 528.124 251.864 534.507 253.09C539.984 254.142 547.147 255.094 553.506 256.682C556.879 257.525 566.359 256.953 578.137 258.158C584.329 258.792 588.12 259.903 591.83 260.268C596.15 260.692 602.459 262.132 611.579 264.072C618.564 265.557 624.365 267.246 629.099 267.87C633.958 268.51 645.493 268.746 659.624 271.569C663.302 272.304 665.787 273.198 669.238 273.894C678.088 275.681 682.759 276.38 686.535 277.163C691.607 278.215 698.096 278.327 702.794 279.697C707.875 281.18 712.046 282.145 714.612 282.653C717.796 283.283 722.099 283.657 725.806 284.658C728.553 285.399 731.468 286.495 735.005 286.346C742.73 286.02 748.72 285.056 753.05 283.277C756.642 281.801 759.417 280.554 764.77 278.525L764.98 278.446C767.96 277.318 770.721 276.273 772.258 273.771C773.95 271.018 775.665 267.704 775.948 263.511C776.484 255.586 776.715 249.157 777.956 244.202C778.802 240.825 778.537 238.098 779.965 234.487C781.552 230.474 782.988 226.212 783.763 222.454C784.504 218.855 785.323 214.561 786.404 209.885C787.456 205.337 789.117 200.319 789.252 188.824C789.356 179.895 789.544 163.166 789.249 154.485C788.932 145.173 789.154 143.743 788.507 142.636C787.025 140.098 785.554 136.797 781.425 134.508C778.574 132.927 774.987 131.117 768.856 129.018C764.84 127.644 757.244 126.628 750.909 126.278C749.015 126.174 739.574 124.987 727.118 121.198C719.861 118.99 715.046 116.511 707.01 114.429C692.76 110.735 682.886 108.616 681.651 108.328C678.468 107.587 673.669 108.002 657.854 105.579C651.652 104.628 646.271 103.887 638.823 102.189C628.174 99.7632 621.486 97.9905 618.801 97.4477C608.352 95.335 602.95 93.5972 594.582 93.4408L593.971 93.4294C583.107 93.2265 575.362 93.0819 573.208 92.4874C568.238 91.1158 560.235 90.5049 552.41 89.6398C550.519 89.4307 549.162 77.8033 547.71 61.7585C546.969 53.5673 546.609 50.3721 545.065 47.9766C542.952 44.6982 540.995 40.8071 538.198 36.5672C534.919 31.5974 532.353 26.6285 528.907 25.389C526.266 24.4388 522.936 22.5642 517.054 21.1604L516.99 21.1451C514.749 20.6092 511.301 19.7849 472.091 19.3707C432.507 18.9526 358.71 18.9526 321.381 19.0603C284.052 19.168 283.218 19.3956 282.367 19.4816C279.199 19.8015 275.352 19.6056 271.173 22.1265C268.011 24.0333 265.445 26.1133 263.152 29.3167C259.979 33.7513 258.049 38.3192 255.55 41.8791C252.807 45.7878 251.457 48.7119 250.701 52.0152C249.855 55.7085 250.056 58.3089 248.696 70.2949Z" fill="#13546A"/>
<path d="M420.458 11.7188C427.888 11.7118 428.523 12.7458 434.451 12.8594C447.076 13.1012 459.997 12.724 472.165 12.4903C475.867 12.4211 479.463 12.3655 482.969 12.3457C489.746 12.3095 496.896 12.5032 503.724 12.919C492.872 15.138 516.63 18.1974 507.879 13.6612C511.542 14.1691 514.544 14.0747 518.564 14.835C522.232 15.495 526.147 16.6449 529.562 18.2657C530.226 18.5714 530.785 18.8375 531.196 19.0274C535.005 20.6288 536.544 22.8753 538 24.7979C539.409 26.7799 540.561 28.8168 542.023 31.1075C542.473 31.8122 542.923 32.4954 543.376 33.1514C546.198 37.2439 548.667 41.468 550.638 44.3848C553.417 48.9728 553.221 52.0436 553.375 54.252C553.397 56.4995 553.073 58.1105 552.376 59.1055C552.473 59.846 552.563 60.579 552.649 61.3116C553.394 67.6317 553.848 73.4898 554.614 78.1914C554.916 80.0409 555.273 81.7302 555.709 83.1162C559.88 83.8881 566.147 85.5153 569.451 86.2549C570.23 86.4325 571.978 86.7302 574.585 87.5C575.512 87.8054 579.837 88.1178 583.367 88.3028C587.1 88.503 591.081 88.6672 594.669 88.8174C600.262 89.0198 604.84 90.019 606.435 90.3272C610.132 91.0589 615.571 92.3801 619.679 93.1055C621.137 93.3799 622.263 93.6219 623.21 93.792C628.122 94.6915 632.04 92.9535 639.81 97.8584C639.865 97.893 639.919 97.9278 639.974 97.9629C648.175 99.5722 651.982 100.052 658.51 101.292C659.831 101.541 661.236 101.803 662.812 102.084C664.49 102.381 664.62 102.867 665.623 102.996C667.662 103.256 671.171 103.319 674.809 103.568C677.936 103.8 680.414 104.123 682.508 104.647C683.817 104.975 684.522 104.979 684.348 104.201C688.378 104.843 692.406 105.524 696.424 106.237C697.745 106.855 699.066 107.478 700.378 108.103C702.567 108.32 704.75 108.545 706.942 108.782C706.037 109.221 706.758 109.757 708.097 110.233C711.379 111.32 718.013 112.727 714.864 110.715C719.806 112.683 724.145 114.846 728.558 116.464C731.158 117.426 733.784 118.318 736.436 119.138C734.731 121.524 753.016 122.704 751.156 120.768C751.181 120.769 751.201 120.771 751.213 120.772C752.11 120.823 753.003 120.885 753.894 120.957C759.352 121.905 764.144 122.186 770.522 124.15C773.295 125.112 776.224 126.254 779.315 127.864C781.212 128.856 782.633 129.719 783.7 130.405C788.682 133.951 788.033 134.734 788.994 137.343C789.923 138.629 790.656 139.948 791.313 140.996C792.405 143.042 792.174 144.117 792.314 145.066C793.61 149.594 793.623 151.911 793.357 154.346C792.878 158.534 791.386 162.447 792.82 175.203C791.893 178.206 791.582 183.26 791.55 188.852C791.586 195.383 791.108 203.038 789.881 208.698C789.708 209.627 789.884 209.903 789.866 210.686C789.859 210.926 789.835 211.213 789.78 211.578C789.34 214.345 787.995 220.116 787.675 223.26C787.521 224.634 787.506 225.496 787.878 225.478C786.591 229.125 785.031 232.471 783.368 235.735C783.359 235.764 783.349 235.793 783.34 235.822C782.665 238.014 782.824 240.223 782.464 243.655C782.844 243.708 783.223 243.76 783.603 243.812C783.406 244.329 783.198 244.884 782.971 245.458C780.827 249.943 780.948 258.329 780.354 262.437C780.288 262.92 780.101 263.19 779.889 263.777C779.696 264.384 779.49 265.262 779.112 266.756C778.541 269.218 777.022 272.828 775.235 275.6C773.885 277.816 771.812 279.166 770.327 279.872C769.023 281.181 767.694 282.25 766.569 283.274C766.51 283.328 766.451 283.381 766.393 283.434C760.72 285.907 757.954 285.808 754.526 286.867C754.149 286.989 753.762 287.115 753.37 287.246C752.972 287.415 749.175 288.673 745.462 289.241C741.743 289.869 738.093 290.105 737.719 290.149C736.692 290.258 735.891 290.371 735.18 290.492C732.301 290.918 729.667 291.048 724.452 289.677C722.581 289.239 719.918 288.861 715.653 288.152C714.967 288.032 714.292 287.886 713.611 287.71C711.318 287.102 709.404 286.358 707.247 285.798C705.898 285.446 703.79 284.963 701.42 284.407C696.708 283.471 688.131 283.693 687.031 284.032C686.512 283.848 685.914 283.655 685.235 283.438C681.336 282.071 673.776 280.773 668.095 279.552C664.71 278.831 662.261 278.035 660.979 277.628C660.173 277.36 659.86 276.921 658.661 276.393C657.976 276.106 657.038 275.79 655.616 275.479C652.299 274.693 643.525 274.161 639.19 273.728C634.585 273.217 632.945 272.482 630.783 272.239C630.066 272.159 629.344 272.142 628.54 272.113C627.08 272.062 625.549 272.009 623.74 271.624C618.895 270.565 614.708 269.183 610.72 268.109C607.51 267.239 604.482 266.413 601.622 265.807C598.015 265.049 594.47 264.544 591.41 264.546C585.805 264.303 581.733 263.852 577.546 263.923C576.973 263.922 576.41 263.922 575.843 263.92C573.935 263.65 572.052 263.19 570.003 263.08C567.344 262.935 564.631 262.848 561.828 262.766C558.877 262.609 556.587 262.848 552.181 261.984C546.402 260.506 540.124 259.625 533.501 258.333C528.886 257.322 524.564 257.81 517.76 256.942C509.994 255.845 500.015 255.876 491.417 255.348C490.618 255.308 489.733 255.268 488.934 255.233C476.921 254.665 446.689 252.519 454.739 256.006C450.654 256.556 421.673 255.206 414.548 255.01C414.318 255.004 414.112 255 413.931 254.997C408.085 254.914 403.446 255.467 398.844 255.398C389.158 255.241 381.566 254.936 372.066 254.944C368.002 254.947 363.561 255.004 358.47 255.156C354.133 255.288 349.463 256.02 346.887 256.011C343.782 255.998 340.44 255.289 336.42 255.25C326.837 255.156 308.985 255.471 299.807 255.458C298.12 255.453 297.524 254.835 295.139 254.671C292.826 254.514 290.46 254.414 288.244 254.384C281.377 254.287 275.891 254.903 277.307 256.355C271.274 256.023 264.928 256.147 260.641 257.336C255.946 258.577 252.258 260.793 246.917 263.279C246.879 263.296 246.842 263.313 246.805 263.33C243.668 264.732 240.079 266.238 235.855 267.489C231.835 268.833 225.852 269.303 222.837 269.687C213.179 271.476 201.786 272.784 191.626 273.446C186.412 273.729 180.712 275.76 174.745 276.863C169.343 277.935 164.524 279.03 160.561 280.027C155.655 281.227 153.603 282.07 149.383 282.911C146.197 283.426 143.64 284.828 133.473 286.404C132.246 286.542 130.915 286.698 129.497 286.885C125.374 287.369 122.576 288.123 116.208 289.268C116.097 289.284 115.985 289.299 115.872 289.314C109.96 289.979 104.396 291.202 97.8726 292.111C93.149 292.671 88.5318 293.712 84.0953 295.062C78.0179 295.446 72.7054 295.434 67.7603 295.322C64.2903 295.245 60.7672 294.796 57.4351 293.691C54.1003 292.628 51.1432 290.751 49.3609 289.524C49.0566 289.329 48.7426 289.13 48.4234 288.926C47.2176 288.867 45.947 288.79 44.6256 288.657C42.9976 287.958 41.307 287.162 39.647 286.238C39.626 286.198 39.6046 286.157 39.5836 286.116C38.6141 285.156 37.8828 283.987 37.5064 282.899C35.1678 279.561 35.2725 277.087 34.9468 275.035C34.7262 272.974 34.5957 271.173 34.2994 269.657C33.7309 266.631 32.6563 263.878 31.1646 261.501C29.3822 258.781 26.8674 254.409 25.9781 250.408C25.6368 249.068 25.3189 247.77 25.0426 246.548C24.1341 242.539 22.8772 236.925 21.4117 230.573C20.5876 227.01 19.5436 222.938 18.6724 218.708C17.787 214.566 17.2926 209.962 17.3521 205.653C17.4037 201.322 17.6974 197.744 17.525 194.393C17.1095 185.001 16.545 176.771 16.1256 171.514C15.8233 167.633 15.4762 165.365 15.357 163.588C15.2424 162.026 15.2434 160.836 15.6832 158.228C15.2267 156.447 14.7358 154.593 14.3013 152.662C13.7328 151.502 13.1833 150.3 12.6734 149.041C12.5763 148.131 12.502 147.193 12.4595 146.231C12.2973 141.216 12.9186 135.746 16.0933 130.419C18.2154 126.797 21.9282 123.894 24.9908 122.323C28.0919 120.678 30.6981 119.614 32.9801 118.397C33.7672 117.983 34.5549 117.549 35.3424 117.085C39.6425 114.529 44.6338 112.894 48.6461 111.136C54.528 108.642 60.1869 107.365 66.2388 106.356C68.175 106.012 71.8633 105.08 75.0435 104.941C83.3034 104.384 91.4167 103.914 98.2808 103.91C99.7415 103.908 101.318 103.964 102.936 104.045C106.157 104.261 109.571 104.082 112.774 103.523C116.01 102.969 118.264 102.397 120.694 101.964C123.215 101.507 125.802 101.135 130.167 101.049C133.463 100.981 137.358 100.965 141.526 100.813C149.52 100.514 159.167 99.7293 168.008 99.5537C174.848 99.4014 181.066 99.4511 185.746 99.3438C189.864 99.2561 191.781 98.7662 194.595 98.6817C195.281 98.6608 195.953 98.6397 196.612 98.6182C203.704 98.4276 208.959 97.817 215.323 96.0655C218.854 95.1693 222.491 94.298 226.295 93.4268C229.306 93.2318 231.541 93.2374 233.256 93.3379C233.289 93.3339 233.385 93.3225 233.418 93.3194C238.346 93.7884 238.672 94.8411 241.682 95.462C243.13 95.7476 246.067 95.97 248.835 96.295C250.355 95.5681 249.881 95.1568 250.203 94.7627C250.37 94.368 250.503 94.0038 250.629 93.6495C250.88 92.9435 251.092 92.2932 251.291 91.7217C251.684 90.5784 252.032 89.7624 252.305 89.5342C252.364 89.4698 252.426 89.4311 252.489 89.4121C251.814 89.2034 251.026 85.3795 250.228 84.833C249.427 84.2803 244.471 84.8501 243.946 79.5235C243.771 77.2621 243.445 73.9789 243.982 69.7598C245.004 63.3919 245.497 56.5818 246.811 51.1241C247.269 49.3787 247.798 48.0104 248.114 47.1875C249.05 44.7058 250.341 41.9271 251.957 39.3575C252.288 38.8104 252.626 38.2222 252.978 37.6094C255.143 33.7461 257.036 29.9099 259.368 26.6075C261.786 23.0735 265.035 20.1673 268.531 17.7461C270.371 16.4698 272.628 15.3556 275.077 14.6182C277.761 14.3708 280.178 14.6571 281.893 14.7989C284.679 14.9099 286.655 15.2893 288.928 15.5752C294.512 15.1886 302.933 16.0028 306.357 15.9375C309.081 15.8846 310.791 15.3604 313.628 15.3252C315.649 15.2992 318.213 15.4913 321.371 15.6221C323.281 15.7054 325.479 15.7644 327.761 15.7266C337.431 15.5705 339.186 14.2227 344.964 14.044C351 13.8594 360.334 14.5851 368.023 14.1114C368.987 13.9632 369.963 13.815 370.917 13.667C370.231 13.332 369.539 12.9971 368.844 12.6621C372.708 12.5063 374.387 13.1931 377.93 13.2071C382.121 13.224 384.252 12.5746 387.064 12.5801C389.369 12.5852 392.495 13.1107 395.486 13.0821C399.844 13.0432 398.893 12.2886 401.238 12.1514C402.178 12.096 419.467 11.7194 420.458 11.7188ZM437.685 22.9873C434.608 22.9981 432.629 23.7906 426.372 23.9668C405.594 24.5439 377.604 23.6635 357.828 24.0782C348.076 24.2807 334.659 25.3151 325.053 25.5655C323.983 25.5927 322.729 25.6107 321.4 25.6211C312.676 25.6834 298.814 25.5137 295.883 25.9327C293.836 26.2211 292.849 27.0962 290.425 27.2354C288.334 27.3629 284.736 26.9009 283.125 26.9854C283.02 26.9942 282.918 27.0023 282.818 27.0108C277.387 27.2927 276.725 27.5201 274.938 28.3692C272.341 29.8279 270.672 30.9579 268.792 33.3526C268.247 34.0646 267.688 34.8594 267.097 35.7764C265.654 37.9014 264.189 41.1686 261.078 45.7578C259.235 48.3592 257.855 50.7476 257.214 53.5069C256.688 55.5488 256.499 58.7387 256.144 61.8809C255.808 65.0284 255.413 68.1143 254.981 71.0078C254.393 74.8873 254.703 80.2603 254.308 83.7217C253.996 87.133 253.43 89.2431 252.701 89.417C253.378 89.6244 254.226 91.4396 254.863 90.4668C254.944 91.3248 255.029 92.2369 255.068 93.251C255.085 93.7719 255.1 94.2926 255.052 95.0254C255.022 95.4029 254.997 95.7965 254.839 96.5C254.742 96.8839 254.66 97.2912 254.265 98.1016C253.883 98.7031 253.06 100.841 249.558 101.522L250.052 101.43C244.594 102.947 239.418 104.092 234.545 104.247L234.723 104.227C230.879 104.484 227.05 104.662 222.292 105.106C220.704 105.42 219.127 105.754 217.539 106.108C211.098 107.753 203.449 108.549 196.768 108.577C187.235 108.721 177.826 108.764 168.529 109.273C164.449 109.499 160.37 109.836 156.251 110.216C154.232 109.948 152.199 109.69 150.16 109.425L150.159 109.422C146.86 109.519 144.295 109.773 142.118 110.065C138.683 110.521 136.24 111.09 133.426 111.322C129.586 111.646 125.336 111.819 121.19 112.149C116.359 112.469 110.435 114.449 103.239 114.718C94.6038 115.102 85.3957 115.733 75.6734 116.323C73.249 116.433 71.428 116.947 67.816 117.548C62.7908 118.285 57.2814 119.466 52.9508 121.222C48.1763 123.165 44.0935 124.392 40.7115 126.336C37.3914 128.249 33.8862 129.755 31.0963 131.17C28.2555 132.621 26.642 133.863 25.3883 135.914C23.8719 138.351 23.2019 142.15 23.3306 145.691C23.4695 150.976 25.076 156.259 25.649 162.771C26.5324 172.717 27.5058 182.761 27.9625 191.168C28.0088 191.92 28.0614 192.739 28.1256 193.714C28.3549 196.704 28.2567 200.679 28.2349 204.518C28.2158 208.366 28.6199 212.261 29.5552 216.294C30.4514 220.279 31.5122 224.186 32.4 227.911C33.7787 233.726 34.7843 238.503 35.067 240.742C35.2963 242.58 34.7394 243.233 35.1441 245.152C35.4006 246.174 35.6553 247.196 35.9058 248.217C36.6282 251.201 38.0226 253.63 39.9263 256.926C41.8973 260.486 43.1459 264.47 43.7418 268.412C44.0985 270.765 44.1808 272.943 44.4156 274.733C44.4964 275.841 44.8281 276.622 44.9644 276.932C47.4517 278.249 50.1395 279.222 53.2447 280.446C55.2997 281.295 56.8122 282.042 58.3199 282.548C61.1604 283.752 64.3075 284.263 67.7554 284.332C77.5246 284.636 86.3432 283.782 96.3238 281.981C101.646 281.1 107.779 279.144 113.988 278.116C118.897 277.021 125.766 275.035 131.695 274.249C136.586 273.534 141.775 271.439 148.105 270.692C152.292 269.901 158.02 268.542 163.024 267.531C166.238 266.868 169.454 266.23 172.68 265.622C178.187 264.675 184.067 262.532 190.851 262.099C201.112 261.386 210.774 260.239 220.948 258.314C225.714 257.647 228.504 257.585 231.962 256.541C235.322 255.585 238.769 254.195 242.196 252.656C246.635 250.599 252.199 247.728 257.912 246.391C263.636 245.018 268.425 245.01 273.379 244.703C278.325 244.471 283.16 244.335 288.056 244.224C316.186 243.671 344.178 243.61 372.125 243.667C386.371 243.673 400.541 244.029 414.663 244.158C427.041 244.276 439.529 244.283 451.965 244.366C464.049 244.458 478.203 244.284 491.809 244.686C499.098 244.931 506.074 245.132 512.61 245.539C515.114 245.704 517.446 246.027 519.595 246.572C522.225 247.358 526.342 247.181 533.782 247.637C533.854 247.949 533.924 248.262 533.992 248.575C534.446 248.63 534.895 248.691 535.339 248.758C542.05 249.698 547.242 249.772 554.818 251.431C555.073 251.479 556.201 251.587 557.269 251.633C561.419 251.837 570.376 251.776 578.699 252.663C584.372 253.205 589.685 254.562 592.366 254.814C593.311 254.916 594.119 255.035 594.794 255.144C598.774 255.841 597.188 256.148 600.739 256.831C603.614 257.401 607.996 258.173 612.663 258.978C617.946 259.885 623.475 261.155 627.378 261.894C628.165 262.043 628.995 262.195 629.83 262.32C636.635 263.068 647.809 264.435 652.903 265.244C655.458 265.591 658.04 265.99 660.646 266.455C664.225 267.085 667.474 268.086 670.315 268.557C676.01 269.585 681.557 270.338 687.726 271.421C692.317 272.287 697.832 272.08 704.507 273.826C708.274 274.889 712.116 275.877 715.8 276.651C716.322 276.76 716.898 276.865 717.497 276.968C720.291 277.45 723.937 278.073 727.288 279.17C730.515 280.311 732.097 280.868 732.831 280.931C733.667 281.028 734.272 280.954 734.772 280.83C736.394 280.531 737.379 280.124 738.979 279.931C742.708 279.465 747.161 278.854 750.668 277.478C754.363 275.987 758.564 274.283 762.623 272.858C765.703 271.844 767.169 270.966 767.254 270.696C768.969 268.074 769.843 265.961 770.122 264.011C770.165 263.717 770.196 263.421 770.217 263.124C770.741 256.758 770.677 250.345 772.405 242.812C773.002 240.806 772.919 236.606 774.636 232.38C776.094 228.668 777.394 224.862 778.131 221.294C778.967 217.171 779.791 212.875 780.777 208.584C782.663 201.494 783.386 195.697 783.431 188.756C783.528 177.269 783.692 165.7 783.409 154.684C783.342 152.654 783.291 150.644 783.25 148.639C783.228 147.651 783.211 146.641 783.18 145.754C783.202 145.469 783.157 145.153 783.122 144.934C783.044 144.796 782.967 144.664 782.895 144.535C781.432 141.87 780.524 140.667 778.615 139.575C775.111 137.596 771.309 135.965 766.985 134.485C762.669 133.12 756.303 132.377 750.592 132.022C741.19 131.049 733.328 128.993 725.471 126.609C717.513 124.08 711.322 121.142 705.649 119.68C704.051 119.236 702.517 118.812 701.059 118.409C696.162 117.065 697.655 116.644 693.504 115.635C688.901 114.527 686.278 114.463 684.123 114.017C683.001 113.784 681.88 113.561 680.5 113.273C678.641 112.93 674.114 112.847 670.082 112.462C665.921 112.102 661.502 111.575 657.033 110.936C650.62 110.047 643.71 109.009 637.596 107.576C630.996 106.07 625.118 104.551 621.01 103.392C619.737 103.033 618.641 102.6 617.826 102.272C616.762 101.885 615.853 101.532 615.011 101.355C614.18 101.179 612.206 101.172 609.632 100.649C603.981 99.4796 599.24 98.6875 594.485 98.6631C590.796 98.6133 587.21 98.5575 583.626 98.459C581.83 98.4085 580.046 98.3489 578.211 98.253C576.248 98.1022 574.927 98.2045 571.822 97.5108C566.333 96.0671 559.243 95.5696 551.853 94.6778C547.584 93.6303 547.821 91.9569 547.225 91.3653C546.821 90.608 546.648 90.1133 546.462 89.586C546.131 88.6022 545.929 87.7628 545.746 86.9434C544.079 78.4251 543.564 70.5354 542.747 62.208C542.325 57.8288 541.902 52.0323 540.853 50.6914C538.246 46.603 536.312 42.8205 533.974 39.3535C532.544 37.2064 531.267 35.0866 530.012 33.295C528.835 31.5094 527.276 30.101 527.172 30.211C522.52 28.353 519.683 27.0583 515.852 26.1973C510.027 25.133 501.662 25.2049 494.389 24.9707C486.892 24.806 479.478 24.7005 472.037 24.5938C466.633 24.5171 461.242 24.4426 455.933 24.3584C445.967 24.2015 439.1 22.9824 437.685 22.9873ZM535.352 257.605C537.28 257.785 539.176 257.93 541.056 258.082C540.055 257.671 539.047 257.262 538.035 256.848C537.084 256.692 536.127 256.533 535.166 256.364C535.226 256.778 535.289 257.192 535.352 257.605ZM556.066 84.1426C556.365 84.902 556.71 85.5446 557.038 85.8506C557.196 85.9956 557.362 86.0638 557.415 85.876C557.376 85.6842 557.691 85.2185 555.952 83.7344C555.937 83.7243 555.921 83.7145 555.905 83.7041C555.958 83.8544 556.01 84.0013 556.066 84.1426ZM545.287 37.5362C544.333 37.2729 546.001 40.2437 547.508 42.4463C549.033 44.6601 550.495 45.9945 549.524 43.7705C549.119 42.8428 545.828 37.7024 545.287 37.5362Z" fill="white"/>
<path d="M410.522 67.4293C409.216 67.4293 408.072 65.8893 407.092 62.8093C406.159 59.7293 405.692 56.766 405.692 53.9193C405.692 53.266 406.416 52.5426 407.862 51.7493C409.309 50.9093 411.502 50.1626 414.442 49.5093C417.382 48.856 420.579 48.5293 424.032 48.5293C437.426 48.5293 444.122 53.2193 444.122 62.5993C444.122 65.2126 443.562 67.6626 442.442 69.9493C441.322 72.236 440.086 74.0793 438.732 75.4793C437.379 76.8326 435.792 78.0926 433.972 79.2593C431.872 80.566 429.866 81.5926 427.952 82.3393H441.952C442.232 82.3393 442.536 82.4793 442.862 82.7593C443.189 82.9926 443.539 83.7393 443.912 84.9993C444.286 86.2126 444.472 87.7526 444.472 89.6193C444.472 91.4393 444.356 92.9793 444.122 94.2393C443.889 95.4526 443.609 96.3393 443.282 96.8993C442.582 98.1593 441.952 98.836 441.392 98.9293L441.042 98.9993H410.382C407.442 98.9993 405.972 94.4026 405.972 85.2093C405.972 84.1826 409.006 81.3593 415.072 76.7393C417.359 75.0593 419.459 73.216 421.372 71.2093C423.286 69.2026 424.242 67.5693 424.242 66.3093C424.242 64.9093 423.192 64.2093 421.092 64.2093C418.992 64.2093 416.776 64.746 414.442 65.8193C412.156 66.8926 410.849 67.4293 410.522 67.4293Z" fill="white"/>
<path d="M387.941 98.6493C385.328 99.3026 382.085 99.6293 378.211 99.6293C374.338 99.6293 371.071 99.3026 368.411 98.6493C365.798 97.9493 363.418 96.6893 361.271 94.8693C357.025 91.276 354.901 84.2526 354.901 73.7993C354.901 63.7193 357.118 56.8826 361.551 53.2893C363.745 51.516 366.148 50.2793 368.761 49.5793C371.375 48.8793 374.501 48.5293 378.141 48.5293C381.828 48.5293 384.978 48.8793 387.591 49.5793C390.251 50.2793 392.678 51.516 394.871 53.2893C399.305 56.8826 401.521 63.7193 401.521 73.7993C401.521 84.2526 399.398 91.276 395.151 94.8693C393.005 96.6893 390.601 97.9493 387.941 98.6493ZM376.741 87.7293C377.115 88.336 377.605 88.6393 378.211 88.6393C378.865 88.6393 379.378 88.336 379.751 87.7293C380.125 87.076 380.428 85.676 380.661 83.5293C380.895 81.3826 381.011 78.326 381.011 74.3593C381.011 70.3926 380.895 67.3126 380.661 65.1193C380.428 62.8793 380.125 61.4093 379.751 60.7093C379.378 59.9626 378.865 59.5893 378.211 59.5893C377.605 59.5893 377.115 59.9393 376.741 60.6393C375.808 62.226 375.341 66.7993 375.341 74.3593C375.341 81.8726 375.808 86.3293 376.741 87.7293Z" fill="white"/>
<path d="M694.549 226.386C691.373 225.695 688.701 224.826 686.535 223.779C684.368 222.731 682.504 221.306 680.945 219.504C677.699 215.872 676.905 210.245 678.562 202.623C680.034 195.847 683.057 191.427 687.63 189.361C691.903 187.452 696.962 187.133 702.805 188.403C705.304 188.946 707.414 189.538 709.138 190.178C710.87 190.777 712.564 191.655 714.219 192.813C715.917 193.98 717.173 195.34 717.989 196.892C718.847 198.453 719.382 200.476 719.596 202.962C719.819 205.405 719.585 208.214 718.895 211.39C717.496 217.826 714.621 222.279 710.27 224.748C705.929 227.175 700.689 227.72 694.549 226.386ZM695.018 213.517C694.983 215.106 695.082 216.08 695.314 216.441C695.588 216.811 695.979 217.052 696.487 217.162C697.038 217.282 697.493 217.226 697.854 216.994C698.257 216.771 698.752 215.925 699.337 214.456C699.965 212.996 700.527 211.122 701.024 208.836C701.531 206.507 701.854 204.715 701.994 203.459C702.185 202.17 702.27 201.169 702.248 200.454C702.268 199.749 702.192 199.179 702.021 198.742C701.76 198.109 701.354 197.732 700.803 197.613C700.295 197.502 699.835 197.58 699.423 197.845C699.019 198.068 698.499 198.93 697.862 200.432C697.235 201.892 696.612 204.041 695.996 206.878C695.379 209.715 695.053 211.928 695.018 213.517Z" fill="white"/>
<path d="M644.572 217.44C640.672 216.857 637.766 215.481 635.856 213.312C635.028 212.4 634.384 211.142 633.922 209.54C633.503 207.944 633.444 206.139 633.745 204.124C634.046 202.11 634.78 200.423 635.947 199.064C637.157 197.711 638.508 196.73 640.002 196.121C641.495 195.511 643.201 195.087 645.121 194.848C648.015 194.536 651.134 194.629 654.477 195.129L656.598 195.446C656.861 193.688 656.425 192.353 655.291 191.438C654.865 191.068 654.116 190.803 653.044 190.643C652.016 190.489 650.71 190.579 649.126 190.912C647.586 191.251 646.278 191.647 645.203 192.1C644.134 192.51 643.428 192.689 643.085 192.638C642.314 192.523 641.414 191.359 640.386 189.146C639.365 186.89 638.979 184.927 639.229 183.255C639.312 182.698 640.214 182.088 641.934 181.425C643.654 180.762 646.005 180.281 648.985 179.981C652.014 179.645 654.901 179.682 657.644 180.091C660.386 180.501 662.708 181.089 664.609 181.855C666.56 182.585 668.108 183.364 669.255 184.192C670.445 185.027 671.388 186.044 672.085 187.244C672.825 188.45 673.345 189.513 673.646 190.434C673.989 191.362 674.187 192.531 674.239 193.941C674.26 195.565 674.097 197.534 673.751 199.848L670.86 219.198C670.79 219.67 669.575 219.883 667.216 219.837C664.906 219.755 662.616 219.544 660.344 219.205C658.116 218.872 656.668 218.59 656.001 218.359C655.378 218.134 655.014 217.927 654.912 217.736C654.809 217.545 654.746 217.229 654.725 216.788L654.758 213.047L654.243 212.97C652.596 216.667 649.372 218.157 644.572 217.44ZM654.78 208.055L655.904 200.534C654.79 200.367 653.819 200.704 652.993 201.545C652.166 202.385 651.663 203.405 651.484 204.605C651.061 207.434 651.493 208.944 652.779 209.136C653.336 209.22 653.784 209.155 654.122 208.943C654.51 208.694 654.729 208.398 654.78 208.055ZM674.354 176.016C674.258 176.659 672.993 177.499 670.56 178.538C668.169 179.583 666.138 179.98 664.467 179.731C662.838 179.487 660.921 178.829 658.716 177.754C656.559 176.643 655.138 176.037 654.453 175.934C653.81 175.838 652.488 176.035 650.487 176.525C648.492 176.972 647.109 177.138 646.338 177.022C645.566 176.907 644.864 176.035 644.231 174.407C643.647 172.743 643.416 171.503 643.538 170.689C643.647 169.961 644.958 169.105 647.47 168.122C650.032 167.103 652.085 166.708 653.628 166.939C655.171 167.169 657.002 167.815 659.122 168.877C661.284 169.945 662.859 170.552 663.844 170.7C664.144 170.744 665.249 170.537 667.158 170.077C669.109 169.624 670.492 169.458 671.307 169.58C672.164 169.708 672.902 170.629 673.523 172.343C674.186 174.063 674.463 175.287 674.354 176.016Z" fill="white"/>
<path d="M608.379 212.972C605.147 212.627 602.398 212.051 600.131 211.242C597.864 210.433 595.858 209.217 594.114 207.592C590.497 204.33 589.102 198.821 589.931 191.065C590.667 184.171 593.197 179.451 597.522 176.906C601.565 174.548 606.56 173.687 612.506 174.322C615.048 174.594 617.21 174.955 618.993 175.407C620.779 175.816 622.558 176.507 624.328 177.48C626.141 178.458 627.536 179.675 628.514 181.13C629.534 182.59 630.284 184.544 630.764 186.993C631.248 189.398 631.317 192.216 630.972 195.447C630.273 201.997 627.893 206.733 623.833 209.655C619.778 212.534 614.627 213.64 608.379 212.972ZM607.462 200.128C607.598 201.711 607.801 202.67 608.071 203.003C608.383 203.342 608.798 203.539 609.315 203.594C609.875 203.654 610.322 203.549 610.656 203.279C611.033 203.015 611.433 202.12 611.857 200.597C612.325 199.078 612.683 197.155 612.931 194.828C613.184 192.458 613.313 190.642 613.317 189.378C613.369 188.077 613.345 187.072 613.247 186.364C613.191 185.661 613.055 185.101 612.837 184.686C612.509 184.084 612.065 183.754 611.505 183.694C610.988 183.639 610.539 183.765 610.157 184.073C609.781 184.338 609.356 185.251 608.884 186.813C608.417 188.332 608.029 190.535 607.721 193.422C607.413 196.309 607.326 198.544 607.462 200.128Z" fill="white"/>
<path d="M581.215 214.446C580.278 215.85 578.966 216.767 577.28 217.198C575.633 217.675 573.773 217.832 571.7 217.667C569.67 217.505 568.183 217.343 567.239 217.181C566.293 217.063 565.291 216.809 564.235 216.421C563.219 216.079 562.428 215.647 561.861 215.123C560.571 213.847 560.024 211.978 560.22 209.516C560.502 205.973 561.55 204.274 563.365 204.419C563.926 204.464 564.365 204.411 564.681 204.263C565.533 203.939 566.05 202.633 566.232 200.343L568.918 166.585C568.994 165.635 570.299 164.804 572.833 164.093C575.414 163.342 578.108 163.078 580.916 163.301C585.193 163.642 587.25 164.827 587.089 166.857L584.238 202.689C584 205.67 583.682 208.035 583.282 209.786C582.882 211.536 582.193 213.09 581.215 214.446Z" fill="white"/>
<path d="M522.926 206.414C519.681 206.251 516.903 205.829 514.594 205.149C512.286 204.469 510.215 203.367 508.382 201.843C504.587 198.789 502.886 193.367 503.277 185.577C503.625 178.652 505.886 173.798 510.061 171.014C513.966 168.433 518.904 167.293 524.876 167.593C527.43 167.721 529.609 167.961 531.414 168.312C533.22 168.619 535.035 169.209 536.857 170.082C538.722 170.957 540.183 172.093 541.241 173.491C542.342 174.892 543.201 176.8 543.817 179.218C544.435 181.592 544.663 184.402 544.5 187.648C544.17 194.226 542.06 199.088 538.17 202.233C534.283 205.336 529.202 206.729 522.926 206.414ZM521.29 193.641C521.515 195.214 521.771 196.16 522.059 196.478C522.39 196.798 522.815 196.971 523.334 196.997C523.897 197.026 524.337 196.896 524.656 196.608C525.017 196.323 525.367 195.407 525.705 193.862C526.086 192.32 526.335 190.38 526.453 188.043C526.572 185.662 526.598 183.841 526.532 182.58C526.51 181.277 526.431 180.275 526.292 179.574C526.197 178.875 526.03 178.324 525.789 177.922C525.428 177.339 524.966 177.034 524.404 177.006C523.884 176.98 523.443 177.131 523.079 177.46C522.718 177.746 522.345 178.681 521.962 180.268C521.581 181.81 521.317 184.032 521.172 186.931C521.026 189.831 521.065 192.067 521.29 193.641Z" fill="white"/>
<path d="M472.138 204.48C468.197 204.368 465.148 203.349 462.992 201.423C462.061 200.616 461.271 199.445 460.621 197.909C460.015 196.375 459.741 194.589 459.799 192.553C459.857 190.518 460.384 188.755 461.38 187.266C462.42 185.779 463.644 184.643 465.054 183.86C466.463 183.076 468.107 182.451 469.984 181.985C472.821 181.329 475.928 181.049 479.307 181.146L481.451 181.207C481.502 179.431 480.91 178.157 479.675 177.384C479.207 177.068 478.431 176.894 477.349 176.863C476.309 176.833 475.023 177.078 473.491 177.598C472.002 178.119 470.751 178.669 469.737 179.247C468.725 179.781 468.046 180.044 467.699 180.034C466.919 180.012 465.887 178.963 464.603 176.889C463.319 174.772 462.702 172.868 462.75 171.179C462.766 170.616 463.588 169.902 465.217 169.039C466.846 168.175 469.121 167.416 472.045 166.762C475.012 166.067 477.882 165.759 480.655 165.838C483.427 165.917 485.802 166.223 487.781 166.757C489.805 167.248 491.435 167.836 492.673 168.522C493.954 169.209 495.012 170.106 495.847 171.213C496.726 172.322 497.37 173.316 497.778 174.195C498.23 175.075 498.566 176.211 498.786 177.605C499 179.215 499.074 181.19 499.007 183.529L498.449 203.086C498.435 203.562 497.255 203.919 494.907 204.155C492.604 204.349 490.304 204.414 488.009 204.348C485.756 204.284 484.285 204.177 483.596 204.027C482.95 203.879 482.564 203.716 482.439 203.539C482.314 203.362 482.215 203.056 482.14 202.62L481.726 198.902L481.207 198.887C480.012 202.754 476.99 204.619 472.138 204.48ZM481.153 193.943L481.37 186.342C480.244 186.309 479.32 186.76 478.6 187.693C477.88 188.626 477.502 189.699 477.468 190.912C477.386 193.771 477.995 195.219 479.294 195.256C479.858 195.272 480.294 195.154 480.605 194.903C480.96 194.61 481.143 194.29 481.153 193.943ZM496.759 159.795C496.74 160.445 495.585 161.43 493.293 162.752C491.044 164.075 489.075 164.713 487.386 164.664C485.74 164.617 483.758 164.192 481.44 163.389C479.166 162.544 477.683 162.111 476.99 162.092C476.34 162.073 475.051 162.426 473.123 163.152C471.196 163.834 469.843 164.164 469.063 164.141C468.284 164.119 467.482 163.338 466.659 161.797C465.881 160.214 465.503 159.011 465.527 158.188C465.548 157.452 466.747 156.445 469.124 155.169C471.546 153.851 473.537 153.215 475.096 153.259C476.656 153.304 478.551 153.726 480.782 154.527C483.057 155.329 484.693 155.744 485.689 155.772C485.992 155.781 487.064 155.443 488.904 154.759C490.788 154.075 492.141 153.746 492.964 153.769C493.83 153.794 494.674 154.62 495.494 156.247C496.358 157.876 496.78 159.058 496.759 159.795Z" fill="white"/>
<path d="M451.047 200.684C449.737 201.623 447.908 202.405 445.561 203.029C443.258 203.611 440.265 203.882 436.582 203.842C432.942 203.802 429.479 203.461 426.193 202.819C422.906 202.176 420.552 201.479 419.13 200.727C417.708 199.975 417.001 199.252 417.008 198.559C417.035 196.132 417.409 193.623 418.13 191.03C418.852 188.395 419.69 187.082 420.643 187.092C420.817 187.094 422.608 187.699 426.019 188.906C429.429 190.113 432.001 190.726 433.734 190.745C435.468 190.764 436.596 190.603 437.12 190.262C437.644 189.877 437.91 189.339 437.917 188.645C437.925 187.952 437.455 187.34 436.507 186.81C435.56 186.236 434.374 185.747 432.948 185.341C431.523 184.892 429.97 184.269 428.288 183.47C426.65 182.673 425.121 181.789 423.702 180.82C422.282 179.852 421.105 178.495 420.171 176.752C419.237 174.965 418.782 172.945 418.807 170.691C418.911 161.072 424.705 156.325 436.187 156.45C440.477 156.496 444.179 156.818 447.293 157.415C450.407 157.969 452.588 158.6 453.837 159.307C455.13 159.971 455.773 160.628 455.766 161.278C455.742 163.531 455.174 165.952 454.062 168.54C452.994 171.128 451.961 172.417 450.965 172.406C450.791 172.404 450.23 172.203 449.281 171.803C446.435 170.515 444.059 169.861 442.152 169.84C440.289 169.82 439.009 169.979 438.312 170.319C437.658 170.658 437.327 171.196 437.319 171.933C437.312 172.626 437.782 173.216 438.73 173.703C439.678 174.147 440.844 174.571 442.226 174.976C443.652 175.339 445.185 175.919 446.823 176.717C448.505 177.472 450.055 178.377 451.473 179.432C452.892 180.444 454.069 181.887 455.002 183.761C455.935 185.634 456.388 187.806 456.361 190.276C456.332 192.876 455.635 195.23 454.269 197.339C453.431 198.63 452.358 199.745 451.047 200.684Z" fill="white"/>
<path d="M378.541 203.832C375.291 203.864 372.493 203.611 370.148 203.071C367.802 202.531 365.669 201.556 363.748 200.145C359.776 197.325 357.751 192.015 357.672 184.216C357.602 177.283 359.567 172.301 363.567 169.271C367.309 166.459 372.17 165.024 378.15 164.964C380.706 164.938 382.896 165.046 384.718 165.288C386.54 165.486 388.387 165.966 390.258 166.727C392.172 167.488 393.7 168.534 394.84 169.866C396.023 171.198 396.995 173.051 397.756 175.427C398.516 177.759 398.912 180.551 398.945 183.8C399.011 190.387 397.198 195.367 393.505 198.741C389.812 202.072 384.824 203.768 378.541 203.832ZM376.138 191.18C376.457 192.737 376.77 193.666 377.076 193.966C377.426 194.266 377.861 194.413 378.381 194.408C378.944 194.402 379.376 194.246 379.676 193.94C380.02 193.633 380.314 192.698 380.558 191.136C380.846 189.573 380.978 187.621 380.954 185.281C380.93 182.898 380.847 181.079 380.704 179.824C380.604 178.525 380.464 177.529 380.284 176.838C380.147 176.146 379.947 175.606 379.683 175.219C379.287 174.659 378.808 174.383 378.244 174.388C377.724 174.393 377.293 174.571 376.95 174.921C376.606 175.228 376.291 176.185 376.004 177.791C375.716 179.354 375.587 181.587 375.616 184.49C375.645 187.393 375.819 189.623 376.138 191.18Z" fill="white"/>
<path d="M352.926 169.931L353.633 201.968C353.643 202.445 352.395 202.862 349.889 203.221C347.426 203.535 344.872 203.722 342.23 203.78C339.63 203.837 337.938 203.766 337.154 203.567C336.412 203.323 336.034 202.92 336.022 202.357L335.341 171.489C335.32 170.536 336.513 169.578 338.919 168.614C341.367 167.607 344.043 167.071 346.945 167.007C350.888 166.92 352.881 167.895 352.926 169.931ZM343.711 153.035C346.571 152.972 348.811 153.356 350.433 154.187C352.098 154.974 352.954 156.472 353.003 158.682C353.089 162.581 350.099 164.597 344.034 164.731C337.969 164.864 334.893 162.982 334.807 159.083C334.721 155.184 337.689 153.168 343.711 153.035Z" fill="white"/>
<path d="M329.967 203.504C329.212 204.266 327.449 204.693 324.677 204.785C321.905 204.876 319.604 204.779 317.773 204.493C315.941 204.163 314.185 203.484 312.503 202.456C309.271 200.438 307.545 196.073 307.323 189.36L306.988 179.225L303.739 179.333C303.263 179.348 302.835 178.864 302.456 177.879C302.076 176.894 301.858 175.536 301.801 173.804C301.743 172.071 301.953 170.547 302.43 169.23C302.949 167.869 303.641 167.174 304.507 167.146L306.586 167.077L306.326 159.216C306.282 157.873 307.545 156.748 310.117 155.839C312.731 154.929 315.295 154.432 317.807 154.349C321.748 154.219 323.751 155.128 323.815 157.077L324.127 166.497L328.934 166.338C330.06 166.301 330.677 167.906 330.784 171.155C330.854 173.277 330.652 175.039 330.178 176.442C329.746 177.801 329.141 178.493 328.361 178.519L324.528 178.645L324.921 190.534C324.96 191.703 325.486 192.531 326.499 193.018C327.511 193.462 328.385 193.671 329.121 193.647C329.901 193.621 330.389 193.973 330.587 194.704C330.784 195.435 330.908 196.536 330.956 198.009C331.052 200.91 330.723 202.742 329.967 203.504Z" fill="white"/>
<path d="M298.344 170.436L299.85 203.552C299.872 204.028 298.634 204.475 296.137 204.892C293.681 205.264 291.133 205.51 288.493 205.63C285.895 205.748 284.202 205.717 283.413 205.536C282.665 205.31 282.279 204.915 282.253 204.352L280.8 172.405C280.757 171.453 281.949 170.466 284.375 169.445C286.801 168.424 289.442 167.848 292.299 167.718C296.239 167.539 298.254 168.445 298.344 170.436ZM295.345 154.566C296.341 154.521 297.374 155.298 298.444 156.898C299.558 158.496 300.17 160.507 300.28 162.931C300.31 163.58 298.453 164.25 294.711 164.941C291.01 165.586 287.925 165.965 285.458 166.077C284.635 166.115 283.854 165.63 283.114 164.622C282.418 163.613 282.039 162.437 281.978 161.095C281.915 159.71 283.457 158.317 286.603 156.916C289.79 155.47 292.705 154.686 295.345 154.566Z" fill="white"/>
<path d="M273.052 203.712C271.814 204.744 270.047 205.656 267.751 206.45C265.497 207.197 262.531 207.685 258.855 207.912C255.222 208.137 251.743 208.048 248.418 207.646C245.094 207.244 242.695 206.72 241.222 206.073C239.75 205.426 238.992 204.756 238.949 204.064C238.799 201.642 238.99 199.112 239.521 196.474C240.05 193.793 240.79 192.423 241.742 192.364C241.915 192.354 243.746 192.827 247.235 193.783C250.724 194.739 253.333 195.164 255.063 195.057C256.793 194.95 257.907 194.707 258.405 194.329C258.9 193.908 259.126 193.351 259.083 192.659C259.04 191.967 258.527 191.391 257.543 190.931C256.557 190.427 255.338 190.025 253.887 189.724C252.433 189.38 250.838 188.871 249.103 188.197C247.412 187.52 245.823 186.75 244.337 185.887C242.85 185.024 241.578 183.757 240.519 182.085C239.458 180.371 238.858 178.389 238.719 176.14C238.125 166.539 243.558 161.383 255.02 160.674C259.301 160.409 263.017 160.461 266.165 160.831C269.312 161.157 271.533 161.627 272.83 162.242C274.168 162.81 274.857 163.419 274.897 164.067C275.036 166.316 274.646 168.772 273.725 171.434C272.847 174.093 271.911 175.454 270.917 175.515C270.744 175.526 270.169 175.366 269.194 175.036C266.262 173.958 263.844 173.478 261.941 173.596C260.081 173.711 258.816 173.963 258.145 174.352C257.518 174.738 257.227 175.299 257.273 176.034C257.315 176.726 257.827 177.28 258.808 177.697C259.787 178.071 260.98 178.41 262.388 178.713C263.837 178.971 265.407 179.438 267.098 180.115C268.831 180.746 270.443 181.536 271.934 182.486C273.423 183.392 274.701 184.746 275.767 186.547C276.834 188.348 277.444 190.481 277.596 192.946C277.757 195.541 277.232 197.94 276.023 200.142C275.281 201.49 274.291 202.68 273.052 203.712Z" fill="white"/>
<path d="M194.716 213.23C190.792 213.625 187.616 213.008 185.188 211.38C184.204 210.695 183.291 209.633 182.45 208.193C181.651 206.749 181.15 205.014 180.946 202.987C180.742 200.961 181.038 199.146 181.835 197.541C182.674 195.932 183.743 194.649 185.04 193.691C186.337 192.732 187.887 191.901 189.689 191.197C192.418 190.182 195.463 189.506 198.826 189.167L200.961 188.952C200.783 187.184 200.053 185.995 198.772 185.383C198.224 185.134 197.412 185.063 196.334 185.172C195.299 185.276 194.055 185.684 192.603 186.396C191.193 187.105 190.023 187.81 189.092 188.514C188.157 189.174 187.517 189.522 187.172 189.556C186.396 189.634 185.237 188.728 183.697 186.836C182.152 184.901 181.295 183.092 181.126 181.411C181.069 180.85 181.793 180.037 183.297 178.971C184.801 177.905 186.961 176.86 189.776 175.836C192.629 174.765 195.436 174.091 198.195 173.813C200.955 173.535 203.35 173.534 205.381 173.808C207.451 174.035 209.144 174.409 210.459 174.93C211.818 175.447 212.982 176.201 213.953 177.192C214.967 178.179 215.733 179.081 216.251 179.9C216.812 180.715 217.27 181.801 217.624 183.159C218.087 184.724 218.435 186.671 218.669 188.999L220.629 208.465C220.677 208.94 219.552 209.445 217.254 209.981C214.995 210.47 212.723 210.829 210.437 211.059C208.195 211.285 206.723 211.368 206.02 211.308C205.36 211.244 204.957 211.132 204.81 210.972C204.664 210.813 204.526 210.522 204.396 210.099L203.507 206.465L202.99 206.517C202.303 210.506 199.545 212.744 194.716 213.23ZM202.301 201.622L201.54 194.055C200.419 194.168 199.561 194.733 198.967 195.751C198.372 196.769 198.136 197.882 198.257 199.089C198.544 201.935 199.334 203.292 200.627 203.162C201.188 203.106 201.606 202.933 201.882 202.644C202.196 202.307 202.336 201.967 202.301 201.622Z" fill="white"/>
<path d="M171.715 167.092L177.659 212.858C177.721 213.33 176.546 213.876 174.136 214.495C171.72 215.071 169.201 215.529 166.58 215.87C164.002 216.205 162.312 216.315 161.51 216.2C160.746 216.037 160.328 215.677 160.256 215.118L154.462 170.513C154.339 169.567 155.422 168.487 157.712 167.272C160.044 166.052 162.607 165.26 165.4 164.897C169.353 164.384 171.458 165.115 171.715 167.092Z" fill="white"/>
<path d="M150.54 184.137L155.419 215.808C155.492 216.279 154.309 216.856 151.872 217.538C149.47 218.171 146.963 218.689 144.35 219.092C141.781 219.487 140.094 219.638 139.29 219.542C138.522 219.398 138.096 219.047 138.01 218.49L133.309 187.975C133.164 187.033 134.221 185.927 136.481 184.658C138.777 183.34 141.359 182.46 144.229 182.018C148.126 181.417 150.23 182.124 150.54 184.137ZM139.2 168.587C142.027 168.151 144.299 168.24 146.015 168.852C147.768 169.415 148.813 170.789 149.149 172.973C149.743 176.828 147.042 179.217 141.046 180.141C135.05 181.064 131.755 179.599 131.161 175.744C130.568 171.89 133.247 169.504 139.2 168.587Z" fill="white"/>
<path d="M81.4079 189.752C81.2972 189.244 81.7183 188.532 82.6715 187.614C83.6154 186.654 85.0223 185.682 86.8922 184.698C88.8045 183.705 90.9461 182.95 93.3171 182.433C95.6881 181.916 97.4978 181.876 98.7463 182.314C99.9948 182.751 100.749 183.363 101.009 184.149L108.272 206.781L109.161 206.587L106.214 183.613C106.083 182.399 107.319 181.154 109.924 179.877C112.528 178.599 115.016 177.702 117.387 177.185C119.758 176.669 121.561 176.497 122.796 176.671C124.023 176.803 124.83 177.048 125.219 177.407C125.65 177.757 125.907 178.122 125.99 178.503C126.064 178.842 125.963 179.906 125.688 181.696C125.446 183.434 125.189 185.308 124.918 187.319C123.966 193.735 122.494 205.189 120.5 221.678C120.321 223.092 116.823 224.542 110.006 226.028C107.889 226.49 106.46 226.646 105.718 226.498C104.976 226.349 104.399 225.942 103.988 225.278C99.9211 218.625 95.1548 211.104 89.6893 202.716C84.2237 194.328 81.4633 190.006 81.4079 189.752Z" fill="white"/>
</svg>
