<svg width="284" height="109" viewBox="0 0 284 109" fill="none" xmlns="http://www.w3.org/2000/svg">
<path d="M147.52 0.91414C150.247 0.906603 150.497 1.45324 152.684 1.5096C155.728 1.58715 158.84 1.52557 161.932 1.43384C163.476 1.388 165.015 1.33489 166.555 1.2885C166.649 1.28558 166.743 1.28242 166.836 1.27955C166.565 1.27454 168.067 1.28946 168.58 1.29436C169.258 1.30106 169.851 1.30742 170.414 1.31399C172.604 1.33965 173.824 1.35904 174.816 1.37494C176.734 1.40634 177.618 1.42466 178.373 1.43969C179.812 1.46901 180.431 1.48391 180.961 1.49858C182.678 1.54659 183.02 1.66564 183.448 1.83437C182.606 3.08985 183.493 4.38475 183.594 2.17085C183.662 2.26594 183.716 2.30084 183.764 2.30241C183.788 2.30312 183.81 2.29519 183.832 2.28243C183.825 2.26501 183.923 2.25283 184.699 2.44775C187.068 3.0606 187.956 3.46957 188.42 3.69412C188.499 3.7577 188.67 3.78776 189.405 4.23896C189.942 4.5943 190.322 4.96938 190.679 5.37995C191.389 6.21018 191.899 7.08604 192.792 8.53912C194.617 11.3695 195.676 13.0659 196.294 13.9765C197.083 15.3008 197.126 17.0485 196.486 18.3627C196.573 19.019 196.621 19.3822 196.758 20.819C196.982 23.2064 197.047 23.7111 197.133 24.4899C197.29 25.8643 197.388 26.6001 197.477 27.2282C197.501 27.3953 197.524 27.5502 197.546 27.6939C198.166 27.8267 198.798 27.9842 199.39 28.1481C200.671 28.5002 201.75 28.8891 202.384 29.0608C202.535 29.1011 202.809 29.1681 203.164 29.2654C203.455 29.3426 204.241 29.5831 204.042 29.5519C203.902 29.576 204.438 29.7288 205.668 29.8319C206.311 29.8871 207.103 29.9393 208.543 29.9955C208.915 30.0098 209.323 30.0244 209.865 30.041C210.384 30.0571 211.257 30.0788 211.239 30.085C211.524 30.1035 211.835 30.1283 212.114 30.156C213.232 30.2649 214.188 30.4467 214.615 30.5248C215.466 30.6771 216.696 30.9588 218.009 31.2515C218.664 31.3963 219.333 31.5375 219.952 31.6538C220.627 31.7804 220.403 31.7134 220.622 31.7316C220.982 31.7387 221.426 31.443 222.123 31.4461C222.478 31.4495 222.893 31.527 223.542 31.7912C224.273 32.074 224.769 32.4395 227.367 33.4842C229.773 33.9788 230.802 34.1063 231.961 34.3215C232.52 34.4224 233.046 34.5246 233.607 34.6425C233.401 34.6465 237.564 35.3157 238.705 35.4563C239.688 35.5912 239.648 35.8306 240.035 35.8647C240.794 35.9291 241.512 35.7922 242.033 35.8324C242.945 35.9131 242.91 36.4872 243.067 35.6987C243.272 35.6099 243.753 35.5814 244.724 35.6729C245.023 35.901 245.387 36.145 245.865 36.4182C246.743 36.4595 247.552 36.4779 249.914 36.9117C248.054 37.0277 253.214 38.4696 253.587 38.5218C254.76 38.7807 255.818 38.829 254.996 38.1794C256.473 38.8307 257.676 39.4684 258.795 39.9789C259.079 40.1089 259.335 40.2256 259.628 40.3488C261.514 40.9631 262.02 41.0996 262.71 41.3073C263.964 41.6771 264.679 41.8769 265.289 42.0536C265.002 42.6671 266.366 42.9528 266.935 42.804C267.567 42.6691 267.633 42.1899 267.743 41.8431C268.256 41.8754 268.715 41.914 269.143 41.9554C270.986 42.3097 272.342 42.5388 273.68 42.8664C274.007 42.9479 274.366 43.0482 274.692 43.1598C275.019 43.2705 276.003 43.6383 276.49 43.8475C277.59 44.3113 278.319 44.7043 278.883 45.0677C279.556 45.4762 281.489 47.0351 281.65 47.6087C281.982 48.2478 281.943 48.5493 281.951 49.1523C282.388 49.8708 282.539 50.0004 282.73 50.4276C283.302 50.8578 283.457 51.2402 283.468 52.1407C283.471 52.3892 283.464 52.6838 283.456 53.2193C283.452 53.4861 283.448 53.8192 283.446 54.2528C283.444 54.6668 283.451 55.3194 283.432 55.2626C283.377 55.5583 283.3 55.8545 283.22 56.1773C282.895 57.4522 282.518 59.0766 283.13 62.7805C282.603 64.0664 282.474 65.5635 282.477 68.6067C282.34 73.8757 281.958 74.7777 281.946 75.7846C281.936 75.986 282.13 76.0358 282.139 76.2785C281.878 78.0953 281.034 81.1969 281.683 81.2172C281.222 82.4969 280.647 83.7123 279.974 85.0187C279.57 86.3805 279.669 86.6762 279.637 87.8603C279.839 87.8813 280.04 87.9022 280.242 87.923C279.718 89.2781 279.388 89.7754 279.24 90.7649C279.077 91.7213 279.016 93.0179 278.869 94.0591C278.808 94.4879 278.532 94.4771 278.356 96.027C278.252 97.0267 277.936 98.2049 277.522 99.1173C277.066 100.055 276.891 100.617 275.983 101.514C275.618 102.318 275.008 103.015 274.445 103.599C271.454 104.974 270.403 104.563 269.377 104.933C269.277 104.963 268.483 105.364 267.341 105.681C266.239 106.004 264.668 106.227 264.488 106.254C263.1 106.466 262.453 106.788 260.889 106.904C260.161 106.945 259.263 106.835 258.423 106.631C257.637 106.436 256.828 106.238 255.315 105.982C254.79 105.888 254.31 105.747 253.833 105.584C253.567 105.464 253.3 105.342 252.921 105.25C252.584 105.167 252.046 105.074 251.08 104.873C250.624 104.781 249.861 104.601 249.242 104.455C248.97 104.419 248.701 104.407 248.369 104.397C247.069 104.375 245.451 104.49 245.178 104.697C244.678 104.483 243.333 104.122 243.224 104.025C242.862 103.883 242.357 103.754 241.507 103.577C240.661 103.401 239.398 103.163 237.552 102.769C236.402 102.522 235.9 102.342 235.474 102.181C235.238 102.087 235.124 101.937 234.892 101.754C234.776 101.663 234.632 101.564 234.428 101.464C234.248 101.37 233.927 101.252 232.933 101.045C229.838 100.393 226.589 100.467 225.565 100.328C224.399 100.175 224.188 99.8173 223.808 99.7558C223.424 99.6907 223.299 99.9694 222.381 99.8085C221.113 99.5756 219.792 99.1084 218.148 98.5966C217.395 98.3538 216.16 98.0291 215.079 97.7456C214.047 97.4736 213.315 97.2839 212.707 97.1542C210.907 96.7747 210.475 96.9155 209.393 97.043C208.068 97.126 207.062 97.0725 204.471 96.9841C202.453 96.7396 201.514 96.5503 200.54 96.5105C197.6 96.3807 196.981 96.565 194.762 95.9468C193.508 95.6482 192.285 95.4247 191.104 95.2053C189.928 95.0105 188.808 94.6763 187.265 94.5406C185.888 94.4214 184.836 94.4509 183.749 94.3181C183.021 94.2227 183.057 94.193 182.94 94.1693C182.847 94.1448 182.738 94.119 182.608 94.0932C182.328 94.041 182.057 93.9884 181.085 93.92C180.569 93.8847 179.909 93.8477 178.364 93.7826C177.043 93.7269 173.017 93.5655 173.199 93.5632C169.075 93.3258 158.092 92.1946 161.008 94.0367C159.509 94.3433 148.215 93.5791 145.937 93.5329C143.898 93.4994 142.264 93.8038 140.628 93.7805C135.746 93.6999 131.718 93.433 126.052 93.7058C124.534 93.7769 122.886 94.1637 121.967 94.159C120.866 94.1523 119.668 93.7769 118.22 93.755C114.778 93.7039 108.198 93.8565 104.703 93.8339C104.06 93.8285 103.831 93.501 102.918 93.4103C102.461 93.3662 102.01 93.3295 101.552 93.3014C101.329 93.2873 101.094 93.2755 100.867 93.266C100.754 93.2612 100.642 93.2572 100.532 93.2536C100.067 93.2563 98.9808 93.2744 98.3861 93.2859C93.5702 93.3887 93.5227 93.4603 92.7366 93.558C91.63 93.7484 91.6562 94.0433 91.7995 94.5513C90.9861 94.3695 91.1925 94.3282 90.6757 94.5254C89.6477 94.8323 88.8512 95.2188 88.0882 95.6299C87.7055 95.8357 87.3246 96.0498 86.9362 96.2574C86.4122 96.5234 86.7601 96.4052 84.9955 97.1828C78.9977 99.6781 77.8368 98.9414 77.2383 99.1641C76.2178 99.3088 75.0676 99.6112 71.1869 100.093C69.4287 100.331 64.9911 100.615 64.7983 100.7C63.8556 100.835 62.6361 101.202 61.0123 101.589C60.6207 101.681 60.1892 101.777 59.8031 101.856C58.2366 102.16 57.4222 102.336 56.7679 102.477C55.4805 102.757 54.7663 102.929 54.1443 103.081C52.9446 103.378 52.3317 103.559 51.8661 103.714C50.7935 104.097 50.6135 104.222 49.4956 104.563C48.4732 104.909 46.8408 105.328 41.4429 106.198C39.9338 106.491 39.8065 106.474 37.7895 106.718C35.0801 107.144 33.3216 107.423 31.8359 107.511C30.6679 107.573 29.5898 107.839 27.9704 108.591C25.5299 108.713 21.439 109.292 17.283 108.307C15.6126 107.834 14.8378 107.304 14.3708 106.966C13.9087 106.615 13.8153 106.405 13.039 105.829C12.5846 105.869 12.0722 105.881 11.484 105.835C10.8445 105.49 9.76779 105.165 8.82768 103.957C8.74532 103.509 8.75272 103.097 8.81149 102.732C8.1209 101.149 8.24683 99.6003 7.98218 98.1833C7.70192 96.7304 7.2976 96.1277 6.97757 95.6664C6.70111 95.2834 6.07778 94.5651 5.37577 92.9481C4.5679 90.8301 4.60361 90.4502 4.39045 89.6215C4.11798 88.3786 3.64609 86.1547 3.06176 83.516C2.865 82.6044 2.57756 81.4219 2.23692 79.7621C1.86498 78.0685 1.64931 75.988 1.67797 74.4608C1.69694 72.8986 1.79248 71.8316 1.79575 70.9118C1.79818 70.6895 1.79838 70.4817 1.79334 70.2495C1.77638 69.8269 1.70851 68.6507 1.66867 67.9696C1.58053 66.4712 1.50432 65.3407 1.4455 64.4856C1.21443 61.2325 1.20129 60.7171 1.20063 59.9571C1.20592 58.5764 0.85822 58.8593 1.51885 57.3028C1.36157 56.7542 1.17501 56.1315 0.984691 55.4138C0.709342 54.9921 0.43156 54.5283 0.162612 54.0038C-0.0159463 52.6515 -0.0585508 51.4226 0.0906328 50.1783C0.249141 48.9122 0.557154 47.4254 1.50542 45.8423C2.78017 43.6383 5.34036 42.392 7.23483 41.4677C8.74188 40.6496 11.526 39.17 12.9729 38.6285C13.5086 38.3884 15.0086 37.7196 16.11 37.4052C17.2574 37.0542 18.3521 36.7901 19.4183 36.5797C20.7751 36.345 20.4378 36.3301 22.2282 36.0194C22.5915 35.9587 23.3352 35.8901 23.55 35.8792C23.6978 35.8678 23.8503 35.8563 24.0095 35.8448C24.3274 35.8217 24.6741 35.798 25.043 35.7752C26.5228 35.6839 28.3565 35.6021 30.5682 35.5899C31.5427 35.5823 33.7227 35.6589 34.3087 35.7208C35.1903 35.7692 36.0729 35.7163 36.8979 35.5699C38.1017 35.3553 38.8831 35.0776 39.7901 34.8491C40.4835 34.6379 40.9823 34.4529 42.3445 34.4241C43.4814 34.3959 45.2894 34.4423 47.672 34.3528C49.0384 34.3306 50.7051 34.2583 52.6782 34.1693C54.6006 34.0823 57.1077 33.9902 59.4043 33.9847C61.5596 33.9784 63.0888 34.0007 64.2407 33.9702C65.5872 33.9365 66.115 33.6799 66.8568 33.6434C67.2512 33.6144 69.5608 33.5426 70.4475 33.4171C71.4835 33.2931 72.1109 33.1418 72.7374 32.98C74.0319 32.6418 74.7457 32.3442 76.9631 31.734C83.3162 31.3425 82.5779 32.3858 84.1235 32.8805C84.7279 33.0298 85.4 33.5635 86.6032 33.5731C87.6106 32.6178 87.7641 31.6034 88.0827 31.1031C88.124 31.0507 88.1677 31.0254 88.2132 31.0194C88.2036 31.0167 88.1937 31.0135 88.184 31.0087C87.8307 30.7906 87.3789 28.2326 86.9521 28.0644C86.5343 27.8627 83.868 27.8062 83.6493 26.0218C83.5804 25.4032 83.5791 24.7131 83.6675 24.0267C83.7011 23.7464 83.6679 24.1427 83.7791 23.236C83.8822 22.3931 83.9693 21.642 84.0388 21.0453C84.1778 19.8433 84.2566 19.2284 84.335 18.7492C84.6471 16.96 84.8598 16.8725 85.1502 15.7736C85.2921 15.2755 85.4544 14.6478 85.7594 13.8993C85.9946 13.2438 86.8031 11.9012 86.8856 11.7334C87.5989 10.4899 88.3798 8.64889 89.6952 6.78786C90.3185 5.9173 91.0494 5.14659 91.8043 4.48039C92.1975 4.13676 92.4902 3.87827 92.9966 3.50057C93.8546 2.9226 94.6311 2.57965 95.3678 2.32066C96.609 2.21573 97.4093 2.39496 97.8871 2.5211C98.4466 2.64352 98.0892 2.84897 98.2063 3.01118C98.2506 2.84443 98.5498 3.27596 98.7952 3.24158C98.9973 3.21277 99.0922 2.93521 99.6335 2.90958C100.028 2.89392 100.138 2.9553 102.27 2.99741C102.888 3.00765 103.461 3.01715 105.577 3.01807C106.134 3.01823 106.845 3.01725 107.972 3.01531C108.62 3.01397 109.322 3.01261 110.344 3.01049C110.869 3.0094 111.433 3.00853 112.069 3.00739C112.962 3.00551 112.339 3.00802 112.474 3.00843C112.583 3.0146 112.695 3.02035 112.81 3.0253C113.267 3.04513 113.77 3.05383 114.271 3.04149C117.626 2.96209 118.244 2.24951 120.285 2.15604C122.408 2.05947 125.734 2.44381 128.487 2.19289C128.83 2.11449 129.176 2.03602 129.522 1.95767C129.274 1.7805 129.026 1.6034 128.78 1.42626C130.168 1.34369 130.764 1.70685 132.045 1.71383C133.549 1.7223 134.322 1.37874 135.341 1.38114C136.175 1.38343 137.307 1.66051 138.393 1.64461C139.977 1.6229 139.632 1.22399 140.486 1.15074C140.822 1.12156 147.151 0.915476 147.52 0.91414ZM153.88 6.86535C152.741 6.87313 151.995 7.29371 149.694 7.39055C142.017 7.70803 131.874 7.24741 124.849 7.46529C121.37 7.5721 116.644 8.11731 113.337 8.24569C113.17 8.2521 112.991 8.25725 112.803 8.26154C112.708 8.26368 112.612 8.26571 112.513 8.26739C112.501 8.2676 112.489 8.26753 112.476 8.26774C112.47 8.26784 112.464 8.26798 112.458 8.26808C112.339 8.26851 111.928 8.26992 111.672 8.27084C110.547 8.2748 109.681 8.27838 108.942 8.28186C107.551 8.2885 106.797 8.29353 106.117 8.29804C103.736 8.31463 103.088 8.32357 102.38 8.33111C101.72 8.33855 101.303 8.34371 100.965 8.34798C99.684 8.36466 99.4224 8.36546 99.1679 8.36796C98.7388 8.37285 98.8226 8.38026 98.8128 8.49814C98.8206 8.64078 98.8761 9.09632 98.8775 9.15387C98.8774 9.179 98.8588 9.12491 98.8342 9.0633C98.8105 9.00018 98.8156 8.93387 98.268 8.96962C96.5921 9.03888 96.608 9.0919 95.7012 9.63155C95.0119 10.0779 94.5348 10.4548 93.5435 12.1123C93.1975 12.6864 92.8062 13.4336 92.2896 14.3078C91.7927 15.1599 90.955 16.3017 90.7284 16.8853C90.1747 18.4799 90.3689 17.2776 89.9928 20.4415C89.9438 20.8935 89.8818 21.4779 89.7968 22.2276C89.7544 22.6011 89.7069 23.0108 89.6535 23.4533C89.5999 23.9005 89.5412 24.3616 89.5388 24.3212C89.4903 24.5166 89.4472 24.6677 89.4025 24.9104C89.3132 25.3742 89.2399 26.0344 89.1586 26.9183C89.019 28.5605 88.7224 30.9326 88.2759 31.0221C88.6382 31.1064 89.1004 32.2218 89.4421 31.6827C89.4833 32.1306 89.5168 32.5006 89.5123 32.9559C89.5062 33.1911 89.5062 33.4257 89.4149 33.8603C89.36 34.0862 89.3078 34.3589 89.0367 34.846C88.8676 35.434 87.114 36.5095 86.8208 36.4413C86.6545 36.4976 86.2221 36.6232 85.8083 36.7305C84.9632 36.95 83.9488 37.1724 82.7008 37.315C80.0157 37.534 77.6279 37.704 76.2096 37.7011C74.9233 37.9667 74.087 38.2676 71.8419 38.6003C70.7286 38.7577 69.2019 38.8551 67.5404 38.8834C66.8096 38.8983 66.0852 38.9085 65.2333 38.9209C63.5341 38.9471 61.5817 38.9697 59.0902 39.0673C56.2577 39.1783 54.2522 39.3762 52.2532 39.5694C51.5152 39.4017 50.8073 39.232 50.1266 39.0559C50.1265 39.0555 50.1266 39.055 50.1266 39.0545C47.7623 39.0124 44.9579 39.7178 43.4745 39.8756C41.369 40.0995 40.5207 40.1067 38.344 40.5616C37.298 40.7813 35.8858 41.12 34.2288 41.2367C32.3631 41.3334 30.3876 41.444 28.996 41.5428C25.969 41.8083 24.8279 41.6185 21.9579 42.2003C19.5683 42.5773 17.0744 43.11 14.429 44.2639C13.04 44.7713 12.2735 45.1709 10.1912 46.2935C8.32795 47.2167 7.34494 47.6954 6.94278 48.0943C6.54134 48.4374 6.07745 49.183 5.89168 50.2451C5.70294 51.2544 5.72184 52.3151 5.93163 53.8286C6.12635 55.231 6.39769 56.5001 6.51952 57.7946C6.61128 59.0217 6.56968 58.9106 6.61871 59.5896C6.69143 60.8132 6.86157 61.9782 7.23036 67.2232C7.439 70.301 7.48294 70.9656 7.46765 72.6365C7.45087 74.2161 7.43513 75.961 7.93362 78.1458C8.18764 79.2964 8.42826 80.2562 8.62552 81.0646C8.82305 81.8703 8.97643 82.5402 9.20548 83.5853C9.60802 85.4365 9.8162 86.6081 9.85915 87.239C9.89985 87.8802 9.5811 88.1269 9.69901 88.7361C9.97776 89.9123 10.5603 91.7279 11.1761 92.6202C11.7221 93.5841 12.4333 94.5287 12.9412 97.4259C13.0763 99.1362 13.319 100.06 13.3965 100.419C14.7427 101.091 16.0477 101.482 16.7134 101.78C17.6163 102.222 17.9183 102.86 20.9801 102.959C23.6485 103.005 25.8736 102.892 27.2392 102.715C28.6426 102.54 29.6593 102.345 30.7142 102.175C31.7245 102.031 32.62 101.789 34.4716 101.315C35.2682 101.105 36.9926 100.735 37.5743 100.633C37.8451 100.574 38.111 100.503 38.5696 100.369C39.0374 100.236 39.6797 100.018 41.1292 99.6938C41.8471 99.5343 42.7911 99.355 43.8134 99.1941C44.3156 99.1124 44.5706 99.0527 44.9695 98.9585C46.4032 98.608 48.4264 97.9747 49.8431 97.8275C49.8412 97.8112 50.4547 97.678 51.6478 97.4043C52.5246 97.2075 53.4196 96.9932 55.9627 96.463C56.3074 96.3918 56.6694 96.3177 57.1726 96.2171C57.5426 96.1417 58.8419 95.8921 58.7472 95.9092C59.0498 95.8487 59.3274 95.7888 59.6189 95.7226C60.1957 95.5915 60.7604 95.4469 61.3267 95.3034C62.4586 95.0128 63.6147 94.7593 64.7346 94.6442C65.1066 94.5982 66.5072 94.5064 67.5039 94.4138C68.5356 94.3217 69.4171 94.2287 70.1551 94.1407C75.5921 93.4311 75.7584 93.1271 78.4761 92.8448C79.1716 92.7193 80.2782 92.5477 82.9536 91.3635C83.8176 90.9754 83.6532 91.0412 83.8966 90.9254C84.0823 90.8349 84.2783 90.7374 84.4882 90.6327C84.9075 90.424 85.3816 90.1848 85.9409 89.9284C86.499 89.6726 87.1428 89.403 87.8582 89.1576C88.5482 88.9146 89.5204 88.6651 89.3883 88.6958C89.5366 88.6511 89.7542 88.5894 90.0668 88.5208C90.3948 88.4509 90.775 88.374 91.599 88.2787C92.0268 88.2308 92.5417 88.1782 93.5442 88.1124C94.5951 88.0487 95.9713 87.9547 100.425 87.8637C102.818 87.8064 105.132 87.7701 107.414 87.7397C116.597 87.6268 124.794 87.5884 133.61 87.633C138.253 87.6611 142.38 87.7659 146.679 87.8024C151.201 87.8421 155.629 87.8469 160.013 87.881C163.4 87.9077 167.217 87.8671 170.97 87.9044C171.913 87.9143 172.85 87.9296 173.774 87.956C173.679 87.9504 175.365 88.0129 176.23 88.0425C177.192 88.0758 177.954 88.1012 178.559 88.1217C179.769 88.1625 180.418 88.1856 180.931 88.2078C182.798 88.2896 183.125 88.3673 183.664 88.485C184.122 88.5849 184.051 88.7866 184.758 88.9286C185.528 89.1114 186.137 88.9133 189.647 89.2217C189.695 89.3908 189.738 89.5598 189.779 89.7286C191.073 89.8862 192.315 89.9406 193.731 90.0837C195.073 90.1898 197.262 90.6579 197.143 90.5604C197.372 90.5773 197.836 90.602 198.826 90.6241C199.906 90.6639 200.964 90.6023 204.572 90.8951C210.705 91.6322 209.863 91.7444 211.165 91.9039C212.1 92.082 211.654 92.3042 212.719 92.5055C213.2 92.5988 213.87 92.7104 214.91 92.8981C215.848 93.0663 217.9 93.4553 218.994 93.6651C221.403 94.1436 222.882 94.4112 223.681 94.5244C224.361 94.661 227.28 95.1121 230.83 95.5387C231.568 95.6275 232.413 95.7382 233.513 95.9206C233.993 95.997 235.08 96.206 235.203 96.2274C235.497 96.2832 235.777 96.3422 236.049 96.4031C237.252 96.6754 237.537 96.7816 238.997 97.0375C243.005 97.7772 243.689 97.7772 244.76 97.9415C246.196 98.2167 248.356 98.1279 250.914 98.7956C254.453 99.7793 254.166 99.6874 256.245 100.059C257.185 100.196 259.348 100.764 260.008 101.106C260.834 101.464 261.311 101.582 261.477 101.572C263.319 101.467 263.741 101.018 264.558 100.852C266.81 100.352 266.502 100.263 270.703 98.6613C271.837 98.2384 272.276 98.0818 272.443 97.9939C272.593 97.8848 272.323 98.2744 272.67 97.7297C273.155 96.8413 273.395 96.7143 273.469 95.052C273.673 86.0955 276.646 79.5269 277.556 73.907C277.673 73.3775 277.808 72.7856 277.943 71.782C278.01 71.2744 278.077 70.6571 278.125 69.8324C278.176 69.0402 278.187 67.7998 278.189 67.4781C278.206 65.5302 278.22 63.6254 278.224 61.7411C278.229 59.8599 278.228 57.9918 278.194 56.2087C278.189 55.9874 278.184 55.7746 278.178 55.5509C278.171 55.3245 278.113 53.2773 278.109 52.9407C278.097 52.3751 278.089 52.0831 278.082 51.9244C277.288 50.4433 277.144 50.4499 274.069 49.0948C273.684 48.9375 272.747 48.5971 272.755 48.6061C272.629 48.5654 272.42 48.5057 272.186 48.4494C271.716 48.3352 271.121 48.2208 270.435 48.117C269.123 47.8987 266.884 47.7749 266.718 47.732C266.137 47.6583 265.316 47.5502 263.622 47.1999C262.437 47.0245 256.625 45.35 256.235 45.1029C254.906 44.5975 253.705 44.0764 252.559 43.6654C251.979 43.4561 251.443 43.2787 250.859 43.1064C248.563 42.4872 248.216 42.3989 247.496 42.2061C246.869 42.0388 246.405 41.9147 246.017 41.8097C243.678 41.1741 244.482 40.9552 243.393 40.6966C242.407 40.466 242.215 40.7057 242.026 40.6846C241.673 40.6498 241.874 40.7017 241.041 40.6667C240.586 40.6453 240.074 40.65 238.194 40.4797C237.705 40.4334 237.107 40.372 236.277 40.2696C235.857 40.2176 235.385 40.1559 234.829 40.0774C234.367 40.0143 233.21 39.8351 233.325 39.8549C232.877 39.7924 232.409 39.7276 231.912 39.6559C230.921 39.5127 229.805 39.3406 228.584 39.1045C227.973 38.9866 227.346 38.8548 226.698 38.7064C226.537 38.6706 225.498 38.4248 224.874 38.2735C224.229 38.1172 223.75 37.9984 223.337 37.895C220.293 37.1257 219.933 36.9909 219.461 36.8098C219.253 36.7354 219.536 36.6994 218.994 36.4977C218.525 36.3103 218.122 36.1406 217.758 36.06C217.392 35.9795 216.498 35.996 215.514 35.801C214.427 35.5866 213.586 35.4517 212.841 35.3753C212.469 35.3368 212.12 35.3114 211.781 35.2954C211.608 35.2873 211.458 35.2827 211.291 35.2789C211.151 35.2755 210.915 35.2734 209.919 35.2558C207.101 35.208 206.369 35.1859 205.438 35.1477C204.59 35.1107 204.032 35.0686 203.551 35.0082C202.548 34.8945 201.851 34.5543 200.131 34.3291C199.299 34.2075 198.319 34.0908 197.07 33.9475C196.468 33.8725 195.626 33.805 195.057 33.6926C194.365 33.5687 193.52 32.6948 193.363 32.3897C192.603 31.0321 192.577 30.3658 192.206 27.9115C192.122 27.2791 192.034 26.5678 191.912 25.4315C191.851 24.8609 191.785 24.2136 191.68 23.1061C191.634 22.6251 191.517 21.3163 191.472 20.8021C191.439 20.4333 191.409 20.1005 191.381 19.803C191.163 17.4582 191.038 17.3109 190.975 17.106C190.936 17.0146 190.957 17.0609 190.916 16.9924C190.754 16.7393 190.444 16.2207 190.21 15.8118C189.717 14.9535 189.21 14.0096 188.553 12.9705C187.622 11.5157 186.917 10.325 186.556 9.92567C186.448 9.79735 186.364 9.71769 186.315 9.67633C186.272 9.66493 186.103 9.59729 185.857 9.49758C185.163 9.21963 184.592 8.89014 183.113 8.43821C182.034 8.13549 182.427 8.2618 182.324 8.23433C182.292 8.22974 182.266 8.22626 182.241 8.22331C182.14 8.21268 182.093 8.20045 181.653 8.14892C181.419 8.12317 181.107 8.08837 180.349 8.03664C179.961 8.0107 179.472 7.98051 178.587 7.9409C177.597 7.90066 176.825 7.85454 172.842 7.77111C171.783 7.74996 170.414 7.72563 168.404 7.69948C167.923 7.69323 167.357 7.68641 166.803 7.68019C166.751 7.67944 166.73 7.67905 166.693 7.67847C166.624 7.67737 166.555 7.67614 166.486 7.67503C166.209 7.67058 165.928 7.66617 165.644 7.66159C165.076 7.65247 164.542 7.64353 163.974 7.63404C162.891 7.61553 161.786 7.59595 160.703 7.57481C156.948 7.50166 154.4 6.86156 153.88 6.86535ZM189.825 94.3904C190.462 94.4174 191.113 94.4403 191.784 94.4696C191.437 94.2809 191.095 94.094 190.761 93.9076C190.438 93.8548 190.12 93.8023 189.808 93.7488C189.813 93.9626 189.819 94.1765 189.825 94.3904ZM278.07 51.7022C278.058 51.6788 278.06 51.6896 278.071 51.7219C278.071 51.7152 278.07 51.709 278.07 51.7022ZM197.669 28.435C197.749 28.8727 197.817 29.1473 197.885 29.3398C197.994 29.656 198.119 29.6901 198.128 29.4042C198.202 29.3105 197.989 28.8776 197.669 28.435ZM196.815 27.5386C196.647 27.4706 195.892 27.4105 196.434 27.4824C196.564 27.5032 196.697 27.5263 196.832 27.551C196.826 27.5469 196.821 27.5425 196.815 27.5386ZM194.257 11.6401C193.805 11.5808 194.424 12.7583 194.91 13.3914C195.409 14.0422 195.876 14.2976 195.707 13.65C195.664 13.427 194.532 11.7367 194.257 11.6401Z" fill="#31260C"/>
<path d="M87.7065 25.6905C87.521 27.3247 87.8058 28.9299 87.8058 32.439C87.8058 33.0136 87.969 34.5627 87.7065 34.6006C86.2465 34.938 84.6735 35.4193 82.5075 35.6427C79.7539 36.0136 77.8425 36.3972 76.3659 36.7229L76.2341 36.752C74.1241 37.2177 72.9135 37.485 69.3674 37.5406C67.0193 37.5775 62.8906 37.5775 59.3451 37.7674C55.7995 37.9573 52.9241 38.3259 50.0432 38.5102C47.1623 38.6946 44.3591 38.6496 42.656 38.7325C40.3616 38.8442 38.8811 39.4061 36.3557 39.4776C32.4505 39.5882 28.8052 39.8383 26.5791 39.9613C25.2454 40.035 24.446 40.2949 23.6424 40.4081C22.0416 40.6338 19.576 41.1508 17.9107 41.8615C16.5992 42.4211 14.9188 42.9195 13.3988 43.8018C10.643 45.4015 8.64752 45.7402 7.37224 47.897C6.55454 49.2799 6.38056 51.0489 6.44618 52.3686C6.55901 54.6374 7.2016 56.6973 7.33984 58.4388C7.52863 60.817 7.87933 62.6177 8.30834 69.319C8.49377 72.2156 7.99313 73.9333 8.79315 77.5407C9.16402 79.2129 9.47861 80.3502 9.79851 81.6705C10.3615 83.994 11.0564 86.9881 11.4361 88.708C11.7735 90.2362 12.4378 91.2657 12.8894 92.1307C13.3374 92.9886 13.7947 94.1495 14.0054 95.7467C14.231 97.4569 14.0074 99.2849 15.051 99.8754C16.1703 100.509 17.2303 100.9 18.1419 101.29C19.45 101.849 20.7519 102.742 23.8959 102.741C29.4992 102.738 30.8196 102.324 34.1942 101.808C35.9111 101.545 37.8007 100.913 40.4498 100.467C42.0104 100.205 42.8691 99.7199 46.6708 99.1638C48.7172 98.8644 50.4588 98.1761 52.4002 97.973C53.1051 97.8993 56.4887 97.0859 61.2005 96.2203C63.8334 95.7366 65.1376 95.1865 67.4226 95.0306C73.4492 94.6195 75.4918 94.178 78.2079 93.727C79.9907 93.431 81.3671 93.7611 86.1413 91.6392C87.8102 90.8975 89.1003 90.1273 91.396 89.5547C92.3009 89.3291 93.6279 89.0342 101.622 88.8867C109.615 88.7393 123.845 88.7393 131.225 88.7773C138.606 88.8152 139.122 88.889 146.216 88.9638C153.311 89.0387 166.585 88.9759 173.369 89.2252C180.451 89.4855 181.525 89.4629 182.915 89.7089C184.178 89.9323 186.251 89.7235 188.502 90.1557C190.433 90.5266 192.96 90.8624 195.202 91.4225C196.392 91.7196 199.735 91.5181 203.888 91.943C206.072 92.1665 207.409 92.5585 208.717 92.687C210.241 92.8367 212.466 93.3445 215.682 94.0286C218.146 94.5525 220.191 95.1481 221.861 95.368C223.574 95.5936 227.643 95.6769 232.626 96.6727C233.923 96.9319 234.8 97.247 236.016 97.4927C239.138 98.1227 240.785 98.3693 242.117 98.6455C243.905 99.0163 246.194 99.0557 247.851 99.5391C249.642 100.062 251.114 100.402 252.018 100.581C253.141 100.804 254.659 100.936 255.966 101.288C256.935 101.55 257.963 101.937 259.21 101.884C261.935 101.769 264.047 101.429 265.574 100.801C266.841 100.281 267.819 99.8411 269.707 99.1258L269.781 99.0978C270.832 98.7 271.806 98.3314 272.348 97.4491C272.945 96.4784 273.55 95.3095 273.649 93.8309C273.838 91.036 273.92 88.7686 274.358 87.0212C274.656 85.8304 274.562 84.8685 275.066 83.5952C275.626 82.1799 276.132 80.6768 276.405 79.3514C276.667 78.0824 276.956 76.568 277.337 74.9189C277.708 73.3148 278.294 71.5454 278.341 67.4915C278.378 64.3425 278.444 58.4428 278.34 55.3813C278.228 52.0971 278.307 51.5928 278.079 51.2024C277.556 50.3076 277.037 49.1434 275.581 48.336C274.575 47.7786 273.31 47.1401 271.148 46.4001C269.732 45.9153 267.053 45.5571 264.819 45.4338C264.151 45.397 260.822 44.9785 256.429 43.6421C253.869 42.8635 252.171 41.9893 249.338 41.2549C244.312 39.9524 240.83 39.2049 240.394 39.1034C239.272 38.842 237.579 38.9884 232.002 38.1338C229.814 37.7987 227.917 37.537 225.29 36.9385C221.535 36.0829 219.176 35.4577 218.229 35.2663C214.544 34.5212 212.639 33.9083 209.688 33.8532L209.473 33.8492C205.641 33.7776 202.91 33.7266 202.15 33.5169C200.398 33.0332 197.575 32.8178 194.816 32.5127C194.149 32.439 193.67 28.3384 193.158 22.68C192.897 19.7912 192.77 18.6644 192.225 17.8196C191.48 16.6634 190.79 15.2912 189.803 13.7959C188.647 12.0432 187.742 10.2909 186.527 9.85376C185.595 9.51864 184.421 8.85757 182.347 8.36247L182.324 8.35708C181.534 8.16811 180.318 7.87738 166.49 7.73133C152.53 7.58387 126.505 7.58387 113.34 7.62185C100.175 7.65983 99.881 7.74011 99.5809 7.77042C98.4639 7.88325 97.107 7.81417 95.6332 8.70318C94.5184 9.37565 93.6134 10.1092 92.8048 11.2389C91.6855 12.8028 91.0049 14.4138 90.1238 15.6692C89.1564 17.0477 88.6803 18.0789 88.4136 19.2439C88.1153 20.5464 88.1861 21.4634 87.7065 25.6905Z" fill="#395F24"/>
<path d="M147.729 5.03029C150.375 5.02756 150.615 5.39256 152.737 5.43255C155.689 5.48771 158.707 5.45092 161.703 5.39604C163.2 5.36863 164.688 5.33679 166.183 5.31028C179.71 5.42849 178.733 5.52107 180.175 5.5493C181.834 5.61327 182.096 5.70784 182.473 5.83308C181.796 6.651 182.644 7.55966 182.613 6.06521C182.675 6.13182 182.727 6.15862 182.772 6.16233C182.795 6.16431 182.814 6.15995 182.834 6.15268C182.95 6.16997 182.453 6.02747 183.323 6.23086C185.672 6.80801 186.501 7.22395 187.072 7.47276C187.151 7.52479 188.333 8.04349 188.905 8.70571C189.553 9.37803 190.047 10.1276 190.905 11.4809C192.691 14.1666 193.734 15.9068 194.319 16.7505C194.977 17.8083 195.078 19.3614 194.694 20.6536C194.794 21.2886 195.199 25.6828 195.314 26.5445C195.462 27.8148 195.557 28.4968 195.644 29.0893C195.71 29.5295 195.768 29.8805 195.822 30.1641C197.536 30.4169 200.43 31.1452 201.318 31.4033C201.457 31.4377 201.709 31.4958 202.031 31.5817C202.387 31.6741 202.714 31.7846 202.671 31.7852C202.763 31.8375 203.306 31.9486 204.621 32.0346C205.307 32.0794 206.113 32.1209 207.712 32.1696C210.062 32.2311 210.309 32.2504 210.878 32.3029C211.934 32.4012 212.84 32.5683 213.249 32.6418C214.059 32.7849 215.248 33.0502 216.534 33.3288C217.177 33.4672 217.828 33.6015 218.44 33.7159C218.757 33.7698 218.783 33.7631 218.944 33.7783C219.289 33.8056 219.699 33.6342 220.382 33.6863C220.733 33.7146 221.145 33.7973 221.815 34.0276C222.524 34.2653 223.286 34.6117 225.71 35.4507C227.814 35.8773 228.999 36.0434 230.095 36.2328C230.64 36.3251 231.153 36.4158 231.697 36.5183C231.444 36.5079 235.733 37.1551 236.748 37.2608C237.694 37.3762 237.658 37.5338 238.03 37.5653C238.759 37.6246 239.448 37.5461 239.92 37.5866C240.734 37.6639 240.725 38.0595 240.822 37.5305C241.02 37.4842 241.47 37.4912 242.393 37.6104C242.691 37.7832 243.05 37.9708 243.519 38.1852C244.343 38.2644 245.134 38.3308 247.301 38.7534C246.663 38.7932 246.843 38.9536 248.268 39.3737C248.462 39.4304 248.673 39.4906 249.02 39.5852C249.314 39.6663 249.84 39.8073 249.794 39.7994C249.909 39.8375 250.034 39.8756 250.166 39.9137C250.433 39.9902 250.719 40.064 250.995 40.1293C252.103 40.392 253.082 40.5169 252.262 39.9967C253.68 40.5653 254.884 41.1441 256.017 41.6082C256.303 41.7258 256.574 41.8342 256.86 41.9429C257.975 42.3077 259.237 42.6572 259.825 42.8191C261.136 43.177 261.86 43.3549 262.485 43.5123C262.244 43.9131 263.618 44.1837 264.204 44.1085C264.86 44.0473 264.921 43.7258 264.921 43.4906C265.247 43.5086 265.822 43.5495 266.213 43.585C268.004 43.8621 269.311 44.0696 270.558 44.353C271.353 44.4607 274.604 45.7289 275.485 46.3078C276.148 46.6999 275.856 46.5485 276.797 47.1588C277.527 47.6886 277.795 48.0601 277.996 48.3412C278.362 48.8976 278.379 49.1551 278.482 49.6926C278.912 50.3777 279.092 50.6113 279.236 50.91C279.649 51.2446 279.768 51.5651 279.783 52.3469C279.792 52.7399 279.768 53.5179 279.786 55.3548C279.752 55.635 279.704 55.9235 279.652 56.232C279.444 57.4618 279.199 59.0345 279.6 62.6237C279.423 63.1968 279.311 63.9788 279.242 64.8971C279.208 65.3544 279.184 65.8476 279.17 66.3635C279.151 66.9466 279.17 67.1007 279.13 68.5828C278.919 73.2327 278.522 73.9726 278.469 74.8846C278.434 75.1371 278.647 74.801 278.508 75.6C278.185 77.4729 277.488 80.2224 277.874 80.3489C277.45 81.5381 276.912 82.7347 276.267 84.0315C275.986 84.9117 276.067 85.7419 275.938 86.878C276.071 86.8977 276.205 86.9173 276.339 86.9365C275.84 88.1148 275.714 88.3397 275.555 89.5388C275.414 90.6151 275.349 92.051 275.219 93.2125C275.149 93.6479 275.054 93.8813 274.717 95.1866C274.227 96.7096 273.594 98.6374 271.792 99.5322C271.301 100.04 270.764 100.451 270.245 100.869C267.146 102.189 266.875 101.785 265.846 102.141C265.747 102.175 264.923 102.504 263.724 102.755C262.565 103.013 260.839 103.174 260.636 103.192C259.073 103.353 258.346 103.499 257.291 103.392C256.17 103.277 255.237 102.943 252.296 102.506C251.103 102.282 251.104 102.097 250.119 101.862C247.87 101.16 243.05 100.834 242.325 101.073C241.526 100.83 241.457 100.727 240.992 100.596C240.551 100.467 239.95 100.339 238.89 100.134C238.359 100.031 237.7 99.9049 236.869 99.7402C236.477 99.6625 235.901 99.5468 235.566 99.4771C235.356 99.4327 235.135 99.3816 234.938 99.3328C234.136 99.1325 233.521 98.9419 233.148 98.8196C232.653 98.6745 232.953 98.3844 229.796 97.8167C227.387 97.3918 224.403 97.3825 223.514 97.2774C222.48 97.157 222.298 96.9114 221.959 96.859C221.73 96.819 221.2 96.9382 220.41 96.7811C219.166 96.5339 217.801 96.096 216.038 95.6233C213.847 95.0731 211.852 94.5683 210.912 94.3838C207.888 93.8761 208.612 94.3183 202.068 93.8937C200.587 93.7579 199.705 93.6216 198.873 93.5951C197.615 93.558 196.762 93.5387 196.049 93.4842C195.304 93.4346 194.98 93.3338 193.531 93.0107C190.914 92.5152 189.403 92.059 186.08 91.7547C184.758 91.6744 183.8 91.7004 182.81 91.5508C182.191 91.4379 182.295 91.4396 181.938 91.3841C181.612 91.3367 181.307 91.2911 180.169 91.2277C179.561 91.1946 178.767 91.1594 176.878 91.0879C175.969 91.0533 174.54 91 173.285 90.9501C173.018 90.9368 172.728 90.9237 172.462 90.9119C168.423 90.7172 157.768 89.9529 160.601 91.1843C159.146 91.3854 148.168 90.8689 145.988 90.8279C144.009 90.7993 142.43 90.9954 140.846 90.9722C136.11 90.8925 132.185 90.7061 126.692 90.8844C125.219 90.9308 123.62 91.1883 122.728 91.185C121.66 91.1804 120.499 90.9301 119.094 90.916C115.754 90.8826 109.376 90.9918 105.98 90.9873C105.363 90.9855 105.143 90.7678 104.25 90.7104C103.292 90.6562 102.837 90.6126 101.355 90.6157C98.0499 90.6693 96.8868 90.722 95.9605 90.7659C95.0907 90.8098 94.6307 90.8499 94.272 90.8919C92.9851 91.0557 92.9908 91.2639 93.122 91.5969C92.2197 91.5124 92.1782 91.5437 91.9418 91.6417C90.1475 92.105 88.6159 93.0543 86.9697 93.7973C80.8564 96.4482 79.6453 95.7431 78.8546 95.9701C77.9768 96.0836 76.7828 96.3701 73.4427 96.7953C72.5697 96.9024 71.4815 97.0193 70.1503 97.1345C69.4868 97.192 68.7622 97.2494 68.0033 97.3039C67.0649 97.3693 67.2961 97.3568 66.9522 97.3935C65.942 97.5064 64.8507 97.801 63.3832 98.156C63.0224 98.2421 62.6531 98.3265 62.2756 98.4067C62.084 98.4474 61.8951 98.486 61.7129 98.5221C61.7382 98.5186 61.1072 98.6358 60.8043 98.6943C60.4861 98.7554 60.2207 98.8074 59.9723 98.8565C58.168 99.2157 57.4306 99.3835 56.6984 99.547C55.333 99.8562 54.6668 100.03 54.1578 100.173C52.8987 100.53 53.2097 100.571 51.9719 100.832C51.4426 100.96 50.8301 101.128 49.8297 101.376C49.3278 101.498 48.7229 101.642 47.9566 101.774C47.4011 101.877 45.3887 102.121 44.3101 102.339C42.4368 102.703 41.901 102.833 40.9098 102.926C38.1073 103.323 36.3203 103.718 34.8515 103.879C33.5472 104.002 32.655 104.196 31.2798 104.755C30.2532 104.86 28.9303 104.981 27.3498 105.028C25.7652 105.05 24.1184 105.183 21.899 104.903C18.1097 104.2 18.0158 103.407 17.1525 102.824C16.7978 102.832 16.4021 102.827 15.9516 102.791C15.3973 102.556 14.7515 102.272 13.9896 101.849C13.8642 101.629 13.6077 101.285 13.483 100.958C12.3126 99.6779 12.3755 98.37 12.2028 96.8225C12.0697 95.2712 11.6099 94.1529 11.2892 93.5979C10.9772 93.035 10.6115 92.6665 9.98526 91.455C9.6918 90.8804 9.36 90.0622 9.15629 89.1879C9.06512 88.8445 8.97591 88.486 8.89524 88.1274C8.61844 86.9033 8.23095 85.1321 7.54795 82.199C7.35227 81.3313 7.07787 80.2667 6.73724 78.7329C6.37438 77.2064 6.10169 75.2268 6.11112 73.765C6.10724 72.2637 6.20127 71.1804 6.19515 70.2514C6.19513 70.0174 6.19246 69.8073 6.18516 69.5806C6.18999 69.544 6.10117 68.1096 6.06153 67.4918C5.96667 66.0141 5.88317 64.9031 5.81769 64.065C5.56053 60.8867 5.52727 60.4285 5.50498 59.7018C5.46893 58.4253 5.25182 58.5513 5.59039 57.0183C5.44586 56.4572 5.27518 55.8308 5.10789 55.1169C4.89901 54.6874 4.69093 54.2197 4.49623 53.6959C4.33744 52.2795 4.34101 51.4427 4.51655 50.2154C4.60853 49.6195 4.75127 48.9894 4.99492 48.3184C5.21978 47.6671 5.68656 46.8294 5.95166 46.4811C7.2304 44.6037 9.47413 43.7454 11.3956 42.7753C12.9805 41.8466 15.4713 40.7687 16.8074 40.2454C18.5788 39.4143 21.0722 38.796 22.9994 38.4666C23.8978 38.3459 24.0871 38.1635 25.9523 37.9486C27.3705 37.8383 27.3944 37.8445 28.259 37.7902C29.7514 37.7014 31.5781 37.614 33.8056 37.579C36.4992 37.5527 38.3169 37.697 39.9345 37.3814C41.0841 37.1863 41.9088 36.9895 42.6201 36.8427C43.1441 36.7038 43.7314 36.5736 45.0664 36.5493C46.1341 36.5278 48.2774 36.5355 50.274 36.4401C51.6331 36.3944 53.2725 36.2964 55.1944 36.188C57.0539 36.0816 59.5466 35.9748 61.6984 35.9573C63.7463 35.9373 65.2219 35.948 66.3285 35.9239C67.6236 35.8974 68.1336 35.725 68.8495 35.6979C69.136 35.6842 69.8194 35.6695 70.5767 35.6339C71.3016 35.5997 71.9279 35.5514 72.4467 35.4934C73.4839 35.3765 74.1331 35.2317 74.7559 35.0842C76.0415 34.7756 76.7171 34.5267 78.8505 34.0107C84.8401 33.4881 84.2895 34.2129 85.6988 34.4571C86.2308 34.5435 87.0296 34.7395 87.9033 34.838C88.8119 34.0051 88.7466 33.0284 88.9803 32.5298C89.0108 32.47 89.0441 32.4436 89.0791 32.4423C89.0687 32.4403 89.0581 32.4357 89.0474 32.4282C88.8154 32.2174 88.4949 29.7584 88.205 29.5952C87.9247 29.4018 86.1393 29.2966 85.9747 27.6159C85.924 27.0345 85.9247 26.4036 86.003 25.781C85.9919 25.9295 86.2727 23.5993 86.3701 22.6783C86.4839 21.6414 86.5469 21.1154 86.6108 20.6977C86.8579 19.186 87.0677 18.84 87.3819 17.8584C87.5419 17.3869 87.7484 16.7944 88.1024 16.0889C88.459 15.366 88.9745 14.6011 89.149 14.2729C89.9205 12.9378 90.8796 10.8921 92.1174 9.44203C92.7348 8.71337 93.4308 8.10267 94.1342 7.57229C94.5905 7.1426 96.4724 6.15508 97.5172 5.96292C98.4408 5.94402 99.1138 6.05221 99.4166 6.1303C99.4404 6.24355 99.4679 6.35651 99.5072 6.46815C99.5653 6.35392 99.825 6.63844 100.103 6.61211C100.325 6.59047 100.434 6.40337 101.073 6.38171C101.623 6.368 101.349 6.40783 104.787 6.42166C105.305 6.42304 105.907 6.42384 107.13 6.422C107.792 6.42087 108.537 6.41947 109.943 6.41615C110.716 6.41424 111.586 6.41238 112.791 6.40995C113.571 6.40823 113.303 6.40951 113.363 6.40995C113.376 6.41053 113.389 6.41109 113.402 6.41167C113.609 6.42096 113.825 6.42934 114.051 6.43578C114.507 6.44864 114.974 6.45399 115.472 6.44542C118.735 6.39053 119.337 5.91571 121.31 5.85271C123.368 5.78763 126.597 6.04306 129.267 5.87579C129.601 5.82352 129.937 5.77131 130.274 5.71909C130.032 5.60096 129.792 5.4828 129.552 5.3647C130.901 5.30966 131.479 5.55171 132.719 5.55653C134.18 5.56239 134.928 5.33359 135.917 5.33543C136.724 5.33715 137.824 5.52229 138.877 5.5121C140.413 5.49825 140.079 5.23201 140.907 5.18355C141.233 5.16409 147.37 5.03065 147.729 5.03029ZM153.904 9.0043C152.8 9.00813 152.077 9.28738 149.843 9.34973C142.394 9.55392 132.559 9.24462 125.736 9.39106C122.373 9.4627 117.758 9.82777 114.565 9.91558C114.237 9.92435 113.859 9.93015 113.456 9.93383C104.017 9.96642 103.842 9.98959 102.712 9.99824C100.98 10.0183 100.751 10.0227 100.424 10.0279C99.8988 10.0376 99.9514 10.0456 99.9235 10.1253C99.9122 10.2217 99.9391 10.5263 99.9356 10.5651C99.9122 10.601 99.9685 10.4125 99.7823 10.4212C98.0854 10.5259 97.5371 10.4983 96.5233 11.1551C95.6518 11.7108 95.1487 12.0079 94.0932 13.6861C93.4335 14.8169 92.2541 16.6453 91.1968 18.4556C90.4418 20.2938 90.6854 19.4033 90.3582 22.0694C90.2812 22.8014 90.1456 24.1582 89.9225 25.9425C89.878 26.1667 89.8447 26.3297 89.811 26.5779C89.7442 27.0539 89.7025 27.6894 89.6611 28.5286C89.5947 30.1279 89.3959 32.4914 89.0819 32.4423C89.3276 32.4423 89.6676 33.6512 89.8964 33.1143C89.93 33.5398 89.9552 33.8781 89.9446 34.2735C89.9352 34.4776 89.9343 34.6737 89.8392 35.0419C89.7659 35.2486 89.7981 35.3918 89.3691 35.9487C88.9076 36.5844 87.8831 36.7306 88.0652 36.7008C87.8385 36.7657 87.4078 36.8822 87.0062 36.9829C86.1846 37.1885 85.2301 37.3977 84.0654 37.5405C81.5549 37.7654 79.1181 38.0141 77.7618 38.0932C76.4913 38.3469 75.6731 38.623 73.6039 38.9232C72.5751 39.0662 71.1505 39.1597 69.5559 39.1877C68.6829 39.2041 68.1115 39.2103 67.266 39.2215C65.6273 39.2441 63.7386 39.2635 61.3358 39.3499C58.6564 39.4443 56.5418 39.633 54.6114 39.8128C53.8975 39.7197 53.2134 39.6252 52.5574 39.5249L52.557 39.5239C50.2187 39.5626 47.7057 40.0632 46.164 40.1775C44.059 40.3465 43.2034 40.313 41.0338 40.6921C40.016 40.8753 38.7313 41.1779 37.2361 41.3034C36.557 41.3659 35.4153 41.3905 34.5312 41.4391C33.6304 41.4839 32.8342 41.5297 32.1056 41.5737C30.6466 41.6622 29.4443 41.7446 28.412 41.8127C27.8965 41.8468 27.4283 41.8772 27.0016 41.9033C26.7616 41.906 25.5268 42.029 25.0368 42.1482C22.8983 42.5271 19.9686 42.9897 17.5827 44.0761C16.2449 44.579 15.3568 44.8557 13.4995 45.9218C11.6851 46.8497 10.3592 47.3961 9.77345 47.9024C9.18723 48.3703 8.68053 49.0598 8.4148 50.2226C8.17129 51.346 8.16178 52.254 8.37072 53.8302C8.56556 55.2428 8.85119 56.4783 8.98719 57.6678C9.06731 58.3869 9.05066 58.4953 9.06881 58.7416C9.08253 58.9747 9.09944 59.2214 9.12151 59.4986C9.20614 60.6814 9.38365 61.7427 9.76037 66.8774C9.97739 69.9589 9.99097 70.2784 9.97114 71.9538C9.94312 73.4724 9.94827 75.2872 10.4994 77.5121C11.452 81.3615 12.348 85.1083 12.4629 86.2167C12.5312 86.8127 12.3304 87.0242 12.4474 87.5902C12.593 88.1326 12.7782 89.0367 13.1079 89.7323C13.4165 90.4122 13.7319 90.8995 14.0044 91.3744C14.4792 92.2109 15.2998 93.7099 15.5328 96.508C15.6214 97.6905 15.7129 98.3329 15.8228 98.5441C15.9765 98.7546 15.603 98.4231 16.5853 98.9223C18.0661 99.5742 19.0382 99.8807 19.823 100.23C20.2549 100.45 20.7191 100.691 21.5316 100.9C22.2622 101.125 23.9634 101.194 25.1353 101.179C27.6569 101.18 29.5207 101.019 30.7546 100.843C33.3881 100.438 34.1382 100.395 38.053 99.4144C40.7069 98.8348 40.5391 98.9406 41.7254 98.5985C42.4917 98.2822 47.2769 97.5347 48.1177 97.2657C48.8842 97.0745 49.6666 96.8515 50.4841 96.6668C51.2345 96.4816 52.4779 96.3357 52.3018 96.3465C52.513 96.3018 53.1725 96.1572 54.5115 95.8657C55.5762 95.6408 56.1332 95.4916 59.8493 94.7716C61.5053 94.4595 61.1486 94.5274 61.55 94.4454C61.8394 94.3851 62.1253 94.3217 62.4072 94.2564C62.9718 94.1256 63.5212 93.9865 64.0644 93.8582C65.1502 93.5981 66.2092 93.4136 67.2263 93.3379C69.3287 93.1923 71.4062 92.9963 72.6668 92.8392C77.5805 92.1788 77.5548 91.999 80.5387 91.6544C81.2639 91.5456 83.1952 91.0182 85.4991 89.9634C86.2065 89.6446 87.0151 89.2178 88.1279 88.7425C89.0693 88.2983 91.4141 87.6662 91.0694 87.7603C91.2218 87.7187 91.4202 87.6667 91.7234 87.6064C92.0385 87.5457 92.4013 87.4778 93.2687 87.3891C93.7233 87.3443 94.2721 87.2939 95.4295 87.2293C96.0219 87.1969 96.7775 87.1597 98.049 87.1173C99.005 87.0814 101.594 87.0281 101.867 87.0223C104.193 86.9733 106.416 86.9429 108.629 86.9179C117.519 86.8257 125.467 86.799 134.012 86.8459C138.5 86.8745 142.526 86.9747 146.68 87.0095C151.083 87.0479 155.373 87.0509 159.624 87.0794C162.91 87.1017 166.604 87.0805 170.241 87.1242C171.145 87.1355 172.059 87.1516 172.947 87.1762C173.304 87.1872 172.807 87.1682 174.267 87.2203C175.348 87.2583 176.268 87.2892 177 87.3136C178.469 87.3625 179.251 87.389 179.843 87.4121C181.969 87.4962 182.166 87.5557 182.7 87.6498C183.571 87.8419 182.693 88.079 187.864 88.1784C187.911 88.2904 187.961 88.4032 188.009 88.5159C188.788 88.6124 189.058 88.6665 189.358 88.6974C189.661 88.7329 189.966 88.7654 190.272 88.797C190.886 88.8602 191.507 88.9197 192.17 88.9957C192.834 89.0722 193.539 89.1629 194.351 89.3049C194.753 89.3754 195.207 89.4647 195.665 89.5698C195.738 89.5772 195.759 89.5734 195.872 89.5856C196.39 89.6587 197.021 89.5825 202 89.8322C202.562 89.8637 204.037 89.9923 204.409 90.0392C204.967 90.1026 205.439 90.171 205.857 90.2383C206.688 90.3733 207.269 90.4918 207.711 90.5727C208.598 90.7403 208.915 90.7559 209.336 90.821C210.152 90.9526 209.777 91.0937 210.7 91.2522C211.543 91.3993 212.957 91.6246 216.416 92.2978C218.984 92.801 220.543 93.1457 221.514 93.3075C222.525 93.4783 222.657 93.5175 223.857 93.6702C224.936 93.806 226.545 93.986 227.914 94.13C229.104 94.2558 230.763 94.4408 233.103 94.8897C234.195 95.0922 235.147 95.3668 235.94 95.5241C236.158 95.5687 237.353 95.7913 238.123 95.9263C238.917 96.0657 239.509 96.1615 239.997 96.2377C240.966 96.3884 241.557 96.4698 242.067 96.547C242.819 96.7228 245.408 96.8754 247.431 97.2302C248.397 97.3996 250.283 97.9888 251.007 98.1395C251.911 98.3499 252.104 98.4083 252.956 98.5631C253.839 98.7243 255.16 98.929 256.525 99.3648C257.437 99.6954 258.071 99.9291 258.336 99.9579C259.177 100.084 260.324 99.6739 261.237 99.5611C262.508 99.3852 263.495 99.1653 264.208 98.9391C264.787 98.7643 265.664 98.373 267.242 97.7658C268.012 97.4641 269.197 97.0451 269.712 96.8476C270.304 96.6183 270.484 96.4653 270.549 96.403C270.869 95.9642 271.469 94.9153 271.583 94.0831C271.777 91.9821 271.868 89.5045 272.106 88.0348C272.214 87.2382 272.418 86.5839 272.516 85.9323C272.619 85.2595 272.733 83.9016 273.232 82.7345C273.956 80.8896 274.34 79.473 274.611 77.9873C274.769 77.1942 274.95 76.2746 275.196 75.154C275.342 74.4946 275.389 74.2975 275.438 74.0898C275.489 73.8756 275.543 73.6549 275.602 73.4092C275.807 72.4673 276.265 70.9732 276.291 67.1953C276.31 65.3053 276.325 63.4521 276.331 61.6212C276.337 59.7927 276.337 57.9773 276.301 56.2341C276.296 56.0187 276.291 55.8081 276.284 55.5887C276.281 55.4855 276.288 55.6906 276.274 55.2811C276.261 54.8768 276.251 54.5151 276.243 54.2218C276.228 53.6284 276.221 53.2772 276.215 53.0126C276.2 52.3506 276.189 52.1213 276.181 52.0169C276.177 52.009 276.172 52.0009 276.168 51.9925C275.423 49.0717 268.099 47.5123 264.188 47.4089C263.636 47.3409 262.837 47.2404 261.174 46.9064C260.265 46.7134 259.503 46.5831 257.053 45.9038C256.739 45.8158 256.16 45.646 255.831 45.5446C255.751 45.5196 255.672 45.4943 255.591 45.4685C255.429 45.4163 255.261 45.3615 255.1 45.307C254.776 45.1979 254.457 45.0846 254.141 44.9692C252.875 44.5052 251.69 44.015 250.533 43.6236C249.828 43.3939 249.914 43.3879 248.447 42.9992C246.514 42.4983 246.115 42.4 245.453 42.2308C244.864 42.081 244.422 41.9689 244.048 41.8734C241.799 41.2986 242.54 41.1979 241.487 40.9562C240.533 40.74 240.366 40.8923 240.186 40.867C239.887 40.8321 239.942 40.8405 239.12 40.7968C238.67 40.7701 238.177 40.7678 236.426 40.6115C235.556 40.5307 234.041 40.3744 231.684 40.0184C231.247 39.9571 230.795 39.894 230.317 39.8256C229.363 39.6886 228.301 39.5282 227.141 39.3117C226.562 39.2036 225.965 39.0829 225.351 38.948C225.198 38.9144 225.045 38.8802 224.894 38.8457C224.598 38.7785 224.054 38.6533 223.739 38.5799C223.06 38.4215 222.569 38.3044 222.147 38.2028C219.05 37.4503 218.699 37.3313 218.191 37.1689C218.02 37.1119 218.001 37.0438 217.845 36.9536C217.388 36.8022 216.991 36.6645 216.637 36.5889C216.279 36.5132 215.426 36.4718 214.445 36.2748C212.216 35.8338 211.245 35.7117 209.413 35.69C205.98 35.6314 205.484 35.6153 204.486 35.5791C203.622 35.5453 203.069 35.5079 202.617 35.4586C201.781 35.3923 201.065 35.0659 199.42 34.8504C198.624 34.7356 197.697 34.6276 196.534 34.5005C195.355 34.3219 193.891 34.4639 193.251 33.5052C192.512 32.3991 192.495 31.8103 192.133 29.5614C191.97 28.3857 191.781 27.0137 191.324 21.932C191.099 19.5388 190.968 19.3194 190.87 19.0284C190.819 19.0512 185.996 10.2662 185.343 11.3338C184.686 11.0765 184.091 10.7337 182.432 10.2672C181.898 10.1253 181.905 10.1362 181.893 10.1329C181.877 10.1302 181.862 10.1279 181.847 10.1253C181.815 10.1198 181.788 10.1152 181.758 10.1105C181.637 10.0924 181.547 10.0703 181.071 10.0165C184.128 9.95136 160.826 9.45832 160.526 9.48749C156.882 9.43173 154.411 9.0025 153.904 9.0043ZM188.72 91.733C189.321 91.7828 189.939 91.8272 190.578 91.8762C190.239 91.7338 189.905 91.5927 189.579 91.4516C189.271 91.4011 188.971 91.3509 188.673 91.2987C188.688 91.4434 188.704 91.5882 188.72 91.733ZM195.953 30.7761C195.985 30.9034 196.015 31.0073 196.045 31.0951C196.149 31.4063 196.262 31.4601 196.24 31.2445C196.263 31.1591 196.134 30.9748 195.953 30.7761ZM192.455 14.3945C192.112 14.2872 192.737 15.4144 193.198 16.0583C193.672 16.7179 194.082 17.0292 193.842 16.4078C193.761 16.1829 192.672 14.509 192.455 14.3945Z" fill="white"/>
<path d="M213.767 75.9239C212.627 75.8047 211.657 75.6034 210.857 75.3199C210.057 75.0365 209.349 74.6091 208.733 74.0376C207.454 72.8898 206.958 70.948 207.244 68.2121C207.499 65.7802 208.388 64.1138 209.911 63.2129C211.335 62.3784 213.096 62.0708 215.193 62.2902C216.09 62.3839 216.853 62.5098 217.481 62.6677C218.112 62.8105 218.74 63.0528 219.365 63.3948C220.005 63.7383 220.498 64.1663 220.844 64.6788C221.205 65.1929 221.471 65.8814 221.642 66.7444C221.814 67.5922 221.841 68.586 221.722 69.726C221.48 72.0363 220.645 73.7082 219.215 74.7419C217.787 75.7603 215.971 76.1543 213.767 75.9239ZM213.434 71.3947C213.484 71.953 213.556 72.2909 213.651 72.4084C213.761 72.5275 213.908 72.5966 214.09 72.6157C214.288 72.6363 214.445 72.599 214.563 72.5037C214.696 72.4101 214.836 72.0944 214.985 71.5568C215.148 71.0207 215.273 70.3423 215.359 69.5216C215.446 68.6856 215.49 68.0448 215.491 67.5993C215.508 67.1401 215.499 66.7858 215.464 66.5363C215.443 66.2883 215.395 66.0912 215.318 65.9448C215.202 65.7329 215.045 65.6167 214.847 65.596C214.665 65.5769 214.507 65.6218 214.372 65.7307C214.24 65.8244 214.091 66.1468 213.925 66.6981C213.762 67.2341 213.627 68.0113 213.52 69.0297C213.414 70.048 213.385 70.8364 213.434 71.3947Z" fill="white"/>
<path d="M199.036 73.8411L199.502 67.4855C199.586 66.3424 199.601 65.5084 199.547 64.9835C199.494 64.4586 199.292 64.1833 198.941 64.1576C198.637 64.1353 198.469 64.3298 198.439 64.7413L197.778 73.7489C197.766 73.9165 197.314 74.0213 196.422 74.0632C195.532 74.0898 194.621 74.069 193.692 74.0008C192.762 73.9327 192.178 73.8515 191.94 73.7574C191.703 73.6481 191.591 73.4944 191.606 73.2963L192.768 57.453C192.791 57.133 193.256 56.8453 194.164 56.5901C195.071 56.3348 196.013 56.243 196.988 56.3145C198.009 56.3894 198.643 56.6274 198.89 57.0285C198.972 57.1572 199.008 57.2901 198.998 57.4273L198.752 60.7879L198.385 62.347L198.545 62.3587C198.782 62.0543 199.138 61.7969 199.613 61.5866C200.5 61.1919 201.446 61.0315 202.452 61.1052C203.9 61.2114 204.841 61.7478 205.276 62.7144C205.727 63.6669 205.877 65.1795 205.725 67.2523L205.209 74.2937C205.196 74.4614 204.737 74.5656 203.829 74.6063C202.939 74.633 202.029 74.6122 201.099 74.544C200.184 74.4769 199.608 74.3964 199.37 74.3023C199.133 74.193 199.021 74.0392 199.036 73.8411Z" fill="white"/>
<path d="M190.865 56.9419L189.997 73.1942C189.989 73.3621 189.546 73.4762 188.671 73.5366C187.796 73.5817 186.893 73.5795 185.962 73.5298C185.047 73.4809 184.454 73.411 184.183 73.32C183.928 73.2146 183.806 73.0627 183.817 72.8643L184.663 57.024C184.68 56.6883 185.125 56.383 185.997 56.1082C186.884 55.8341 187.823 55.7236 188.815 55.7765C190.219 55.8515 190.902 56.2399 190.865 56.9419Z" fill="white"/>
<path d="M175.354 67.902C175.317 68.8947 175.771 69.4087 176.718 69.444C177.268 69.4645 177.993 69.308 178.892 68.9745C179.792 68.6258 180.265 68.4522 180.311 68.454C180.601 68.4648 180.966 68.9143 181.407 69.8024C181.848 70.6905 182.061 71.3408 182.046 71.7531C182.024 72.3487 181.396 72.7764 180.163 73.0363C178.93 73.2961 177.725 73.4041 176.549 73.3603C175.389 73.317 174.415 73.1889 173.627 72.976C172.855 72.7637 172.222 72.5107 171.729 72.217C171.251 71.9086 170.829 71.5411 170.462 71.1146C170.111 70.6886 169.851 70.2889 169.681 69.9155C169.512 69.5269 169.383 69.1015 169.293 68.6394C169.165 67.9618 169.115 67.2641 169.142 66.5463C169.245 63.7669 170.042 61.8774 171.532 60.8778C172.27 60.37 173.086 60.0258 173.98 59.845C174.873 59.6643 175.923 59.5964 177.13 59.6414C180.993 59.7855 182.875 61.2015 182.775 63.8892C182.668 66.745 180.447 68.092 176.109 67.9302L175.354 67.902ZM175.432 64.5559L175.376 66.0677C175.819 66.0843 176.184 65.922 176.472 65.581C176.776 65.2406 176.937 64.8184 176.955 64.3145C176.99 63.3982 176.77 62.9312 176.297 62.9135C175.762 62.8936 175.474 63.441 175.432 64.5559Z" fill="white"/>
<path d="M152.169 57.8887C152.173 57.7053 152.375 57.4949 152.777 57.2575C153.179 57.0047 153.74 56.7854 154.462 56.5994C155.199 56.4137 155.995 56.3284 156.851 56.3435C157.706 56.3586 158.331 56.4919 158.724 56.7434C159.117 56.9949 159.326 57.266 159.351 57.5569L160.006 65.9138L160.327 65.9194L161.181 57.7955C161.235 57.3685 161.76 57.0415 162.758 56.8145C163.755 56.5876 164.682 56.4817 165.537 56.4968C166.393 56.5119 167.026 56.5995 167.436 56.7595C167.846 56.9043 168.103 57.0541 168.207 57.2088C168.327 57.3637 168.385 57.5099 168.383 57.6475C168.381 57.7697 168.26 58.1267 168.02 58.7186C167.796 59.2955 167.556 59.9179 167.299 60.5859C166.452 62.7108 165.017 66.5218 162.994 72.0191C162.817 72.4898 161.499 72.7035 159.039 72.6601C158.275 72.6466 157.772 72.5842 157.529 72.473C157.287 72.3617 157.122 72.1754 157.035 71.914C156.179 69.3005 155.154 66.3325 153.959 63.01C152.764 59.6875 152.168 57.9804 152.169 57.8887Z" fill="white"/>
<path d="M138.68 67.3518C138.684 68.3451 139.16 68.8398 140.107 68.8358C140.658 68.8335 141.375 68.647 142.26 68.2765C143.145 67.8907 143.61 67.6977 143.656 67.6975C143.946 67.6963 144.33 68.1302 144.807 68.9993C145.285 69.8684 145.524 70.5092 145.526 70.9218C145.529 71.5178 144.919 71.9712 143.698 72.282C142.477 72.5928 141.278 72.7507 140.101 72.7557C138.94 72.7606 137.961 72.6731 137.166 72.493C136.386 72.3129 135.743 72.0864 135.237 71.8135C134.747 71.5252 134.31 71.1755 133.926 70.7645C133.558 70.3535 133.281 69.965 133.096 69.599C132.911 69.2177 132.764 68.7981 132.655 68.34C132.5 67.6683 132.42 66.9733 132.417 66.255C132.405 63.4737 133.123 61.5527 134.57 60.4922C135.286 59.9543 136.087 59.5765 136.973 59.3588C137.858 59.1411 138.904 59.0297 140.112 59.0246C143.978 59.0082 145.917 60.3449 145.928 63.0345C145.94 65.8922 143.776 67.3303 139.436 67.3486L138.68 67.3518ZM138.62 64.0052L138.626 65.5182C139.069 65.5163 139.428 65.339 139.701 64.9864C139.99 64.6337 140.134 64.2052 140.132 63.7008C140.128 62.7839 139.889 62.3265 139.415 62.3285C138.88 62.3307 138.615 62.8897 138.62 64.0052Z" fill="white"/>
<path d="M121.766 72.9649C121.201 72.9759 120.672 72.9022 120.18 72.7436C119.688 72.5851 119.279 72.3867 118.953 72.1485C118.643 71.91 118.369 71.5867 118.132 71.1786C117.895 70.7705 117.711 70.3843 117.582 70.02C117.452 69.6404 117.352 69.1762 117.28 68.6273C117.172 67.8193 117.108 66.8958 117.088 65.8568C117.047 63.733 117.405 62.1134 118.163 60.9982C118.92 59.8676 119.979 59.2891 121.339 59.2626C122.729 59.2355 123.744 59.5444 124.383 60.1892C124.524 60.3393 124.634 60.5206 124.715 60.733L124.898 60.7294L124.592 59.1534L124.537 56.2885C124.53 55.9524 124.952 55.6155 125.801 55.278C126.65 54.9405 127.572 54.762 128.565 54.7427C129.604 54.7225 130.272 54.9081 130.57 55.2998C130.68 55.4505 130.737 55.6022 130.74 55.755L131.057 72.0274C131.06 72.1954 130.635 72.3413 129.781 72.4649C128.943 72.5729 128.126 72.6347 127.332 72.6502C126.552 72.6654 126.048 72.6523 125.818 72.6109C125.602 72.5539 125.464 72.4955 125.401 72.4356C125.354 72.3753 125.322 72.2766 125.304 72.1394L125.095 70.8366L124.912 70.8402C124.785 71.3776 124.518 71.8337 124.113 72.2085C123.603 72.6922 122.821 72.9444 121.766 72.9649ZM124.268 69.5688C124.512 69.564 124.693 69.4077 124.809 69.0997L124.69 62.9804C124.687 62.8276 124.601 62.7146 124.431 62.6415C124.277 62.5528 124.138 62.5096 124.016 62.512C123.496 62.5221 123.26 63.719 123.306 66.1025C123.331 67.3707 123.417 68.2708 123.565 68.8029C123.728 69.3194 123.962 69.5747 124.268 69.5688Z" fill="white"/>
<path d="M106.541 73.4428C104.83 73.5068 103.615 73.1088 102.894 72.2488C102.189 71.3882 101.796 69.8583 101.713 67.6593L101.48 61.4285C101.469 61.1231 101.908 60.8161 102.799 60.5075C103.689 60.1836 104.631 60.0031 105.623 59.966C106.952 59.9162 107.629 60.235 107.655 60.9222L107.873 66.7406C107.916 67.9012 107.994 68.7471 108.105 69.2782C108.216 69.794 108.455 70.045 108.821 70.0313C109.31 70.013 109.547 69.7977 109.531 69.3854L109.223 61.1388C109.211 60.8181 109.673 60.5026 110.61 60.1923C111.546 59.882 112.572 59.706 113.687 59.6643C114.801 59.6225 115.37 59.8995 115.392 60.4951L115.834 72.2922C115.842 72.506 115.366 72.6767 114.408 72.8044C113.449 72.932 112.504 73.0132 111.572 73.0481C110.641 73.083 110.163 72.9785 110.138 72.7347L109.854 71.2543L109.67 71.2612C109.554 71.8161 109.295 72.2769 108.896 72.6436C108.689 72.8348 108.375 73.0148 107.953 73.1835C107.546 73.3364 107.075 73.4228 106.541 73.4428Z" fill="white"/>
<path d="M95.149 75.7047L94.4865 75.765C94.2424 75.7787 94.107 75.5491 94.0804 75.0761L94.0159 73.9318C90.7977 73.5928 89.0768 71.4398 88.8532 67.4727C88.7912 66.3741 88.9117 65.3877 89.2144 64.5135C89.5163 63.624 89.9057 62.9286 90.3826 62.4272C90.8594 61.9258 91.4173 61.5041 92.0561 61.1619C93.0814 60.6143 94.1205 60.3109 95.1732 60.2515C96.9432 60.1517 98.1792 60.2198 98.8812 60.4558C99.5986 60.6908 99.9758 61.1364 100.013 61.7925C100.05 62.4486 99.9672 63.1573 99.7653 63.9187C99.5777 64.664 99.2932 65.0474 98.9117 65.0689C98.7896 65.0758 98.4085 64.9672 97.7683 64.7431C97.1434 64.5181 96.6021 64.4185 96.1443 64.4443C95.7018 64.4692 95.3689 64.6717 95.1454 65.0516C94.9363 65.4155 94.861 66.1162 94.9195 67.1537C94.9771 68.176 95.1235 68.8718 95.3586 69.2412C95.5928 69.5954 95.9312 69.76 96.3737 69.735C96.8314 69.7092 97.3874 69.5248 98.0415 69.1818C98.6957 68.8388 99.0609 68.6651 99.1372 68.6608C99.4271 68.6445 99.7211 68.9723 100.019 69.6443C100.332 70.3154 100.504 70.918 100.534 71.452C100.578 72.2302 100.236 72.8082 99.5071 73.186C98.7783 73.5638 97.7206 73.8071 96.3339 73.9159L96.3545 74.2821C97.6845 74.253 98.3779 74.742 98.4347 75.749C98.4614 76.222 98.254 76.6164 97.8126 76.9321C97.3721 77.263 96.8946 77.4813 96.3801 77.5868C95.8817 77.7068 95.3427 77.7831 94.7629 77.8158C94.6408 77.8226 94.5348 77.7062 94.4447 77.4663C94.3555 77.2418 94.3036 76.9998 94.289 76.7404C94.2744 76.481 94.3281 76.3479 94.4501 76.341C95.5792 76.2774 96.1369 76.1235 96.1231 75.8793C96.1145 75.7268 95.7898 75.6685 95.149 75.7047Z" fill="white"/>
<path d="M78.9133 73.7618C78.9188 74.206 78.7075 74.5298 78.2794 74.7333C77.8666 74.9356 77.0966 75.0826 75.9694 75.1743C74.8423 75.266 73.8899 75.2439 73.1122 75.1079C72.3485 74.9554 71.9536 74.7192 71.9276 74.3993C71.8978 74.0337 72.3859 71.6481 73.392 67.2424C74.3968 62.8215 74.9715 60.2755 75.1162 59.6044C75.1763 59.4002 75.7725 59.1907 76.905 58.9759C78.0515 58.7446 79.2796 58.5756 80.5896 58.469C81.9147 58.3612 82.6645 58.5301 82.8387 58.9759C86.496 68.3072 88.3309 73.0489 88.3433 73.2013C88.3557 73.3536 88.2767 73.5133 88.1063 73.6805C87.7071 74.0503 86.8754 74.2867 85.6111 74.3896C82.9151 74.609 81.5106 74.4013 81.3976 73.7666L81.1168 72.2945L78.9235 72.473L78.9133 73.7618ZM80.2837 67.9925L79.6063 63.9078L79.1036 63.9487L79.0499 68.0929L80.2837 67.9925Z" fill="white"/>
<rect x="120" y="0.914062" width="44" height="44" rx="22" fill="white"/>
<path d="M151.124 16.4199C151.41 16.4483 151.679 16.5751 151.884 16.7803L151.967 16.8721C152.149 17.0945 152.25 17.3741 152.25 17.6641C152.25 17.9542 152.15 18.2345 151.967 18.457L151.884 18.5488L139.884 30.5488C139.797 30.636 139.698 30.7097 139.589 30.7676L139.479 30.8193C139.327 30.8822 139.164 30.915 139 30.915C138.877 30.915 138.754 30.8969 138.637 30.8613L138.521 30.8193C138.407 30.7722 138.301 30.7087 138.207 30.6309L138.116 30.5488L132.866 25.2988C132.631 25.0643 132.5 24.7457 132.5 24.4141L132.505 24.291C132.534 24.0047 132.661 23.7355 132.866 23.5303L132.958 23.4473C133.18 23.2651 133.459 23.1642 133.75 23.1641C134.081 23.1641 134.4 23.2958 134.634 23.5303L139 27.8965L150.116 16.7803L150.208 16.6973C150.43 16.5151 150.709 16.4142 151 16.4141L151.124 16.4199Z" fill="#395F24" stroke="#395F24"/>
</svg>
