<svg width="804" height="307" viewBox="0 0 804 307" fill="none" xmlns="http://www.w3.org/2000/svg">
<path d="M419.906 0.0461002C427.568 0.0255888 428.224 1.57543 434.334 1.73555C447.323 2.07432 460.62 1.48087 473.154 1.0754C477.006 0.953438 480.752 0.849654 484.408 0.797077C491.4 0.698185 498.795 0.930193 505.897 1.45235C494.558 4.94862 519.187 9.13514 510.221 2.49532C513.851 3.13897 516.875 3.00785 521.37 3.84493C525.504 4.53208 530.205 5.90742 533.635 7.65157C534.111 7.88506 534.487 8.07753 534.715 8.20723C539.988 10.5521 541.528 13.4364 543.137 15.6857C544.647 18.0181 545.807 20.287 547.328 22.7346C547.722 23.3679 548.115 23.9758 548.509 24.5549C551.507 28.9951 554.203 33.4859 556.137 36.3479C559.486 42.0712 559.144 45.4157 559.225 47.8117C559.137 50.2276 558.584 51.9325 557.488 52.9992C557.612 53.8502 557.724 54.6888 557.828 55.5217C558.64 61.969 559.032 67.9537 559.848 72.7141C560.068 73.9987 560.323 75.1955 560.62 76.2678C564.593 77.3452 569.404 78.9019 572.232 79.5783C573.147 79.8068 575.262 80.1624 578.614 81.2033C578.123 81.1849 580.267 81.5307 581.745 81.6555C583.384 81.8159 585.223 81.9518 587.111 82.0773C590.895 82.3268 594.912 82.5388 598.498 82.7277C604.172 82.9857 608.764 84.0152 610.38 84.3361C614.435 85.1554 620.262 86.6431 624.504 87.3566C625.901 87.614 626.922 87.8203 627.804 87.9621C632.976 88.8134 637.301 85.7866 645.02 92.468C645.057 92.4754 645.096 92.483 645.133 92.4904C653.492 94.0972 657.31 94.6115 664.115 96.048C665.417 96.3217 666.795 96.6111 668.333 96.9221C670.055 97.2671 670.147 97.984 671.171 98.1213C673.254 98.397 676.857 98.313 680.573 98.5578C683.76 98.7913 686.311 99.2201 688.773 99.8566C690.079 100.212 690.854 100.161 690.748 99.0256C694.942 99.6044 699.129 100.225 703.311 100.881C704.64 101.662 705.97 102.447 707.289 103.235C709.582 103.333 711.882 103.443 714.184 103.564C713.206 104.275 713.815 104.963 715.079 105.513C718.426 106.853 725.805 108.113 722.591 105.546C727.678 107.779 731.921 110.103 736.197 111.863C738.875 112.97 741.591 114.002 744.336 114.952C742.447 117.967 757.213 118.96 758.733 116.864C759.128 116.614 759.273 116.353 759.075 116.09C760.072 116.153 761.064 116.228 762.052 116.316C767.636 117.519 772.366 117.762 779.242 119.948C782.308 121.047 785.584 122.374 789.026 124.339C790.719 125.308 792.039 126.169 793.052 126.872C799.361 131.683 798.215 132.688 798.888 135.828C799.736 137.077 800.418 138.301 801 139.222C802.528 142.346 802.058 143.363 802.271 144.549C804.092 149.108 804.145 151.47 803.729 153.927C802.977 158.354 800.613 162.328 802.828 175.657C801.391 178.876 800.97 184.399 800.993 190.447C801.07 197.046 800.911 204.679 799.904 210.522C799.71 211.801 800.245 211.979 800.055 213.582C800.044 213.675 800.032 213.77 800.02 213.866C799.512 217.427 797.622 224.993 798.194 227.188C798.283 227.592 798.447 227.82 798.712 227.817C797.32 231.8 795.615 235.305 793.812 238.715C793.65 239.368 793.483 240.02 793.311 240.669C792.953 242.328 793.003 243.798 792.959 246.322C793.531 246.38 794.103 246.438 794.674 246.495C794.179 247.589 793.711 249.054 793.119 250.643C791.157 254.789 791.285 262.036 790.649 265.763C790.497 266.676 789.708 266.827 789.303 269.662C789.3 269.684 789.297 269.707 789.294 269.729C789.022 273.338 786.981 279.354 784.619 282.809C783.963 283.879 783.157 284.795 782.371 285.486C781.132 287.882 779.366 289.752 777.951 291.321C776.909 291.837 776.058 292.175 775.331 292.438C770.518 294.172 767.78 293.464 764.306 294.791C764.168 294.844 763.595 295.094 762.736 295.465C758.236 297.68 748.365 298.946 747.76 298.973C745.241 299.355 744.023 299.807 742.333 300.285C739.924 300.966 735.131 300.666 730.506 299.248C729.113 298.898 727.153 298.521 724.371 298.031C722.81 297.75 721.323 297.336 719.682 296.813C718.267 296.339 716.95 295.862 715.53 295.501C713.65 295.026 710.363 294.369 706.894 293.663C703.024 293.131 695.96 293.602 695.027 294.298C693.91 293.83 692.41 293.387 690.503 292.801C685.997 291.26 678.192 289.931 672.986 288.729C670.457 288.165 668.577 287.554 667.531 287.145C666.351 286.687 666.237 285.625 663.501 284.657C663.161 284.546 662.787 284.435 662.373 284.328C659.03 283.4 650.093 283.008 645.696 282.477C641.023 281.857 639.379 280.798 637.186 280.543C635.833 280.386 634.571 280.6 632.772 280.589C631.8 280.581 630.779 280.509 629.693 280.297C623.684 279.06 618.987 277.162 614.457 275.812C611.794 275.009 609.263 274.271 606.836 273.731C602.559 272.786 598.262 272.296 594.874 272.529C588.681 272.46 584.754 272.299 580.604 272.504C580.52 272.506 580.437 272.509 580.354 272.511C578.442 272.164 576.56 271.517 574.494 271.384C571.595 271.194 568.633 271.079 565.536 270.98C563.978 270.928 562.4 270.881 560.701 270.799C558.902 270.668 557.501 270.755 554.294 270.024C548.589 268.496 542.242 267.552 535.346 266.143C533.256 265.695 530.991 265.457 528.487 265.323C525.904 265.139 523.462 265.308 519.294 264.618C516.005 263.937 510.977 263.846 506.424 263.573C501.813 263.335 497.222 263.093 492.72 262.841C492.18 262.81 491.625 262.781 491.057 262.751C478.777 262.059 447.585 258.874 455.88 264.092C451.617 264.944 420.967 262.875 414.138 262.675C414.017 262.672 413.903 262.669 413.798 262.667C407.753 262.57 402.963 263.429 398.214 263.361C388.239 263.201 380.455 262.785 370.687 262.817C366.488 262.829 361.895 262.922 356.635 263.155C352.163 263.357 347.349 264.456 344.697 264.443C341.498 264.424 338.053 263.36 333.91 263.299C324.033 263.155 305.64 263.593 296.187 263.529C294.467 263.513 293.838 262.585 291.375 262.326C289.262 262.103 287.048 261.946 284.99 261.872C277.614 261.604 271.536 262.428 273.087 264.697C267.312 264.109 260.918 264.281 257.469 265.378C252.954 266.664 249.716 268.868 244.03 271.659C243.664 271.833 243.304 272.002 242.949 272.165C239.76 273.613 236.124 275.161 231.703 276.465C227.549 277.859 220.881 278.379 218.585 278.697C208.827 280.561 196.791 281.992 186.323 282.697C183.755 282.885 181.502 283.346 178.63 284.083C175.782 284.818 172.519 285.668 169.446 286.295C163.362 287.568 157.941 288.899 153.555 290.13C151.571 290.686 149.909 291.191 148.404 291.656C146.726 292.136 146.1 292.509 143.273 293.031C140.163 293.766 138.283 295.274 127.2 297.009C125.524 297.19 123.685 297.388 121.664 297.65C118.014 298.06 115.734 298.731 109.218 299.767C108.759 299.815 108.296 299.867 107.822 299.926C102.494 300.528 97.3161 301.497 90.6653 302.281C85.1949 302.76 79.4582 303.972 74.1585 305.92C68.6544 306.087 63.862 306.031 59.3607 305.898C55.5661 305.798 51.6171 305.283 47.8548 303.988C44.1009 302.743 40.7615 300.545 39.2679 299.338C38.4091 298.724 37.4286 298.048 36.429 297.301C35.0165 297.355 33.5243 297.352 31.97 297.26C30.9522 296.762 29.9208 296.22 28.8968 295.631C26.5553 294.306 24.7438 292.114 23.8109 290.324C23.6327 288.743 23.8351 287.478 24.1448 286.416C23.0077 281.454 23.2533 278.514 22.6702 276.071C22.0644 273.106 20.9441 270.489 19.4359 268.257C17.614 265.624 14.6627 260.576 13.6019 256.018C13.0735 254.103 12.5961 252.258 12.22 250.547C11.3592 246.64 10.2027 241.241 8.86749 235.133C8.06148 231.445 7.00232 227.081 6.12237 222.534C5.21153 218.028 4.70434 212.918 4.79718 208.219C4.8825 203.487 5.21086 199.832 5.07843 196.445C4.74662 186.691 4.28242 178.174 3.9544 172.714C3.69518 168.292 3.2195 165.879 3.15851 163.918C3.13491 162.662 3.33243 161.513 4.15362 159.071C3.65285 157.283 3.09989 155.387 2.58722 153.392C1.82154 152.216 1.06785 150.985 0.346982 149.681C0.187899 148.357 0.0699746 146.969 0.0159277 145.527C-0.11941 139.88 0.552266 133.809 4.18487 127.569C6.38593 123.75 10.2571 120.397 13.4603 118.625C16.6906 116.776 19.2561 115.721 21.4251 114.564C22.5821 113.959 23.7038 113.332 24.8255 112.641C29.5203 109.74 34.8727 107.903 38.6829 106.12C45.142 103.263 50.9661 101.889 57.3792 100.751C58.9182 100.453 63.1856 99.3524 66.6419 99.1965C74.6997 98.6179 82.6885 98.1595 89.4798 98.2443C91.284 98.2645 93.2563 98.4084 95.2728 98.5842C98.1666 98.9202 101.183 98.931 104.146 98.3938C107.814 97.7331 110.356 96.8011 113.373 96.1242C115.829 95.5541 118.423 95.1065 122.426 95.0227C125.982 94.9462 130.183 94.977 134.637 94.8684C142.734 94.6632 152.683 93.9873 161.786 93.9084C168.738 93.831 174.998 93.9358 179.735 93.8059C183.991 93.6968 185.961 92.9674 188.867 92.8557C189.642 92.8253 190.402 92.7961 191.147 92.7658C198.39 92.5006 203.182 91.9105 209.698 89.9797C213.34 88.9754 217.112 87.9725 221.041 86.9377C224.18 86.8499 226.515 86.9846 228.315 87.2268C228.365 87.2204 228.514 87.2013 228.565 87.1965C233.529 88.1743 233.999 89.8175 237.208 91.0022C238.717 91.5451 241.783 92.1656 244.687 92.8996C246.704 91.9044 246.041 91.5248 246.492 91.0764C246.728 90.6439 246.929 90.25 247.12 89.8664C247.501 89.103 247.838 88.4017 248.156 87.7873C248.785 86.5566 249.34 85.6935 249.758 85.4924C249.839 85.4353 249.924 85.4004 250.01 85.3801C248.999 85.1042 247.847 81.2057 246.673 80.6535C245.483 80.0861 238.021 80.7246 237.361 75.2844C237.129 72.8558 236.781 69.2874 237.426 64.4152C238.605 57.5204 239.325 50.352 240.735 44.593C241.095 43.2273 241.465 42.1248 241.699 41.3928C242.67 38.252 244.062 34.5746 245.977 31.4221C246.132 31.1501 246.292 30.8654 246.46 30.5725C248.746 26.4574 250.833 21.8899 253.503 17.9016C256.001 14.0323 259.55 10.5499 263.324 7.63692C264.874 6.46698 266.71 5.36328 268.759 4.47872C272.698 3.85829 276.255 4.43412 278.229 4.80001C280.817 4.97247 282.324 5.41684 284.233 5.7668C290.006 5.20969 298.779 6.45077 302.218 6.35958C305.096 6.28511 306.742 5.50306 309.743 5.4543C312.044 5.41423 315.108 5.78153 318.83 5.97481C320.485 6.06549 322.42 6.11726 324.309 6.07247C334.34 5.84655 336.052 3.82682 342.046 3.56173C348.26 3.2879 357.913 4.37808 365.829 3.66719C366.821 3.44497 367.824 3.22228 368.817 3.0002C368.108 2.49783 367.387 1.99566 366.675 1.49337C370.67 1.2595 372.394 2.2896 376.046 2.30977C380.373 2.33423 382.56 1.35937 385.466 1.36641C387.841 1.3731 391.067 2.15918 394.15 2.11446C398.645 2.05341 397.664 0.922537 400.083 0.715046C401.057 0.632052 418.884 0.0492842 419.906 0.0461002ZM437.647 16.9221C434.479 16.944 432.432 18.1364 425.984 18.4104C404.564 19.3085 375.703 17.9992 355.321 18.6164C345.253 18.9186 331.424 20.4638 321.516 20.8293C320.717 20.8584 319.823 20.8792 318.874 20.8938C310.014 21.0202 294.593 20.6835 291.486 21.3274C289.367 21.7538 288.392 23.0632 285.893 23.2629C284.205 23.4069 280.966 22.9703 280.112 22.8488C279.294 22.8819 278.633 22.8918 278.087 22.924C274.164 23.1397 274.41 23.2411 273.293 23.6438C270.73 25.0783 269.519 25.8473 267.865 27.8566C267.157 28.7654 266.418 29.8338 265.586 31.1897C264.288 33.2077 262.939 36.2514 259.876 40.8693C258.074 43.487 256.906 45.5834 256.327 48.051C255.857 49.8044 255.624 53.1619 255.24 56.508C254.87 59.8539 254.428 63.147 253.936 66.2287C253.282 69.7169 253.434 75.6196 252.831 79.2922C252.319 82.9069 251.483 85.1582 250.39 85.385C251.394 85.6171 252.607 87.3253 253.573 86.3557C253.675 87.2561 253.783 88.2489 253.84 89.3996C253.866 89.9922 253.889 90.5936 253.838 91.4953C253.804 91.963 253.779 92.4563 253.58 93.3977C253.456 93.9108 253.352 94.4661 252.826 95.6047C252.555 96.1557 252.137 96.9631 251.239 97.9475C250.376 98.9055 248.738 100.17 246.548 100.682L246.577 100.677C241.205 102.291 235.514 103.547 230.311 103.593L230.586 103.559C226.669 103.711 222.758 103.721 217.896 103.98C216.303 104.307 214.723 104.654 213.124 105.024C206.569 106.771 198.229 107.686 191.389 107.708C181.602 107.868 172.017 107.923 162.591 108.466C158.284 108.716 153.975 109.092 149.59 109.517C147.491 109.039 145.371 108.571 143.241 108.094C143.24 108.093 143.241 108.091 143.241 108.09C140.144 108.103 137.668 108.341 135.548 108.66C131.622 109.244 128.965 110.135 125.874 110.466C122.142 110.872 118.007 111.129 114.147 111.525C109.612 111.915 103.533 114.092 95.7366 114.46C86.9629 114.937 77.6089 115.638 67.6165 116.279C65.3291 116.396 63.9476 116.84 59.8255 117.554C54.911 118.29 49.2965 119.556 45.3323 121.212C40.1947 123.353 36.2222 124.581 33.0882 126.427C29.5514 128.517 25.8057 130.169 23.1067 131.569C20.3347 133.038 19.3063 133.878 18.2181 135.605C16.9569 137.579 16.2219 141.303 16.3284 144.74C16.4121 150.038 17.9916 155.487 18.5921 162.732C19.4148 173.047 20.3732 183.801 20.8109 192.606C20.8582 193.435 20.9173 194.362 20.9886 195.458C21.2355 198.727 21.1418 203.072 21.14 207.041C21.1425 211.022 21.5592 214.905 22.4905 219.019C23.4156 223.222 24.4969 227.326 25.386 231.257C26.6311 236.791 27.4926 241.296 27.6556 243.49C27.7949 245.408 26.9021 246.15 27.2952 248.135C27.6963 249.697 28.0954 251.264 28.4876 252.835C29.234 255.774 30.5331 258.025 32.5814 261.61C34.7385 265.552 36.1088 269.957 36.7796 274.268C37.1822 276.865 37.2922 279.196 37.5472 280.971C37.6032 281.383 37.6736 281.765 37.7444 282.072C39.9928 283.2 42.4491 284.093 45.473 285.292C46.8619 285.865 47.9461 286.381 48.9007 286.776C52.1739 288.566 55.2668 289.265 59.3538 289.393C69.3639 289.755 77.8957 288.917 88.2503 286.984C93.3664 286.109 99.8088 283.988 106.281 282.857C108.532 282.453 111.619 281.38 114.867 280.607C118.1 279.814 121.269 279.212 124.433 278.689C129.123 277.972 134.395 275.73 141.31 274.855C142.44 274.647 145.494 273.937 147.693 273.436C150.061 272.895 152.443 272.358 154.83 271.839C158.629 271.013 162.429 270.222 166.254 269.47C171.68 268.508 177.764 266.186 185.123 265.674C195.616 264.896 205.217 263.702 215.661 261.644C221.024 260.87 223.279 260.861 226.669 259.806C229.909 258.845 233.336 257.414 236.759 255.817C241.085 253.737 247.142 250.499 253.256 249.016C259.627 247.446 264.477 247.472 269.612 247.127C274.711 246.871 279.674 246.72 284.699 246.594C313.533 245.962 342.16 245.86 370.777 245.901C385.37 245.897 399.896 246.267 414.315 246.403C427.146 246.528 440.125 246.538 453.052 246.638C465.254 246.744 479.481 246.483 493.326 246.871C501.189 247.13 508.564 247.324 515.776 247.873C517.954 248.05 520.214 248.426 522.154 248.973C523.03 249.396 525.273 249.737 527.75 249.92C530.312 250.131 533.451 250.121 538.02 250.492C538.065 250.956 538.107 251.42 538.146 251.883C538.155 251.884 538.163 251.886 538.172 251.887C545.196 252.796 550.626 252.67 558.353 254.284C558.264 254.229 560.05 254.375 561.602 254.403C565.657 254.532 574.143 254.523 582.409 255.415C588.16 255.973 593.836 257.434 596.38 257.688C598.268 257.899 599.711 258.167 600.83 258.384C604.923 259.228 603.229 259.762 606.881 260.518C609.476 261.064 613.271 261.704 617.409 262.37C623.436 263.34 630.037 264.816 634.039 265.445C634.298 265.486 634.558 265.527 634.815 265.565C641.492 266.257 654.85 268.27 660.579 269.272C662.531 269.558 664.499 269.873 666.479 270.225C670.327 270.908 673.702 271.945 676.398 272.359C682.223 273.385 687.773 274.087 694.271 275.202C698.572 275.998 704.189 275.683 711.716 277.657C715.499 278.729 719.384 279.737 723.014 280.518C724.094 280.749 725.517 280.98 727.018 281.237C729.295 281.631 732.061 282.213 734.973 283.22C739.659 285.05 740.768 285.493 741.527 285.46C741.581 285.457 741.635 285.452 741.687 285.447C745.046 285.168 746.007 284.072 748.19 283.694C751.127 283.166 754.446 282.487 756.813 281.507C760.468 279.975 764.881 278.143 769.147 276.63C771.982 275.709 772.83 275.033 772.657 275.373C774.474 272.539 775.156 270.634 775.316 268.747C775.345 268.348 775.373 267.961 775.399 267.574C775.903 261.232 775.862 254.844 777.637 246.888C778.17 245.246 778.086 240.519 780.01 235.575C781.473 231.73 782.766 227.787 783.467 224.249C784.313 219.921 785.159 215.347 786.173 210.766C787.115 206.706 787.798 203.861 788.199 200.521C788.606 197.246 788.777 193.821 788.807 190.31C788.894 178.188 789.053 165.939 788.773 154.42C788.705 152.267 788.655 150.131 788.615 148.01C788.594 146.968 788.577 145.897 788.548 144.998C788.559 144.927 788.561 144.853 788.56 144.779C787.055 141.978 786.575 141.427 785.21 140.569C781.764 138.557 778.103 136.932 773.781 135.4C770.047 134.156 763.433 133.297 757.816 132.947C747.548 131.843 739.64 129.641 731.423 127.058C722.971 124.252 716.871 121.206 711.29 119.671C709.711 119.205 708.195 118.758 706.752 118.33C701.743 116.856 703.374 116.086 699.113 115.016C694.387 113.841 691.641 113.997 689.423 113.541C688.264 113.302 687.145 113.083 685.667 112.775C684.465 112.558 679.446 112.425 675.33 112.053C671.013 111.693 666.442 111.152 661.829 110.491C655.308 109.589 648.085 108.49 641.731 106.952C634.79 105.318 628.597 103.632 624.364 102.327C623.25 101.985 622.27 101.544 621.616 101.196C620.349 100.64 619.3 100.103 618.314 99.8879C617.457 99.7006 615.361 99.8587 612.732 99.3283C607.141 98.1806 602.73 97.4856 598.214 97.4709C594.433 97.4288 590.756 97.3741 587.068 97.2697C585.219 97.2161 583.38 97.1521 581.467 97.0471C579.356 96.865 578.239 97.0494 574.353 96.1574C569.277 94.7469 561.913 94.1446 554.354 93.1887C550.341 92.5026 549.386 90.6613 548.637 89.8605C548.014 89.0253 547.727 88.4352 547.477 87.9113C547.036 86.9504 546.822 86.2547 546.629 85.6145C546.258 84.339 546.042 83.289 545.841 82.2482C544.312 73.418 543.763 65.3406 542.962 56.8244C542.743 54.3822 542.53 51.9373 542.248 49.7063C541.995 47.4653 541.489 45.6572 541.326 45.592C538.555 41.1113 536.616 37.203 534.28 33.6457C532.787 31.3388 531.474 29.1068 530.253 27.3166C529.502 26.0744 528.462 25.1088 528.229 24.8488C523.264 22.8054 520.896 21.6938 517.185 20.8274C515.088 20.2894 510.805 20.1346 507.183 19.9699C503.408 19.8178 499.587 19.7191 495.791 19.633C488.141 19.4634 480.562 19.3514 472.955 19.2268C467.419 19.1369 461.897 19.0427 456.452 18.9328C446.184 18.7267 439.11 16.9118 437.647 16.9221ZM37.8636 282.524C37.8988 282.634 37.9326 282.718 37.9612 282.767C38.034 282.903 38.0138 282.764 37.8636 282.524ZM538.629 265.165C540.632 265.274 542.588 265.356 544.523 265.448C543.522 264.909 542.511 264.371 541.492 263.831C540.514 263.671 539.53 263.509 538.536 263.339C538.566 263.948 538.599 264.557 538.629 265.165ZM560.781 76.8244C560.991 77.5143 561.223 78.1447 561.481 78.7043C562.112 80.1086 563.337 81.6272 563.701 80.1105C563.599 79.8964 563.455 79.555 562.898 78.8313C562.502 78.4769 562.053 77.6381 560.781 76.8244ZM550.373 29.6613C548.414 29.5356 553.657 37.3904 554.763 37.2053C554.917 37.2862 555 37.2482 554.991 37.0627C555.054 36.8874 555.013 36.5482 554.826 35.9699C554.535 35.0513 551.085 29.7802 550.373 29.6613Z" fill="#31260C"/>
<path d="M248.696 70.2949C248.17 74.929 248.977 79.4806 248.977 89.4307C248.977 91.0602 249.44 95.4525 248.696 95.5602C244.556 96.5168 240.096 97.8817 233.954 98.5152C226.146 99.5668 220.726 100.655 216.539 101.578L216.165 101.661C210.182 102.981 206.749 103.739 196.694 103.897C190.036 104.001 178.329 104.001 168.275 104.54C158.222 105.078 150.068 106.124 141.899 106.646C133.73 107.169 125.782 107.041 120.953 107.277C114.446 107.593 110.249 109.186 103.088 109.389C92.0141 109.703 81.6779 110.412 75.3656 110.761C71.5836 110.97 69.3169 111.707 67.0382 112.028C62.4991 112.668 55.5079 114.134 50.7857 116.149C47.067 117.736 42.302 119.149 37.992 121.651C30.1778 126.187 24.5194 127.147 20.9033 133.263C18.5846 137.184 18.0913 142.2 18.2774 145.942C18.5973 152.376 20.4194 158.217 20.8114 163.155C21.3467 169.898 22.3412 175.004 23.5577 194.006C24.0835 202.22 22.6639 207.091 24.9324 217.319C25.984 222.061 26.876 225.286 27.7831 229.03C29.3796 235.618 31.3501 244.108 32.4267 248.985C33.3833 253.318 35.2669 256.237 36.5477 258.69C37.8178 261.123 39.1145 264.415 39.712 268.943C40.3518 273.793 39.7178 278.976 42.6768 280.651C45.8507 282.447 48.8565 283.555 51.4413 284.661C55.1505 286.248 58.842 288.779 67.7572 288.775C83.6455 288.769 87.3897 287.594 96.9586 286.131C101.827 285.386 107.185 283.593 114.697 282.33C119.122 281.585 121.557 280.21 132.337 278.633C138.14 277.784 143.078 275.832 148.583 275.256C150.582 275.047 160.176 272.741 173.537 270.287C181.002 268.915 184.7 267.355 191.18 266.913C208.268 265.747 214.06 264.495 221.762 263.217C226.817 262.377 230.72 263.313 244.258 257.297C248.99 255.193 252.648 253.009 259.158 251.386C261.723 250.746 265.487 249.91 288.153 249.492C310.82 249.074 351.168 249.074 372.096 249.181C393.024 249.289 394.487 249.498 414.604 249.71C434.721 249.923 472.361 249.745 491.597 250.452C511.679 251.19 514.724 251.125 518.666 251.823C522.246 252.457 528.124 251.864 534.507 253.09C539.984 254.142 547.147 255.094 553.506 256.682C556.879 257.525 566.359 256.953 578.137 258.158C584.329 258.792 588.12 259.903 591.83 260.268C596.15 260.692 602.459 262.132 611.579 264.072C618.564 265.557 624.365 267.246 629.099 267.87C633.958 268.51 645.493 268.746 659.624 271.569C663.302 272.304 665.787 273.198 669.238 273.894C678.088 275.681 682.759 276.38 686.535 277.163C691.607 278.215 698.096 278.327 702.794 279.697C707.875 281.18 712.046 282.145 714.612 282.653C717.796 283.283 722.099 283.657 725.806 284.658C728.553 285.399 731.468 286.495 735.005 286.346C742.73 286.02 748.72 285.056 753.05 283.277C756.642 281.801 759.417 280.554 764.77 278.525L764.98 278.446C767.96 277.318 770.721 276.273 772.258 273.771C773.95 271.018 775.665 267.704 775.948 263.511C776.484 255.586 776.715 249.157 777.956 244.202C778.802 240.825 778.537 238.098 779.965 234.487C781.552 230.474 782.988 226.212 783.763 222.454C784.504 218.855 785.323 214.561 786.404 209.885C787.456 205.337 789.117 200.319 789.252 188.824C789.356 179.895 789.544 163.166 789.249 154.485C788.932 145.173 789.154 143.743 788.507 142.636C787.025 140.098 785.554 136.797 781.425 134.508C778.574 132.927 774.987 131.117 768.856 129.018C764.84 127.644 757.244 126.628 750.909 126.278C749.015 126.174 739.574 124.987 727.118 121.198C719.861 118.99 715.046 116.511 707.01 114.429C692.76 110.735 682.886 108.616 681.651 108.328C678.468 107.587 673.669 108.002 657.854 105.579C651.652 104.628 646.271 103.887 638.823 102.189C628.174 99.7632 621.486 97.9905 618.801 97.4477C608.352 95.335 602.95 93.5972 594.582 93.4408L593.971 93.4294C583.107 93.2265 575.362 93.0819 573.208 92.4874C568.238 91.1158 560.235 90.5049 552.41 89.6398C550.519 89.4307 549.162 77.8033 547.71 61.7585C546.969 53.5673 546.609 50.3721 545.065 47.9766C542.952 44.6982 540.995 40.8071 538.198 36.5672C534.919 31.5974 532.353 26.6285 528.907 25.389C526.266 24.4388 522.936 22.5642 517.054 21.1604L516.99 21.1451C514.749 20.6092 511.301 19.7849 472.091 19.3707C432.507 18.9526 358.71 18.9526 321.381 19.0603C284.052 19.168 283.218 19.3956 282.367 19.4816C279.199 19.8015 275.352 19.6056 271.173 22.1265C268.011 24.0333 265.445 26.1133 263.152 29.3167C259.979 33.7513 258.049 38.3192 255.55 41.8791C252.807 45.7878 251.457 48.7119 250.701 52.0152C249.855 55.7085 250.056 58.3089 248.696 70.2949Z" fill="#395F24"/>
<path d="M420.458 11.7188C427.888 11.7118 428.523 12.7458 434.451 12.8594C447.076 13.1012 459.997 12.724 472.165 12.4903C475.867 12.4211 479.463 12.3655 482.969 12.3457C489.746 12.3095 496.896 12.5032 503.724 12.919C492.872 15.138 516.63 18.1974 507.879 13.6612C511.542 14.1691 514.544 14.0747 518.564 14.835C522.232 15.495 526.147 16.6449 529.562 18.2657C530.226 18.5714 530.785 18.8375 531.196 19.0274C535.005 20.6288 536.544 22.8753 538 24.7979C539.409 26.7799 540.561 28.8168 542.023 31.1075C542.473 31.8122 542.923 32.4954 543.376 33.1514C546.198 37.2439 548.667 41.468 550.638 44.3848C553.417 48.9728 553.221 52.0436 553.375 54.252C553.397 56.4995 553.073 58.1105 552.376 59.1055C552.473 59.846 552.563 60.579 552.649 61.3116C553.394 67.6317 553.848 73.4898 554.614 78.1914C554.916 80.0409 555.273 81.7302 555.709 83.1162C559.88 83.8881 566.147 85.5153 569.451 86.2549C570.23 86.4325 571.978 86.7302 574.585 87.5C575.512 87.8054 579.837 88.1178 583.367 88.3028C587.1 88.503 591.081 88.6672 594.669 88.8174C600.262 89.0198 604.84 90.019 606.435 90.3272C610.132 91.0589 615.571 92.3801 619.679 93.1055C621.137 93.3799 622.263 93.6219 623.21 93.792C628.122 94.6915 632.04 92.9535 639.81 97.8584C639.865 97.893 639.919 97.9278 639.974 97.9629C648.175 99.5722 651.982 100.052 658.51 101.292C659.831 101.541 661.236 101.803 662.812 102.084C664.49 102.381 664.62 102.867 665.623 102.996C667.662 103.256 671.171 103.319 674.809 103.568C677.936 103.8 680.414 104.123 682.508 104.647C683.817 104.975 684.522 104.979 684.348 104.201C688.378 104.843 692.406 105.524 696.424 106.237C697.745 106.855 699.066 107.478 700.378 108.103C702.567 108.32 704.75 108.545 706.942 108.782C706.037 109.221 706.758 109.757 708.097 110.233C711.379 111.32 718.013 112.727 714.864 110.715C719.806 112.683 724.145 114.846 728.558 116.464C731.158 117.426 733.784 118.318 736.436 119.138C734.731 121.524 753.016 122.704 751.156 120.768C751.181 120.769 751.201 120.771 751.213 120.772C752.11 120.823 753.003 120.885 753.894 120.957C759.352 121.905 764.144 122.186 770.522 124.15C773.295 125.112 776.224 126.254 779.315 127.864C781.212 128.856 782.633 129.719 783.7 130.405C788.682 133.951 788.033 134.734 788.994 137.343C789.923 138.629 790.656 139.948 791.313 140.996C792.405 143.042 792.174 144.117 792.314 145.066C793.61 149.594 793.623 151.911 793.357 154.346C792.878 158.534 791.386 162.447 792.82 175.203C791.893 178.206 791.582 183.26 791.55 188.852C791.586 195.383 791.108 203.038 789.881 208.698C789.708 209.627 789.884 209.903 789.866 210.686C789.859 210.926 789.835 211.213 789.78 211.578C789.34 214.345 787.995 220.116 787.675 223.26C787.521 224.634 787.506 225.496 787.878 225.478C786.591 229.125 785.031 232.471 783.368 235.735C783.359 235.764 783.349 235.793 783.34 235.822C782.665 238.014 782.824 240.223 782.464 243.655C782.844 243.708 783.223 243.76 783.603 243.812C783.406 244.329 783.198 244.884 782.971 245.458C780.827 249.943 780.948 258.329 780.354 262.437C780.288 262.92 780.101 263.19 779.889 263.777C779.696 264.384 779.49 265.262 779.112 266.756C778.541 269.218 777.022 272.828 775.235 275.6C773.885 277.816 771.812 279.166 770.327 279.872C769.023 281.181 767.694 282.25 766.569 283.274C766.51 283.328 766.451 283.381 766.393 283.434C760.72 285.907 757.954 285.808 754.526 286.867C754.149 286.989 753.762 287.115 753.37 287.246C752.972 287.415 749.175 288.673 745.462 289.241C741.743 289.869 738.093 290.105 737.719 290.149C736.692 290.258 735.891 290.371 735.18 290.492C732.301 290.918 729.667 291.048 724.452 289.677C722.581 289.239 719.918 288.861 715.653 288.152C714.967 288.032 714.292 287.886 713.611 287.71C711.318 287.102 709.404 286.358 707.247 285.798C705.898 285.446 703.79 284.963 701.42 284.407C696.708 283.471 688.131 283.693 687.031 284.032C686.512 283.848 685.914 283.655 685.235 283.438C681.336 282.071 673.776 280.773 668.095 279.552C664.71 278.831 662.261 278.035 660.979 277.628C660.173 277.36 659.86 276.921 658.661 276.393C657.976 276.106 657.038 275.79 655.616 275.479C652.299 274.693 643.525 274.161 639.19 273.728C634.585 273.217 632.945 272.482 630.783 272.239C630.066 272.159 629.344 272.142 628.54 272.113C627.08 272.062 625.549 272.009 623.74 271.624C618.895 270.565 614.708 269.183 610.72 268.109C607.51 267.239 604.482 266.413 601.622 265.807C598.015 265.049 594.47 264.544 591.41 264.546C585.805 264.303 581.733 263.852 577.546 263.923C576.973 263.922 576.41 263.922 575.843 263.92C573.935 263.65 572.052 263.19 570.003 263.08C567.344 262.935 564.631 262.848 561.828 262.766C558.877 262.609 556.587 262.848 552.181 261.984C546.402 260.506 540.124 259.625 533.501 258.333C528.886 257.322 524.564 257.81 517.76 256.942C509.994 255.845 500.015 255.876 491.417 255.348C490.618 255.308 489.733 255.268 488.934 255.233C476.921 254.665 446.689 252.519 454.739 256.006C450.654 256.556 421.673 255.206 414.548 255.01C414.318 255.004 414.112 255 413.931 254.997C408.085 254.914 403.446 255.467 398.844 255.398C389.158 255.241 381.566 254.936 372.066 254.944C368.002 254.947 363.561 255.004 358.47 255.156C354.133 255.288 349.463 256.02 346.887 256.011C343.782 255.998 340.44 255.289 336.42 255.25C326.837 255.156 308.985 255.471 299.807 255.458C298.12 255.453 297.524 254.835 295.139 254.671C292.826 254.514 290.46 254.414 288.244 254.384C281.377 254.287 275.891 254.903 277.307 256.355C271.274 256.023 264.928 256.147 260.641 257.336C255.946 258.577 252.258 260.793 246.917 263.279C246.879 263.296 246.842 263.313 246.805 263.33C243.668 264.732 240.079 266.238 235.855 267.489C231.835 268.833 225.852 269.303 222.837 269.687C213.179 271.476 201.786 272.784 191.626 273.446C186.412 273.729 180.712 275.76 174.745 276.863C169.343 277.935 164.524 279.03 160.561 280.027C155.655 281.227 153.603 282.07 149.383 282.911C146.197 283.426 143.64 284.828 133.473 286.404C132.246 286.542 130.915 286.698 129.497 286.885C125.374 287.369 122.576 288.123 116.208 289.268C116.097 289.284 115.985 289.299 115.872 289.314C109.96 289.979 104.396 291.202 97.8726 292.111C93.149 292.671 88.5318 293.712 84.0953 295.062C78.0179 295.446 72.7054 295.434 67.7603 295.322C64.2903 295.245 60.7672 294.796 57.4351 293.691C54.1003 292.628 51.1432 290.751 49.3609 289.524C49.0566 289.329 48.7426 289.13 48.4234 288.926C47.2176 288.867 45.947 288.79 44.6256 288.657C42.9976 287.958 41.307 287.162 39.647 286.238C39.626 286.198 39.6046 286.157 39.5836 286.116C38.6141 285.156 37.8828 283.987 37.5064 282.899C35.1678 279.561 35.2725 277.087 34.9468 275.035C34.7262 272.974 34.5957 271.173 34.2994 269.657C33.7309 266.631 32.6563 263.878 31.1646 261.501C29.3822 258.781 26.8674 254.409 25.9781 250.408C25.6368 249.068 25.3189 247.77 25.0426 246.548C24.1341 242.539 22.8772 236.925 21.4117 230.573C20.5876 227.01 19.5436 222.938 18.6724 218.708C17.787 214.566 17.2926 209.962 17.3521 205.653C17.4037 201.322 17.6974 197.744 17.525 194.393C17.1095 185.001 16.545 176.771 16.1256 171.514C15.8233 167.633 15.4762 165.365 15.357 163.588C15.2424 162.026 15.2434 160.836 15.6832 158.228C15.2267 156.447 14.7358 154.593 14.3013 152.662C13.7328 151.502 13.1833 150.3 12.6734 149.041C12.5763 148.131 12.502 147.193 12.4595 146.231C12.2973 141.216 12.9186 135.746 16.0933 130.419C18.2154 126.797 21.9282 123.894 24.9908 122.323C28.0919 120.678 30.6981 119.614 32.9801 118.397C33.7672 117.983 34.5549 117.549 35.3424 117.085C39.6425 114.529 44.6338 112.894 48.6461 111.136C54.528 108.642 60.1869 107.365 66.2388 106.356C68.175 106.012 71.8633 105.08 75.0435 104.941C83.3034 104.384 91.4167 103.914 98.2808 103.91C99.7415 103.908 101.318 103.964 102.936 104.045C106.157 104.261 109.571 104.082 112.774 103.523C116.01 102.969 118.264 102.397 120.694 101.964C123.215 101.507 125.802 101.135 130.167 101.049C133.463 100.981 137.358 100.965 141.526 100.813C149.52 100.514 159.167 99.7293 168.008 99.5537C174.848 99.4014 181.066 99.4511 185.746 99.3438C189.864 99.2561 191.781 98.7662 194.595 98.6817C195.281 98.6608 195.953 98.6397 196.612 98.6182C203.704 98.4276 208.959 97.817 215.323 96.0655C218.854 95.1693 222.491 94.298 226.295 93.4268C229.306 93.2318 231.541 93.2374 233.256 93.3379C233.289 93.3339 233.385 93.3225 233.418 93.3194C238.346 93.7884 238.672 94.8411 241.682 95.462C243.13 95.7476 246.067 95.97 248.835 96.295C250.355 95.5681 249.881 95.1568 250.203 94.7627C250.37 94.368 250.503 94.0038 250.629 93.6495C250.88 92.9435 251.092 92.2932 251.291 91.7217C251.684 90.5784 252.032 89.7624 252.305 89.5342C252.364 89.4698 252.426 89.4311 252.489 89.4121C251.814 89.2034 251.026 85.3795 250.228 84.833C249.427 84.2803 244.471 84.8501 243.946 79.5235C243.771 77.2621 243.445 73.9789 243.982 69.7598C245.004 63.3919 245.497 56.5818 246.811 51.1241C247.269 49.3787 247.798 48.0104 248.114 47.1875C249.05 44.7058 250.341 41.9271 251.957 39.3575C252.288 38.8104 252.626 38.2222 252.978 37.6094C255.143 33.7461 257.036 29.9099 259.368 26.6075C261.786 23.0735 265.035 20.1673 268.531 17.7461C270.371 16.4698 272.628 15.3556 275.077 14.6182C277.761 14.3708 280.178 14.6571 281.893 14.7989C284.679 14.9099 286.655 15.2893 288.928 15.5752C294.512 15.1886 302.933 16.0028 306.357 15.9375C309.081 15.8846 310.791 15.3604 313.628 15.3252C315.649 15.2992 318.213 15.4913 321.371 15.6221C323.281 15.7054 325.479 15.7644 327.761 15.7266C337.431 15.5705 339.186 14.2227 344.964 14.044C351 13.8594 360.334 14.5851 368.023 14.1114C368.987 13.9632 369.963 13.815 370.917 13.667C370.231 13.332 369.539 12.9971 368.844 12.6621C372.708 12.5063 374.387 13.1931 377.93 13.2071C382.121 13.224 384.252 12.5746 387.064 12.5801C389.369 12.5852 392.495 13.1107 395.486 13.0821C399.844 13.0432 398.893 12.2886 401.238 12.1514C402.178 12.096 419.467 11.7194 420.458 11.7188ZM437.685 22.9873C434.608 22.9981 432.629 23.7906 426.372 23.9668C405.594 24.5439 377.604 23.6635 357.828 24.0782C348.076 24.2807 334.659 25.3151 325.053 25.5655C323.983 25.5927 322.729 25.6107 321.4 25.6211C312.676 25.6834 298.814 25.5137 295.883 25.9327C293.836 26.2211 292.849 27.0962 290.425 27.2354C288.334 27.3629 284.736 26.9009 283.125 26.9854C283.02 26.9942 282.918 27.0023 282.818 27.0108C277.387 27.2927 276.725 27.5201 274.938 28.3692C272.341 29.8279 270.672 30.9579 268.792 33.3526C268.247 34.0646 267.688 34.8594 267.097 35.7764C265.654 37.9014 264.189 41.1686 261.078 45.7578C259.235 48.3592 257.855 50.7476 257.214 53.5069C256.688 55.5488 256.499 58.7387 256.144 61.8809C255.808 65.0284 255.413 68.1143 254.981 71.0078C254.393 74.8873 254.703 80.2603 254.308 83.7217C253.996 87.133 253.43 89.2431 252.701 89.417C253.378 89.6244 254.226 91.4396 254.863 90.4668C254.944 91.3248 255.029 92.2369 255.068 93.251C255.085 93.7719 255.1 94.2926 255.052 95.0254C255.022 95.4029 254.997 95.7965 254.839 96.5C254.742 96.8839 254.66 97.2912 254.265 98.1016C253.883 98.7031 253.06 100.841 249.558 101.522L250.052 101.43C244.594 102.947 239.418 104.092 234.545 104.247L234.723 104.227C230.879 104.484 227.05 104.662 222.292 105.106C220.704 105.42 219.127 105.754 217.539 106.108C211.098 107.753 203.449 108.549 196.768 108.577C187.235 108.721 177.826 108.764 168.529 109.273C164.449 109.499 160.37 109.836 156.251 110.216C154.232 109.948 152.199 109.69 150.16 109.425L150.159 109.422C146.86 109.519 144.295 109.773 142.118 110.065C138.683 110.521 136.24 111.09 133.426 111.322C129.586 111.646 125.336 111.819 121.19 112.149C116.359 112.469 110.435 114.449 103.239 114.718C94.6038 115.102 85.3957 115.733 75.6734 116.323C73.249 116.433 71.428 116.947 67.816 117.548C62.7908 118.285 57.2814 119.466 52.9508 121.222C48.1763 123.165 44.0935 124.392 40.7115 126.336C37.3914 128.249 33.8862 129.755 31.0963 131.17C28.2555 132.621 26.642 133.863 25.3883 135.914C23.8719 138.351 23.2019 142.15 23.3306 145.691C23.4695 150.976 25.076 156.259 25.649 162.771C26.5324 172.717 27.5058 182.761 27.9625 191.168C28.0088 191.92 28.0614 192.739 28.1256 193.714C28.3549 196.704 28.2567 200.679 28.2349 204.518C28.2158 208.366 28.6199 212.261 29.5552 216.294C30.4514 220.279 31.5122 224.186 32.4 227.911C33.7787 233.726 34.7843 238.503 35.067 240.742C35.2963 242.58 34.7394 243.233 35.1441 245.152C35.4006 246.174 35.6553 247.196 35.9058 248.217C36.6282 251.201 38.0226 253.63 39.9263 256.926C41.8973 260.486 43.1459 264.47 43.7418 268.412C44.0985 270.765 44.1808 272.943 44.4156 274.733C44.4964 275.841 44.8281 276.622 44.9644 276.932C47.4517 278.249 50.1395 279.222 53.2447 280.446C55.2997 281.295 56.8122 282.042 58.3199 282.548C61.1604 283.752 64.3075 284.263 67.7554 284.332C77.5246 284.636 86.3432 283.782 96.3238 281.981C101.646 281.1 107.779 279.144 113.988 278.116C118.897 277.021 125.766 275.035 131.695 274.249C136.586 273.534 141.775 271.439 148.105 270.692C152.292 269.901 158.02 268.542 163.024 267.531C166.238 266.868 169.454 266.23 172.68 265.622C178.187 264.675 184.067 262.532 190.851 262.099C201.112 261.386 210.774 260.239 220.948 258.314C225.714 257.647 228.504 257.585 231.962 256.541C235.322 255.585 238.769 254.195 242.196 252.656C246.635 250.599 252.199 247.728 257.912 246.391C263.636 245.018 268.425 245.01 273.379 244.703C278.325 244.471 283.16 244.335 288.056 244.224C316.186 243.671 344.178 243.61 372.125 243.667C386.371 243.673 400.541 244.029 414.663 244.158C427.041 244.276 439.529 244.283 451.965 244.366C464.049 244.458 478.203 244.284 491.809 244.686C499.098 244.931 506.074 245.132 512.61 245.539C515.114 245.704 517.446 246.027 519.595 246.572C522.225 247.358 526.342 247.181 533.782 247.637C533.854 247.949 533.924 248.262 533.992 248.575C534.446 248.63 534.895 248.691 535.339 248.758C542.05 249.698 547.242 249.772 554.818 251.431C555.073 251.479 556.201 251.587 557.269 251.633C561.419 251.837 570.376 251.776 578.699 252.663C584.372 253.205 589.685 254.562 592.366 254.814C593.311 254.916 594.119 255.035 594.794 255.144C598.774 255.841 597.188 256.148 600.739 256.831C603.614 257.401 607.996 258.173 612.663 258.978C617.946 259.885 623.475 261.155 627.378 261.894C628.165 262.043 628.995 262.195 629.83 262.32C636.635 263.068 647.809 264.435 652.903 265.244C655.458 265.591 658.04 265.99 660.646 266.455C664.225 267.085 667.474 268.086 670.315 268.557C676.01 269.585 681.557 270.338 687.726 271.421C692.317 272.287 697.832 272.08 704.507 273.826C708.274 274.889 712.116 275.877 715.8 276.651C716.322 276.76 716.898 276.865 717.497 276.968C720.291 277.45 723.937 278.073 727.288 279.17C730.515 280.311 732.097 280.868 732.831 280.931C733.667 281.028 734.272 280.954 734.772 280.83C736.394 280.531 737.379 280.124 738.979 279.931C742.708 279.465 747.161 278.854 750.668 277.478C754.363 275.987 758.564 274.283 762.623 272.858C765.703 271.844 767.169 270.966 767.254 270.696C768.969 268.074 769.843 265.961 770.122 264.011C770.165 263.717 770.196 263.421 770.217 263.124C770.741 256.758 770.677 250.345 772.405 242.812C773.002 240.806 772.919 236.606 774.636 232.38C776.094 228.668 777.394 224.862 778.131 221.294C778.967 217.171 779.791 212.875 780.777 208.584C782.663 201.494 783.386 195.697 783.431 188.756C783.528 177.269 783.692 165.7 783.409 154.684C783.342 152.654 783.291 150.644 783.25 148.639C783.228 147.651 783.211 146.641 783.18 145.754C783.202 145.469 783.157 145.153 783.122 144.934C783.044 144.796 782.967 144.664 782.895 144.535C781.432 141.87 780.524 140.667 778.615 139.575C775.111 137.596 771.309 135.965 766.985 134.485C762.669 133.12 756.303 132.377 750.592 132.022C741.19 131.049 733.328 128.993 725.471 126.609C717.513 124.08 711.322 121.142 705.649 119.68C704.051 119.236 702.517 118.812 701.059 118.409C696.162 117.065 697.655 116.644 693.504 115.635C688.901 114.527 686.278 114.463 684.123 114.017C683.001 113.784 681.88 113.561 680.5 113.273C678.641 112.93 674.114 112.847 670.082 112.462C665.921 112.102 661.502 111.575 657.033 110.936C650.62 110.047 643.71 109.009 637.596 107.576C630.996 106.07 625.118 104.551 621.01 103.392C619.737 103.033 618.641 102.6 617.826 102.272C616.762 101.885 615.853 101.532 615.011 101.355C614.18 101.179 612.206 101.172 609.632 100.649C603.981 99.4796 599.24 98.6875 594.485 98.6631C590.796 98.6133 587.21 98.5575 583.626 98.459C581.83 98.4085 580.046 98.3489 578.211 98.253C576.248 98.1022 574.927 98.2045 571.822 97.5108C566.333 96.0671 559.243 95.5696 551.853 94.6778C547.584 93.6303 547.821 91.9569 547.225 91.3653C546.821 90.608 546.648 90.1133 546.462 89.586C546.131 88.6022 545.929 87.7628 545.746 86.9434C544.079 78.4251 543.564 70.5354 542.747 62.208C542.325 57.8288 541.902 52.0323 540.853 50.6914C538.246 46.603 536.312 42.8205 533.974 39.3535C532.544 37.2064 531.267 35.0866 530.012 33.295C528.835 31.5094 527.276 30.101 527.172 30.211C522.52 28.353 519.683 27.0583 515.852 26.1973C510.027 25.133 501.662 25.2049 494.389 24.9707C486.892 24.806 479.478 24.7005 472.037 24.5938C466.633 24.5171 461.242 24.4426 455.933 24.3584C445.967 24.2015 439.1 22.9824 437.685 22.9873ZM535.352 257.605C537.28 257.785 539.176 257.93 541.056 258.082C540.055 257.671 539.047 257.262 538.035 256.848C537.084 256.692 536.127 256.533 535.166 256.364C535.226 256.778 535.289 257.192 535.352 257.605ZM556.066 84.1426C556.365 84.902 556.71 85.5446 557.038 85.8506C557.196 85.9956 557.362 86.0638 557.415 85.876C557.376 85.6842 557.691 85.2185 555.952 83.7344C555.937 83.7243 555.921 83.7145 555.905 83.7041C555.958 83.8544 556.01 84.0013 556.066 84.1426ZM545.287 37.5362C544.333 37.2729 546.001 40.2437 547.508 42.4463C549.033 44.6601 550.495 45.9945 549.524 43.7705C549.119 42.8428 545.828 37.7024 545.287 37.5362Z" fill="white"/>
<path d="M443.663 61.6193C443.663 66.3326 441.797 69.856 438.063 72.1893C438.577 72.4226 439.23 72.9826 440.023 73.8693C440.863 74.756 441.563 75.6426 442.123 76.5293C443.57 78.816 444.293 81.5226 444.293 84.6493C444.293 89.7826 442.45 93.5626 438.763 95.9893C435.077 98.416 430.013 99.6293 423.573 99.6293C420.4 99.6293 417.39 99.3726 414.543 98.8593C411.743 98.2993 409.597 97.6926 408.103 97.0393C406.61 96.3393 405.863 95.7093 405.863 95.1493C405.863 92.5826 406.143 90.3193 406.703 88.3593C407.263 86.3993 407.893 85.0226 408.593 84.2293C409.293 83.3893 409.97 82.9693 410.623 82.9693C410.81 82.9693 412.047 83.3893 414.333 84.2293C416.62 85.0693 418.86 85.4893 421.053 85.4893C423.293 85.4893 424.413 84.7893 424.413 83.3893C424.413 81.476 422.057 80.4493 417.343 80.3093C415.477 80.2626 414.45 80.216 414.263 80.1693C413.283 79.8426 412.793 77.7893 412.793 74.0093C412.793 70.2293 413.283 68.1526 414.263 67.7793C414.45 67.686 415.477 67.6393 417.343 67.6393C422.057 67.546 424.413 66.5893 424.413 64.7693C424.413 63.3693 423.387 62.6693 421.333 62.6693C419.327 62.6693 417.087 63.1593 414.613 64.1393C412.14 65.1193 410.787 65.6093 410.553 65.6093C409.48 65.6093 408.5 64.046 407.613 60.9193C406.727 57.7926 406.283 55.576 406.283 54.2693C406.283 53.056 407.637 51.8193 410.343 50.5593C413.33 49.206 417.717 48.5293 423.503 48.5293C436.943 48.5293 443.663 52.8926 443.663 61.6193Z" fill="white"/>
<path d="M388.112 98.6493C385.499 99.3026 382.256 99.6293 378.382 99.6293C374.509 99.6293 371.242 99.3026 368.582 98.6493C365.969 97.9493 363.589 96.6893 361.442 94.8693C357.196 91.276 355.072 84.2526 355.072 73.7993C355.072 63.7193 357.289 56.8826 361.722 53.2893C363.916 51.516 366.319 50.2793 368.932 49.5793C371.546 48.8793 374.672 48.5293 378.312 48.5293C381.999 48.5293 385.149 48.8793 387.762 49.5793C390.422 50.2793 392.849 51.516 395.042 53.2893C399.476 56.8826 401.692 63.7193 401.692 73.7993C401.692 84.2526 399.569 91.276 395.322 94.8693C393.176 96.6893 390.772 97.9493 388.112 98.6493ZM376.912 87.7293C377.286 88.336 377.776 88.6393 378.382 88.6393C379.036 88.6393 379.549 88.336 379.922 87.7293C380.296 87.076 380.599 85.676 380.832 83.5293C381.066 81.3826 381.182 78.326 381.182 74.3593C381.182 70.3926 381.066 67.3126 380.832 65.1193C380.599 62.8793 380.296 61.4093 379.922 60.7093C379.549 59.9626 379.036 59.5893 378.382 59.5893C377.776 59.5893 377.286 59.9393 376.912 60.6393C375.979 62.226 375.512 66.7993 375.512 74.3593C375.512 81.8726 375.979 86.3293 376.912 87.7293Z" fill="white"/>
<path d="M606.148 212.735C602.916 212.397 600.165 211.826 597.897 211.023C595.628 210.219 593.62 209.007 591.872 207.386C588.248 204.132 586.841 198.626 587.652 190.868C588.373 183.972 590.893 179.247 595.213 176.692C599.251 174.326 604.243 173.454 610.191 174.076C612.734 174.342 614.897 174.699 616.68 175.147C618.467 175.551 620.247 176.239 622.019 177.208C623.834 178.182 625.232 179.396 626.213 180.849C627.237 182.307 627.992 184.259 628.476 186.706C628.966 189.11 629.041 191.928 628.703 195.161C628.018 201.712 625.649 206.453 621.596 209.384C617.547 212.271 612.398 213.389 606.148 212.735ZM605.204 199.892C605.343 201.475 605.548 202.434 605.818 202.767C606.131 203.105 606.547 203.3 607.064 203.355C607.624 203.413 608.071 203.307 608.404 203.037C608.78 202.772 609.179 201.877 609.6 200.352C610.064 198.832 610.417 196.908 610.661 194.581C610.909 192.211 611.033 190.394 611.035 189.13C611.084 187.828 611.058 186.824 610.958 186.116C610.901 185.413 610.763 184.854 610.545 184.439C610.216 183.838 609.771 183.508 609.211 183.45C608.693 183.396 608.244 183.523 607.864 183.832C607.487 184.098 607.065 185.012 606.596 186.575C606.133 188.095 605.75 190.299 605.448 193.186C605.146 196.074 605.064 198.309 605.204 199.892Z" fill="white"/>
<path d="M564.377 206.829L565.698 188.807C565.936 185.566 565.979 183.201 565.827 181.713C565.676 180.224 565.103 179.444 564.109 179.371C563.245 179.307 562.77 179.859 562.684 181.026L560.811 206.567C560.776 207.043 559.495 207.34 556.966 207.458C554.44 207.534 551.859 207.475 549.223 207.282C546.587 207.088 544.931 206.858 544.255 206.592C543.583 206.282 543.267 205.846 543.308 205.284L546.603 160.359C546.669 159.452 547.989 158.636 550.562 157.912C553.135 157.189 555.805 156.928 558.571 157.131C561.466 157.343 563.263 158.018 563.962 159.156C564.196 159.521 564.299 159.897 564.27 160.286L563.571 169.816L562.53 174.236L562.984 174.27C563.656 173.407 564.665 172.677 566.012 172.08C568.528 170.961 571.211 170.506 574.064 170.715C578.169 171.017 580.839 172.537 582.071 175.278C583.351 177.979 583.775 182.268 583.344 188.146L581.88 208.112C581.845 208.588 580.541 208.883 577.969 208.999C575.444 209.074 572.863 209.015 570.227 208.822C567.634 208.632 565.999 208.403 565.324 208.136C564.651 207.826 564.335 207.391 564.377 206.829Z" fill="white"/>
<path d="M541.206 158.91L538.747 204.995C538.721 205.471 537.467 205.794 534.984 205.966C532.504 206.094 529.944 206.087 527.305 205.946C524.708 205.808 523.026 205.609 522.259 205.351C521.537 205.053 521.191 204.622 521.222 204.059L523.619 159.143C523.67 158.191 524.931 157.326 527.403 156.546C529.918 155.769 532.582 155.456 535.394 155.606C539.375 155.818 541.313 156.92 541.206 158.91Z" fill="white"/>
<path d="M497.224 189.989C497.119 192.804 498.408 194.261 501.093 194.361C502.652 194.419 504.707 193.976 507.257 193.03C509.809 192.041 511.15 191.549 511.28 191.554C512.103 191.585 513.139 192.859 514.39 195.378C515.64 197.896 516.243 199.74 516.2 200.909C516.137 202.598 514.357 203.811 510.86 204.547C507.364 205.284 503.948 205.591 500.614 205.466C497.323 205.343 494.561 204.98 492.329 204.377C490.14 203.775 488.345 203.057 486.945 202.224C485.59 201.35 484.393 200.308 483.354 199.098C482.359 197.89 481.62 196.757 481.14 195.698C480.66 194.597 480.293 193.39 480.039 192.08C479.677 190.158 479.534 188.18 479.61 186.145C479.904 178.264 482.163 172.906 486.388 170.071C488.48 168.632 490.793 167.655 493.327 167.143C495.862 166.63 498.839 166.438 502.26 166.565C513.216 166.974 518.552 170.989 518.267 178.611C517.965 186.708 511.665 190.528 499.367 190.069L497.224 189.989ZM497.447 180.501L497.287 184.788C498.543 184.835 499.579 184.375 500.396 183.408C501.256 182.442 501.713 181.245 501.766 179.816C501.863 177.218 501.24 175.894 499.898 175.844C498.382 175.787 497.565 177.34 497.447 180.501Z" fill="white"/>
<path d="M431.484 161.596C431.494 161.076 432.068 160.48 433.206 159.806C434.346 159.09 435.939 158.468 437.985 157.94C440.075 157.414 442.332 157.172 444.759 157.215C447.185 157.258 448.955 157.636 450.07 158.349C451.184 159.062 451.777 159.831 451.849 160.655L453.706 184.352L454.616 184.368L457.038 161.332C457.189 160.121 458.679 159.194 461.508 158.55C464.336 157.907 466.964 157.607 469.39 157.649C471.816 157.692 473.61 157.941 474.773 158.394C475.936 158.805 476.665 159.23 476.96 159.668C477.299 160.108 477.466 160.522 477.459 160.912C477.453 161.259 477.11 162.271 476.43 163.95C475.794 165.585 475.113 167.35 474.386 169.244C471.983 175.27 467.913 186.076 462.177 201.664C461.677 202.999 457.939 203.605 450.964 203.481C448.797 203.443 447.37 203.266 446.682 202.951C445.994 202.635 445.527 202.107 445.28 201.366C442.854 193.955 439.947 185.539 436.559 176.118C433.171 166.697 431.48 161.856 431.484 161.596Z" fill="white"/>
<path d="M393.233 188.429C393.245 191.246 394.594 192.648 397.281 192.637C398.841 192.631 400.876 192.102 403.384 191.051C405.893 189.957 407.213 189.41 407.343 189.41C408.166 189.406 409.254 190.637 410.608 193.101C411.962 195.565 412.641 197.382 412.646 198.552C412.653 200.242 410.926 201.528 407.463 202.409C404 203.29 400.6 203.738 397.263 203.752C393.97 203.766 391.195 203.518 388.94 203.007C386.728 202.497 384.905 201.855 383.472 201.081C382.082 200.263 380.842 199.272 379.754 198.106C378.709 196.941 377.924 195.839 377.4 194.801C376.876 193.72 376.459 192.53 376.15 191.231C375.709 189.327 375.484 187.356 375.475 185.319C375.442 177.433 377.477 171.986 381.581 168.978C383.611 167.453 385.882 166.382 388.392 165.764C390.903 165.147 393.87 164.831 397.294 164.817C408.257 164.77 413.755 168.561 413.787 176.187C413.821 184.29 407.685 188.368 395.378 188.42L393.233 188.429ZM393.063 178.94L393.081 183.23C394.338 183.224 395.354 182.722 396.13 181.722C396.949 180.722 397.356 179.507 397.35 178.077C397.339 175.477 396.661 174.18 395.318 174.185C393.801 174.192 393.05 175.777 393.063 178.94Z" fill="white"/>
<path d="M345.274 204.344C343.671 204.376 342.172 204.166 340.776 203.717C339.38 203.267 338.221 202.705 337.298 202.029C336.418 201.353 335.641 200.436 334.969 199.279C334.296 198.122 333.776 197.027 333.409 195.994C333.042 194.917 332.756 193.601 332.552 192.045C332.248 189.754 332.066 187.135 332.009 184.189C331.892 178.167 332.908 173.574 335.056 170.412C337.204 167.206 340.206 165.566 344.062 165.491C348.005 165.414 350.882 166.29 352.695 168.118C353.093 168.544 353.407 169.058 353.635 169.66L354.155 169.65L353.288 165.181L353.13 157.057C353.111 156.104 354.306 155.149 356.715 154.192C359.123 153.235 361.735 152.729 364.552 152.674C367.498 152.617 369.393 153.143 370.238 154.254C370.55 154.681 370.71 155.111 370.719 155.545L371.617 201.686C371.627 202.162 370.421 202.576 368.001 202.927C365.623 203.233 363.308 203.408 361.055 203.452C358.845 203.495 357.414 203.458 356.762 203.34C356.152 203.179 355.759 203.013 355.582 202.843C355.449 202.673 355.356 202.393 355.305 202.004L354.713 198.309L354.193 198.32C353.833 199.843 353.078 201.137 351.929 202.199C350.482 203.571 348.264 204.286 345.274 204.344ZM352.368 194.714C353.061 194.701 353.573 194.258 353.902 193.384L353.564 176.033C353.556 175.599 353.311 175.279 352.831 175.072C352.392 174.82 352 174.698 351.653 174.705C350.18 174.733 349.509 178.127 349.641 184.886C349.711 188.482 349.956 191.034 350.375 192.543C350.837 194.007 351.501 194.731 352.368 194.714Z" fill="white"/>
<path d="M302.1 205.7C297.251 205.881 293.804 204.753 291.762 202.314C289.762 199.874 288.646 195.536 288.413 189.3L287.752 171.632C287.719 170.766 288.966 169.896 291.492 169.021C294.016 168.102 296.685 167.591 299.5 167.485C303.267 167.344 305.187 168.248 305.26 170.197L305.877 186.695C306.001 189.986 306.22 192.385 306.537 193.891C306.852 195.353 307.529 196.065 308.568 196.026C309.954 195.974 310.625 195.364 310.581 194.195L309.706 170.811C309.672 169.902 310.983 169.007 313.639 168.127C316.294 167.247 319.203 166.748 322.364 166.63C325.525 166.511 327.137 167.297 327.2 168.986L328.452 202.437C328.475 203.043 327.127 203.527 324.408 203.889C321.69 204.251 319.01 204.482 316.369 204.58C313.727 204.679 312.372 204.383 312.303 203.692L311.495 199.494L310.975 199.514C310.644 201.087 309.912 202.394 308.78 203.433C308.194 203.976 307.302 204.486 306.106 204.964C304.951 205.398 303.616 205.643 302.1 205.7Z" fill="white"/>
<path d="M269.799 212.113L267.921 212.284C267.229 212.323 266.845 211.672 266.769 210.331L266.586 207.086C257.461 206.125 252.581 200.02 251.947 188.771C251.771 185.656 252.113 182.859 252.971 180.38C253.827 177.858 254.932 175.886 256.284 174.464C257.636 173.043 259.218 171.847 261.029 170.877C263.937 169.324 266.883 168.463 269.868 168.295C274.887 168.012 278.391 168.205 280.382 168.874C282.416 169.541 283.486 170.804 283.591 172.665C283.696 174.525 283.462 176.535 282.889 178.694C282.357 180.807 281.55 181.894 280.469 181.955C280.123 181.975 279.042 181.667 277.227 181.031C275.454 180.393 273.919 180.111 272.622 180.184C271.367 180.255 270.423 180.829 269.789 181.906C269.196 182.938 268.983 184.925 269.148 187.867C269.312 190.765 269.727 192.738 270.394 193.786C271.058 194.79 272.017 195.257 273.272 195.186C274.57 195.113 276.146 194.59 278.001 193.617C279.856 192.645 280.892 192.152 281.108 192.14C281.93 192.094 282.764 193.023 283.609 194.929C284.497 196.832 284.984 198.541 285.07 200.055C285.194 202.261 284.223 203.9 282.157 204.972C280.09 206.043 277.091 206.733 273.159 207.041L273.218 208.08C276.989 207.997 278.955 209.384 279.116 212.239C279.192 213.58 278.604 214.699 277.352 215.594C276.103 216.532 274.749 217.151 273.29 217.45C271.877 217.79 270.348 218.007 268.704 218.1C268.358 218.119 268.058 217.789 267.802 217.109C267.549 216.472 267.402 215.786 267.361 215.05C267.319 214.315 267.471 213.937 267.818 213.918C271.019 213.737 272.6 213.301 272.561 212.609C272.537 212.176 271.616 212.011 269.799 212.113Z" fill="white"/>
<path d="M223.761 206.605C223.777 207.865 223.178 208.783 221.964 209.36C220.793 209.934 218.61 210.35 215.414 210.611C212.218 210.871 209.517 210.808 207.312 210.422C205.146 209.99 204.027 209.32 203.953 208.413C203.868 207.376 205.253 200.612 208.105 188.119C210.954 175.584 212.584 168.364 212.995 166.461C213.165 165.882 214.856 165.288 218.067 164.679C221.318 164.023 224.8 163.544 228.515 163.242C232.272 162.936 234.398 163.415 234.892 164.679C245.263 191.138 250.466 204.584 250.501 205.016C250.536 205.448 250.312 205.901 249.829 206.375C248.697 207.423 246.338 208.094 242.753 208.385C235.109 209.008 231.126 208.419 230.806 206.619L230.01 202.445L223.79 202.951L223.761 206.605ZM227.647 190.246L225.726 178.664L224.301 178.78L224.149 190.531L227.647 190.246Z" fill="white"/>
</svg>
