<svg width="284" height="108" viewBox="0 0 284 108" fill="none" xmlns="http://www.w3.org/2000/svg">
<path d="M147.786 0.0435342C150.512 0.0359977 150.763 0.582636 152.949 0.638999C155.993 0.716546 159.106 0.65496 162.198 0.563231C163.741 0.517393 165.281 0.464286 166.821 0.417895C166.915 0.414978 167.009 0.411814 167.102 0.408941C166.83 0.403937 168.333 0.41885 168.846 0.42375C169.524 0.430451 170.116 0.436816 170.679 0.443381C172.869 0.469042 174.089 0.488439 175.082 0.504339C177 0.535734 177.884 0.554055 178.639 0.569086C180.078 0.598402 180.697 0.613308 181.226 0.627978C182.943 0.675984 183.285 0.795035 183.714 0.963767C182.872 2.21925 183.759 3.51414 183.86 1.30024C183.928 1.39534 183.981 1.43024 184.03 1.4318C184.054 1.43251 184.075 1.42459 184.097 1.41183C184.09 1.3944 184.189 1.38222 184.964 1.57714C187.334 2.18999 188.221 2.59897 188.685 2.82352C188.764 2.8871 188.936 2.91715 189.67 3.36836C190.207 3.7237 190.587 4.09878 190.944 4.50935C191.655 5.33958 192.165 6.21543 193.057 7.66852C194.883 10.4989 195.942 12.1953 196.56 13.1059C197.349 14.4302 197.391 16.1779 196.752 17.4921C196.839 18.1484 196.886 18.5116 197.024 19.9484C197.247 22.3358 197.312 22.8404 197.398 23.6193C197.555 24.9937 197.654 25.7295 197.743 26.3576C197.767 26.5247 197.79 26.6796 197.812 26.8233C198.432 26.9561 199.064 27.1136 199.656 27.2775C200.937 27.6296 202.015 28.0185 202.649 28.1902C202.8 28.2305 203.075 28.2974 203.429 28.3948C203.72 28.472 204.507 28.7125 204.308 28.6813C204.168 28.7054 204.704 28.8582 205.934 28.9613C206.576 29.0165 207.369 29.0687 208.808 29.1249C209.181 29.1392 209.589 29.1538 210.131 29.1703C210.65 29.1865 211.522 29.2081 211.505 29.2144C211.79 29.2329 212.101 29.2577 212.379 29.2854C213.498 29.3943 214.454 29.5761 214.881 29.6542C215.732 29.8065 216.962 30.0882 218.275 30.3809C218.929 30.5257 219.599 30.6669 220.218 30.7832C220.892 30.9098 220.669 30.8428 220.887 30.861C221.248 30.8681 221.692 30.5724 222.388 30.5755C222.744 30.5788 223.159 30.6563 223.807 30.9206C224.539 31.2034 225.034 31.5689 227.632 32.6136C230.039 33.1082 231.068 33.2356 232.227 33.4509C232.785 33.5518 233.312 33.654 233.873 33.7719C233.667 33.7759 237.83 34.4451 238.971 34.5857C239.953 34.7206 239.913 34.96 240.3 34.9941C241.06 35.0584 241.777 34.9216 242.299 34.9618C243.21 35.0425 243.176 35.6166 243.332 34.8281C243.537 34.7393 244.018 34.7108 244.99 34.8023C245.289 35.0304 245.652 35.2744 246.131 35.5476C247.009 35.5889 247.817 35.6073 250.179 36.0411C248.32 36.1571 253.48 37.599 253.852 37.6512C255.025 37.9101 256.083 37.9584 255.262 37.3088C256.739 37.9601 257.942 38.5978 259.06 39.1083C259.344 39.2383 259.601 39.3549 259.894 39.4782C261.779 40.0925 262.285 40.2289 262.976 40.4367C264.23 40.8065 264.945 41.0063 265.554 41.183C265.267 41.7965 266.631 42.0822 267.2 41.9334C267.832 41.7985 267.899 41.3193 268.009 40.9725C268.521 41.0048 268.981 41.0434 269.409 41.0848C271.252 41.4391 272.608 41.6682 273.946 41.9957C274.273 42.0773 274.631 42.1776 274.958 42.2892C275.284 42.3999 276.269 42.7677 276.756 42.9769C277.856 43.4407 278.585 43.8337 279.148 44.1971C279.822 44.6056 281.755 46.1645 281.916 46.7381C282.248 47.3772 282.209 47.6787 282.217 48.2817C282.653 49.0002 282.804 49.1298 282.995 49.557C283.568 49.9872 283.723 50.3696 283.734 51.2701C283.737 51.5186 283.73 51.8132 283.721 52.3487C283.717 52.6155 283.713 52.9486 283.712 53.3822C283.71 53.7962 283.716 54.4488 283.698 54.392C283.643 54.6877 283.566 54.9838 283.485 55.3067C283.16 56.5816 282.783 58.206 283.395 61.9099C282.869 63.1958 282.74 64.6929 282.743 67.7361C282.605 73.0051 282.224 73.9071 282.211 74.914C282.201 75.1153 282.396 75.1652 282.404 75.4079C282.143 77.2247 281.3 80.3262 281.949 80.3466C281.487 81.6263 280.912 82.8417 280.24 84.148C279.836 85.5099 279.934 85.8056 279.903 86.9897C280.104 87.0107 280.306 87.0316 280.507 87.0524C279.984 88.4075 279.653 88.9048 279.506 89.8943C279.343 90.8507 279.282 92.1473 279.134 93.1885C279.074 93.6173 278.798 93.6065 278.622 95.1564C278.517 96.1561 278.202 97.3343 277.788 98.2467C277.331 99.1841 277.157 99.7461 276.249 100.643C275.884 101.447 275.274 102.144 274.71 102.728C271.719 104.103 270.669 103.693 269.643 104.063C269.542 104.093 268.749 104.494 267.607 104.811C266.505 105.134 264.934 105.356 264.753 105.383C263.366 105.595 262.719 105.917 261.155 106.033C260.427 106.074 259.529 105.964 258.689 105.76C257.903 105.565 257.094 105.368 255.58 105.112C255.056 105.017 254.576 104.876 254.099 104.714C253.833 104.593 253.565 104.472 253.187 104.379C252.85 104.296 252.312 104.203 251.346 104.003C250.89 103.91 250.126 103.73 249.508 103.585C249.235 103.548 248.967 103.536 248.634 103.527C247.335 103.504 245.717 103.619 245.444 103.826C244.943 103.613 243.598 103.251 243.49 103.155C243.128 103.012 242.623 102.883 241.773 102.707C240.927 102.53 239.664 102.293 237.817 101.899C236.668 101.652 236.166 101.471 235.74 101.311C235.503 101.217 235.389 101.067 235.158 100.884C235.042 100.793 234.897 100.693 234.694 100.593C234.514 100.499 234.193 100.382 233.198 100.174C230.104 99.5224 226.855 99.5962 225.831 99.4576C224.665 99.3048 224.453 98.9467 224.074 98.8852C223.69 98.8201 223.565 99.0988 222.647 98.9379C221.378 98.705 220.057 98.2378 218.414 97.726C217.661 97.4832 216.425 97.1585 215.345 96.8749C214.313 96.603 213.581 96.4133 212.973 96.2836C211.173 95.9041 210.74 96.0449 209.659 96.1724C208.334 96.2554 207.327 96.2019 204.737 96.1135C202.719 95.869 201.779 95.6797 200.805 95.6399C197.865 95.5101 197.247 95.6944 195.028 95.0762C193.773 94.7776 192.55 94.5541 191.37 94.3347C190.193 94.1399 189.073 93.8057 187.531 93.67C186.154 93.5508 185.101 93.5803 184.014 93.4475C183.287 93.3521 183.323 93.3224 183.206 93.2987C183.112 93.2742 183.004 93.2484 182.873 93.2226C182.593 93.1704 182.322 93.1178 181.351 93.0494C180.835 93.0141 180.175 92.9771 178.63 92.912C177.308 92.8563 173.282 92.6949 173.465 92.6926C169.34 92.4552 158.358 91.324 161.274 93.1661C159.775 93.4727 148.48 92.7085 146.203 92.6623C144.164 92.6288 142.53 92.9332 140.894 92.9099C136.012 92.8293 131.984 92.5624 126.318 92.8352C124.8 92.9063 123.152 93.2931 122.232 93.2884C121.131 93.2817 119.934 92.9063 118.486 92.8844C115.044 92.8333 108.464 92.9859 104.969 92.9633C104.325 92.9579 104.097 92.6304 103.183 92.5397C102.727 92.4956 102.276 92.4588 101.818 92.4308C101.594 92.4167 101.36 92.4049 101.133 92.3954C101.019 92.3906 100.907 92.3866 100.797 92.383C100.333 92.3857 99.2465 92.4038 98.6517 92.4153C93.8359 92.5181 93.7883 92.5897 93.0022 92.6874C91.8956 92.8778 91.9218 93.1727 92.0651 93.6806C91.2517 93.4989 91.4581 93.4576 90.9413 93.6548C89.9133 93.9617 89.1168 94.3482 88.3539 94.7593C87.9711 94.9651 87.5902 95.1792 87.2018 95.3868C86.6778 95.6528 87.0258 95.5345 85.2612 96.3122C79.2633 98.8075 78.1024 98.0707 77.5039 98.2935C76.4834 98.4381 75.3332 98.7406 71.4525 99.222C69.6944 99.46 65.2567 99.7442 65.0639 99.8299C64.1212 99.9648 62.9017 100.331 61.2779 100.718C60.8863 100.811 60.4548 100.906 60.0688 100.986C58.5022 101.29 57.6878 101.465 57.0336 101.606C55.7462 101.886 55.0319 102.058 54.4099 102.211C53.2103 102.508 52.5973 102.689 52.1317 102.843C51.0591 103.226 50.8792 103.352 49.7613 103.693C48.7388 104.039 47.1064 104.457 41.7085 105.328C40.1995 105.62 40.0721 105.604 38.0551 105.848C35.3458 106.273 33.5873 106.553 32.1015 106.64C30.9335 106.702 29.8555 106.969 28.236 107.72C25.7955 107.842 21.7046 108.421 17.5486 107.436C15.8782 106.963 15.1035 106.433 14.6364 106.096C14.1744 105.745 14.0809 105.535 13.3046 104.959C12.8502 104.998 12.3378 105.01 11.7496 104.965C11.1102 104.619 10.0334 104.295 9.0933 103.087C9.01094 102.639 9.01834 102.227 9.07712 101.861C8.38652 100.278 8.51245 98.7297 8.2478 97.3127C7.96754 95.8598 7.56322 95.2571 7.24319 94.7958C6.96673 94.4128 6.34341 93.6945 5.6414 92.0775C4.83353 89.9595 4.86923 89.5796 4.65607 88.7509C4.38361 87.508 3.91172 85.2841 3.32738 82.6454C3.13063 81.7338 2.84318 80.5513 2.50255 78.8915C2.13061 77.1979 1.91494 75.1173 1.94359 73.5902C1.96257 72.028 2.0581 70.961 2.06137 70.0411C2.0638 69.8189 2.06401 69.611 2.05896 69.3789C2.04201 68.9563 1.97413 67.7801 1.93429 67.0989C1.84615 65.6006 1.76994 64.4701 1.71112 63.615C1.48005 60.3619 1.46691 59.8465 1.46625 59.0865C1.47154 57.7058 1.12385 57.9887 1.78448 56.4322C1.62719 55.8835 1.44064 55.2608 1.25032 54.5432C0.974967 54.1215 0.697185 53.6577 0.428237 53.1332C0.249679 51.7809 0.207074 50.552 0.356258 49.3077C0.514766 48.0416 0.822779 46.5548 1.77105 44.9717C3.04579 42.7677 5.60598 41.5214 7.50046 40.5971C9.0075 39.779 11.7916 38.2994 13.2385 37.7579C13.7742 37.5178 15.2742 36.8489 16.3756 36.5346C17.5231 36.1836 18.6177 35.9195 19.6839 35.7091C21.0408 35.4744 20.7034 35.4595 22.4938 35.1488C22.8571 35.0881 23.6008 35.0195 23.8157 35.0086C23.9634 34.9972 24.1159 34.9857 24.2751 34.9741C24.5931 34.9511 24.9397 34.9274 25.3086 34.9046C26.7885 34.8133 28.6221 34.7315 30.8338 34.7193C31.8083 34.7117 33.9883 34.7883 34.5743 34.8502C35.456 34.8986 36.3385 34.8457 37.1635 34.6993C38.3673 34.4847 39.1487 34.207 40.0558 33.9785C40.7491 33.7673 41.2479 33.5823 42.6102 33.5535C43.7471 33.5253 45.5551 33.5717 47.9377 33.4822C49.3041 33.46 50.9707 33.3877 52.9438 33.2986C54.8662 33.2117 57.3733 33.1196 59.6699 33.1141C61.8252 33.1078 63.3545 33.1301 64.5063 33.0996C65.8529 33.0659 66.3806 32.8093 67.1224 32.7728C67.5168 32.7438 69.8264 32.672 70.7131 32.5465C71.7491 32.4225 72.3766 32.2712 73.003 32.1094C74.2975 31.7712 75.0113 31.4736 77.2288 30.8634C83.5819 30.4719 82.8435 31.5152 84.3891 32.0099C84.9935 32.1592 85.6656 32.6929 86.8688 32.7025C87.8762 31.7472 88.0297 30.7328 88.3484 30.2325C88.3896 30.1801 88.4333 30.1548 88.4789 30.1488C88.4693 30.1461 88.4593 30.1429 88.4496 30.1381C88.0963 29.92 87.6445 27.362 87.2177 27.1938C86.7999 26.9921 84.1337 26.9356 83.9149 25.1512C83.846 24.5326 83.8447 23.8425 83.9332 23.1561C83.9668 22.8758 83.9335 23.2721 84.0447 22.3654C84.1478 21.5225 84.235 20.7714 84.3044 20.1747C84.4434 18.9727 84.5222 18.3578 84.6006 17.8786C84.9127 16.0894 85.1254 16.0019 85.4158 14.9029C85.5577 14.4049 85.72 13.7772 86.025 13.0287C86.2602 12.3732 87.0687 11.0306 87.1512 10.8628C87.8645 9.61929 88.6455 7.77828 89.9608 5.91725C90.5841 5.04669 91.3151 4.27598 92.0699 3.60978C92.4632 3.26615 92.7558 3.00766 93.2622 2.62997C94.1203 2.05199 94.8968 1.70905 95.6334 1.45006C96.8746 1.34512 97.675 1.52436 98.1527 1.6505C98.7122 1.77291 98.3548 1.97836 98.4719 2.14058C98.5162 1.97383 98.8154 2.40536 99.0609 2.37098C99.2629 2.34216 99.3578 2.0646 99.8991 2.03898C100.293 2.02332 100.403 2.0847 102.535 2.1268C103.154 2.13705 103.727 2.14655 105.842 2.14746C106.4 2.14762 107.111 2.14664 108.238 2.14471C108.886 2.14337 109.588 2.142 110.61 2.13989C111.134 2.13879 111.699 2.13793 112.334 2.13679C113.227 2.13491 112.604 2.13742 112.739 2.13782C112.849 2.144 112.961 2.14974 113.075 2.1547C113.533 2.17452 114.036 2.18323 114.537 2.17088C117.891 2.09149 118.51 1.37891 120.55 1.28544C122.674 1.18886 125.999 1.5732 128.752 1.32229C129.096 1.24388 129.441 1.16541 129.788 1.08706C129.54 0.909892 129.292 0.732799 129.045 0.555655C130.433 0.473087 131.029 0.836242 132.311 0.843227C133.815 0.851695 134.587 0.508139 135.606 0.510539C136.44 0.512822 137.573 0.7899 138.659 0.774003C140.242 0.752298 139.898 0.353386 140.752 0.280136C141.088 0.250958 147.417 0.0448707 147.786 0.0435342ZM154.145 5.99474C153.006 6.00252 152.261 6.4231 149.959 6.51995C142.283 6.83743 132.139 6.3768 125.115 6.59468C121.635 6.7015 116.909 7.2467 113.602 7.37509C113.436 7.38149 113.257 7.38665 113.068 7.39093C112.974 7.39307 112.877 7.39511 112.779 7.39679C112.767 7.39699 112.754 7.39693 112.742 7.39713C112.736 7.39723 112.73 7.39738 112.723 7.39747C112.604 7.39791 112.194 7.39932 111.937 7.40023C110.812 7.40419 109.947 7.40777 109.208 7.41125C107.817 7.41789 107.063 7.42293 106.382 7.42744C104.002 7.44403 103.353 7.45296 102.645 7.4605C101.986 7.46795 101.569 7.4731 101.231 7.47738C99.9497 7.49406 99.688 7.49485 99.4335 7.49735C99.0044 7.50224 99.0882 7.50965 99.0784 7.62753C99.0863 7.77017 99.1417 8.22571 99.1432 8.28327C99.143 8.30839 99.1245 8.2543 99.0998 8.19269C99.0762 8.12957 99.0813 8.06326 98.5336 8.09901C96.8577 8.16827 96.8736 8.2213 95.9668 8.76095C95.2775 9.20727 94.8004 9.58417 93.8091 11.2417C93.4631 11.8158 93.0719 12.563 92.5552 13.4372C92.0583 14.2893 91.2206 15.4311 90.994 16.0147C90.4403 17.6093 90.6345 16.407 90.2584 19.5709C90.2095 20.0229 90.1474 20.6073 90.0624 21.357C90.02 21.7305 89.9725 22.1402 89.9192 22.5827C89.8655 23.0299 89.8068 23.491 89.8045 23.4506C89.7559 23.646 89.7128 23.7971 89.6681 24.0398C89.5788 24.5036 89.5055 25.1638 89.4242 26.0477C89.2847 27.6899 88.988 30.062 88.5416 30.1515C88.9038 30.2358 89.366 31.3512 89.7077 30.8121C89.7489 31.26 89.7825 31.63 89.7779 32.0853C89.7718 32.3205 89.7718 32.5551 89.6805 32.9897C89.6256 33.2156 89.5734 33.4883 89.3023 33.9754C89.1333 34.5634 87.3796 35.6389 87.0865 35.5706C86.9202 35.627 86.4877 35.7526 86.0739 35.8599C85.2289 36.0794 84.2144 36.3018 82.9664 36.4444C80.2814 36.6634 77.8935 36.8333 76.4752 36.8305C75.1889 37.0961 74.3526 37.397 72.1076 37.7297C70.9942 37.8871 69.4675 37.9845 67.806 38.0128C67.0753 38.0277 66.3508 38.0379 65.4989 38.0503C63.7997 38.0765 61.8473 38.0991 59.3559 38.1967C56.5233 38.3077 54.5179 38.5056 52.5189 38.6988C51.7808 38.5311 51.073 38.3614 50.3922 38.1853C50.3922 38.1849 50.3922 38.1844 50.3922 38.1839C48.0279 38.1418 45.2235 38.8472 43.7401 39.005C41.6347 39.2289 40.7864 39.2361 38.6096 39.691C37.5636 39.9107 36.1514 40.2494 34.4944 40.3661C32.6287 40.4628 30.6532 40.5734 29.2616 40.6722C26.2346 40.9377 25.0936 40.7479 22.2235 41.3297C19.8339 41.7067 17.3401 42.2394 14.6946 43.3933C13.3057 43.9007 12.5392 44.3003 10.4568 45.4229C8.59357 46.3461 7.61056 46.8248 7.20841 47.2237C6.80696 47.5668 6.34308 48.3124 6.15731 49.3745C5.96856 50.3838 5.98747 51.4445 6.19726 52.9579C6.39198 54.3604 6.66331 55.6295 6.78514 56.924C6.8769 58.1511 6.8353 58.04 6.88433 58.719C6.95706 59.9426 7.1272 61.1076 7.49598 66.3526C7.70463 69.4304 7.74857 70.095 7.73327 71.7659C7.7165 73.3455 7.70076 75.0904 8.19924 77.2752C8.45326 78.4258 8.69388 79.3856 8.89114 80.194C9.08868 80.9997 9.24206 81.6696 9.47111 82.7147C9.87364 84.5659 10.0818 85.7375 10.1248 86.3684C10.1655 87.0096 9.84672 87.2563 9.96463 87.8655C10.2434 89.0417 10.8259 90.8573 11.4418 91.7496C11.9877 92.7135 12.6989 93.6581 13.2068 96.5553C13.3419 98.2656 13.5846 99.1898 13.6621 99.5489C15.0083 100.221 16.3134 100.611 16.979 100.909C17.8819 101.351 18.1839 101.989 21.2457 102.088C23.9141 102.134 26.1392 102.022 27.5048 101.844C28.9082 101.669 29.925 101.474 30.9798 101.304C31.9902 101.16 32.8856 100.919 34.7372 100.444C35.5339 100.234 37.2582 99.8642 37.8399 99.7627C38.1107 99.7029 38.3766 99.6325 38.8352 99.4982C39.3031 99.3658 39.9453 99.1479 41.3948 98.8232C42.1127 98.6637 43.0567 98.4844 44.079 98.3235C44.5812 98.2418 44.8362 98.1821 45.2352 98.0879C46.6688 97.7374 48.6921 97.1041 50.1087 96.9569C50.1069 96.9406 50.7203 96.8074 51.9134 96.5336C52.7902 96.3369 53.6852 96.1226 56.2284 95.5924C56.573 95.5212 56.935 95.4471 57.4382 95.3465C57.8083 95.2711 59.1075 95.0215 59.0128 95.0386C59.3154 94.9781 59.593 94.9182 59.8845 94.852C60.4613 94.7209 61.026 94.5763 61.5924 94.4328C62.7243 94.1422 63.8803 93.8887 65.0002 93.7736C65.3722 93.7276 66.7729 93.6358 67.7695 93.5432C68.8012 93.4511 69.6828 93.358 70.4207 93.2701C75.8577 92.5605 76.0241 92.2565 78.7417 91.9742C79.4372 91.8486 80.5438 91.6771 83.2192 90.4929C84.0833 90.1048 83.9188 90.1706 84.1622 90.0548C84.3479 89.9643 84.5439 89.8668 84.7539 89.7621C85.1731 89.5534 85.6472 89.3142 86.2065 89.0578C86.7646 88.802 87.4084 88.5324 88.1238 88.287C88.8138 88.044 89.786 87.7945 89.654 87.8252C89.8023 87.7805 90.0198 87.7188 90.3324 87.6502C90.6604 87.5803 91.0406 87.5034 91.8647 87.4081C92.2924 87.3602 92.8074 87.3076 93.8098 87.2418C94.8607 87.1781 96.2369 87.0841 100.69 86.9931C103.084 86.9357 105.397 86.8995 107.679 86.8691C116.862 86.7562 125.06 86.7178 133.876 86.7624C138.519 86.7905 142.646 86.8953 146.945 86.9318C151.466 86.9715 155.895 86.9763 160.278 87.0103C163.666 87.0371 167.483 86.9965 171.235 87.0338C172.178 87.0437 173.116 87.059 174.04 87.0854C173.944 87.0798 175.63 87.1423 176.496 87.1719C177.457 87.2052 178.219 87.2306 178.824 87.2511C180.034 87.2918 180.684 87.315 181.196 87.3372C183.064 87.419 183.391 87.4967 183.93 87.6144C184.387 87.7143 184.317 87.916 185.023 88.058C185.794 88.2408 186.403 88.0427 189.912 88.3511C189.96 88.5202 190.004 88.6892 190.045 88.858C191.338 89.0156 192.581 89.07 193.997 89.2131C195.338 89.3192 197.527 89.7873 197.409 89.6898C197.638 89.7066 198.102 89.7314 199.092 89.7535C200.171 89.7933 201.23 89.7317 204.838 90.0245C210.971 90.7616 210.129 90.8738 211.43 91.0333C212.366 91.2114 211.92 91.4336 212.985 91.6349C213.466 91.7282 214.136 91.8398 215.175 92.0275C216.113 92.1957 218.166 92.5847 219.259 92.7945C221.669 93.273 223.148 93.5406 223.946 93.6538C224.626 93.7904 227.546 94.2415 231.095 94.668C231.834 94.7569 232.678 94.8676 233.779 95.05C234.259 95.1264 235.345 95.3354 235.469 95.3568C235.763 95.4126 236.043 95.4716 236.315 95.5325C237.517 95.8048 237.802 95.911 239.262 96.1669C243.271 96.9066 243.955 96.9066 245.026 97.0709C246.462 97.3461 248.621 97.2573 251.18 97.925C254.719 98.9087 254.432 98.8168 256.51 99.1879C257.45 99.3256 259.614 99.8937 260.273 100.235C261.1 100.593 261.576 100.711 261.742 100.701C263.584 100.596 264.007 100.147 264.824 99.9818C267.075 99.4815 266.767 99.3921 270.968 97.7907C272.103 97.3678 272.541 97.2112 272.709 97.1233C272.859 97.0142 272.589 97.4038 272.936 96.8591C273.421 95.9707 273.661 95.8437 273.735 94.1814C273.938 85.2249 276.912 78.6563 277.822 73.0364C277.939 72.5069 278.073 71.915 278.209 70.9114C278.276 70.4038 278.342 69.7865 278.391 68.9618C278.442 68.1696 278.453 66.9292 278.455 66.6075C278.472 64.6596 278.485 62.7548 278.49 60.8705C278.494 58.9893 278.494 57.1212 278.459 55.3381C278.455 55.1168 278.45 54.904 278.444 54.6803C278.437 54.4539 278.378 52.4067 278.374 52.0701C278.363 51.5045 278.354 51.2125 278.348 51.0538C277.554 49.5727 277.41 49.5793 274.334 48.2242C273.95 48.0669 273.013 47.7265 273.02 47.7355C272.894 47.6948 272.685 47.6351 272.452 47.5788C271.982 47.4646 271.387 47.3502 270.7 47.2464C269.389 47.0281 267.149 46.9043 266.984 46.8614C266.403 46.7877 265.582 46.6796 263.887 46.3293C262.702 46.1539 256.891 44.4793 256.5 44.2323C255.172 43.7269 253.97 43.2058 252.825 42.7948C252.244 42.5855 251.709 42.4081 251.124 42.2358C248.828 41.6166 248.482 41.5283 247.761 41.3355C247.134 41.1682 246.671 41.0441 246.283 40.9391C243.944 40.3035 244.748 40.0846 243.658 39.826C242.672 39.5954 242.48 39.8351 242.291 39.814C241.938 39.7791 242.14 39.8311 241.307 39.7961C240.852 39.7747 240.34 39.7794 238.46 39.6091C237.97 39.5628 237.372 39.5014 236.543 39.399C236.123 39.347 235.651 39.2853 235.094 39.2068C234.633 39.1437 233.475 38.9645 233.591 38.9843C233.142 38.9218 232.675 38.857 232.178 38.7853C231.187 38.6421 230.07 38.47 228.849 38.2339C228.239 38.116 227.612 37.9842 226.964 37.8358C226.803 37.8 225.763 37.5542 225.14 37.4028C224.495 37.2466 224.016 37.1278 223.603 37.0244C220.559 36.2551 220.199 36.1203 219.726 35.9392C219.519 35.8648 219.801 35.8288 219.26 35.6271C218.79 35.4397 218.388 35.27 218.024 35.1894C217.658 35.1089 216.764 35.1254 215.779 34.9304C214.693 34.716 213.851 34.5811 213.107 34.5047C212.735 34.4662 212.386 34.4408 212.047 34.4248C211.873 34.4167 211.723 34.4121 211.556 34.4083C211.416 34.4049 211.18 34.4028 210.185 34.3852C207.367 34.3374 206.634 34.3153 205.704 34.2771C204.856 34.2401 204.297 34.198 203.816 34.1376C202.813 34.0239 202.117 33.6837 200.397 33.4585C199.565 33.3369 198.585 33.2202 197.336 33.0769C196.733 33.0019 195.892 32.9344 195.323 32.822C194.631 32.6981 193.786 31.8242 193.628 31.5191C192.868 30.1615 192.843 29.4952 192.472 27.0409C192.387 26.4085 192.299 25.6972 192.178 24.5609C192.117 23.9903 192.05 23.343 191.946 22.2355C191.9 21.7545 191.782 20.4457 191.737 19.9315C191.705 19.5627 191.675 19.2299 191.647 18.9324C191.429 16.5876 191.304 16.4403 191.24 16.2354C191.201 16.144 191.222 16.1903 191.182 16.1218C191.02 15.8687 190.709 15.3501 190.476 14.9412C189.983 14.0829 189.476 13.139 188.819 12.0999C187.888 10.6451 187.183 9.45443 186.821 9.05506C186.714 8.92674 186.629 8.84708 186.581 8.80572C186.537 8.79433 186.368 8.72669 186.123 8.62698C185.429 8.34903 184.858 8.01954 183.378 7.56761C182.3 7.26489 182.693 7.3912 182.589 7.36372C182.558 7.35913 182.531 7.35566 182.507 7.3527C182.406 7.34207 182.358 7.32984 181.918 7.27831C181.685 7.25256 181.373 7.21777 180.615 7.16604C180.226 7.14009 179.737 7.10991 178.853 7.0703C177.862 7.03005 177.091 6.98393 173.108 6.90051C172.048 6.87936 170.68 6.85503 168.669 6.82887C168.188 6.82262 167.623 6.8158 167.069 6.80959C167.016 6.80884 166.995 6.80844 166.958 6.80786C166.89 6.80676 166.821 6.80553 166.752 6.80442C166.475 6.79997 166.194 6.79556 165.909 6.79099C165.342 6.78187 164.808 6.77293 164.24 6.76344C163.157 6.74493 162.052 6.72534 160.969 6.7042C157.214 6.63105 154.666 5.99095 154.145 5.99474ZM190.091 93.5198C190.727 93.5468 191.379 93.5696 192.049 93.599C191.703 93.4103 191.361 93.2234 191.026 93.037C190.704 92.9842 190.386 92.9317 190.074 92.8782C190.079 93.092 190.085 93.3059 190.091 93.5198ZM278.336 50.8316C278.323 50.8082 278.326 50.819 278.337 50.8513C278.336 50.8446 278.336 50.8384 278.336 50.8316ZM197.935 27.5644C198.015 28.0021 198.083 28.2767 198.15 28.4692C198.26 28.7854 198.385 28.8195 198.393 28.5336C198.468 28.4399 198.254 28.007 197.935 27.5644ZM197.08 26.6679C196.913 26.6 196.158 26.5399 196.7 26.6118C196.83 26.6326 196.963 26.6557 197.098 26.6803C197.092 26.6763 197.086 26.6719 197.08 26.6679ZM194.523 10.7695C194.07 10.7101 194.689 11.8877 195.176 12.5207C195.675 13.1715 196.141 13.427 195.973 12.7794C195.93 12.5564 194.798 10.8661 194.523 10.7695Z" fill="#31260C"/>
<path d="M87.9721 24.8194C87.7867 26.4536 88.0714 28.0588 88.0714 31.5679C88.0714 32.1425 88.2346 33.6916 87.9721 33.7295C86.5121 34.0669 84.9391 34.5482 82.7731 34.7716C80.0196 35.1425 78.1082 35.5261 76.6315 35.8518L76.4997 35.8809C74.3897 36.3466 73.1791 36.6139 69.633 36.6695C67.285 36.7064 63.1563 36.7064 59.6107 36.8963C56.0651 37.0862 53.1898 37.4548 50.3088 37.6392C47.4279 37.8235 44.6247 37.7785 42.9216 37.8615C40.6272 37.9732 39.1467 38.535 36.6214 38.6065C32.7161 38.7171 29.0709 38.9672 26.8448 39.0902C25.511 39.164 24.7116 39.4238 23.908 39.5371C22.3072 39.7627 19.8417 40.2797 18.1763 40.9904C16.8649 41.55 15.1844 42.0484 13.6645 42.9307C10.9086 44.5304 8.91315 44.8691 7.63786 47.0259C6.82016 48.4088 6.64618 50.1778 6.71181 51.4975C6.82463 53.7663 7.46723 55.8262 7.60547 57.5677C7.79425 59.9459 8.14496 61.7466 8.57397 68.4479C8.7594 71.3445 8.25876 73.0623 9.05877 76.6696C9.42964 78.3418 9.74423 79.4791 10.0641 80.7994C10.6271 83.1229 11.3221 86.117 11.7018 87.8369C12.0391 89.3651 12.7034 90.3946 13.1551 91.2596C13.603 92.1175 14.0603 93.2784 14.271 94.8756C14.4967 96.5858 14.2731 98.4138 15.3166 99.0043C16.4359 99.6377 17.496 100.029 18.4075 100.419C19.7156 100.978 21.0175 101.871 24.1616 101.87C29.7648 101.867 31.0852 101.453 34.4598 100.937C36.1768 100.674 38.0663 100.042 40.7154 99.5964C42.276 99.3338 43.1347 98.8488 46.9364 98.2927C48.9829 97.9933 50.7245 97.305 52.6659 97.1019C53.3707 97.0282 56.7543 96.2148 61.4661 95.3492C64.0991 94.8655 65.4032 94.3154 67.6882 94.1595C73.7148 93.7485 75.7574 93.3069 78.4735 92.8559C80.2564 92.5599 81.6327 92.89 86.407 90.7681C88.0759 90.0264 89.3659 89.2562 91.6617 88.6837C92.5665 88.458 93.8936 88.1631 101.887 88.0156C109.881 87.8682 124.11 87.8682 131.491 87.9062C138.871 87.9442 139.387 88.0179 146.482 88.0927C153.576 88.1676 166.851 88.1048 173.635 88.3541C180.717 88.6144 181.791 88.5918 183.181 88.8378C184.443 89.0612 186.516 88.8524 188.767 89.2846C190.699 89.6555 193.225 89.9913 195.468 90.5514C196.657 90.8485 200.001 90.647 204.154 91.072C206.338 91.2954 207.675 91.6874 208.983 91.8159C210.507 91.9656 212.732 92.4734 215.948 93.1575C218.411 93.6814 220.457 94.277 222.127 94.4969C223.84 94.7225 227.908 94.8058 232.892 95.8016C234.189 96.0608 235.065 96.3759 236.282 96.6216C239.403 97.2516 241.051 97.4982 242.382 97.7744C244.171 98.1452 246.46 98.1846 248.116 98.668C249.908 99.1908 251.379 99.5311 252.284 99.7103C253.407 99.9326 254.924 100.064 256.232 100.417C257.2 100.679 258.229 101.065 259.476 101.013C262.2 100.898 264.313 100.558 265.84 99.9304C267.107 99.4098 268.085 98.97 269.973 98.2547L270.047 98.2267C271.098 97.8289 272.071 97.4604 272.614 96.578C273.21 95.6073 273.815 94.4384 273.915 92.9598C274.104 90.1649 274.186 87.8975 274.623 86.1501C274.922 84.9593 274.828 83.9974 275.331 82.7241C275.891 81.3088 276.398 79.8058 276.671 78.4803C276.932 77.2113 277.221 75.6969 277.602 74.0478C277.973 72.4437 278.559 70.6743 278.607 66.6204C278.644 63.4714 278.71 57.5717 278.606 54.5102C278.494 51.226 278.572 50.7217 278.344 50.3313C277.821 49.4365 277.303 48.2723 275.846 47.4649C274.841 46.9075 273.576 46.269 271.414 45.529C269.997 45.0442 267.319 44.686 265.085 44.5628C264.417 44.5259 261.087 44.1074 256.694 42.771C254.135 41.9924 252.437 41.1182 249.603 40.3838C244.577 39.0813 241.096 38.3338 240.66 38.2323C239.537 37.9709 237.845 38.1173 232.267 37.2627C230.08 36.9276 228.183 36.6659 225.556 36.0674C221.8 35.2118 219.442 34.5866 218.495 34.3952C214.81 33.6501 212.905 33.0372 209.954 32.9821L209.738 32.9781C205.907 32.9065 203.176 32.8555 202.416 32.6458C200.663 32.1622 197.841 31.9467 195.081 31.6416C194.414 31.5679 193.936 27.4673 193.424 21.8089C193.162 18.9201 193.035 17.7933 192.491 16.9485C191.746 15.7923 191.055 14.4201 190.069 12.9248C188.913 11.1721 188.008 9.41978 186.793 8.98267C185.861 8.64755 184.687 7.98647 182.613 7.49138L182.59 7.48598C181.8 7.29702 180.583 7.00629 166.756 6.86023C152.796 6.71278 126.77 6.71278 113.606 6.75076C100.441 6.78874 100.147 6.86902 99.8465 6.89933C98.7295 7.01215 97.3726 6.94307 95.8988 7.83208C94.784 8.50456 93.879 9.23808 93.0704 10.3678C91.9511 11.9317 91.2705 13.5427 90.3894 14.7981C89.4221 16.1766 88.946 17.2078 88.6792 18.3728C88.3809 19.6753 88.4517 20.5923 87.9721 24.8194Z" fill="#F0BE39"/>
<path d="M147.995 4.16017C150.64 4.15744 150.881 4.52245 153.003 4.56243C155.955 4.61759 158.972 4.5808 161.969 4.52592C163.466 4.49851 164.954 4.46667 166.449 4.44017C179.975 4.55838 178.999 4.65095 180.441 4.67918C182.1 4.74315 182.362 4.83772 182.739 4.96296C182.062 5.78088 182.91 6.68954 182.879 5.19509C182.941 5.2617 182.992 5.2885 183.037 5.29221C183.06 5.2942 183.08 5.28983 183.1 5.28257C183.216 5.29985 182.719 5.15735 183.589 5.36074C185.938 5.9379 186.767 6.35383 187.338 6.60265C187.416 6.65467 188.599 7.17337 189.171 7.83559C189.818 8.50791 190.312 9.25744 191.171 10.6108C192.957 13.2965 193.999 15.0367 194.584 15.8804C195.243 16.9382 195.344 18.4913 194.96 19.7835C195.059 20.4185 195.464 24.8127 195.58 25.6744C195.728 26.9447 195.823 27.6267 195.91 28.2192C195.976 28.6593 196.034 29.0104 196.087 29.294C197.802 29.5468 200.696 30.2751 201.584 30.5332C201.722 30.5676 201.974 30.6257 202.296 30.7116C202.652 30.804 202.98 30.9145 202.937 30.9151C203.029 30.9674 203.571 31.0785 204.886 31.1645C205.572 31.2093 206.379 31.2508 207.977 31.2995C210.327 31.361 210.575 31.3803 211.143 31.4327C212.2 31.5311 213.106 31.6981 213.514 31.7716C214.325 31.9148 215.514 32.1801 216.8 32.4587C217.442 32.5971 218.094 32.7314 218.706 32.8458C219.022 32.8997 219.049 32.893 219.209 32.9081C219.554 32.9355 219.964 32.7641 220.648 32.8162C220.999 32.8445 221.41 32.9272 222.081 33.1575C222.789 33.3952 223.552 33.7416 225.976 34.5805C228.08 35.0072 229.265 35.1733 230.361 35.3627C230.906 35.455 231.418 35.5456 231.962 35.6482C231.71 35.6377 235.998 36.285 237.014 36.3907C237.959 36.506 237.924 36.6637 238.295 36.6952C239.025 36.7545 239.713 36.676 240.186 36.7165C241 36.7938 240.991 37.1894 241.088 36.6604C241.286 36.6141 241.735 36.6211 242.659 36.7403C242.957 36.9131 243.316 37.1007 243.785 37.3151C244.609 37.3943 245.4 37.4607 247.567 37.8833C246.929 37.9231 247.109 38.0835 248.534 38.5036C248.728 38.5603 248.939 38.6205 249.285 38.715C249.58 38.7962 250.106 38.9372 250.059 38.9293C250.174 38.9674 250.299 39.0055 250.432 39.0436C250.698 39.1201 250.984 39.1939 251.261 39.2592C252.369 39.5219 253.347 39.6468 252.528 39.1266C253.946 39.6952 255.15 40.274 256.283 40.738C256.569 40.8557 256.839 40.9641 257.125 41.0728C258.241 41.4375 259.502 41.787 260.091 41.949C261.402 42.3069 262.125 42.4848 262.751 42.6422C262.509 43.043 263.884 43.3135 264.47 43.2384C265.126 43.1772 265.186 42.8557 265.187 42.6205C265.512 42.6384 266.088 42.6794 266.479 42.7149C268.269 42.9919 269.577 43.1995 270.824 43.4829C271.618 43.5906 274.869 44.8588 275.75 45.4377C276.414 45.8298 276.122 45.6784 277.062 46.2887C277.793 46.8185 278.061 47.19 278.261 47.471C278.628 48.0275 278.644 48.285 278.747 48.8225C279.178 49.5076 279.358 49.7412 279.501 50.0399C279.915 50.3745 280.034 50.695 280.048 51.4767C280.057 51.8697 280.034 52.6478 280.052 54.4847C280.018 54.7649 279.969 55.0534 279.918 55.3619C279.709 56.5917 279.465 58.1644 279.865 61.7536C279.689 62.3267 279.576 63.1087 279.508 64.027C279.473 64.4843 279.45 64.9775 279.435 65.4934C279.416 66.0765 279.435 66.2306 279.396 67.7127C279.185 72.3626 278.787 73.1025 278.734 74.0145C278.7 74.267 278.913 73.9308 278.774 74.7298C278.451 76.6028 277.753 79.3523 278.139 79.4787C277.715 80.668 277.177 81.8646 276.533 83.1614C276.252 84.0416 276.333 84.8718 276.203 86.0079C276.337 86.0276 276.471 86.0472 276.605 86.0664C276.106 87.2447 275.979 87.4695 275.821 88.6687C275.68 89.7449 275.614 91.1809 275.484 92.3424C275.414 92.7778 275.319 93.0111 274.982 94.3165C274.492 95.8395 273.86 97.7673 272.058 98.6621C271.567 99.1698 271.03 99.5805 270.511 99.999C267.411 101.319 267.14 100.915 266.111 101.271C266.012 101.305 265.188 101.634 263.99 101.885C262.831 102.143 261.105 102.304 260.902 102.322C259.339 102.483 258.612 102.628 257.557 102.521C256.436 102.407 255.503 102.073 252.562 101.636C251.369 101.412 251.369 101.227 250.385 100.992C248.136 100.29 243.315 99.9642 242.59 100.203C241.791 99.9602 241.723 99.8567 241.258 99.7263C240.817 99.597 240.216 99.4692 239.156 99.2637C238.624 99.1605 237.966 99.0347 237.135 98.8701C236.743 98.7924 236.167 98.6767 235.832 98.607C235.622 98.5626 235.401 98.5115 235.203 98.4627C234.401 98.2624 233.787 98.0718 233.414 97.9495C232.919 97.8043 233.219 97.5143 230.061 96.9466C227.653 96.5217 224.669 96.5124 223.78 96.4073C222.745 96.2869 222.563 96.0413 222.225 95.9889C221.996 95.9489 221.466 96.0681 220.676 95.911C219.432 95.6637 218.067 95.2259 216.304 94.7532C214.113 94.203 212.117 93.6982 211.177 93.5137C208.154 93.006 208.877 93.4482 202.334 93.0236C200.852 92.8878 199.971 92.7515 199.139 92.725C197.88 92.6879 197.028 92.6686 196.315 92.6141C195.57 92.5645 195.246 92.4637 193.796 92.1406C191.18 91.6451 189.669 91.1889 186.345 90.8845C185.023 90.8043 184.066 90.8303 183.076 90.6806C182.456 90.5677 182.561 90.5695 182.204 90.514C181.878 90.4666 181.572 90.421 180.434 90.3576C179.827 90.3245 179.033 90.2893 177.144 90.2178C176.235 90.1831 174.805 90.1298 173.551 90.08C173.283 90.0667 172.994 90.0536 172.727 90.0418C168.688 89.8471 158.034 89.0828 160.866 90.3142C159.412 90.5153 148.433 89.9988 146.253 89.9578C144.275 89.9292 142.696 90.1253 141.111 90.1021C136.376 90.0224 132.451 89.836 126.957 90.0142C125.485 90.0607 123.885 90.3182 122.994 90.3149C121.926 90.3103 120.764 90.06 119.359 90.0459C116.02 90.0125 109.642 90.1217 106.246 90.1172C105.629 90.1154 105.408 89.8976 104.515 89.8403C103.558 89.7861 103.103 89.7425 101.621 89.7456C98.3156 89.7992 97.1525 89.8519 96.2262 89.8958C95.3563 89.9397 94.8963 89.9798 94.5376 90.0218C93.2507 90.1856 93.2564 90.3938 93.3876 90.7268C92.4853 90.6423 92.4438 90.6736 92.2074 90.7716C90.4131 91.2349 88.8815 92.1842 87.2353 92.9272C81.122 95.578 79.9109 94.873 79.1202 95.1C78.2424 95.2135 77.0485 95.5 73.7084 95.9251C72.8354 96.0323 71.7471 96.1492 70.4159 96.2644C69.7524 96.3219 69.0278 96.3792 68.2689 96.4338C67.3305 96.4992 67.5618 96.4867 67.2178 96.5234C66.2076 96.6363 65.1163 96.9309 63.6488 97.2859C63.2881 97.372 62.9187 97.4564 62.5412 97.5366C62.3497 97.5773 62.1607 97.6159 61.9785 97.652C62.0039 97.6485 61.3728 97.7656 61.07 97.8242C60.7517 97.8853 60.4863 97.9373 60.2379 97.9864C58.4337 98.3456 57.6962 98.5134 56.9641 98.6769C55.5986 98.9861 54.9324 99.1601 54.4234 99.303C53.1643 99.6598 53.4753 99.7005 52.2375 99.9618C51.7082 100.089 51.0958 100.258 50.0954 100.506C49.5934 100.628 48.9885 100.772 48.2222 100.904C47.6667 101.007 45.6543 101.251 44.5757 101.469C42.7024 101.833 42.1666 101.963 41.1755 102.056C38.373 102.453 36.5859 102.848 35.1171 103.008C33.8128 103.131 32.9207 103.326 31.5454 103.885C30.5188 103.99 29.1959 104.111 27.6155 104.158C26.0308 104.18 24.3841 104.312 22.1647 104.033C18.3753 103.33 18.2815 102.537 17.4182 101.954C17.0635 101.962 16.6677 101.957 16.2172 101.92C15.6629 101.686 15.0171 101.402 14.2552 100.979C14.1298 100.759 13.8733 100.415 13.7486 100.088C12.5782 98.8078 12.6411 97.4999 12.4685 95.9524C12.3353 94.401 11.8756 93.2827 11.5548 92.7278C11.2428 92.1649 10.8771 91.7964 10.2509 90.5849C9.95743 90.0103 9.62562 89.192 9.42192 88.3177C9.33075 87.9744 9.24153 87.6159 9.16086 87.2573C8.88407 86.0332 8.49658 84.2619 7.81357 81.3288C7.61789 80.4611 7.3435 79.3966 7.00286 77.8628C6.64001 76.3363 6.36732 74.3567 6.37674 72.8949C6.37287 71.3936 6.46689 70.3103 6.46078 69.3813C6.46075 69.1473 6.45809 68.9372 6.45079 68.7104C6.45561 68.6739 6.3668 67.2395 6.32715 66.6217C6.2323 65.1439 6.14879 64.033 6.08332 63.1949C5.82616 60.0166 5.7929 59.5584 5.7706 58.8317C5.73456 57.5552 5.51744 57.6811 5.85601 56.1482C5.71149 55.5871 5.5408 54.9607 5.37351 54.2467C5.16463 53.8173 4.95655 53.3496 4.76186 52.8257C4.60307 51.4093 4.60664 50.5725 4.78218 49.3453C4.87416 48.7494 5.0169 48.1193 5.26055 47.4483C5.48541 46.7969 5.95218 45.9593 6.21729 45.6109C7.49603 43.7336 9.73975 42.8753 11.6612 41.9052C13.2461 40.9764 15.7369 39.8986 17.0731 39.3753C18.8444 38.5442 21.3378 37.9259 23.265 37.5964C24.1634 37.4758 24.3527 37.2934 26.2179 37.0785C27.6361 36.9682 27.6601 36.9743 28.5247 36.92C30.017 36.8313 31.8437 36.7439 34.0712 36.7089C36.7648 36.6826 38.5825 36.8269 40.2001 36.5112C41.3497 36.3161 42.1745 36.1194 42.8857 35.9726C43.4097 35.8337 43.9971 35.7035 45.332 35.6792C46.3997 35.6577 48.543 35.6654 50.5396 35.57C51.8988 35.5243 53.5381 35.4262 55.4601 35.3179C57.3196 35.2115 59.8123 35.1047 61.964 35.0872C64.0119 35.0672 65.4876 35.0778 66.5941 35.0538C67.8892 35.0272 68.3993 34.8549 69.1151 34.8278C69.4016 34.8141 70.085 34.7994 70.8423 34.7638C71.5673 34.7296 72.1935 34.6813 72.7124 34.6233C73.7495 34.5064 74.3988 34.3615 75.0216 34.2141C76.3071 33.9055 76.9828 33.6566 79.1161 33.1406C85.1057 32.618 84.5552 33.3428 85.9645 33.587C86.4964 33.6734 87.2952 33.8694 88.169 33.9679C89.0775 33.135 89.0122 32.1583 89.2459 31.6597C89.2765 31.5999 89.3097 31.5735 89.3447 31.5722C89.3343 31.5702 89.3237 31.5656 89.3131 31.5581C89.081 31.3473 88.7605 28.8883 88.4707 28.7251C88.1903 28.5317 86.405 28.4265 86.2403 26.7458C86.1896 26.1644 86.1903 25.5335 86.2686 24.9109C86.2575 25.0594 86.5383 22.7292 86.6357 21.8082C86.7496 20.7713 86.8125 20.2452 86.8764 19.8275C87.1236 18.3159 87.3333 17.9699 87.6475 16.9883C87.8075 16.5167 88.014 15.9243 88.368 15.2188C88.7246 14.4959 89.2401 13.731 89.4147 13.4028C90.1861 12.0676 91.1452 10.022 92.383 8.57192C93.0005 7.84325 93.6965 7.23255 94.3998 6.70218C94.8562 6.27249 96.738 5.28496 97.7829 5.0928C98.7064 5.0739 99.3794 5.18209 99.6822 5.26018C99.706 5.37343 99.7336 5.4864 99.7728 5.59804C99.8309 5.4838 100.091 5.76833 100.368 5.74199C100.591 5.72036 100.7 5.53326 101.338 5.51159C101.889 5.49788 101.615 5.53771 105.053 5.55154C105.57 5.55293 106.172 5.55372 107.395 5.55189C108.058 5.55075 108.802 5.54935 110.208 5.54603C110.981 5.54412 111.851 5.54226 113.056 5.53983C113.836 5.53812 113.568 5.53939 113.629 5.53983C113.641 5.54042 113.654 5.54098 113.667 5.54155C113.874 5.55084 114.091 5.55922 114.316 5.56566C114.773 5.57853 115.239 5.58387 115.738 5.5753C119.001 5.52041 119.602 5.0456 121.576 4.9826C123.634 4.91752 126.862 5.17294 129.533 5.00567C129.867 4.9534 130.202 4.90119 130.539 4.84897C130.298 4.73084 130.057 4.61268 129.817 4.49458C131.167 4.43955 131.744 4.68159 132.985 4.68641C134.446 4.69227 135.193 4.46347 136.183 4.46531C136.99 4.46704 138.09 4.65217 139.143 4.64198C140.679 4.62814 140.345 4.36189 141.173 4.31343C141.498 4.29397 147.635 4.16053 147.995 4.16017ZM154.169 8.13419C153.065 8.13801 152.343 8.41726 150.109 8.47962C142.659 8.6838 132.825 8.3745 126.001 8.52095C122.638 8.59258 118.023 8.95765 114.831 9.04546C114.502 9.05424 114.124 9.06003 113.722 9.06372C104.283 9.0963 104.108 9.11947 102.977 9.12812C101.245 9.14822 101.016 9.15262 100.69 9.15774C100.164 9.16747 100.217 9.17552 100.189 9.2552C100.178 9.35157 100.205 9.65622 100.201 9.695C100.178 9.73088 100.234 9.54239 100.048 9.55104C98.3511 9.65575 97.8027 9.62818 96.7889 10.285C95.9174 10.8407 95.4143 11.1378 94.3588 12.8159C93.6992 13.9468 92.5198 15.7752 91.4624 17.5855C90.7074 19.4236 90.9511 18.5332 90.6238 21.1993C90.5468 21.9313 90.4112 23.2881 90.1882 25.0724C90.1436 25.2965 90.1103 25.4596 90.0766 25.7078C90.0098 26.1837 89.9681 26.8193 89.9268 27.6585C89.8603 29.2577 89.6615 31.6212 89.3475 31.5722C89.5932 31.5722 89.9332 32.7811 90.162 32.2441C90.1956 32.6697 90.2208 33.0079 90.2102 33.4034C90.2008 33.6075 90.2 33.8036 90.1048 34.1717C90.0316 34.3785 90.0637 34.5217 89.6347 35.0785C89.1732 35.7143 88.1487 35.8605 88.3308 35.8307C88.1041 35.8956 87.6734 36.0121 87.2718 36.1128C86.4502 36.3183 85.4957 36.5276 84.331 36.6704C81.8205 36.8953 79.3837 37.1439 78.0275 37.2231C76.7569 37.4768 75.9387 37.7529 73.8695 38.0531C72.8407 38.1961 71.4162 38.2896 69.8215 38.3176C68.9485 38.334 68.3771 38.3402 67.5316 38.3514C65.8929 38.374 64.0042 38.3934 61.6014 38.4798C58.9221 38.5742 56.8074 38.7629 54.877 38.9427C54.1631 38.8496 53.4791 38.7551 52.823 38.6548L52.8227 38.6537C50.4843 38.6924 47.9714 39.193 46.4296 39.3074C44.3246 39.4763 43.4691 39.4429 41.2994 39.8219C40.2816 40.0052 38.9969 40.3078 37.5018 40.4333C36.8226 40.4958 35.6809 40.5204 34.7969 40.5689C33.896 40.6138 33.0998 40.6596 32.3713 40.7036C30.9122 40.7921 29.71 40.8745 28.6776 40.9426C28.1621 40.9767 27.6939 41.0071 27.2673 41.0332C27.0272 41.0358 25.7924 41.1589 25.3025 41.2781C23.1639 41.657 20.2343 42.1196 17.8483 43.206C16.5106 43.7089 15.6224 43.9856 13.7651 45.0516C11.9507 45.9796 10.6249 46.526 10.0391 47.0323C9.45285 47.5002 8.94615 48.1897 8.68043 49.3525C8.43691 50.4758 8.42741 51.3839 8.63634 52.9601C8.83118 54.3727 9.11681 55.6082 9.25282 56.7977C9.33294 57.5168 9.31629 57.6251 9.33444 57.8715C9.34816 58.1046 9.36507 58.3513 9.38713 58.6285C9.47177 59.8112 9.64928 60.8726 10.026 66.0073C10.243 69.0888 10.2566 69.4082 10.2368 71.0837C10.2087 72.6023 10.2139 74.4171 10.7651 76.6419C11.7176 80.4914 12.6136 84.2382 12.7285 85.3466C12.7968 85.9426 12.596 86.1541 12.713 86.7201C12.8586 87.2625 13.0438 88.1665 13.3735 88.8622C13.6822 89.5421 13.9976 90.0294 14.27 90.5043C14.7448 91.3408 15.5654 92.8397 15.7985 95.6379C15.8871 96.8204 15.9785 97.4627 16.0884 97.674C16.2422 97.8845 15.8686 97.553 16.8509 98.0521C18.3317 98.7041 19.3038 99.0106 20.0886 99.3595C20.5206 99.5796 20.9847 99.8205 21.7972 100.03C22.5279 100.255 24.229 100.323 25.401 100.309C27.9225 100.309 29.7863 100.149 31.0202 99.9729C33.6538 99.5676 34.4039 99.5244 38.3187 98.5443C40.9725 97.9646 40.8047 98.0705 41.991 97.7284C42.7573 97.4121 47.5426 96.6646 48.3834 96.3956C49.1499 96.2044 49.9323 95.9814 50.7497 95.7967C51.5002 95.6115 52.7435 95.4656 52.5675 95.4764C52.7787 95.4316 53.4381 95.2871 54.7771 94.9956C55.8418 94.7707 56.3989 94.6215 60.115 93.9015C61.771 93.5894 61.4143 93.6572 61.8156 93.5753C62.105 93.515 62.391 93.4516 62.6728 93.3862C63.2374 93.2555 63.7868 93.1163 64.33 92.9881C65.4158 92.7279 66.4749 92.5435 67.492 92.4677C69.5943 92.3221 71.6718 92.1262 72.9324 91.969C77.8461 91.3087 77.8204 91.1289 80.8044 90.7843C81.5295 90.6755 83.4609 90.1481 85.7647 89.0933C86.4722 88.7745 87.2807 88.3477 88.3935 87.8724C89.3349 87.4282 91.6797 86.7961 91.335 86.8902C91.4874 86.8485 91.6858 86.7966 91.989 86.7363C92.3042 86.6756 92.6669 86.6076 93.5343 86.5189C93.9889 86.4742 94.5378 86.4238 95.6951 86.3591C96.2875 86.3268 97.0431 86.2896 98.3146 86.2472C99.2706 86.2113 101.859 86.158 102.133 86.1522C104.458 86.1031 106.682 86.0728 108.895 86.0478C117.784 85.9555 125.732 85.9289 134.278 85.9758C138.766 86.0044 142.792 86.1046 146.945 86.1394C151.349 86.1778 155.638 86.1807 159.889 86.2093C163.175 86.2316 166.87 86.2104 170.506 86.2541C171.411 86.2653 172.325 86.2814 173.212 86.3061C173.569 86.3171 173.072 86.2981 174.533 86.3502C175.614 86.3882 176.534 86.4191 177.266 86.4435C178.735 86.4924 179.517 86.5189 180.109 86.542C182.234 86.626 182.431 86.6856 182.965 86.7796C183.837 86.9718 182.959 87.2089 188.13 87.3083C188.176 87.4203 188.227 87.533 188.274 87.6458C189.053 87.7423 189.324 87.7964 189.624 87.8273C189.927 87.8628 190.231 87.8953 190.538 87.9268C191.152 87.9901 191.773 88.0496 192.436 88.1256C193.1 88.202 193.805 88.2928 194.617 88.4348C195.019 88.5053 195.473 88.5946 195.931 88.6997C196.004 88.7071 196.025 88.7032 196.137 88.7155C196.656 88.7886 197.287 88.7123 202.265 88.9621C202.828 88.9935 204.302 89.1222 204.674 89.1691C205.233 89.2325 205.704 89.3009 206.122 89.3681C206.954 89.5032 207.535 89.6217 207.977 89.7026C208.863 89.8701 209.18 89.8857 209.601 89.9509C210.418 90.0824 210.043 90.2235 210.965 90.3821C211.809 90.5292 213.222 90.7545 216.682 91.4277C219.25 91.9309 220.809 92.2756 221.779 92.4374C222.79 92.6082 222.923 92.6474 224.123 92.8001C225.202 92.9359 226.811 93.1158 228.18 93.2598C229.37 93.3857 231.029 93.5706 233.369 94.0196C234.46 94.2221 235.413 94.4967 236.206 94.654C236.424 94.6986 237.619 94.9212 238.389 95.0562C239.182 95.1956 239.775 95.2913 240.263 95.3676C241.232 95.5183 241.823 95.5997 242.333 95.6768C243.084 95.8526 245.674 96.0053 247.697 96.3601C248.663 96.5294 250.548 97.1187 251.273 97.2693C252.177 97.4797 252.37 97.5382 253.222 97.6929C254.104 97.8542 255.426 98.0589 256.79 98.4947C257.703 98.8253 258.336 99.059 258.602 99.0878C259.442 99.2136 260.589 98.8038 261.502 98.691C262.773 98.5151 263.76 98.2952 264.473 98.069C265.053 97.8942 265.93 97.5029 267.507 96.8957C268.277 96.594 269.463 96.175 269.978 95.9775C270.57 95.7482 270.75 95.5952 270.815 95.5329C271.135 95.0941 271.735 94.0452 271.848 93.213C272.043 91.112 272.134 88.6344 272.372 87.1647C272.479 86.3681 272.684 85.7138 272.782 85.0621C272.885 84.3894 272.999 83.0315 273.498 81.8644C274.222 80.0195 274.606 78.6029 274.876 77.1172C275.035 76.3241 275.216 75.4045 275.462 74.2838C275.608 73.6245 275.655 73.4274 275.704 73.2196C275.755 73.0055 275.809 72.7847 275.867 72.5391C276.073 71.5972 276.531 70.1031 276.557 66.3251C276.575 64.4352 276.591 62.582 276.597 60.751C276.602 58.9226 276.602 57.1071 276.567 55.364C276.562 55.1486 276.557 54.9379 276.55 54.7186C276.547 54.6154 276.554 54.8204 276.54 54.411C276.527 54.0067 276.517 53.645 276.509 53.3516C276.493 52.7582 276.486 52.4071 276.48 52.1425C276.466 51.4804 276.454 51.2512 276.447 51.1468C276.443 51.1389 276.438 51.1308 276.433 51.1223C275.688 48.2016 268.365 46.6421 264.454 46.5387C263.902 46.4708 263.102 46.3703 261.44 46.0363C260.531 45.8433 259.769 45.713 257.318 45.0337C257.004 44.9457 256.426 44.7759 256.097 44.6745C256.017 44.6495 255.937 44.6242 255.857 44.5984C255.694 44.5462 255.527 44.4914 255.365 44.4369C255.042 44.3277 254.722 44.2145 254.407 44.099C253.14 43.6351 251.955 43.1448 250.798 42.7535C250.094 42.5238 250.18 42.5178 248.713 42.1291C246.78 41.6282 246.38 41.5298 245.718 41.3607C245.129 41.2108 244.688 41.0988 244.314 41.0032C242.065 40.4285 242.805 40.3278 241.753 40.0861C240.799 39.8699 240.631 40.0222 240.452 39.9969C240.153 39.962 240.207 39.9704 239.385 39.9266C238.936 39.9 238.443 39.8976 236.691 39.7414C235.822 39.6606 234.307 39.5042 231.949 39.1483C231.513 39.087 231.06 39.0239 230.583 38.9554C229.629 38.8185 228.567 38.6581 227.407 38.4416C226.827 38.3335 226.23 38.2128 225.616 38.0779C225.463 38.0443 225.311 38.0101 225.159 37.9756C224.864 37.9084 224.319 37.7832 224.005 37.7098C223.326 37.5514 222.835 37.4342 222.413 37.3326C219.316 36.5802 218.965 36.4612 218.457 36.2988C218.285 36.2418 218.267 36.1737 218.111 36.0835C217.653 35.9321 217.257 35.7944 216.902 35.7188C216.545 35.6431 215.692 35.6017 214.711 35.4047C212.481 34.9636 211.511 34.8416 209.679 34.8199C206.246 34.7613 205.75 34.7452 204.751 34.709C203.888 34.6752 203.335 34.6378 202.882 34.5885C202.047 34.5222 201.331 34.1958 199.686 33.9803C198.89 33.8655 197.963 33.7575 196.799 33.6304C195.621 33.4518 194.157 33.5938 193.517 32.635C192.777 31.529 192.761 30.9402 192.398 28.6913C192.235 27.5156 192.047 26.1436 191.589 21.0619C191.365 18.6687 191.234 18.4493 191.136 18.1582C191.084 18.1811 186.262 9.39611 185.609 10.4637C184.952 10.2064 184.357 9.86362 182.698 9.39709C182.163 9.25521 182.171 9.26611 182.158 9.26278C182.143 9.26009 182.127 9.25774 182.112 9.2552C182.081 9.24972 182.053 9.24512 182.024 9.24039C181.903 9.22233 181.812 9.20015 181.337 9.14637C184.394 9.08124 161.091 8.5882 160.791 8.61738C157.148 8.56161 154.677 8.13238 154.169 8.13419ZM188.986 90.8628C189.587 90.9127 190.205 90.9571 190.844 91.0061C190.504 90.8636 190.171 90.7226 189.845 90.5815C189.537 90.531 189.236 90.4808 188.938 90.4286C188.954 90.5732 188.97 90.718 188.986 90.8628ZM196.218 29.906C196.251 30.0333 196.281 30.1371 196.311 30.2249C196.415 30.5362 196.528 30.59 196.505 30.3744C196.529 30.289 196.399 30.1047 196.218 29.906ZM192.721 13.5244C192.377 13.4171 193.002 14.5443 193.464 15.1882C193.937 15.8478 194.347 16.159 194.108 15.5377C194.026 15.3128 192.938 13.6389 192.721 13.5244Z" fill="white"/>
<path d="M232.704 77.5003C231.572 77.3206 230.614 77.0679 229.83 76.7423C229.047 76.4167 228.362 75.9522 227.777 75.3487C226.562 74.1345 226.17 72.169 226.601 69.4522C226.984 67.0373 227.961 65.4206 229.53 64.602C230.996 63.8445 232.771 63.6311 234.854 63.9618C235.744 64.1031 236.499 64.2694 237.119 64.4606C237.741 64.6367 238.354 64.9121 238.96 65.2868C239.581 65.6639 240.051 66.1176 240.369 66.6477C240.702 67.1803 240.931 67.882 241.056 68.7529C241.183 69.6087 241.157 70.6025 240.977 71.7345C240.613 74.0287 239.69 75.6538 238.207 76.6099C236.727 77.5509 234.893 77.8477 232.704 77.5003ZM232.613 72.9597C232.632 73.5199 232.686 73.8611 232.775 73.9836C232.879 74.1084 233.022 74.1852 233.203 74.2139C233.399 74.2451 233.558 74.2162 233.681 74.1273C233.818 74.0408 233.975 73.7331 234.152 73.2041C234.344 72.6776 234.505 72.0068 234.634 71.1917C234.766 70.3616 234.844 69.7241 234.868 69.2792C234.91 68.8216 234.92 68.4673 234.898 68.2162C234.891 67.9675 234.853 67.7681 234.784 67.6179C234.679 67.4001 234.529 67.2757 234.332 67.2445C234.151 67.2157 233.991 67.2522 233.851 67.3537C233.713 67.4402 233.547 67.7543 233.353 68.296C233.161 68.8225 232.985 69.5915 232.824 70.6027C232.664 71.6139 232.593 72.3996 232.613 72.9597Z" fill="white"/>
<path d="M210.926 62.7467C210.943 62.5948 211.185 62.4221 211.653 62.2285C212.122 62.0198 212.749 61.8517 213.532 61.7243C214.315 61.5969 215.071 61.5741 215.8 61.6559C217.273 61.8212 217.993 62.2633 217.958 62.9822L217.715 70.2902L218.011 70.3234L219.284 63.5C219.357 63.1238 219.918 62.8484 220.968 62.6741C222.018 62.4997 222.93 62.456 223.705 62.5429C224.479 62.6298 225.049 62.7629 225.413 62.9422C225.793 63.1232 226.027 63.2956 226.116 63.4594C226.207 63.608 226.247 63.7354 226.235 63.8417C226.223 63.948 225.809 64.6935 224.992 66.0782C224.191 67.4645 222.559 70.4262 220.097 74.9633C219.904 75.3107 218.646 75.3541 216.322 75.0933C215.593 75.0115 215.119 74.9199 214.9 74.8184C214.682 74.7017 214.547 74.5404 214.493 74.3345C213.741 71.5744 212.957 68.972 212.139 66.5275C211.324 64.0677 210.919 62.8074 210.926 62.7467Z" fill="white"/>
<path d="M201.69 73.9198C200.547 73.8298 199.572 73.6533 198.765 73.3905C197.958 73.1276 197.239 72.7184 196.608 72.1628C195.301 71.0481 194.756 69.1196 194.972 66.3773C195.164 63.9397 196.01 62.2512 197.509 61.3116C198.912 60.4409 200.664 60.0884 202.766 60.2541C203.665 60.3249 204.431 60.4312 205.064 60.573C205.697 60.6996 206.331 60.9258 206.965 61.2516C207.613 61.5787 208.117 61.9939 208.476 62.4974C208.85 63.0021 209.134 63.6836 209.327 64.5419C209.521 65.385 209.573 66.3779 209.483 67.5205C209.301 69.8362 208.508 71.529 207.105 72.5989C205.704 73.6535 203.899 74.0938 201.69 73.9198ZM201.241 69.4006C201.304 69.9574 201.385 70.2934 201.483 70.4084C201.597 70.5247 201.745 70.59 201.928 70.6044C202.126 70.62 202.283 70.5787 202.398 70.4804C202.528 70.3834 202.66 70.0642 202.795 69.523C202.945 68.9829 203.052 68.3015 203.117 67.4789C203.183 66.6409 203.21 65.9993 203.2 65.5539C203.205 65.0944 203.187 64.7404 203.145 64.4919C203.119 64.2445 203.065 64.0487 202.985 63.9043C202.863 63.6955 202.703 63.5833 202.505 63.5677C202.322 63.5533 202.165 63.6022 202.034 63.7145C201.903 63.8115 201.763 64.1377 201.612 64.693C201.462 65.233 201.347 66.0134 201.266 67.0342C201.186 68.0549 201.177 68.8437 201.241 69.4006Z" fill="white"/>
<path d="M184.998 71.9685C184.987 72.1669 184.513 72.3029 183.576 72.3764C182.639 72.4499 181.705 72.4624 180.774 72.4139C179.843 72.3653 179.25 72.2808 178.997 72.1605C178.743 72.0401 178.622 71.8655 178.634 71.6365L179.401 56.917C179.44 56.1844 181.656 55.9328 186.052 56.1621C188.707 56.3006 190.453 56.5753 191.288 56.9861C192.304 57.4676 192.975 58.0841 193.304 58.8358C193.743 59.8075 193.923 61.0335 193.846 62.5138C193.74 64.5436 193.312 65.998 192.563 66.8771C192.024 67.5223 191.498 67.931 190.984 68.1031C190.47 68.2752 190.043 68.3983 189.702 68.4724C189.378 68.532 188.97 68.5719 188.479 68.5922C187.804 68.6182 186.887 68.601 185.727 68.5405L185.179 68.4889L184.998 71.9685ZM185.4 64.69L185.95 64.7187C186.24 64.7338 186.471 64.7076 186.642 64.6401C186.815 64.5573 186.972 64.3359 187.113 63.976C187.27 63.6016 187.367 63.0787 187.402 62.4072C187.437 61.7204 187.388 61.1976 187.254 60.8386C187.136 60.4652 187.002 60.2439 186.852 60.1749C186.719 60.0915 186.553 60.0445 186.355 60.0342L185.645 59.9972L185.4 64.69Z" fill="white"/>
<path d="M164.704 72.0952C163.558 72.0686 162.575 71.9465 161.755 71.7287C160.934 71.511 160.194 71.1422 159.533 70.6225C158.166 69.5819 157.515 67.6866 157.578 64.9365C157.635 62.492 158.386 60.7592 159.831 59.7379C161.183 58.791 162.913 58.3419 165.022 58.3908C165.923 58.4117 166.694 58.4754 167.333 58.582C167.973 58.6732 168.618 58.864 169.269 59.1542C169.935 59.4448 170.461 59.8315 170.847 60.3144C171.249 60.7975 171.569 61.4623 171.81 62.3086C172.05 63.1396 172.157 64.1281 172.131 65.2739C172.077 67.5962 171.379 69.3303 170.038 70.4762C168.697 71.6069 166.919 72.1465 164.704 72.0952ZM164.006 67.6078C164.1 68.1602 164.199 68.4912 164.304 68.6006C164.423 68.7104 164.575 68.7674 164.758 68.7717C164.957 68.7763 165.111 68.7264 165.22 68.6219C165.345 68.5178 165.459 68.1918 165.564 67.6439C165.684 67.0964 165.753 66.4101 165.772 65.5851C165.792 64.7448 165.784 64.1026 165.748 63.6585C165.728 63.1994 165.69 62.847 165.635 62.6011C165.595 62.3556 165.53 62.163 165.442 62.0234C165.309 61.8216 165.143 61.7184 164.945 61.7138C164.761 61.7095 164.607 61.7671 164.482 61.8865C164.357 61.9906 164.235 62.3241 164.115 62.8869C163.995 63.4344 163.924 64.22 163.9 65.2436C163.876 66.2672 163.911 67.0553 164.006 67.6078Z" fill="white"/>
<path d="M146.738 71.8601C146.173 71.8572 145.646 71.7704 145.158 71.5998C144.67 71.4291 144.266 71.2207 143.946 70.9746C143.642 70.7285 143.376 70.3985 143.149 69.9847C142.922 69.5709 142.748 69.1803 142.628 68.8129C142.507 68.4302 142.418 67.9636 142.36 67.4132C142.272 66.6028 142.231 65.678 142.237 64.6388C142.248 62.5146 142.646 60.9044 143.431 59.8082C144.216 58.6966 145.289 58.1444 146.649 58.1514C148.04 58.1587 149.046 58.4925 149.67 59.1528C149.806 59.3064 149.912 59.4903 149.988 59.7047L150.171 59.7056L149.904 58.1225L149.919 55.2572C149.921 54.9209 150.35 54.5946 151.208 54.2781C152.065 53.9617 152.991 53.806 153.984 53.8112C155.023 53.8166 155.687 54.0187 155.975 54.4175C156.081 54.5709 156.134 54.724 156.133 54.8768L156.049 71.152C156.048 71.3201 155.619 71.4554 154.763 71.558C153.922 71.6453 153.104 71.6869 152.309 71.6828C151.53 71.6787 151.026 71.6532 150.797 71.6061C150.583 71.5439 150.446 71.4821 150.385 71.4206C150.34 71.3593 150.31 71.2598 150.295 71.1221L150.119 69.8146L149.935 69.8136C149.795 70.3478 149.517 70.7972 149.103 71.1618C148.581 71.6328 147.793 71.8656 146.738 71.8601ZM149.323 68.5267C149.567 68.528 149.752 68.3761 149.875 68.0711L149.907 61.9507C149.908 61.7979 149.825 61.6829 149.657 61.6056C149.504 61.5131 149.367 61.4665 149.245 61.4659C148.725 61.4632 148.459 62.6539 148.447 65.0378C148.44 66.3062 148.504 67.2082 148.639 67.7438C148.789 68.2642 149.017 68.5252 149.323 68.5267Z" fill="white"/>
<path d="M128.572 66.5904C128.587 67.5836 129.068 68.0733 130.015 68.0595C130.565 68.0515 131.281 67.8577 132.162 67.4781C133.042 67.0832 133.506 66.8854 133.551 66.8847C133.842 66.8805 134.23 67.3104 134.716 68.1745C135.203 69.0386 135.449 69.6769 135.455 70.0895C135.464 70.6854 134.859 71.1451 133.641 71.4685C132.423 71.7919 131.226 71.9622 130.049 71.9793C128.888 71.9962 127.909 71.9188 127.111 71.747C126.329 71.575 125.684 71.3551 125.176 71.0874C124.683 70.8042 124.242 70.4591 123.854 70.0521C123.481 69.6449 123.201 69.2592 123.012 68.8951C122.823 68.5158 122.672 68.0977 122.558 67.6408C122.396 66.9707 122.309 66.2766 122.299 65.5584C122.258 62.7773 122.956 60.8491 124.392 59.7736C125.103 59.2283 125.899 58.8423 126.783 58.6154C127.666 58.3886 128.711 58.2664 129.918 58.2488C133.784 58.1925 135.737 59.509 135.776 62.1984C135.817 65.0559 133.668 66.5162 129.329 66.5794L128.572 66.5904ZM128.478 63.2446L128.5 64.7574C128.943 64.7509 129.299 64.57 129.569 64.2145C129.855 63.8589 129.993 63.4289 129.986 62.9246C129.973 62.0078 129.729 61.5528 129.256 61.5597C128.721 61.5675 128.461 62.1292 128.478 63.2446Z" fill="white"/>
<path d="M111.703 72.3925C109.992 72.4459 108.78 72.0405 108.064 71.176C107.365 70.3111 106.98 68.7788 106.912 66.5793L106.717 60.3472C106.707 60.0417 107.149 59.7374 108.042 59.4343C108.934 59.116 109.876 58.9412 110.869 58.9102C112.198 58.8687 112.873 59.1916 112.895 59.879L113.076 65.6986C113.113 66.8595 113.185 67.7058 113.293 68.2375C113.401 68.754 113.639 69.0065 114.005 68.9951C114.494 68.9798 114.732 68.7659 114.719 68.3535L114.461 60.1052C114.451 59.7844 114.915 59.4718 115.854 59.1672C116.792 58.8627 117.819 58.693 118.934 58.6582C120.049 58.6233 120.616 58.9037 120.635 59.4995L121.003 71.2991C121.01 71.513 120.534 71.6808 119.574 71.8025C118.615 71.9242 117.669 71.9996 116.737 72.0287C115.806 72.0579 115.328 71.9505 115.305 71.7065L115.03 70.2244L114.846 70.2302C114.726 70.7843 114.465 71.2435 114.064 71.6077C113.856 71.7977 113.54 71.9758 113.117 72.1419C112.709 72.2922 112.238 72.3758 111.703 72.3925Z" fill="white"/>
<path d="M98.577 72.3805C98.3856 72.528 98.0865 72.6656 97.6799 72.7934C97.2893 72.9357 96.7659 73.0236 96.1096 73.0571C95.4533 73.0905 94.829 72.9999 94.2365 72.7852C93.6434 72.5553 93.1768 72.2577 92.8368 71.8925C92.4969 71.5273 92.2126 71.0521 91.9838 70.467C91.6472 69.566 91.4435 68.4211 91.3727 67.0322C91.2382 64.3918 91.7447 62.4686 92.8921 61.2625C94.054 60.0404 95.9933 59.3601 98.71 59.2217C100.221 59.1447 101.307 59.1429 101.969 59.2163C102.631 59.2897 103.162 59.3621 103.564 59.4335C104.413 59.5891 104.849 59.8883 104.872 60.3309L105.628 75.1658C105.636 75.3337 105.216 75.4852 104.365 75.6203C103.531 75.7699 102.504 75.8758 101.283 75.938C100.062 76.0002 99.4422 75.8482 99.4236 75.4819L99.2918 72.8949L99.486 71.3013L99.3029 71.3106C99.3091 71.4327 99.2413 71.6045 99.0996 71.8259C98.9579 72.0474 98.7836 72.2322 98.577 72.3805ZM98.1007 62.5809C97.6123 62.6058 97.4276 63.7858 97.5465 66.1209C97.6655 68.4561 97.9844 69.6104 98.5034 69.584C98.6255 69.5778 98.7609 69.5326 98.9096 69.4485C99.0584 69.3644 99.1292 69.2537 99.1222 69.1163L98.7922 62.6375C98.6822 62.5819 98.4517 62.563 98.1007 62.5809Z" fill="white"/>
<path d="M84.1523 66.3806L84.6469 73.0558C84.6594 73.2235 84.2352 73.3928 83.3744 73.5639C82.5277 73.7186 81.6395 73.8303 80.7099 73.8992C79.7954 73.967 79.1982 73.9729 78.9183 73.9171C78.6372 73.8459 78.4893 73.7113 78.4746 73.5132L77.6395 62.243C77.618 61.9534 78.014 61.6099 78.8274 61.2125C79.656 60.814 80.5656 60.578 81.5562 60.5046C82.5621 60.4301 83.1463 60.6626 83.3089 61.2023L83.6154 62.2369L83.7754 62.2251C83.9459 61.6301 84.4203 61.1046 85.1987 60.6485C85.9759 60.1771 86.7684 59.9115 87.5762 59.8517C88.3839 59.7918 88.9574 59.8796 89.2966 60.115C89.6511 60.3492 89.8436 60.6721 89.8741 61.0836C89.9034 61.4798 89.9108 61.9926 89.8961 62.622C89.8815 63.2514 89.7793 63.9409 89.5897 64.6905C89.4153 65.4389 89.1376 65.8273 88.7566 65.8555C88.6042 65.8668 88.1156 65.7881 87.291 65.6193C86.4663 65.4506 85.7872 65.386 85.2538 65.4255C84.7357 65.4639 84.4136 65.5644 84.2878 65.7269C84.1771 65.8884 84.132 66.1063 84.1523 66.3806Z" fill="white"/>
<path d="M67.7256 75.3578C66.3422 75.5003 65.2216 75.2855 64.3638 74.7132C64.0164 74.4725 63.6936 74.0986 63.3956 73.5916C63.1127 73.0831 62.9345 72.4716 62.8609 71.7571C62.7873 71.0426 62.8903 70.4021 63.1699 69.8356C63.4647 69.2675 63.8405 68.814 64.2972 68.475C64.7539 68.1361 65.2996 67.8417 65.9345 67.592C66.896 67.2317 67.9696 66.9905 69.1553 66.8684L69.9078 66.7908C69.8436 66.1676 69.5854 65.7486 69.1331 65.5341C68.9397 65.4465 68.653 65.4222 68.2729 65.4614C67.9081 65.499 67.4698 65.644 66.9581 65.8964C66.4616 66.1473 66.0495 66.3972 65.7218 66.646C65.3926 66.8797 65.1671 67.0027 65.0455 67.0153C64.7719 67.0435 64.3626 66.7246 63.8178 66.0587C63.2713 65.3776 62.9676 64.7406 62.9065 64.1477C62.8861 63.9501 63.1407 63.6627 63.6703 63.2855C64.1999 62.9083 64.9606 62.538 65.9525 62.1747C66.958 61.7945 67.9472 61.5543 68.9201 61.4541C69.893 61.3538 70.7377 61.3513 71.4542 61.4465C72.1844 61.5249 72.7816 61.6554 73.2459 61.838C73.7255 62.019 74.1368 62.2839 74.48 62.6326C74.8384 62.9798 75.1093 63.2975 75.2926 63.5859C75.4912 63.8727 75.6535 64.2554 75.7796 64.734C75.944 65.2855 76.0685 65.9717 76.1531 66.7926L76.8602 73.6561C76.8775 73.8234 76.4811 74.0025 75.6712 74.1935C74.8749 74.3677 74.0739 74.4963 73.2682 74.5793C72.4777 74.6608 71.9585 74.6912 71.7106 74.6707C71.4779 74.6485 71.3356 74.6094 71.2837 74.5533C71.2319 74.4972 71.1829 74.3947 71.1368 74.2458L70.8205 72.9649L70.6381 72.9837C70.399 74.391 69.4282 75.1824 67.7256 75.3578ZM70.3911 71.2578L70.1162 68.5899C69.721 68.6306 69.419 68.8307 69.2102 69.1902C69.0014 69.5497 68.919 69.9423 68.9628 70.3679C69.0662 71.3712 69.3459 71.8494 69.802 71.8024C69.9996 71.782 70.1469 71.7208 70.2439 71.6186C70.3546 71.4996 70.4036 71.3794 70.3911 71.2578Z" fill="white"/>
<path d="M53.6564 76.3202C53.6853 76.5167 53.2475 76.7433 52.343 76.9999C51.4385 77.2565 50.5251 77.4526 49.6028 77.5882C48.6806 77.7239 48.0831 77.7577 47.8105 77.6896C47.5379 77.6216 47.3849 77.4742 47.3516 77.2474L45.207 62.6647C45.1002 61.9389 47.2241 61.2559 51.5785 60.6155C54.2093 60.2286 55.9747 60.1543 56.8747 60.3926C57.9651 60.6648 58.7451 61.137 59.2147 61.8094C59.8364 62.6757 60.2551 63.8421 60.4708 65.3087C60.7665 67.3196 60.6333 68.8297 60.0713 69.8392C59.6701 70.5778 59.2346 71.0821 58.7645 71.352C58.2945 71.622 57.8998 71.8267 57.5806 71.9664C57.2742 72.0887 56.8824 72.2081 56.4052 72.3246C55.7489 72.4829 54.8462 72.6466 53.6971 72.8155L53.1494 72.8729L53.6564 76.3202ZM52.6184 69.1048L53.1627 69.0248C53.45 68.9825 53.6713 68.9114 53.8264 68.8113C53.9794 68.6962 54.0897 68.4482 54.1573 68.0676C54.2378 67.6696 54.2291 67.138 54.1313 66.4727C54.0312 65.7923 53.88 65.2894 53.6777 64.9639C53.4882 64.621 53.3135 64.4305 53.1534 64.3922C53.0062 64.3366 52.8343 64.3233 52.6378 64.3522L51.9347 64.4556L52.6184 69.1048Z" fill="white"/>
<path d="M115.066 33.269L114.357 21.5464L115.57 21.473L115.794 25.1623L115.504 25.1477C115.502 24.2288 115.649 23.4719 115.944 22.877C116.249 22.2708 116.665 21.8129 117.191 21.5032C117.717 21.1935 118.3 21.0193 118.939 20.9807C119.556 20.9433 120.122 21.0266 120.637 21.2306C121.162 21.4339 121.618 21.7269 122.005 22.1096C122.391 22.4923 122.696 22.944 122.92 23.4648C123.144 23.9856 123.274 24.5441 123.31 25.1403L123.327 25.4278C123.363 26.024 123.296 26.5945 123.126 27.1391C122.956 27.6837 122.697 28.1695 122.349 28.5967C122.011 29.0232 121.594 29.369 121.097 29.6341C120.611 29.8987 120.065 30.0493 119.458 30.086C118.851 30.1227 118.262 30.0247 117.693 29.792C117.123 29.5593 116.639 29.1558 116.241 28.5815C115.843 28.0071 115.588 27.2371 115.476 26.2715L116.256 27.5066L116.599 33.1762L115.066 33.269ZM119.137 28.7589C119.712 28.7241 120.204 28.5608 120.614 28.2688C121.023 27.9662 121.33 27.5683 121.536 27.075C121.74 26.5711 121.823 26.005 121.785 25.3768C121.747 24.738 121.596 24.1861 121.333 23.7211C121.069 23.2562 120.717 22.9035 120.275 22.6631C119.832 22.412 119.323 22.3039 118.748 22.3387C118.237 22.3696 117.771 22.5154 117.348 22.776C116.925 23.026 116.594 23.3773 116.354 23.83C116.124 24.2713 116.028 24.7954 116.065 25.4023L116.109 26.137C116.144 26.7226 116.308 27.2149 116.599 27.6141C116.89 28.0132 117.261 28.3114 117.711 28.5086C118.161 28.7057 118.636 28.7892 119.137 28.7589ZM131.05 29.2649L130.96 26.7065L130.704 26.7155L130.6 23.7573C130.58 23.171 130.41 22.734 130.09 22.4463C129.781 22.1583 129.334 22.0246 128.747 22.0452C128.417 22.0568 128.076 22.074 127.724 22.097C127.373 22.12 127.038 22.1425 126.718 22.1643C126.399 22.1862 126.122 22.2119 125.888 22.2415L125.841 20.8983C126.075 20.8688 126.32 20.8442 126.575 20.8245C126.841 20.7939 127.112 20.7737 127.39 20.764C127.666 20.7436 127.933 20.7289 128.189 20.7199C129.063 20.6893 129.781 20.7708 130.342 20.9646C130.904 21.1477 131.326 21.4691 131.609 21.9288C131.892 22.3885 132.047 23.0181 132.075 23.8176L132.265 29.2223L131.05 29.2649ZM128.259 29.5869C127.62 29.6093 127.062 29.5222 126.585 29.3254C126.119 29.1176 125.751 28.8103 125.48 28.4036C125.22 27.9964 125.08 27.4997 125.06 26.9134C125.038 26.3058 125.154 25.7947 125.406 25.3803C125.669 24.9655 126.058 24.6477 126.573 24.4268C127.088 24.1953 127.714 24.0666 128.449 24.0408L130.768 23.9595L130.808 25.1108L128.425 25.1944C127.807 25.2161 127.338 25.3819 127.018 25.692C126.698 26.0021 126.546 26.3916 126.563 26.8607C126.579 27.3297 126.758 27.7024 127.098 27.9786C127.439 28.2548 127.918 28.3821 128.537 28.3604C128.899 28.3477 129.243 28.2716 129.569 28.1321C129.895 27.9819 130.159 27.7485 130.361 27.4319C130.574 27.1043 130.681 26.6629 130.683 26.1078L131.12 26.7009C131.088 27.3104 130.957 27.8273 130.726 28.2516C130.506 28.6649 130.186 28.9857 129.767 29.2138C129.359 29.4416 128.856 29.566 128.259 29.5869ZM135.083 29.1523L134.95 20.6093L136.166 20.5905L136.221 24.1101L136.157 24.1111C136.137 22.8632 136.395 21.9471 136.93 21.3628C137.476 20.7676 138.298 20.4615 139.396 20.4445L139.684 20.4401L139.706 21.8159L139.162 21.8243C138.308 21.8375 137.656 22.077 137.205 22.5427C136.753 22.9977 136.534 23.6519 136.547 24.5051L136.618 29.1286L135.083 29.1523ZM146.781 29.1112L146.795 26.5513L146.539 26.5499L146.556 23.5899C146.559 23.0032 146.407 22.5597 146.099 22.2593C145.802 21.959 145.36 21.8072 144.774 21.8039C144.443 21.802 144.102 21.8055 143.75 21.8141C143.397 21.8228 143.061 21.8316 142.741 21.8405C142.421 21.8494 142.144 21.8638 141.909 21.8838L141.917 20.5399C142.151 20.5198 142.397 20.5052 142.653 20.496C142.92 20.4761 143.192 20.467 143.469 20.4686C143.746 20.4594 144.013 20.4556 144.269 20.457C145.144 20.4619 145.858 20.5726 146.411 20.789C146.965 20.9948 147.374 21.3331 147.638 21.8039C147.902 22.2748 148.031 22.9102 148.027 23.7101L147.997 29.1181L146.781 29.1112ZM143.979 29.3196C143.339 29.316 142.785 29.2062 142.317 28.9902C141.86 28.7637 141.504 28.4417 141.251 28.0242C141.008 27.6069 140.888 27.1049 140.891 26.5182C140.895 25.9102 141.031 25.4043 141.3 25.0005C141.579 24.5967 141.981 24.2949 142.505 24.0952C143.029 23.8848 143.659 23.7817 144.395 23.7858L146.714 23.7988L146.708 24.9508L144.324 24.9374C143.705 24.9339 143.23 25.0806 142.898 25.3774C142.565 25.6742 142.398 26.0573 142.395 26.5266C142.392 26.996 142.556 27.3755 142.885 27.6654C143.214 27.9552 143.688 28.1019 144.306 28.1054C144.669 28.1074 145.016 28.0453 145.347 27.9192C145.679 27.7824 145.952 27.5599 146.167 27.2518C146.393 26.933 146.518 26.4964 146.542 25.9419L146.955 26.5522C146.898 27.1599 146.746 27.671 146.498 28.0856C146.262 28.4897 145.929 28.7971 145.501 29.0081C145.084 29.2191 144.577 29.3229 143.979 29.3196ZM154.371 29.5836C153.763 29.563 153.207 29.4322 152.703 29.1911C152.199 28.9499 151.762 28.6203 151.392 28.2022C151.032 27.7845 150.755 27.3056 150.56 26.7653C150.375 26.2254 150.293 25.6464 150.314 25.028L150.324 24.7402C150.344 24.1326 150.465 23.5656 150.685 23.0394C150.906 22.5133 151.204 22.0537 151.58 21.6609C151.967 21.2684 152.415 20.9686 152.924 20.7617C153.443 20.5444 154.012 20.4463 154.63 20.4671C155.281 20.4891 155.868 20.6477 156.391 20.9429C156.915 21.2274 157.338 21.6632 157.66 22.2504C157.982 22.8376 158.148 23.5903 158.16 24.5086L157.555 23.4636L157.749 17.7228L159.284 17.7747L158.89 29.448L157.674 29.407L157.802 25.6171L158.25 25.6323C158.175 26.6009 157.946 27.383 157.563 27.9784C157.18 28.5632 156.707 28.9848 156.143 29.2432C155.59 29.4914 155 29.6048 154.371 29.5836ZM154.624 28.2474C155.146 28.265 155.625 28.1638 156.059 27.9436C156.493 27.7235 156.846 27.3992 157.116 26.9708C157.387 26.5317 157.533 26.0136 157.553 25.4166L157.578 24.681C157.598 24.0947 157.481 23.5945 157.228 23.1804C156.987 22.756 156.651 22.4298 156.221 22.2018C155.802 21.9635 155.337 21.8358 154.825 21.8185C154.26 21.7994 153.754 21.9157 153.308 22.1675C152.873 22.4196 152.525 22.7814 152.263 23.2528C152.012 23.7246 151.876 24.2857 151.854 24.936C151.832 25.5863 151.935 26.1608 152.164 26.6594C152.393 27.1474 152.722 27.5321 153.15 27.8133C153.578 28.084 154.07 28.2286 154.624 28.2474ZM166.995 29.8923L167.148 27.3368L166.892 27.3216L167.068 24.3668C167.103 23.7812 166.974 23.3301 166.683 23.0136C166.403 22.6977 165.97 22.5224 165.384 22.4875C165.054 22.4679 164.713 22.4529 164.361 22.4427C164.009 22.4324 163.673 22.4231 163.353 22.4148C163.033 22.4064 162.755 22.4059 162.52 22.4133L162.6 21.0716C162.835 21.0643 163.081 21.0629 163.337 21.0674C163.605 21.062 163.877 21.0675 164.154 21.0839C164.431 21.0898 164.698 21.1003 164.953 21.1155C165.826 21.1674 166.533 21.3163 167.074 21.5622C167.616 21.7975 168.006 22.1573 168.244 22.6416C168.483 23.126 168.578 23.7674 168.531 24.566L168.209 29.9645L166.995 29.8923ZM164.187 29.9496C163.548 29.9116 163.001 29.7722 162.545 29.5313C162.101 29.2805 161.763 28.9398 161.532 28.5094C161.312 28.0795 161.219 27.5718 161.254 26.9862C161.29 26.3792 161.453 25.8814 161.744 25.4926C162.044 25.1045 162.462 24.8247 162.996 24.6535C163.53 24.4716 164.165 24.4025 164.899 24.4462L167.215 24.5839L167.147 25.7339L164.767 25.5923C164.149 25.5556 163.667 25.6765 163.319 25.955C162.971 26.2335 162.783 26.607 162.755 27.0755C162.727 27.544 162.87 27.9318 163.183 28.2389C163.496 28.5461 163.961 28.718 164.579 28.7547C164.941 28.7763 165.291 28.733 165.628 28.6248C165.967 28.5061 166.251 28.2986 166.483 28.0025C166.725 27.6963 166.874 27.2671 166.928 26.7147L167.307 27.3463C167.218 27.95 167.038 28.4523 166.769 28.853C166.51 29.2436 166.162 29.5328 165.723 29.7204C165.296 29.9087 164.783 29.9851 164.187 29.9496Z" fill="white"/>
</svg>
