<svg width="804" height="307" viewBox="0 0 804 307" fill="none" xmlns="http://www.w3.org/2000/svg">
<path d="M419.906 0.0461002C427.568 0.0255888 428.224 1.57543 434.334 1.73555C447.323 2.07432 460.62 1.48087 473.154 1.0754C477.006 0.953438 480.752 0.849654 484.408 0.797077C491.4 0.698185 498.795 0.930193 505.897 1.45235C494.558 4.94862 519.187 9.13514 510.221 2.49532C513.851 3.13897 516.875 3.00785 521.37 3.84493C525.504 4.53208 530.205 5.90742 533.635 7.65157C534.111 7.88506 534.487 8.07753 534.715 8.20723C539.988 10.5521 541.528 13.4364 543.137 15.6857C544.647 18.0181 545.807 20.287 547.328 22.7346C547.722 23.3679 548.115 23.9758 548.509 24.5549C551.507 28.9951 554.203 33.4859 556.137 36.3479C559.486 42.0712 559.144 45.4157 559.225 47.8117C559.137 50.2276 558.584 51.9325 557.488 52.9992C557.612 53.8502 557.724 54.6888 557.828 55.5217C558.64 61.969 559.032 67.9537 559.848 72.7141C560.068 73.9987 560.323 75.1955 560.62 76.2678C564.593 77.3452 569.404 78.9019 572.232 79.5783C573.147 79.8068 575.262 80.1624 578.614 81.2033C578.123 81.1849 580.267 81.5307 581.745 81.6555C583.384 81.8159 585.223 81.9518 587.111 82.0773C590.895 82.3268 594.912 82.5388 598.498 82.7277C604.172 82.9857 608.764 84.0152 610.38 84.3361C614.435 85.1554 620.262 86.6431 624.504 87.3566C625.901 87.614 626.922 87.8203 627.804 87.9621C632.976 88.8134 637.301 85.7866 645.02 92.468C645.057 92.4754 645.096 92.483 645.133 92.4904C653.492 94.0972 657.31 94.6115 664.115 96.048C665.417 96.3217 666.795 96.6111 668.333 96.9221C670.055 97.2671 670.147 97.984 671.171 98.1213C673.254 98.397 676.857 98.313 680.573 98.5578C683.76 98.7913 686.311 99.2201 688.773 99.8566C690.079 100.212 690.854 100.161 690.748 99.0256C694.942 99.6044 699.129 100.225 703.311 100.881C704.64 101.662 705.97 102.447 707.289 103.235C709.582 103.333 711.882 103.443 714.184 103.564C713.206 104.275 713.815 104.963 715.079 105.513C718.426 106.853 725.805 108.113 722.591 105.546C727.678 107.779 731.921 110.103 736.197 111.863C738.875 112.97 741.591 114.002 744.336 114.952C742.447 117.967 757.213 118.96 758.733 116.864C759.128 116.614 759.273 116.353 759.075 116.09C760.072 116.153 761.064 116.228 762.052 116.316C767.636 117.519 772.366 117.762 779.242 119.948C782.308 121.047 785.584 122.374 789.026 124.339C790.719 125.308 792.039 126.169 793.052 126.872C799.361 131.683 798.215 132.688 798.888 135.828C799.736 137.077 800.418 138.301 801 139.222C802.528 142.346 802.058 143.363 802.271 144.549C804.092 149.108 804.145 151.47 803.729 153.927C802.977 158.354 800.613 162.328 802.828 175.657C801.391 178.876 800.97 184.399 800.993 190.447C801.07 197.046 800.911 204.679 799.904 210.522C799.71 211.801 800.245 211.979 800.055 213.582C800.044 213.675 800.032 213.77 800.02 213.866C799.512 217.427 797.622 224.993 798.194 227.188C798.283 227.592 798.447 227.82 798.712 227.817C797.32 231.8 795.615 235.305 793.812 238.715C793.65 239.368 793.483 240.02 793.311 240.669C792.953 242.328 793.003 243.798 792.959 246.322C793.531 246.38 794.103 246.438 794.674 246.495C794.179 247.589 793.711 249.054 793.119 250.643C791.157 254.789 791.285 262.036 790.649 265.763C790.497 266.676 789.708 266.827 789.303 269.662C789.3 269.684 789.297 269.707 789.294 269.729C789.022 273.338 786.981 279.354 784.619 282.809C783.963 283.879 783.157 284.795 782.371 285.486C781.132 287.882 779.366 289.752 777.951 291.321C776.909 291.837 776.058 292.175 775.331 292.438C770.518 294.172 767.78 293.464 764.306 294.791C764.168 294.844 763.595 295.094 762.736 295.465C758.236 297.68 748.365 298.946 747.76 298.973C745.241 299.355 744.023 299.807 742.333 300.285C739.924 300.966 735.131 300.666 730.506 299.248C729.113 298.898 727.153 298.521 724.371 298.031C722.81 297.75 721.323 297.336 719.682 296.813C718.267 296.339 716.95 295.862 715.53 295.501C713.65 295.026 710.363 294.369 706.894 293.663C703.024 293.131 695.96 293.602 695.027 294.298C693.91 293.83 692.41 293.387 690.503 292.801C685.997 291.26 678.192 289.931 672.986 288.729C670.457 288.165 668.577 287.554 667.531 287.145C666.351 286.687 666.237 285.625 663.501 284.657C663.161 284.546 662.787 284.435 662.373 284.328C659.03 283.4 650.093 283.008 645.696 282.477C641.023 281.857 639.379 280.798 637.186 280.543C635.833 280.386 634.571 280.6 632.772 280.589C631.8 280.581 630.779 280.509 629.693 280.297C623.684 279.06 618.987 277.162 614.457 275.812C611.794 275.009 609.263 274.271 606.836 273.731C602.559 272.786 598.262 272.296 594.874 272.529C588.681 272.46 584.754 272.299 580.604 272.504C580.52 272.506 580.437 272.509 580.354 272.511C578.442 272.164 576.56 271.517 574.494 271.384C571.595 271.194 568.633 271.079 565.536 270.98C563.978 270.928 562.4 270.881 560.701 270.799C558.902 270.668 557.501 270.755 554.294 270.024C548.589 268.496 542.242 267.552 535.346 266.143C533.256 265.695 530.991 265.457 528.487 265.323C525.904 265.139 523.462 265.308 519.294 264.618C516.005 263.937 510.977 263.846 506.424 263.573C501.813 263.335 497.222 263.093 492.72 262.841C492.18 262.81 491.625 262.781 491.057 262.751C478.777 262.059 447.585 258.874 455.88 264.092C451.617 264.944 420.967 262.875 414.138 262.675C414.017 262.672 413.903 262.669 413.798 262.667C407.753 262.57 402.963 263.429 398.214 263.361C388.239 263.201 380.455 262.785 370.687 262.817C366.488 262.829 361.895 262.922 356.635 263.155C352.163 263.357 347.349 264.456 344.697 264.443C341.498 264.424 338.053 263.36 333.91 263.299C324.033 263.155 305.64 263.593 296.187 263.529C294.467 263.513 293.838 262.585 291.375 262.326C289.262 262.103 287.048 261.946 284.99 261.872C277.614 261.604 271.536 262.428 273.087 264.697C267.312 264.109 260.918 264.281 257.469 265.378C252.954 266.664 249.716 268.868 244.03 271.659C243.664 271.833 243.304 272.002 242.949 272.165C239.76 273.613 236.124 275.161 231.703 276.465C227.549 277.859 220.881 278.379 218.585 278.697C208.827 280.561 196.791 281.992 186.323 282.697C183.755 282.885 181.502 283.346 178.63 284.083C175.782 284.818 172.519 285.668 169.446 286.295C163.362 287.568 157.941 288.899 153.555 290.13C151.571 290.686 149.909 291.191 148.404 291.656C146.726 292.136 146.1 292.509 143.273 293.031C140.163 293.766 138.283 295.274 127.2 297.009C125.524 297.19 123.685 297.388 121.664 297.65C118.014 298.06 115.734 298.731 109.218 299.767C108.759 299.815 108.296 299.867 107.822 299.926C102.494 300.528 97.3161 301.497 90.6653 302.281C85.1949 302.76 79.4582 303.972 74.1585 305.92C68.6544 306.087 63.862 306.031 59.3607 305.898C55.5661 305.798 51.6171 305.283 47.8548 303.988C44.1009 302.743 40.7615 300.545 39.2679 299.338C38.4091 298.724 37.4286 298.048 36.429 297.301C35.0165 297.355 33.5243 297.352 31.97 297.26C30.9522 296.762 29.9208 296.22 28.8968 295.631C26.5553 294.306 24.7438 292.114 23.8109 290.324C23.6327 288.743 23.8351 287.478 24.1448 286.416C23.0077 281.454 23.2533 278.514 22.6702 276.071C22.0644 273.106 20.9441 270.489 19.4359 268.257C17.614 265.624 14.6627 260.576 13.6019 256.018C13.0735 254.103 12.5961 252.258 12.22 250.547C11.3592 246.64 10.2027 241.241 8.86749 235.133C8.06148 231.445 7.00232 227.081 6.12237 222.534C5.21153 218.028 4.70434 212.918 4.79718 208.219C4.8825 203.487 5.21086 199.832 5.07843 196.445C4.74662 186.691 4.28242 178.174 3.9544 172.714C3.69518 168.292 3.2195 165.879 3.15851 163.918C3.13491 162.662 3.33243 161.513 4.15362 159.071C3.65285 157.283 3.09989 155.387 2.58722 153.392C1.82154 152.216 1.06785 150.985 0.346982 149.681C0.187899 148.357 0.0699746 146.969 0.0159277 145.527C-0.11941 139.88 0.552266 133.809 4.18487 127.569C6.38593 123.75 10.2571 120.397 13.4603 118.625C16.6906 116.776 19.2561 115.721 21.4251 114.564C22.5821 113.959 23.7038 113.332 24.8255 112.641C29.5203 109.74 34.8727 107.903 38.6829 106.12C45.142 103.263 50.9661 101.889 57.3792 100.751C58.9182 100.453 63.1856 99.3524 66.6419 99.1965C74.6997 98.6179 82.6885 98.1595 89.4798 98.2443C91.284 98.2645 93.2563 98.4084 95.2728 98.5842C98.1666 98.9202 101.183 98.931 104.146 98.3938C107.814 97.7331 110.356 96.8011 113.373 96.1242C115.829 95.5541 118.423 95.1065 122.426 95.0227C125.982 94.9462 130.183 94.977 134.637 94.8684C142.734 94.6632 152.683 93.9873 161.786 93.9084C168.738 93.831 174.998 93.9358 179.735 93.8059C183.991 93.6968 185.961 92.9674 188.867 92.8557C189.642 92.8253 190.402 92.7961 191.147 92.7658C198.39 92.5006 203.182 91.9105 209.698 89.9797C213.34 88.9754 217.112 87.9725 221.041 86.9377C224.18 86.8499 226.515 86.9846 228.315 87.2268C228.365 87.2204 228.514 87.2013 228.565 87.1965C233.529 88.1743 233.999 89.8175 237.208 91.0022C238.717 91.5451 241.783 92.1656 244.687 92.8996C246.704 91.9044 246.041 91.5248 246.492 91.0764C246.728 90.6439 246.929 90.25 247.12 89.8664C247.501 89.103 247.838 88.4017 248.156 87.7873C248.785 86.5566 249.34 85.6935 249.758 85.4924C249.839 85.4353 249.924 85.4004 250.01 85.3801C248.999 85.1042 247.847 81.2057 246.673 80.6535C245.483 80.0861 238.021 80.7246 237.361 75.2844C237.129 72.8558 236.781 69.2874 237.426 64.4152C238.605 57.5204 239.325 50.352 240.735 44.593C241.095 43.2273 241.465 42.1248 241.699 41.3928C242.67 38.252 244.062 34.5746 245.977 31.4221C246.132 31.1501 246.292 30.8654 246.46 30.5725C248.746 26.4574 250.833 21.8899 253.503 17.9016C256.001 14.0323 259.55 10.5499 263.324 7.63692C264.874 6.46698 266.71 5.36328 268.759 4.47872C272.698 3.85829 276.255 4.43412 278.229 4.80001C280.817 4.97247 282.324 5.41684 284.233 5.7668C290.006 5.20969 298.779 6.45077 302.218 6.35958C305.096 6.28511 306.742 5.50306 309.743 5.4543C312.044 5.41423 315.108 5.78153 318.83 5.97481C320.485 6.06549 322.42 6.11726 324.309 6.07247C334.34 5.84655 336.052 3.82682 342.046 3.56173C348.26 3.2879 357.913 4.37808 365.829 3.66719C366.821 3.44497 367.824 3.22228 368.817 3.0002C368.108 2.49783 367.387 1.99566 366.675 1.49337C370.67 1.2595 372.394 2.2896 376.046 2.30977C380.373 2.33423 382.56 1.35937 385.466 1.36641C387.841 1.3731 391.067 2.15918 394.15 2.11446C398.645 2.05341 397.664 0.922537 400.083 0.715046C401.057 0.632052 418.884 0.0492842 419.906 0.0461002ZM437.647 16.9221C434.479 16.944 432.432 18.1364 425.984 18.4104C404.564 19.3085 375.703 17.9992 355.321 18.6164C345.253 18.9186 331.424 20.4638 321.516 20.8293C320.717 20.8584 319.823 20.8792 318.874 20.8938C310.014 21.0202 294.593 20.6835 291.486 21.3274C289.367 21.7538 288.392 23.0632 285.893 23.2629C284.205 23.4069 280.966 22.9703 280.112 22.8488C279.294 22.8819 278.633 22.8918 278.087 22.924C274.164 23.1397 274.41 23.2411 273.293 23.6438C270.73 25.0783 269.519 25.8473 267.865 27.8566C267.157 28.7654 266.418 29.8338 265.586 31.1897C264.288 33.2077 262.939 36.2514 259.876 40.8693C258.074 43.487 256.906 45.5834 256.327 48.051C255.857 49.8044 255.624 53.1619 255.24 56.508C254.87 59.8539 254.428 63.147 253.936 66.2287C253.282 69.7169 253.434 75.6196 252.831 79.2922C252.319 82.9069 251.483 85.1582 250.39 85.385C251.394 85.6171 252.607 87.3253 253.573 86.3557C253.675 87.2561 253.783 88.2489 253.84 89.3996C253.866 89.9922 253.889 90.5936 253.838 91.4953C253.804 91.963 253.779 92.4563 253.58 93.3977C253.456 93.9108 253.352 94.4661 252.826 95.6047C252.555 96.1557 252.137 96.9631 251.239 97.9475C250.376 98.9055 248.738 100.17 246.548 100.682L246.577 100.677C241.205 102.291 235.514 103.547 230.311 103.593L230.586 103.559C226.669 103.711 222.758 103.721 217.896 103.98C216.303 104.307 214.723 104.654 213.124 105.024C206.569 106.771 198.229 107.686 191.389 107.708C181.602 107.868 172.017 107.923 162.591 108.466C158.284 108.716 153.975 109.092 149.59 109.517C147.491 109.039 145.371 108.571 143.241 108.094C143.24 108.093 143.241 108.091 143.241 108.09C140.144 108.103 137.668 108.341 135.548 108.66C131.622 109.244 128.965 110.135 125.874 110.466C122.142 110.872 118.007 111.129 114.147 111.525C109.612 111.915 103.533 114.092 95.7366 114.46C86.9629 114.937 77.6089 115.638 67.6165 116.279C65.3291 116.396 63.9476 116.84 59.8255 117.554C54.911 118.29 49.2965 119.556 45.3323 121.212C40.1947 123.353 36.2222 124.581 33.0882 126.427C29.5514 128.517 25.8057 130.169 23.1067 131.569C20.3347 133.038 19.3063 133.878 18.2181 135.605C16.9569 137.579 16.2219 141.303 16.3284 144.74C16.4121 150.038 17.9916 155.487 18.5921 162.732C19.4148 173.047 20.3732 183.801 20.8109 192.606C20.8582 193.435 20.9173 194.362 20.9886 195.458C21.2355 198.727 21.1418 203.072 21.14 207.041C21.1425 211.022 21.5592 214.905 22.4905 219.019C23.4156 223.222 24.4969 227.326 25.386 231.257C26.6311 236.791 27.4926 241.296 27.6556 243.49C27.7949 245.408 26.9021 246.15 27.2952 248.135C27.6963 249.697 28.0954 251.264 28.4876 252.835C29.234 255.774 30.5331 258.025 32.5814 261.61C34.7385 265.552 36.1088 269.957 36.7796 274.268C37.1822 276.865 37.2922 279.196 37.5472 280.971C37.6032 281.383 37.6736 281.765 37.7444 282.072C39.9928 283.2 42.4491 284.093 45.473 285.292C46.8619 285.865 47.9461 286.381 48.9007 286.776C52.1739 288.566 55.2668 289.265 59.3538 289.393C69.3639 289.755 77.8957 288.917 88.2503 286.984C93.3664 286.109 99.8088 283.988 106.281 282.857C108.532 282.453 111.619 281.38 114.867 280.607C118.1 279.814 121.269 279.212 124.433 278.689C129.123 277.972 134.395 275.73 141.31 274.855C142.44 274.647 145.494 273.937 147.693 273.436C150.061 272.895 152.443 272.358 154.83 271.839C158.629 271.013 162.429 270.222 166.254 269.47C171.68 268.508 177.764 266.186 185.123 265.674C195.616 264.896 205.217 263.702 215.661 261.644C221.024 260.87 223.279 260.861 226.669 259.806C229.909 258.845 233.336 257.414 236.759 255.817C241.085 253.737 247.142 250.499 253.256 249.016C259.627 247.446 264.477 247.472 269.612 247.127C274.711 246.871 279.674 246.72 284.699 246.594C313.533 245.962 342.16 245.86 370.777 245.901C385.37 245.897 399.896 246.267 414.315 246.403C427.146 246.528 440.125 246.538 453.052 246.638C465.254 246.744 479.481 246.483 493.326 246.871C501.189 247.13 508.564 247.324 515.776 247.873C517.954 248.05 520.214 248.426 522.154 248.973C523.03 249.396 525.273 249.737 527.75 249.92C530.312 250.131 533.451 250.121 538.02 250.492C538.065 250.956 538.107 251.42 538.146 251.883C538.155 251.884 538.163 251.886 538.172 251.887C545.196 252.796 550.626 252.67 558.353 254.284C558.264 254.229 560.05 254.375 561.602 254.403C565.657 254.532 574.143 254.523 582.409 255.415C588.16 255.973 593.836 257.434 596.38 257.688C598.268 257.899 599.711 258.167 600.83 258.384C604.923 259.228 603.229 259.762 606.881 260.518C609.476 261.064 613.271 261.704 617.409 262.37C623.436 263.34 630.037 264.816 634.039 265.445C634.298 265.486 634.558 265.527 634.815 265.565C641.492 266.257 654.85 268.27 660.579 269.272C662.531 269.558 664.499 269.873 666.479 270.225C670.327 270.908 673.702 271.945 676.398 272.359C682.223 273.385 687.773 274.087 694.271 275.202C698.572 275.998 704.189 275.683 711.716 277.657C715.499 278.729 719.384 279.737 723.014 280.518C724.094 280.749 725.517 280.98 727.018 281.237C729.295 281.631 732.061 282.213 734.973 283.22C739.659 285.05 740.768 285.493 741.527 285.46C741.581 285.457 741.635 285.452 741.687 285.447C745.046 285.168 746.007 284.072 748.19 283.694C751.127 283.166 754.446 282.487 756.813 281.507C760.468 279.975 764.881 278.143 769.147 276.63C771.982 275.709 772.83 275.033 772.657 275.373C774.474 272.539 775.156 270.634 775.316 268.747C775.345 268.348 775.373 267.961 775.399 267.574C775.903 261.232 775.862 254.844 777.637 246.888C778.17 245.246 778.086 240.519 780.01 235.575C781.473 231.73 782.766 227.787 783.467 224.249C784.313 219.921 785.159 215.347 786.173 210.766C787.115 206.706 787.798 203.861 788.199 200.521C788.606 197.246 788.777 193.821 788.807 190.31C788.894 178.188 789.053 165.939 788.773 154.42C788.705 152.267 788.655 150.131 788.615 148.01C788.594 146.968 788.577 145.897 788.548 144.998C788.559 144.927 788.561 144.853 788.56 144.779C787.055 141.978 786.575 141.427 785.21 140.569C781.764 138.557 778.103 136.932 773.781 135.4C770.047 134.156 763.433 133.297 757.816 132.947C747.548 131.843 739.64 129.641 731.423 127.058C722.971 124.252 716.871 121.206 711.29 119.671C709.711 119.205 708.195 118.758 706.752 118.33C701.743 116.856 703.374 116.086 699.113 115.016C694.387 113.841 691.641 113.997 689.423 113.541C688.264 113.302 687.145 113.083 685.667 112.775C684.465 112.558 679.446 112.425 675.33 112.053C671.013 111.693 666.442 111.152 661.829 110.491C655.308 109.589 648.085 108.49 641.731 106.952C634.79 105.318 628.597 103.632 624.364 102.327C623.25 101.985 622.27 101.544 621.616 101.196C620.349 100.64 619.3 100.103 618.314 99.8879C617.457 99.7006 615.361 99.8587 612.732 99.3283C607.141 98.1806 602.73 97.4856 598.214 97.4709C594.433 97.4288 590.756 97.3741 587.068 97.2697C585.219 97.2161 583.38 97.1521 581.467 97.0471C579.356 96.865 578.239 97.0494 574.353 96.1574C569.277 94.7469 561.913 94.1446 554.354 93.1887C550.341 92.5026 549.386 90.6613 548.637 89.8605C548.014 89.0253 547.727 88.4352 547.477 87.9113C547.036 86.9504 546.822 86.2547 546.629 85.6145C546.258 84.339 546.042 83.289 545.841 82.2482C544.312 73.418 543.763 65.3406 542.962 56.8244C542.743 54.3822 542.53 51.9373 542.248 49.7063C541.995 47.4653 541.489 45.6572 541.326 45.592C538.555 41.1113 536.616 37.203 534.28 33.6457C532.787 31.3388 531.474 29.1068 530.253 27.3166C529.502 26.0744 528.462 25.1088 528.229 24.8488C523.264 22.8054 520.896 21.6938 517.185 20.8274C515.088 20.2894 510.805 20.1346 507.183 19.9699C503.408 19.8178 499.587 19.7191 495.791 19.633C488.141 19.4634 480.562 19.3514 472.955 19.2268C467.419 19.1369 461.897 19.0427 456.452 18.9328C446.184 18.7267 439.11 16.9118 437.647 16.9221ZM37.8636 282.524C37.8988 282.634 37.9326 282.718 37.9612 282.767C38.034 282.903 38.0138 282.764 37.8636 282.524ZM538.629 265.165C540.632 265.274 542.588 265.356 544.523 265.448C543.522 264.909 542.511 264.371 541.492 263.831C540.514 263.671 539.53 263.509 538.536 263.339C538.566 263.948 538.599 264.557 538.629 265.165ZM560.781 76.8244C560.991 77.5143 561.223 78.1447 561.481 78.7043C562.112 80.1086 563.337 81.6272 563.701 80.1105C563.599 79.8964 563.455 79.555 562.898 78.8313C562.502 78.4769 562.053 77.6381 560.781 76.8244ZM550.373 29.6613C548.414 29.5356 553.657 37.3904 554.763 37.2053C554.917 37.2862 555 37.2482 554.991 37.0627C555.054 36.8874 555.013 36.5482 554.826 35.9699C554.535 35.0513 551.085 29.7802 550.373 29.6613Z" fill="#31260C"/>
<path d="M248.695 70.2949C248.17 74.929 248.977 79.4806 248.977 89.4307C248.977 91.0602 249.44 95.4525 248.695 95.5602C244.555 96.5168 240.095 97.8817 233.953 98.5152C226.145 99.5668 220.726 100.655 216.538 101.578L216.165 101.661C210.182 102.981 206.749 103.739 196.694 103.897C190.036 104.001 178.329 104.001 168.275 104.54C158.221 105.078 150.068 106.124 141.899 106.646C133.73 107.169 125.781 107.041 120.952 107.277C114.446 107.593 110.248 109.186 103.087 109.389C92.0136 109.703 81.6774 110.412 75.3651 110.761C71.5831 110.97 69.3164 111.707 67.0377 112.028C62.4987 112.668 55.5074 114.134 50.7852 116.149C47.0665 117.736 42.3015 119.149 37.9916 121.651C30.1773 126.187 24.5189 127.147 20.9028 133.263C18.5842 137.184 18.0908 142.2 18.2769 145.942C18.5968 152.376 20.4189 158.217 20.8109 163.155C21.3462 169.898 22.3407 175.004 23.5572 194.006C24.083 202.22 22.6634 207.091 24.9319 217.319C25.9835 222.061 26.8755 225.286 27.7826 229.03C29.3791 235.618 31.3496 244.108 32.4262 248.985C33.3828 253.318 35.2664 256.237 36.5472 258.69C37.8173 261.123 39.114 264.415 39.7115 268.943C40.3514 273.793 39.7173 278.976 42.6763 280.651C45.8502 282.447 48.856 283.555 51.4408 284.661C55.15 286.248 58.8415 288.779 67.7567 288.775C83.645 288.769 87.3892 287.594 96.9581 286.131C101.827 285.386 107.185 283.593 114.696 282.33C119.121 281.585 121.556 280.21 132.336 278.633C138.139 277.784 143.077 275.832 148.582 275.256C150.581 275.047 160.175 272.741 173.536 270.287C181.002 268.915 184.7 267.355 191.179 266.913C208.268 265.747 214.06 264.495 221.762 263.217C226.817 262.377 230.72 263.313 244.257 257.297C248.99 255.193 252.648 253.009 259.157 251.386C261.723 250.746 265.486 249.91 288.153 249.492C310.82 249.074 351.167 249.074 372.095 249.181C393.023 249.289 394.486 249.498 414.603 249.71C434.72 249.923 472.361 249.745 491.596 250.452C511.678 251.19 514.724 251.125 518.666 251.823C522.245 252.457 528.123 251.864 534.507 253.09C539.983 254.142 547.147 255.094 553.505 256.682C556.879 257.525 566.359 256.953 578.136 258.158C584.329 258.792 588.12 259.903 591.829 260.268C596.15 260.692 602.459 262.132 611.579 264.072C618.563 265.557 624.364 267.246 629.098 267.87C633.957 268.51 645.492 268.746 659.624 271.569C663.301 272.304 665.787 273.198 669.237 273.894C678.087 275.681 682.759 276.38 686.535 277.163C691.606 278.215 698.096 278.327 702.794 279.697C707.875 281.18 712.046 282.145 714.612 282.653C717.795 283.283 722.098 283.657 725.806 284.658C728.552 285.399 731.468 286.495 735.004 286.346C742.73 286.02 748.719 285.056 753.05 283.277C756.642 281.801 759.416 280.554 764.77 278.525L764.979 278.446C767.959 277.318 770.72 276.273 772.258 273.771C773.949 271.018 775.665 267.704 775.948 263.511C776.483 255.586 776.715 249.157 777.956 244.202C778.802 240.825 778.536 238.098 779.964 234.487C781.551 230.474 782.988 226.212 783.762 222.454C784.503 218.855 785.323 214.561 786.404 209.885C787.455 205.337 789.117 200.319 789.251 188.824C789.356 179.895 789.543 163.166 789.248 154.485C788.931 145.173 789.154 143.743 788.507 142.636C787.025 140.098 785.553 136.797 781.424 134.508C778.574 132.927 774.986 131.117 768.856 129.018C764.839 127.644 757.243 126.628 750.909 126.278C749.014 126.174 739.573 124.987 727.117 121.198C719.86 118.99 715.045 116.511 707.01 114.429C692.759 110.735 682.886 108.616 681.651 108.328C678.467 107.587 673.669 108.002 657.853 105.579C651.651 104.628 646.271 103.887 638.823 102.189C628.173 99.7632 621.485 97.9905 618.801 97.4477C608.351 95.335 602.95 93.5972 594.582 93.4408L593.971 93.4294C583.107 93.2265 575.362 93.0819 573.207 92.4874C568.238 91.1158 560.235 90.5049 552.409 89.6398C550.518 89.4307 549.161 77.8033 547.709 61.7585C546.968 53.5673 546.608 50.3721 545.064 47.9766C542.952 44.6982 540.994 40.8071 538.197 36.5672C534.919 31.5974 532.352 26.6285 528.907 25.389C526.265 24.4388 522.935 22.5642 517.054 21.1604L516.99 21.1451C514.749 20.6092 511.3 19.7849 472.091 19.3707C432.507 18.9526 358.71 18.9526 321.38 19.0603C284.051 19.168 283.217 19.3956 282.366 19.4816C279.199 19.8015 275.351 19.6056 271.172 22.1265C268.011 24.0333 265.445 26.1133 263.152 29.3167C259.978 33.7513 258.048 38.3192 255.55 41.8791C252.807 45.7878 251.457 48.7119 250.7 52.0152C249.855 55.7085 250.055 58.3089 248.695 70.2949Z" fill="#13546A"/>
<path d="M420.457 11.7188C427.888 11.7118 428.522 12.7458 434.45 12.8594C447.075 13.1012 459.997 12.724 472.164 12.4903C475.867 12.4211 479.462 12.3655 482.969 12.3457C489.745 12.3095 496.896 12.5032 503.724 12.919C492.872 15.138 516.629 18.1974 507.879 13.6612C511.542 14.1691 514.543 14.0747 518.564 14.835C522.232 15.495 526.147 16.6449 529.562 18.2657C530.226 18.5714 530.785 18.8375 531.195 19.0274C535.005 20.6288 536.543 22.8753 537.999 24.7979C539.409 26.7799 540.56 28.8168 542.023 31.1075C542.473 31.8122 542.922 32.4954 543.375 33.1514C546.197 37.2439 548.666 41.468 550.638 44.3848C553.416 48.9728 553.22 52.0436 553.374 54.252C553.396 56.4995 553.073 58.1105 552.375 59.1055C552.473 59.846 552.562 60.579 552.648 61.3116C553.393 67.6317 553.848 73.4898 554.613 78.1914C554.915 80.0409 555.273 81.7302 555.708 83.1162C559.879 83.8881 566.147 85.5153 569.45 86.2549C570.23 86.4325 571.977 86.7302 574.584 87.5C575.512 87.8054 579.837 88.1178 583.366 88.3028C587.099 88.503 591.081 88.6672 594.668 88.8174C600.261 89.0198 604.84 90.019 606.435 90.3272C610.131 91.0589 615.571 92.3801 619.679 93.1055C621.137 93.3799 622.262 93.6219 623.209 93.792C628.121 94.6915 632.04 92.9535 639.81 97.8584C639.864 97.893 639.919 97.9278 639.974 97.9629C648.174 99.5722 651.982 100.052 658.51 101.292C659.831 101.541 661.235 101.803 662.812 102.084C664.49 102.381 664.619 102.867 665.622 102.996C667.661 103.256 671.171 103.319 674.809 103.568C677.936 103.8 680.413 104.123 682.508 104.647C683.816 104.975 684.521 104.979 684.348 104.201C688.377 104.843 692.406 105.524 696.424 106.237C697.745 106.855 699.065 107.478 700.378 108.103C702.566 108.32 704.749 108.545 706.941 108.782C706.036 109.221 706.758 109.757 708.097 110.233C711.379 111.32 718.013 112.727 714.863 110.715C719.806 112.683 724.145 114.846 728.558 116.464C731.157 117.426 733.784 118.318 736.436 119.138C734.731 121.524 753.015 122.704 751.155 120.768C751.18 120.769 751.2 120.771 751.213 120.772C752.11 120.823 753.003 120.885 753.894 120.957C759.352 121.905 764.143 122.186 770.522 124.15C773.294 125.112 776.224 126.254 779.315 127.864C781.211 128.856 782.633 129.719 783.699 130.405C788.682 133.951 788.032 134.734 788.993 137.343C789.923 138.629 790.656 139.948 791.313 140.996C792.404 143.042 792.174 144.117 792.314 145.066C793.609 149.594 793.623 151.911 793.357 154.346C792.877 158.534 791.386 162.447 792.819 175.203C791.893 178.206 791.581 183.26 791.55 188.852C791.586 195.383 791.108 203.038 789.881 208.698C789.708 209.627 789.884 209.903 789.865 210.686C789.858 210.926 789.835 211.213 789.779 211.578C789.339 214.345 787.995 220.116 787.675 223.26C787.52 224.634 787.506 225.496 787.878 225.478C786.59 229.125 785.031 232.471 783.367 235.735C783.358 235.764 783.349 235.793 783.34 235.822C782.665 238.014 782.824 240.223 782.464 243.655C782.843 243.708 783.223 243.76 783.603 243.812C783.406 244.329 783.198 244.884 782.971 245.458C780.827 249.943 780.948 258.329 780.354 262.437C780.288 262.92 780.1 263.19 779.889 263.777C779.696 264.384 779.489 265.262 779.111 266.756C778.54 269.218 777.021 272.828 775.234 275.6C773.884 277.816 771.812 279.166 770.326 279.872C769.022 281.181 767.694 282.25 766.568 283.274C766.509 283.328 766.451 283.381 766.393 283.434C760.72 285.907 757.954 285.808 754.525 286.867C754.148 286.989 753.762 287.115 753.369 287.246C752.971 287.415 749.175 288.673 745.462 289.241C741.742 289.869 738.092 290.105 737.719 290.149C736.692 290.258 735.891 290.371 735.18 290.492C732.3 290.918 729.667 291.048 724.451 289.677C722.581 289.239 719.918 288.861 715.652 288.152C714.967 288.032 714.292 287.886 713.61 287.71C711.317 287.102 709.403 286.358 707.246 285.798C705.898 285.446 703.79 284.963 701.42 284.407C696.708 283.471 688.13 283.693 687.03 284.032C686.511 283.848 685.913 283.655 685.234 283.438C681.335 282.071 673.776 280.773 668.095 279.552C664.71 278.831 662.26 278.035 660.979 277.628C660.173 277.36 659.859 276.921 658.66 276.393C657.976 276.106 657.038 275.79 655.615 275.479C652.299 274.693 643.525 274.161 639.19 273.728C634.585 273.217 632.944 272.482 630.782 272.239C630.065 272.159 629.343 272.142 628.539 272.113C627.079 272.062 625.549 272.009 623.739 271.624C618.895 270.565 614.708 269.183 610.72 268.109C607.51 267.239 604.482 266.413 601.621 265.807C598.014 265.049 594.469 264.544 591.409 264.546C585.804 264.303 581.733 263.852 577.546 263.923C576.972 263.922 576.409 263.922 575.843 263.92C573.934 263.65 572.052 263.19 570.002 263.08C567.343 262.935 564.63 262.848 561.827 262.766C558.877 262.609 556.586 262.848 552.181 261.984C546.402 260.506 540.124 259.625 533.5 258.333C528.885 257.322 524.564 257.81 517.76 256.942C509.993 255.845 500.015 255.876 491.416 255.348C490.617 255.308 489.732 255.268 488.934 255.233C476.921 254.665 446.688 252.519 454.738 256.006C450.654 256.556 421.673 255.206 414.548 255.01C414.317 255.004 414.111 255 413.931 254.997C408.085 254.914 403.446 255.467 398.844 255.398C389.158 255.241 381.565 254.936 372.065 254.944C368.001 254.947 363.561 255.004 358.47 255.156C354.132 255.288 349.463 256.02 346.887 256.011C343.782 255.998 340.439 255.289 336.42 255.25C326.837 255.156 308.985 255.471 299.807 255.458C298.12 255.453 297.524 254.835 295.139 254.671C292.825 254.514 290.459 254.414 288.243 254.384C281.377 254.287 275.891 254.903 277.307 256.355C271.273 256.023 264.928 256.147 260.641 257.336C255.946 258.577 252.257 260.793 246.916 263.279C246.879 263.296 246.842 263.313 246.805 263.33C243.667 264.732 240.078 266.238 235.855 267.489C231.834 268.833 225.851 269.303 222.836 269.687C213.179 271.476 201.786 272.784 191.625 273.446C186.412 273.729 180.712 275.76 174.744 276.863C169.343 277.935 164.523 279.03 160.561 280.027C155.655 281.227 153.603 282.07 149.383 282.911C146.197 283.426 143.64 284.828 133.473 286.404C132.245 286.542 130.915 286.698 129.496 286.885C125.373 287.369 122.576 288.123 116.207 289.268C116.096 289.284 115.984 289.299 115.871 289.314C109.96 289.979 104.396 291.202 97.8721 292.111C93.1485 292.671 88.5313 293.712 84.0948 295.062C78.0174 295.446 72.7049 295.434 67.7598 295.322C64.2899 295.245 60.7667 294.796 57.4346 293.691C54.0998 292.628 51.1427 290.751 49.3604 289.524C49.0561 289.329 48.7421 289.13 48.4229 288.926C47.2171 288.867 45.9465 288.79 44.6251 288.657C42.9971 287.958 41.3065 287.162 39.6466 286.238C39.6255 286.198 39.6041 286.157 39.5831 286.116C38.6136 285.156 37.8823 283.987 37.5059 282.899C35.1673 279.561 35.272 277.087 34.9464 275.035C34.7257 272.974 34.5953 271.173 34.2989 269.657C33.7305 266.631 32.6558 263.878 31.1641 261.501C29.3817 258.781 26.8669 254.409 25.9776 250.408C25.6364 249.068 25.3184 247.77 25.0421 246.548C24.1336 242.539 22.8767 236.925 21.4112 230.573C20.5871 227.01 19.5431 222.938 18.6719 218.708C17.7865 214.566 17.2922 209.962 17.3516 205.653C17.4032 201.322 17.6969 197.744 17.5245 194.393C17.1091 185.001 16.5445 176.771 16.1251 171.514C15.8228 167.633 15.4757 165.365 15.3565 163.588C15.2419 162.026 15.243 160.836 15.6827 158.228C15.2263 156.447 14.7353 154.593 14.3009 152.662C13.7324 151.502 13.1828 150.3 12.6729 149.041C12.5758 148.131 12.5015 147.193 12.4591 146.231C12.2968 141.216 12.9181 135.746 16.0928 130.419C18.2149 126.797 21.9278 123.894 24.9903 122.323C28.0915 120.678 30.6976 119.614 32.9796 118.397C33.7667 117.983 34.5544 117.549 35.3419 117.085C39.642 114.529 44.6333 112.894 48.6456 111.136C54.5275 108.642 60.1864 107.365 66.2383 106.356C68.1745 106.012 71.8628 105.08 75.043 104.941C83.3029 104.384 91.4162 103.914 98.2803 103.91C99.741 103.908 101.318 103.964 102.936 104.045C106.157 104.261 109.571 104.082 112.774 103.523C116.01 102.969 118.263 102.397 120.693 101.964C123.214 101.507 125.802 101.135 130.166 101.049C133.462 100.981 137.358 100.965 141.525 100.813C149.52 100.514 159.166 99.7293 168.008 99.5537C174.848 99.4014 181.065 99.4511 185.745 99.3438C189.864 99.2561 191.78 98.7662 194.595 98.6817C195.281 98.6608 195.953 98.6397 196.611 98.6182C203.703 98.4276 208.959 97.817 215.322 96.0655C218.854 95.1693 222.49 94.298 226.294 93.4268C229.305 93.2318 231.541 93.2374 233.256 93.3379C233.288 93.3339 233.384 93.3225 233.417 93.3194C238.346 93.7884 238.671 94.8411 241.682 95.462C243.13 95.7476 246.066 95.97 248.834 96.295C250.355 95.5681 249.88 95.1568 250.202 94.7627C250.37 94.368 250.503 94.0038 250.629 93.6495C250.879 92.9435 251.091 92.2932 251.29 91.7217C251.683 90.5784 252.031 89.7624 252.305 89.5342C252.363 89.4698 252.425 89.4311 252.488 89.4121C251.814 89.2034 251.025 85.3795 250.228 84.833C249.426 84.2803 244.47 84.8501 243.945 79.5235C243.77 77.2621 243.445 73.9789 243.982 69.7598C245.003 63.3919 245.496 56.5818 246.811 51.1241C247.269 49.3787 247.798 48.0104 248.113 47.1875C249.049 44.7058 250.341 41.9271 251.956 39.3575C252.287 38.8104 252.625 38.2222 252.978 37.6094C255.143 33.7461 257.036 29.9099 259.367 26.6075C261.786 23.0735 265.034 20.1673 268.53 17.7461C270.371 16.4698 272.627 15.3556 275.076 14.6182C277.76 14.3708 280.178 14.6571 281.893 14.7989C284.679 14.9099 286.654 15.2893 288.928 15.5752C294.511 15.1886 302.932 16.0028 306.357 15.9375C309.081 15.8846 310.79 15.3604 313.628 15.3252C315.649 15.2992 318.213 15.4913 321.37 15.6221C323.281 15.7054 325.479 15.7644 327.761 15.7266C337.43 15.5705 339.186 14.2227 344.964 14.044C350.999 13.8594 360.334 14.5851 368.023 14.1114C368.986 13.9632 369.963 13.815 370.916 13.667C370.231 13.332 369.538 12.9971 368.844 12.6621C372.708 12.5063 374.386 13.1931 377.93 13.2071C382.12 13.224 384.252 12.5746 387.064 12.5801C389.369 12.5852 392.494 13.1107 395.485 13.0821C399.844 13.0432 398.892 12.2886 401.237 12.1514C402.177 12.096 419.467 11.7194 420.457 11.7188ZM437.685 22.9873C434.608 22.9981 432.628 23.7906 426.371 23.9668C405.594 24.5439 377.603 23.6635 357.827 24.0782C348.076 24.2807 334.658 25.3151 325.053 25.5655C323.983 25.5927 322.728 25.6107 321.399 25.6211C312.676 25.6834 298.813 25.5137 295.883 25.9327C293.835 26.2211 292.849 27.0962 290.425 27.2354C288.333 27.3629 284.735 26.9009 283.124 26.9854C283.02 26.9942 282.918 27.0023 282.817 27.0108C277.387 27.2927 276.725 27.5201 274.938 28.3692C272.34 29.8279 270.671 30.9579 268.791 33.3526C268.247 34.0646 267.688 34.8594 267.097 35.7764C265.654 37.9014 264.189 41.1686 261.077 45.7578C259.234 48.3592 257.854 50.7476 257.214 53.5069C256.688 55.5488 256.498 58.7387 256.144 61.8809C255.808 65.0284 255.412 68.1143 254.981 71.0078C254.393 74.8873 254.702 80.2603 254.308 83.7217C253.996 87.133 253.429 89.2431 252.7 89.417C253.378 89.6244 254.226 91.4396 254.862 90.4668C254.943 91.3248 255.028 92.2369 255.067 93.251C255.085 93.7719 255.099 94.2926 255.052 95.0254C255.022 95.4029 254.996 95.7965 254.839 96.5C254.741 96.8839 254.66 97.2912 254.265 98.1016C253.882 98.7031 253.06 100.841 249.558 101.522L250.052 101.43C244.593 102.947 239.417 104.092 234.545 104.247L234.723 104.227C230.879 104.484 227.049 104.662 222.291 105.106C220.704 105.42 219.127 105.754 217.538 106.108C211.098 107.753 203.448 108.549 196.768 108.577C187.235 108.721 177.826 108.764 168.528 109.273C164.449 109.499 160.369 109.836 156.25 110.216C154.232 109.948 152.199 109.69 150.159 109.425L150.158 109.422C146.859 109.519 144.294 109.773 142.117 110.065C138.682 110.521 136.24 111.09 133.426 111.322C129.586 111.646 125.335 111.819 121.19 112.149C116.359 112.469 110.434 114.449 103.238 114.718C94.6033 115.102 85.3952 115.733 75.6729 116.323C73.2485 116.433 71.4275 116.947 67.8155 117.548C62.7903 118.285 57.2809 119.466 52.9503 121.222C48.1758 123.165 44.093 124.392 40.711 126.336C37.3909 128.249 33.8857 129.755 31.0958 131.17C28.255 132.621 26.6415 133.863 25.3878 135.914C23.8715 138.351 23.2014 142.15 23.3301 145.691C23.469 150.976 25.0755 156.259 25.6485 162.771C26.5319 172.717 27.5054 182.761 27.962 191.168C28.0083 191.92 28.0609 192.739 28.1251 193.714C28.3544 196.704 28.2562 200.679 28.2344 204.518C28.2154 208.366 28.6194 212.261 29.5548 216.294C30.4509 220.279 31.5117 224.186 32.3995 227.911C33.7782 233.726 34.7838 238.503 35.0665 240.742C35.2958 242.58 34.739 243.233 35.1436 245.152C35.4001 246.174 35.6548 247.196 35.9053 248.217C36.6277 251.201 38.0221 253.63 39.9259 256.926C41.8968 260.486 43.1454 264.47 43.7413 268.412C44.098 270.765 44.1803 272.943 44.4151 274.733C44.4959 275.841 44.8276 276.622 44.9639 276.932C47.4512 278.249 50.139 279.222 53.2442 280.446C55.2992 281.295 56.8117 282.042 58.3194 282.548C61.1599 283.752 64.3071 284.263 67.755 284.332C77.5241 284.636 86.3427 283.782 96.3233 281.981C101.646 281.1 107.778 279.144 113.987 278.116C118.897 277.021 125.765 275.035 131.694 274.249C136.586 273.534 141.775 271.439 148.105 270.692C152.292 269.901 158.019 268.542 163.024 267.531C166.238 266.868 169.453 266.23 172.68 265.622C178.186 264.675 184.066 262.532 190.851 262.099C201.112 261.386 210.773 260.239 220.947 258.314C225.714 257.647 228.504 257.585 231.961 256.541C235.322 255.585 238.769 254.195 242.195 252.656C246.635 250.599 252.198 247.728 257.911 246.391C263.635 245.018 268.424 245.01 273.379 244.703C278.324 244.471 283.159 244.335 288.056 244.224C316.186 243.671 344.178 243.61 372.124 243.667C386.371 243.673 400.541 244.029 414.662 244.158C427.04 244.276 439.528 244.283 451.965 244.366C464.049 244.458 478.203 244.284 491.809 244.686C499.097 244.931 506.074 245.132 512.609 245.539C515.113 245.704 517.446 246.027 519.595 246.572C522.224 247.358 526.341 247.181 533.781 247.637C533.853 247.949 533.923 248.262 533.991 248.575C534.445 248.63 534.895 248.691 535.339 248.758C542.05 249.698 547.242 249.772 554.817 251.431C555.072 251.479 556.201 251.587 557.269 251.633C561.419 251.837 570.375 251.776 578.698 252.663C584.372 253.205 589.685 254.562 592.365 254.814C593.311 254.916 594.118 255.035 594.793 255.144C598.774 255.841 597.188 256.148 600.738 256.831C603.614 257.401 607.996 258.173 612.662 258.978C617.946 259.885 623.474 261.155 627.377 261.894C628.164 262.043 628.995 262.195 629.829 262.32C636.635 263.068 647.808 264.435 652.902 265.244C655.457 265.591 658.039 265.99 660.646 266.455C664.225 267.085 667.473 268.086 670.315 268.557C676.009 269.585 681.556 270.338 687.726 271.421C692.316 272.287 697.831 272.08 704.507 273.826C708.273 274.889 712.115 275.877 715.8 276.651C716.322 276.76 716.897 276.865 717.496 276.968C720.29 277.45 723.937 278.073 727.287 279.17C730.515 280.311 732.096 280.868 732.83 280.931C733.667 281.028 734.271 280.954 734.772 280.83C736.394 280.531 737.379 280.124 738.979 279.931C742.707 279.465 747.161 278.854 750.667 277.478C754.363 275.987 758.564 274.283 762.622 272.858C765.703 271.844 767.169 270.966 767.254 270.696C768.968 268.074 769.843 265.961 770.121 264.011C770.164 263.717 770.196 263.421 770.217 263.124C770.74 256.758 770.676 250.345 772.404 242.812C773.002 240.806 772.919 236.606 774.636 232.38C776.094 228.668 777.394 224.862 778.131 221.294C778.966 217.171 779.791 212.875 780.776 208.584C782.662 201.494 783.385 195.697 783.431 188.756C783.527 177.269 783.692 165.7 783.408 154.684C783.341 152.654 783.29 150.644 783.249 148.639C783.228 147.651 783.21 146.641 783.18 145.754C783.201 145.469 783.157 145.153 783.121 144.934C783.044 144.796 782.967 144.664 782.895 144.535C781.432 141.87 780.523 140.667 778.614 139.575C775.111 137.596 771.309 135.965 766.984 134.485C762.669 133.12 756.302 132.377 750.592 132.022C741.19 131.049 733.328 128.993 725.471 126.609C717.512 124.08 711.321 121.142 705.648 119.68C704.05 119.236 702.516 118.812 701.059 118.409C696.162 117.065 697.654 116.644 693.504 115.635C688.9 114.527 686.277 114.463 684.122 114.017C683.001 113.784 681.88 113.561 680.499 113.273C678.641 112.93 674.114 112.847 670.081 112.462C665.921 112.102 661.501 111.575 657.032 110.936C650.62 110.047 643.71 109.009 637.596 107.576C630.996 106.07 625.117 104.551 621.01 103.392C619.736 103.033 618.641 102.6 617.825 102.272C616.762 101.885 615.852 101.532 615.011 101.355C614.179 101.179 612.205 101.172 609.632 100.649C603.98 99.4796 599.24 98.6875 594.484 98.6631C590.795 98.6133 587.21 98.5575 583.625 98.459C581.83 98.4085 580.045 98.3489 578.21 98.253C576.247 98.1022 574.927 98.2045 571.821 97.5108C566.332 96.0671 559.243 95.5696 551.853 94.6778C547.583 93.6303 547.821 91.9569 547.225 91.3653C546.82 90.608 546.647 90.1133 546.462 89.586C546.13 88.6022 545.928 87.7628 545.745 86.9434C544.078 78.4251 543.563 70.5354 542.746 62.208C542.324 57.8288 541.902 52.0323 540.853 50.6914C538.245 46.603 536.311 42.8205 533.974 39.3535C532.544 37.2064 531.266 35.0866 530.012 33.295C528.834 31.5094 527.276 30.101 527.172 30.211C522.52 28.353 519.682 27.0583 515.852 26.1973C510.027 25.133 501.662 25.2049 494.389 24.9707C486.892 24.806 479.478 24.7005 472.036 24.5938C466.632 24.5171 461.242 24.4426 455.933 24.3584C445.967 24.2015 439.1 22.9824 437.685 22.9873ZM535.352 257.605C537.279 257.785 539.176 257.93 541.056 258.082C540.054 257.671 539.047 257.262 538.034 256.848C537.084 256.692 536.127 256.533 535.165 256.364C535.226 256.778 535.289 257.192 535.352 257.605ZM556.065 84.1426C556.365 84.902 556.709 85.5446 557.037 85.8506C557.196 85.9956 557.361 86.0638 557.414 85.876C557.376 85.6842 557.69 85.2185 555.951 83.7344C555.936 83.7243 555.92 83.7145 555.904 83.7041C555.958 83.8544 556.01 84.0013 556.065 84.1426ZM545.286 37.5362C544.332 37.2729 546 40.2437 547.508 42.4463C549.032 44.6601 550.494 45.9945 549.523 43.7705C549.118 42.8428 545.828 37.7024 545.286 37.5362Z" fill="white"/>
<path d="M694.549 226.386C691.373 225.695 688.701 224.826 686.535 223.779C684.368 222.731 682.504 221.306 680.945 219.504C677.699 215.872 676.905 210.245 678.562 202.623C680.034 195.847 683.057 191.427 687.63 189.361C691.903 187.452 696.962 187.133 702.805 188.403C705.304 188.946 707.414 189.538 709.138 190.178C710.87 190.777 712.564 191.655 714.219 192.813C715.917 193.98 717.173 195.34 717.989 196.892C718.847 198.453 719.382 200.476 719.596 202.962C719.819 205.405 719.585 208.214 718.895 211.39C717.496 217.826 714.621 222.279 710.27 224.748C705.929 227.175 700.689 227.72 694.549 226.386ZM695.018 213.517C694.983 215.106 695.082 216.08 695.314 216.441C695.588 216.811 695.979 217.052 696.487 217.162C697.038 217.282 697.493 217.226 697.854 216.994C698.257 216.771 698.752 215.925 699.337 214.456C699.965 212.996 700.527 211.122 701.024 208.836C701.531 206.507 701.854 204.715 701.994 203.459C702.185 202.17 702.27 201.169 702.248 200.454C702.268 199.749 702.192 199.179 702.021 198.742C701.76 198.109 701.354 197.732 700.803 197.613C700.295 197.502 699.835 197.58 699.423 197.845C699.019 198.068 698.499 198.93 697.862 200.432C697.235 201.892 696.612 204.041 695.996 206.878C695.379 209.715 695.053 211.928 695.018 213.517Z" fill="white"/>
<path d="M644.571 217.44C640.671 216.857 637.765 215.481 635.855 213.312C635.027 212.4 634.383 211.142 633.921 209.54C633.502 207.944 633.443 206.139 633.744 204.124C634.045 202.11 634.779 200.423 635.946 199.064C637.156 197.711 638.507 196.73 640.001 196.121C641.494 195.511 643.2 195.087 645.12 194.848C648.014 194.536 651.133 194.629 654.476 195.129L656.597 195.446C656.86 193.688 656.424 192.353 655.29 191.438C654.864 191.068 654.115 190.803 653.043 190.643C652.015 190.489 650.709 190.579 649.125 190.912C647.585 191.251 646.277 191.647 645.202 192.1C644.133 192.51 643.427 192.689 643.084 192.638C642.313 192.523 641.413 191.359 640.385 189.146C639.364 186.89 638.978 184.927 639.228 183.255C639.311 182.698 640.213 182.088 641.933 181.425C643.653 180.762 646.004 180.281 648.984 179.981C652.013 179.645 654.9 179.682 657.643 180.091C660.385 180.501 662.707 181.089 664.608 181.855C666.559 182.585 668.107 183.364 669.254 184.192C670.444 185.027 671.387 186.044 672.084 187.244C672.824 188.45 673.345 189.513 673.645 190.434C673.988 191.362 674.186 192.531 674.238 193.941C674.259 195.565 674.096 197.534 673.75 199.848L670.86 219.198C670.789 219.67 669.574 219.883 667.215 219.837C664.905 219.755 662.615 219.544 660.343 219.205C658.115 218.872 656.667 218.59 656.001 218.359C655.377 218.134 655.014 217.927 654.911 217.736C654.808 217.545 654.745 217.229 654.724 216.788L654.757 213.047L654.242 212.97C652.595 216.667 649.371 218.157 644.571 217.44ZM654.779 208.055L655.903 200.534C654.789 200.367 653.818 200.704 652.992 201.545C652.165 202.385 651.662 203.405 651.483 204.605C651.06 207.434 651.492 208.944 652.778 209.136C653.335 209.22 653.783 209.155 654.121 208.943C654.509 208.694 654.728 208.398 654.779 208.055ZM674.353 176.016C674.257 176.659 672.992 177.499 670.559 178.538C668.168 179.583 666.137 179.98 664.466 179.731C662.837 179.487 660.92 178.829 658.715 177.754C656.558 176.643 655.137 176.037 654.452 175.934C653.809 175.838 652.487 176.035 650.486 176.525C648.491 176.972 647.108 177.138 646.337 177.022C645.565 176.907 644.863 176.035 644.23 174.407C643.646 172.743 643.415 171.503 643.537 170.689C643.646 169.961 644.957 169.105 647.469 168.122C650.031 167.103 652.084 166.708 653.627 166.939C655.17 167.169 657.001 167.815 659.121 168.877C661.283 169.945 662.858 170.552 663.843 170.7C664.143 170.744 665.248 170.537 667.157 170.077C669.108 169.624 670.491 169.458 671.306 169.58C672.163 169.708 672.901 170.629 673.522 172.343C674.185 174.063 674.462 175.287 674.353 176.016Z" fill="white"/>
<path d="M608.379 212.972C605.147 212.627 602.398 212.051 600.131 211.242C597.864 210.433 595.858 209.217 594.114 207.592C590.497 204.33 589.102 198.821 589.931 191.065C590.667 184.171 593.197 179.451 597.522 176.906C601.565 174.548 606.56 173.687 612.506 174.322C615.048 174.594 617.21 174.955 618.993 175.407C620.779 175.816 622.558 176.507 624.328 177.48C626.141 178.458 627.536 179.675 628.514 181.13C629.534 182.59 630.284 184.544 630.764 186.993C631.248 189.398 631.317 192.216 630.972 195.447C630.273 201.997 627.893 206.733 623.833 209.655C619.778 212.534 614.627 213.64 608.379 212.972ZM607.462 200.128C607.598 201.711 607.801 202.67 608.071 203.003C608.383 203.342 608.798 203.539 609.315 203.594C609.875 203.654 610.322 203.549 610.656 203.279C611.033 203.015 611.433 202.12 611.857 200.597C612.325 199.078 612.683 197.155 612.931 194.828C613.184 192.458 613.313 190.642 613.317 189.378C613.369 188.077 613.345 187.072 613.247 186.364C613.191 185.661 613.055 185.101 612.837 184.686C612.509 184.084 612.065 183.754 611.505 183.694C610.988 183.639 610.539 183.765 610.157 184.073C609.781 184.338 609.356 185.251 608.884 186.813C608.417 188.332 608.029 190.535 607.721 193.422C607.413 196.309 607.326 198.544 607.462 200.128Z" fill="white"/>
<path d="M581.215 214.446C580.278 215.85 578.966 216.767 577.28 217.198C575.633 217.675 573.773 217.832 571.7 217.667C569.67 217.505 568.183 217.343 567.239 217.181C566.293 217.063 565.291 216.809 564.235 216.421C563.219 216.079 562.428 215.647 561.861 215.123C560.571 213.847 560.024 211.978 560.22 209.516C560.502 205.973 561.55 204.274 563.365 204.419C563.926 204.464 564.365 204.411 564.681 204.263C565.533 203.939 566.05 202.633 566.232 200.343L568.918 166.585C568.994 165.635 570.299 164.804 572.833 164.093C575.414 163.342 578.108 163.078 580.916 163.301C585.193 163.642 587.25 164.827 587.089 166.857L584.238 202.689C584 205.67 583.682 208.035 583.282 209.786C582.882 211.536 582.193 213.09 581.215 214.446Z" fill="white"/>
<path d="M522.926 206.414C519.68 206.251 516.903 205.829 514.594 205.149C512.285 204.469 510.214 203.367 508.382 201.843C504.587 198.789 502.885 193.367 503.277 185.577C503.624 178.652 505.886 173.798 510.061 171.014C513.965 168.433 518.904 167.293 524.876 167.593C527.429 167.721 529.608 167.961 531.413 168.312C533.22 168.619 535.034 169.209 536.856 170.082C538.721 170.957 540.183 172.093 541.241 173.491C542.342 174.892 543.2 176.8 543.817 179.218C544.435 181.592 544.663 184.402 544.5 187.648C544.169 194.226 542.059 199.088 538.17 202.233C534.283 205.336 529.201 206.729 522.926 206.414ZM521.29 193.641C521.514 195.214 521.771 196.16 522.058 196.478C522.389 196.798 522.815 196.971 523.334 196.997C523.896 197.026 524.337 196.896 524.655 196.608C525.016 196.323 525.366 195.407 525.704 193.862C526.085 192.32 526.335 190.38 526.452 188.043C526.572 185.662 526.598 183.841 526.531 182.58C526.51 181.277 526.43 180.275 526.292 179.574C526.197 178.875 526.029 178.324 525.789 177.922C525.428 177.339 524.966 177.034 524.403 177.006C523.884 176.98 523.442 177.131 523.079 177.46C522.717 177.746 522.345 178.681 521.961 180.268C521.58 181.81 521.317 184.032 521.171 186.931C521.025 189.831 521.065 192.067 521.29 193.641Z" fill="white"/>
<path d="M472.137 204.48C468.196 204.368 465.147 203.349 462.991 201.423C462.06 200.616 461.27 199.445 460.62 197.909C460.014 196.375 459.74 194.589 459.798 192.553C459.856 190.518 460.383 188.755 461.379 187.266C462.419 185.779 463.643 184.643 465.053 183.86C466.462 183.076 468.106 182.451 469.983 181.985C472.82 181.329 475.928 181.049 479.306 181.146L481.45 181.207C481.501 179.431 480.909 178.157 479.674 177.384C479.206 177.068 478.43 176.894 477.348 176.863C476.308 176.833 475.022 177.078 473.49 177.598C472.001 178.119 470.75 178.669 469.736 179.247C468.724 179.781 468.045 180.044 467.698 180.034C466.918 180.012 465.886 178.963 464.602 176.889C463.318 174.772 462.701 172.868 462.749 171.179C462.765 170.616 463.587 169.902 465.216 169.039C466.845 168.175 469.12 167.416 472.044 166.762C475.011 166.067 477.881 165.759 480.654 165.838C483.426 165.917 485.801 166.223 487.78 166.757C489.804 167.248 491.434 167.836 492.672 168.522C493.953 169.209 495.011 170.106 495.846 171.213C496.725 172.322 497.369 173.316 497.777 174.195C498.229 175.075 498.565 176.211 498.785 177.605C498.999 179.215 499.073 181.19 499.006 183.529L498.448 203.086C498.434 203.562 497.254 203.919 494.906 204.155C492.603 204.349 490.303 204.414 488.008 204.348C485.755 204.284 484.284 204.177 483.595 204.027C482.949 203.879 482.563 203.716 482.438 203.539C482.313 203.362 482.214 203.056 482.139 202.62L481.725 198.902L481.206 198.887C480.011 202.754 476.989 204.619 472.137 204.48ZM481.152 193.943L481.369 186.342C480.243 186.309 479.319 186.76 478.599 187.693C477.879 188.626 477.501 189.699 477.467 190.912C477.385 193.771 477.994 195.219 479.293 195.256C479.857 195.272 480.293 195.154 480.604 194.903C480.959 194.61 481.142 194.29 481.152 193.943ZM496.758 159.795C496.739 160.445 495.584 161.43 493.292 162.752C491.043 164.075 489.074 164.713 487.385 164.664C485.739 164.617 483.757 164.192 481.439 163.389C479.165 162.544 477.682 162.111 476.989 162.092C476.339 162.073 475.05 162.426 473.122 163.152C471.195 163.834 469.842 164.164 469.062 164.141C468.283 164.119 467.481 163.338 466.658 161.797C465.88 160.214 465.502 159.011 465.526 158.188C465.547 157.452 466.746 156.445 469.123 155.169C471.545 153.851 473.536 153.215 475.095 153.259C476.655 153.304 478.55 153.726 480.781 154.527C483.056 155.329 484.692 155.744 485.688 155.772C485.991 155.781 487.063 155.443 488.903 154.759C490.787 154.075 492.14 153.746 492.963 153.769C493.829 153.794 494.673 154.62 495.493 156.247C496.357 157.876 496.779 159.058 496.758 159.795Z" fill="white"/>
<path d="M451.047 200.684C449.736 201.623 447.908 202.405 445.561 203.029C443.258 203.611 440.265 203.882 436.582 203.842C432.942 203.802 429.479 203.461 426.192 202.819C422.906 202.176 420.551 201.479 419.129 200.727C417.708 199.975 417 199.252 417.008 198.559C417.034 196.132 417.408 193.623 418.13 191.03C418.852 188.395 419.69 187.082 420.643 187.092C420.816 187.094 422.608 187.699 426.018 188.906C429.429 190.113 432.001 190.726 433.734 190.745C435.467 190.764 436.596 190.603 437.119 190.262C437.644 189.877 437.909 189.339 437.917 188.645C437.924 187.952 437.454 187.34 436.507 186.81C435.56 186.236 434.373 185.747 432.948 185.341C431.522 184.892 429.969 184.269 428.288 183.47C426.65 182.673 425.121 181.789 423.701 180.82C422.282 179.852 421.105 178.495 420.17 176.752C419.236 174.965 418.782 172.945 418.806 170.691C418.911 161.072 424.704 156.325 436.187 156.45C440.477 156.496 444.178 156.818 447.292 157.415C450.406 157.969 452.588 158.6 453.837 159.307C455.13 159.971 455.773 160.628 455.766 161.278C455.741 163.531 455.173 165.952 454.061 168.54C452.993 171.128 451.961 172.417 450.964 172.406C450.791 172.404 450.23 172.203 449.281 171.803C446.435 170.515 444.058 169.861 442.152 169.84C440.288 169.82 439.008 169.979 438.311 170.319C437.657 170.658 437.327 171.196 437.319 171.933C437.311 172.626 437.781 173.216 438.729 173.703C439.678 174.147 440.843 174.571 442.226 174.976C443.652 175.339 445.184 175.919 446.822 176.717C448.504 177.472 450.054 178.377 451.473 179.432C452.892 180.444 454.068 181.887 455.001 183.761C455.934 185.634 456.387 187.806 456.36 190.276C456.332 192.876 455.635 195.23 454.268 197.339C453.431 198.63 452.357 199.745 451.047 200.684Z" fill="white"/>
<path d="M378.54 203.832C375.29 203.864 372.493 203.611 370.147 203.071C367.801 202.531 365.668 201.556 363.747 200.145C359.775 197.325 357.75 192.015 357.672 184.216C357.602 177.283 359.567 172.301 363.567 169.271C367.309 166.459 372.169 165.024 378.149 164.964C380.706 164.938 382.895 165.046 384.718 165.288C386.54 165.486 388.386 165.966 390.257 166.727C392.172 167.488 393.699 168.534 394.839 169.866C396.023 171.198 396.995 173.051 397.755 175.427C398.516 177.759 398.912 180.551 398.945 183.8C399.011 190.387 397.198 195.367 393.505 198.741C389.811 202.072 384.823 203.768 378.54 203.832ZM376.138 191.18C376.457 192.737 376.769 193.666 377.076 193.966C377.425 194.266 377.86 194.413 378.38 194.408C378.944 194.402 379.375 194.246 379.676 193.94C380.019 193.633 380.313 192.698 380.557 191.136C380.845 189.573 380.977 187.621 380.954 185.281C380.93 182.898 380.846 181.079 380.704 179.824C380.604 178.525 380.464 177.529 380.284 176.838C380.147 176.146 379.946 175.606 379.682 175.219C379.287 174.659 378.807 174.383 378.244 174.388C377.724 174.393 377.292 174.571 376.949 174.921C376.606 175.228 376.29 176.185 376.003 177.791C375.715 179.354 375.586 181.587 375.615 184.49C375.645 187.393 375.819 189.623 376.138 191.18Z" fill="white"/>
<path d="M352.925 169.931L353.632 201.968C353.642 202.445 352.394 202.862 349.888 203.221C347.425 203.535 344.871 203.722 342.229 203.78C339.629 203.837 337.937 203.766 337.153 203.567C336.411 203.323 336.033 202.92 336.021 202.357L335.34 171.489C335.319 170.536 336.512 169.578 338.918 168.614C341.366 167.607 344.042 167.071 346.944 167.007C350.887 166.92 352.88 167.895 352.925 169.931ZM343.71 153.035C346.57 152.972 348.81 153.356 350.432 154.187C352.097 154.974 352.953 156.472 353.002 158.682C353.088 162.581 350.098 164.597 344.033 164.731C337.968 164.864 334.892 162.982 334.807 159.083C334.721 155.184 337.688 153.168 343.71 153.035Z" fill="white"/>
<path d="M329.967 203.504C329.212 204.266 327.448 204.693 324.676 204.785C321.904 204.876 319.603 204.779 317.773 204.493C315.941 204.163 314.184 203.484 312.503 202.456C309.271 200.438 307.544 196.073 307.322 189.36L306.987 179.225L303.739 179.333C303.263 179.348 302.835 178.864 302.455 177.879C302.076 176.894 301.857 175.536 301.8 173.804C301.743 172.071 301.953 170.547 302.429 169.23C302.948 167.869 303.641 167.174 304.507 167.146L306.586 167.077L306.326 159.216C306.281 157.873 307.545 156.748 310.116 155.839C312.731 154.929 315.294 154.432 317.806 154.349C321.747 154.219 323.75 155.128 323.815 157.077L324.126 166.497L328.933 166.338C330.059 166.301 330.676 167.906 330.784 171.155C330.854 173.277 330.652 175.039 330.178 176.442C329.746 177.801 329.14 178.493 328.36 178.519L324.528 178.645L324.921 190.534C324.959 191.703 325.485 192.531 326.498 193.018C327.51 193.462 328.384 193.671 329.121 193.647C329.9 193.621 330.389 193.973 330.586 194.704C330.784 195.435 330.907 196.536 330.956 198.009C331.052 200.91 330.722 202.742 329.967 203.504Z" fill="white"/>
<path d="M298.344 170.436L299.849 203.552C299.871 204.028 298.633 204.475 296.136 204.892C293.681 205.264 291.133 205.51 288.492 205.63C285.895 205.748 284.202 205.717 283.413 205.536C282.665 205.31 282.278 204.915 282.253 204.352L280.8 172.405C280.757 171.453 281.948 170.466 284.374 169.445C286.8 168.424 289.442 167.848 292.299 167.718C296.238 167.539 298.253 168.445 298.344 170.436ZM295.345 154.566C296.34 154.521 297.373 155.298 298.444 156.898C299.558 158.496 300.169 160.507 300.28 162.931C300.309 163.58 298.453 164.25 294.71 164.941C291.009 165.586 287.925 165.965 285.457 166.077C284.635 166.115 283.854 165.63 283.114 164.622C282.417 163.613 282.038 162.437 281.977 161.095C281.914 159.71 283.456 158.317 286.602 156.916C289.79 155.47 292.704 154.686 295.345 154.566Z" fill="white"/>
<path d="M273.052 203.712C271.814 204.744 270.047 205.656 267.751 206.45C265.497 207.197 262.531 207.685 258.855 207.912C255.222 208.137 251.743 208.048 248.418 207.646C245.094 207.244 242.695 206.72 241.222 206.073C239.75 205.426 238.992 204.756 238.949 204.064C238.799 201.642 238.99 199.112 239.521 196.474C240.05 193.793 240.79 192.423 241.742 192.364C241.915 192.354 243.746 192.827 247.235 193.783C250.724 194.739 253.333 195.164 255.063 195.057C256.793 194.95 257.907 194.707 258.405 194.329C258.9 193.908 259.126 193.351 259.083 192.659C259.04 191.967 258.527 191.391 257.543 190.931C256.557 190.427 255.338 190.025 253.887 189.724C252.433 189.38 250.838 188.871 249.103 188.197C247.412 187.52 245.823 186.75 244.337 185.887C242.85 185.024 241.578 183.757 240.519 182.085C239.458 180.371 238.858 178.389 238.719 176.14C238.125 166.539 243.558 161.383 255.02 160.674C259.301 160.409 263.017 160.461 266.165 160.831C269.312 161.157 271.533 161.627 272.83 162.242C274.168 162.81 274.857 163.419 274.897 164.067C275.036 166.316 274.646 168.772 273.725 171.434C272.847 174.093 271.911 175.454 270.917 175.515C270.744 175.526 270.169 175.366 269.194 175.036C266.262 173.958 263.844 173.478 261.941 173.596C260.081 173.711 258.816 173.963 258.145 174.352C257.518 174.738 257.227 175.299 257.273 176.034C257.315 176.726 257.827 177.28 258.808 177.697C259.787 178.071 260.98 178.41 262.388 178.713C263.837 178.971 265.407 179.438 267.098 180.115C268.831 180.746 270.443 181.536 271.934 182.486C273.423 183.392 274.701 184.746 275.767 186.547C276.834 188.348 277.444 190.481 277.596 192.946C277.757 195.541 277.232 197.94 276.023 200.142C275.281 201.49 274.291 202.68 273.052 203.712Z" fill="white"/>
<path d="M194.715 213.23C190.792 213.625 187.616 213.008 185.187 211.38C184.204 210.695 183.291 209.633 182.449 208.193C181.65 206.749 181.149 205.014 180.945 202.987C180.741 200.961 181.038 199.146 181.834 197.541C182.674 195.932 183.742 194.649 185.04 193.691C186.337 192.732 187.886 191.901 189.688 191.197C192.417 190.182 195.463 189.506 198.826 189.167L200.96 188.952C200.782 187.184 200.053 185.995 198.772 185.383C198.224 185.134 197.411 185.063 196.333 185.172C195.298 185.276 194.055 185.684 192.602 186.396C191.193 187.105 190.022 187.81 189.092 188.514C188.156 189.174 187.516 189.522 187.171 189.556C186.395 189.634 185.237 188.728 183.696 186.836C182.151 184.901 181.294 183.092 181.125 181.411C181.069 180.85 181.793 180.037 183.297 178.971C184.801 177.905 186.96 176.86 189.775 175.836C192.629 174.765 195.436 174.091 198.195 173.813C200.954 173.535 203.35 173.534 205.381 173.808C207.45 174.035 209.143 174.409 210.458 174.93C211.817 175.447 212.982 176.201 213.953 177.192C214.966 178.179 215.732 179.081 216.25 179.9C216.811 180.715 217.269 181.801 217.624 183.159C218.086 184.724 218.434 186.671 218.669 188.999L220.628 208.465C220.676 208.94 219.551 209.445 217.253 209.981C214.994 210.47 212.722 210.829 210.437 211.059C208.195 211.285 206.722 211.368 206.02 211.308C205.36 211.244 204.957 211.132 204.81 210.972C204.663 210.813 204.525 210.522 204.395 210.099L203.507 206.465L202.99 206.517C202.302 210.506 199.544 212.744 194.715 213.23ZM202.301 201.622L201.539 194.055C200.418 194.168 199.56 194.733 198.966 195.751C198.372 196.769 198.135 197.882 198.257 199.089C198.543 201.935 199.333 203.292 200.627 203.162C201.187 203.106 201.605 202.933 201.881 202.644C202.196 202.307 202.336 201.967 202.301 201.622Z" fill="white"/>
<path d="M171.715 167.092L177.659 212.858C177.72 213.33 176.546 213.876 174.135 214.495C171.719 215.071 169.201 215.529 166.58 215.87C164.001 216.205 162.311 216.315 161.51 216.2C160.746 216.037 160.328 215.677 160.255 215.118L154.462 170.513C154.339 169.567 155.422 168.487 157.711 167.272C160.043 166.052 162.606 165.26 165.399 164.897C169.353 164.384 171.458 165.115 171.715 167.092Z" fill="white"/>
<path d="M150.54 184.137L155.419 215.808C155.492 216.279 154.309 216.856 151.871 217.538C149.469 218.171 146.962 218.689 144.35 219.092C141.78 219.487 140.093 219.638 139.29 219.542C138.522 219.398 138.095 219.047 138.009 218.49L133.308 187.975C133.163 187.033 134.22 185.927 136.48 184.658C138.776 183.34 141.359 182.46 144.228 182.018C148.126 181.417 150.23 182.124 150.54 184.137ZM139.2 168.587C142.026 168.151 144.298 168.24 146.015 168.852C147.767 169.415 148.812 170.789 149.149 172.973C149.742 176.828 147.041 179.217 141.046 180.141C135.05 181.064 131.755 179.599 131.161 175.744C130.567 171.89 133.247 169.504 139.2 168.587Z" fill="white"/>
<path d="M81.4079 189.752C81.2972 189.244 81.7183 188.532 82.6715 187.614C83.6154 186.654 85.0223 185.682 86.8922 184.698C88.8045 183.705 90.9461 182.95 93.3171 182.433C95.6881 181.916 97.4978 181.876 98.7463 182.314C99.9948 182.751 100.749 183.363 101.009 184.149L108.272 206.781L109.161 206.587L106.214 183.613C106.083 182.399 107.319 181.154 109.924 179.877C112.528 178.599 115.016 177.702 117.387 177.185C119.758 176.669 121.561 176.497 122.796 176.671C124.023 176.803 124.83 177.048 125.219 177.407C125.65 177.757 125.907 178.122 125.99 178.503C126.064 178.842 125.963 179.906 125.688 181.696C125.446 183.434 125.189 185.308 124.918 187.319C123.966 193.735 122.494 205.189 120.5 221.678C120.321 223.092 116.823 224.542 110.006 226.028C107.889 226.49 106.46 226.646 105.718 226.498C104.976 226.349 104.399 225.942 103.988 225.278C99.9211 218.625 95.1548 211.104 89.6893 202.716C84.2237 194.328 81.4633 190.006 81.4079 189.752Z" fill="white"/>
<path d="M466.765 97.3777C464.217 97.3777 462.215 96.7757 460.759 95.5717C460.171 95.0677 459.653 94.3257 459.205 93.3457C458.785 92.3657 458.575 91.2177 458.575 89.9017C458.575 88.5857 458.883 87.4377 459.499 86.4577C460.143 85.4777 460.913 84.7217 461.809 84.1897C462.705 83.6577 463.755 83.2237 464.959 82.8877C466.779 82.4117 468.781 82.1737 470.965 82.1737H472.351C472.351 81.0257 471.959 80.2137 471.175 79.7377C470.839 79.5417 470.321 79.4437 469.621 79.4437C468.949 79.4437 468.123 79.6257 467.143 79.9897C466.191 80.3537 465.393 80.7317 464.749 81.1237C464.105 81.4877 463.671 81.6697 463.447 81.6697C462.943 81.6697 462.257 81.0117 461.389 79.6957C460.521 78.3517 460.087 77.1337 460.087 76.0417C460.087 75.6777 460.605 75.2017 461.641 74.6137C462.677 74.0257 464.133 73.4937 466.009 73.0177C467.913 72.5137 469.761 72.2617 471.553 72.2617C473.345 72.2617 474.885 72.4157 476.173 72.7237C477.489 73.0037 478.553 73.3537 479.365 73.7737C480.205 74.1937 480.905 74.7537 481.465 75.4537C482.053 76.1537 482.487 76.7837 482.767 77.3437C483.075 77.9037 483.299 78.6317 483.439 79.5277C483.635 80.5637 483.733 81.8377 483.733 83.3497V95.9917C483.733 96.2997 482.977 96.5517 481.465 96.7477C479.981 96.9157 478.497 96.9997 477.013 96.9997C475.557 96.9997 474.605 96.9577 474.157 96.8737C473.737 96.7897 473.485 96.6917 473.401 96.5797C473.317 96.4677 473.247 96.2717 473.191 95.9917L472.855 93.5977H472.519C471.819 96.1177 469.901 97.3777 466.765 97.3777ZM472.393 90.4057V85.4917C471.665 85.4917 471.077 85.7997 470.629 86.4157C470.181 87.0317 469.957 87.7317 469.957 88.5157C469.957 90.3637 470.377 91.2877 471.217 91.2877C471.581 91.2877 471.861 91.2037 472.057 91.0357C472.281 90.8397 472.393 90.6297 472.393 90.4057Z" fill="white"/>
<path d="M438.791 97.3782C437.755 97.3782 436.789 97.2242 435.893 96.9162C434.997 96.6082 434.255 96.2302 433.667 95.7822C433.107 95.3342 432.617 94.7322 432.197 93.9762C431.777 93.2202 431.455 92.5062 431.231 91.8342C431.007 91.1342 430.839 90.2802 430.727 89.2722C430.559 87.7882 430.475 86.0942 430.475 84.1902C430.475 80.2982 431.189 77.3442 432.617 75.3282C434.045 73.2842 436.005 72.2622 438.497 72.2622C441.045 72.2622 442.893 72.8642 444.041 74.0682C444.293 74.3482 444.489 74.6842 444.629 75.0762H444.965L444.461 72.1782V66.9282C444.461 66.3122 445.245 65.7102 446.813 65.1222C448.381 64.5342 450.075 64.2402 451.895 64.2402C453.799 64.2402 455.017 64.6042 455.549 65.3322C455.745 65.6122 455.843 65.8922 455.843 66.1722V95.9922C455.843 96.3002 455.059 96.5522 453.491 96.7482C451.951 96.9162 450.453 97.0002 448.997 97.0002C447.569 97.0002 446.645 96.9582 446.225 96.8742C445.833 96.7622 445.581 96.6502 445.469 96.5382C445.385 96.4262 445.329 96.2442 445.301 95.9922L444.965 93.5982H444.629C444.377 94.5782 443.873 95.4042 443.117 96.0762C442.165 96.9442 440.723 97.3782 438.791 97.3782ZM443.495 91.2462C443.943 91.2462 444.279 90.9662 444.503 90.4062V79.1922C444.503 78.9122 444.349 78.7022 444.041 78.5622C443.761 78.3942 443.509 78.3102 443.285 78.3102C442.333 78.3102 441.857 80.4942 441.857 84.8622C441.857 87.1862 441.983 88.8382 442.235 89.8182C442.515 90.7702 442.935 91.2462 443.495 91.2462Z" fill="white"/>
<path d="M410.984 97.3777C408.436 97.3777 406.434 96.7757 404.978 95.5717C404.39 95.0677 403.872 94.3257 403.424 93.3457C403.004 92.3657 402.794 91.2177 402.794 89.9017C402.794 88.5857 403.102 87.4377 403.718 86.4577C404.362 85.4777 405.132 84.7217 406.028 84.1897C406.924 83.6577 407.974 83.2237 409.178 82.8877C410.998 82.4117 413 82.1737 415.184 82.1737H416.57C416.57 81.0257 416.178 80.2137 415.394 79.7377C415.058 79.5417 414.54 79.4437 413.84 79.4437C413.168 79.4437 412.342 79.6257 411.362 79.9897C410.41 80.3537 409.612 80.7317 408.968 81.1237C408.324 81.4877 407.89 81.6697 407.666 81.6697C407.162 81.6697 406.476 81.0117 405.608 79.6957C404.74 78.3517 404.306 77.1337 404.306 76.0417C404.306 75.6777 404.824 75.2017 405.86 74.6137C406.896 74.0257 408.352 73.4937 410.228 73.0177C412.132 72.5137 413.98 72.2617 415.772 72.2617C417.564 72.2617 419.104 72.4157 420.392 72.7237C421.708 73.0037 422.772 73.3537 423.584 73.7737C424.424 74.1937 425.124 74.7537 425.684 75.4537C426.272 76.1537 426.706 76.7837 426.986 77.3437C427.294 77.9037 427.518 78.6317 427.658 79.5277C427.854 80.5637 427.952 81.8377 427.952 83.3497V95.9917C427.952 96.2997 427.196 96.5517 425.684 96.7477C424.2 96.9157 422.716 96.9997 421.232 96.9997C419.776 96.9997 418.824 96.9577 418.376 96.8737C417.956 96.7897 417.704 96.6917 417.62 96.5797C417.536 96.4677 417.466 96.2717 417.41 95.9917L417.074 93.5977H416.738C416.038 96.1177 414.12 97.3777 410.984 97.3777ZM416.612 90.4057V85.4917C415.884 85.4917 415.296 85.7997 414.848 86.4157C414.4 87.0317 414.176 87.7317 414.176 88.5157C414.176 90.3637 414.596 91.2877 415.436 91.2877C415.8 91.2877 416.08 91.2037 416.276 91.0357C416.5 90.8397 416.612 90.6297 416.612 90.4057Z" fill="white"/>
<path d="M389.735 83.7277V95.9917C389.735 96.2997 388.937 96.5517 387.341 96.7477C385.773 96.9157 384.135 96.9997 382.427 96.9997C380.747 96.9997 379.655 96.9297 379.151 96.7897C378.647 96.6217 378.395 96.3557 378.395 95.9917V75.2857C378.395 74.7537 379.165 74.1797 380.705 73.5637C382.273 72.9477 383.967 72.6397 385.787 72.6397C387.635 72.6397 388.671 73.1437 388.895 74.1517L389.315 76.0837H389.609C390.001 75.0197 390.939 74.1237 392.423 73.3957C393.907 72.6397 395.391 72.2617 396.875 72.2617C398.359 72.2617 399.395 72.4997 399.983 72.9757C400.599 73.4517 400.907 74.0677 400.907 74.8237C400.907 75.5517 400.851 76.4897 400.739 77.6377C400.627 78.7857 400.347 80.0317 399.899 81.3757C399.479 82.7197 398.919 83.3917 398.219 83.3917C397.939 83.3917 397.057 83.1817 395.573 82.7617C394.089 82.3417 392.857 82.1317 391.877 82.1317C390.925 82.1317 390.323 82.2717 390.071 82.5517C389.847 82.8317 389.735 83.2237 389.735 83.7277Z" fill="white"/>
<path d="M358.484 97.3777C355.936 97.3777 353.934 96.7757 352.478 95.5717C351.89 95.0677 351.372 94.3257 350.924 93.3457C350.504 92.3657 350.294 91.2177 350.294 89.9017C350.294 88.5857 350.602 87.4377 351.218 86.4577C351.862 85.4777 352.632 84.7217 353.528 84.1897C354.424 83.6577 355.474 83.2237 356.678 82.8877C358.498 82.4117 360.5 82.1737 362.684 82.1737H364.07C364.07 81.0257 363.678 80.2137 362.894 79.7377C362.558 79.5417 362.04 79.4437 361.34 79.4437C360.668 79.4437 359.842 79.6257 358.862 79.9897C357.91 80.3537 357.112 80.7317 356.468 81.1237C355.824 81.4877 355.39 81.6697 355.166 81.6697C354.662 81.6697 353.976 81.0117 353.108 79.6957C352.24 78.3517 351.806 77.1337 351.806 76.0417C351.806 75.6777 352.324 75.2017 353.36 74.6137C354.396 74.0257 355.852 73.4937 357.728 73.0177C359.632 72.5137 361.48 72.2617 363.272 72.2617C365.064 72.2617 366.604 72.4157 367.892 72.7237C369.208 73.0037 370.272 73.3537 371.084 73.7737C371.924 74.1937 372.624 74.7537 373.184 75.4537C373.772 76.1537 374.206 76.7837 374.486 77.3437C374.794 77.9037 375.018 78.6317 375.158 79.5277C375.354 80.5637 375.452 81.8377 375.452 83.3497V95.9917C375.452 96.2997 374.696 96.5517 373.184 96.7477C371.7 96.9157 370.216 96.9997 368.732 96.9997C367.276 96.9997 366.324 96.9577 365.876 96.8737C365.456 96.7897 365.204 96.6917 365.12 96.5797C365.036 96.4677 364.966 96.2717 364.91 95.9917L364.574 93.5977H364.238C363.538 96.1177 361.62 97.3777 358.484 97.3777ZM364.112 90.4057V85.4917C363.384 85.4917 362.796 85.7997 362.348 86.4157C361.9 87.0317 361.676 87.7317 361.676 88.5157C361.676 90.3637 362.096 91.2877 362.936 91.2877C363.3 91.2877 363.58 91.2037 363.776 91.0357C364 90.8397 364.112 90.6297 364.112 90.4057Z" fill="white"/>
<path d="M322.654 102.082V75.3697C322.654 74.7817 323.438 74.1797 325.006 73.5637C326.574 72.9477 328.268 72.6397 330.088 72.6397C330.928 72.6397 331.586 72.7377 332.062 72.9337C332.538 73.1297 332.832 73.3257 332.944 73.5217C333.056 73.7177 333.266 74.5577 333.574 76.0417H333.91C333.966 75.7897 334.218 75.3977 334.666 74.8657C335.114 74.3337 335.562 73.8997 336.01 73.5637C336.486 73.2277 337.158 72.9337 338.026 72.6817C338.894 72.4017 339.902 72.2617 341.05 72.2617C342.226 72.2617 343.29 72.5277 344.242 73.0597C345.194 73.5637 345.894 74.1657 346.342 74.8657C346.818 75.5377 347.182 76.4057 347.434 77.4697C347.714 78.5057 347.868 79.3457 347.896 79.9897C347.952 80.6057 347.98 81.5157 347.98 82.7197C347.98 83.8957 347.938 85.0717 347.854 86.2477C347.77 87.3957 347.616 88.5717 347.392 89.7757C347.168 90.9797 346.846 92.0157 346.426 92.8837C346.006 93.7517 345.474 94.5357 344.83 95.2357C343.542 96.6357 341.652 97.3357 339.16 97.3357C338.264 97.3357 337.466 97.2097 336.766 96.9577C336.094 96.6777 335.59 96.3557 335.254 95.9917C334.554 95.2357 334.148 94.5637 334.036 93.9757L333.994 93.5557H333.658L334.246 97.3357V102.082C334.246 102.39 333.434 102.628 331.81 102.796C330.214 102.992 328.562 103.09 326.854 103.09C325.174 103.09 324.054 103.006 323.494 102.838C322.934 102.698 322.654 102.446 322.654 102.082ZM336.598 84.6937C336.598 82.3137 336.472 80.6477 336.22 79.6957C335.968 78.7437 335.59 78.2677 335.086 78.2677C334.582 78.2677 334.218 78.5477 333.994 79.1077V90.1117C333.994 90.8397 334.372 91.2037 335.128 91.2037C336.108 91.2037 336.598 89.0337 336.598 84.6937Z" fill="white"/>
</svg>
