<svg width="284" height="108" viewBox="0 0 284 108" fill="none" xmlns="http://www.w3.org/2000/svg">
<path d="M147.786 7.72024e-05C150.512 -0.00745936 150.763 0.539179 152.949 0.595542C155.993 0.673089 159.106 0.611503 162.198 0.519774C163.741 0.473936 165.281 0.420829 166.821 0.374438C166.915 0.371521 167.009 0.368357 167.102 0.365484C166.83 0.36048 168.333 0.375393 168.846 0.380293C169.524 0.386994 170.116 0.393359 170.679 0.399924C172.869 0.425585 174.089 0.444982 175.082 0.460882C177 0.492277 177.884 0.510598 178.639 0.525629C180.078 0.554945 180.697 0.569851 181.226 0.584521C182.943 0.632527 183.285 0.751578 183.714 0.92031C182.872 2.17579 183.759 3.47068 183.86 1.25679C183.928 1.35188 183.981 1.38678 184.03 1.38835C184.054 1.38906 184.075 1.38113 184.097 1.36837C184.09 1.35094 184.189 1.33876 184.964 1.53368C187.334 2.14654 188.221 2.55551 188.685 2.78006C188.764 2.84364 188.936 2.87369 189.67 3.3249C190.207 3.68024 190.587 4.05532 190.944 4.46589C191.655 5.29612 192.165 6.17197 193.057 7.62506C194.883 10.4554 195.942 12.1518 196.56 13.0624C197.349 14.3867 197.391 16.1344 196.752 17.4487C196.839 18.1049 196.886 18.4682 197.024 19.9049C197.247 22.2923 197.312 22.797 197.398 23.5759C197.555 24.9503 197.654 25.6861 197.743 26.3142C197.767 26.4813 197.79 26.6361 197.812 26.7798C198.432 26.9126 199.064 27.0701 199.656 27.2341C200.937 27.5862 202.015 27.9751 202.649 28.1467C202.8 28.187 203.075 28.254 203.429 28.3513C203.72 28.4285 204.507 28.669 204.308 28.6378C204.168 28.6619 204.704 28.8148 205.934 28.9178C206.576 28.973 207.369 29.0253 208.808 29.0814C209.181 29.0957 209.589 29.1103 210.131 29.1269C210.65 29.1431 211.522 29.1647 211.505 29.171C211.79 29.1895 212.101 29.2142 212.379 29.2419C213.498 29.3508 214.454 29.5326 214.881 29.6108C215.732 29.763 216.962 30.0448 218.275 30.3375C218.929 30.4823 219.599 30.6234 220.218 30.7397C220.892 30.8663 220.669 30.7993 220.887 30.8175C221.248 30.8247 221.692 30.5289 222.388 30.532C222.744 30.5354 223.159 30.6129 223.807 30.8771C224.539 31.1599 225.034 31.5254 227.632 32.5702C230.039 33.0647 231.068 33.1922 232.227 33.4074C232.785 33.5084 233.312 33.6106 233.873 33.7284C233.667 33.7325 237.83 34.4017 238.971 34.5422C239.953 34.6772 239.913 34.9165 240.3 34.9507C241.06 35.015 241.777 34.8781 242.299 34.9183C243.21 34.9991 243.176 35.5732 243.332 34.7847C243.537 34.6959 244.018 34.6673 244.99 34.7588C245.289 34.9869 245.652 35.2309 246.131 35.5041C247.009 35.5454 247.817 35.5638 250.179 35.9976C248.32 36.1136 253.48 37.5555 253.852 37.6077C255.025 37.8667 256.083 37.915 255.262 37.2654C256.739 37.9167 257.942 38.5543 259.06 39.0648C259.344 39.1948 259.601 39.3115 259.894 39.4347C261.779 40.0491 262.285 40.1855 262.976 40.3932C264.23 40.7631 264.945 40.9628 265.554 41.1395C265.267 41.7531 266.631 42.0387 267.2 41.8899C267.832 41.755 267.899 41.2758 268.009 40.9291C268.521 40.9614 268.981 40.9999 269.409 41.0414C271.252 41.3957 272.608 41.6247 273.946 41.9523C274.273 42.0339 274.631 42.1341 274.958 42.2457C275.284 42.3565 276.269 42.7243 276.756 42.9335C277.856 43.3973 278.585 43.7902 279.148 44.1537C279.822 44.5621 281.755 46.1211 281.916 46.6947C282.248 47.3337 282.209 47.6352 282.217 48.2382C282.653 48.9567 282.804 49.0864 282.995 49.5136C283.568 49.9437 283.723 50.3261 283.734 51.2266C283.737 51.4752 283.73 51.7698 283.721 52.3052C283.717 52.5721 283.713 52.9051 283.712 53.3388C283.71 53.7527 283.716 54.4054 283.698 54.3486C283.643 54.6442 283.566 54.9404 283.485 55.2633C283.16 56.5381 282.783 58.1626 283.395 61.8664C282.869 63.1524 282.74 64.6494 282.743 67.6926C282.605 72.9616 282.224 73.8636 282.211 74.8706C282.201 75.0719 282.396 75.1217 282.404 75.3644C282.143 77.1812 281.3 80.2828 281.949 80.3031C281.487 81.5829 280.912 82.7983 280.24 84.1046C279.836 85.4665 279.934 85.7622 279.903 86.9462C280.104 86.9673 280.306 86.9881 280.507 87.0089C279.984 88.364 279.653 88.8613 279.506 89.8509C279.343 90.8073 279.282 92.1039 279.134 93.1451C279.074 93.5739 278.798 93.5631 278.622 95.1129C278.517 96.1126 278.202 97.2909 277.788 98.2032C277.331 99.1407 277.157 99.7026 276.249 100.6C275.884 101.404 275.274 102.101 274.71 102.685C271.719 104.06 270.669 103.649 269.643 104.019C269.542 104.049 268.749 104.45 267.607 104.767C266.505 105.09 264.934 105.313 264.753 105.34C263.366 105.551 262.719 105.874 261.155 105.99C260.427 106.031 259.529 105.921 258.689 105.717C257.903 105.522 257.094 105.324 255.58 105.068C255.056 104.974 254.576 104.833 254.099 104.67C253.833 104.55 253.565 104.428 253.187 104.336C252.85 104.253 252.312 104.16 251.346 103.959C250.89 103.867 250.126 103.687 249.508 103.541C249.235 103.505 248.967 103.493 248.634 103.483C247.335 103.461 245.717 103.576 245.444 103.783C244.943 103.569 243.598 103.208 243.49 103.111C243.128 102.968 242.623 102.84 241.773 102.663C240.927 102.487 239.664 102.249 237.817 101.855C236.668 101.608 236.166 101.428 235.74 101.267C235.503 101.173 235.389 101.023 235.158 100.84C235.042 100.749 234.897 100.65 234.694 100.55C234.514 100.456 234.193 100.338 233.198 100.131C230.104 99.4789 226.855 99.5528 225.831 99.4141C224.665 99.2613 224.453 98.9033 224.074 98.8417C223.69 98.7766 223.565 99.0553 222.647 98.8944C221.378 98.6616 220.057 98.1944 218.414 97.6825C217.661 97.4397 216.425 97.115 215.345 96.8315C214.313 96.5595 213.581 96.3698 212.973 96.2402C211.173 95.8606 210.74 96.0014 209.659 96.1289C208.334 96.2119 207.327 96.1584 204.737 96.07C202.719 95.8256 201.779 95.6362 200.805 95.5965C197.865 95.4667 197.247 95.651 195.028 95.0327C193.773 94.7342 192.55 94.5106 191.37 94.2912C190.193 94.0964 189.073 93.7623 187.531 93.6265C186.154 93.5074 185.101 93.5368 184.014 93.404C183.287 93.3086 183.323 93.2789 183.206 93.2553C183.112 93.2307 183.004 93.2049 182.873 93.1791C182.593 93.1269 182.322 93.0744 181.351 93.0059C180.835 92.9706 180.175 92.9337 178.63 92.8685C177.308 92.8128 173.282 92.6514 173.465 92.6491C169.34 92.4117 158.358 91.2805 161.274 93.1227C159.775 93.4292 148.48 92.665 146.203 92.6188C144.164 92.5854 142.53 92.8897 140.894 92.8664C136.012 92.7858 131.984 92.5189 126.318 92.7917C124.8 92.8628 123.152 93.2497 122.232 93.2449C121.131 93.2382 119.934 92.8628 118.486 92.8409C115.044 92.7899 108.464 92.9425 104.969 92.9198C104.325 92.9145 104.097 92.5869 103.183 92.4962C102.727 92.4522 102.276 92.4154 101.818 92.3874C101.594 92.3733 101.36 92.3614 101.133 92.3519C101.019 92.3471 100.907 92.3432 100.797 92.3395C100.333 92.3422 99.2465 92.3604 98.6517 92.3719C93.8359 92.4746 93.7883 92.5463 93.0022 92.644C91.8956 92.8344 91.9218 93.1292 92.0651 93.6372C91.2517 93.4555 91.4581 93.4141 90.9413 93.6114C89.9133 93.9183 89.1168 94.3048 88.3539 94.7159C87.9711 94.9217 87.5902 95.1357 87.2018 95.3433C86.6778 95.6093 87.0258 95.4911 85.2612 96.2687C79.2633 98.764 78.1024 98.0273 77.5039 98.2501C76.4834 98.3947 75.3332 98.6971 71.4525 99.1786C69.6944 99.4165 65.2567 99.7007 65.0639 99.7864C64.1212 99.9213 62.9017 100.288 61.2779 100.675C60.8863 100.767 60.4548 100.863 60.0688 100.942C58.5022 101.246 57.6878 101.422 57.0336 101.563C55.7462 101.843 55.0319 102.015 54.4099 102.167C53.2103 102.464 52.5973 102.645 52.1317 102.8C51.0591 103.183 50.8792 103.308 49.7613 103.649C48.7388 103.995 47.1064 104.414 41.7085 105.284C40.1995 105.577 40.0721 105.56 38.0551 105.804C35.3458 106.23 33.5873 106.509 32.1015 106.597C30.9335 106.659 29.8555 106.925 28.236 107.677C25.7955 107.799 21.7046 108.378 17.5486 107.392C15.8782 106.92 15.1035 106.39 14.6364 106.052C14.1744 105.701 14.0809 105.491 13.3046 104.915C12.8502 104.954 12.3378 104.967 11.7496 104.921C11.1102 104.576 10.0334 104.251 9.0933 103.043C9.01094 102.595 9.01834 102.183 9.07712 101.818C8.38652 100.234 8.51245 98.6862 8.2478 97.2692C7.96754 95.8164 7.56322 95.2137 7.24319 94.7524C6.96673 94.3694 6.34341 93.651 5.6414 92.034C4.83353 89.916 4.86923 89.5361 4.65607 88.7075C4.38361 87.4646 3.91172 85.2407 3.32738 82.602C3.13063 81.6903 2.84318 80.5078 2.50255 78.848C2.13061 77.1544 1.91494 75.0739 1.94359 73.5467C1.96257 71.9845 2.0581 70.9176 2.06137 69.9977C2.0638 69.7755 2.06401 69.5676 2.05896 69.3354C2.04201 68.9129 1.97413 67.7367 1.93429 67.0555C1.84615 65.5571 1.76994 64.4266 1.71112 63.5716C1.48005 60.3185 1.46691 59.8031 1.46625 59.0431C1.47154 57.6624 1.12385 57.9452 1.78448 56.3888C1.62719 55.8401 1.44064 55.2174 1.25032 54.4998C0.974967 54.0781 0.697185 53.6142 0.428237 53.0898C0.249679 51.7375 0.207074 50.5086 0.356258 49.2642C0.514766 47.9981 0.822779 46.5114 1.77105 44.9282C3.04579 42.7242 5.60598 41.4779 7.50046 40.5537C9.0075 39.7355 11.7916 38.2559 13.2385 37.7145C13.7742 37.4744 15.2742 36.8055 16.3756 36.4912C17.5231 36.1402 18.6177 35.8761 19.6839 35.6656C21.0408 35.4309 20.7034 35.416 22.4938 35.1053C22.8571 35.0446 23.6008 34.9761 23.8157 34.9651C23.9634 34.9538 24.1159 34.9422 24.2751 34.9307C24.5931 34.9076 24.9397 34.884 25.3086 34.8611C26.7885 34.7698 28.6221 34.688 30.8338 34.6758C31.8083 34.6682 33.9883 34.7448 34.5743 34.8067C35.456 34.8552 36.3385 34.8022 37.1635 34.6559C38.3673 34.4412 39.1487 34.1635 40.0558 33.935C40.7491 33.7239 41.2479 33.5388 42.6102 33.51C43.7471 33.4818 45.5551 33.5282 47.9377 33.4388C49.3041 33.4166 50.9707 33.3442 52.9438 33.2552C54.8662 33.1682 57.3733 33.0762 59.6699 33.0706C61.8252 33.0644 63.3545 33.0866 64.5063 33.0561C65.8529 33.0225 66.3806 32.7659 67.1224 32.7293C67.5168 32.7004 69.8264 32.6286 70.7131 32.503C71.7491 32.3791 72.3766 32.2277 73.003 32.066C74.2975 31.7278 75.0113 31.4301 77.2288 30.82C83.5819 30.4285 82.8435 31.4717 84.3891 31.9665C84.9935 32.1157 85.6656 32.6495 86.8688 32.659C87.8762 31.7037 88.0297 30.6894 88.3484 30.189C88.3896 30.1367 88.4333 30.1114 88.4789 30.1053C88.4693 30.1027 88.4593 30.0995 88.4496 30.0946C88.0963 29.8765 87.6445 27.3186 87.2177 27.1504C86.7999 26.9486 84.1337 26.8921 83.9149 25.1078C83.846 24.4892 83.8447 23.799 83.9332 23.1127C83.9668 22.8323 83.9335 23.2286 84.0447 22.3219C84.1478 21.479 84.235 20.728 84.3044 20.1312C84.4434 18.9293 84.5222 18.3143 84.6006 17.8351C84.9127 16.046 85.1254 15.9585 85.4158 14.8595C85.5577 14.3615 85.72 13.7337 86.025 12.9853C86.2602 12.3298 87.0687 10.9871 87.1512 10.8194C87.8645 9.57583 88.6455 7.73483 89.9608 5.87379C90.5841 5.00324 91.3151 4.23253 92.0699 3.56632C92.4632 3.2227 92.7558 2.96421 93.2622 2.58651C94.1203 2.00853 94.8968 1.66559 95.6334 1.4066C96.8746 1.30166 97.675 1.4809 98.1527 1.60704C98.7122 1.72945 98.3548 1.9349 98.4719 2.09712C98.5162 1.93037 98.8154 2.3619 99.0609 2.32752C99.2629 2.2987 99.3578 2.02115 99.8991 1.99552C100.293 1.97986 100.403 2.04124 102.535 2.08334C103.154 2.09359 103.727 2.10309 105.842 2.10401C106.4 2.10417 107.111 2.10318 108.238 2.10125C108.886 2.09991 109.588 2.09854 110.61 2.09643C111.134 2.09533 111.699 2.09447 112.334 2.09333C113.227 2.09145 112.604 2.09396 112.739 2.09436C112.849 2.10054 112.961 2.10629 113.075 2.11124C113.533 2.13106 114.036 2.13977 114.537 2.12743C117.891 2.04803 118.51 1.33545 120.55 1.24198C122.674 1.14541 125.999 1.52975 128.752 1.27883C129.096 1.20043 129.441 1.12196 129.788 1.0436C129.54 0.866435 129.292 0.689342 129.045 0.512198C130.433 0.42963 131.029 0.792785 132.311 0.79977C133.815 0.808238 134.587 0.464682 135.606 0.467081C136.44 0.469365 137.573 0.746443 138.659 0.730546C140.242 0.708841 139.898 0.309929 140.752 0.236679C141.088 0.207501 147.417 0.00141363 147.786 7.72024e-05ZM154.145 5.95128C153.006 5.95906 152.261 6.37965 149.959 6.47649C142.283 6.79397 132.139 6.33335 125.115 6.55122C121.635 6.65804 116.909 7.20324 113.602 7.33163C113.436 7.33803 113.257 7.34319 113.068 7.34747C112.974 7.34962 112.877 7.35165 112.779 7.35333C112.767 7.35354 112.754 7.35347 112.742 7.35367C112.736 7.35377 112.73 7.35392 112.723 7.35402C112.604 7.35445 112.194 7.35586 111.937 7.35677C110.812 7.36073 109.947 7.36432 109.208 7.36779C107.817 7.37443 107.063 7.37947 106.382 7.38398C104.002 7.40057 103.353 7.40951 102.645 7.41704C101.986 7.42449 101.569 7.42964 101.231 7.43392C99.9497 7.4506 99.688 7.45139 99.4335 7.45389C99.0044 7.45879 99.0882 7.46619 99.0784 7.58408C99.0863 7.72672 99.1417 8.18225 99.1432 8.23981C99.143 8.26494 99.1245 8.21085 99.0998 8.14923C99.0762 8.08611 99.0813 8.0198 98.5336 8.05556C96.8577 8.12481 96.8736 8.17784 95.9668 8.71749C95.2775 9.16381 94.8004 9.54071 93.8091 11.1982C93.4631 11.7724 93.0719 12.5196 92.5552 13.3937C92.0583 14.2458 91.2206 15.3877 90.994 15.9712C90.4403 17.5658 90.6345 16.3636 90.2584 19.5275C90.2095 19.9794 90.1474 20.5638 90.0624 21.3135C90.02 21.6871 89.9725 22.0967 89.9192 22.5392C89.8655 22.9864 89.8068 23.4475 89.8045 23.4071C89.7559 23.6025 89.7128 23.7536 89.6681 23.9964C89.5788 24.4601 89.5055 25.1204 89.4242 26.0042C89.2847 27.6464 88.988 30.0185 88.5416 30.1081C88.9038 30.1923 89.366 31.3077 89.7077 30.7686C89.7489 31.2166 89.7825 31.5866 89.7779 32.0419C89.7718 32.277 89.7718 32.5117 89.6805 32.9463C89.6256 33.1721 89.5734 33.4448 89.3023 33.9319C89.1333 34.52 87.3796 35.5955 87.0865 35.5272C86.9202 35.5836 86.4877 35.7091 86.0739 35.8165C85.2289 36.0359 84.2144 36.2584 82.9664 36.4009C80.2814 36.6199 77.8935 36.7899 76.4752 36.787C75.1889 37.0527 74.3526 37.3535 72.1076 37.6862C70.9942 37.8436 69.4675 37.9411 67.806 37.9693C67.0753 37.9843 66.3508 37.9944 65.4989 38.0069C63.7997 38.033 61.8473 38.0556 59.3559 38.1532C56.5233 38.2643 54.5179 38.4621 52.5189 38.6554C51.7808 38.4877 51.073 38.3179 50.3922 38.1419C50.3922 38.1414 50.3922 38.1409 50.3922 38.1405C48.0279 38.0984 45.2235 38.8037 43.7401 38.9615C41.6347 39.1854 40.7864 39.1927 38.6096 39.6476C37.5636 39.8673 36.1514 40.2059 34.4944 40.3226C32.6287 40.4193 30.6532 40.5299 29.2616 40.6288C26.2346 40.8943 25.0936 40.7044 22.2235 41.2862C19.8339 41.6632 17.3401 42.1959 14.6946 43.3499C13.3057 43.8573 12.5392 44.2569 10.4568 45.3794C8.59357 46.3027 7.61056 46.7814 7.20841 47.1803C6.80696 47.5233 6.34308 48.2689 6.15731 49.331C5.96856 50.3403 5.98747 51.401 6.19726 52.9145C6.39198 54.317 6.66331 55.5861 6.78514 56.8806C6.8769 58.1076 6.8353 57.9965 6.88433 58.6756C6.95706 59.8992 7.1272 61.0641 7.49598 66.3092C7.70463 69.387 7.74857 70.0515 7.73327 71.7224C7.7165 73.3021 7.70076 75.0469 8.19924 77.2318C8.45326 78.3823 8.69388 79.3421 8.89114 80.1506C9.08868 80.9562 9.24206 81.6262 9.47111 82.6712C9.87364 84.5224 10.0818 85.694 10.1248 86.3249C10.1655 86.9661 9.84672 87.2129 9.96463 87.822C10.2434 88.9983 10.8259 90.8138 11.4418 91.7062C11.9877 92.67 12.6989 93.6146 13.2068 96.5119C13.3419 98.2221 13.5846 99.1464 13.6621 99.5054C15.0083 100.177 16.3134 100.568 16.979 100.866C17.8819 101.308 18.1839 101.946 21.2457 102.045C23.9141 102.091 26.1392 101.978 27.5048 101.801C28.9082 101.625 29.925 101.43 30.9798 101.261C31.9902 101.117 32.8856 100.875 34.7372 100.401C35.5339 100.191 37.2582 99.8207 37.8399 99.7193C38.1107 99.6595 38.3766 99.589 38.8352 99.4548C39.3031 99.3224 39.9453 99.1044 41.3948 98.7798C42.1127 98.6202 43.0567 98.441 44.079 98.28C44.5812 98.1984 44.8362 98.1386 45.2352 98.0445C46.6688 97.6939 48.6921 97.0607 50.1087 96.9135C50.1069 96.8971 50.7203 96.764 51.9134 96.4902C52.7902 96.2934 53.6852 96.0791 56.2284 95.549C56.573 95.4777 56.935 95.4036 57.4382 95.303C57.8083 95.2277 59.1075 94.9781 59.0128 94.9952C59.3154 94.9347 59.593 94.8748 59.8845 94.8085C60.4613 94.6774 61.026 94.5328 61.5924 94.3894C62.7243 94.0987 63.8803 93.8452 65.0002 93.7302C65.3722 93.6842 66.7729 93.5923 67.7695 93.4998C68.8012 93.4077 69.6828 93.3146 70.4207 93.2267C75.8577 92.517 76.0241 92.2131 78.7417 91.9307C79.4372 91.8052 80.5438 91.6337 83.2192 90.4494C84.0833 90.0613 83.9188 90.1271 84.1622 90.0114C84.3479 89.9208 84.5439 89.8233 84.7539 89.7186C85.1731 89.51 85.6472 89.2708 86.2065 89.0143C86.7646 88.7585 87.4084 88.4889 88.1238 88.2436C88.8138 88.0006 89.786 87.7511 89.654 87.7817C89.8023 87.7371 90.0198 87.6753 90.3324 87.6068C90.6604 87.5368 91.0406 87.46 91.8647 87.3647C92.2924 87.3167 92.8074 87.2642 93.8098 87.1983C94.8607 87.1347 96.2369 87.0406 100.69 86.9497C103.084 86.8923 105.397 86.856 107.679 86.8257C116.862 86.7127 125.06 86.6743 133.876 86.7189C138.519 86.747 142.646 86.8518 146.945 86.8884C151.466 86.9281 155.895 86.9329 160.278 86.9669C163.666 86.9936 167.483 86.953 171.235 86.9903C172.178 87.0002 173.116 87.0155 174.04 87.042C173.944 87.0363 175.63 87.0989 176.496 87.1284C177.457 87.1617 178.219 87.1872 178.824 87.2076C180.034 87.2484 180.684 87.2716 181.196 87.2937C183.064 87.3756 183.391 87.4532 183.93 87.571C184.387 87.6708 184.317 87.8726 185.023 88.0145C185.794 88.1974 186.403 87.9992 189.912 88.3076C189.96 88.4767 190.004 88.6457 190.045 88.8146C191.338 88.9721 192.581 89.0266 193.997 89.1697C195.338 89.2757 197.527 89.7438 197.409 89.6463C197.638 89.6632 198.102 89.6879 199.092 89.71C200.171 89.7498 201.23 89.6882 204.838 89.9811C210.971 90.7181 210.129 90.8304 211.43 90.9898C212.366 91.1679 211.92 91.3901 212.985 91.5915C213.466 91.6847 214.136 91.7963 215.175 91.9841C216.113 92.1523 218.166 92.5412 219.259 92.7511C221.669 93.2295 223.148 93.4971 223.946 93.6103C224.626 93.747 227.546 94.198 231.095 94.6246C231.834 94.7135 232.678 94.8241 233.779 95.0065C234.259 95.0829 235.345 95.292 235.469 95.3134C235.763 95.3691 236.043 95.4282 236.315 95.489C237.517 95.7613 237.802 95.8676 239.262 96.1234C243.271 96.8631 243.955 96.8631 245.026 97.0275C246.462 97.3027 248.621 97.2138 251.18 97.8816C254.719 98.8652 254.432 98.7734 256.51 99.1445C257.45 99.2821 259.614 99.8502 260.273 100.191C261.1 100.55 261.576 100.668 261.742 100.658C263.584 100.553 264.007 100.104 264.824 99.9383C267.075 99.4381 266.767 99.3487 270.968 97.7472C272.103 97.3243 272.541 97.1678 272.709 97.0798C272.859 96.9707 272.589 97.3603 272.936 96.8157C273.421 95.9273 273.661 95.8002 273.735 94.1379C273.938 85.1814 276.912 78.6129 277.822 72.9929C277.939 72.4634 278.073 71.8715 278.209 70.868C278.276 70.3604 278.342 69.743 278.391 68.9183C278.442 68.1261 278.453 66.8857 278.455 66.564C278.472 64.6161 278.485 62.7114 278.49 60.827C278.494 58.9459 278.494 57.0777 278.459 55.2946C278.455 55.0733 278.45 54.8606 278.444 54.6368C278.437 54.4105 278.378 52.3632 278.374 52.0266C278.363 51.461 278.354 51.169 278.348 51.0103C277.554 49.5293 277.41 49.5358 274.334 48.1807C273.95 48.0234 273.013 47.6831 273.02 47.692C272.894 47.6513 272.685 47.5917 272.452 47.5353C271.982 47.4212 271.387 47.3067 270.7 47.203C269.389 46.9846 267.149 46.8608 266.984 46.8179C266.403 46.7443 265.582 46.6362 263.887 46.2859C262.702 46.1104 256.891 44.4359 256.5 44.1888C255.172 43.6835 253.97 43.1623 252.825 42.7513C252.244 42.542 251.709 42.3646 251.124 42.1923C248.828 41.5731 248.482 41.4849 247.761 41.2921C247.134 41.1247 246.671 41.0007 246.283 40.8957C243.944 40.2601 244.748 40.0411 243.658 39.7826C242.672 39.5519 242.48 39.7916 242.291 39.7705C241.938 39.7357 242.14 39.7876 241.307 39.7526C240.852 39.7312 240.34 39.7359 238.46 39.5656C237.97 39.5193 237.372 39.4579 236.543 39.3555C236.123 39.3035 235.651 39.2418 235.094 39.1633C234.633 39.1003 233.475 38.921 233.591 38.9409C233.142 38.8784 232.675 38.8136 232.178 38.7418C231.187 38.5986 230.07 38.4265 228.849 38.1904C228.239 38.0725 227.612 37.9407 226.964 37.7923C226.803 37.7566 225.763 37.5108 225.14 37.3594C224.495 37.2031 224.016 37.0844 223.603 36.9809C220.559 36.2117 220.199 36.0768 219.726 35.8957C219.519 35.8213 219.801 35.7854 219.26 35.5837C218.79 35.3962 218.388 35.2265 218.024 35.1459C217.658 35.0654 216.764 35.0819 215.779 34.887C214.693 34.6725 213.851 34.5376 213.107 34.4613C212.735 34.4228 212.386 34.3973 212.047 34.3814C211.873 34.3732 211.723 34.3686 211.556 34.3648C211.416 34.3614 211.18 34.3593 210.185 34.3418C207.367 34.294 206.634 34.2719 205.704 34.2336C204.856 34.1966 204.297 34.1546 203.816 34.0941C202.813 33.9805 202.117 33.6402 200.397 33.415C199.565 33.2935 198.585 33.1767 197.336 33.0334C196.733 32.9585 195.892 32.8909 195.323 32.7785C194.631 32.6547 193.786 31.7807 193.628 31.4757C192.868 30.1181 192.843 29.4518 192.472 26.9975C192.387 26.365 192.299 25.6537 192.178 24.5175C192.117 23.9468 192.05 23.2995 191.946 22.1921C191.9 21.711 191.782 20.4022 191.737 19.8881C191.705 19.5192 191.675 19.1864 191.647 18.889C191.429 16.5442 191.304 16.3969 191.24 16.192C191.201 16.1006 191.222 16.1468 191.182 16.0783C191.02 15.8252 190.709 15.3067 190.476 14.8977C189.983 14.0394 189.476 13.0956 188.819 12.0564C187.888 10.6016 187.183 9.41097 186.821 9.01161C186.714 8.88328 186.629 8.80363 186.581 8.76226C186.537 8.75087 186.368 8.68323 186.123 8.58352C185.429 8.30557 184.858 7.97608 183.378 7.52415C182.3 7.22143 182.693 7.34774 182.589 7.32027C182.558 7.31567 182.531 7.3122 182.507 7.30925C182.406 7.29861 182.358 7.28638 181.918 7.23486C181.685 7.20911 181.373 7.17431 180.615 7.12258C180.226 7.09663 179.737 7.06645 178.853 7.02684C177.862 6.9866 177.091 6.94048 173.108 6.85705C172.048 6.8359 170.68 6.81157 168.669 6.78542C168.188 6.77917 167.623 6.77235 167.069 6.76613C167.016 6.76538 166.995 6.76499 166.958 6.76441C166.89 6.7633 166.821 6.76207 166.752 6.76096C166.475 6.75652 166.194 6.75211 165.909 6.74753C165.342 6.73841 164.808 6.72947 164.24 6.71998C163.157 6.70147 162.052 6.68189 160.969 6.66074C157.214 6.58759 154.666 5.9475 154.145 5.95128ZM190.091 93.4764C190.727 93.5033 191.379 93.5262 192.049 93.5556C191.703 93.3669 191.361 93.1799 191.026 92.9935C190.704 92.9407 190.386 92.8883 190.074 92.8347C190.079 93.0485 190.085 93.2625 190.091 93.4764ZM278.336 50.7882C278.323 50.7647 278.326 50.7755 278.337 50.8078C278.336 50.8011 278.336 50.7949 278.336 50.7882ZM197.935 27.521C198.015 27.9586 198.083 28.2333 198.15 28.4257C198.26 28.742 198.385 28.7761 198.393 28.4901C198.468 28.3965 198.254 27.9636 197.935 27.521ZM197.08 26.6245C196.913 26.5566 196.158 26.4964 196.7 26.5684C196.83 26.5892 196.963 26.6122 197.098 26.6369C197.092 26.6328 197.086 26.6284 197.08 26.6245ZM194.523 10.726C194.07 10.6667 194.689 11.8442 195.176 12.4773C195.675 13.1281 196.141 13.3836 195.973 12.7359C195.93 12.513 194.798 10.8226 194.523 10.726Z" fill="#31260C"/>
<path d="M87.9721 24.7759C87.7867 26.4102 88.0714 28.0154 88.0714 31.5244C88.0714 32.0991 88.2346 33.6481 87.9721 33.6861C86.5121 34.0234 84.9391 34.5048 82.7731 34.7282C80.0196 35.099 78.1082 35.4827 76.6315 35.8084L76.4997 35.8375C74.3897 36.3032 73.1791 36.5704 69.633 36.6261C67.285 36.6629 63.1563 36.6629 59.6107 36.8528C56.0651 37.0427 53.1898 37.4114 50.3088 37.5957C47.4279 37.78 44.6247 37.7351 42.9216 37.818C40.6272 37.9297 39.1467 38.4916 36.6214 38.5631C32.7161 38.6737 29.0709 38.9237 26.8448 39.0468C25.511 39.1205 24.7116 39.3803 23.908 39.4936C22.3072 39.7192 19.8417 40.2362 18.1763 40.9469C16.8649 41.5066 15.1844 42.005 13.6645 42.8873C10.9086 44.4869 8.91315 44.8256 7.63786 46.9824C6.82016 48.3654 6.64618 50.1344 6.71181 51.4541C6.82463 53.7228 7.46723 55.7828 7.60547 57.5242C7.79425 59.9024 8.14496 61.7031 8.57397 68.4045C8.7594 71.301 8.25876 73.0188 9.05877 76.6261C9.42964 78.2984 9.74423 79.4357 10.0641 80.7559C10.6271 83.0794 11.3221 86.0735 11.7018 87.7935C12.0391 89.3216 12.7034 90.3511 13.1551 91.2162C13.603 92.0741 14.0603 93.2349 14.271 94.8321C14.4967 96.5424 14.2731 98.3703 15.3166 98.9608C16.4359 99.5942 17.496 99.985 18.4075 100.375C19.7156 100.935 21.0175 101.827 24.1616 101.826C29.7648 101.824 31.0852 101.409 34.4598 100.893C36.1768 100.631 38.0663 99.9985 40.7154 99.5529C42.276 99.2904 43.1347 98.8054 46.9364 98.2493C48.9829 97.9499 50.7245 97.2615 52.6659 97.0584C53.3707 96.9847 56.7543 96.1714 61.4661 95.3058C64.0991 94.8221 65.4032 94.2719 67.6882 94.1161C73.7148 93.705 75.7574 93.2634 78.4735 92.8125C80.2564 92.5164 81.6327 92.8465 86.407 90.7247C88.0759 89.9829 89.3659 89.2127 91.6617 88.6402C92.5665 88.4146 93.8936 88.1196 101.887 87.9722C109.881 87.8247 124.11 87.8247 131.491 87.8627C138.871 87.9007 139.387 87.9744 146.482 88.0493C153.576 88.1241 166.851 88.0614 173.635 88.3107C180.717 88.5709 181.791 88.5483 183.181 88.7944C184.443 89.0178 186.516 88.8089 188.767 89.2412C190.699 89.6121 193.225 89.9479 195.468 90.5079C196.657 90.8051 200.001 90.6036 204.154 91.0285C206.338 91.2519 207.675 91.6439 208.983 91.7725C210.507 91.9222 212.732 92.43 215.948 93.1141C218.411 93.638 220.457 94.2336 222.127 94.4534C223.84 94.6791 227.908 94.7623 232.892 95.7582C234.189 96.0173 235.065 96.3325 236.282 96.5781C239.403 97.2081 241.051 97.4548 242.382 97.7309C244.171 98.1018 246.46 98.1412 248.116 98.6246C249.908 99.1474 251.379 99.4877 252.284 99.6668C253.407 99.8891 254.924 100.021 256.232 100.374C257.2 100.635 258.229 101.022 259.476 100.969C262.2 100.854 264.313 100.514 265.84 99.8869C267.107 99.3663 268.085 98.9266 269.973 98.2113L270.047 98.1833C271.098 97.7855 272.071 97.4169 272.614 96.5345C273.21 95.5638 273.815 94.3949 273.915 92.9163C274.104 90.1214 274.186 87.8541 274.623 86.1067C274.922 84.9159 274.828 83.9539 275.331 82.6806C275.891 81.2653 276.398 79.7623 276.671 78.4369C276.932 77.1679 277.221 75.6535 277.602 74.0043C277.973 72.4002 278.559 70.6309 278.607 66.5769C278.644 63.4279 278.71 57.5282 278.606 54.4668C278.494 51.1826 278.572 50.6782 278.344 50.2878C277.821 49.3931 277.303 48.2288 275.846 47.4214C274.841 46.864 273.576 46.2256 271.414 45.4856C269.997 45.0008 267.319 44.6426 265.085 44.5193C264.417 44.4824 261.087 44.064 256.694 42.7275C254.135 41.9489 252.437 41.0748 249.603 40.3403C244.577 39.0378 241.096 38.2903 240.66 38.1889C239.537 37.9275 237.845 38.0738 232.267 37.2192C230.08 36.8841 228.183 36.6225 225.556 36.024C221.8 35.1683 219.442 34.5431 218.495 34.3517C214.81 33.6066 212.905 32.9938 209.954 32.9386L209.738 32.9346C205.907 32.8631 203.176 32.812 202.416 32.6024C200.663 32.1187 197.841 31.9032 195.081 31.5981C194.414 31.5244 193.936 27.4238 193.424 21.7654C193.162 18.8767 193.035 17.7498 192.491 16.905C191.746 15.7489 191.055 14.3766 190.069 12.8814C188.913 11.1287 188.008 9.37632 186.793 8.93921C185.861 8.60409 184.687 7.94302 182.613 7.44792L182.59 7.44253C181.8 7.25356 180.583 6.96283 166.756 6.81678C152.796 6.66932 126.77 6.66932 113.606 6.7073C100.441 6.74528 100.147 6.82556 99.8465 6.85587C98.7295 6.9687 97.3726 6.89962 95.8988 7.78863C94.784 8.4611 93.879 9.19463 93.0704 10.3244C91.9511 11.8883 91.2705 13.4992 90.3894 14.7547C89.4221 16.1331 88.946 17.1644 88.6792 18.3293C88.3809 19.6318 88.4517 20.5489 87.9721 24.7759Z" fill="#13546A"/>
<path d="M147.995 4.11671C150.64 4.11398 150.881 4.47899 153.003 4.51897C155.955 4.57413 158.972 4.53734 161.969 4.48247C163.466 4.45506 164.954 4.42321 166.449 4.39671C179.975 4.51492 178.999 4.60749 180.441 4.63572C182.1 4.6997 182.362 4.79426 182.739 4.91951C182.062 5.73743 182.91 6.64608 182.879 5.15163C182.941 5.21824 182.992 5.24505 183.037 5.24875C183.06 5.25074 183.08 5.24637 183.1 5.23911C183.216 5.25639 182.719 5.11389 183.589 5.31729C185.938 5.89444 186.767 6.31037 187.338 6.55919C187.416 6.61122 188.599 7.12992 189.171 7.79214C189.818 8.46446 190.312 9.21399 191.171 10.5673C192.957 13.253 193.999 14.9932 194.584 15.8369C195.243 16.8948 195.344 18.4479 194.96 19.74C195.059 20.375 195.464 24.7693 195.58 25.6309C195.728 26.9012 195.823 27.5832 195.91 28.1757C195.976 28.6159 196.034 28.9669 196.087 29.2506C197.802 29.5033 200.696 30.2317 201.584 30.4897C201.722 30.5241 201.974 30.5823 202.296 30.6681C202.652 30.7606 202.98 30.8711 202.937 30.8717C203.029 30.9239 203.571 31.0351 204.886 31.121C205.572 31.1658 206.379 31.2074 207.977 31.256C210.327 31.3175 210.575 31.3369 211.143 31.3893C212.2 31.4876 213.106 31.6547 213.514 31.7282C214.325 31.8713 215.514 32.1367 216.8 32.4153C217.442 32.5536 218.094 32.6879 218.706 32.8024C219.022 32.8563 219.049 32.8495 219.209 32.8647C219.554 32.892 219.964 32.7206 220.648 32.7727C220.999 32.801 221.41 32.8838 222.081 33.114C222.789 33.3517 223.552 33.6981 225.976 34.5371C228.08 34.9637 229.265 35.1298 230.361 35.3192C230.906 35.4116 231.418 35.5022 231.962 35.6047C231.71 35.5943 235.998 36.2415 237.014 36.3472C237.959 36.4626 237.924 36.6202 238.295 36.6517C239.025 36.7111 239.713 36.6325 240.186 36.673C241 36.7504 240.991 37.1459 241.088 36.6169C241.286 36.5706 241.735 36.5777 242.659 36.6968C242.957 36.8697 243.316 37.0572 243.785 37.2716C244.609 37.3508 245.4 37.4172 247.567 37.8399C246.929 37.8796 247.109 38.04 248.534 38.4601C248.728 38.5168 248.939 38.577 249.285 38.6716C249.58 38.7527 250.106 38.8937 250.059 38.8858C250.174 38.9239 250.299 38.962 250.432 39.0001C250.698 39.0767 250.984 39.1504 251.261 39.2157C252.369 39.4785 253.347 39.6033 252.528 39.0831C253.946 39.6517 255.15 40.2306 256.283 40.6946C256.569 40.8123 256.839 40.9207 257.125 41.0293C258.241 41.3941 259.502 41.7436 260.091 41.9055C261.402 42.2634 262.125 42.4413 262.751 42.5988C262.509 42.9995 263.884 43.2701 264.47 43.1949C265.126 43.1337 265.186 42.8123 265.187 42.5771C265.512 42.595 266.088 42.636 266.479 42.6714C268.269 42.9485 269.577 43.1561 270.824 43.4394C271.618 43.5472 274.869 44.8153 275.75 45.3943C276.414 45.7863 276.122 45.6349 277.062 46.2453C277.793 46.775 278.061 47.1465 278.261 47.4276C278.628 47.984 278.644 48.2415 278.747 48.779C279.178 49.4641 279.358 49.6978 279.501 49.9964C279.915 50.331 280.034 50.6515 280.048 51.4333C280.057 51.8263 280.034 52.6043 280.052 54.4413C280.018 54.7215 279.969 55.01 279.918 55.3184C279.709 56.5482 279.465 58.1209 279.865 61.7101C279.689 62.2832 279.576 63.0652 279.508 63.9835C279.473 64.4409 279.45 64.934 279.435 65.45C279.416 66.0331 279.435 66.1871 279.396 67.6693C279.185 72.3192 278.787 73.059 278.734 73.9711C278.7 74.2235 278.913 73.8874 278.774 74.6864C278.451 76.5593 277.753 79.3089 278.139 79.4353C277.715 80.6246 277.177 81.8211 276.533 83.1179C276.252 83.9982 276.333 84.8283 276.203 85.9644C276.337 85.9842 276.471 86.0037 276.605 86.0229C276.106 87.2013 275.979 87.4261 275.821 88.6252C275.68 89.7015 275.614 91.1374 275.484 92.2989C275.414 92.7344 275.319 92.9677 274.982 94.273C274.492 95.796 273.86 97.7238 272.058 98.6186C271.567 99.1264 271.03 99.537 270.511 99.9556C267.411 101.275 267.14 100.871 266.111 101.228C266.012 101.261 265.188 101.591 263.99 101.841C262.831 102.099 261.105 102.261 260.902 102.278C259.339 102.439 258.612 102.585 257.557 102.478C256.436 102.363 255.503 102.03 252.562 101.592C251.369 101.368 251.369 101.183 250.385 100.949C248.136 100.247 243.315 99.9208 242.59 100.159C241.791 99.9168 241.723 99.8132 241.258 99.6828C240.817 99.5536 240.216 99.4257 239.156 99.2203C238.624 99.117 237.966 98.9913 237.135 98.8266C236.743 98.7489 236.167 98.6332 235.832 98.5635C235.622 98.5191 235.401 98.468 235.203 98.4192C234.401 98.2189 233.787 98.0283 233.414 97.9061C232.919 97.7609 233.219 97.4708 230.061 96.9032C227.653 96.4783 224.669 96.4689 223.78 96.3638C222.745 96.2434 222.563 95.9978 222.225 95.9454C221.996 95.9054 221.466 96.0247 220.676 95.8676C219.432 95.6203 218.067 95.1824 216.304 94.7097C214.113 94.1595 212.117 93.6547 211.177 93.4702C208.154 92.9625 208.877 93.4047 202.334 92.9801C200.852 92.8443 199.971 92.708 199.139 92.6815C197.88 92.6444 197.028 92.6251 196.315 92.5706C195.57 92.521 195.246 92.4203 193.796 92.0971C191.18 91.6016 189.669 91.1455 186.345 90.8411C185.023 90.7608 184.066 90.7868 183.076 90.6372C182.456 90.5243 182.561 90.526 182.204 90.4705C181.878 90.4231 181.572 90.3775 180.434 90.3141C179.827 90.281 179.033 90.2458 177.144 90.1743C176.235 90.1397 174.805 90.0864 173.551 90.0366C173.283 90.0232 172.994 90.0101 172.727 89.9983C168.688 89.8036 158.034 89.0393 160.866 90.2708C159.412 90.4718 148.433 89.9553 146.253 89.9143C144.275 89.8857 142.696 90.0818 141.111 90.0586C136.376 89.979 132.451 89.7926 126.957 89.9708C125.485 90.0172 123.885 90.2747 122.994 90.2714C121.926 90.2668 120.764 90.0166 119.359 90.0025C116.02 89.9691 109.642 90.0782 106.246 90.0738C105.629 90.072 105.408 89.8542 104.515 89.7969C103.558 89.7427 103.103 89.699 101.621 89.7021C98.3156 89.7557 97.1525 89.8084 96.2262 89.8523C95.3563 89.8962 94.8963 89.9363 94.5376 89.9784C93.2507 90.1421 93.2564 90.3503 93.3876 90.6833C92.4853 90.5988 92.4438 90.6301 92.2074 90.7281C90.4131 91.1914 88.8815 92.1407 87.2353 92.8837C81.122 95.5346 79.9109 94.8296 79.1202 95.0565C78.2424 95.17 77.0485 95.4565 73.7084 95.8817C72.8354 95.9888 71.7471 96.1057 70.4159 96.2209C69.7524 96.2784 69.0278 96.3358 68.2689 96.3904C67.3305 96.4557 67.5618 96.4432 67.2178 96.4799C66.2076 96.5929 65.1163 96.8874 63.6488 97.2424C63.2881 97.3285 62.9187 97.4129 62.5412 97.4931C62.3497 97.5338 62.1607 97.5724 61.9785 97.6085C62.0039 97.605 61.3728 97.7222 61.07 97.7807C60.7517 97.8418 60.4863 97.8938 60.2379 97.9429C58.4337 98.3022 57.6962 98.4699 56.9641 98.6334C55.5986 98.9427 54.9324 99.1166 54.4234 99.2595C53.1643 99.6163 53.4753 99.657 52.2375 99.9184C51.7082 100.046 51.0958 100.214 50.0954 100.462C49.5934 100.585 48.9885 100.729 48.2222 100.861C47.6667 100.963 45.6543 101.208 44.5757 101.425C42.7024 101.79 42.1666 101.92 41.1755 102.013C38.373 102.409 36.5859 102.805 35.1171 102.965C33.8128 103.088 32.9207 103.282 31.5454 103.842C30.5188 103.947 29.1959 104.067 27.6155 104.115C26.0308 104.137 24.3841 104.269 22.1647 103.99C18.3753 103.287 18.2815 102.494 17.4182 101.911C17.0635 101.919 16.6677 101.913 16.2172 101.877C15.6629 101.643 15.0171 101.359 14.2552 100.936C14.1298 100.715 13.8733 100.371 13.7486 100.045C12.5782 98.7643 12.6411 97.4564 12.4685 95.9089C12.3353 94.3576 11.8756 93.2393 11.5548 92.6843C11.2428 92.1214 10.8771 91.7529 10.2509 90.5415C9.95743 89.9668 9.62562 89.1486 9.42192 88.2743C9.33075 87.9309 9.24153 87.5724 9.16086 87.2139C8.88407 85.9897 8.49658 84.2185 7.81357 81.2854C7.61789 80.4177 7.3435 79.3531 7.00286 77.8194C6.64001 76.2928 6.36732 74.3132 6.37674 72.8514C6.37287 71.3502 6.46689 70.2668 6.46078 69.3379C6.46075 69.1038 6.45809 68.8938 6.45079 68.667C6.45561 68.6304 6.3668 67.1961 6.32715 66.5782C6.2323 65.1005 6.14879 63.9895 6.08332 63.1514C5.82616 59.9732 5.7929 59.5149 5.7706 58.7883C5.73456 57.5117 5.51744 57.6377 5.85601 56.1047C5.71149 55.5436 5.5408 54.9173 5.37351 54.2033C5.16463 53.7738 4.95655 53.3062 4.76186 52.7823C4.60307 51.3659 4.60664 50.5291 4.78218 49.3018C4.87416 48.7059 5.0169 48.0758 5.26055 47.4049C5.48541 46.7535 5.95218 45.9159 6.21729 45.5675C7.49603 43.6901 9.73975 42.8318 11.6612 41.8618C13.2461 40.933 15.7369 39.8552 17.0731 39.3318C18.8444 38.5007 21.3378 37.8825 23.265 37.553C24.1634 37.4323 24.3527 37.25 26.2179 37.035C27.6361 36.9247 27.6601 36.9309 28.5247 36.8766C30.017 36.7878 31.8437 36.7004 34.0712 36.6655C36.7648 36.6391 38.5825 36.7834 40.2001 36.4678C41.3497 36.2727 42.1745 36.0759 42.8857 35.9291C43.4097 35.7902 43.9971 35.66 45.332 35.6357C46.3997 35.6142 48.543 35.6219 50.5396 35.5265C51.8988 35.4809 53.5381 35.3828 55.4601 35.2744C57.3196 35.1681 59.8123 35.0612 61.964 35.0437C64.0119 35.0237 65.4876 35.0344 66.5941 35.0103C67.8892 34.9838 68.3993 34.8115 69.1151 34.7844C69.4016 34.7706 70.085 34.7559 70.8423 34.7203C71.5673 34.6861 72.1935 34.6378 72.7124 34.5798C73.7495 34.4629 74.3988 34.3181 75.0216 34.1707C76.3071 33.862 76.9828 33.6131 79.1161 33.0972C85.1057 32.5746 84.5552 33.2994 85.9645 33.5435C86.4964 33.6299 87.2952 33.826 88.169 33.9244C89.0775 33.0915 89.0122 32.1149 89.2459 31.6162C89.2765 31.5564 89.3097 31.5301 89.3447 31.5288C89.3343 31.5267 89.3237 31.5221 89.3131 31.5146C89.081 31.3038 88.7605 28.8449 88.4707 28.6816C88.1903 28.4882 86.405 28.383 86.2403 26.7024C86.1896 26.1209 86.1903 25.49 86.2686 24.8674C86.2575 25.016 86.5383 22.6857 86.6357 21.7647C86.7496 20.7278 86.8125 20.2018 86.8764 19.7841C87.1236 18.2725 87.3333 17.9264 87.6475 16.9449C87.8075 16.4733 88.014 15.8809 88.368 15.1754C88.7246 14.4524 89.2401 13.6876 89.4147 13.3593C90.1861 12.0242 91.1452 9.97857 92.383 8.52846C93.0005 7.79979 93.6965 7.18909 94.3998 6.65872C94.8562 6.22903 96.738 5.2415 97.7829 5.04935C98.7064 5.03044 99.3794 5.13864 99.6822 5.21672C99.706 5.32997 99.7336 5.44294 99.7728 5.55458C99.8309 5.44034 100.091 5.72487 100.368 5.69854C100.591 5.6769 100.7 5.4898 101.338 5.46813C101.889 5.45442 101.615 5.49425 105.053 5.50808C105.57 5.50947 106.172 5.51027 107.395 5.50843C108.058 5.5073 108.802 5.50589 110.208 5.50257C110.981 5.50066 111.851 5.49881 113.056 5.49637C113.836 5.49466 113.568 5.49593 113.629 5.49637C113.641 5.49696 113.654 5.49752 113.667 5.4981C113.874 5.50738 114.091 5.51577 114.316 5.5222C114.773 5.53507 115.239 5.54041 115.738 5.53185C119.001 5.47695 119.602 5.00214 121.576 4.93914C123.634 4.87406 126.862 5.12948 129.533 4.96221C129.867 4.90994 130.202 4.85774 130.539 4.80551C130.298 4.68739 130.057 4.56923 129.817 4.45113C131.167 4.39609 131.744 4.63814 132.985 4.64296C134.446 4.64881 135.193 4.42001 136.183 4.42185C136.99 4.42358 138.09 4.60871 139.143 4.59853C140.679 4.58468 140.345 4.31843 141.173 4.26997C141.498 4.25051 147.635 4.11708 147.995 4.11671ZM154.169 8.09073C153.065 8.09455 152.343 8.3738 150.109 8.43616C142.659 8.64035 132.825 8.33104 126.001 8.47749C122.638 8.54912 118.023 8.91419 114.831 9.00201C114.502 9.01078 114.124 9.01658 113.722 9.02026C104.283 9.05285 104.108 9.07601 102.977 9.08466C101.245 9.10477 101.016 9.10916 100.69 9.11428C100.164 9.12401 100.217 9.13206 100.189 9.21175C100.178 9.30812 100.205 9.61276 100.201 9.65154C100.178 9.68742 100.234 9.49894 100.048 9.50758C98.3511 9.61229 97.8027 9.58472 96.7889 10.2415C95.9174 10.7972 95.4143 11.0943 94.3588 12.7725C93.6992 13.9033 92.5198 15.7317 91.4624 17.5421C90.7074 19.3802 90.9511 18.4897 90.6238 21.1558C90.5468 21.8878 90.4112 23.2446 90.1882 25.0289C90.1436 25.2531 90.1103 25.4161 90.0766 25.6644C90.0098 26.1403 89.9681 26.7758 89.9268 27.615C89.8603 29.2143 89.6615 31.5778 89.3475 31.5288C89.5932 31.5287 89.9332 32.7377 90.162 32.2007C90.1956 32.6262 90.2208 32.9645 90.2102 33.3599C90.2008 33.564 90.2 33.7601 90.1048 34.1283C90.0316 34.335 90.0637 34.4782 89.6347 35.0351C89.1732 35.6708 88.1487 35.817 88.3308 35.7873C88.1041 35.8522 87.6734 35.9687 87.2718 36.0693C86.4502 36.2749 85.4957 36.4842 84.331 36.6269C81.8205 36.8519 79.3837 37.1005 78.0275 37.1797C76.7569 37.4333 75.9387 37.7094 73.8695 38.0097C72.8407 38.1526 71.4162 38.2462 69.8215 38.2742C68.9485 38.2906 68.3771 38.2967 67.5316 38.3079C65.8929 38.3305 64.0042 38.35 61.6014 38.4364C58.9221 38.5308 56.8074 38.7194 54.877 38.8992C54.1631 38.8061 53.4791 38.7117 52.823 38.6113L52.8227 38.6103C50.4843 38.649 47.9714 39.1496 46.4296 39.264C44.3246 39.4329 43.4691 39.3994 41.2994 39.7785C40.2816 39.9618 38.9969 40.2643 37.5018 40.3898C36.8226 40.4523 35.6809 40.4769 34.7969 40.5255C33.896 40.5703 33.0998 40.6161 32.3713 40.6601C30.9122 40.7486 29.71 40.831 28.6776 40.8992C28.1621 40.9333 27.6939 40.9637 27.2673 40.9897C27.0272 40.9924 25.7924 41.1154 25.3025 41.2346C23.1639 41.6135 20.2343 42.0761 17.8483 43.1625C16.5106 43.6654 15.6224 43.9422 13.7651 45.0082C11.9507 45.9361 10.6249 46.4826 10.0391 46.9888C9.45285 47.4568 8.94615 48.1462 8.68043 49.309C8.43691 50.4324 8.42741 51.3405 8.63634 52.9166C8.83118 54.3292 9.11681 55.5648 9.25282 56.7542C9.33294 57.4733 9.31629 57.5817 9.33444 57.8281C9.34816 58.0611 9.36507 58.3078 9.38713 58.5851C9.47177 59.7678 9.64928 60.8291 10.026 65.9638C10.243 69.0453 10.2566 69.3648 10.2368 71.0402C10.2087 72.5588 10.2139 74.3736 10.7651 76.5985C11.7176 80.4479 12.6136 84.1947 12.7285 85.3031C12.7968 85.8992 12.596 86.1106 12.713 86.6766C12.8586 87.219 13.0438 88.1231 13.3735 88.8188C13.6822 89.4986 13.9976 89.9859 14.27 90.4609C14.7448 91.2974 15.5654 92.7963 15.7985 95.5945C15.8871 96.7769 15.9785 97.4193 16.0884 97.6305C16.2422 97.841 15.8686 97.5095 16.8509 98.0087C18.3317 98.6606 19.3038 98.9671 20.0886 99.316C20.5206 99.5362 20.9847 99.777 21.7972 99.9869C22.5279 100.212 24.229 100.28 25.401 100.265C27.9225 100.266 29.7863 100.105 31.0202 99.9294C33.6538 99.5242 34.4039 99.481 38.3187 98.5008C40.9725 97.9212 40.8047 98.027 41.991 97.685C42.7573 97.3687 47.5426 96.6212 48.3834 96.3521C49.1499 96.161 49.9323 95.938 50.7497 95.7532C51.5002 95.5681 52.7435 95.4222 52.5675 95.4329C52.7787 95.3882 53.4381 95.2436 54.7771 94.9522C55.8418 94.7273 56.3989 94.578 60.115 93.858C61.771 93.5459 61.4143 93.6138 61.8156 93.5319C62.105 93.4715 62.391 93.4082 62.6728 93.3428C63.2374 93.212 63.7868 93.0729 64.33 92.9447C65.4158 92.6845 66.4749 92.5 67.492 92.4243C69.5943 92.2787 71.6718 92.0827 72.9324 91.9256C77.8461 91.2652 77.8204 91.0855 80.8044 90.7409C81.5295 90.6321 83.4609 90.1046 85.7647 89.0499C86.4722 88.7311 87.2807 88.3043 88.3935 87.829C89.3349 87.3847 91.6797 86.7526 91.335 86.8467C91.4874 86.8051 91.6858 86.7531 91.989 86.6928C92.3042 86.6321 92.6669 86.5642 93.5343 86.4755C93.9889 86.4307 94.5378 86.3803 95.6951 86.3157C96.2875 86.2833 97.0431 86.2461 98.3146 86.2038C99.2706 86.1678 101.859 86.1145 102.133 86.1087C104.458 86.0597 106.682 86.0294 108.895 86.0043C117.784 85.9121 125.732 85.8854 134.278 85.9324C138.766 85.961 142.792 86.0611 146.945 86.096C151.349 86.1343 155.638 86.1373 159.889 86.1659C163.175 86.1881 166.87 86.1669 170.506 86.2106C171.411 86.2219 172.325 86.238 173.212 86.2626C173.569 86.2737 173.072 86.2546 174.533 86.3067C175.614 86.3448 176.534 86.3756 177.266 86.4001C178.735 86.4489 179.517 86.4754 180.109 86.4986C182.234 86.5826 182.431 86.6422 182.965 86.7362C183.837 86.9283 182.959 87.1654 188.13 87.2648C188.176 87.3768 188.227 87.4896 188.274 87.6024C189.053 87.6989 189.324 87.7529 189.624 87.7839C189.927 87.8194 190.231 87.8518 190.538 87.8834C191.152 87.9466 191.773 88.0061 192.436 88.0821C193.1 88.1586 193.805 88.2494 194.617 88.3914C195.019 88.4618 195.473 88.5511 195.931 88.6562C196.004 88.6637 196.025 88.6598 196.137 88.6721C196.656 88.7451 197.287 88.6689 202.265 88.9186C202.828 88.9501 204.302 89.0788 204.674 89.1256C205.233 89.189 205.704 89.2574 206.122 89.3247C206.954 89.4597 207.535 89.5782 207.977 89.6591C208.863 89.8267 209.18 89.8423 209.601 89.9074C210.418 90.039 210.043 90.1801 210.965 90.3386C211.809 90.4857 213.222 90.711 216.682 91.3842C219.25 91.8874 220.809 92.2321 221.779 92.394C222.79 92.5647 222.923 92.6039 224.123 92.7566C225.202 92.8924 226.811 93.0724 228.18 93.2164C229.37 93.3422 231.029 93.5272 233.369 93.9761C234.46 94.1787 235.413 94.4532 236.206 94.6105C236.424 94.6551 237.619 94.8777 238.389 95.0128C239.182 95.1521 239.775 95.2479 240.263 95.3241C241.232 95.4749 241.823 95.5563 242.333 95.6334C243.084 95.8092 245.674 95.9618 247.697 96.3167C248.663 96.486 250.548 97.0753 251.273 97.2259C252.177 97.4363 252.37 97.4947 253.222 97.6495C254.104 97.8107 255.426 98.0155 256.79 98.4512C257.703 98.7819 258.336 99.0155 258.602 99.0443C259.442 99.1701 260.589 98.7603 261.502 98.6476C262.773 98.4717 263.76 98.2517 264.473 98.0256C265.053 97.8507 265.93 97.4594 267.507 96.8522C268.277 96.5505 269.463 96.1316 269.978 95.934C270.57 95.7047 270.75 95.5517 270.815 95.4894C271.135 95.0506 271.735 94.0017 271.848 93.1696C272.043 91.0686 272.134 88.591 272.372 87.1212C272.479 86.3247 272.684 85.6703 272.782 85.0187C272.885 84.346 272.999 82.988 273.498 81.8209C274.222 79.976 274.606 78.5595 274.876 77.0737C275.035 76.2807 275.216 75.361 275.462 74.2404C275.608 73.581 275.655 73.3839 275.704 73.1762C275.755 72.962 275.809 72.7413 275.867 72.4957C276.073 71.5537 276.531 70.0597 276.557 66.2817C276.575 64.3917 276.591 62.5386 276.597 60.7076C276.602 58.8791 276.602 57.0637 276.567 55.3205C276.562 55.1051 276.557 54.8945 276.55 54.6751C276.547 54.5719 276.554 54.777 276.54 54.3676C276.527 53.9632 276.517 53.6016 276.509 53.3082C276.493 52.7148 276.486 52.3637 276.48 52.099C276.466 51.437 276.454 51.2077 276.447 51.1033C276.443 51.0954 276.438 51.0873 276.433 51.0789C275.688 48.1581 268.365 46.5987 264.454 46.4953C263.902 46.4273 263.102 46.3268 261.44 45.9928C260.531 45.7998 259.769 45.6695 257.318 44.9903C257.004 44.9023 256.426 44.7324 256.097 44.6311C256.017 44.606 255.937 44.5807 255.857 44.555C255.694 44.5028 255.527 44.448 255.365 44.3934C255.042 44.2843 254.722 44.171 254.407 44.0556C253.14 43.5917 251.955 43.1014 250.798 42.71C250.094 42.4804 250.18 42.4743 248.713 42.0856C246.78 41.5847 246.38 41.4864 245.718 41.3173C245.129 41.1674 244.688 41.0553 244.314 40.9598C242.065 40.385 242.805 40.2843 241.753 40.0426C240.799 39.8265 240.631 39.9787 240.452 39.9534C240.153 39.9186 240.207 39.927 239.385 39.8832C238.936 39.8566 238.443 39.8542 236.691 39.6979C235.822 39.6172 234.307 39.4608 231.949 39.1048C231.513 39.0436 231.06 38.9804 230.583 38.912C229.629 38.7751 228.567 38.6147 227.407 38.3981C226.827 38.29 226.23 38.1694 225.616 38.0345C225.463 38.0008 225.311 37.9667 225.159 37.9322C224.864 37.8649 224.319 37.7398 224.005 37.6663C223.326 37.508 222.835 37.3908 222.413 37.2892C219.316 36.5368 218.965 36.4177 218.457 36.2553C218.285 36.1983 218.267 36.1303 218.111 36.04C217.653 35.8887 217.257 35.7509 216.902 35.6753C216.545 35.5996 215.692 35.5582 214.711 35.3612C212.481 34.9202 211.511 34.7981 209.679 34.7764C206.246 34.7178 205.75 34.7017 204.751 34.6656C203.888 34.6317 203.335 34.5943 202.882 34.545C202.047 34.4788 201.331 34.1524 199.686 33.9368C198.89 33.822 197.963 33.714 196.799 33.5869C195.621 33.4084 194.157 33.5503 193.517 32.5916C192.777 31.4856 192.761 30.8968 192.398 28.6479C192.235 27.4721 192.047 26.1001 191.589 21.0184C191.365 18.6253 191.234 18.4059 191.136 18.1148C191.084 18.1376 186.262 9.35265 185.609 10.4202C184.952 10.1629 184.357 9.82016 182.698 9.35364C182.163 9.21175 182.171 9.22265 182.158 9.21932C182.143 9.21663 182.127 9.21428 182.112 9.21175C182.081 9.20626 182.053 9.20166 182.024 9.19694C181.903 9.17887 181.812 9.1567 181.337 9.10292C184.394 9.03779 161.091 8.54475 160.791 8.57392C157.148 8.51815 154.677 8.08892 154.169 8.09073ZM188.986 90.8194C189.587 90.8692 190.205 90.9136 190.844 90.9626C190.504 90.8202 190.171 90.6791 189.845 90.538C189.537 90.4876 189.236 90.4374 188.938 90.3851C188.954 90.5298 188.97 90.6746 188.986 90.8194ZM196.218 29.8626C196.251 29.9899 196.281 30.0937 196.311 30.1815C196.415 30.4928 196.528 30.5465 196.505 30.331C196.529 30.2455 196.399 30.0612 196.218 29.8626ZM192.721 13.4809C192.377 13.3737 193.002 14.5008 193.464 15.1447C193.937 15.8043 194.347 16.1156 194.108 15.4943C194.026 15.2693 192.938 13.5955 192.721 13.4809Z" fill="white"/>
<path d="M244.808 79.7334C243.688 79.4927 242.745 79.1886 241.98 78.821C241.214 78.4535 240.556 77.9526 240.005 77.3183C238.857 76.0401 238.572 74.0563 239.149 71.3669C239.663 68.9763 240.725 67.4147 242.336 66.6823C243.842 66.0052 245.625 65.8882 247.687 66.3311C248.569 66.5205 249.314 66.7274 249.922 66.9518C250.533 67.1613 251.131 67.4695 251.716 67.8765C252.316 68.2867 252.76 68.765 253.049 69.3117C253.353 69.8615 253.544 70.5746 253.621 71.4509C253.702 72.3123 253.622 73.3033 253.381 74.4239C252.893 76.695 251.883 78.2678 250.351 79.1422C248.822 80.0017 246.975 80.1988 244.808 79.7334ZM244.963 75.1946C244.952 75.755 244.987 76.0987 245.069 76.2257C245.166 76.356 245.305 76.4404 245.484 76.4789C245.678 76.5206 245.839 76.5004 245.966 76.4183C246.108 76.3394 246.281 76.0406 246.487 75.522C246.707 75.0066 246.903 74.3454 247.077 73.5386C247.253 72.7168 247.366 72.0845 247.414 71.6416C247.48 71.1869 247.509 70.8336 247.501 70.5817C247.507 70.333 247.48 70.1318 247.419 69.9781C247.327 69.755 247.183 69.6226 246.989 69.5808C246.81 69.5423 246.647 69.57 246.502 69.6638C246.36 69.7428 246.178 70.0474 245.954 70.5778C245.734 71.0932 245.517 71.8514 245.301 72.8525C245.086 73.8535 244.973 74.6343 244.963 75.1946Z" fill="white"/>
<path d="M227.177 76.6101C225.801 76.4064 224.776 75.9225 224.101 75.1583C223.809 74.8369 223.581 74.3938 223.417 73.8289C223.269 73.2662 223.247 72.6296 223.353 71.9191C223.458 71.2086 223.716 70.6134 224.127 70.1335C224.553 69.6559 225.029 69.3093 225.555 69.0937C226.082 68.8781 226.683 68.7277 227.36 68.6425C228.381 68.531 229.481 68.5626 230.66 68.7372L231.408 68.8479C231.5 68.2281 231.346 67.7573 230.945 67.4354C230.795 67.3049 230.53 67.2117 230.152 67.1558C229.79 67.1021 229.329 67.1343 228.771 67.2525C228.228 67.3729 227.767 67.5132 227.388 67.6734C227.011 67.8184 226.762 67.882 226.641 67.8641C226.369 67.8238 226.051 67.4137 225.688 66.6338C225.327 65.8388 225.19 65.1465 225.277 64.5569C225.306 64.3604 225.624 64.1448 226.23 63.9101C226.836 63.6755 227.665 63.5046 228.716 63.3976C229.784 63.2777 230.802 63.2894 231.77 63.4326C232.737 63.5759 233.556 63.7821 234.227 64.0514C234.915 64.3078 235.462 64.5818 235.866 64.8734C236.286 65.1674 236.62 65.5257 236.866 65.9484C237.127 66.3733 237.311 66.7481 237.418 67.0729C237.539 67.3998 237.61 67.8119 237.629 68.3091C237.637 68.8819 237.58 69.5764 237.459 70.3927L236.449 77.2182C236.424 77.3845 235.996 77.4601 235.164 77.4451C234.349 77.4171 233.541 77.3439 232.74 77.2252C231.954 77.1088 231.443 77.0101 231.208 76.9289C230.988 76.85 230.86 76.7769 230.823 76.7097C230.787 76.6426 230.765 76.5311 230.757 76.3755L230.767 75.0561L230.586 75.0292C230.006 76.3338 228.87 76.8608 227.177 76.6101ZM230.773 73.2958L231.165 70.6427C230.772 70.5845 230.43 70.7038 230.139 71.0006C229.848 71.2973 229.671 71.6574 229.609 72.0806C229.461 73.0784 229.614 73.6108 230.067 73.678C230.264 73.7071 230.422 73.6841 230.541 73.6091C230.677 73.5212 230.755 73.4167 230.773 73.2958ZM237.661 61.9876C237.627 62.2144 237.182 62.5114 236.324 62.8788C235.481 63.2484 234.765 63.3895 234.176 63.3023C233.601 63.2172 232.925 62.9857 232.147 62.6079C231.386 62.2171 230.884 62.0039 230.642 61.968C230.416 61.9345 229.95 62.0045 229.244 62.1781C228.541 62.3366 228.053 62.3957 227.781 62.3555C227.509 62.3152 227.261 62.0081 227.037 61.4342C226.83 60.8475 226.748 60.4105 226.791 60.1232C226.829 59.8663 227.291 59.5639 228.176 59.2161C229.079 58.8555 229.803 58.7154 230.347 58.796C230.892 58.8766 231.538 59.1036 232.286 59.4769C233.049 59.8526 233.604 60.0661 233.952 60.1176C234.058 60.1333 234.447 60.0596 235.12 59.8966C235.808 59.7359 236.296 59.6768 236.583 59.7193C236.886 59.7641 237.146 60.0885 237.366 60.6926C237.601 61.2989 237.699 61.7306 237.661 61.9876Z" fill="white"/>
<path d="M214.411 75.0507C213.271 74.9302 212.302 74.7279 211.502 74.4437C210.702 74.1594 209.994 73.7312 209.378 73.159C208.101 72.0099 207.607 70.0676 207.896 67.332C208.153 64.9004 209.044 63.2349 210.568 62.3356C211.993 61.5026 213.754 61.1969 215.851 61.4185C216.748 61.5132 217.511 61.6398 218.139 61.7984C218.769 61.9419 219.397 62.1849 220.021 62.5275C220.661 62.8716 221.154 63.3002 221.499 63.813C221.86 64.3275 222.125 65.0163 222.295 65.8795C222.467 66.7274 222.492 67.7213 222.372 68.8611C222.128 71.1712 221.291 72.8423 219.86 73.8744C218.431 74.8914 216.615 75.2834 214.411 75.0507ZM214.083 70.5211C214.131 71.0794 214.203 71.4174 214.298 71.535C214.409 71.6543 214.555 71.7235 214.738 71.7428C214.935 71.7636 215.093 71.7265 215.21 71.6314C215.343 71.5378 215.484 71.2223 215.633 70.6848C215.797 70.149 215.923 69.4707 216.009 68.65C216.098 67.8142 216.142 67.1735 216.143 66.7279C216.161 66.2688 216.152 65.9144 216.117 65.6648C216.097 65.4169 216.049 65.2197 215.972 65.0732C215.856 64.8612 215.7 64.7448 215.502 64.7239C215.32 64.7047 215.161 64.7494 215.027 64.8581C214.894 64.9517 214.745 65.274 214.579 65.825C214.415 66.3609 214.279 67.138 214.171 68.1562C214.064 69.1744 214.034 69.9627 214.083 70.5211Z" fill="white"/>
<path d="M204.831 75.5798C204.5 76.0749 204.038 76.3986 203.443 76.5508C202.863 76.7195 202.207 76.7749 201.475 76.717C200.759 76.6604 200.235 76.6036 199.902 76.5466C199.568 76.5048 199.215 76.4156 198.843 76.2788C198.484 76.1585 198.205 76.0061 198.005 75.8216C197.55 75.3717 197.357 74.7126 197.426 73.8442C197.524 72.595 197.894 71.9957 198.534 72.0463C198.732 72.062 198.886 72.0436 198.998 71.9911C199.298 71.8768 199.48 71.416 199.544 70.6086L200.486 58.7028C200.513 58.3677 200.973 58.0745 201.866 57.8233C202.777 57.558 203.727 57.4646 204.717 57.5429C206.225 57.6622 206.951 58.0799 206.894 58.7959L205.895 71.433C205.811 72.4841 205.699 73.3184 205.559 73.9358C205.418 74.5532 205.175 75.1012 204.831 75.5798Z" fill="white"/>
<path d="M184.273 72.7601C183.129 72.7034 182.149 72.5555 181.335 72.3163C180.52 72.0771 179.79 71.689 179.143 71.1521C177.804 70.076 177.202 68.1642 177.338 65.4168C177.459 62.9747 178.255 61.2621 179.727 60.2792C181.103 59.368 182.844 58.9646 184.951 59.0688C185.851 59.1133 186.62 59.1973 187.256 59.3206C187.894 59.4286 188.534 59.6362 189.176 59.9434C189.834 60.2514 190.35 60.6518 190.724 61.1446C191.112 61.6382 191.416 62.3111 191.633 63.1634C191.852 64.0005 191.933 64.9914 191.877 66.1362C191.762 68.4562 191.019 70.1714 189.648 71.2817C188.278 72.3768 186.486 72.8696 184.273 72.7601ZM183.693 68.2559C183.772 68.8106 183.863 69.1441 183.965 69.2562C184.081 69.3691 184.231 69.4301 184.415 69.4392C184.613 69.449 184.768 69.4031 184.88 69.3015C185.008 69.2007 185.131 68.8779 185.25 68.3329C185.384 67.7887 185.471 67.1045 185.512 66.2803C185.553 65.4408 185.562 64.7986 185.538 64.3537C185.531 63.8943 185.502 63.5409 185.453 63.2937C185.419 63.0472 185.36 62.853 185.275 62.7111C185.148 62.5059 184.985 62.3984 184.786 62.3886C184.603 62.3795 184.448 62.433 184.319 62.5491C184.192 62.6499 184.061 62.98 183.926 63.5395C183.792 64.0837 183.7 64.8671 183.649 65.8897C183.599 66.9124 183.613 67.7011 183.693 68.2559Z" fill="white"/>
<path d="M166.361 72.0896C164.971 72.0506 163.896 71.6918 163.135 71.013C162.807 70.7286 162.528 70.3157 162.298 69.7741C162.084 69.2331 161.987 68.6035 162.007 67.8855C162.028 67.1676 162.213 66.546 162.564 66.0207C162.931 65.4959 163.362 65.0953 163.859 64.8187C164.356 64.5422 164.936 64.3215 165.598 64.1566C166.598 63.9248 167.694 63.8256 168.885 63.859L169.642 63.8802C169.659 63.2539 169.45 62.8047 169.014 62.5326C168.849 62.4209 168.576 62.3597 168.194 62.349C167.827 62.3387 167.374 62.4254 166.834 62.609C166.309 62.793 165.868 62.987 165.51 63.191C165.153 63.3797 164.914 63.4724 164.792 63.4689C164.517 63.4612 164.152 63.0917 163.699 62.3605C163.246 61.6139 163.028 60.9428 163.045 60.347C163.05 60.1484 163.34 59.8967 163.914 59.5917C164.488 59.2868 165.291 59.0188 166.322 58.7879C167.368 58.542 168.38 58.4328 169.358 58.4603C170.336 58.4877 171.173 58.5953 171.871 58.783C172.585 58.9559 173.16 59.1632 173.597 59.4048C174.049 59.6468 174.422 59.963 174.717 60.3535C175.027 60.7444 175.254 61.0947 175.398 61.4045C175.558 61.7148 175.676 62.1156 175.754 62.607C175.83 63.1748 175.856 63.8711 175.833 64.696L175.64 71.5932C175.635 71.7612 175.219 71.8872 174.391 71.9709C173.579 72.0399 172.768 72.063 171.958 72.0403C171.164 72.018 170.645 71.9805 170.402 71.9278C170.174 71.8756 170.038 71.8182 169.994 71.7558C169.95 71.6935 169.915 71.5855 169.888 71.4318L169.742 70.1206L169.558 70.1154C169.138 71.4796 168.072 72.1376 166.361 72.0896ZM169.539 68.372L169.614 65.6911C169.217 65.6799 168.891 65.839 168.637 66.1682C168.383 66.4974 168.25 66.8759 168.238 67.3036C168.21 68.3118 168.425 68.8224 168.883 68.8352C169.082 68.8408 169.236 68.7993 169.346 68.7106C169.471 68.6071 169.535 68.4942 169.539 68.372ZM175.036 56.3264C175.03 56.5555 174.623 56.9034 173.814 57.3699C173.022 57.8369 172.327 58.062 171.732 58.0453C171.151 58.029 170.452 57.8794 169.634 57.5966C168.833 57.2989 168.309 57.1466 168.065 57.1398C167.836 57.1334 167.381 57.2582 166.701 57.5143C166.022 57.7551 165.545 57.8717 165.27 57.864C164.995 57.8563 164.712 57.5808 164.422 57.0376C164.147 56.4795 164.013 56.0553 164.022 55.7651C164.029 55.5054 164.452 55.1503 165.29 54.6999C166.144 54.2346 166.846 54.0097 167.396 54.0252C167.946 54.0406 168.614 54.1893 169.401 54.4713C170.203 54.7537 170.78 54.8998 171.132 54.9097C171.239 54.9127 171.616 54.7933 172.265 54.5516C172.93 54.3104 173.407 54.1938 173.697 54.202C174.003 54.2105 174.3 54.5017 174.59 55.0755C174.895 55.6497 175.044 56.0667 175.036 56.3264Z" fill="white"/>
<path d="M158.923 70.7539C158.461 71.0853 157.816 71.3613 156.988 71.582C156.176 71.7875 155.121 71.8835 153.822 71.87C152.538 71.8566 151.317 71.7369 150.158 71.5109C148.998 71.2849 148.168 71.0393 147.667 70.7743C147.165 70.5093 146.915 70.2545 146.918 70.01C146.927 69.1543 147.058 68.2692 147.312 67.3549C147.567 66.4253 147.862 65.9622 148.198 65.9657C148.259 65.9664 148.891 66.1793 150.094 66.6044C151.297 67.0296 152.204 67.2453 152.815 67.2517C153.427 67.258 153.825 67.201 154.009 67.0807C154.194 66.9451 154.288 66.755 154.29 66.5105C154.293 66.266 154.127 66.0503 153.793 65.8635C153.458 65.6613 153.04 65.4888 152.537 65.3461C152.034 65.188 151.487 64.9683 150.893 64.6871C150.316 64.406 149.776 64.0947 149.276 63.7533C148.775 63.4118 148.359 62.9337 148.03 62.319C147.7 61.689 147.539 60.9766 147.547 60.182C147.583 56.7896 149.625 55.1144 153.675 55.1565C155.188 55.1723 156.493 55.2852 157.591 55.4953C158.69 55.6901 159.459 55.9121 159.9 56.1612C160.356 56.3952 160.583 56.6268 160.58 56.856C160.572 57.6506 160.372 58.5044 159.98 59.4173C159.604 60.3304 159.24 60.7851 158.889 60.7814C158.828 60.7808 158.63 60.7099 158.295 60.5689C157.291 60.1153 156.453 59.8849 155.781 59.8779C155.123 59.8711 154.672 59.9275 154.426 60.0473C154.196 60.1671 154.079 60.3569 154.076 60.6167C154.074 60.8612 154.24 61.0693 154.574 61.2409C154.909 61.3972 155.32 61.5466 155.808 61.6893C156.311 61.8168 156.851 62.0211 157.429 62.3022C158.022 62.5681 158.569 62.8871 159.069 63.2591C159.57 63.6158 159.985 64.1245 160.314 64.7851C160.644 65.4457 160.804 66.2115 160.795 67.0825C160.785 67.9994 160.54 68.8298 160.058 69.5736C159.763 70.029 159.385 70.4225 158.923 70.7539Z" fill="white"/>
<path d="M131.118 71.8961C129.727 71.9106 128.631 71.5934 127.83 70.9446C127.506 70.6729 127.219 70.2708 126.969 69.7386C126.734 69.2061 126.613 68.5808 126.606 67.8625C126.598 67.1443 126.76 66.516 127.09 65.9777C127.436 65.4392 127.852 65.0222 128.338 64.7268C128.824 64.4313 129.395 64.1885 130.05 63.9983C131.041 63.7282 132.132 63.5869 133.324 63.5745L134.08 63.5666C134.074 62.9401 133.855 62.4991 133.425 62.2438C133.24 62.1387 132.957 62.0882 132.575 62.0922C132.208 62.096 131.758 62.2 131.225 62.4043C130.708 62.6083 130.275 62.8192 129.925 63.0368C129.576 63.2391 129.34 63.3409 129.218 63.3421C128.943 63.345 128.565 62.9898 128.083 62.2765C127.602 61.5479 127.358 60.8857 127.352 60.2897C127.35 60.091 127.63 59.8283 128.192 59.5015C128.754 59.1747 129.546 58.8761 130.567 58.6057C131.603 58.3198 132.61 58.1717 133.588 58.1616C134.566 58.1514 135.408 58.2267 136.112 58.3874C136.832 58.5328 137.415 58.7177 137.86 58.9423C138.321 59.1668 138.706 59.4684 139.016 59.8473C139.341 60.226 139.581 60.5673 139.737 60.8714C139.909 61.1752 140.035 61.5713 140.117 62.0595C140.229 62.6238 140.29 63.3185 140.299 64.1437L140.371 71.0432C140.372 71.2113 139.961 71.3531 139.137 71.4687C138.328 71.5688 137.519 71.6231 136.709 71.6315C135.914 71.6398 135.394 71.6223 135.149 71.579C134.92 71.5355 134.782 71.4835 134.735 71.4228C134.689 71.3622 134.649 71.2556 134.617 71.1031L134.42 69.7985L134.237 69.8004C133.869 71.1797 132.829 71.8783 131.118 71.8961ZM134.15 68.059L134.122 65.3772C133.725 65.3813 133.405 65.5528 133.164 65.8915C132.923 66.2302 132.805 66.6135 132.81 67.0414C132.82 68.05 133.055 68.5519 133.513 68.5471C133.712 68.545 133.864 68.4976 133.97 68.4048C134.091 68.2965 134.151 68.1813 134.15 68.059Z" fill="white"/>
<path d="M124.791 54.9396L125.148 71.2111C125.152 71.3792 124.719 71.5263 123.851 71.6523C122.982 71.7631 122.081 71.8287 121.149 71.8491C120.233 71.8692 119.636 71.8441 119.359 71.7737C119.098 71.6878 118.965 71.5455 118.96 71.3468L118.612 55.4878C118.605 55.1517 119.026 54.8138 119.874 54.4742C120.738 54.1343 121.666 53.9534 122.66 53.9316C124.065 53.9008 124.776 54.2368 124.791 54.9396Z" fill="white"/>
<path d="M116.899 60.0966L117.245 71.3924C117.25 71.5604 116.812 71.7115 115.929 71.8455C115.061 71.9639 114.161 72.0373 113.23 72.0659C112.313 72.094 111.716 72.074 111.439 72.0061C111.176 71.9224 111.042 71.7812 111.036 71.5827L110.703 60.6993C110.692 60.3632 111.11 60.0217 111.955 59.6747C112.816 59.312 113.758 59.115 114.781 59.0836C116.171 59.041 116.877 59.3787 116.899 60.0966ZM113.598 54.1661C114.607 54.1352 115.398 54.2639 115.972 54.552C116.562 54.8245 116.868 55.3502 116.892 56.1292C116.934 57.504 115.886 58.2241 113.748 58.2896C111.609 58.3552 110.519 57.7006 110.477 56.3258C110.435 54.9511 111.475 54.2312 113.598 54.1661Z" fill="white"/>
<path d="M93.0628 58.3007C93.0542 58.1175 93.2425 57.8944 93.6279 57.6315C94.0126 57.3533 94.559 57.098 95.2671 56.8658C95.9905 56.6328 96.7796 56.4962 97.6345 56.456C98.4893 56.4157 99.1209 56.5084 99.5293 56.7339C99.9377 56.9594 100.164 57.2165 100.208 57.5051L101.402 65.8022L101.723 65.7871L102.05 57.6249C102.075 57.1953 102.579 56.8351 103.559 56.5441C104.54 56.2531 105.458 56.0875 106.313 56.0472C107.168 56.007 107.805 56.0534 108.224 56.1867C108.643 56.3047 108.909 56.4375 109.023 56.5851C109.152 56.732 109.22 56.8741 109.227 57.0115C109.232 57.1336 109.135 57.4977 108.934 58.1039C108.748 58.694 108.548 59.3307 108.335 60.0138C107.627 62.1891 106.441 66.085 104.778 71.7016C104.633 72.1827 103.331 72.4812 100.873 72.5969C100.11 72.6329 99.6036 72.6032 99.3544 72.5078C99.1051 72.4125 98.9285 72.2372 98.8247 71.982C97.8018 69.4293 96.5869 66.5338 95.1798 63.2955C93.7728 60.0572 93.0671 58.3922 93.0628 58.3007Z" fill="white"/>
<path d="M80.5973 74.1032C79.4549 74.1958 78.4644 74.1764 77.6258 74.045C76.7872 73.9137 76.0125 73.6238 75.3015 73.1755C73.8339 72.2825 72.989 70.4651 72.7668 67.7233C72.5693 65.2862 73.1362 63.4847 74.4676 62.3189C75.7138 61.2366 77.3879 60.6103 79.49 60.4399C80.3887 60.3671 81.1616 60.3505 81.8088 60.39C82.4547 60.4143 83.1162 60.537 83.7935 60.7581C84.4859 60.978 85.0493 61.308 85.4836 61.7481C85.9331 62.1869 86.3213 62.8148 86.6481 63.6315C86.9737 64.4331 87.1828 65.4051 87.2754 66.5475C87.4631 68.8628 86.9494 70.6599 85.7345 71.939C84.5184 73.2028 82.806 73.9242 80.5973 74.1032ZM79.4365 69.7126C79.5876 70.2523 79.7208 70.5712 79.836 70.6692C79.9665 70.7659 80.1232 70.8069 80.306 70.7921C80.504 70.776 80.652 70.7104 80.75 70.5951C80.8632 70.4786 80.9433 70.1425 80.9902 69.5867C81.0524 69.0297 81.0502 68.3399 80.9835 67.5174C80.9156 66.6796 80.8409 66.0417 80.7594 65.6037C80.6919 65.1492 80.6178 64.8026 80.5371 64.5638C80.4717 64.3238 80.3877 64.1389 80.2852 64.0092C80.1321 63.8223 79.9565 63.7369 79.7585 63.7529C79.5757 63.7678 79.4283 63.841 79.3163 63.9728C79.2031 64.0893 79.116 64.4336 79.0551 65.0059C78.9929 65.5629 79.0032 66.3516 79.0859 67.3722C79.1686 68.3928 79.2855 69.1729 79.4365 69.7126Z" fill="white"/>
<path d="M70.6006 62.8415L71.7838 74.0805C71.8014 74.2477 71.3751 74.4309 70.5048 74.6301C69.6481 74.8125 68.7562 74.9524 67.8291 75.0501C66.9172 75.1461 66.3205 75.1705 66.0389 75.1233C65.771 75.0593 65.6266 74.9285 65.6058 74.7309L64.4657 63.9023C64.4305 63.5679 64.8217 63.1964 65.6392 62.7876C66.4703 62.362 67.3949 62.0956 68.4132 61.9884C69.7962 61.8428 70.5254 62.1272 70.6006 62.8415ZM66.8689 57.1723C67.872 57.0667 68.6707 57.1362 69.265 57.381C69.873 57.609 70.2177 58.1105 70.2993 58.8856C70.4433 60.2534 69.4515 61.0493 67.3237 61.2733C65.196 61.4974 64.0601 60.9254 63.9161 59.5576C63.7721 58.1898 64.7564 57.3947 66.8689 57.1723Z" fill="white"/>
<path d="M63.5111 75.33C63.2723 75.6235 62.6681 75.8342 61.6984 75.9619C60.7287 76.0897 59.9177 76.1348 59.2654 76.0975C58.6111 76.0449 57.9711 75.8672 57.3455 75.5643C56.1416 74.9676 55.385 73.495 55.0756 71.1466L54.6085 67.6012L53.4722 67.7509C53.3055 67.7728 53.1387 67.6176 52.9715 67.2851C52.8044 66.9525 52.6809 66.4833 52.6011 65.8772C52.5213 65.2712 52.5423 64.7289 52.6642 64.2504C52.7993 63.7548 53.0184 63.487 53.3214 63.4471L54.0487 63.3513L53.6864 60.6013C53.6245 60.1316 54.0291 59.693 54.9003 59.2854C55.7866 58.8757 56.6691 58.613 57.5479 58.4973C58.9267 58.3156 59.6609 58.5657 59.7508 59.2475L60.1849 62.5429L61.8667 62.3213C62.2606 62.2694 62.5324 62.8117 62.6821 63.948C62.7799 64.6904 62.7699 65.316 62.6519 65.8248C62.5471 66.3164 62.3584 66.5802 62.0857 66.6162L60.7448 66.7928L61.2927 70.9518C61.3466 71.3609 61.5597 71.6334 61.9322 71.7693C62.3026 71.89 62.6166 71.9335 62.8742 71.8995C63.1469 71.8636 63.3305 71.9704 63.4251 72.22C63.5196 72.4696 63.6008 72.852 63.6687 73.3671C63.8024 74.3822 63.7499 75.0365 63.5111 75.33Z" fill="white"/>
<path d="M51.0464 64.8644L52.9344 76.4017C52.9615 76.5676 52.5464 76.7749 51.6889 77.0236C50.8441 77.2548 49.9617 77.4456 49.0417 77.5962C48.1368 77.7443 47.5425 77.8028 47.2587 77.7718C46.9875 77.7233 46.8358 77.601 46.8037 77.4049L44.9824 66.2748C44.9281 65.943 45.3049 65.5484 46.1127 65.091C46.9206 64.6336 47.8222 64.3235 48.8175 64.1606C50.19 63.936 50.9329 64.1706 51.0464 64.8644ZM49.344 59.4288C49.6909 59.3721 50.0847 59.6019 50.5253 60.1182C50.981 60.6321 51.278 61.3113 51.4162 62.1559C51.4532 62.3821 50.8305 62.693 49.548 63.0887C48.2782 63.4669 47.2134 63.7263 46.3538 63.8669C46.0672 63.9138 45.7737 63.776 45.4731 63.4536C45.1877 63.1286 45.0067 62.7324 44.9302 62.2649C44.8512 61.7822 45.334 61.2309 46.3784 60.611C47.4355 59.9734 48.424 59.5794 49.344 59.4288Z" fill="white"/>
<path d="M43.5408 77.6691C43.1678 78.0981 42.604 78.5154 41.8497 78.921C41.1068 79.3082 40.1019 79.6451 38.8349 79.9315C37.5828 80.2145 36.3667 80.3798 35.1867 80.4272C34.0066 80.4746 33.142 80.4272 32.5929 80.285C32.0437 80.1428 31.7421 79.9524 31.6882 79.7139C31.4995 78.8792 31.4233 77.9877 31.4597 77.0394C31.4926 76.0762 31.673 75.5576 32.001 75.4835C32.0606 75.47 32.7247 75.5314 33.9932 75.6676C35.2618 75.8039 36.1942 75.8046 36.7904 75.6698C37.3867 75.5351 37.7607 75.3878 37.9127 75.2281C38.0612 75.0536 38.1085 74.847 38.0546 74.6085C38.0007 74.37 37.7896 74.1984 37.4212 74.0937C37.0494 73.974 36.6025 73.9027 36.0802 73.8798C35.5546 73.8419 34.9709 73.7545 34.3289 73.6176C33.7018 73.4774 33.1052 73.2989 32.5392 73.0821C31.9732 72.8654 31.4588 72.496 30.9961 71.9739C30.53 71.4369 30.2094 70.7808 30.0341 70.0057C29.2861 66.6965 30.8871 64.5955 34.8372 63.7026C36.3129 63.369 37.6092 63.1778 38.7263 63.1289C39.8399 63.0652 40.6399 63.1037 41.1261 63.2445C41.6238 63.367 41.8979 63.54 41.9485 63.7636C42.1237 64.5387 42.126 65.4156 41.9556 66.3942C41.8 67.3694 41.5508 67.8958 41.208 67.9733C41.1483 67.9868 40.9394 67.9635 40.5811 67.9035C39.4996 67.6936 38.6309 67.6628 37.9751 67.811C37.3341 67.9559 36.9079 68.115 36.6963 68.2881C36.4997 68.4579 36.43 68.6695 36.4873 68.9229C36.5412 69.1614 36.7507 69.3256 37.1157 69.4154C37.4773 69.4903 37.9118 69.541 38.4191 69.5673C38.938 69.5753 39.5109 69.6495 40.138 69.7898C40.7766 69.9117 41.3823 70.096 41.9551 70.3426C42.5245 70.5742 43.0456 70.9734 43.5184 71.5403C43.9912 72.1071 44.3237 72.8153 44.5158 73.665C44.7179 74.5593 44.6705 75.4239 44.3736 76.2588C44.1914 76.77 43.9138 77.2401 43.5408 77.6691Z" fill="white"/>
<path d="M115.066 35.2255L114.357 23.503L115.57 23.4295L115.794 27.1188L115.504 27.1042C115.502 26.1854 115.649 25.4285 115.944 24.8336C116.249 24.2273 116.665 23.7694 117.191 23.4597C117.717 23.15 118.3 22.9759 118.939 22.9372C119.556 22.8999 120.122 22.9832 120.637 23.1871C121.162 23.3905 121.618 23.6835 122.005 24.0662C122.391 24.4489 122.696 24.9006 122.92 25.4214C123.144 25.9421 123.274 26.5006 123.31 27.0969L123.327 27.3843C123.363 27.9806 123.296 28.551 123.126 29.0956C122.956 29.6402 122.697 30.1261 122.349 30.5532C122.011 30.9797 121.594 31.3255 121.097 31.5907C120.611 31.8552 120.065 32.0058 119.458 32.0425C118.851 32.0792 118.262 31.9813 117.693 31.7486C117.123 31.5159 116.639 31.1124 116.241 30.538C115.843 29.9637 115.588 29.1937 115.476 28.228L116.256 29.4632L116.599 35.1328L115.066 35.2255ZM119.137 30.7155C119.712 30.6807 120.204 30.5173 120.614 30.2254C121.023 29.9228 121.33 29.5248 121.536 29.0315C121.74 28.5276 121.823 27.9615 121.785 27.3334C121.747 26.6945 121.596 26.1426 121.333 25.6777C121.069 25.2127 120.717 24.86 120.275 24.6196C119.832 24.3686 119.323 24.2604 118.748 24.2952C118.237 24.3261 117.771 24.4719 117.348 24.7326C116.925 24.9826 116.594 25.3339 116.354 25.7865C116.124 26.2279 116.028 26.752 116.065 27.3589L116.109 28.0935C116.144 28.6791 116.308 29.1715 116.599 29.5706C116.89 29.9698 117.261 30.2679 117.711 30.4651C118.161 30.6623 118.636 30.7457 119.137 30.7155ZM131.05 31.2214L130.96 28.663L130.704 28.672L130.6 25.7138C130.58 25.1275 130.41 24.6905 130.09 24.4029C129.781 24.1149 129.334 23.9811 128.747 24.0017C128.417 24.0133 128.076 24.0306 127.724 24.0536C127.373 24.0766 127.038 24.099 126.718 24.1209C126.399 24.1428 126.122 24.1685 125.888 24.198L125.841 22.8548C126.075 22.8253 126.32 22.8007 126.575 22.7811C126.841 22.7504 127.112 22.7302 127.39 22.7205C127.666 22.7001 127.933 22.6854 128.189 22.6765C129.063 22.6458 129.781 22.7274 130.342 22.9211C130.904 23.1042 131.326 23.4256 131.609 23.8853C131.892 24.345 132.047 24.9746 132.075 25.7742L132.265 31.1788L131.05 31.2214ZM128.259 31.5434C127.62 31.5659 127.062 31.4787 126.585 31.282C126.119 31.0742 125.751 30.7669 125.48 30.3601C125.22 29.953 125.08 29.4562 125.06 28.8699C125.038 28.2623 125.154 27.7513 125.406 27.3369C125.669 26.922 126.058 26.6042 126.573 26.3834C127.088 26.1518 127.714 26.0232 128.449 25.9974L130.768 25.9161L130.808 27.0674L128.425 27.1509C127.807 27.1726 127.338 27.3385 127.018 27.6486C126.698 27.9586 126.546 28.3482 126.563 28.8172C126.579 29.2863 126.758 29.6589 127.098 29.9351C127.439 30.2114 127.918 30.3387 128.537 30.317C128.899 30.3043 129.243 30.2282 129.569 30.0886C129.895 29.9385 130.159 29.7051 130.361 29.3885C130.574 29.0608 130.681 28.6194 130.683 28.0644L131.12 28.6574C131.088 29.2669 130.957 29.7838 130.726 30.2082C130.506 30.6215 130.186 30.9422 129.767 31.1704C129.359 31.3981 128.856 31.5225 128.259 31.5434ZM135.083 31.1089L134.95 22.5659L136.166 22.5471L136.221 26.0666L136.157 26.0676C136.137 24.8198 136.395 23.9037 136.93 23.3193C137.476 22.7242 138.298 22.4181 139.396 22.4011L139.684 22.3966L139.706 23.7724L139.162 23.7809C138.308 23.7941 137.656 24.0335 137.205 24.4992C136.753 24.9543 136.534 25.6084 136.547 26.4616L136.618 31.0851L135.083 31.1089ZM146.781 31.0678L146.795 28.5078L146.539 28.5064L146.556 25.5464C146.559 24.9598 146.407 24.5163 146.099 24.2159C145.802 23.9155 145.36 23.7637 144.774 23.7604C144.443 23.7586 144.102 23.762 143.75 23.7707C143.397 23.7794 143.061 23.7882 142.741 23.797C142.421 23.8059 142.144 23.8204 141.909 23.8404L141.917 22.4964C142.151 22.4764 142.397 22.4618 142.653 22.4525C142.92 22.4327 143.192 22.4235 143.469 22.4251C143.746 22.416 144.013 22.4121 144.269 22.4136C145.144 22.4185 145.858 22.5292 146.411 22.7456C146.965 22.9514 147.374 23.2897 147.638 23.7605C147.902 24.2313 148.031 24.8667 148.027 25.6667L147.997 31.0746L146.781 31.0678ZM143.979 31.2761C143.339 31.2725 142.785 31.1627 142.317 30.9468C141.86 30.7202 141.504 30.3982 141.251 29.9808C141.008 29.5634 140.888 29.0614 140.891 28.4747C140.895 27.8668 141.031 27.3608 141.3 26.957C141.579 26.5532 141.981 26.2515 142.505 26.0518C143.029 25.8413 143.659 25.7382 144.395 25.7423L146.714 25.7553L146.708 26.9073L144.324 26.894C143.705 26.8905 143.23 27.0372 142.898 27.334C142.565 27.6308 142.398 28.0138 142.395 28.4832C142.392 28.9525 142.556 29.3321 142.885 29.6219C143.214 29.9118 143.688 30.0584 144.306 30.0619C144.669 30.0639 145.016 30.0019 145.347 29.8757C145.679 29.7389 145.952 29.5165 146.167 29.2083C146.393 28.8896 146.518 28.4529 146.542 27.8984L146.955 28.5087C146.898 29.1164 146.746 29.6276 146.498 30.0422C146.262 30.4462 145.929 30.7537 145.501 30.9646C145.084 31.1756 144.577 31.2794 143.979 31.2761ZM154.371 31.5401C153.763 31.5196 153.207 31.3887 152.703 31.1476C152.199 30.9064 151.762 30.5768 151.392 30.1588C151.032 29.7411 150.755 29.2621 150.56 28.7219C150.375 28.182 150.293 27.6029 150.314 26.9846L150.324 26.6967C150.344 26.0891 150.465 25.5222 150.685 24.996C150.906 24.4698 151.204 24.0103 151.58 23.6174C151.967 23.2249 152.415 22.9252 152.924 22.7182C153.443 22.501 154.012 22.4028 154.63 22.4237C155.281 22.4457 155.868 22.6042 156.391 22.8994C156.915 23.1839 157.338 23.6198 157.66 24.207C157.982 24.7942 158.148 25.5469 158.16 26.4651L157.555 25.4201L157.749 19.6794L159.284 19.7312L158.89 31.4046L157.674 31.3635L157.802 27.5737L158.25 27.5888C158.175 28.5575 157.946 29.3395 157.563 29.9349C157.18 30.5197 156.707 30.9413 156.143 31.1997C155.59 31.4479 155 31.5614 154.371 31.5401ZM154.624 30.2039C155.146 30.2215 155.625 30.1203 156.059 29.9002C156.493 29.68 156.846 29.3557 157.116 28.9273C157.387 28.4882 157.533 27.9702 157.553 27.3732L157.578 26.6376C157.598 26.0512 157.481 25.551 157.228 25.1369C156.987 24.7125 156.651 24.3863 156.221 24.1584C155.802 23.9201 155.337 23.7923 154.825 23.775C154.26 23.7559 153.754 23.8723 153.308 24.124C152.873 24.3761 152.525 24.7379 152.263 25.2094C152.012 25.6812 151.876 26.2422 151.854 26.8925C151.832 27.5428 151.935 28.1173 152.164 28.616C152.393 29.104 152.722 29.4886 153.15 29.7699C153.578 30.0405 154.07 30.1852 154.624 30.2039ZM166.995 31.8488L167.148 29.2933L166.892 29.2781L167.068 26.3233C167.103 25.7377 166.974 25.2866 166.683 24.9701C166.403 24.6543 165.97 24.4789 165.384 24.4441C165.054 24.4244 164.713 24.4095 164.361 24.3992C164.009 24.389 163.673 24.3797 163.353 24.3713C163.033 24.3629 162.755 24.3624 162.52 24.3698L162.6 23.0282C162.835 23.0208 163.081 23.0194 163.337 23.024C163.605 23.0185 163.877 23.024 164.154 23.0405C164.431 23.0463 164.698 23.0568 164.953 23.072C165.826 23.124 166.533 23.2729 167.074 23.5188C167.616 23.754 168.006 24.1138 168.244 24.5982C168.483 25.0825 168.578 25.724 168.531 26.5226L168.209 31.921L166.995 31.8488ZM164.187 31.9061C163.548 31.8681 163.001 31.7287 162.545 31.4879C162.101 31.237 161.763 30.8964 161.532 30.4659C161.312 30.0361 161.219 29.5283 161.254 28.9427C161.29 28.3358 161.453 27.8379 161.744 27.4491C162.044 27.061 162.462 26.7813 162.996 26.61C163.53 26.4281 164.165 26.359 164.899 26.4027L167.215 26.5405L167.147 27.6904L164.767 27.5489C164.149 27.5121 163.667 27.633 163.319 27.9115C162.971 28.19 162.783 28.5635 162.755 29.032C162.727 29.5005 162.87 29.8883 163.183 30.1955C163.496 30.5026 163.961 30.6745 164.579 30.7113C164.941 30.7328 165.291 30.6895 165.628 30.5814C165.967 30.4626 166.251 30.2551 166.483 29.959C166.725 29.6529 166.874 29.2236 166.928 28.6712L167.307 29.3028C167.218 29.9066 167.038 30.4088 166.769 30.8095C166.51 31.2002 166.162 31.4893 165.723 31.677C165.296 31.8652 164.783 31.9416 164.187 31.9061Z" fill="white"/>
</svg>
