<svg width="284" height="108" viewBox="0 0 284 108" fill="none" xmlns="http://www.w3.org/2000/svg">
<path d="M147.786 0.0435342C150.512 0.0359977 150.763 0.582636 152.949 0.638999C155.993 0.716546 159.106 0.65496 162.198 0.563231C163.741 0.517393 165.281 0.464286 166.821 0.417895C166.915 0.414978 167.009 0.411814 167.102 0.408941C166.83 0.403937 168.333 0.41885 168.846 0.42375C169.524 0.430451 170.116 0.436816 170.679 0.443381C172.869 0.469042 174.089 0.488439 175.082 0.504339C177 0.535734 177.884 0.554055 178.639 0.569086C180.078 0.598402 180.697 0.613308 181.226 0.627978C182.943 0.675984 183.285 0.795035 183.714 0.963767C182.872 2.21925 183.759 3.51414 183.86 1.30024C183.928 1.39534 183.981 1.43024 184.03 1.4318C184.054 1.43251 184.075 1.42459 184.097 1.41183C184.09 1.3944 184.189 1.38222 184.964 1.57714C187.334 2.18999 188.221 2.59897 188.685 2.82352C188.764 2.8871 188.936 2.91715 189.67 3.36836C190.207 3.7237 190.587 4.09878 190.944 4.50935C191.655 5.33958 192.165 6.21543 193.057 7.66852C194.883 10.4989 195.942 12.1953 196.56 13.1059C197.349 14.4302 197.391 16.1779 196.752 17.4921C196.839 18.1484 196.886 18.5116 197.024 19.9484C197.247 22.3358 197.312 22.8404 197.398 23.6193C197.555 24.9937 197.654 25.7295 197.743 26.3576C197.767 26.5247 197.79 26.6796 197.812 26.8233C198.432 26.9561 199.064 27.1136 199.656 27.2775C200.937 27.6296 202.015 28.0185 202.649 28.1902C202.8 28.2305 203.075 28.2974 203.429 28.3948C203.72 28.472 204.507 28.7125 204.308 28.6813C204.168 28.7054 204.704 28.8582 205.934 28.9613C206.576 29.0165 207.369 29.0687 208.808 29.1249C209.181 29.1392 209.589 29.1538 210.131 29.1703C210.65 29.1865 211.522 29.2081 211.505 29.2144C211.79 29.2329 212.101 29.2577 212.379 29.2854C213.498 29.3943 214.454 29.5761 214.881 29.6542C215.732 29.8065 216.962 30.0882 218.275 30.3809C218.929 30.5257 219.599 30.6669 220.218 30.7832C220.892 30.9098 220.669 30.8428 220.887 30.861C221.248 30.8681 221.692 30.5724 222.388 30.5755C222.744 30.5788 223.159 30.6563 223.807 30.9206C224.539 31.2034 225.034 31.5689 227.632 32.6136C230.039 33.1082 231.068 33.2356 232.227 33.4509C232.785 33.5518 233.312 33.654 233.873 33.7719C233.667 33.7759 237.83 34.4451 238.971 34.5857C239.953 34.7206 239.913 34.96 240.3 34.9941C241.06 35.0584 241.777 34.9216 242.299 34.9618C243.21 35.0425 243.176 35.6166 243.332 34.8281C243.537 34.7393 244.018 34.7108 244.99 34.8023C245.289 35.0304 245.652 35.2744 246.131 35.5476C247.009 35.5889 247.817 35.6073 250.179 36.0411C248.32 36.1571 253.48 37.599 253.852 37.6512C255.025 37.9101 256.083 37.9584 255.262 37.3088C256.739 37.9601 257.942 38.5978 259.06 39.1083C259.344 39.2383 259.601 39.3549 259.894 39.4782C261.779 40.0925 262.285 40.2289 262.976 40.4367C264.23 40.8065 264.945 41.0063 265.554 41.183C265.267 41.7965 266.631 42.0822 267.2 41.9334C267.832 41.7985 267.899 41.3193 268.009 40.9725C268.521 41.0048 268.981 41.0434 269.409 41.0848C271.252 41.4391 272.608 41.6682 273.946 41.9957C274.273 42.0773 274.631 42.1776 274.958 42.2892C275.284 42.3999 276.269 42.7677 276.756 42.9769C277.856 43.4407 278.585 43.8337 279.148 44.1971C279.822 44.6056 281.755 46.1645 281.916 46.7381C282.248 47.3772 282.209 47.6787 282.217 48.2817C282.653 49.0002 282.804 49.1298 282.995 49.557C283.568 49.9872 283.723 50.3696 283.734 51.2701C283.737 51.5186 283.73 51.8132 283.721 52.3487C283.717 52.6155 283.713 52.9486 283.712 53.3822C283.71 53.7962 283.716 54.4488 283.698 54.392C283.643 54.6877 283.566 54.9838 283.485 55.3067C283.16 56.5816 282.783 58.206 283.395 61.9099C282.869 63.1958 282.74 64.6929 282.743 67.7361C282.605 73.0051 282.224 73.9071 282.211 74.914C282.201 75.1153 282.396 75.1652 282.404 75.4079C282.143 77.2247 281.3 80.3262 281.949 80.3466C281.487 81.6263 280.912 82.8417 280.24 84.148C279.836 85.5099 279.934 85.8056 279.903 86.9897C280.104 87.0107 280.306 87.0316 280.507 87.0524C279.984 88.4075 279.653 88.9048 279.506 89.8943C279.343 90.8507 279.282 92.1473 279.134 93.1885C279.074 93.6173 278.798 93.6065 278.622 95.1564C278.517 96.1561 278.202 97.3343 277.788 98.2467C277.331 99.1841 277.157 99.7461 276.249 100.643C275.884 101.447 275.274 102.144 274.71 102.728C271.719 104.103 270.669 103.693 269.643 104.063C269.542 104.093 268.749 104.494 267.607 104.811C266.505 105.134 264.934 105.356 264.753 105.383C263.366 105.595 262.719 105.917 261.155 106.033C260.427 106.074 259.529 105.964 258.689 105.76C257.903 105.565 257.094 105.368 255.58 105.112C255.056 105.017 254.576 104.876 254.099 104.714C253.833 104.593 253.565 104.472 253.187 104.379C252.85 104.296 252.312 104.203 251.346 104.003C250.89 103.91 250.126 103.73 249.508 103.585C249.235 103.548 248.967 103.536 248.634 103.527C247.335 103.504 245.717 103.619 245.444 103.826C244.943 103.613 243.598 103.251 243.49 103.155C243.128 103.012 242.623 102.883 241.773 102.707C240.927 102.53 239.664 102.293 237.817 101.899C236.668 101.652 236.166 101.471 235.74 101.311C235.503 101.217 235.389 101.067 235.158 100.884C235.042 100.793 234.897 100.693 234.694 100.593C234.514 100.499 234.193 100.382 233.198 100.174C230.104 99.5224 226.855 99.5962 225.831 99.4576C224.665 99.3048 224.453 98.9467 224.074 98.8852C223.69 98.8201 223.565 99.0988 222.647 98.9379C221.378 98.705 220.057 98.2378 218.414 97.726C217.661 97.4832 216.425 97.1585 215.345 96.8749C214.313 96.603 213.581 96.4133 212.973 96.2836C211.173 95.9041 210.74 96.0449 209.659 96.1724C208.334 96.2554 207.327 96.2019 204.737 96.1135C202.719 95.869 201.779 95.6797 200.805 95.6399C197.865 95.5101 197.247 95.6944 195.028 95.0762C193.773 94.7776 192.55 94.5541 191.37 94.3347C190.193 94.1399 189.073 93.8057 187.531 93.67C186.154 93.5508 185.101 93.5803 184.014 93.4475C183.287 93.3521 183.323 93.3224 183.206 93.2987C183.112 93.2742 183.004 93.2484 182.873 93.2226C182.593 93.1704 182.322 93.1178 181.351 93.0494C180.835 93.0141 180.175 92.9771 178.63 92.912C177.308 92.8563 173.282 92.6949 173.465 92.6926C169.34 92.4552 158.358 91.324 161.274 93.1661C159.775 93.4727 148.48 92.7085 146.203 92.6623C144.164 92.6288 142.53 92.9332 140.894 92.9099C136.012 92.8293 131.984 92.5624 126.318 92.8352C124.8 92.9063 123.152 93.2931 122.232 93.2884C121.131 93.2817 119.934 92.9063 118.486 92.8844C115.044 92.8333 108.464 92.9859 104.969 92.9633C104.325 92.9579 104.097 92.6304 103.183 92.5397C102.727 92.4956 102.276 92.4588 101.818 92.4308C101.594 92.4167 101.36 92.4049 101.133 92.3954C101.019 92.3906 100.907 92.3866 100.797 92.383C100.333 92.3857 99.2465 92.4038 98.6517 92.4153C93.8359 92.5181 93.7883 92.5897 93.0022 92.6874C91.8956 92.8778 91.9218 93.1727 92.0651 93.6806C91.2517 93.4989 91.4581 93.4576 90.9413 93.6548C89.9133 93.9617 89.1168 94.3482 88.3539 94.7593C87.9711 94.9651 87.5902 95.1792 87.2018 95.3868C86.6778 95.6528 87.0258 95.5345 85.2612 96.3122C79.2633 98.8075 78.1024 98.0707 77.5039 98.2935C76.4834 98.4381 75.3332 98.7406 71.4525 99.222C69.6944 99.46 65.2567 99.7442 65.0639 99.8299C64.1212 99.9648 62.9017 100.331 61.2779 100.718C60.8863 100.811 60.4548 100.906 60.0688 100.986C58.5022 101.29 57.6878 101.465 57.0336 101.606C55.7462 101.886 55.0319 102.058 54.4099 102.211C53.2103 102.508 52.5973 102.689 52.1317 102.843C51.0591 103.226 50.8792 103.352 49.7613 103.693C48.7388 104.039 47.1064 104.457 41.7085 105.328C40.1995 105.62 40.0721 105.604 38.0551 105.848C35.3458 106.273 33.5873 106.553 32.1015 106.64C30.9335 106.702 29.8555 106.969 28.236 107.72C25.7955 107.842 21.7046 108.421 17.5486 107.436C15.8782 106.963 15.1035 106.433 14.6364 106.096C14.1744 105.745 14.0809 105.535 13.3046 104.959C12.8502 104.998 12.3378 105.01 11.7496 104.965C11.1102 104.619 10.0334 104.295 9.0933 103.087C9.01094 102.639 9.01834 102.227 9.07712 101.861C8.38652 100.278 8.51245 98.7297 8.2478 97.3127C7.96754 95.8598 7.56322 95.2571 7.24319 94.7958C6.96673 94.4128 6.34341 93.6945 5.6414 92.0775C4.83353 89.9595 4.86923 89.5796 4.65607 88.7509C4.38361 87.508 3.91172 85.2841 3.32738 82.6454C3.13063 81.7338 2.84318 80.5513 2.50255 78.8915C2.13061 77.1979 1.91494 75.1173 1.94359 73.5902C1.96257 72.028 2.0581 70.961 2.06137 70.0411C2.0638 69.8189 2.06401 69.611 2.05896 69.3789C2.04201 68.9563 1.97413 67.7801 1.93429 67.0989C1.84615 65.6006 1.76994 64.4701 1.71112 63.615C1.48005 60.3619 1.46691 59.8465 1.46625 59.0865C1.47154 57.7058 1.12385 57.9887 1.78448 56.4322C1.62719 55.8835 1.44064 55.2608 1.25032 54.5432C0.974967 54.1215 0.697185 53.6577 0.428237 53.1332C0.249679 51.7809 0.207074 50.552 0.356258 49.3077C0.514766 48.0416 0.822779 46.5548 1.77105 44.9717C3.04579 42.7677 5.60598 41.5214 7.50046 40.5971C9.0075 39.779 11.7916 38.2994 13.2385 37.7579C13.7742 37.5178 15.2742 36.8489 16.3756 36.5346C17.5231 36.1836 18.6177 35.9195 19.6839 35.7091C21.0408 35.4744 20.7034 35.4595 22.4938 35.1488C22.8571 35.0881 23.6008 35.0195 23.8157 35.0086C23.9634 34.9972 24.1159 34.9857 24.2751 34.9741C24.5931 34.9511 24.9397 34.9274 25.3086 34.9046C26.7885 34.8133 28.6221 34.7315 30.8338 34.7193C31.8083 34.7117 33.9883 34.7883 34.5743 34.8502C35.456 34.8986 36.3385 34.8457 37.1635 34.6993C38.3673 34.4847 39.1487 34.207 40.0558 33.9785C40.7491 33.7673 41.2479 33.5823 42.6102 33.5535C43.7471 33.5253 45.5551 33.5717 47.9377 33.4822C49.3041 33.46 50.9707 33.3877 52.9438 33.2986C54.8662 33.2117 57.3733 33.1196 59.6699 33.1141C61.8252 33.1078 63.3545 33.1301 64.5063 33.0996C65.8529 33.0659 66.3806 32.8093 67.1224 32.7728C67.5168 32.7438 69.8264 32.672 70.7131 32.5465C71.7491 32.4225 72.3766 32.2712 73.003 32.1094C74.2975 31.7712 75.0113 31.4736 77.2288 30.8634C83.5819 30.4719 82.8435 31.5152 84.3891 32.0099C84.9935 32.1592 85.6656 32.6929 86.8688 32.7025C87.8762 31.7472 88.0297 30.7328 88.3484 30.2325C88.3896 30.1801 88.4333 30.1548 88.4789 30.1488C88.4693 30.1461 88.4593 30.1429 88.4496 30.1381C88.0963 29.92 87.6445 27.362 87.2177 27.1938C86.7999 26.9921 84.1337 26.9356 83.9149 25.1512C83.846 24.5326 83.8447 23.8425 83.9332 23.1561C83.9668 22.8758 83.9335 23.2721 84.0447 22.3654C84.1478 21.5225 84.235 20.7714 84.3044 20.1747C84.4434 18.9727 84.5222 18.3578 84.6006 17.8786C84.9127 16.0894 85.1254 16.0019 85.4158 14.9029C85.5577 14.4049 85.72 13.7772 86.025 13.0287C86.2602 12.3732 87.0687 11.0306 87.1512 10.8628C87.8645 9.61929 88.6455 7.77828 89.9608 5.91725C90.5841 5.04669 91.3151 4.27598 92.0699 3.60978C92.4632 3.26615 92.7558 3.00766 93.2622 2.62997C94.1203 2.05199 94.8968 1.70905 95.6334 1.45006C96.8746 1.34512 97.675 1.52436 98.1527 1.6505C98.7122 1.77291 98.3548 1.97836 98.4719 2.14058C98.5162 1.97383 98.8154 2.40536 99.0609 2.37098C99.2629 2.34216 99.3578 2.0646 99.8991 2.03898C100.293 2.02332 100.403 2.0847 102.535 2.1268C103.154 2.13705 103.727 2.14655 105.842 2.14746C106.4 2.14762 107.111 2.14664 108.238 2.14471C108.886 2.14337 109.588 2.142 110.61 2.13989C111.134 2.13879 111.699 2.13793 112.334 2.13679C113.227 2.13491 112.604 2.13742 112.739 2.13782C112.849 2.144 112.961 2.14974 113.075 2.1547C113.533 2.17452 114.036 2.18323 114.537 2.17088C117.891 2.09149 118.51 1.37891 120.55 1.28544C122.674 1.18886 125.999 1.5732 128.752 1.32229C129.096 1.24388 129.441 1.16541 129.788 1.08706C129.54 0.909892 129.292 0.732799 129.045 0.555655C130.433 0.473087 131.029 0.836242 132.311 0.843227C133.815 0.851695 134.587 0.508139 135.606 0.510539C136.44 0.512822 137.573 0.7899 138.659 0.774003C140.242 0.752298 139.898 0.353386 140.752 0.280136C141.088 0.250958 147.417 0.0448707 147.786 0.0435342ZM154.145 5.99474C153.006 6.00252 152.261 6.4231 149.959 6.51995C142.283 6.83743 132.139 6.3768 125.115 6.59468C121.635 6.7015 116.909 7.2467 113.602 7.37509C113.436 7.38149 113.257 7.38665 113.068 7.39093C112.974 7.39307 112.877 7.39511 112.779 7.39679C112.767 7.39699 112.754 7.39693 112.742 7.39713C112.736 7.39723 112.73 7.39738 112.723 7.39747C112.604 7.39791 112.194 7.39932 111.937 7.40023C110.812 7.40419 109.947 7.40777 109.208 7.41125C107.817 7.41789 107.063 7.42293 106.382 7.42744C104.002 7.44403 103.353 7.45296 102.645 7.4605C101.986 7.46795 101.569 7.4731 101.231 7.47738C99.9497 7.49406 99.688 7.49485 99.4335 7.49735C99.0044 7.50224 99.0882 7.50965 99.0784 7.62753C99.0863 7.77017 99.1417 8.22571 99.1432 8.28327C99.143 8.30839 99.1245 8.2543 99.0998 8.19269C99.0762 8.12957 99.0813 8.06326 98.5336 8.09901C96.8577 8.16827 96.8736 8.2213 95.9668 8.76095C95.2775 9.20727 94.8004 9.58417 93.8091 11.2417C93.4631 11.8158 93.0719 12.563 92.5552 13.4372C92.0583 14.2893 91.2206 15.4311 90.994 16.0147C90.4403 17.6093 90.6345 16.407 90.2584 19.5709C90.2095 20.0229 90.1474 20.6073 90.0624 21.357C90.02 21.7305 89.9725 22.1402 89.9192 22.5827C89.8655 23.0299 89.8068 23.491 89.8045 23.4506C89.7559 23.646 89.7128 23.7971 89.6681 24.0398C89.5788 24.5036 89.5055 25.1638 89.4242 26.0477C89.2847 27.6899 88.988 30.062 88.5416 30.1515C88.9038 30.2358 89.366 31.3512 89.7077 30.8121C89.7489 31.26 89.7825 31.63 89.7779 32.0853C89.7718 32.3205 89.7718 32.5551 89.6805 32.9897C89.6256 33.2156 89.5734 33.4883 89.3023 33.9754C89.1333 34.5634 87.3796 35.6389 87.0865 35.5706C86.9202 35.627 86.4877 35.7526 86.0739 35.8599C85.2289 36.0794 84.2144 36.3018 82.9664 36.4444C80.2814 36.6634 77.8935 36.8333 76.4752 36.8305C75.1889 37.0961 74.3526 37.397 72.1076 37.7297C70.9942 37.8871 69.4675 37.9845 67.806 38.0128C67.0753 38.0277 66.3508 38.0379 65.4989 38.0503C63.7997 38.0765 61.8473 38.0991 59.3559 38.1967C56.5233 38.3077 54.5179 38.5056 52.5189 38.6988C51.7808 38.5311 51.073 38.3614 50.3922 38.1853C50.3922 38.1849 50.3922 38.1844 50.3922 38.1839C48.0279 38.1418 45.2235 38.8472 43.7401 39.005C41.6347 39.2289 40.7864 39.2361 38.6096 39.691C37.5636 39.9107 36.1514 40.2494 34.4944 40.3661C32.6287 40.4628 30.6532 40.5734 29.2616 40.6722C26.2346 40.9377 25.0936 40.7479 22.2235 41.3297C19.8339 41.7067 17.3401 42.2394 14.6946 43.3933C13.3057 43.9007 12.5392 44.3003 10.4568 45.4229C8.59357 46.3461 7.61056 46.8248 7.20841 47.2237C6.80696 47.5668 6.34308 48.3124 6.15731 49.3745C5.96856 50.3838 5.98747 51.4445 6.19726 52.9579C6.39198 54.3604 6.66331 55.6295 6.78514 56.924C6.8769 58.1511 6.8353 58.04 6.88433 58.719C6.95706 59.9426 7.1272 61.1076 7.49598 66.3526C7.70463 69.4304 7.74857 70.095 7.73327 71.7659C7.7165 73.3455 7.70076 75.0904 8.19924 77.2752C8.45326 78.4258 8.69388 79.3856 8.89114 80.194C9.08868 80.9997 9.24206 81.6696 9.47111 82.7147C9.87364 84.5659 10.0818 85.7375 10.1248 86.3684C10.1655 87.0096 9.84672 87.2563 9.96463 87.8655C10.2434 89.0417 10.8259 90.8573 11.4418 91.7496C11.9877 92.7135 12.6989 93.6581 13.2068 96.5553C13.3419 98.2656 13.5846 99.1898 13.6621 99.5489C15.0083 100.221 16.3134 100.611 16.979 100.909C17.8819 101.351 18.1839 101.989 21.2457 102.088C23.9141 102.134 26.1392 102.022 27.5048 101.844C28.9082 101.669 29.925 101.474 30.9798 101.304C31.9902 101.16 32.8856 100.919 34.7372 100.444C35.5339 100.234 37.2582 99.8642 37.8399 99.7627C38.1107 99.7029 38.3766 99.6325 38.8352 99.4982C39.3031 99.3658 39.9453 99.1479 41.3948 98.8232C42.1127 98.6637 43.0567 98.4844 44.079 98.3235C44.5812 98.2418 44.8362 98.1821 45.2352 98.0879C46.6688 97.7374 48.6921 97.1041 50.1087 96.9569C50.1069 96.9406 50.7203 96.8074 51.9134 96.5336C52.7902 96.3369 53.6852 96.1226 56.2284 95.5924C56.573 95.5212 56.935 95.4471 57.4382 95.3465C57.8083 95.2711 59.1075 95.0215 59.0128 95.0386C59.3154 94.9781 59.593 94.9182 59.8845 94.852C60.4613 94.7209 61.026 94.5763 61.5924 94.4328C62.7243 94.1422 63.8803 93.8887 65.0002 93.7736C65.3722 93.7276 66.7729 93.6358 67.7695 93.5432C68.8012 93.4511 69.6828 93.358 70.4207 93.2701C75.8577 92.5605 76.0241 92.2565 78.7417 91.9742C79.4372 91.8486 80.5438 91.6771 83.2192 90.4929C84.0833 90.1048 83.9188 90.1706 84.1622 90.0548C84.3479 89.9643 84.5439 89.8668 84.7539 89.7621C85.1731 89.5534 85.6472 89.3142 86.2065 89.0578C86.7646 88.802 87.4084 88.5324 88.1238 88.287C88.8138 88.044 89.786 87.7945 89.654 87.8252C89.8023 87.7805 90.0198 87.7188 90.3324 87.6502C90.6604 87.5803 91.0406 87.5034 91.8647 87.4081C92.2924 87.3602 92.8074 87.3076 93.8098 87.2418C94.8607 87.1781 96.2369 87.0841 100.69 86.9931C103.084 86.9357 105.397 86.8995 107.679 86.8691C116.862 86.7562 125.06 86.7178 133.876 86.7624C138.519 86.7905 142.646 86.8953 146.945 86.9318C151.466 86.9715 155.895 86.9763 160.278 87.0103C163.666 87.0371 167.483 86.9965 171.235 87.0338C172.178 87.0437 173.116 87.059 174.04 87.0854C173.944 87.0798 175.63 87.1423 176.496 87.1719C177.457 87.2052 178.219 87.2306 178.824 87.2511C180.034 87.2918 180.684 87.315 181.196 87.3372C183.064 87.419 183.391 87.4967 183.93 87.6144C184.387 87.7143 184.317 87.916 185.023 88.058C185.794 88.2408 186.403 88.0427 189.912 88.3511C189.96 88.5202 190.004 88.6892 190.045 88.858C191.338 89.0156 192.581 89.07 193.997 89.2131C195.338 89.3192 197.527 89.7873 197.409 89.6898C197.638 89.7066 198.102 89.7314 199.092 89.7535C200.171 89.7933 201.23 89.7317 204.838 90.0245C210.971 90.7616 210.129 90.8738 211.43 91.0333C212.366 91.2114 211.92 91.4336 212.985 91.6349C213.466 91.7282 214.136 91.8398 215.175 92.0275C216.113 92.1957 218.166 92.5847 219.259 92.7945C221.669 93.273 223.148 93.5406 223.946 93.6538C224.626 93.7904 227.546 94.2415 231.095 94.668C231.834 94.7569 232.678 94.8676 233.779 95.05C234.259 95.1264 235.345 95.3354 235.469 95.3568C235.763 95.4126 236.043 95.4716 236.315 95.5325C237.517 95.8048 237.802 95.911 239.262 96.1669C243.271 96.9066 243.955 96.9066 245.026 97.0709C246.462 97.3461 248.621 97.2573 251.18 97.925C254.719 98.9087 254.432 98.8168 256.51 99.1879C257.45 99.3256 259.614 99.8937 260.273 100.235C261.1 100.593 261.576 100.711 261.742 100.701C263.584 100.596 264.007 100.147 264.824 99.9818C267.075 99.4815 266.767 99.3921 270.968 97.7907C272.103 97.3678 272.541 97.2112 272.709 97.1233C272.859 97.0142 272.589 97.4038 272.936 96.8591C273.421 95.9707 273.661 95.8437 273.735 94.1814C273.938 85.2249 276.912 78.6563 277.822 73.0364C277.939 72.5069 278.073 71.915 278.209 70.9114C278.276 70.4038 278.342 69.7865 278.391 68.9618C278.442 68.1696 278.453 66.9292 278.455 66.6075C278.472 64.6596 278.485 62.7548 278.49 60.8705C278.494 58.9893 278.494 57.1212 278.459 55.3381C278.455 55.1168 278.45 54.904 278.444 54.6803C278.437 54.4539 278.378 52.4067 278.374 52.0701C278.363 51.5045 278.354 51.2125 278.348 51.0538C277.554 49.5727 277.41 49.5793 274.334 48.2242C273.95 48.0669 273.013 47.7265 273.02 47.7355C272.894 47.6948 272.685 47.6351 272.452 47.5788C271.982 47.4646 271.387 47.3502 270.7 47.2464C269.389 47.0281 267.149 46.9043 266.984 46.8614C266.403 46.7877 265.582 46.6796 263.887 46.3293C262.702 46.1539 256.891 44.4793 256.5 44.2323C255.172 43.7269 253.97 43.2058 252.825 42.7948C252.244 42.5855 251.709 42.4081 251.124 42.2358C248.828 41.6166 248.482 41.5283 247.761 41.3355C247.134 41.1682 246.671 41.0441 246.283 40.9391C243.944 40.3035 244.748 40.0846 243.658 39.826C242.672 39.5954 242.48 39.8351 242.291 39.814C241.938 39.7791 242.14 39.8311 241.307 39.7961C240.852 39.7747 240.34 39.7794 238.46 39.6091C237.97 39.5628 237.372 39.5014 236.543 39.399C236.123 39.347 235.651 39.2853 235.094 39.2068C234.633 39.1437 233.475 38.9645 233.591 38.9843C233.142 38.9218 232.675 38.857 232.178 38.7853C231.187 38.6421 230.07 38.47 228.849 38.2339C228.239 38.116 227.612 37.9842 226.964 37.8358C226.803 37.8 225.763 37.5542 225.14 37.4028C224.495 37.2466 224.016 37.1278 223.603 37.0244C220.559 36.2551 220.199 36.1203 219.726 35.9392C219.519 35.8648 219.801 35.8288 219.26 35.6271C218.79 35.4397 218.388 35.27 218.024 35.1894C217.658 35.1089 216.764 35.1254 215.779 34.9304C214.693 34.716 213.851 34.5811 213.107 34.5047C212.735 34.4662 212.386 34.4408 212.047 34.4248C211.873 34.4167 211.723 34.4121 211.556 34.4083C211.416 34.4049 211.18 34.4028 210.185 34.3852C207.367 34.3374 206.634 34.3153 205.704 34.2771C204.856 34.2401 204.297 34.198 203.816 34.1376C202.813 34.0239 202.117 33.6837 200.397 33.4585C199.565 33.3369 198.585 33.2202 197.336 33.0769C196.733 33.0019 195.892 32.9344 195.323 32.822C194.631 32.6981 193.786 31.8242 193.628 31.5191C192.868 30.1615 192.843 29.4952 192.472 27.0409C192.387 26.4085 192.299 25.6972 192.178 24.5609C192.117 23.9903 192.05 23.343 191.946 22.2355C191.9 21.7545 191.782 20.4457 191.737 19.9315C191.705 19.5627 191.675 19.2299 191.647 18.9324C191.429 16.5876 191.304 16.4403 191.24 16.2354C191.201 16.144 191.222 16.1903 191.182 16.1218C191.02 15.8687 190.709 15.3501 190.476 14.9412C189.983 14.0829 189.476 13.139 188.819 12.0999C187.888 10.6451 187.183 9.45443 186.821 9.05506C186.714 8.92674 186.629 8.84708 186.581 8.80572C186.537 8.79433 186.368 8.72669 186.123 8.62698C185.429 8.34903 184.858 8.01954 183.378 7.56761C182.3 7.26489 182.693 7.3912 182.589 7.36372C182.558 7.35913 182.531 7.35566 182.507 7.3527C182.406 7.34207 182.358 7.32984 181.918 7.27831C181.685 7.25256 181.373 7.21777 180.615 7.16604C180.226 7.14009 179.737 7.10991 178.853 7.0703C177.862 7.03005 177.091 6.98393 173.108 6.90051C172.048 6.87936 170.68 6.85503 168.669 6.82887C168.188 6.82262 167.623 6.8158 167.069 6.80959C167.016 6.80884 166.995 6.80844 166.958 6.80786C166.89 6.80676 166.821 6.80553 166.752 6.80442C166.475 6.79997 166.194 6.79556 165.909 6.79099C165.342 6.78187 164.808 6.77293 164.24 6.76344C163.157 6.74493 162.052 6.72534 160.969 6.7042C157.214 6.63105 154.666 5.99095 154.145 5.99474ZM190.091 93.5198C190.727 93.5468 191.379 93.5696 192.049 93.599C191.703 93.4103 191.361 93.2234 191.026 93.037C190.704 92.9842 190.386 92.9317 190.074 92.8782C190.079 93.092 190.085 93.3059 190.091 93.5198ZM278.336 50.8316C278.323 50.8082 278.326 50.819 278.337 50.8513C278.336 50.8446 278.336 50.8384 278.336 50.8316ZM197.935 27.5644C198.015 28.0021 198.083 28.2767 198.15 28.4692C198.26 28.7854 198.385 28.8195 198.393 28.5336C198.468 28.4399 198.254 28.007 197.935 27.5644ZM197.08 26.6679C196.913 26.6 196.158 26.5399 196.7 26.6118C196.83 26.6326 196.963 26.6557 197.098 26.6803C197.092 26.6763 197.086 26.6719 197.08 26.6679ZM194.523 10.7695C194.07 10.7101 194.689 11.8877 195.176 12.5207C195.675 13.1715 196.141 13.427 195.973 12.7794C195.93 12.5564 194.798 10.8661 194.523 10.7695Z" fill="#31260C"/>
<path d="M87.9721 24.8194C87.7867 26.4536 88.0714 28.0588 88.0714 31.5679C88.0714 32.1425 88.2346 33.6916 87.9721 33.7295C86.5121 34.0669 84.9391 34.5482 82.7731 34.7716C80.0196 35.1425 78.1082 35.5261 76.6315 35.8518L76.4997 35.8809C74.3897 36.3466 73.1791 36.6139 69.633 36.6695C67.285 36.7064 63.1563 36.7064 59.6107 36.8963C56.0651 37.0862 53.1898 37.4548 50.3088 37.6392C47.4279 37.8235 44.6247 37.7785 42.9216 37.8614C40.6272 37.9732 39.1467 38.535 36.6214 38.6065C32.7161 38.7171 29.0709 38.9672 26.8448 39.0902C25.511 39.1639 24.7116 39.4238 23.908 39.5371C22.3072 39.7627 19.8417 40.2797 18.1763 40.9904C16.8649 41.55 15.1844 42.0484 13.6645 42.9307C10.9086 44.5304 8.91315 44.8691 7.63786 47.0259C6.82016 48.4088 6.64618 50.1778 6.71181 51.4975C6.82463 53.7663 7.46723 55.8262 7.60547 57.5677C7.79425 59.9459 8.14496 61.7466 8.57397 68.4479C8.7594 71.3445 8.25876 73.0623 9.05877 76.6696C9.42964 78.3418 9.74423 79.4791 10.0641 80.7994C10.6271 83.1229 11.3221 86.117 11.7018 87.8369C12.0391 89.3651 12.7034 90.3946 13.1551 91.2596C13.603 92.1175 14.0603 93.2784 14.271 94.8756C14.4967 96.5858 14.2731 98.4138 15.3166 99.0043C16.4359 99.6377 17.496 100.029 18.4075 100.419C19.7156 100.978 21.0175 101.871 24.1616 101.87C29.7648 101.867 31.0852 101.453 34.4598 100.937C36.1768 100.674 38.0663 100.042 40.7154 99.5963C42.276 99.3338 43.1347 98.8488 46.9364 98.2927C48.9829 97.9933 50.7245 97.305 52.6659 97.1019C53.3707 97.0282 56.7543 96.2148 61.4661 95.3492C64.0991 94.8655 65.4032 94.3154 67.6882 94.1595C73.7148 93.7485 75.7574 93.3069 78.4735 92.8559C80.2564 92.5599 81.6327 92.89 86.407 90.7681C88.0759 90.0264 89.3659 89.2562 91.6617 88.6836C92.5665 88.458 93.8936 88.1631 101.887 88.0156C109.881 87.8682 124.11 87.8682 131.491 87.9062C138.871 87.9442 139.387 88.0179 146.482 88.0927C153.576 88.1676 166.851 88.1048 173.635 88.3541C180.717 88.6144 181.791 88.5918 183.181 88.8378C184.443 89.0612 186.516 88.8524 188.767 89.2846C190.699 89.6555 193.225 89.9913 195.468 90.5514C196.657 90.8485 200.001 90.647 204.154 91.0719C206.338 91.2954 207.675 91.6874 208.983 91.8159C210.507 91.9656 212.732 92.4734 215.948 93.1575C218.411 93.6814 220.457 94.277 222.127 94.4969C223.84 94.7225 227.908 94.8058 232.892 95.8016C234.189 96.0608 235.065 96.3759 236.282 96.6216C239.403 97.2516 241.051 97.4982 242.382 97.7744C244.171 98.1452 246.46 98.1846 248.116 98.668C249.908 99.1908 251.379 99.5311 252.284 99.7103C253.407 99.9326 254.924 100.064 256.232 100.417C257.2 100.679 258.229 101.065 259.476 101.013C262.2 100.898 264.313 100.558 265.84 99.9303C267.107 99.4098 268.085 98.97 269.973 98.2547L270.047 98.2267C271.098 97.8289 272.071 97.4603 272.614 96.578C273.21 95.6073 273.815 94.4384 273.915 92.9598C274.104 90.1649 274.186 87.8975 274.623 86.1501C274.922 84.9593 274.828 83.9974 275.331 82.7241C275.891 81.3088 276.398 79.8057 276.671 78.4803C276.932 77.2113 277.221 75.6969 277.602 74.0478C277.973 72.4437 278.559 70.6743 278.607 66.6204C278.644 63.4714 278.71 57.5717 278.606 54.5102C278.494 51.226 278.572 50.7217 278.344 50.3313C277.821 49.4365 277.303 48.2723 275.846 47.4649C274.841 46.9075 273.576 46.269 271.414 45.529C269.997 45.0442 267.319 44.686 265.085 44.5628C264.417 44.5259 261.087 44.1074 256.694 42.771C254.135 41.9924 252.437 41.1182 249.603 40.3838C244.577 39.0813 241.096 38.3338 240.66 38.2323C239.537 37.9709 237.845 38.1173 232.267 37.2627C230.08 36.9276 228.183 36.6659 225.556 36.0674C221.8 35.2118 219.442 34.5866 218.495 34.3952C214.81 33.6501 212.905 33.0372 209.954 32.9821L209.738 32.9781C205.907 32.9065 203.176 32.8555 202.416 32.6458C200.663 32.1622 197.841 31.9467 195.081 31.6416C194.414 31.5679 193.936 27.4673 193.424 21.8089C193.162 18.9201 193.035 17.7933 192.491 16.9485C191.746 15.7923 191.055 14.4201 190.069 12.9248C188.913 11.1721 188.008 9.41978 186.793 8.98267C185.861 8.64755 184.687 7.98647 182.613 7.49138L182.59 7.48598C181.8 7.29702 180.583 7.00629 166.756 6.86023C152.796 6.71278 126.77 6.71278 113.606 6.75076C100.441 6.78874 100.147 6.86902 99.8465 6.89933C98.7295 7.01215 97.3726 6.94307 95.8988 7.83208C94.784 8.50456 93.879 9.23808 93.0704 10.3678C91.9511 11.9317 91.2705 13.5427 90.3894 14.7981C89.4221 16.1766 88.946 17.2078 88.6792 18.3728C88.3809 19.6753 88.4517 20.5923 87.9721 24.8194Z" fill="#BF4513"/>
<path d="M147.995 4.16017C150.64 4.15744 150.881 4.52245 153.003 4.56243C155.955 4.61759 158.972 4.5808 161.969 4.52592C163.466 4.49851 164.954 4.46667 166.449 4.44017C179.975 4.55838 178.999 4.65095 180.441 4.67918C182.1 4.74315 182.362 4.83772 182.739 4.96296C182.062 5.78088 182.91 6.68954 182.879 5.19509C182.941 5.2617 182.992 5.2885 183.037 5.29221C183.06 5.2942 183.08 5.28983 183.1 5.28257C183.216 5.29985 182.719 5.15735 183.589 5.36074C185.938 5.9379 186.767 6.35383 187.338 6.60265C187.416 6.65467 188.599 7.17337 189.171 7.83559C189.818 8.50791 190.312 9.25744 191.171 10.6108C192.957 13.2965 193.999 15.0367 194.584 15.8804C195.243 16.9382 195.344 18.4913 194.96 19.7835C195.059 20.4185 195.464 24.8127 195.58 25.6744C195.728 26.9447 195.823 27.6267 195.91 28.2192C195.976 28.6593 196.034 29.0104 196.087 29.294C197.802 29.5468 200.696 30.2751 201.584 30.5332C201.722 30.5676 201.974 30.6257 202.296 30.7116C202.652 30.804 202.98 30.9145 202.937 30.9151C203.029 30.9674 203.571 31.0785 204.886 31.1645C205.572 31.2093 206.379 31.2508 207.977 31.2995C210.327 31.361 210.575 31.3803 211.143 31.4327C212.2 31.5311 213.106 31.6981 213.514 31.7716C214.325 31.9148 215.514 32.1801 216.8 32.4587C217.442 32.5971 218.094 32.7314 218.706 32.8458C219.022 32.8997 219.049 32.893 219.209 32.9081C219.554 32.9355 219.964 32.7641 220.648 32.8162C220.999 32.8445 221.41 32.9272 222.081 33.1575C222.789 33.3952 223.552 33.7416 225.976 34.5805C228.08 35.0072 229.265 35.1733 230.361 35.3627C230.906 35.455 231.418 35.5456 231.962 35.6482C231.71 35.6377 235.998 36.285 237.014 36.3907C237.959 36.506 237.924 36.6637 238.295 36.6952C239.025 36.7545 239.713 36.676 240.186 36.7165C241 36.7938 240.991 37.1894 241.088 36.6604C241.286 36.6141 241.735 36.6211 242.659 36.7403C242.957 36.9131 243.316 37.1007 243.785 37.3151C244.609 37.3943 245.4 37.4607 247.567 37.8833C246.929 37.9231 247.109 38.0835 248.534 38.5036C248.728 38.5603 248.939 38.6205 249.285 38.715C249.58 38.7962 250.106 38.9372 250.059 38.9293C250.174 38.9674 250.299 39.0055 250.432 39.0436C250.698 39.1201 250.984 39.1939 251.261 39.2592C252.369 39.5219 253.347 39.6468 252.528 39.1266C253.946 39.6952 255.15 40.274 256.283 40.738C256.569 40.8557 256.839 40.9641 257.125 41.0728C258.241 41.4375 259.502 41.787 260.091 41.949C261.402 42.3069 262.125 42.4848 262.751 42.6422C262.509 43.043 263.884 43.3135 264.47 43.2384C265.126 43.1772 265.186 42.8557 265.187 42.6205C265.512 42.6384 266.088 42.6794 266.479 42.7149C268.269 42.9919 269.577 43.1995 270.824 43.4829C271.618 43.5906 274.869 44.8588 275.75 45.4377C276.414 45.8298 276.122 45.6784 277.062 46.2887C277.793 46.8185 278.061 47.19 278.261 47.471C278.628 48.0275 278.644 48.285 278.747 48.8225C279.178 49.5076 279.358 49.7412 279.501 50.0399C279.915 50.3745 280.034 50.695 280.048 51.4767C280.057 51.8697 280.034 52.6478 280.052 54.4847C280.018 54.7649 279.969 55.0534 279.918 55.3619C279.709 56.5917 279.465 58.1644 279.865 61.7536C279.689 62.3267 279.576 63.1087 279.508 64.027C279.473 64.4843 279.45 64.9775 279.435 65.4934C279.416 66.0765 279.435 66.2306 279.396 67.7127C279.185 72.3626 278.787 73.1025 278.734 74.0145C278.7 74.267 278.913 73.9308 278.774 74.7298C278.451 76.6028 277.753 79.3523 278.139 79.4787C277.715 80.668 277.177 81.8646 276.533 83.1614C276.252 84.0416 276.333 84.8718 276.203 86.0079C276.337 86.0276 276.471 86.0472 276.605 86.0664C276.106 87.2447 275.979 87.4695 275.821 88.6687C275.68 89.7449 275.614 91.1809 275.484 92.3424C275.414 92.7778 275.319 93.0111 274.982 94.3165C274.492 95.8395 273.86 97.7673 272.058 98.6621C271.567 99.1698 271.03 99.5805 270.511 99.999C267.411 101.319 267.14 100.915 266.111 101.271C266.012 101.305 265.188 101.634 263.99 101.885C262.831 102.143 261.105 102.304 260.902 102.322C259.339 102.483 258.612 102.628 257.557 102.521C256.436 102.407 255.503 102.073 252.562 101.636C251.369 101.412 251.369 101.227 250.385 100.992C248.136 100.29 243.315 99.9642 242.59 100.203C241.791 99.9602 241.723 99.8567 241.258 99.7263C240.817 99.597 240.216 99.4692 239.156 99.2637C238.624 99.1605 237.966 99.0347 237.135 98.8701C236.743 98.7924 236.167 98.6767 235.832 98.607C235.622 98.5626 235.401 98.5115 235.203 98.4627C234.401 98.2624 233.787 98.0718 233.414 97.9495C232.919 97.8043 233.219 97.5143 230.061 96.9466C227.653 96.5217 224.669 96.5124 223.78 96.4073C222.745 96.2869 222.563 96.0413 222.225 95.9889C221.996 95.9489 221.466 96.0681 220.676 95.911C219.432 95.6637 218.067 95.2259 216.304 94.7532C214.113 94.203 212.117 93.6982 211.177 93.5137C208.154 93.006 208.877 93.4482 202.334 93.0236C200.852 92.8878 199.971 92.7515 199.139 92.725C197.88 92.6879 197.028 92.6686 196.315 92.6141C195.57 92.5645 195.246 92.4637 193.796 92.1406C191.18 91.6451 189.669 91.1889 186.345 90.8845C185.023 90.8043 184.066 90.8303 183.076 90.6806C182.456 90.5677 182.561 90.5695 182.204 90.514C181.878 90.4666 181.572 90.421 180.434 90.3576C179.827 90.3245 179.033 90.2893 177.144 90.2178C176.235 90.1831 174.805 90.1298 173.551 90.08C173.283 90.0667 172.994 90.0536 172.727 90.0418C168.688 89.8471 158.034 89.0828 160.866 90.3142C159.412 90.5153 148.433 89.9988 146.253 89.9578C144.275 89.9292 142.696 90.1253 141.111 90.1021C136.376 90.0224 132.451 89.836 126.957 90.0142C125.485 90.0607 123.885 90.3182 122.994 90.3149C121.926 90.3103 120.764 90.06 119.359 90.0459C116.02 90.0125 109.642 90.1217 106.246 90.1172C105.629 90.1154 105.408 89.8976 104.515 89.8403C103.558 89.7861 103.103 89.7425 101.621 89.7456C98.3156 89.7992 97.1525 89.8519 96.2262 89.8958C95.3563 89.9397 94.8963 89.9798 94.5376 90.0218C93.2507 90.1856 93.2564 90.3938 93.3876 90.7268C92.4853 90.6423 92.4438 90.6736 92.2074 90.7716C90.4131 91.2349 88.8815 92.1842 87.2353 92.9272C81.122 95.578 79.9109 94.873 79.1202 95.1C78.2424 95.2135 77.0485 95.5 73.7084 95.9251C72.8354 96.0323 71.7471 96.1492 70.4159 96.2644C69.7524 96.3219 69.0278 96.3792 68.2689 96.4338C67.3305 96.4992 67.5618 96.4867 67.2178 96.5234C66.2076 96.6363 65.1163 96.9309 63.6488 97.2859C63.2881 97.372 62.9187 97.4564 62.5412 97.5366C62.3497 97.5773 62.1607 97.6159 61.9785 97.652C62.0039 97.6485 61.3728 97.7656 61.07 97.8242C60.7517 97.8853 60.4863 97.9373 60.2379 97.9864C58.4337 98.3456 57.6962 98.5134 56.9641 98.6769C55.5986 98.9861 54.9324 99.1601 54.4234 99.303C53.1643 99.6598 53.4753 99.7005 52.2375 99.9618C51.7082 100.089 51.0958 100.258 50.0954 100.506C49.5934 100.628 48.9885 100.772 48.2222 100.904C47.6667 101.007 45.6543 101.251 44.5757 101.469C42.7024 101.833 42.1666 101.963 41.1755 102.056C38.373 102.453 36.5859 102.848 35.1171 103.008C33.8128 103.131 32.9207 103.326 31.5454 103.885C30.5188 103.99 29.1959 104.111 27.6155 104.158C26.0308 104.18 24.3841 104.312 22.1647 104.033C18.3753 103.33 18.2815 102.537 17.4182 101.954C17.0635 101.962 16.6677 101.957 16.2172 101.92C15.6629 101.686 15.0171 101.402 14.2552 100.979C14.1298 100.759 13.8733 100.415 13.7486 100.088C12.5782 98.8078 12.6411 97.4999 12.4685 95.9524C12.3353 94.401 11.8756 93.2827 11.5548 92.7278C11.2428 92.1649 10.8771 91.7964 10.2509 90.5849C9.95743 90.0103 9.62562 89.192 9.42192 88.3177C9.33075 87.9744 9.24153 87.6159 9.16086 87.2573C8.88407 86.0332 8.49658 84.2619 7.81357 81.3288C7.61789 80.4611 7.3435 79.3966 7.00286 77.8628C6.64001 76.3363 6.36732 74.3567 6.37674 72.8949C6.37287 71.3936 6.46689 70.3103 6.46078 69.3813C6.46075 69.1473 6.45809 68.9372 6.45079 68.7104C6.45561 68.6739 6.3668 67.2395 6.32715 66.6217C6.2323 65.1439 6.14879 64.033 6.08332 63.1949C5.82616 60.0166 5.7929 59.5584 5.7706 58.8317C5.73456 57.5552 5.51744 57.6811 5.85601 56.1482C5.71149 55.5871 5.5408 54.9607 5.37351 54.2467C5.16463 53.8173 4.95655 53.3496 4.76186 52.8257C4.60307 51.4093 4.60664 50.5725 4.78218 49.3453C4.87416 48.7494 5.0169 48.1193 5.26055 47.4483C5.48541 46.7969 5.95218 45.9593 6.21729 45.6109C7.49603 43.7336 9.73975 42.8753 11.6612 41.9052C13.2461 40.9764 15.7369 39.8986 17.0731 39.3753C18.8444 38.5442 21.3378 37.9259 23.265 37.5964C24.1634 37.4758 24.3527 37.2934 26.2179 37.0785C27.6361 36.9682 27.6601 36.9743 28.5247 36.92C30.017 36.8313 31.8437 36.7439 34.0712 36.7089C36.7648 36.6826 38.5825 36.8269 40.2001 36.5112C41.3497 36.3161 42.1745 36.1194 42.8857 35.9726C43.4097 35.8337 43.9971 35.7035 45.332 35.6792C46.3997 35.6577 48.543 35.6654 50.5396 35.57C51.8988 35.5243 53.5381 35.4262 55.4601 35.3179C57.3196 35.2115 59.8123 35.1047 61.964 35.0872C64.0119 35.0672 65.4876 35.0778 66.5941 35.0538C67.8892 35.0272 68.3993 34.8549 69.1151 34.8278C69.4016 34.8141 70.085 34.7994 70.8423 34.7638C71.5673 34.7296 72.1935 34.6813 72.7124 34.6233C73.7495 34.5064 74.3988 34.3615 75.0216 34.2141C76.3071 33.9055 76.9828 33.6566 79.1161 33.1406C85.1057 32.618 84.5552 33.3428 85.9645 33.587C86.4964 33.6734 87.2952 33.8694 88.169 33.9679C89.0775 33.135 89.0122 32.1583 89.2459 31.6597C89.2765 31.5999 89.3097 31.5735 89.3447 31.5722C89.3343 31.5702 89.3237 31.5656 89.3131 31.5581C89.081 31.3473 88.7605 28.8883 88.4707 28.7251C88.1903 28.5317 86.405 28.4265 86.2403 26.7458C86.1896 26.1644 86.1903 25.5335 86.2686 24.9109C86.2575 25.0594 86.5383 22.7292 86.6357 21.8082C86.7496 20.7713 86.8125 20.2452 86.8764 19.8275C87.1236 18.3159 87.3333 17.9699 87.6475 16.9883C87.8075 16.5167 88.014 15.9243 88.368 15.2188C88.7246 14.4959 89.2401 13.731 89.4147 13.4028C90.1861 12.0676 91.1452 10.022 92.383 8.57192C93.0005 7.84325 93.6965 7.23255 94.3998 6.70218C94.8562 6.27249 96.738 5.28496 97.7829 5.0928C98.7064 5.0739 99.3794 5.18209 99.6822 5.26018C99.706 5.37343 99.7336 5.4864 99.7728 5.59804C99.8309 5.4838 100.091 5.76833 100.368 5.74199C100.591 5.72036 100.7 5.53326 101.338 5.51159C101.889 5.49788 101.615 5.53771 105.053 5.55154C105.57 5.55293 106.172 5.55372 107.395 5.55189C108.058 5.55075 108.802 5.54935 110.208 5.54603C110.981 5.54412 111.851 5.54226 113.056 5.53983C113.836 5.53812 113.568 5.53939 113.629 5.53983C113.641 5.54042 113.654 5.54098 113.667 5.54155C113.874 5.55084 114.091 5.55922 114.316 5.56566C114.773 5.57853 115.239 5.58387 115.738 5.5753C119.001 5.52041 119.602 5.0456 121.576 4.9826C123.634 4.91752 126.862 5.17294 129.533 5.00567C129.867 4.9534 130.202 4.90119 130.539 4.84897C130.298 4.73084 130.057 4.61268 129.817 4.49458C131.167 4.43955 131.744 4.68159 132.985 4.68641C134.446 4.69227 135.193 4.46347 136.183 4.46531C136.99 4.46704 138.09 4.65217 139.143 4.64198C140.679 4.62814 140.345 4.36189 141.173 4.31343C141.498 4.29397 147.635 4.16053 147.995 4.16017ZM154.169 8.13419C153.065 8.13801 152.343 8.41726 150.109 8.47962C142.659 8.6838 132.825 8.3745 126.001 8.52095C122.638 8.59258 118.023 8.95765 114.831 9.04546C114.502 9.05424 114.124 9.06003 113.722 9.06372C104.283 9.0963 104.108 9.11947 102.977 9.12812C101.245 9.14822 101.016 9.15262 100.69 9.15774C100.164 9.16747 100.217 9.17552 100.189 9.2552C100.178 9.35157 100.205 9.65622 100.201 9.695C100.178 9.73088 100.234 9.54239 100.048 9.55104C98.3511 9.65575 97.8027 9.62818 96.7889 10.285C95.9174 10.8407 95.4143 11.1378 94.3588 12.8159C93.6992 13.9468 92.5198 15.7752 91.4624 17.5855C90.7074 19.4236 90.9511 18.5332 90.6238 21.1993C90.5468 21.9313 90.4112 23.2881 90.1882 25.0724C90.1436 25.2965 90.1103 25.4596 90.0766 25.7078C90.0098 26.1837 89.9681 26.8193 89.9268 27.6585C89.8603 29.2577 89.6615 31.6212 89.3475 31.5722C89.5932 31.5722 89.9332 32.7811 90.162 32.2441C90.1956 32.6697 90.2208 33.0079 90.2102 33.4034C90.2008 33.6075 90.2 33.8036 90.1048 34.1717C90.0316 34.3785 90.0637 34.5217 89.6347 35.0785C89.1732 35.7143 88.1487 35.8605 88.3308 35.8307C88.1041 35.8956 87.6734 36.0121 87.2718 36.1128C86.4502 36.3183 85.4957 36.5276 84.331 36.6704C81.8205 36.8953 79.3837 37.1439 78.0275 37.2231C76.7569 37.4768 75.9387 37.7529 73.8695 38.0531C72.8407 38.1961 71.4162 38.2896 69.8215 38.3176C68.9485 38.334 68.3771 38.3402 67.5316 38.3514C65.8929 38.374 64.0042 38.3934 61.6014 38.4798C58.9221 38.5742 56.8074 38.7629 54.877 38.9427C54.1631 38.8496 53.4791 38.7551 52.823 38.6548L52.8227 38.6537C50.4843 38.6924 47.9714 39.193 46.4296 39.3074C44.3246 39.4763 43.4691 39.4429 41.2994 39.8219C40.2816 40.0052 38.9969 40.3078 37.5018 40.4333C36.8226 40.4958 35.6809 40.5204 34.7969 40.5689C33.896 40.6138 33.0998 40.6596 32.3713 40.7036C30.9122 40.7921 29.71 40.8745 28.6776 40.9426C28.1621 40.9767 27.6939 41.0071 27.2673 41.0332C27.0272 41.0358 25.7924 41.1589 25.3025 41.2781C23.1639 41.657 20.2343 42.1196 17.8483 43.206C16.5106 43.7089 15.6224 43.9856 13.7651 45.0516C11.9507 45.9796 10.6249 46.526 10.0391 47.0323C9.45285 47.5002 8.94615 48.1897 8.68043 49.3525C8.43691 50.4758 8.42741 51.3839 8.63634 52.9601C8.83118 54.3727 9.11681 55.6082 9.25282 56.7977C9.33294 57.5168 9.31629 57.6251 9.33444 57.8715C9.34816 58.1046 9.36507 58.3513 9.38713 58.6285C9.47177 59.8112 9.64928 60.8726 10.026 66.0073C10.243 69.0888 10.2566 69.4082 10.2368 71.0837C10.2087 72.6023 10.2139 74.4171 10.7651 76.6419C11.7176 80.4914 12.6136 84.2382 12.7285 85.3466C12.7968 85.9426 12.596 86.1541 12.713 86.7201C12.8586 87.2625 13.0438 88.1665 13.3735 88.8622C13.6822 89.5421 13.9976 90.0294 14.27 90.5043C14.7448 91.3408 15.5654 92.8397 15.7985 95.6379C15.8871 96.8204 15.9785 97.4627 16.0884 97.674C16.2422 97.8845 15.8686 97.553 16.8509 98.0521C18.3317 98.7041 19.3038 99.0106 20.0886 99.3595C20.5206 99.5796 20.9847 99.8205 21.7972 100.03C22.5279 100.255 24.229 100.323 25.401 100.309C27.9225 100.309 29.7863 100.149 31.0202 99.9729C33.6538 99.5676 34.4039 99.5244 38.3187 98.5443C40.9725 97.9646 40.8047 98.0705 41.991 97.7284C42.7573 97.4121 47.5426 96.6646 48.3834 96.3956C49.1499 96.2044 49.9323 95.9814 50.7497 95.7967C51.5002 95.6115 52.7435 95.4656 52.5675 95.4764C52.7787 95.4316 53.4381 95.2871 54.7771 94.9956C55.8418 94.7707 56.3989 94.6215 60.115 93.9015C61.771 93.5894 61.4143 93.6572 61.8156 93.5753C62.105 93.515 62.391 93.4516 62.6728 93.3862C63.2374 93.2555 63.7868 93.1163 64.33 92.9881C65.4158 92.7279 66.4749 92.5435 67.492 92.4677C69.5943 92.3221 71.6718 92.1262 72.9324 91.969C77.8461 91.3087 77.8204 91.1289 80.8044 90.7843C81.5295 90.6755 83.4609 90.1481 85.7647 89.0933C86.4722 88.7745 87.2807 88.3477 88.3935 87.8724C89.3349 87.4282 91.6797 86.7961 91.335 86.8902C91.4874 86.8485 91.6858 86.7966 91.989 86.7363C92.3042 86.6756 92.6669 86.6076 93.5343 86.5189C93.9889 86.4742 94.5378 86.4238 95.6951 86.3591C96.2875 86.3268 97.0431 86.2896 98.3146 86.2472C99.2706 86.2113 101.859 86.158 102.133 86.1522C104.458 86.1031 106.682 86.0728 108.895 86.0478C117.784 85.9555 125.732 85.9289 134.278 85.9758C138.766 86.0044 142.792 86.1046 146.945 86.1394C151.349 86.1778 155.638 86.1807 159.889 86.2093C163.175 86.2316 166.87 86.2104 170.506 86.2541C171.411 86.2653 172.325 86.2814 173.212 86.3061C173.569 86.3171 173.072 86.2981 174.533 86.3502C175.614 86.3882 176.534 86.4191 177.266 86.4435C178.735 86.4924 179.517 86.5189 180.109 86.542C182.234 86.626 182.431 86.6856 182.965 86.7796C183.837 86.9718 182.959 87.2089 188.13 87.3083C188.176 87.4203 188.227 87.533 188.274 87.6458C189.053 87.7423 189.324 87.7964 189.624 87.8273C189.927 87.8628 190.231 87.8953 190.538 87.9268C191.152 87.9901 191.773 88.0496 192.436 88.1256C193.1 88.202 193.805 88.2928 194.617 88.4348C195.019 88.5053 195.473 88.5946 195.931 88.6997C196.004 88.7071 196.025 88.7032 196.137 88.7155C196.656 88.7886 197.287 88.7123 202.265 88.9621C202.828 88.9935 204.302 89.1222 204.674 89.1691C205.233 89.2325 205.704 89.3009 206.122 89.3681C206.954 89.5032 207.535 89.6217 207.977 89.7026C208.863 89.8701 209.18 89.8857 209.601 89.9509C210.418 90.0824 210.043 90.2235 210.965 90.3821C211.809 90.5292 213.222 90.7545 216.682 91.4277C219.25 91.9309 220.809 92.2756 221.779 92.4374C222.79 92.6082 222.923 92.6474 224.123 92.8001C225.202 92.9359 226.811 93.1158 228.18 93.2598C229.37 93.3857 231.029 93.5706 233.369 94.0196C234.46 94.2221 235.413 94.4967 236.206 94.654C236.424 94.6986 237.619 94.9212 238.389 95.0562C239.182 95.1956 239.775 95.2913 240.263 95.3676C241.232 95.5183 241.823 95.5997 242.333 95.6768C243.084 95.8526 245.674 96.0053 247.697 96.3601C248.663 96.5294 250.548 97.1187 251.273 97.2693C252.177 97.4797 252.37 97.5382 253.222 97.6929C254.104 97.8542 255.426 98.0589 256.79 98.4947C257.703 98.8253 258.336 99.059 258.602 99.0878C259.442 99.2136 260.589 98.8038 261.502 98.691C262.773 98.5151 263.76 98.2952 264.473 98.069C265.053 97.8942 265.93 97.5029 267.507 96.8957C268.277 96.594 269.463 96.175 269.978 95.9775C270.57 95.7482 270.75 95.5952 270.815 95.5329C271.135 95.0941 271.735 94.0452 271.848 93.213C272.043 91.112 272.134 88.6344 272.372 87.1647C272.479 86.3681 272.684 85.7138 272.782 85.0621C272.885 84.3894 272.999 83.0315 273.498 81.8644C274.222 80.0195 274.606 78.6029 274.876 77.1172C275.035 76.3241 275.216 75.4045 275.462 74.2838C275.608 73.6245 275.655 73.4274 275.704 73.2196C275.755 73.0055 275.809 72.7847 275.867 72.5391C276.073 71.5972 276.531 70.1031 276.557 66.3251C276.575 64.4352 276.591 62.582 276.597 60.751C276.602 58.9226 276.602 57.1071 276.567 55.364C276.562 55.1486 276.557 54.9379 276.55 54.7186C276.547 54.6154 276.554 54.8204 276.54 54.411C276.527 54.0067 276.517 53.645 276.509 53.3516C276.493 52.7582 276.486 52.4071 276.48 52.1425C276.466 51.4804 276.454 51.2512 276.447 51.1468C276.443 51.1389 276.438 51.1308 276.433 51.1223C275.688 48.2016 268.365 46.6421 264.454 46.5387C263.902 46.4708 263.102 46.3703 261.44 46.0363C260.531 45.8433 259.769 45.713 257.318 45.0337C257.004 44.9457 256.426 44.7759 256.097 44.6745C256.017 44.6495 255.937 44.6242 255.857 44.5984C255.694 44.5462 255.527 44.4914 255.365 44.4369C255.042 44.3277 254.722 44.2145 254.407 44.099C253.14 43.6351 251.955 43.1448 250.798 42.7535C250.094 42.5238 250.18 42.5178 248.713 42.1291C246.78 41.6282 246.38 41.5298 245.718 41.3607C245.129 41.2108 244.688 41.0988 244.314 41.0032C242.065 40.4285 242.805 40.3278 241.753 40.0861C240.799 39.8699 240.631 40.0222 240.452 39.9969C240.153 39.962 240.207 39.9704 239.385 39.9266C238.936 39.9 238.443 39.8976 236.691 39.7414C235.822 39.6606 234.307 39.5042 231.949 39.1483C231.513 39.087 231.06 39.0239 230.583 38.9554C229.629 38.8185 228.567 38.6581 227.407 38.4416C226.827 38.3335 226.23 38.2128 225.616 38.0779C225.463 38.0443 225.311 38.0101 225.159 37.9756C224.864 37.9084 224.319 37.7832 224.005 37.7098C223.326 37.5514 222.835 37.4342 222.413 37.3326C219.316 36.5802 218.965 36.4612 218.457 36.2988C218.285 36.2418 218.267 36.1737 218.111 36.0835C217.653 35.9321 217.257 35.7944 216.902 35.7188C216.545 35.6431 215.692 35.6017 214.711 35.4047C212.481 34.9636 211.511 34.8416 209.679 34.8199C206.246 34.7613 205.75 34.7452 204.751 34.709C203.888 34.6752 203.335 34.6378 202.882 34.5885C202.047 34.5222 201.331 34.1958 199.686 33.9803C198.89 33.8655 197.963 33.7575 196.799 33.6304C195.621 33.4518 194.157 33.5938 193.517 32.635C192.777 31.529 192.761 30.9402 192.398 28.6913C192.235 27.5156 192.047 26.1436 191.589 21.0619C191.365 18.6687 191.234 18.4493 191.136 18.1582C191.084 18.1811 186.262 9.39611 185.609 10.4637C184.952 10.2064 184.357 9.86362 182.698 9.39709C182.163 9.25521 182.171 9.26611 182.158 9.26278C182.143 9.26009 182.127 9.25774 182.112 9.2552C182.081 9.24972 182.053 9.24512 182.024 9.24039C181.903 9.22233 181.812 9.20015 181.337 9.14637C184.394 9.08124 161.091 8.5882 160.791 8.61738C157.148 8.56161 154.677 8.13238 154.169 8.13419ZM188.986 90.8628C189.587 90.9127 190.205 90.9571 190.844 91.0061C190.504 90.8636 190.171 90.7226 189.845 90.5815C189.537 90.531 189.236 90.4808 188.938 90.4286C188.954 90.5732 188.97 90.718 188.986 90.8628ZM196.218 29.906C196.251 30.0333 196.281 30.1371 196.311 30.2249C196.415 30.5362 196.528 30.59 196.505 30.3744C196.529 30.289 196.399 30.1047 196.218 29.906ZM192.721 13.5244C192.377 13.4171 193.002 14.5443 193.464 15.1882C193.937 15.8478 194.347 16.159 194.108 15.5377C194.026 15.3128 192.938 13.6389 192.721 13.5244Z" fill="white"/>
<path d="M206.484 74.3231C205.342 74.2223 204.369 74.0367 203.565 73.7663C202.76 73.4959 202.045 73.0799 201.42 72.5185C200.123 71.3915 199.595 69.458 199.837 66.7179C200.052 64.2822 200.914 62.6016 202.422 61.6762C203.833 60.8187 205.588 60.4827 207.689 60.6681C208.587 60.7473 209.352 60.8608 209.983 61.0086C210.616 61.1411 211.247 61.3732 211.878 61.705C212.523 62.0381 213.023 62.4581 213.377 62.9649C213.747 63.4731 214.024 64.1572 214.209 65.0173C214.395 65.8622 214.438 66.8555 214.337 67.9972C214.133 70.3111 213.325 71.9964 211.912 73.053C210.501 74.0945 208.691 74.5178 206.484 74.3231ZM206.078 69.7998C206.136 70.3573 206.214 70.694 206.311 70.8099C206.423 70.9272 206.571 70.9939 206.753 71.0101C206.951 71.0275 207.108 70.9877 207.224 70.8905C207.355 70.7947 207.491 70.4768 207.631 69.9368C207.785 69.3982 207.899 68.7179 207.972 67.8958C208.046 67.0586 208.079 66.4172 208.072 65.9717C208.082 65.5123 208.068 65.1582 208.028 64.9092C208.004 64.6616 207.952 64.4653 207.873 64.3202C207.753 64.1102 207.595 63.9965 207.397 63.9791C207.214 63.9629 207.057 64.0104 206.924 64.1214C206.793 64.2173 206.649 64.5421 206.493 65.0959C206.338 65.6346 206.215 66.4138 206.125 67.4338C206.035 68.4537 206.02 69.2424 206.078 69.7998ZM210.791 56.5464C211.141 56.5773 211.466 56.8975 211.765 57.5068C212.079 58.1175 212.199 58.8491 212.124 59.7016C212.103 59.93 211.423 60.077 210.083 60.1429C208.759 60.1948 207.663 60.1825 206.795 60.1059C206.506 60.0804 206.256 59.8742 206.044 59.4874C205.848 59.1019 205.771 58.6732 205.812 58.2013C205.855 57.7141 206.46 57.2995 207.625 56.9575C208.807 56.6015 209.862 56.4645 210.791 56.5464Z" fill="white"/>
<path d="M192.122 71.5152L192.202 70.1881L192.019 70.177C191.953 70.2496 191.841 70.3423 191.681 70.4551C191.522 70.5527 191.131 70.6822 190.509 70.8436C189.902 71.006 189.217 71.0641 188.454 71.018C187.707 70.9728 187.081 70.8201 186.576 70.56C186.071 70.2998 185.684 69.9932 185.415 69.6401C185.146 69.2717 184.945 68.7926 184.812 68.2028C184.608 67.2872 184.552 66.059 184.645 64.5183C184.752 62.7488 185.207 61.4138 186.012 60.5132C186.325 60.1493 186.771 59.8548 187.351 59.6296C187.948 59.39 188.574 59.2901 189.23 59.3297C189.886 59.3694 190.423 59.4784 190.841 59.6567C191.259 59.8198 191.57 60.007 191.771 60.2182C192.172 60.6711 192.394 61.0596 192.436 61.3836L192.446 61.591L192.629 61.602L192.889 60.7221C193.08 60.0906 194.305 59.8431 196.562 59.9796C197.569 60.0404 198.17 60.2298 198.365 60.5478C198.476 60.7382 198.542 60.9183 198.562 61.0879C198.583 61.2423 198.584 61.4797 198.565 61.8L197.986 71.3873C197.877 73.1873 197.207 74.5247 195.975 75.3995C194.743 76.2743 192.991 76.643 190.718 76.5056C188.308 76.36 186.682 76.0244 185.841 75.499C185.473 75.2624 185.295 75.0297 185.309 74.8009C185.331 74.4347 185.514 73.8257 185.856 72.9737C186.214 72.1227 186.522 71.705 186.782 71.7207C186.843 71.7243 187.053 71.7906 187.413 71.9195C188.553 72.2947 189.482 72.5039 190.199 72.5473C190.931 72.5915 191.425 72.5295 191.68 72.3612C191.951 72.1938 192.098 71.9118 192.122 71.5152ZM191.381 68.5768C191.549 68.587 191.69 68.5342 191.804 68.4187C191.918 68.3031 191.98 68.169 191.989 68.0165L192.274 63.3029C192.232 62.9789 192.074 62.8086 191.799 62.792C191.22 62.7569 190.872 63.6928 190.757 65.5996C190.703 66.4844 190.729 67.1978 190.834 67.74C190.955 68.2831 191.137 68.5621 191.381 68.5768Z" fill="white"/>
<path d="M183.072 64.8801L182.81 71.9355C182.804 72.1035 182.363 72.2248 181.489 72.2993C180.615 72.3586 179.712 72.371 178.781 72.3363C177.864 72.3023 177.27 72.242 176.998 72.1554C176.742 72.0541 176.618 71.9042 176.625 71.7057L176.896 64.4212C176.921 63.7339 176.907 63.2823 176.854 63.0662C176.816 62.8507 176.778 62.6581 176.738 62.4884C176.642 62.1943 176.457 62.0421 176.182 62.0319C175.754 62.016 175.533 62.2143 175.517 62.6266L175.182 71.6521C175.176 71.8201 174.735 71.9413 173.861 72.0159C173.002 72.0758 172.107 72.0884 171.176 72.0538C170.259 72.0197 169.665 71.9594 169.393 71.8728C169.122 71.771 168.989 71.6208 168.997 71.4223L169.417 60.1289C169.428 59.8082 169.876 59.5037 170.758 59.2153C171.656 58.9276 172.593 58.8018 173.571 58.8381C174.548 58.8745 175.087 59.1774 175.188 59.747L175.357 60.7626L175.517 60.7685C175.993 59.8992 176.78 59.3091 177.877 58.9982C178.325 58.8772 178.816 58.8266 179.351 58.8465C180.893 58.9038 181.914 59.4082 182.414 60.3596C182.93 61.2963 183.149 62.8031 183.072 64.8801Z" fill="white"/>
<path d="M160.342 72.0098C159.196 71.9895 158.213 71.8727 157.391 71.6594C156.569 71.4462 155.827 71.0815 155.164 70.5653C153.791 69.5322 153.129 67.6405 153.178 64.8902C153.221 62.4454 153.963 60.7085 155.402 59.6793C156.749 58.725 158.477 58.2665 160.585 58.3039C161.487 58.3198 162.258 58.3794 162.898 58.4824C163.538 58.5702 164.184 58.7574 164.836 59.0441C165.504 59.331 166.032 59.7148 166.421 60.1956C166.825 60.6765 167.15 61.3395 167.394 62.1845C167.64 63.0142 167.752 64.0021 167.732 65.148C167.691 67.4706 167.003 69.2084 165.668 70.3617C164.333 71.4997 162.558 72.049 160.342 72.0098ZM159.619 67.5262C159.717 68.0782 159.818 68.4086 159.923 68.5175C160.043 68.6266 160.195 68.6828 160.378 68.686C160.577 68.6895 160.731 68.6388 160.84 68.5337C160.964 68.4289 161.076 68.1023 161.178 67.5539C161.295 67.0057 161.36 66.319 161.375 65.4939C161.39 64.6536 161.378 64.0114 161.34 63.5675C161.318 63.1085 161.278 62.7563 161.221 62.5107C161.18 62.2655 161.115 62.0732 161.025 61.9341C160.891 61.733 160.725 61.6307 160.526 61.6272C160.343 61.624 160.189 61.6824 160.065 61.8024C159.941 61.9072 159.82 62.2414 159.703 62.8048C159.586 63.353 159.519 64.1389 159.501 65.1627C159.483 66.1864 159.522 66.9743 159.619 67.5262Z" fill="white"/>
<path d="M143.642 71.2508C143.276 71.0817 142.879 70.8285 142.452 70.4911C142.04 70.1538 141.698 69.7555 141.424 69.2963C140.785 68.1943 140.468 66.7569 140.473 64.9842C140.476 63.8838 140.654 62.9063 141.008 62.0514C141.362 61.1813 141.792 60.5101 142.297 60.0377C142.803 59.5653 143.385 59.1772 144.042 58.8734C145.098 58.3872 146.153 58.1456 147.208 58.1485C148.981 58.1533 150.21 58.2942 150.897 58.5711C151.6 58.8481 151.95 59.3152 151.948 59.9723C151.946 60.6295 151.822 61.3321 151.575 62.0802C151.344 62.8132 151.038 63.1791 150.656 63.1781C150.533 63.1777 150.159 63.0468 149.533 62.7853C148.923 62.5238 148.388 62.3925 147.93 62.3912C147.487 62.39 147.142 62.5725 146.897 62.9386C146.667 63.2894 146.55 63.9845 146.547 65.0236C146.544 66.0475 146.65 66.7508 146.862 67.1334C147.075 67.5008 147.403 67.6851 147.847 67.6863C148.305 67.6875 148.871 67.5362 149.544 67.2324C150.217 66.9286 150.592 66.7768 150.669 66.777C150.959 66.7778 151.233 67.1224 151.491 67.8108C151.764 68.4993 151.9 69.1109 151.899 69.6458C151.896 70.471 151.467 71.0506 150.61 71.3845C149.754 71.703 148.592 71.8603 147.125 71.8563C145.673 71.8524 144.512 71.6505 143.642 71.2508Z" fill="white"/>
<path d="M132.055 71.9286C130.909 71.9421 129.922 71.8543 129.094 71.6654C128.267 71.4764 127.514 71.1337 126.836 70.6373C125.433 69.6451 124.716 67.7737 124.683 65.0231C124.655 62.5782 125.345 60.8201 126.754 59.7491C128.072 58.7555 129.785 58.2463 131.894 58.2215C132.795 58.2109 133.567 58.2477 134.21 58.3318C134.853 58.4007 135.505 58.5688 136.165 58.8362C136.84 59.1033 137.38 59.4714 137.783 59.9405C138.201 60.4093 138.545 61.0625 138.814 61.8999C139.084 62.722 139.225 63.7061 139.239 64.8522C139.266 67.1749 138.629 68.9323 137.329 70.1244C136.029 71.3012 134.27 71.9026 132.055 71.9286ZM131.2 67.4683C131.313 68.0172 131.424 68.3445 131.532 68.4502C131.656 68.5557 131.809 68.6074 131.993 68.6052C132.191 68.6029 132.344 68.5476 132.449 68.4394C132.57 68.331 132.673 68.0012 132.759 67.45C132.859 66.8986 132.904 66.2104 132.895 65.3852C132.885 64.5447 132.854 63.9032 132.803 63.4606C132.767 63.0025 132.717 62.6516 132.654 62.4078C132.605 62.1638 132.534 61.9736 132.44 61.8372C132.301 61.6402 132.131 61.5428 131.933 61.5451C131.749 61.5473 131.597 61.6102 131.476 61.7339C131.355 61.8423 131.245 62.1798 131.144 62.7465C131.044 63.2979 131 64.0855 131.012 65.1093C131.024 66.1331 131.086 66.9195 131.2 67.4683Z" fill="white"/>
<path d="M114.09 72.3069C113.525 72.3229 112.995 72.2538 112.502 72.0997C112.008 71.9455 111.597 71.7507 111.27 71.5154C110.957 71.2797 110.681 70.9588 110.44 70.5528C110.199 70.1469 110.012 69.7623 109.88 69.3992C109.747 69.0207 109.642 68.5574 109.565 68.0092C109.45 67.2022 109.378 66.2793 109.349 65.2405C109.289 63.1172 109.633 61.4945 110.381 60.3725C111.128 59.2353 112.182 58.6474 113.541 58.6089C114.931 58.5695 115.949 58.8693 116.594 59.5084C116.735 59.6573 116.848 59.8376 116.93 60.0493L117.113 60.0441L116.794 58.4708L116.712 55.6066C116.703 55.2705 117.121 54.9299 117.968 54.5849C118.814 54.2398 119.734 54.0532 120.727 54.0251C121.765 53.9956 122.435 54.1754 122.737 54.5643C122.848 54.7141 122.906 54.8653 122.91 55.0181L123.372 71.287C123.376 71.455 122.953 71.6046 122.1 71.7358C121.263 71.8513 120.447 71.9203 119.652 71.9428C118.873 71.9649 118.368 71.9563 118.138 71.9169C117.922 71.8619 117.783 71.8047 117.72 71.7453C117.673 71.6855 117.639 71.5871 117.62 71.45L117.4 70.1491L117.217 70.1543C117.094 70.6929 116.832 71.1513 116.43 71.5296C115.924 72.0179 115.144 72.277 114.09 72.3069ZM116.561 68.8887C116.806 68.8818 116.985 68.7238 117.098 68.4148L116.925 62.2968C116.921 62.144 116.833 62.0318 116.663 61.9602C116.508 61.8729 116.369 61.831 116.247 61.8344C115.727 61.8492 115.502 63.048 115.569 65.4311C115.605 66.699 115.699 67.5983 115.852 68.1291C116.019 68.6442 116.256 68.8973 116.561 68.8887Z" fill="white"/>
<path d="M101.164 72.8282C100.019 72.8832 99.0295 72.8313 98.1957 72.6726C97.3618 72.5138 96.597 72.1986 95.9011 71.7272C94.4636 70.7866 93.6788 68.9424 93.5466 66.1948C93.4292 63.7525 94.0549 61.9706 95.4239 60.8491C96.7049 59.8083 98.3986 59.2372 100.505 59.1359C101.406 59.0926 102.179 59.1013 102.824 59.1621C103.469 59.2076 104.126 59.3519 104.796 59.5951C105.481 59.8376 106.033 60.1859 106.453 60.64C106.887 61.0933 107.255 61.7336 107.555 62.5606C107.854 63.3724 108.031 64.3507 108.086 65.4956C108.198 67.8158 107.625 69.5951 106.369 70.8336C105.112 72.0569 103.377 72.7217 101.164 72.8282ZM100.148 68.4018C100.281 68.9462 100.403 69.2693 100.515 69.371C100.643 69.472 100.798 69.518 100.981 69.5092C101.18 69.4997 101.33 69.4389 101.431 69.3269C101.548 69.2142 101.639 68.8809 101.705 68.327C101.785 67.7723 101.805 67.0828 101.766 66.2585C101.725 65.419 101.672 64.779 101.604 64.3385C101.552 63.8821 101.489 63.5332 101.416 63.2919C101.359 63.0499 101.281 62.8624 101.183 62.7294C101.036 62.5375 100.863 62.4464 100.665 62.4559C100.482 62.4648 100.332 62.5332 100.216 62.6611C100.099 62.7739 100 63.1152 99.9207 63.6851C99.8403 64.2398 99.8246 65.0285 99.8738 66.0512C99.923 67.0739 100.014 67.8575 100.148 68.4018Z" fill="white"/>
<path d="M85.0229 73.5998L80.0158 73.963C79.2537 74.0183 78.7393 74.002 78.4724 73.9141C78.2055 73.8262 78.0638 73.6679 78.0472 73.4393L76.9809 58.7383C76.9279 58.0067 79.1038 57.4811 83.5088 57.1616C86.0389 56.9781 87.8019 57.0954 88.7975 57.5135C89.8095 57.9457 90.4808 58.5405 90.8116 59.298C90.9971 59.7442 91.112 60.2721 91.1563 60.8818C91.2425 62.0707 91.1014 62.9773 90.733 63.6016C90.3798 64.2248 89.9697 64.5916 89.5028 64.7021C90.2302 64.8025 90.8501 65.11 91.3624 65.6244C91.8747 66.1389 92.1784 67.0515 92.2734 68.3623C92.384 69.8865 92.0009 71.0482 91.1242 71.8472C90.3628 72.546 89.1575 73.0394 87.5083 73.3276C86.8116 73.4394 85.9831 73.5302 85.0229 73.5998ZM84.3227 63.6299C85.1 63.5735 85.4511 63.0271 85.3759 61.9906C85.3383 61.4724 85.204 61.099 84.9729 60.8707C84.756 60.6259 84.518 60.5129 84.2588 60.5317L83.5272 60.5848L83.7511 63.6713L84.3227 63.6299ZM84.2271 70.233L84.7986 70.1916C85.576 70.1352 85.9271 69.5888 85.8519 68.5523C85.8143 68.0341 85.68 67.6608 85.4489 67.4324C85.2319 67.1876 84.9939 67.0746 84.7348 67.0934L84.0032 67.1465L84.2271 70.233Z" fill="white"/>
<path d="M114.8 33.269L114.091 21.5464L115.305 21.473L115.528 25.1623L115.239 25.1477C115.236 24.2288 115.383 23.4719 115.678 22.877C115.984 22.2708 116.399 21.8129 116.926 21.5032C117.452 21.1935 118.034 21.0193 118.673 20.9807C119.291 20.9433 119.857 21.0266 120.371 21.2306C120.897 21.4339 121.352 21.7269 121.739 22.1096C122.125 22.4923 122.431 22.944 122.654 23.4648C122.878 23.9856 123.008 24.5441 123.044 25.1403L123.062 25.4278C123.098 26.024 123.031 26.5945 122.861 27.1391C122.691 27.6837 122.432 28.1695 122.083 28.5967C121.746 29.0232 121.329 29.369 120.832 29.6341C120.345 29.8987 119.799 30.0493 119.192 30.086C118.585 30.1227 117.997 30.0247 117.427 29.792C116.857 29.5593 116.373 29.1558 115.975 28.5815C115.577 28.0071 115.322 27.2371 115.21 26.2715L115.99 27.5066L116.333 33.1762L114.8 33.269ZM118.871 28.7589C119.446 28.7241 119.939 28.5608 120.348 28.2688C120.758 27.9662 121.065 27.5683 121.27 27.075C121.475 26.5711 121.558 26.005 121.52 25.3768C121.481 24.738 121.33 24.1861 121.067 23.7211C120.804 23.2562 120.451 22.9035 120.009 22.6631C119.567 22.412 119.058 22.3039 118.483 22.3387C117.972 22.3696 117.505 22.5154 117.083 22.776C116.66 23.026 116.328 23.3773 116.089 23.83C115.859 24.2713 115.762 24.7954 115.799 25.4023L115.843 26.137C115.879 26.7226 116.042 27.2149 116.334 27.6141C116.625 28.0132 116.995 28.3114 117.446 28.5086C117.896 28.7057 118.371 28.7892 118.871 28.7589ZM130.784 29.2649L130.694 26.7065L130.439 26.7155L130.335 23.7573C130.314 23.171 130.144 22.734 129.825 22.4463C129.516 22.1583 129.068 22.0246 128.482 22.0452C128.151 22.0568 127.81 22.074 127.459 22.097C127.107 22.12 126.772 22.1425 126.453 22.1643C126.133 22.1862 125.857 22.2119 125.623 22.2415L125.576 20.8983C125.809 20.8688 126.054 20.8442 126.31 20.8245C126.575 20.7939 126.847 20.7737 127.124 20.764C127.401 20.7436 127.667 20.7289 127.923 20.7199C128.797 20.6893 129.515 20.7708 130.077 20.9646C130.638 21.1477 131.06 21.4691 131.343 21.9288C131.626 22.3885 131.782 23.0181 131.81 23.8176L131.999 29.2223L130.784 29.2649ZM127.994 29.5869C127.354 29.6093 126.796 29.5222 126.32 29.3254C125.853 29.1176 125.485 28.8103 125.215 28.4036C124.955 27.9964 124.815 27.4997 124.794 26.9134C124.773 26.3058 124.888 25.7947 125.141 25.3803C125.403 24.9655 125.793 24.6477 126.308 24.4268C126.823 24.1953 127.448 24.0666 128.183 24.0408L130.502 23.9595L130.542 25.1108L128.16 25.1944C127.542 25.2161 127.072 25.3819 126.752 25.692C126.432 26.0021 126.281 26.3916 126.297 26.8607C126.314 27.3297 126.492 27.7024 126.833 27.9786C127.173 28.2548 127.653 28.3821 128.271 28.3604C128.633 28.3477 128.978 28.2716 129.304 28.1321C129.629 27.9819 129.893 27.7485 130.095 27.4319C130.308 27.1043 130.415 26.6629 130.417 26.1078L130.854 26.7009C130.822 27.3104 130.691 27.8273 130.46 28.2516C130.24 28.6649 129.92 28.9857 129.502 29.2138C129.093 29.4416 128.591 29.566 127.994 29.5869ZM134.817 29.1523L134.685 20.6093L135.901 20.5905L135.955 24.1101L135.891 24.1111C135.872 22.8632 136.13 21.9471 136.665 21.3628C137.21 20.7676 138.032 20.4615 139.131 20.4445L139.419 20.4401L139.44 21.8159L138.896 21.8243C138.043 21.8375 137.39 22.077 136.939 22.5427C136.487 22.9977 136.268 23.6519 136.281 24.5051L136.353 29.1286L134.817 29.1523ZM146.515 29.1112L146.529 26.5513L146.273 26.5499L146.29 23.5899C146.293 23.0032 146.141 22.5597 145.833 22.2593C145.536 21.959 145.095 21.8072 144.508 21.8039C144.177 21.802 143.836 21.8055 143.484 21.8141C143.132 21.8228 142.796 21.8316 142.476 21.8405C142.156 21.8494 141.878 21.8638 141.643 21.8838L141.651 20.5399C141.886 20.5198 142.131 20.5052 142.387 20.496C142.654 20.4761 142.926 20.467 143.203 20.4686C143.481 20.4594 143.748 20.4556 144.004 20.457C144.878 20.4619 145.592 20.5726 146.146 20.789C146.699 20.9948 147.108 21.3331 147.372 21.8039C147.636 22.2748 147.766 22.9102 147.761 23.7101L147.731 29.1181L146.515 29.1112ZM143.714 29.3196C143.074 29.316 142.52 29.2062 142.052 28.9902C141.594 28.7637 141.239 28.4417 140.985 28.0242C140.742 27.6069 140.622 27.1049 140.626 26.5182C140.629 25.9102 140.765 25.4043 141.034 25.0005C141.314 24.5967 141.715 24.2949 142.239 24.0952C142.763 23.8848 143.393 23.7817 144.129 23.7858L146.449 23.7988L146.442 24.9508L144.058 24.9374C143.44 24.9339 142.964 25.0806 142.632 25.3774C142.3 25.6742 142.132 26.0573 142.129 26.5266C142.127 26.996 142.29 27.3755 142.619 27.6654C142.948 27.9552 143.422 28.1019 144.041 28.1054C144.403 28.1074 144.75 28.0453 145.082 27.9192C145.413 27.7824 145.686 27.5599 145.901 27.2518C146.127 26.933 146.252 26.4964 146.277 25.9419L146.689 26.5522C146.633 27.1599 146.48 27.671 146.233 28.0856C145.996 28.4897 145.663 28.7971 145.236 29.0081C144.818 29.2191 144.311 29.3229 143.714 29.3196ZM154.105 29.5836C153.497 29.563 152.941 29.4322 152.437 29.1911C151.933 28.9499 151.496 28.6203 151.126 28.2022C150.766 27.7845 150.489 27.3056 150.294 26.7653C150.109 26.2254 150.028 25.6464 150.048 25.028L150.058 24.7402C150.079 24.1326 150.199 23.5656 150.42 23.0394C150.64 22.5133 150.939 22.0537 151.315 21.6609C151.702 21.2684 152.149 20.9686 152.658 20.7617C153.178 20.5444 153.747 20.4463 154.365 20.4671C155.015 20.4891 155.602 20.6477 156.126 20.9429C156.65 21.2274 157.073 21.6632 157.394 22.2504C157.716 22.8376 157.883 23.5903 157.894 24.5086L157.289 23.4636L157.483 17.7228L159.018 17.7747L158.624 29.448L157.409 29.407L157.537 25.6171L157.985 25.6323C157.909 26.6009 157.68 27.383 157.297 27.9784C156.914 28.5632 156.441 28.9848 155.877 29.2432C155.325 29.4914 154.734 29.6048 154.105 29.5836ZM154.358 28.2474C154.881 28.265 155.359 28.1638 155.793 27.9436C156.228 27.7235 156.58 27.3992 156.851 26.9708C157.122 26.5317 157.267 26.0136 157.287 25.4166L157.312 24.681C157.332 24.0947 157.216 23.5945 156.963 23.1804C156.721 22.756 156.385 22.4298 155.955 22.2018C155.536 21.9635 155.071 21.8358 154.559 21.8185C153.994 21.7994 153.489 21.9157 153.043 22.1675C152.607 22.4196 152.259 22.7814 151.997 23.2528C151.747 23.7246 151.61 24.2857 151.588 24.936C151.566 25.5863 151.67 26.1608 151.898 26.6594C152.127 27.1474 152.456 27.5321 152.884 27.8133C153.312 28.084 153.804 28.2286 154.358 28.2474ZM166.73 29.8923L166.882 27.3368L166.626 27.3216L166.802 24.3668C166.837 23.7812 166.709 23.3301 166.418 23.0136C166.137 22.6977 165.704 22.5224 165.119 22.4875C164.789 22.4679 164.448 22.4529 164.096 22.4427C163.744 22.4324 163.408 22.4231 163.088 22.4148C162.767 22.4064 162.49 22.4059 162.254 22.4133L162.334 21.0716C162.569 21.0643 162.815 21.0629 163.071 21.0674C163.339 21.062 163.611 21.0675 163.888 21.0839C164.165 21.0898 164.432 21.1003 164.687 21.1155C165.561 21.1674 166.268 21.3163 166.809 21.5622C167.35 21.7975 167.74 22.1573 167.979 22.6416C168.217 23.126 168.312 23.7674 168.265 24.566L167.944 29.9645L166.73 29.8923ZM163.922 29.9496C163.283 29.9116 162.735 29.7722 162.279 29.5313C161.835 29.2805 161.497 28.9398 161.266 28.5094C161.046 28.0795 160.953 27.5718 160.988 26.9862C161.024 26.3792 161.188 25.8814 161.478 25.4926C161.779 25.1045 162.196 24.8247 162.73 24.6535C163.264 24.4716 163.899 24.4025 164.634 24.4462L166.95 24.5839L166.881 25.7339L164.501 25.5923C163.884 25.5556 163.401 25.6765 163.053 25.955C162.705 26.2335 162.518 26.607 162.49 27.0755C162.462 27.544 162.604 27.9318 162.917 28.2389C163.23 28.5461 163.696 28.718 164.313 28.7547C164.675 28.7763 165.025 28.733 165.363 28.6248C165.701 28.5061 165.986 28.2986 166.217 28.0025C166.46 27.6963 166.608 27.2671 166.662 26.7147L167.042 27.3463C166.952 27.95 166.773 28.4523 166.503 28.853C166.245 29.2436 165.896 29.5328 165.458 29.7204C165.03 29.9087 164.518 29.9851 163.922 29.9496Z" fill="white"/>
</svg>
