<svg width="284" height="108" viewBox="0 0 284 108" fill="none" xmlns="http://www.w3.org/2000/svg">
<path d="M147.786 0.0435342C150.512 0.0359977 150.763 0.582636 152.949 0.638999C155.993 0.716546 159.106 0.65496 162.198 0.563231C163.741 0.517393 165.281 0.464286 166.821 0.417895C166.915 0.414978 167.009 0.411814 167.102 0.408941C166.83 0.403937 168.333 0.41885 168.846 0.42375C169.524 0.430451 170.116 0.436816 170.679 0.443381C172.869 0.469042 174.089 0.488439 175.082 0.504339C177 0.535734 177.884 0.554055 178.639 0.569086C180.078 0.598402 180.697 0.613308 181.226 0.627978C182.943 0.675984 183.285 0.795035 183.714 0.963767C182.872 2.21925 183.759 3.51414 183.86 1.30024C183.928 1.39534 183.981 1.43024 184.03 1.4318C184.054 1.43251 184.075 1.42459 184.097 1.41183C184.09 1.3944 184.189 1.38222 184.964 1.57714C187.334 2.18999 188.221 2.59897 188.685 2.82352C188.764 2.8871 188.936 2.91715 189.67 3.36836C190.207 3.7237 190.587 4.09878 190.944 4.50935C191.655 5.33958 192.165 6.21543 193.057 7.66852C194.883 10.4989 195.942 12.1953 196.56 13.1059C197.349 14.4302 197.391 16.1779 196.752 17.4921C196.839 18.1484 196.886 18.5116 197.024 19.9484C197.247 22.3358 197.312 22.8404 197.398 23.6193C197.555 24.9937 197.654 25.7295 197.743 26.3576C197.767 26.5247 197.79 26.6796 197.812 26.8233C198.432 26.9561 199.064 27.1136 199.656 27.2775C200.937 27.6296 202.015 28.0185 202.649 28.1902C202.8 28.2305 203.075 28.2974 203.429 28.3948C203.72 28.472 204.507 28.7125 204.308 28.6813C204.168 28.7054 204.704 28.8582 205.934 28.9613C206.576 29.0165 207.369 29.0687 208.808 29.1249C209.181 29.1392 209.589 29.1538 210.131 29.1703C210.65 29.1865 211.522 29.2081 211.505 29.2144C211.79 29.2329 212.101 29.2577 212.379 29.2854C213.498 29.3943 214.454 29.5761 214.881 29.6542C215.732 29.8065 216.962 30.0882 218.275 30.3809C218.929 30.5257 219.599 30.6669 220.218 30.7832C220.892 30.9098 220.669 30.8428 220.887 30.861C221.248 30.8681 221.692 30.5724 222.388 30.5755C222.744 30.5788 223.159 30.6563 223.807 30.9206C224.539 31.2034 225.034 31.5689 227.632 32.6136C230.039 33.1082 231.068 33.2356 232.227 33.4509C232.785 33.5518 233.312 33.654 233.873 33.7719C233.667 33.7759 237.83 34.4451 238.971 34.5857C239.953 34.7206 239.913 34.96 240.3 34.9941C241.06 35.0584 241.777 34.9216 242.299 34.9618C243.21 35.0425 243.176 35.6166 243.332 34.8281C243.537 34.7393 244.018 34.7108 244.99 34.8023C245.289 35.0304 245.652 35.2744 246.131 35.5476C247.009 35.5889 247.817 35.6073 250.179 36.0411C248.32 36.1571 253.48 37.599 253.852 37.6512C255.025 37.9101 256.083 37.9584 255.262 37.3088C256.739 37.9601 257.942 38.5978 259.06 39.1083C259.344 39.2383 259.601 39.3549 259.894 39.4782C261.779 40.0925 262.285 40.2289 262.976 40.4367C264.23 40.8065 264.945 41.0063 265.554 41.183C265.267 41.7965 266.631 42.0822 267.2 41.9334C267.832 41.7985 267.899 41.3193 268.009 40.9725C268.521 41.0048 268.981 41.0434 269.409 41.0848C271.252 41.4391 272.608 41.6682 273.946 41.9957C274.273 42.0773 274.631 42.1776 274.958 42.2892C275.284 42.3999 276.269 42.7677 276.756 42.9769C277.856 43.4407 278.585 43.8337 279.148 44.1971C279.822 44.6056 281.755 46.1645 281.916 46.7381C282.248 47.3772 282.209 47.6787 282.217 48.2817C282.653 49.0002 282.804 49.1298 282.995 49.557C283.568 49.9872 283.723 50.3696 283.734 51.2701C283.737 51.5186 283.73 51.8132 283.721 52.3487C283.717 52.6155 283.713 52.9486 283.712 53.3822C283.71 53.7962 283.716 54.4488 283.698 54.392C283.643 54.6877 283.566 54.9838 283.485 55.3067C283.16 56.5816 282.783 58.206 283.395 61.9099C282.869 63.1958 282.74 64.6929 282.743 67.7361C282.605 73.0051 282.224 73.9071 282.211 74.914C282.201 75.1153 282.396 75.1652 282.404 75.4079C282.143 77.2247 281.3 80.3262 281.949 80.3466C281.487 81.6263 280.912 82.8417 280.24 84.148C279.836 85.5099 279.934 85.8056 279.903 86.9897C280.104 87.0107 280.306 87.0316 280.507 87.0524C279.984 88.4075 279.653 88.9048 279.506 89.8943C279.343 90.8507 279.282 92.1473 279.134 93.1885C279.074 93.6173 278.798 93.6065 278.622 95.1564C278.517 96.1561 278.202 97.3343 277.788 98.2467C277.331 99.1841 277.157 99.7461 276.249 100.643C275.884 101.447 275.274 102.144 274.71 102.728C271.719 104.103 270.669 103.693 269.643 104.063C269.542 104.093 268.749 104.494 267.607 104.811C266.505 105.134 264.934 105.356 264.753 105.383C263.366 105.595 262.719 105.917 261.155 106.033C260.427 106.074 259.529 105.964 258.689 105.76C257.903 105.565 257.094 105.368 255.58 105.112C255.056 105.017 254.576 104.876 254.099 104.714C253.833 104.593 253.565 104.472 253.187 104.379C252.85 104.296 252.312 104.203 251.346 104.003C250.89 103.91 250.126 103.73 249.508 103.585C249.235 103.548 248.967 103.536 248.634 103.527C247.335 103.504 245.717 103.619 245.444 103.826C244.943 103.613 243.598 103.251 243.49 103.155C243.128 103.012 242.623 102.883 241.773 102.707C240.927 102.53 239.664 102.293 237.817 101.899C236.668 101.652 236.166 101.471 235.74 101.311C235.503 101.217 235.389 101.067 235.158 100.884C235.042 100.793 234.897 100.693 234.694 100.593C234.514 100.499 234.193 100.382 233.198 100.174C230.104 99.5224 226.855 99.5962 225.831 99.4576C224.665 99.3048 224.453 98.9467 224.074 98.8852C223.69 98.8201 223.565 99.0988 222.647 98.9379C221.378 98.705 220.057 98.2378 218.414 97.726C217.661 97.4832 216.425 97.1585 215.345 96.8749C214.313 96.603 213.581 96.4133 212.973 96.2836C211.173 95.9041 210.74 96.0449 209.659 96.1724C208.334 96.2554 207.327 96.2019 204.737 96.1135C202.719 95.869 201.779 95.6797 200.805 95.6399C197.865 95.5101 197.247 95.6944 195.028 95.0762C193.773 94.7776 192.55 94.5541 191.37 94.3347C190.193 94.1399 189.073 93.8057 187.531 93.67C186.154 93.5508 185.101 93.5803 184.014 93.4475C183.287 93.3521 183.323 93.3224 183.206 93.2987C183.112 93.2742 183.004 93.2484 182.873 93.2226C182.593 93.1704 182.322 93.1178 181.351 93.0494C180.835 93.0141 180.175 92.9771 178.63 92.912C177.308 92.8563 173.282 92.6949 173.465 92.6926C169.34 92.4552 158.358 91.324 161.274 93.1661C159.775 93.4727 148.48 92.7085 146.203 92.6623C144.164 92.6288 142.53 92.9332 140.894 92.9099C136.012 92.8293 131.984 92.5624 126.318 92.8352C124.8 92.9063 123.152 93.2931 122.232 93.2884C121.131 93.2817 119.934 92.9063 118.486 92.8844C115.044 92.8333 108.464 92.9859 104.969 92.9633C104.325 92.9579 104.097 92.6304 103.183 92.5397C102.727 92.4956 102.276 92.4588 101.818 92.4308C101.594 92.4167 101.36 92.4049 101.133 92.3954C101.019 92.3906 100.907 92.3866 100.797 92.383C100.333 92.3857 99.2465 92.4038 98.6517 92.4153C93.8359 92.5181 93.7883 92.5897 93.0022 92.6874C91.8956 92.8778 91.9218 93.1727 92.0651 93.6806C91.2517 93.4989 91.4581 93.4576 90.9413 93.6548C89.9133 93.9617 89.1168 94.3482 88.3539 94.7593C87.9711 94.9651 87.5902 95.1792 87.2018 95.3868C86.6778 95.6528 87.0258 95.5345 85.2612 96.3122C79.2633 98.8075 78.1024 98.0707 77.5039 98.2935C76.4834 98.4381 75.3332 98.7406 71.4525 99.222C69.6944 99.46 65.2567 99.7442 65.0639 99.8299C64.1212 99.9648 62.9017 100.331 61.2779 100.718C60.8863 100.811 60.4548 100.906 60.0688 100.986C58.5022 101.29 57.6878 101.465 57.0336 101.606C55.7462 101.886 55.0319 102.058 54.4099 102.211C53.2103 102.508 52.5973 102.689 52.1317 102.843C51.0591 103.226 50.8792 103.352 49.7613 103.693C48.7388 104.039 47.1064 104.457 41.7085 105.328C40.1995 105.62 40.0721 105.604 38.0551 105.848C35.3458 106.273 33.5873 106.553 32.1015 106.64C30.9335 106.702 29.8555 106.969 28.236 107.72C25.7955 107.842 21.7046 108.421 17.5486 107.436C15.8782 106.963 15.1035 106.433 14.6364 106.096C14.1744 105.745 14.0809 105.535 13.3046 104.959C12.8502 104.998 12.3378 105.01 11.7496 104.965C11.1102 104.619 10.0334 104.295 9.0933 103.087C9.01094 102.639 9.01834 102.227 9.07712 101.861C8.38652 100.278 8.51245 98.7297 8.2478 97.3127C7.96754 95.8598 7.56322 95.2571 7.24319 94.7958C6.96673 94.4128 6.34341 93.6945 5.6414 92.0775C4.83353 89.9595 4.86923 89.5796 4.65607 88.7509C4.38361 87.508 3.91172 85.2841 3.32738 82.6454C3.13063 81.7338 2.84318 80.5513 2.50255 78.8915C2.13061 77.1979 1.91494 75.1173 1.94359 73.5902C1.96257 72.028 2.0581 70.961 2.06137 70.0411C2.0638 69.8189 2.06401 69.611 2.05896 69.3789C2.04201 68.9563 1.97413 67.7801 1.93429 67.0989C1.84615 65.6006 1.76994 64.4701 1.71112 63.615C1.48005 60.3619 1.46691 59.8465 1.46625 59.0865C1.47154 57.7058 1.12385 57.9887 1.78448 56.4322C1.62719 55.8835 1.44064 55.2608 1.25032 54.5432C0.974967 54.1215 0.697185 53.6577 0.428237 53.1332C0.249679 51.7809 0.207074 50.552 0.356258 49.3077C0.514766 48.0416 0.822779 46.5548 1.77105 44.9717C3.04579 42.7677 5.60598 41.5214 7.50046 40.5971C9.0075 39.779 11.7916 38.2994 13.2385 37.7579C13.7742 37.5178 15.2742 36.8489 16.3756 36.5346C17.5231 36.1836 18.6177 35.9195 19.6839 35.7091C21.0408 35.4744 20.7034 35.4595 22.4938 35.1488C22.8571 35.0881 23.6008 35.0195 23.8157 35.0086C23.9634 34.9972 24.1159 34.9857 24.2751 34.9741C24.5931 34.9511 24.9397 34.9274 25.3086 34.9046C26.7885 34.8133 28.6221 34.7315 30.8338 34.7193C31.8083 34.7117 33.9883 34.7883 34.5743 34.8502C35.456 34.8986 36.3385 34.8457 37.1635 34.6993C38.3673 34.4847 39.1487 34.207 40.0558 33.9785C40.7491 33.7673 41.2479 33.5823 42.6102 33.5535C43.7471 33.5253 45.5551 33.5717 47.9377 33.4822C49.3041 33.46 50.9707 33.3877 52.9438 33.2986C54.8662 33.2117 57.3733 33.1196 59.6699 33.1141C61.8252 33.1078 63.3545 33.1301 64.5063 33.0996C65.8529 33.0659 66.3806 32.8093 67.1224 32.7728C67.5168 32.7438 69.8264 32.672 70.7131 32.5465C71.7491 32.4225 72.3766 32.2712 73.003 32.1094C74.2975 31.7712 75.0113 31.4736 77.2288 30.8634C83.5819 30.4719 82.8435 31.5152 84.3891 32.0099C84.9935 32.1592 85.6656 32.6929 86.8688 32.7025C87.8762 31.7472 88.0297 30.7328 88.3484 30.2325C88.3896 30.1801 88.4333 30.1548 88.4789 30.1488C88.4693 30.1461 88.4593 30.1429 88.4496 30.1381C88.0963 29.92 87.6445 27.362 87.2177 27.1938C86.7999 26.9921 84.1337 26.9356 83.9149 25.1512C83.846 24.5326 83.8447 23.8425 83.9332 23.1561C83.9668 22.8758 83.9335 23.2721 84.0447 22.3654C84.1478 21.5225 84.235 20.7714 84.3044 20.1747C84.4434 18.9727 84.5222 18.3578 84.6006 17.8786C84.9127 16.0894 85.1254 16.0019 85.4158 14.9029C85.5577 14.4049 85.72 13.7772 86.025 13.0287C86.2602 12.3732 87.0687 11.0306 87.1512 10.8628C87.8645 9.61929 88.6455 7.77828 89.9608 5.91725C90.5841 5.04669 91.3151 4.27598 92.0699 3.60978C92.4632 3.26615 92.7558 3.00766 93.2622 2.62997C94.1203 2.05199 94.8968 1.70905 95.6334 1.45006C96.8746 1.34512 97.675 1.52436 98.1527 1.6505C98.7122 1.77291 98.3548 1.97836 98.4719 2.14058C98.5162 1.97383 98.8154 2.40536 99.0609 2.37098C99.2629 2.34216 99.3578 2.0646 99.8991 2.03898C100.293 2.02332 100.403 2.0847 102.535 2.1268C103.154 2.13705 103.727 2.14655 105.842 2.14746C106.4 2.14762 107.111 2.14664 108.238 2.14471C108.886 2.14337 109.588 2.142 110.61 2.13989C111.134 2.13879 111.699 2.13793 112.334 2.13679C113.227 2.13491 112.604 2.13742 112.739 2.13782C112.849 2.144 112.961 2.14974 113.075 2.1547C113.533 2.17452 114.036 2.18323 114.537 2.17088C117.891 2.09149 118.51 1.37891 120.55 1.28544C122.674 1.18886 125.999 1.5732 128.752 1.32229C129.096 1.24388 129.441 1.16541 129.788 1.08706C129.54 0.909892 129.292 0.732799 129.045 0.555655C130.433 0.473087 131.029 0.836242 132.311 0.843227C133.815 0.851695 134.587 0.508139 135.606 0.510539C136.44 0.512822 137.573 0.7899 138.659 0.774003C140.242 0.752298 139.898 0.353386 140.752 0.280136C141.088 0.250958 147.417 0.0448707 147.786 0.0435342ZM154.145 5.99474C153.006 6.00252 152.261 6.4231 149.959 6.51995C142.283 6.83743 132.139 6.3768 125.115 6.59468C121.635 6.7015 116.909 7.2467 113.602 7.37509C113.436 7.38149 113.257 7.38665 113.068 7.39093C112.974 7.39307 112.877 7.39511 112.779 7.39679C112.767 7.39699 112.754 7.39693 112.742 7.39713C112.736 7.39723 112.73 7.39738 112.723 7.39747C112.604 7.39791 112.194 7.39932 111.937 7.40023C110.812 7.40419 109.947 7.40777 109.208 7.41125C107.817 7.41789 107.063 7.42293 106.382 7.42744C104.002 7.44403 103.353 7.45296 102.645 7.4605C101.986 7.46795 101.569 7.4731 101.231 7.47738C99.9497 7.49406 99.688 7.49485 99.4335 7.49735C99.0044 7.50224 99.0882 7.50965 99.0784 7.62753C99.0863 7.77017 99.1417 8.22571 99.1432 8.28327C99.143 8.30839 99.1245 8.2543 99.0998 8.19269C99.0762 8.12957 99.0813 8.06326 98.5336 8.09901C96.8577 8.16827 96.8736 8.2213 95.9668 8.76095C95.2775 9.20727 94.8004 9.58417 93.8091 11.2417C93.4631 11.8158 93.0719 12.563 92.5552 13.4372C92.0583 14.2893 91.2206 15.4311 90.994 16.0147C90.4403 17.6093 90.6345 16.407 90.2584 19.5709C90.2095 20.0229 90.1474 20.6073 90.0624 21.357C90.02 21.7305 89.9725 22.1402 89.9192 22.5827C89.8655 23.0299 89.8068 23.491 89.8045 23.4506C89.7559 23.646 89.7128 23.7971 89.6681 24.0398C89.5788 24.5036 89.5055 25.1638 89.4242 26.0477C89.2847 27.6899 88.988 30.062 88.5416 30.1515C88.9038 30.2358 89.366 31.3512 89.7077 30.8121C89.7489 31.26 89.7825 31.63 89.7779 32.0853C89.7718 32.3205 89.7718 32.5551 89.6805 32.9897C89.6256 33.2156 89.5734 33.4883 89.3023 33.9754C89.1333 34.5634 87.3796 35.6389 87.0865 35.5706C86.9202 35.627 86.4877 35.7526 86.0739 35.8599C85.2289 36.0794 84.2144 36.3018 82.9664 36.4444C80.2814 36.6634 77.8935 36.8333 76.4752 36.8305C75.1889 37.0961 74.3526 37.397 72.1076 37.7297C70.9942 37.8871 69.4675 37.9845 67.806 38.0128C67.0753 38.0277 66.3508 38.0379 65.4989 38.0503C63.7997 38.0765 61.8473 38.0991 59.3559 38.1967C56.5233 38.3077 54.5179 38.5056 52.5189 38.6988C51.7808 38.5311 51.073 38.3614 50.3922 38.1853C50.3922 38.1849 50.3922 38.1844 50.3922 38.1839C48.0279 38.1418 45.2235 38.8472 43.7401 39.005C41.6347 39.2289 40.7864 39.2361 38.6096 39.691C37.5636 39.9107 36.1514 40.2494 34.4944 40.3661C32.6287 40.4628 30.6532 40.5734 29.2616 40.6722C26.2346 40.9377 25.0936 40.7479 22.2235 41.3297C19.8339 41.7067 17.3401 42.2394 14.6946 43.3933C13.3057 43.9007 12.5392 44.3003 10.4568 45.4229C8.59357 46.3461 7.61056 46.8248 7.20841 47.2237C6.80696 47.5668 6.34308 48.3124 6.15731 49.3745C5.96856 50.3838 5.98747 51.4445 6.19726 52.9579C6.39198 54.3604 6.66331 55.6295 6.78514 56.924C6.8769 58.1511 6.8353 58.04 6.88433 58.719C6.95706 59.9426 7.1272 61.1076 7.49598 66.3526C7.70463 69.4304 7.74857 70.095 7.73327 71.7659C7.7165 73.3455 7.70076 75.0904 8.19924 77.2752C8.45326 78.4258 8.69388 79.3856 8.89114 80.194C9.08868 80.9997 9.24206 81.6696 9.47111 82.7147C9.87364 84.5659 10.0818 85.7375 10.1248 86.3684C10.1655 87.0096 9.84672 87.2563 9.96463 87.8655C10.2434 89.0417 10.8259 90.8573 11.4418 91.7496C11.9877 92.7135 12.6989 93.6581 13.2068 96.5553C13.3419 98.2656 13.5846 99.1898 13.6621 99.5489C15.0083 100.221 16.3134 100.611 16.979 100.909C17.8819 101.351 18.1839 101.989 21.2457 102.088C23.9141 102.134 26.1392 102.022 27.5048 101.844C28.9082 101.669 29.925 101.474 30.9798 101.304C31.9902 101.16 32.8856 100.919 34.7372 100.444C35.5339 100.234 37.2582 99.8642 37.8399 99.7627C38.1107 99.7029 38.3766 99.6325 38.8352 99.4982C39.3031 99.3658 39.9453 99.1479 41.3948 98.8232C42.1127 98.6637 43.0567 98.4844 44.079 98.3235C44.5812 98.2418 44.8362 98.1821 45.2352 98.0879C46.6688 97.7374 48.6921 97.1041 50.1087 96.9569C50.1069 96.9406 50.7203 96.8074 51.9134 96.5336C52.7902 96.3369 53.6852 96.1226 56.2284 95.5924C56.573 95.5212 56.935 95.4471 57.4382 95.3465C57.8083 95.2711 59.1075 95.0215 59.0128 95.0386C59.3154 94.9781 59.593 94.9182 59.8845 94.852C60.4613 94.7209 61.026 94.5763 61.5924 94.4328C62.7243 94.1422 63.8803 93.8887 65.0002 93.7736C65.3722 93.7276 66.7729 93.6358 67.7695 93.5432C68.8012 93.4511 69.6828 93.358 70.4207 93.2701C75.8577 92.5605 76.0241 92.2565 78.7417 91.9742C79.4372 91.8486 80.5438 91.6771 83.2192 90.4929C84.0833 90.1048 83.9188 90.1706 84.1622 90.0548C84.3479 89.9643 84.5439 89.8668 84.7539 89.7621C85.1731 89.5534 85.6472 89.3142 86.2065 89.0578C86.7646 88.802 87.4084 88.5324 88.1238 88.287C88.8138 88.044 89.786 87.7945 89.654 87.8252C89.8023 87.7805 90.0198 87.7188 90.3324 87.6502C90.6604 87.5803 91.0406 87.5034 91.8647 87.4081C92.2924 87.3602 92.8074 87.3076 93.8098 87.2418C94.8607 87.1781 96.2369 87.0841 100.69 86.9931C103.084 86.9357 105.397 86.8995 107.679 86.8691C116.862 86.7562 125.06 86.7178 133.876 86.7624C138.519 86.7905 142.646 86.8953 146.945 86.9318C151.466 86.9715 155.895 86.9763 160.278 87.0103C163.666 87.0371 167.483 86.9965 171.235 87.0338C172.178 87.0437 173.116 87.059 174.04 87.0854C173.944 87.0798 175.63 87.1423 176.496 87.1719C177.457 87.2052 178.219 87.2306 178.824 87.2511C180.034 87.2918 180.684 87.315 181.196 87.3372C183.064 87.419 183.391 87.4967 183.93 87.6144C184.387 87.7143 184.317 87.916 185.023 88.058C185.794 88.2408 186.403 88.0427 189.912 88.3511C189.96 88.5202 190.004 88.6892 190.045 88.858C191.338 89.0156 192.581 89.07 193.997 89.2131C195.338 89.3192 197.527 89.7873 197.409 89.6898C197.638 89.7066 198.102 89.7314 199.092 89.7535C200.171 89.7933 201.23 89.7317 204.838 90.0245C210.971 90.7616 210.129 90.8738 211.43 91.0333C212.366 91.2114 211.92 91.4336 212.985 91.6349C213.466 91.7282 214.136 91.8398 215.175 92.0275C216.113 92.1957 218.166 92.5847 219.259 92.7945C221.669 93.273 223.148 93.5406 223.946 93.6538C224.626 93.7904 227.546 94.2415 231.095 94.668C231.834 94.7569 232.678 94.8676 233.779 95.05C234.259 95.1264 235.345 95.3354 235.469 95.3568C235.763 95.4126 236.043 95.4716 236.315 95.5325C237.517 95.8048 237.802 95.911 239.262 96.1669C243.271 96.9066 243.955 96.9066 245.026 97.0709C246.462 97.3461 248.621 97.2573 251.18 97.925C254.719 98.9087 254.432 98.8168 256.51 99.1879C257.45 99.3256 259.614 99.8937 260.273 100.235C261.1 100.593 261.576 100.711 261.742 100.701C263.584 100.596 264.007 100.147 264.824 99.9818C267.075 99.4815 266.767 99.3921 270.968 97.7907C272.103 97.3678 272.541 97.2112 272.709 97.1233C272.859 97.0142 272.589 97.4038 272.936 96.8591C273.421 95.9707 273.661 95.8437 273.735 94.1814C273.938 85.2249 276.912 78.6563 277.822 73.0364C277.939 72.5069 278.073 71.915 278.209 70.9114C278.276 70.4038 278.342 69.7865 278.391 68.9618C278.442 68.1696 278.453 66.9292 278.455 66.6075C278.472 64.6596 278.485 62.7548 278.49 60.8705C278.494 58.9893 278.494 57.1212 278.459 55.3381C278.455 55.1168 278.45 54.904 278.444 54.6803C278.437 54.4539 278.378 52.4067 278.374 52.0701C278.363 51.5045 278.354 51.2125 278.348 51.0538C277.554 49.5727 277.41 49.5793 274.334 48.2242C273.95 48.0669 273.013 47.7265 273.02 47.7355C272.894 47.6948 272.685 47.6351 272.452 47.5788C271.982 47.4646 271.387 47.3502 270.7 47.2464C269.389 47.0281 267.149 46.9043 266.984 46.8614C266.403 46.7877 265.582 46.6796 263.887 46.3293C262.702 46.1539 256.891 44.4793 256.5 44.2323C255.172 43.7269 253.97 43.2058 252.825 42.7948C252.244 42.5855 251.709 42.4081 251.124 42.2358C248.828 41.6166 248.482 41.5283 247.761 41.3355C247.134 41.1682 246.671 41.0441 246.283 40.9391C243.944 40.3035 244.748 40.0846 243.658 39.826C242.672 39.5954 242.48 39.8351 242.291 39.814C241.938 39.7791 242.14 39.8311 241.307 39.7961C240.852 39.7747 240.34 39.7794 238.46 39.6091C237.97 39.5628 237.372 39.5014 236.543 39.399C236.123 39.347 235.651 39.2853 235.094 39.2068C234.633 39.1437 233.475 38.9645 233.591 38.9843C233.142 38.9218 232.675 38.857 232.178 38.7853C231.187 38.6421 230.07 38.47 228.849 38.2339C228.239 38.116 227.612 37.9842 226.964 37.8358C226.803 37.8 225.763 37.5542 225.14 37.4028C224.495 37.2466 224.016 37.1278 223.603 37.0244C220.559 36.2551 220.199 36.1203 219.726 35.9392C219.519 35.8648 219.801 35.8288 219.26 35.6271C218.79 35.4397 218.388 35.27 218.024 35.1894C217.658 35.1089 216.764 35.1254 215.779 34.9304C214.693 34.716 213.851 34.5811 213.107 34.5047C212.735 34.4662 212.386 34.4408 212.047 34.4248C211.873 34.4167 211.723 34.4121 211.556 34.4083C211.416 34.4049 211.18 34.4028 210.185 34.3852C207.367 34.3374 206.634 34.3153 205.704 34.2771C204.856 34.2401 204.297 34.198 203.816 34.1376C202.813 34.0239 202.117 33.6837 200.397 33.4585C199.565 33.3369 198.585 33.2202 197.336 33.0769C196.733 33.0019 195.892 32.9344 195.323 32.822C194.631 32.6981 193.786 31.8242 193.628 31.5191C192.868 30.1615 192.843 29.4952 192.472 27.0409C192.387 26.4085 192.299 25.6972 192.178 24.5609C192.117 23.9903 192.05 23.343 191.946 22.2355C191.9 21.7545 191.782 20.4457 191.737 19.9315C191.705 19.5627 191.675 19.2299 191.647 18.9324C191.429 16.5876 191.304 16.4403 191.24 16.2354C191.201 16.144 191.222 16.1903 191.182 16.1218C191.02 15.8687 190.709 15.3501 190.476 14.9412C189.983 14.0829 189.476 13.139 188.819 12.0999C187.888 10.6451 187.183 9.45443 186.821 9.05506C186.714 8.92674 186.629 8.84708 186.581 8.80572C186.537 8.79433 186.368 8.72669 186.123 8.62698C185.429 8.34903 184.858 8.01954 183.378 7.56761C182.3 7.26489 182.693 7.3912 182.589 7.36372C182.558 7.35913 182.531 7.35566 182.507 7.3527C182.406 7.34207 182.358 7.32984 181.918 7.27831C181.685 7.25256 181.373 7.21777 180.615 7.16604C180.226 7.14009 179.737 7.10991 178.853 7.0703C177.862 7.03005 177.091 6.98393 173.108 6.90051C172.048 6.87936 170.68 6.85503 168.669 6.82887C168.188 6.82262 167.623 6.8158 167.069 6.80959C167.016 6.80884 166.995 6.80844 166.958 6.80786C166.89 6.80676 166.821 6.80553 166.752 6.80442C166.475 6.79997 166.194 6.79556 165.909 6.79099C165.342 6.78187 164.808 6.77293 164.24 6.76344C163.157 6.74493 162.052 6.72534 160.969 6.7042C157.214 6.63105 154.666 5.99095 154.145 5.99474ZM190.091 93.5198C190.727 93.5468 191.379 93.5696 192.049 93.599C191.703 93.4103 191.361 93.2234 191.026 93.037C190.704 92.9842 190.386 92.9317 190.074 92.8782C190.079 93.092 190.085 93.3059 190.091 93.5198ZM278.336 50.8316C278.323 50.8082 278.326 50.819 278.337 50.8513C278.336 50.8446 278.336 50.8384 278.336 50.8316ZM197.935 27.5644C198.015 28.0021 198.083 28.2767 198.15 28.4692C198.26 28.7854 198.385 28.8195 198.393 28.5336C198.468 28.4399 198.254 28.007 197.935 27.5644ZM197.08 26.6679C196.913 26.6 196.158 26.5399 196.7 26.6118C196.83 26.6326 196.963 26.6557 197.098 26.6803C197.092 26.6763 197.086 26.6719 197.08 26.6679ZM194.523 10.7695C194.07 10.7101 194.689 11.8877 195.176 12.5207C195.675 13.1715 196.141 13.427 195.973 12.7794C195.93 12.5564 194.798 10.8661 194.523 10.7695Z" fill="#31260C"/>
<path d="M87.9721 24.8199C87.7867 26.4541 88.0714 28.0593 88.0714 31.5684C88.0714 32.143 88.2346 33.692 87.9721 33.73C86.5121 34.0674 84.9391 34.5487 82.7731 34.7721C80.0196 35.143 78.1082 35.5266 76.6315 35.8523L76.4997 35.8814C74.3897 36.3471 73.1791 36.6144 69.633 36.67C67.285 36.7069 63.1563 36.7069 59.6107 36.8968C56.0651 37.0867 53.1898 37.4553 50.3088 37.6396C47.4279 37.824 44.6247 37.779 42.9216 37.8619C40.6272 37.9736 39.1467 38.5355 36.6214 38.607C32.7161 38.7176 29.0709 38.9677 26.8448 39.0907C25.511 39.1644 24.7116 39.4243 23.908 39.5375C22.3072 39.7632 19.8417 40.2802 18.1763 40.9909C16.8649 41.5505 15.1844 42.0489 13.6645 42.9312C10.9086 44.5308 8.91315 44.8695 7.63786 47.0264C6.82016 48.4093 6.64618 50.1783 6.71181 51.498C6.82463 53.7668 7.46723 55.8267 7.60547 57.5681C7.79425 59.9464 8.14496 61.7471 8.57397 68.4484C8.7594 71.345 8.25876 73.0627 9.05877 76.6701C9.42964 78.3423 9.74423 79.4796 10.0641 80.7999C10.6271 83.1234 11.3221 86.1175 11.7018 87.8374C12.0391 89.3656 12.7034 90.3951 13.1551 91.2601C13.603 92.118 14.0603 93.2789 14.271 94.8761C14.4967 96.5863 14.2731 98.4143 15.3166 99.0048C16.4359 99.6381 17.496 100.029 18.4075 100.419C19.7156 100.979 21.0175 101.871 24.1616 101.87C29.7648 101.868 31.0852 101.453 34.4598 100.937C36.1768 100.675 38.0663 100.042 40.7154 99.5968C42.276 99.3343 43.1347 98.8493 46.9364 98.2932C48.9829 97.9938 50.7245 97.3055 52.6659 97.1024C53.3707 97.0287 56.7543 96.2153 61.4661 95.3497C64.0991 94.866 65.4032 94.3159 67.6882 94.16C73.7148 93.7489 75.7574 93.3074 78.4735 92.8564C80.2564 92.5604 81.6327 92.8905 86.407 90.7686C88.0759 90.0269 89.3659 89.2567 91.6617 88.6841C92.5665 88.4585 93.8936 88.1636 101.887 88.0161C109.881 87.8687 124.11 87.8687 131.491 87.9067C138.871 87.9446 139.387 88.0184 146.482 88.0932C153.576 88.1681 166.851 88.1053 173.635 88.3546C180.717 88.6149 181.791 88.5922 183.181 88.8383C184.443 89.0617 186.516 88.8529 188.767 89.2851C190.699 89.656 193.225 89.9918 195.468 90.5519C196.657 90.849 200.001 90.6475 204.154 91.0724C206.338 91.2959 207.675 91.6879 208.983 91.8164C210.507 91.9661 212.732 92.4739 215.948 93.158C218.411 93.6819 220.457 94.2775 222.127 94.4974C223.84 94.723 227.908 94.8063 232.892 95.8021C234.189 96.0613 235.065 96.3764 236.282 96.622C239.403 97.2521 241.051 97.4987 242.382 97.7749C244.171 98.1457 246.46 98.1851 248.116 98.6685C249.908 99.1913 251.379 99.5316 252.284 99.7108C253.407 99.9331 254.924 100.065 256.232 100.418C257.2 100.679 258.229 101.066 259.476 101.013C262.2 100.898 264.313 100.558 265.84 99.9308C267.107 99.4103 268.085 98.9705 269.973 98.2552L270.047 98.2272C271.098 97.8294 272.071 97.4608 272.614 96.5785C273.21 95.6077 273.815 94.4389 273.915 92.9603C274.104 90.1654 274.186 87.898 274.623 86.1506C274.922 84.9598 274.828 83.9979 275.331 82.7246C275.891 81.3092 276.398 79.8062 276.671 78.4808C276.932 77.2118 277.221 75.6974 277.602 74.0483C277.973 72.4442 278.559 70.6748 278.607 66.6209C278.644 63.4719 278.71 57.5722 278.606 54.5107C278.494 51.2265 278.572 50.7222 278.344 50.3318C277.821 49.437 277.303 48.2727 275.846 47.4654C274.841 46.908 273.576 46.2695 271.414 45.5295C269.997 45.0447 267.319 44.6865 265.085 44.5632C264.417 44.5264 261.087 44.1079 256.694 42.7715C254.135 41.9929 252.437 41.1187 249.603 40.3843C244.577 39.0818 241.096 38.3342 240.66 38.2328C239.537 37.9714 237.845 38.1178 232.267 37.2632C230.08 36.9281 228.183 36.6664 225.556 36.0679C221.8 35.2122 219.442 34.5871 218.495 34.3957C214.81 33.6506 212.905 33.0377 209.954 32.9826L209.738 32.9785C205.907 32.907 203.176 32.856 202.416 32.6463C200.663 32.1626 197.841 31.9472 195.081 31.6421C194.414 31.5684 193.936 27.4678 193.424 21.8094C193.162 18.9206 193.035 17.7938 192.491 16.949C191.746 15.7928 191.055 14.4206 190.069 12.9253C188.913 11.1726 188.008 9.42026 186.793 8.98316C185.861 8.64803 184.687 7.98696 182.613 7.49187L182.59 7.48647C181.8 7.2975 180.583 7.00678 166.756 6.86072C152.796 6.71327 126.77 6.71327 113.606 6.75125C100.441 6.78923 100.147 6.86951 99.8465 6.89982C98.7295 7.01264 97.3726 6.94356 95.8988 7.83257C94.784 8.50505 93.879 9.23857 93.0704 10.3683C91.9511 11.9322 91.2705 13.5432 90.3894 14.7986C89.4221 16.1771 88.946 17.2083 88.6792 18.3733C88.3809 19.6758 88.4517 20.5928 87.9721 24.8199Z" fill="#395F24"/>
<path d="M147.995 4.16017C150.64 4.15744 150.881 4.52245 153.003 4.56243C155.955 4.61759 158.972 4.5808 161.969 4.52592C163.466 4.49851 164.954 4.46667 166.449 4.44017C179.975 4.55838 178.999 4.65095 180.441 4.67918C182.1 4.74315 182.362 4.83772 182.739 4.96296C182.062 5.78088 182.91 6.68954 182.879 5.19509C182.941 5.2617 182.992 5.2885 183.037 5.29221C183.06 5.2942 183.08 5.28983 183.1 5.28257C183.216 5.29985 182.719 5.15735 183.589 5.36074C185.938 5.9379 186.767 6.35383 187.338 6.60265C187.416 6.65467 188.599 7.17337 189.171 7.83559C189.818 8.50791 190.312 9.25744 191.171 10.6108C192.957 13.2965 193.999 15.0367 194.584 15.8804C195.243 16.9382 195.344 18.4913 194.96 19.7835C195.059 20.4185 195.464 24.8127 195.58 25.6744C195.728 26.9447 195.823 27.6267 195.91 28.2192C195.976 28.6593 196.034 29.0104 196.087 29.294C197.802 29.5468 200.696 30.2751 201.584 30.5332C201.722 30.5676 201.974 30.6257 202.296 30.7116C202.652 30.804 202.98 30.9145 202.937 30.9151C203.029 30.9674 203.571 31.0785 204.886 31.1645C205.572 31.2093 206.379 31.2508 207.977 31.2995C210.327 31.361 210.575 31.3803 211.143 31.4327C212.2 31.5311 213.106 31.6981 213.514 31.7716C214.325 31.9148 215.514 32.1801 216.8 32.4587C217.442 32.5971 218.094 32.7314 218.706 32.8458C219.022 32.8997 219.049 32.893 219.209 32.9081C219.554 32.9355 219.964 32.7641 220.648 32.8162C220.999 32.8445 221.41 32.9272 222.081 33.1575C222.789 33.3952 223.552 33.7416 225.976 34.5805C228.08 35.0072 229.265 35.1733 230.361 35.3627C230.906 35.455 231.418 35.5456 231.962 35.6482C231.71 35.6377 235.998 36.285 237.014 36.3907C237.959 36.506 237.924 36.6637 238.295 36.6952C239.025 36.7545 239.713 36.676 240.186 36.7165C241 36.7938 240.991 37.1894 241.088 36.6604C241.286 36.6141 241.735 36.6211 242.659 36.7403C242.957 36.9131 243.316 37.1007 243.785 37.3151C244.609 37.3943 245.4 37.4607 247.567 37.8833C246.929 37.9231 247.109 38.0835 248.534 38.5036C248.728 38.5603 248.939 38.6205 249.285 38.715C249.58 38.7962 250.106 38.9372 250.059 38.9293C250.174 38.9674 250.299 39.0055 250.432 39.0436C250.698 39.1201 250.984 39.1939 251.261 39.2592C252.369 39.5219 253.347 39.6468 252.528 39.1266C253.946 39.6952 255.15 40.274 256.283 40.738C256.569 40.8557 256.839 40.9641 257.125 41.0728C258.241 41.4375 259.502 41.787 260.091 41.949C261.402 42.3069 262.125 42.4848 262.751 42.6422C262.509 43.043 263.884 43.3135 264.47 43.2384C265.126 43.1772 265.186 42.8557 265.187 42.6205C265.512 42.6384 266.088 42.6794 266.479 42.7149C268.269 42.9919 269.577 43.1995 270.824 43.4829C271.618 43.5906 274.869 44.8588 275.75 45.4377C276.414 45.8298 276.122 45.6784 277.062 46.2887C277.793 46.8185 278.061 47.19 278.261 47.471C278.628 48.0275 278.644 48.285 278.747 48.8225C279.178 49.5076 279.358 49.7412 279.501 50.0399C279.915 50.3745 280.034 50.695 280.048 51.4767C280.057 51.8697 280.034 52.6478 280.052 54.4847C280.018 54.7649 279.969 55.0534 279.918 55.3619C279.709 56.5917 279.465 58.1644 279.865 61.7536C279.689 62.3267 279.576 63.1087 279.508 64.027C279.473 64.4843 279.45 64.9775 279.435 65.4934C279.416 66.0765 279.435 66.2306 279.396 67.7127C279.185 72.3626 278.787 73.1025 278.734 74.0145C278.7 74.267 278.913 73.9308 278.774 74.7298C278.451 76.6028 277.753 79.3523 278.139 79.4787C277.715 80.668 277.177 81.8646 276.533 83.1614C276.252 84.0416 276.333 84.8718 276.203 86.0079C276.337 86.0276 276.471 86.0472 276.605 86.0664C276.106 87.2447 275.979 87.4695 275.821 88.6687C275.68 89.7449 275.614 91.1809 275.484 92.3424C275.414 92.7778 275.319 93.0111 274.982 94.3165C274.492 95.8395 273.86 97.7673 272.058 98.6621C271.567 99.1698 271.03 99.5805 270.511 99.999C267.411 101.319 267.14 100.915 266.111 101.271C266.012 101.305 265.188 101.634 263.99 101.885C262.831 102.143 261.105 102.304 260.902 102.322C259.339 102.483 258.612 102.628 257.557 102.521C256.436 102.407 255.503 102.073 252.562 101.636C251.369 101.412 251.369 101.227 250.385 100.992C248.136 100.29 243.315 99.9642 242.59 100.203C241.791 99.9602 241.723 99.8567 241.258 99.7263C240.817 99.597 240.216 99.4692 239.156 99.2637C238.624 99.1605 237.966 99.0347 237.135 98.8701C236.743 98.7924 236.167 98.6767 235.832 98.607C235.622 98.5626 235.401 98.5115 235.203 98.4627C234.401 98.2624 233.787 98.0718 233.414 97.9495C232.919 97.8043 233.219 97.5143 230.061 96.9466C227.653 96.5217 224.669 96.5124 223.78 96.4073C222.745 96.2869 222.563 96.0413 222.225 95.9889C221.996 95.9489 221.466 96.0681 220.676 95.911C219.432 95.6637 218.067 95.2259 216.304 94.7532C214.113 94.203 212.117 93.6982 211.177 93.5137C208.154 93.006 208.877 93.4482 202.334 93.0236C200.852 92.8878 199.971 92.7515 199.139 92.725C197.88 92.6879 197.028 92.6686 196.315 92.6141C195.57 92.5645 195.246 92.4637 193.796 92.1406C191.18 91.6451 189.669 91.1889 186.345 90.8845C185.023 90.8043 184.066 90.8303 183.076 90.6806C182.456 90.5677 182.561 90.5695 182.204 90.514C181.878 90.4666 181.572 90.421 180.434 90.3576C179.827 90.3245 179.033 90.2893 177.144 90.2178C176.235 90.1831 174.805 90.1298 173.551 90.08C173.283 90.0667 172.994 90.0536 172.727 90.0418C168.688 89.8471 158.034 89.0828 160.866 90.3142C159.412 90.5153 148.433 89.9988 146.253 89.9578C144.275 89.9292 142.696 90.1253 141.111 90.1021C136.376 90.0224 132.451 89.836 126.957 90.0142C125.485 90.0607 123.885 90.3182 122.994 90.3149C121.926 90.3103 120.764 90.06 119.359 90.0459C116.02 90.0125 109.642 90.1217 106.246 90.1172C105.629 90.1154 105.408 89.8976 104.515 89.8403C103.558 89.7861 103.103 89.7425 101.621 89.7456C98.3156 89.7992 97.1525 89.8519 96.2262 89.8958C95.3563 89.9397 94.8963 89.9798 94.5376 90.0218C93.2507 90.1856 93.2564 90.3938 93.3876 90.7268C92.4853 90.6423 92.4438 90.6736 92.2074 90.7716C90.4131 91.2349 88.8815 92.1842 87.2353 92.9272C81.122 95.578 79.9109 94.873 79.1202 95.1C78.2424 95.2135 77.0485 95.5 73.7084 95.9251C72.8354 96.0323 71.7471 96.1492 70.4159 96.2644C69.7524 96.3219 69.0278 96.3792 68.2689 96.4338C67.3305 96.4992 67.5618 96.4867 67.2178 96.5234C66.2076 96.6363 65.1163 96.9309 63.6488 97.2859C63.2881 97.372 62.9187 97.4564 62.5412 97.5366C62.3497 97.5773 62.1607 97.6159 61.9785 97.652C62.0039 97.6485 61.3728 97.7656 61.07 97.8242C60.7517 97.8853 60.4863 97.9373 60.2379 97.9864C58.4337 98.3456 57.6962 98.5134 56.9641 98.6769C55.5986 98.9861 54.9324 99.1601 54.4234 99.303C53.1643 99.6598 53.4753 99.7005 52.2375 99.9618C51.7082 100.089 51.0958 100.258 50.0954 100.506C49.5934 100.628 48.9885 100.772 48.2222 100.904C47.6667 101.007 45.6543 101.251 44.5757 101.469C42.7024 101.833 42.1666 101.963 41.1755 102.056C38.373 102.453 36.5859 102.848 35.1171 103.008C33.8128 103.131 32.9207 103.326 31.5454 103.885C30.5188 103.99 29.1959 104.111 27.6155 104.158C26.0308 104.18 24.3841 104.312 22.1647 104.033C18.3753 103.33 18.2815 102.537 17.4182 101.954C17.0635 101.962 16.6677 101.957 16.2172 101.92C15.6629 101.686 15.0171 101.402 14.2552 100.979C14.1298 100.759 13.8733 100.415 13.7486 100.088C12.5782 98.8078 12.6411 97.4999 12.4685 95.9524C12.3353 94.401 11.8756 93.2827 11.5548 92.7278C11.2428 92.1649 10.8771 91.7964 10.2509 90.5849C9.95743 90.0103 9.62562 89.192 9.42192 88.3177C9.33075 87.9744 9.24153 87.6159 9.16086 87.2573C8.88407 86.0332 8.49658 84.2619 7.81357 81.3288C7.61789 80.4611 7.3435 79.3966 7.00286 77.8628C6.64001 76.3363 6.36732 74.3567 6.37674 72.8949C6.37287 71.3936 6.46689 70.3103 6.46078 69.3813C6.46075 69.1473 6.45809 68.9372 6.45079 68.7104C6.45561 68.6739 6.3668 67.2395 6.32715 66.6217C6.2323 65.1439 6.14879 64.033 6.08332 63.1949C5.82616 60.0166 5.7929 59.5584 5.7706 58.8317C5.73456 57.5552 5.51744 57.6811 5.85601 56.1482C5.71149 55.5871 5.5408 54.9607 5.37351 54.2467C5.16463 53.8173 4.95655 53.3496 4.76186 52.8257C4.60307 51.4093 4.60664 50.5725 4.78218 49.3453C4.87416 48.7494 5.0169 48.1193 5.26055 47.4483C5.48541 46.7969 5.95218 45.9593 6.21729 45.6109C7.49603 43.7336 9.73975 42.8753 11.6612 41.9052C13.2461 40.9764 15.7369 39.8986 17.0731 39.3753C18.8444 38.5442 21.3378 37.9259 23.265 37.5964C24.1634 37.4758 24.3527 37.2934 26.2179 37.0785C27.6361 36.9682 27.6601 36.9743 28.5247 36.92C30.017 36.8313 31.8437 36.7439 34.0712 36.7089C36.7648 36.6826 38.5825 36.8269 40.2001 36.5112C41.3497 36.3161 42.1745 36.1194 42.8857 35.9726C43.4097 35.8337 43.9971 35.7035 45.332 35.6792C46.3997 35.6577 48.543 35.6654 50.5396 35.57C51.8988 35.5243 53.5381 35.4262 55.4601 35.3179C57.3196 35.2115 59.8123 35.1047 61.964 35.0872C64.0119 35.0672 65.4876 35.0778 66.5941 35.0538C67.8892 35.0272 68.3993 34.8549 69.1151 34.8278C69.4016 34.8141 70.085 34.7994 70.8423 34.7638C71.5673 34.7296 72.1935 34.6813 72.7124 34.6233C73.7495 34.5064 74.3988 34.3615 75.0216 34.2141C76.3071 33.9055 76.9828 33.6566 79.1161 33.1406C85.1057 32.618 84.5552 33.3428 85.9645 33.587C86.4964 33.6734 87.2952 33.8694 88.169 33.9679C89.0775 33.135 89.0122 32.1583 89.2459 31.6597C89.2765 31.5999 89.3097 31.5735 89.3447 31.5722C89.3343 31.5702 89.3237 31.5656 89.3131 31.5581C89.081 31.3473 88.7605 28.8883 88.4707 28.7251C88.1903 28.5317 86.405 28.4265 86.2403 26.7458C86.1896 26.1644 86.1903 25.5335 86.2686 24.9109C86.2575 25.0594 86.5383 22.7292 86.6357 21.8082C86.7496 20.7713 86.8125 20.2452 86.8764 19.8275C87.1236 18.3159 87.3333 17.9699 87.6475 16.9883C87.8075 16.5167 88.014 15.9243 88.368 15.2188C88.7246 14.4959 89.2401 13.731 89.4147 13.4028C90.1861 12.0676 91.1452 10.022 92.383 8.57192C93.0005 7.84325 93.6965 7.23255 94.3998 6.70218C94.8562 6.27249 96.738 5.28496 97.7829 5.0928C98.7064 5.0739 99.3794 5.18209 99.6822 5.26018C99.706 5.37343 99.7336 5.4864 99.7728 5.59804C99.8309 5.4838 100.091 5.76833 100.368 5.74199C100.591 5.72036 100.7 5.53326 101.338 5.51159C101.889 5.49788 101.615 5.53771 105.053 5.55154C105.57 5.55293 106.172 5.55372 107.395 5.55189C108.058 5.55075 108.802 5.54935 110.208 5.54603C110.981 5.54412 111.851 5.54226 113.056 5.53983C113.836 5.53812 113.568 5.53939 113.629 5.53983C113.641 5.54042 113.654 5.54098 113.667 5.54155C113.874 5.55084 114.091 5.55922 114.316 5.56566C114.773 5.57853 115.239 5.58387 115.738 5.5753C119.001 5.52041 119.602 5.0456 121.576 4.9826C123.634 4.91752 126.862 5.17294 129.533 5.00567C129.867 4.9534 130.202 4.90119 130.539 4.84897C130.298 4.73084 130.057 4.61268 129.817 4.49458C131.167 4.43955 131.744 4.68159 132.985 4.68641C134.446 4.69227 135.193 4.46347 136.183 4.46531C136.99 4.46704 138.09 4.65217 139.143 4.64198C140.679 4.62814 140.345 4.36189 141.173 4.31343C141.498 4.29397 147.635 4.16053 147.995 4.16017ZM154.169 8.13419C153.065 8.13801 152.343 8.41726 150.109 8.47962C142.659 8.6838 132.825 8.3745 126.001 8.52095C122.638 8.59258 118.023 8.95765 114.831 9.04546C114.502 9.05424 114.124 9.06003 113.722 9.06372C104.283 9.0963 104.108 9.11947 102.977 9.12812C101.245 9.14822 101.016 9.15262 100.69 9.15774C100.164 9.16747 100.217 9.17552 100.189 9.2552C100.178 9.35157 100.205 9.65622 100.201 9.695C100.178 9.73088 100.234 9.54239 100.048 9.55104C98.3511 9.65575 97.8027 9.62818 96.7889 10.285C95.9174 10.8407 95.4143 11.1378 94.3588 12.8159C93.6992 13.9468 92.5198 15.7752 91.4624 17.5855C90.7074 19.4236 90.9511 18.5332 90.6238 21.1993C90.5468 21.9313 90.4112 23.2881 90.1882 25.0724C90.1436 25.2965 90.1103 25.4596 90.0766 25.7078C90.0098 26.1837 89.9681 26.8193 89.9268 27.6585C89.8603 29.2577 89.6615 31.6212 89.3475 31.5722C89.5932 31.5722 89.9332 32.7811 90.162 32.2441C90.1956 32.6697 90.2208 33.0079 90.2102 33.4034C90.2008 33.6075 90.2 33.8036 90.1048 34.1717C90.0316 34.3785 90.0637 34.5217 89.6347 35.0785C89.1732 35.7143 88.1487 35.8605 88.3308 35.8307C88.1041 35.8956 87.6734 36.0121 87.2718 36.1128C86.4502 36.3183 85.4957 36.5276 84.331 36.6704C81.8205 36.8953 79.3837 37.1439 78.0275 37.2231C76.7569 37.4768 75.9387 37.7529 73.8695 38.0531C72.8407 38.1961 71.4162 38.2896 69.8215 38.3176C68.9485 38.334 68.3771 38.3402 67.5316 38.3514C65.8929 38.374 64.0042 38.3934 61.6014 38.4798C58.9221 38.5742 56.8074 38.7629 54.877 38.9427C54.1631 38.8496 53.4791 38.7551 52.823 38.6548L52.8227 38.6537C50.4843 38.6924 47.9714 39.193 46.4296 39.3074C44.3246 39.4763 43.4691 39.4429 41.2994 39.8219C40.2816 40.0052 38.9969 40.3078 37.5018 40.4333C36.8226 40.4958 35.6809 40.5204 34.7969 40.5689C33.896 40.6138 33.0998 40.6596 32.3713 40.7036C30.9122 40.7921 29.71 40.8745 28.6776 40.9426C28.1621 40.9767 27.6939 41.0071 27.2673 41.0332C27.0272 41.0358 25.7924 41.1589 25.3025 41.2781C23.1639 41.657 20.2343 42.1196 17.8483 43.206C16.5106 43.7089 15.6224 43.9856 13.7651 45.0516C11.9507 45.9796 10.6249 46.526 10.0391 47.0323C9.45285 47.5002 8.94615 48.1897 8.68043 49.3525C8.43691 50.4758 8.42741 51.3839 8.63634 52.9601C8.83118 54.3727 9.11681 55.6082 9.25282 56.7977C9.33294 57.5168 9.31629 57.6251 9.33444 57.8715C9.34816 58.1046 9.36507 58.3513 9.38713 58.6285C9.47177 59.8112 9.64928 60.8726 10.026 66.0073C10.243 69.0888 10.2566 69.4082 10.2368 71.0837C10.2087 72.6023 10.2139 74.4171 10.7651 76.6419C11.7176 80.4914 12.6136 84.2382 12.7285 85.3466C12.7968 85.9426 12.596 86.1541 12.713 86.7201C12.8586 87.2625 13.0438 88.1665 13.3735 88.8622C13.6822 89.5421 13.9976 90.0294 14.27 90.5043C14.7448 91.3408 15.5654 92.8397 15.7985 95.6379C15.8871 96.8204 15.9785 97.4627 16.0884 97.674C16.2422 97.8845 15.8686 97.553 16.8509 98.0521C18.3317 98.7041 19.3038 99.0106 20.0886 99.3595C20.5206 99.5796 20.9847 99.8205 21.7972 100.03C22.5279 100.255 24.229 100.323 25.401 100.309C27.9225 100.309 29.7863 100.149 31.0202 99.9729C33.6538 99.5676 34.4039 99.5244 38.3187 98.5443C40.9725 97.9646 40.8047 98.0705 41.991 97.7284C42.7573 97.4121 47.5426 96.6646 48.3834 96.3956C49.1499 96.2044 49.9323 95.9814 50.7497 95.7967C51.5002 95.6115 52.7435 95.4656 52.5675 95.4764C52.7787 95.4316 53.4381 95.2871 54.7771 94.9956C55.8418 94.7707 56.3989 94.6215 60.115 93.9015C61.771 93.5894 61.4143 93.6572 61.8156 93.5753C62.105 93.515 62.391 93.4516 62.6728 93.3862C63.2374 93.2555 63.7868 93.1163 64.33 92.9881C65.4158 92.7279 66.4749 92.5435 67.492 92.4677C69.5943 92.3221 71.6718 92.1262 72.9324 91.969C77.8461 91.3087 77.8204 91.1289 80.8044 90.7843C81.5295 90.6755 83.4609 90.1481 85.7647 89.0933C86.4722 88.7745 87.2807 88.3477 88.3935 87.8724C89.3349 87.4282 91.6797 86.7961 91.335 86.8902C91.4874 86.8485 91.6858 86.7966 91.989 86.7363C92.3042 86.6756 92.6669 86.6076 93.5343 86.5189C93.9889 86.4742 94.5378 86.4238 95.6951 86.3591C96.2875 86.3268 97.0431 86.2896 98.3146 86.2472C99.2706 86.2113 101.859 86.158 102.133 86.1522C104.458 86.1031 106.682 86.0728 108.895 86.0478C117.784 85.9555 125.732 85.9289 134.278 85.9758C138.766 86.0044 142.792 86.1046 146.945 86.1394C151.349 86.1778 155.638 86.1807 159.889 86.2093C163.175 86.2316 166.87 86.2104 170.506 86.2541C171.411 86.2653 172.325 86.2814 173.212 86.3061C173.569 86.3171 173.072 86.2981 174.533 86.3502C175.614 86.3882 176.534 86.4191 177.266 86.4435C178.735 86.4924 179.517 86.5189 180.109 86.542C182.234 86.626 182.431 86.6856 182.965 86.7796C183.837 86.9718 182.959 87.2089 188.13 87.3083C188.176 87.4203 188.227 87.533 188.274 87.6458C189.053 87.7423 189.324 87.7964 189.624 87.8273C189.927 87.8628 190.231 87.8953 190.538 87.9268C191.152 87.9901 191.773 88.0496 192.436 88.1256C193.1 88.202 193.805 88.2928 194.617 88.4348C195.019 88.5053 195.473 88.5946 195.931 88.6997C196.004 88.7071 196.025 88.7032 196.137 88.7155C196.656 88.7886 197.287 88.7123 202.265 88.9621C202.828 88.9935 204.302 89.1222 204.674 89.1691C205.233 89.2325 205.704 89.3009 206.122 89.3681C206.954 89.5032 207.535 89.6217 207.977 89.7026C208.863 89.8701 209.18 89.8857 209.601 89.9509C210.418 90.0824 210.043 90.2235 210.965 90.3821C211.809 90.5292 213.222 90.7545 216.682 91.4277C219.25 91.9309 220.809 92.2756 221.779 92.4374C222.79 92.6082 222.923 92.6474 224.123 92.8001C225.202 92.9359 226.811 93.1158 228.18 93.2598C229.37 93.3857 231.029 93.5706 233.369 94.0196C234.46 94.2221 235.413 94.4967 236.206 94.654C236.424 94.6986 237.619 94.9212 238.389 95.0562C239.182 95.1956 239.775 95.2913 240.263 95.3676C241.232 95.5183 241.823 95.5997 242.333 95.6768C243.084 95.8526 245.674 96.0053 247.697 96.3601C248.663 96.5294 250.548 97.1187 251.273 97.2693C252.177 97.4797 252.37 97.5382 253.222 97.6929C254.104 97.8542 255.426 98.0589 256.79 98.4947C257.703 98.8253 258.336 99.059 258.602 99.0878C259.442 99.2136 260.589 98.8038 261.502 98.691C262.773 98.5151 263.76 98.2952 264.473 98.069C265.053 97.8942 265.93 97.5029 267.507 96.8957C268.277 96.594 269.463 96.175 269.978 95.9775C270.57 95.7482 270.75 95.5952 270.815 95.5329C271.135 95.0941 271.735 94.0452 271.848 93.213C272.043 91.112 272.134 88.6344 272.372 87.1647C272.479 86.3681 272.684 85.7138 272.782 85.0621C272.885 84.3894 272.999 83.0315 273.498 81.8644C274.222 80.0195 274.606 78.6029 274.876 77.1172C275.035 76.3241 275.216 75.4045 275.462 74.2838C275.608 73.6245 275.655 73.4274 275.704 73.2196C275.755 73.0055 275.809 72.7847 275.867 72.5391C276.073 71.5972 276.531 70.1031 276.557 66.3251C276.575 64.4352 276.591 62.582 276.597 60.751C276.602 58.9226 276.602 57.1071 276.567 55.364C276.562 55.1486 276.557 54.9379 276.55 54.7186C276.547 54.6154 276.554 54.8204 276.54 54.411C276.527 54.0067 276.517 53.645 276.509 53.3516C276.493 52.7582 276.486 52.4071 276.48 52.1425C276.466 51.4804 276.454 51.2512 276.447 51.1468C276.443 51.1389 276.438 51.1308 276.433 51.1223C275.688 48.2016 268.365 46.6421 264.454 46.5387C263.902 46.4708 263.102 46.3703 261.44 46.0363C260.531 45.8433 259.769 45.713 257.318 45.0337C257.004 44.9457 256.426 44.7759 256.097 44.6745C256.017 44.6495 255.937 44.6242 255.857 44.5984C255.694 44.5462 255.527 44.4914 255.365 44.4369C255.042 44.3277 254.722 44.2145 254.407 44.099C253.14 43.6351 251.955 43.1448 250.798 42.7535C250.094 42.5238 250.18 42.5178 248.713 42.1291C246.78 41.6282 246.38 41.5298 245.718 41.3607C245.129 41.2108 244.688 41.0988 244.314 41.0032C242.065 40.4285 242.805 40.3278 241.753 40.0861C240.799 39.8699 240.631 40.0222 240.452 39.9969C240.153 39.962 240.207 39.9704 239.385 39.9266C238.936 39.9 238.443 39.8976 236.691 39.7414C235.822 39.6606 234.307 39.5042 231.949 39.1483C231.513 39.087 231.06 39.0239 230.583 38.9554C229.629 38.8185 228.567 38.6581 227.407 38.4416C226.827 38.3335 226.23 38.2128 225.616 38.0779C225.463 38.0443 225.311 38.0101 225.159 37.9756C224.864 37.9084 224.319 37.7832 224.005 37.7098C223.326 37.5514 222.835 37.4342 222.413 37.3326C219.316 36.5802 218.965 36.4612 218.457 36.2988C218.285 36.2418 218.267 36.1737 218.111 36.0835C217.653 35.9321 217.257 35.7944 216.902 35.7188C216.545 35.6431 215.692 35.6017 214.711 35.4047C212.481 34.9636 211.511 34.8416 209.679 34.8199C206.246 34.7613 205.75 34.7452 204.751 34.709C203.888 34.6752 203.335 34.6378 202.882 34.5885C202.047 34.5222 201.331 34.1958 199.686 33.9803C198.89 33.8655 197.963 33.7575 196.799 33.6304C195.621 33.4518 194.157 33.5938 193.517 32.635C192.777 31.529 192.761 30.9402 192.398 28.6913C192.235 27.5156 192.047 26.1436 191.589 21.0619C191.365 18.6687 191.234 18.4493 191.136 18.1582C191.084 18.1811 186.262 9.39611 185.609 10.4637C184.952 10.2064 184.357 9.86362 182.698 9.39709C182.163 9.25521 182.171 9.26611 182.158 9.26278C182.143 9.26009 182.127 9.25774 182.112 9.2552C182.081 9.24972 182.053 9.24512 182.024 9.24039C181.903 9.22233 181.812 9.20015 181.337 9.14637C184.394 9.08124 161.091 8.5882 160.791 8.61738C157.148 8.56161 154.677 8.13238 154.169 8.13419ZM188.986 90.8628C189.587 90.9127 190.205 90.9571 190.844 91.0061C190.504 90.8636 190.171 90.7226 189.845 90.5815C189.537 90.531 189.236 90.4808 188.938 90.4286C188.954 90.5732 188.97 90.718 188.986 90.8628ZM196.218 29.906C196.251 30.0333 196.281 30.1371 196.311 30.2249C196.415 30.5362 196.528 30.59 196.505 30.3744C196.529 30.289 196.399 30.1047 196.218 29.906ZM192.721 13.5244C192.377 13.4171 193.002 14.5443 193.464 15.1882C193.937 15.8478 194.347 16.159 194.108 15.5377C194.026 15.3128 192.938 13.6389 192.721 13.5244Z" fill="white"/>
<path d="M214.033 75.0528C212.893 74.9336 211.923 74.7323 211.123 74.4488C210.323 74.1654 209.615 73.738 208.998 73.1665C207.72 72.0187 207.224 70.0769 207.51 67.341C207.764 64.9091 208.653 63.2427 210.176 62.3418C211.6 61.5073 213.361 61.1997 215.459 61.4191C216.355 61.5128 217.118 61.6387 217.747 61.7966C218.377 61.9394 219.005 62.1817 219.63 62.5237C220.27 62.8672 220.763 63.2952 221.109 63.8077C221.47 64.3218 221.736 65.0103 221.907 65.8733C222.08 66.7211 222.107 67.7149 221.987 68.8549C221.746 71.1652 220.91 72.8371 219.481 73.8708C218.053 74.8892 216.237 75.2832 214.033 75.0528ZM213.7 70.5236C213.749 71.0819 213.821 71.4198 213.917 71.5373C214.027 71.6564 214.174 71.7255 214.356 71.7446C214.553 71.7652 214.711 71.7279 214.829 71.6326C214.961 71.539 215.102 71.2233 215.25 70.6857C215.414 70.1496 215.539 69.4712 215.624 68.6505C215.712 67.8145 215.756 67.1738 215.756 66.7282C215.774 66.2691 215.765 65.9147 215.729 65.6652C215.709 65.4172 215.66 65.2201 215.584 65.0737C215.467 64.8618 215.311 64.7456 215.113 64.7249C214.931 64.7058 214.772 64.7507 214.638 64.8596C214.505 64.9533 214.356 65.2757 214.191 65.827C214.027 66.363 213.892 67.1402 213.786 68.1586C213.679 69.1769 213.651 69.9653 213.7 70.5236Z" fill="white"/>
<path d="M199.301 72.9695L199.767 66.6139C199.851 65.4708 199.867 64.6368 199.813 64.1119C199.76 63.587 199.558 63.3117 199.207 63.286C198.902 63.2637 198.735 63.4582 198.705 63.8698L198.044 72.8773C198.032 73.045 197.58 73.1497 196.688 73.1916C195.797 73.2182 194.887 73.1974 193.957 73.1293C193.028 73.0611 192.444 72.98 192.205 72.8859C191.968 72.7765 191.857 72.6228 191.871 72.4247L193.033 56.5815C193.057 56.2614 193.522 55.9737 194.43 55.7185C195.337 55.4632 196.278 55.3714 197.254 55.4429C198.275 55.5178 198.909 55.7558 199.155 56.157C199.238 56.2856 199.274 56.4185 199.264 56.5557L199.017 59.9163L198.65 61.4754L198.81 61.4871C199.047 61.1827 199.403 60.9253 199.878 60.715C200.765 60.3203 201.712 60.1599 202.718 60.2337C204.166 60.3398 205.107 60.8762 205.542 61.8428C205.993 62.7953 206.142 64.3079 205.99 66.3807L205.474 73.4221C205.462 73.5898 205.002 73.694 204.095 73.7347C203.204 73.7614 202.294 73.7406 201.365 73.6724C200.45 73.6054 199.874 73.5248 199.635 73.4307C199.398 73.3214 199.287 73.1676 199.301 72.9695Z" fill="white"/>
<path d="M191.13 56.0703L190.262 72.3226C190.253 72.4905 189.811 72.6046 188.935 72.665C188.061 72.7102 187.158 72.7079 186.227 72.6582C185.311 72.6093 184.718 72.5394 184.448 72.4484C184.193 72.343 184.071 72.1911 184.082 71.9927L184.927 56.1525C184.945 55.8167 185.39 55.5114 186.262 55.2366C187.149 54.9626 188.088 54.852 189.08 54.9049C190.484 54.9799 191.167 55.3683 191.13 56.0703Z" fill="white"/>
<path d="M175.618 67.0309C175.581 68.0236 176.036 68.5376 176.983 68.5729C177.533 68.5934 178.257 68.4369 179.157 68.1034C180.057 67.7547 180.53 67.5812 180.575 67.5829C180.866 67.5937 181.231 68.0432 181.672 68.9313C182.113 69.8194 182.326 70.4697 182.31 70.882C182.288 71.4776 181.661 71.9053 180.427 72.1652C179.194 72.425 177.99 72.533 176.814 72.4892C175.653 72.4459 174.679 72.3178 173.892 72.1049C173.12 71.8926 172.487 71.6396 171.993 71.3459C171.516 71.0375 171.093 70.67 170.727 70.2435C170.376 69.8175 170.116 69.4178 169.946 69.0444C169.777 68.6558 169.648 68.2304 169.558 67.7683C169.43 67.0907 169.38 66.393 169.406 65.6752C169.51 62.8958 170.307 61.0063 171.797 60.0067C172.535 59.4989 173.35 59.1547 174.244 58.9739C175.138 58.7932 176.188 58.7253 177.394 58.7703C181.258 58.9144 183.14 60.3304 183.04 63.0181C182.933 65.8739 180.711 67.2209 176.374 67.0591L175.618 67.0309ZM175.697 63.6848L175.641 65.1966C176.084 65.2132 176.449 65.0509 176.737 64.7099C177.04 64.3695 177.201 63.9473 177.22 63.4434C177.254 62.5271 177.035 62.0601 176.561 62.0424C176.027 62.0225 175.739 62.5699 175.697 63.6848Z" fill="white"/>
<path d="M152.435 57.0176C152.438 56.8342 152.64 56.6238 153.042 56.3864C153.444 56.1336 154.005 55.9143 154.727 55.7283C155.464 55.5426 156.26 55.4573 157.116 55.4724C157.972 55.4875 158.596 55.6208 158.989 55.8723C159.382 56.1238 159.591 56.3949 159.616 56.6858L160.271 65.0427L160.592 65.0483L161.446 56.9244C161.5 56.4974 162.025 56.1704 163.023 55.9435C164.02 55.7165 164.947 55.6106 165.802 55.6257C166.658 55.6408 167.291 55.7284 167.701 55.8884C168.111 56.0332 168.368 56.183 168.472 56.3377C168.592 56.4926 168.65 56.6388 168.648 56.7764C168.646 56.8986 168.525 57.2557 168.285 57.8475C168.061 58.4244 167.821 59.0468 167.564 59.7148C166.717 61.8397 165.282 65.6508 163.259 71.148C163.082 71.6188 161.764 71.8324 159.304 71.789C158.54 71.7755 158.037 71.7131 157.794 71.6019C157.552 71.4906 157.387 71.3043 157.3 71.0429C156.444 68.4294 155.419 65.4614 154.224 62.1389C153.03 58.8164 152.433 57.1093 152.435 57.0176Z" fill="white"/>
<path d="M138.944 66.4807C138.949 67.474 139.425 67.9687 140.372 67.9647C140.922 67.9624 141.64 67.7759 142.524 67.4054C143.409 67.0196 143.874 66.8266 143.92 66.8264C144.211 66.8252 144.595 67.2591 145.072 68.1282C145.549 68.9973 145.789 69.6381 145.791 70.0507C145.793 70.6467 145.184 71.1001 143.963 71.4109C142.741 71.7217 141.542 71.8796 140.366 71.8846C139.204 71.8895 138.226 71.802 137.43 71.6219C136.65 71.4418 136.007 71.2153 135.502 70.9424C135.012 70.6541 134.575 70.3045 134.191 69.8935C133.822 69.4824 133.546 69.0939 133.361 68.7279C133.176 68.3466 133.029 67.927 132.92 67.469C132.764 66.7972 132.685 66.1022 132.682 65.3839C132.67 62.6026 133.388 60.6817 134.835 59.6211C135.551 59.0832 136.352 58.7054 137.237 58.4877C138.123 58.27 139.169 58.1586 140.376 58.1535C144.243 58.1371 146.182 59.4738 146.193 62.1634C146.205 65.0211 144.041 66.4592 139.701 66.4775L138.944 66.4807ZM138.885 63.1341L138.891 64.6471C139.334 64.6452 139.692 64.4679 139.966 64.1153C140.255 63.7626 140.398 63.3341 140.396 62.8298C140.392 61.9128 140.153 61.4554 139.68 61.4574C139.145 61.4596 138.88 62.0186 138.885 63.1341Z" fill="white"/>
<path d="M122.031 72.0933C121.466 72.1044 120.937 72.0306 120.445 71.872C119.952 71.7135 119.543 71.5151 119.218 71.2769C118.908 71.0384 118.634 70.7151 118.397 70.307C118.159 69.8989 117.976 69.5127 117.847 69.1484C117.717 68.7688 117.616 68.3046 117.544 67.7557C117.437 66.9477 117.373 66.0242 117.353 64.9852C117.311 62.8614 117.67 61.2419 118.427 60.1266C119.185 58.996 120.244 58.4175 121.604 58.391C122.994 58.3639 124.009 58.6728 124.648 59.3176C124.789 59.4677 124.899 59.649 124.98 59.8614L125.163 59.8578L124.857 58.2818L124.801 55.4169C124.795 55.0808 125.216 54.744 126.066 54.4064C126.915 54.0689 127.836 53.8905 128.829 53.8711C129.868 53.8509 130.537 54.0366 130.835 54.4282C130.945 54.5789 131.001 54.7306 131.004 54.8834L131.321 71.1558C131.324 71.3239 130.899 71.4697 130.046 71.5933C129.207 71.7014 128.391 71.7631 127.596 71.7786C126.817 71.7938 126.312 71.7807 126.082 71.7393C125.867 71.6824 125.728 71.6239 125.666 71.564C125.619 71.5038 125.587 71.405 125.569 71.2678L125.36 69.965L125.176 69.9686C125.049 70.5061 124.783 70.9621 124.378 71.3369C123.867 71.8207 123.085 72.0728 122.031 72.0933ZM124.533 68.6972C124.777 68.6924 124.957 68.5361 125.074 68.2281L124.955 62.1088C124.952 61.956 124.865 61.843 124.696 61.7699C124.541 61.6812 124.403 61.6381 124.281 61.6404C123.761 61.6506 123.525 62.8474 123.571 65.2309C123.596 66.4991 123.682 67.3993 123.83 67.9314C123.993 68.4479 124.227 68.7032 124.533 68.6972Z" fill="white"/>
<path d="M106.806 72.5712C105.095 72.6352 103.88 72.2372 103.16 71.3772C102.454 70.5166 102.061 68.9868 101.978 66.7877L101.745 60.5569C101.734 60.2515 102.174 59.9445 103.064 59.6359C103.954 59.312 104.896 59.1315 105.888 59.0944C107.217 59.0447 107.894 59.3634 107.92 60.0506L108.138 65.869C108.181 67.0297 108.259 67.8755 108.37 68.4066C108.481 68.9224 108.72 69.1734 109.087 69.1597C109.575 69.1414 109.812 68.9261 109.797 68.5138L109.488 60.2672C109.476 59.9465 109.938 59.631 110.875 59.3207C111.811 59.0104 112.837 58.8344 113.952 58.7927C115.067 58.751 115.635 59.0279 115.657 59.6235L116.099 71.4207C116.107 71.6345 115.632 71.8052 114.673 71.9328C113.714 72.0604 112.769 72.1417 111.838 72.1765C110.906 72.2114 110.428 72.1069 110.404 71.8631L110.119 70.3828L109.936 70.3896C109.819 70.9445 109.561 71.4053 109.161 71.772C108.954 71.9632 108.64 72.1432 108.218 72.3119C107.811 72.4648 107.34 72.5513 106.806 72.5712Z" fill="white"/>
<path d="M95.4141 74.8331L94.7517 74.8934C94.5076 74.9071 94.3722 74.6775 94.3455 74.2045L94.281 73.0602C91.0628 72.7212 89.342 70.5682 89.1183 66.6011C89.0564 65.5026 89.1768 64.5162 89.4796 63.6419C89.7815 62.7525 90.1708 62.057 90.6477 61.5556C91.1245 61.0543 91.6824 60.6325 92.3213 60.2904C93.3466 59.7428 94.3856 59.4393 95.4384 59.3799C97.2083 59.2802 98.4443 59.3482 99.1464 59.5842C99.8637 59.8192 100.241 60.2648 100.278 60.9209C100.315 61.577 100.232 62.2857 100.03 63.0471C99.8428 63.7924 99.5583 64.1758 99.1768 64.1973C99.0548 64.2042 98.6737 64.0956 98.0335 63.8715C97.4085 63.6465 96.8672 63.5469 96.4095 63.5727C95.967 63.5977 95.634 63.8001 95.4105 64.1801C95.2014 64.5439 95.1261 65.2446 95.1846 66.2821C95.2422 67.3044 95.3886 68.0002 95.6237 68.3696C95.858 68.7238 96.1963 68.8884 96.6388 68.8634C97.0966 68.8376 97.6525 68.6532 98.3067 68.3102C98.9608 67.9672 99.326 67.7936 99.4023 67.7893C99.6922 67.7729 99.9862 68.1007 100.284 68.7727C100.598 69.4438 100.769 70.0464 100.799 70.5804C100.843 71.3586 100.501 71.9366 99.7722 72.3144C99.0435 72.6922 97.9858 72.9355 96.599 73.0443L96.6196 73.4105C97.9497 73.3814 98.6431 73.8704 98.6998 74.8775C98.7265 75.3504 98.5191 75.7448 98.0777 76.0605C97.6372 76.3915 97.1597 76.6097 96.6452 76.7152C96.1469 76.8352 95.6078 76.9115 95.028 76.9442C94.9059 76.951 94.7999 76.8346 94.7098 76.5948C94.6206 76.3702 94.5687 76.1282 94.5541 75.8688C94.5395 75.6094 94.5932 75.4763 94.7153 75.4694C95.8444 75.4058 96.402 75.2519 96.3883 75.0078C96.3797 74.8552 96.0549 74.797 95.4141 74.8331Z" fill="white"/>
<path d="M79.1785 72.8907C79.184 73.3349 78.9727 73.6587 78.5446 73.8622C78.1317 74.0645 77.3617 74.2115 76.2346 74.3032C75.1074 74.3949 74.155 74.3728 73.3773 74.2368C72.6136 74.0843 72.2187 73.8481 72.1927 73.5282C72.1629 73.1627 72.6511 70.777 73.6571 66.3713C74.6619 61.9504 75.2367 59.4044 75.3814 58.7334C75.4414 58.5291 76.0377 58.3196 77.1701 58.1048C78.3166 57.8735 79.5448 57.7045 80.8547 57.5979C82.1799 57.4901 82.9296 57.659 83.1039 58.1048C86.7612 67.4361 88.596 72.1778 88.6084 72.3302C88.6208 72.4825 88.5418 72.6422 88.3715 72.8094C87.9722 73.1792 87.1405 73.4156 85.8763 73.5185C83.1803 73.7379 81.7758 73.5302 81.6628 72.8955L81.382 71.4234L79.1886 71.6019L79.1785 72.8907ZM80.5489 67.1214L79.8714 63.0367L79.3688 63.0776L79.3151 67.2218L80.5489 67.1214Z" fill="white"/>
</svg>
